M48
; DRILL file {KiCad 9.0.6} date 2026-01-14T21:49:04+0700
; FORMAT={-:-/ absolute / metric / decimal}
; #@! TF.CreationDate,2026-01-14T21:49:04+07:00
; #@! TF.GenerationSoftware,Kicad,Pcbnew,9.0.6
; #@! TF.FileFunction,Plated,1,2,PTH
FMAT,2
METRIC
; #@! TA.AperFunction,Plated,PTH,ComponentDrill
T1C0.200
; #@! TA.AperFunction,Plated,PTH,ViaDrill
T2C0.300
; #@! TA.AperFunction,Plated,PTH,ComponentDrill
T3C1.000
%
G90
G05
T1
X106.96Y-117.555
X106.96Y-119.555
X108.96Y-117.555
X108.96Y-119.555
T2
X101.3Y-133.1
X101.4Y-131.15
X101.6Y-129.15
X102.0Y-112.6
X102.0Y-113.9
X102.25Y-117.1
X102.25Y-118.1
X102.25Y-119.2
X102.5Y-115.08
X102.85Y-113.15
X102.95Y-126.05
X103.8Y-112.6
X104.1Y-120.25
X105.0Y-117.3
X105.0Y-119.6
X105.2Y-112.6
X105.25Y-113.7
X105.3Y-120.4
X105.4Y-131.85
X105.6Y-133.65
X105.7Y-129.25
X105.9Y-130.8
X106.2Y-132.75
X107.25Y-130.05
X107.3Y-129.2
X107.9Y-148.35
X108.2Y-146.0
X108.6Y-103.7
X109.0Y-129.1
X109.15Y-138.25
X109.6Y-122.5
X109.8Y-130.6
X109.8Y-131.8
X109.8Y-132.9
X109.95Y-143.5
X110.1Y-148.45
X110.15Y-146.05
X110.7Y-102.5
X110.75Y-138.75
X111.35Y-106.3
X111.35Y-116.45
X111.45Y-124.6
X111.5Y-110.1
X111.5Y-111.8
X111.95Y-125.05
X111.95Y-138.7
X112.2Y-104.8
X112.2Y-145.95
X112.2Y-148.5
X112.3Y-108.3
X112.55Y-119.35
X112.6Y-102.7
X113.1Y-110.1
X113.25Y-139.45
X113.3Y-130.387
X113.4Y-111.8
X113.5Y-118.1
X113.6Y-106.6
X113.6Y-133.3
X113.9Y-108.2
X113.9Y-125.7
X113.95Y-103.9
X114.0Y-128.3
X114.0Y-138.9
X114.2Y-147.75
X114.25Y-136.7
X114.25Y-146.45
X114.3Y-113.65
X114.55Y-118.23
X114.8Y-102.2
X114.85Y-137.5
X115.2Y-106.7
X115.35Y-121.85
X115.6Y-110.1
X115.6Y-111.9
X115.9Y-104.4
X116.3Y-130.4
X116.7Y-121.8
X116.9Y-108.2
X116.9Y-113.75
X117.1Y-112.0
X117.3Y-103.4
X117.4Y-109.9
X117.55Y-105.8
X117.9Y-131.1
X118.2Y-121.712
X118.4Y-114.9
T3
X102.715Y-139.69
X102.715Y-142.23
X102.715Y-144.77
X102.715Y-147.31
X117.2Y-134.6
X117.2Y-137.14
X117.2Y-139.68
X117.2Y-142.22
X117.2Y-144.76
X117.2Y-147.3
M30
