%TF.GenerationSoftware,KiCad,Pcbnew,9.0.6*%
%TF.CreationDate,2026-01-14T21:48:58+07:00*%
%TF.ProjectId,Sensor,53656e73-6f72-42e6-9b69-6361645f7063,rev?*%
%TF.SameCoordinates,Original*%
%TF.FileFunction,Soldermask,Top*%
%TF.FilePolarity,Negative*%
%FSLAX46Y46*%
G04 Gerber Fmt 4.6, Leading zero omitted, Abs format (unit mm)*
G04 Created by KiCad (PCBNEW 9.0.6) date 2026-01-14 21:48:58*
%MOMM*%
%LPD*%
G01*
G04 APERTURE LIST*
G04 Aperture macros list*
%AMRoundRect*
0 Rectangle with rounded corners*
0 $1 Rounding radius*
0 $2 $3 $4 $5 $6 $7 $8 $9 X,Y pos of 4 corners*
0 Add a 4 corners polygon primitive as box body*
4,1,4,$2,$3,$4,$5,$6,$7,$8,$9,$2,$3,0*
0 Add four circle primitives for the rounded corners*
1,1,$1+$1,$2,$3*
1,1,$1+$1,$4,$5*
1,1,$1+$1,$6,$7*
1,1,$1+$1,$8,$9*
0 Add four rect primitives between the rounded corners*
20,1,$1+$1,$2,$3,$4,$5,0*
20,1,$1+$1,$4,$5,$6,$7,0*
20,1,$1+$1,$6,$7,$8,$9,0*
20,1,$1+$1,$8,$9,$2,$3,0*%
G04 Aperture macros list end*
%ADD10R,5.080000X1.500000*%
%ADD11RoundRect,0.140000X-0.170000X0.140000X-0.170000X-0.140000X0.170000X-0.140000X0.170000X0.140000X0*%
%ADD12RoundRect,0.140000X-0.140000X-0.170000X0.140000X-0.170000X0.140000X0.170000X-0.140000X0.170000X0*%
%ADD13RoundRect,0.135000X-0.135000X-0.185000X0.135000X-0.185000X0.135000X0.185000X-0.135000X0.185000X0*%
%ADD14RoundRect,0.140000X0.140000X0.170000X-0.140000X0.170000X-0.140000X-0.170000X0.140000X-0.170000X0*%
%ADD15RoundRect,0.135000X0.135000X0.185000X-0.135000X0.185000X-0.135000X-0.185000X0.135000X-0.185000X0*%
%ADD16RoundRect,0.135000X-0.185000X0.135000X-0.185000X-0.135000X0.185000X-0.135000X0.185000X0.135000X0*%
%ADD17RoundRect,0.147500X-0.147500X-0.172500X0.147500X-0.172500X0.147500X0.172500X-0.147500X0.172500X0*%
%ADD18RoundRect,0.102000X0.275000X0.750000X-0.275000X0.750000X-0.275000X-0.750000X0.275000X-0.750000X0*%
%ADD19R,1.700000X1.700000*%
%ADD20C,1.700000*%
%ADD21RoundRect,0.062500X0.062500X-0.350000X0.062500X0.350000X-0.062500X0.350000X-0.062500X-0.350000X0*%
%ADD22RoundRect,0.062500X0.350000X-0.062500X0.350000X0.062500X-0.350000X0.062500X-0.350000X-0.062500X0*%
%ADD23R,2.500000X2.500000*%
%ADD24RoundRect,0.250000X-0.350000X0.450000X-0.350000X-0.450000X0.350000X-0.450000X0.350000X0.450000X0*%
%ADD25RoundRect,0.147500X0.172500X-0.147500X0.172500X0.147500X-0.172500X0.147500X-0.172500X-0.147500X0*%
%ADD26RoundRect,0.135000X0.185000X-0.135000X0.185000X0.135000X-0.185000X0.135000X-0.185000X-0.135000X0*%
%ADD27RoundRect,0.140000X0.170000X-0.140000X0.170000X0.140000X-0.170000X0.140000X-0.170000X-0.140000X0*%
%ADD28RoundRect,0.075000X0.662500X0.075000X-0.662500X0.075000X-0.662500X-0.075000X0.662500X-0.075000X0*%
%ADD29RoundRect,0.075000X0.075000X0.662500X-0.075000X0.662500X-0.075000X-0.662500X0.075000X-0.662500X0*%
%ADD30RoundRect,0.243750X0.456250X-0.243750X0.456250X0.243750X-0.456250X0.243750X-0.456250X-0.243750X0*%
G04 APERTURE END LIST*
D10*
%TO.C,J31*%
X103062500Y-106100000D03*
X103062500Y-110350000D03*
X103062500Y-101850000D03*
%TD*%
D11*
%TO.C,C41*%
X109040000Y-112805000D03*
X109040000Y-113765000D03*
%TD*%
D12*
%TO.C,C34*%
X103130000Y-117050000D03*
X104090000Y-117050000D03*
%TD*%
%TO.C,C32*%
X103140000Y-119250000D03*
X104100000Y-119250000D03*
%TD*%
D13*
%TO.C,R22*%
X108190000Y-137000000D03*
X109210000Y-137000000D03*
%TD*%
D14*
%TO.C,C31*%
X112580000Y-118100000D03*
X111620000Y-118100000D03*
%TD*%
D15*
%TO.C,R21*%
X106910000Y-137000000D03*
X105890000Y-137000000D03*
%TD*%
D16*
%TO.C,R52*%
X118300000Y-129090000D03*
X118300000Y-130110000D03*
%TD*%
D17*
%TO.C,L34*%
X109040000Y-114855000D03*
X110010000Y-114855000D03*
%TD*%
D15*
%TO.C,R31*%
X104110000Y-118150000D03*
X103090000Y-118150000D03*
%TD*%
D18*
%TO.C,S51*%
X118300000Y-126800000D03*
X115050000Y-126800000D03*
%TD*%
%TO.C,S52*%
X118300000Y-123800000D03*
X115050000Y-123800000D03*
%TD*%
D19*
%TO.C,J53*%
X117200000Y-134600000D03*
D20*
X117200000Y-137140000D03*
X117200000Y-139680000D03*
X117200000Y-142220000D03*
X117200000Y-144760000D03*
X117200000Y-147300000D03*
%TD*%
D21*
%TO.C,U31*%
X106960000Y-120492500D03*
X107460000Y-120492500D03*
X107960000Y-120492500D03*
X108460000Y-120492500D03*
X108960000Y-120492500D03*
D22*
X109897500Y-119555000D03*
X109897500Y-119055000D03*
X109897500Y-118555000D03*
X109897500Y-118055000D03*
X109897500Y-117555000D03*
D21*
X108960000Y-116617500D03*
X108460000Y-116617500D03*
X107960000Y-116617500D03*
X107460000Y-116617500D03*
X106960000Y-116617500D03*
D22*
X106022500Y-117555000D03*
X106022500Y-118055000D03*
X106022500Y-118555000D03*
X106022500Y-119055000D03*
X106022500Y-119555000D03*
D23*
X107960000Y-118555000D03*
%TD*%
D12*
%TO.C,C24*%
X114525662Y-129817500D03*
X115485662Y-129817500D03*
%TD*%
D24*
%TO.C,Y31*%
X116400000Y-117030000D03*
X116400000Y-119230000D03*
X118100000Y-119230000D03*
X118100000Y-117030000D03*
%TD*%
D25*
%TO.C,L32*%
X107840000Y-112740000D03*
X107840000Y-111770000D03*
%TD*%
D11*
%TO.C,C38*%
X108890000Y-106120000D03*
X108890000Y-107080000D03*
%TD*%
D19*
%TO.C,J52*%
X102715000Y-139690000D03*
D20*
X102715000Y-142230000D03*
X102715000Y-144770000D03*
X102715000Y-147310000D03*
%TD*%
D26*
%TO.C,R61*%
X105300000Y-122860000D03*
X105300000Y-121840000D03*
%TD*%
D27*
%TO.C,C45*%
X114550000Y-116960000D03*
X114550000Y-116000000D03*
%TD*%
%TO.C,C35*%
X110650000Y-123460000D03*
X110650000Y-122500000D03*
%TD*%
D13*
%TO.C,R62*%
X101090000Y-120700000D03*
X102110000Y-120700000D03*
%TD*%
D14*
%TO.C,C22*%
X102230000Y-126800000D03*
X101270000Y-126800000D03*
%TD*%
D25*
%TO.C,L31*%
X106690000Y-113775000D03*
X106690000Y-112805000D03*
%TD*%
D28*
%TO.C,U21*%
X111848162Y-133787500D03*
X111848162Y-133287500D03*
X111848162Y-132787500D03*
X111848162Y-132287500D03*
X111848162Y-131787500D03*
X111848162Y-131287500D03*
X111848162Y-130787500D03*
X111848162Y-130287500D03*
X111848162Y-129787500D03*
X111848162Y-129287500D03*
X111848162Y-128787500D03*
X111848162Y-128287500D03*
D29*
X110435662Y-126875000D03*
X109935662Y-126875000D03*
X109435662Y-126875000D03*
X108935662Y-126875000D03*
X108435662Y-126875000D03*
X107935662Y-126875000D03*
X107435662Y-126875000D03*
X106935662Y-126875000D03*
X106435662Y-126875000D03*
X105935662Y-126875000D03*
X105435662Y-126875000D03*
X104935662Y-126875000D03*
D28*
X103523162Y-128287500D03*
X103523162Y-128787500D03*
X103523162Y-129287500D03*
X103523162Y-129787500D03*
X103523162Y-130287500D03*
X103523162Y-130787500D03*
X103523162Y-131287500D03*
X103523162Y-131787500D03*
X103523162Y-132287500D03*
X103523162Y-132787500D03*
X103523162Y-133287500D03*
X103523162Y-133787500D03*
D29*
X104935662Y-135200000D03*
X105435662Y-135200000D03*
X105935662Y-135200000D03*
X106435662Y-135200000D03*
X106935662Y-135200000D03*
X107435662Y-135200000D03*
X107935662Y-135200000D03*
X108435662Y-135200000D03*
X108935662Y-135200000D03*
X109435662Y-135200000D03*
X109935662Y-135200000D03*
X110435662Y-135200000D03*
%TD*%
D27*
%TO.C,C42*%
X111850000Y-123510000D03*
X111850000Y-122550000D03*
%TD*%
D30*
%TO.C,D61*%
X103650000Y-124000000D03*
X103650000Y-122125000D03*
%TD*%
%TO.C,D62*%
X101540000Y-124037500D03*
X101540000Y-122162500D03*
%TD*%
D11*
%TO.C,C33*%
X104050000Y-114120000D03*
X104050000Y-115080000D03*
%TD*%
D12*
%TO.C,C25*%
X113850000Y-134950000D03*
X114810000Y-134950000D03*
%TD*%
D11*
%TO.C,C36*%
X112250000Y-114620000D03*
X112250000Y-115580000D03*
%TD*%
D12*
%TO.C,C43*%
X110110000Y-113705000D03*
X111070000Y-113705000D03*
%TD*%
D11*
%TO.C,C44*%
X114550000Y-119300000D03*
X114550000Y-120260000D03*
%TD*%
D25*
%TO.C,L33*%
X107840000Y-109655000D03*
X107840000Y-108685000D03*
%TD*%
D14*
%TO.C,C23*%
X102630000Y-136625000D03*
X101670000Y-136625000D03*
%TD*%
%TO.C,C40*%
X109890000Y-108705000D03*
X108930000Y-108705000D03*
%TD*%
D12*
%TO.C,C37*%
X105780000Y-114855000D03*
X106740000Y-114855000D03*
%TD*%
D11*
%TO.C,C21*%
X112450000Y-136320000D03*
X112450000Y-137280000D03*
%TD*%
D12*
%TO.C,C39*%
X106910000Y-110705000D03*
X107870000Y-110705000D03*
%TD*%
D26*
%TO.C,R51*%
X115175000Y-132020000D03*
X115175000Y-131000000D03*
%TD*%
D11*
%TO.C,C51*%
X114000000Y-131020000D03*
X114000000Y-131980000D03*
%TD*%
M02*
