%TF.GenerationSoftware,KiCad,Pcbnew,9.0.6*%
%TF.CreationDate,2026-01-14T21:48:58+07:00*%
%TF.ProjectId,Sensor,53656e73-6f72-42e6-9b69-6361645f7063,rev?*%
%TF.SameCoordinates,Original*%
%TF.FileFunction,Copper,L1,Top*%
%TF.FilePolarity,Positive*%
%FSLAX46Y46*%
G04 Gerber Fmt 4.6, Leading zero omitted, Abs format (unit mm)*
G04 Created by KiCad (PCBNEW 9.0.6) date 2026-01-14 21:48:58*
%MOMM*%
%LPD*%
G01*
G04 APERTURE LIST*
G04 Aperture macros list*
%AMRoundRect*
0 Rectangle with rounded corners*
0 $1 Rounding radius*
0 $2 $3 $4 $5 $6 $7 $8 $9 X,Y pos of 4 corners*
0 Add a 4 corners polygon primitive as box body*
4,1,4,$2,$3,$4,$5,$6,$7,$8,$9,$2,$3,0*
0 Add four circle primitives for the rounded corners*
1,1,$1+$1,$2,$3*
1,1,$1+$1,$4,$5*
1,1,$1+$1,$6,$7*
1,1,$1+$1,$8,$9*
0 Add four rect primitives between the rounded corners*
20,1,$1+$1,$2,$3,$4,$5,0*
20,1,$1+$1,$4,$5,$6,$7,0*
20,1,$1+$1,$6,$7,$8,$9,0*
20,1,$1+$1,$8,$9,$2,$3,0*%
G04 Aperture macros list end*
%TA.AperFunction,SMDPad,CuDef*%
%ADD10R,5.080000X1.500000*%
%TD*%
%TA.AperFunction,SMDPad,CuDef*%
%ADD11RoundRect,0.140000X-0.170000X0.140000X-0.170000X-0.140000X0.170000X-0.140000X0.170000X0.140000X0*%
%TD*%
%TA.AperFunction,SMDPad,CuDef*%
%ADD12RoundRect,0.140000X-0.140000X-0.170000X0.140000X-0.170000X0.140000X0.170000X-0.140000X0.170000X0*%
%TD*%
%TA.AperFunction,SMDPad,CuDef*%
%ADD13RoundRect,0.135000X-0.135000X-0.185000X0.135000X-0.185000X0.135000X0.185000X-0.135000X0.185000X0*%
%TD*%
%TA.AperFunction,SMDPad,CuDef*%
%ADD14RoundRect,0.140000X0.140000X0.170000X-0.140000X0.170000X-0.140000X-0.170000X0.140000X-0.170000X0*%
%TD*%
%TA.AperFunction,SMDPad,CuDef*%
%ADD15RoundRect,0.135000X0.135000X0.185000X-0.135000X0.185000X-0.135000X-0.185000X0.135000X-0.185000X0*%
%TD*%
%TA.AperFunction,SMDPad,CuDef*%
%ADD16RoundRect,0.135000X-0.185000X0.135000X-0.185000X-0.135000X0.185000X-0.135000X0.185000X0.135000X0*%
%TD*%
%TA.AperFunction,SMDPad,CuDef*%
%ADD17RoundRect,0.147500X-0.147500X-0.172500X0.147500X-0.172500X0.147500X0.172500X-0.147500X0.172500X0*%
%TD*%
%TA.AperFunction,SMDPad,CuDef*%
%ADD18R,0.550000X1.500000*%
%TD*%
%TA.AperFunction,ComponentPad*%
%ADD19R,1.700000X1.700000*%
%TD*%
%TA.AperFunction,ComponentPad*%
%ADD20C,1.700000*%
%TD*%
%TA.AperFunction,SMDPad,CuDef*%
%ADD21RoundRect,0.062500X0.062500X-0.350000X0.062500X0.350000X-0.062500X0.350000X-0.062500X-0.350000X0*%
%TD*%
%TA.AperFunction,SMDPad,CuDef*%
%ADD22RoundRect,0.062500X0.350000X-0.062500X0.350000X0.062500X-0.350000X0.062500X-0.350000X-0.062500X0*%
%TD*%
%TA.AperFunction,HeatsinkPad*%
%ADD23C,0.500000*%
%TD*%
%TA.AperFunction,HeatsinkPad*%
%ADD24R,2.500000X2.500000*%
%TD*%
%TA.AperFunction,SMDPad,CuDef*%
%ADD25RoundRect,0.250000X-0.350000X0.450000X-0.350000X-0.450000X0.350000X-0.450000X0.350000X0.450000X0*%
%TD*%
%TA.AperFunction,SMDPad,CuDef*%
%ADD26RoundRect,0.147500X0.172500X-0.147500X0.172500X0.147500X-0.172500X0.147500X-0.172500X-0.147500X0*%
%TD*%
%TA.AperFunction,SMDPad,CuDef*%
%ADD27RoundRect,0.135000X0.185000X-0.135000X0.185000X0.135000X-0.185000X0.135000X-0.185000X-0.135000X0*%
%TD*%
%TA.AperFunction,SMDPad,CuDef*%
%ADD28RoundRect,0.140000X0.170000X-0.140000X0.170000X0.140000X-0.170000X0.140000X-0.170000X-0.140000X0*%
%TD*%
%TA.AperFunction,SMDPad,CuDef*%
%ADD29RoundRect,0.075000X0.662500X0.075000X-0.662500X0.075000X-0.662500X-0.075000X0.662500X-0.075000X0*%
%TD*%
%TA.AperFunction,SMDPad,CuDef*%
%ADD30RoundRect,0.075000X0.075000X0.662500X-0.075000X0.662500X-0.075000X-0.662500X0.075000X-0.662500X0*%
%TD*%
%TA.AperFunction,SMDPad,CuDef*%
%ADD31RoundRect,0.243750X0.456250X-0.243750X0.456250X0.243750X-0.456250X0.243750X-0.456250X-0.243750X0*%
%TD*%
%TA.AperFunction,ViaPad*%
%ADD32C,0.600000*%
%TD*%
%TA.AperFunction,Conductor*%
%ADD33C,0.200000*%
%TD*%
%TA.AperFunction,Conductor*%
%ADD34C,0.400000*%
%TD*%
%TA.AperFunction,Conductor*%
%ADD35C,0.300000*%
%TD*%
G04 APERTURE END LIST*
D10*
%TO.P,J31,1,In*%
%TO.N,Net-(J31-In)*%
X103062500Y-106100000D03*
%TO.P,J31,2,Ext*%
%TO.N,GND*%
X103062500Y-110350000D03*
X103062500Y-101850000D03*
%TD*%
D11*
%TO.P,C41,1*%
%TO.N,Net-(C41-Pad1)*%
X109040000Y-112805000D03*
%TO.P,C41,2*%
%TO.N,/RF_P*%
X109040000Y-113765000D03*
%TD*%
D12*
%TO.P,C34,1*%
%TO.N,GND*%
X103130000Y-117050000D03*
%TO.P,C34,2*%
%TO.N,VCC*%
X104090000Y-117050000D03*
%TD*%
%TO.P,C32,1*%
%TO.N,GND*%
X103140000Y-119250000D03*
%TO.P,C32,2*%
%TO.N,VCC*%
X104100000Y-119250000D03*
%TD*%
D13*
%TO.P,R22,1*%
%TO.N,/SDA*%
X108190000Y-137000000D03*
%TO.P,R22,2*%
%TO.N,VCC*%
X109210000Y-137000000D03*
%TD*%
D14*
%TO.P,C31,1*%
%TO.N,GND*%
X112580000Y-118100000D03*
%TO.P,C31,2*%
%TO.N,VCC*%
X111620000Y-118100000D03*
%TD*%
D15*
%TO.P,R21,1*%
%TO.N,/SCL*%
X106910000Y-137000000D03*
%TO.P,R21,2*%
%TO.N,VCC*%
X105890000Y-137000000D03*
%TD*%
D16*
%TO.P,R52,1*%
%TO.N,/SW_BOOT*%
X118300000Y-129090000D03*
%TO.P,R52,2*%
%TO.N,GND*%
X118300000Y-130110000D03*
%TD*%
D17*
%TO.P,L34,1,1*%
%TO.N,/RF_P*%
X109040000Y-114855000D03*
%TO.P,L34,2,2*%
%TO.N,Net-(C43-Pad1)*%
X110010000Y-114855000D03*
%TD*%
D15*
%TO.P,R31,1*%
%TO.N,Net-(U31-RBIAS)*%
X104110000Y-118150000D03*
%TO.P,R31,2*%
%TO.N,GND*%
X103090000Y-118150000D03*
%TD*%
D18*
%TO.P,S51,1*%
%TO.N,VCC*%
X118300000Y-126800000D03*
%TO.P,S51,2*%
%TO.N,/SW_BOOT*%
X115050000Y-126800000D03*
%TD*%
%TO.P,S52,1*%
%TO.N,GND*%
X118300000Y-123800000D03*
%TO.P,S52,2*%
%TO.N,/SW_RESET*%
X115050000Y-123800000D03*
%TD*%
D19*
%TO.P,J53,1,Pin_1*%
%TO.N,VCC*%
X117200000Y-134600000D03*
D20*
%TO.P,J53,2,Pin_2*%
%TO.N,GND*%
X117200000Y-137140000D03*
%TO.P,J53,3,Pin_3*%
%TO.N,/TX*%
X117200000Y-139680000D03*
%TO.P,J53,4,Pin_4*%
%TO.N,/RX*%
X117200000Y-142220000D03*
%TO.P,J53,5,Pin_5*%
%TO.N,/SWDIO*%
X117200000Y-144760000D03*
%TO.P,J53,6,Pin_6*%
%TO.N,/SWCLK*%
X117200000Y-147300000D03*
%TD*%
D21*
%TO.P,U31,1,SCLK*%
%TO.N,/SCLK*%
X106960000Y-120492500D03*
%TO.P,U31,2,SO(GDO1)*%
%TO.N,/MISO*%
X107460000Y-120492500D03*
%TO.P,U31,3,GDO2*%
%TO.N,/GDO2*%
X107960000Y-120492500D03*
%TO.P,U31,4,DVDD*%
%TO.N,VCC*%
X108460000Y-120492500D03*
%TO.P,U31,5,DCOUPL*%
%TO.N,Net-(U31-DCOUPL)*%
X108960000Y-120492500D03*
D22*
%TO.P,U31,6,GDO(ATEST)*%
%TO.N,/GDO0*%
X109897500Y-119555000D03*
%TO.P,U31,7,CSN*%
%TO.N,/CSN*%
X109897500Y-119055000D03*
%TO.P,U31,8,XOSC_Q1*%
%TO.N,Net-(U31-XOSC_Q1)*%
X109897500Y-118555000D03*
%TO.P,U31,9,AVDD_9*%
%TO.N,VCC*%
X109897500Y-118055000D03*
%TO.P,U31,10,XOSC_Q2*%
%TO.N,Net-(U31-XOSC_Q2)*%
X109897500Y-117555000D03*
D21*
%TO.P,U31,11,AVDD_11*%
%TO.N,VCC*%
X108960000Y-116617500D03*
%TO.P,U31,12,RF_P*%
%TO.N,/RF_P*%
X108460000Y-116617500D03*
%TO.P,U31,13,RF_N*%
%TO.N,/RF_N*%
X107960000Y-116617500D03*
%TO.P,U31,14,AVDD_14*%
%TO.N,VCC*%
X107460000Y-116617500D03*
%TO.P,U31,15,AVDD_15*%
X106960000Y-116617500D03*
D22*
%TO.P,U31,16,GND_16*%
%TO.N,GND*%
X106022500Y-117555000D03*
%TO.P,U31,17,RBIAS*%
%TO.N,Net-(U31-RBIAS)*%
X106022500Y-118055000D03*
%TO.P,U31,18,DGUARD*%
%TO.N,VCC*%
X106022500Y-118555000D03*
%TO.P,U31,19,GND_19*%
%TO.N,GND*%
X106022500Y-119055000D03*
%TO.P,U31,20,SI*%
%TO.N,/MOSI*%
X106022500Y-119555000D03*
D23*
%TO.P,U31,21,EXP*%
%TO.N,GND*%
X106960000Y-119555000D03*
X108960000Y-119555000D03*
D24*
X107960000Y-118555000D03*
D23*
X106960000Y-117555000D03*
X108960000Y-117555000D03*
%TD*%
D12*
%TO.P,C24,1*%
%TO.N,VCC*%
X114525662Y-129817500D03*
%TO.P,C24,2*%
%TO.N,GND*%
X115485662Y-129817500D03*
%TD*%
D25*
%TO.P,Y31,1,1*%
%TO.N,Net-(U31-XOSC_Q2)*%
X116400000Y-117030000D03*
%TO.P,Y31,2,2*%
%TO.N,GND*%
X116400000Y-119230000D03*
%TO.P,Y31,3,3*%
%TO.N,Net-(U31-XOSC_Q1)*%
X118100000Y-119230000D03*
%TO.P,Y31,4,4*%
%TO.N,GND*%
X118100000Y-117030000D03*
%TD*%
D26*
%TO.P,L32,1,1*%
%TO.N,Net-(C41-Pad1)*%
X107840000Y-112740000D03*
%TO.P,L32,2,2*%
%TO.N,Net-(C39-Pad2)*%
X107840000Y-111770000D03*
%TD*%
D11*
%TO.P,C38,1*%
%TO.N,Net-(J31-In)*%
X108890000Y-106120000D03*
%TO.P,C38,2*%
%TO.N,Net-(C38-Pad2)*%
X108890000Y-107080000D03*
%TD*%
D19*
%TO.P,J52,1,Pin_1*%
%TO.N,VCC*%
X102715000Y-139690000D03*
D20*
%TO.P,J52,2,Pin_2*%
%TO.N,GND*%
X102715000Y-142230000D03*
%TO.P,J52,3,Pin_3*%
%TO.N,/SCL*%
X102715000Y-144770000D03*
%TO.P,J52,4,Pin_4*%
%TO.N,/SDA*%
X102715000Y-147310000D03*
%TD*%
D27*
%TO.P,R61,1*%
%TO.N,Net-(D61-A)*%
X105300000Y-122860000D03*
%TO.P,R61,2*%
%TO.N,VCC*%
X105300000Y-121840000D03*
%TD*%
D28*
%TO.P,C45,1*%
%TO.N,GND*%
X114550000Y-116960000D03*
%TO.P,C45,2*%
%TO.N,Net-(U31-XOSC_Q2)*%
X114550000Y-116000000D03*
%TD*%
%TO.P,C35,1*%
%TO.N,GND*%
X110650000Y-123460000D03*
%TO.P,C35,2*%
%TO.N,VCC*%
X110650000Y-122500000D03*
%TD*%
D13*
%TO.P,R62,1*%
%TO.N,Net-(D62-A)*%
X101090000Y-120700000D03*
%TO.P,R62,2*%
%TO.N,VCC*%
X102110000Y-120700000D03*
%TD*%
D14*
%TO.P,C22,1*%
%TO.N,VCC*%
X102230000Y-126800000D03*
%TO.P,C22,2*%
%TO.N,GND*%
X101270000Y-126800000D03*
%TD*%
D26*
%TO.P,L31,1,1*%
%TO.N,/RF_N*%
X106690000Y-113775000D03*
%TO.P,L31,2,2*%
%TO.N,Net-(C41-Pad1)*%
X106690000Y-112805000D03*
%TD*%
D29*
%TO.P,U21,1,VDD*%
%TO.N,VCC*%
X111848162Y-133787500D03*
%TO.P,U21,2,PC13*%
%TO.N,unconnected-(U21-PC13-Pad2)*%
X111848162Y-133287500D03*
%TO.P,U21,3,PC14*%
%TO.N,unconnected-(U21-PC14-Pad3)*%
X111848162Y-132787500D03*
%TO.P,U21,4,PC15*%
%TO.N,unconnected-(U21-PC15-Pad4)*%
X111848162Y-132287500D03*
%TO.P,U21,5,PH0*%
%TO.N,unconnected-(U21-PH0-Pad5)*%
X111848162Y-131787500D03*
%TO.P,U21,6,PH1*%
%TO.N,unconnected-(U21-PH1-Pad6)*%
X111848162Y-131287500D03*
%TO.P,U21,7,NRST*%
%TO.N,/SW_RESET*%
X111848162Y-130787500D03*
%TO.P,U21,8,VSSA*%
%TO.N,GND*%
X111848162Y-130287500D03*
%TO.P,U21,9,VDDA*%
%TO.N,VCC*%
X111848162Y-129787500D03*
%TO.P,U21,10,PA0*%
%TO.N,/CSN*%
X111848162Y-129287500D03*
%TO.P,U21,11,PA1*%
%TO.N,/GDO0*%
X111848162Y-128787500D03*
%TO.P,U21,12,PA2*%
%TO.N,/GDO2*%
X111848162Y-128287500D03*
D30*
%TO.P,U21,13,PA3*%
%TO.N,unconnected-(U21-PA3-Pad13)*%
X110435662Y-126875000D03*
%TO.P,U21,14,PA4*%
%TO.N,unconnected-(U21-PA4-Pad14)*%
X109935662Y-126875000D03*
%TO.P,U21,15,PA5*%
%TO.N,/SCLK*%
X109435662Y-126875000D03*
%TO.P,U21,16,PA6*%
%TO.N,/MISO*%
X108935662Y-126875000D03*
%TO.P,U21,17,PA7*%
%TO.N,/MOSI*%
X108435662Y-126875000D03*
%TO.P,U21,18,PB0*%
%TO.N,unconnected-(U21-PB0-Pad18)*%
X107935662Y-126875000D03*
%TO.P,U21,19,PB1*%
%TO.N,/LED_RED*%
X107435662Y-126875000D03*
%TO.P,U21,20,PB2*%
%TO.N,/LED_GREEN*%
X106935662Y-126875000D03*
%TO.P,U21,21,PB10*%
%TO.N,unconnected-(U21-PB10-Pad21)*%
X106435662Y-126875000D03*
%TO.P,U21,22,PB11*%
%TO.N,unconnected-(U21-PB11-Pad22)*%
X105935662Y-126875000D03*
%TO.P,U21,23,VSS*%
%TO.N,GND*%
X105435662Y-126875000D03*
%TO.P,U21,24,VDD*%
%TO.N,VCC*%
X104935662Y-126875000D03*
D29*
%TO.P,U21,25,PB12*%
%TO.N,unconnected-(U21-PB12-Pad25)*%
X103523162Y-128287500D03*
%TO.P,U21,26,PB13*%
%TO.N,unconnected-(U21-PB13-Pad26)*%
X103523162Y-128787500D03*
%TO.P,U21,27,PB14*%
%TO.N,unconnected-(U21-PB14-Pad27)*%
X103523162Y-129287500D03*
%TO.P,U21,28,PB15*%
%TO.N,unconnected-(U21-PB15-Pad28)*%
X103523162Y-129787500D03*
%TO.P,U21,29,PA8*%
%TO.N,unconnected-(U21-PA8-Pad29)*%
X103523162Y-130287500D03*
%TO.P,U21,30,PA9*%
%TO.N,/TX*%
X103523162Y-130787500D03*
%TO.P,U21,31,PA10*%
%TO.N,/RX*%
X103523162Y-131287500D03*
%TO.P,U21,32,PA11*%
%TO.N,unconnected-(U21-PA11-Pad32)*%
X103523162Y-131787500D03*
%TO.P,U21,33,PA12*%
%TO.N,unconnected-(U21-PA12-Pad33)*%
X103523162Y-132287500D03*
%TO.P,U21,34,PA13*%
%TO.N,/SWDIO*%
X103523162Y-132787500D03*
%TO.P,U21,35,VSS*%
%TO.N,GND*%
X103523162Y-133287500D03*
%TO.P,U21,36,VDDIO2*%
%TO.N,VCC*%
X103523162Y-133787500D03*
D30*
%TO.P,U21,37,PA14*%
%TO.N,/SWCLK*%
X104935662Y-135200000D03*
%TO.P,U21,38,PA15*%
%TO.N,unconnected-(U21-PA15-Pad38)*%
X105435662Y-135200000D03*
%TO.P,U21,39,PB3*%
%TO.N,unconnected-(U21-PB3-Pad39)*%
X105935662Y-135200000D03*
%TO.P,U21,40,PB4*%
%TO.N,unconnected-(U21-PB4-Pad40)*%
X106435662Y-135200000D03*
%TO.P,U21,41,PB5*%
%TO.N,unconnected-(U21-PB5-Pad41)*%
X106935662Y-135200000D03*
%TO.P,U21,42,PB6*%
%TO.N,/SCL*%
X107435662Y-135200000D03*
%TO.P,U21,43,PB7*%
%TO.N,/SDA*%
X107935662Y-135200000D03*
%TO.P,U21,44,BOOT0*%
%TO.N,/SW_BOOT*%
X108435662Y-135200000D03*
%TO.P,U21,45,PB8*%
%TO.N,unconnected-(U21-PB8-Pad45)*%
X108935662Y-135200000D03*
%TO.P,U21,46,PB9*%
%TO.N,unconnected-(U21-PB9-Pad46)*%
X109435662Y-135200000D03*
%TO.P,U21,47,VSS*%
%TO.N,GND*%
X109935662Y-135200000D03*
%TO.P,U21,48,VDD*%
%TO.N,VCC*%
X110435662Y-135200000D03*
%TD*%
D28*
%TO.P,C42,1*%
%TO.N,GND*%
X111850000Y-123510000D03*
%TO.P,C42,2*%
%TO.N,Net-(U31-DCOUPL)*%
X111850000Y-122550000D03*
%TD*%
D31*
%TO.P,D61,1,K*%
%TO.N,/LED_RED*%
X103650000Y-124000000D03*
%TO.P,D61,2,A*%
%TO.N,Net-(D61-A)*%
X103650000Y-122125000D03*
%TD*%
%TO.P,D62,1,K*%
%TO.N,/LED_GREEN*%
X101540000Y-124037500D03*
%TO.P,D62,2,A*%
%TO.N,Net-(D62-A)*%
X101540000Y-122162500D03*
%TD*%
D11*
%TO.P,C33,1*%
%TO.N,GND*%
X104050000Y-114120000D03*
%TO.P,C33,2*%
%TO.N,VCC*%
X104050000Y-115080000D03*
%TD*%
D12*
%TO.P,C25,1*%
%TO.N,VCC*%
X113850000Y-134950000D03*
%TO.P,C25,2*%
%TO.N,GND*%
X114810000Y-134950000D03*
%TD*%
D11*
%TO.P,C36,1*%
%TO.N,GND*%
X112250000Y-114620000D03*
%TO.P,C36,2*%
%TO.N,VCC*%
X112250000Y-115580000D03*
%TD*%
D12*
%TO.P,C43,1*%
%TO.N,Net-(C43-Pad1)*%
X110110000Y-113705000D03*
%TO.P,C43,2*%
%TO.N,GND*%
X111070000Y-113705000D03*
%TD*%
D11*
%TO.P,C44,1*%
%TO.N,GND*%
X114550000Y-119300000D03*
%TO.P,C44,2*%
%TO.N,Net-(U31-XOSC_Q1)*%
X114550000Y-120260000D03*
%TD*%
D26*
%TO.P,L33,1,1*%
%TO.N,Net-(C39-Pad2)*%
X107840000Y-109655000D03*
%TO.P,L33,2,2*%
%TO.N,Net-(C38-Pad2)*%
X107840000Y-108685000D03*
%TD*%
D14*
%TO.P,C23,1*%
%TO.N,VCC*%
X102630000Y-136625000D03*
%TO.P,C23,2*%
%TO.N,GND*%
X101670000Y-136625000D03*
%TD*%
%TO.P,C40,1*%
%TO.N,GND*%
X109890000Y-108705000D03*
%TO.P,C40,2*%
%TO.N,Net-(C38-Pad2)*%
X108930000Y-108705000D03*
%TD*%
D12*
%TO.P,C37,1*%
%TO.N,GND*%
X105780000Y-114855000D03*
%TO.P,C37,2*%
%TO.N,/RF_N*%
X106740000Y-114855000D03*
%TD*%
D11*
%TO.P,C21,1*%
%TO.N,VCC*%
X112450000Y-136320000D03*
%TO.P,C21,2*%
%TO.N,GND*%
X112450000Y-137280000D03*
%TD*%
D12*
%TO.P,C39,1*%
%TO.N,GND*%
X106910000Y-110705000D03*
%TO.P,C39,2*%
%TO.N,Net-(C39-Pad2)*%
X107870000Y-110705000D03*
%TD*%
D27*
%TO.P,R51,1*%
%TO.N,VCC*%
X115175000Y-132020000D03*
%TO.P,R51,2*%
%TO.N,/SW_RESET*%
X115175000Y-131000000D03*
%TD*%
D11*
%TO.P,C51,1*%
%TO.N,/SW_RESET*%
X114000000Y-131020000D03*
%TO.P,C51,2*%
%TO.N,GND*%
X114000000Y-131980000D03*
%TD*%
D32*
%TO.N,GND*%
X114850000Y-137500000D03*
X114250000Y-136700000D03*
X112200000Y-148500000D03*
X112200000Y-145950000D03*
X107900000Y-148350000D03*
X108200000Y-146000000D03*
X113950000Y-103900000D03*
X111350000Y-106300000D03*
X117550000Y-105800000D03*
X118400000Y-114900000D03*
X116900000Y-113750000D03*
X114300000Y-113650000D03*
X107250000Y-130050000D03*
X105700000Y-129250000D03*
X101600000Y-129150000D03*
X101400000Y-131150000D03*
X110100000Y-148450000D03*
X109950000Y-143500000D03*
X110150000Y-146050000D03*
X114200000Y-147750000D03*
X114250000Y-146450000D03*
%TO.N,/SWCLK*%
X105600000Y-133650000D03*
X110750000Y-138750000D03*
%TO.N,/SWDIO*%
X106200000Y-132750000D03*
X111950000Y-138700000D03*
%TO.N,/RX*%
X105400000Y-131850000D03*
X113250000Y-139450000D03*
%TO.N,/TX*%
X105900000Y-130800000D03*
X114000000Y-138900000D03*
%TO.N,/SW_BOOT*%
X114000000Y-128300000D03*
X109000000Y-129100000D03*
%TO.N,GND*%
X116300000Y-130400000D03*
X108600000Y-103700000D03*
X105000000Y-119600000D03*
X113400000Y-111800000D03*
X115200000Y-106700000D03*
X112600000Y-102700000D03*
X117300000Y-103400000D03*
X105000000Y-117300000D03*
X117900000Y-131100000D03*
X115900000Y-104400000D03*
X102850000Y-113150000D03*
X110700000Y-102500000D03*
X117100000Y-112000000D03*
X105200000Y-112600000D03*
X112300000Y-108300000D03*
X101300000Y-133100000D03*
X117400000Y-109900000D03*
X109800000Y-130600000D03*
X102250000Y-118100000D03*
X109800000Y-132900000D03*
X113500000Y-118100000D03*
X111450000Y-124600000D03*
X111500000Y-111800000D03*
X116900000Y-108200000D03*
X113600000Y-106600000D03*
X111500000Y-110100000D03*
X105250000Y-113700000D03*
X114800000Y-102200000D03*
X115350000Y-121850000D03*
X102000000Y-112600000D03*
X113100000Y-110100000D03*
X115600000Y-111900000D03*
X109800000Y-131800000D03*
X105300000Y-120400000D03*
X103800000Y-112600000D03*
X111950000Y-125050000D03*
X102250000Y-119200000D03*
X114550000Y-118230000D03*
X115600000Y-110100000D03*
X102250000Y-117100000D03*
X112200000Y-104800000D03*
X113900000Y-108200000D03*
X113600000Y-133300000D03*
X107300000Y-129200000D03*
X118200057Y-121712004D03*
X116700000Y-121800000D03*
X102000000Y-113900000D03*
%TO.N,/SW_RESET*%
X113300000Y-130387500D03*
X113900000Y-125700000D03*
%TO.N,VCC*%
X112550000Y-119350000D03*
X109150000Y-138250000D03*
X102950000Y-126050000D03*
X109600000Y-122500000D03*
X111350000Y-116450000D03*
X104100000Y-120250000D03*
X102500000Y-115080000D03*
%TD*%
D33*
%TO.N,/SWCLK*%
X105600000Y-133650000D02*
X104935662Y-134314338D01*
X104935662Y-134314338D02*
X104935662Y-135200000D01*
X110750000Y-140850000D02*
X110750000Y-138750000D01*
X117200000Y-147300000D02*
X110750000Y-140850000D01*
%TO.N,/SWDIO*%
X106062500Y-132787500D02*
X103523162Y-132787500D01*
X106100000Y-132750000D02*
X106062500Y-132787500D01*
X106200000Y-132750000D02*
X106100000Y-132750000D01*
X111950000Y-139510000D02*
X111950000Y-138700000D01*
X117200000Y-144760000D02*
X111950000Y-139510000D01*
%TO.N,/RX*%
X104837500Y-131287500D02*
X105400000Y-131850000D01*
X103523162Y-131287500D02*
X104837500Y-131287500D01*
X116020000Y-142220000D02*
X113250000Y-139450000D01*
X117200000Y-142220000D02*
X116020000Y-142220000D01*
%TO.N,/TX*%
X105887500Y-130787500D02*
X105900000Y-130800000D01*
X103523162Y-130787500D02*
X105887500Y-130787500D01*
X114780000Y-139680000D02*
X114000000Y-138900000D01*
X117200000Y-139680000D02*
X114780000Y-139680000D01*
%TO.N,Net-(J31-In)*%
X108890000Y-106120000D02*
X102782500Y-106120000D01*
X102782500Y-106120000D02*
X102762500Y-106100000D01*
%TO.N,Net-(C38-Pad2)*%
X108890000Y-108665000D02*
X108930000Y-108705000D01*
X108910000Y-108685000D02*
X108930000Y-108705000D01*
X107840000Y-108685000D02*
X108910000Y-108685000D01*
X108890000Y-107080000D02*
X108890000Y-108665000D01*
%TO.N,/SW_BOOT*%
X114000000Y-127850000D02*
X114000000Y-128300000D01*
X116181164Y-128399000D02*
X117609000Y-128399000D01*
X115050000Y-126800000D02*
X114000000Y-127850000D01*
X117609000Y-128399000D02*
X118300000Y-129090000D01*
X108435662Y-135200000D02*
X108435662Y-129664338D01*
X115050000Y-126800000D02*
X115050000Y-127267836D01*
X115050000Y-127267836D02*
X116181164Y-128399000D01*
X108435662Y-129664338D02*
X109000000Y-129100000D01*
%TO.N,GND*%
X105780000Y-114230000D02*
X105250000Y-113700000D01*
X105435662Y-127935662D02*
X106700000Y-129200000D01*
X118300000Y-130700000D02*
X117900000Y-131100000D01*
X109935662Y-133035662D02*
X109800000Y-132900000D01*
X111848162Y-130287500D02*
X110112500Y-130287500D01*
X112580000Y-118100000D02*
X113500000Y-118100000D01*
X105305000Y-117555000D02*
X105000000Y-117250000D01*
X105780000Y-114855000D02*
X105780000Y-114230000D01*
D34*
X105000000Y-119600000D02*
X105000000Y-120100000D01*
X115485662Y-129817500D02*
X115717500Y-129817500D01*
D33*
X103523162Y-133287500D02*
X101387500Y-133287500D01*
X109935662Y-135200000D02*
X109935662Y-133035662D01*
X114550000Y-119300000D02*
X114550000Y-118230000D01*
D34*
X105000000Y-120100000D02*
X105300000Y-120400000D01*
D33*
X106700000Y-129200000D02*
X107300000Y-129200000D01*
X105445000Y-119055000D02*
X105100000Y-119400000D01*
D34*
X115717500Y-129817500D02*
X116300000Y-130400000D01*
D33*
X105435662Y-126875000D02*
X105435662Y-127935662D01*
X101387500Y-133287500D02*
X101300000Y-133200000D01*
X106022500Y-117555000D02*
X105305000Y-117555000D01*
X114550000Y-116960000D02*
X114550000Y-118230000D01*
X106022500Y-119055000D02*
X105445000Y-119055000D01*
X118300000Y-130110000D02*
X118300000Y-130700000D01*
X110112500Y-130287500D02*
X109800000Y-130600000D01*
%TO.N,/SW_RESET*%
X114020000Y-131000000D02*
X114000000Y-131020000D01*
X114000000Y-131020000D02*
X113767500Y-130787500D01*
X115050000Y-123800000D02*
X113900000Y-124950000D01*
X111848162Y-130787500D02*
X112812500Y-130787500D01*
X113300000Y-130300000D02*
X113300000Y-130387500D01*
X113900000Y-124950000D02*
X113900000Y-125700000D01*
X115175000Y-131000000D02*
X114020000Y-131000000D01*
X113767500Y-130787500D02*
X111848162Y-130787500D01*
X112812500Y-130787500D02*
X113300000Y-130300000D01*
%TO.N,Net-(C39-Pad2)*%
X107870000Y-110705000D02*
X107870000Y-109685000D01*
X107840000Y-110735000D02*
X107870000Y-110705000D01*
X107870000Y-109685000D02*
X107840000Y-109655000D01*
X107840000Y-111770000D02*
X107840000Y-110735000D01*
%TO.N,Net-(C41-Pad1)*%
X109040000Y-112805000D02*
X107905000Y-112805000D01*
X107905000Y-112805000D02*
X107840000Y-112740000D01*
X107775000Y-112805000D02*
X107840000Y-112740000D01*
X106690000Y-112805000D02*
X107775000Y-112805000D01*
%TO.N,Net-(U31-DCOUPL)*%
X108960000Y-120425000D02*
X110525000Y-120425000D01*
X110525000Y-120425000D02*
X111850000Y-121750000D01*
X111850000Y-121750000D02*
X111850000Y-122550000D01*
%TO.N,Net-(C43-Pad1)*%
X110010000Y-114855000D02*
X110010000Y-113805000D01*
X110010000Y-113805000D02*
X110110000Y-113705000D01*
%TO.N,/CSN*%
X110417099Y-119055000D02*
X113300000Y-121937901D01*
X113300000Y-121937901D02*
X113300000Y-128767100D01*
X113300000Y-128767100D02*
X112779600Y-129287500D01*
X112779600Y-129287500D02*
X111848162Y-129287500D01*
X109830000Y-119055000D02*
X110417099Y-119055000D01*
%TO.N,/RF_N*%
X107960000Y-116685000D02*
X107960000Y-115525000D01*
X106740000Y-114855000D02*
X106740000Y-113825000D01*
X106740000Y-113825000D02*
X106690000Y-113775000D01*
X106740000Y-114855000D02*
X107290000Y-114855000D01*
X107290000Y-114855000D02*
X107960000Y-115525000D01*
%TO.N,Net-(U31-XOSC_Q1)*%
X110521225Y-118555000D02*
X112226225Y-120260000D01*
X109830000Y-118555000D02*
X110521225Y-118555000D01*
X117070000Y-120260000D02*
X118100000Y-119230000D01*
X114550000Y-120260000D02*
X117070000Y-120260000D01*
X112226225Y-120260000D02*
X114550000Y-120260000D01*
%TO.N,/RF_P*%
X108460000Y-116685000D02*
X108460000Y-115435000D01*
X109040000Y-114855000D02*
X109040000Y-113765000D01*
X108460000Y-115435000D02*
X109040000Y-114855000D01*
%TO.N,Net-(U31-XOSC_Q2)*%
X112050000Y-116750000D02*
X111245000Y-117555000D01*
X111245000Y-117555000D02*
X109830000Y-117555000D01*
X114550000Y-116000000D02*
X113500000Y-116000000D01*
X116400000Y-116750000D02*
X115650000Y-116000000D01*
X112750000Y-116750000D02*
X112050000Y-116750000D01*
X113500000Y-116000000D02*
X112750000Y-116750000D01*
X116400000Y-117030000D02*
X116400000Y-116750000D01*
X115650000Y-116000000D02*
X114550000Y-116000000D01*
%TO.N,VCC*%
X111848162Y-129787500D02*
X114495662Y-129787500D01*
D34*
X109210000Y-137000000D02*
X109210000Y-138190000D01*
D33*
X114705000Y-133595000D02*
X116195000Y-133595000D01*
X107200000Y-115700000D02*
X104670000Y-115700000D01*
X114495662Y-129787500D02*
X114525662Y-129817500D01*
X102110000Y-120700000D02*
X103650000Y-120700000D01*
X108460000Y-120982542D02*
X108460000Y-120425000D01*
X102630000Y-135275000D02*
X102630000Y-136625000D01*
X105890000Y-137000000D02*
X103005000Y-137000000D01*
X110650000Y-121850000D02*
X110400000Y-121600000D01*
X103523162Y-134381838D02*
X102630000Y-135275000D01*
D35*
X113820000Y-134950000D02*
X112450000Y-136320000D01*
D33*
X119300000Y-127800000D02*
X119300000Y-130600000D01*
D35*
X111620000Y-118100000D02*
X111620000Y-118420000D01*
D33*
X105000000Y-118600000D02*
X104350000Y-119250000D01*
D35*
X117200000Y-131200000D02*
X117200000Y-129925000D01*
D33*
X109890000Y-136320000D02*
X109210000Y-137000000D01*
X110400000Y-121600000D02*
X109077458Y-121600000D01*
D35*
X112220000Y-115580000D02*
X111350000Y-116450000D01*
X115175000Y-133125000D02*
X115175000Y-132020000D01*
D33*
X108460000Y-120425000D02*
X108460000Y-120660000D01*
D35*
X113820000Y-134950000D02*
X114000000Y-134770000D01*
D33*
X117880000Y-132020000D02*
X116380000Y-132020000D01*
X112450000Y-136320000D02*
X109890000Y-136320000D01*
X107460000Y-115960000D02*
X107200000Y-115700000D01*
D35*
X102500000Y-115080000D02*
X104050000Y-115080000D01*
D33*
X106325000Y-116050000D02*
X106880000Y-116605000D01*
D35*
X116125000Y-128850000D02*
X114950000Y-128850000D01*
D33*
X111575000Y-118055000D02*
X111620000Y-118100000D01*
D35*
X114000000Y-134770000D02*
X114000000Y-134300000D01*
D33*
X109632500Y-116617500D02*
X110750000Y-115500000D01*
X104860662Y-126800000D02*
X104935662Y-126875000D01*
X112140000Y-115500000D02*
X112220000Y-115580000D01*
D35*
X117200000Y-129925000D02*
X116125000Y-128850000D01*
X111620000Y-118420000D02*
X112550000Y-119350000D01*
D33*
X111555662Y-136320000D02*
X112450000Y-136320000D01*
X110750000Y-115500000D02*
X112140000Y-115500000D01*
X104050000Y-115080000D02*
X104670000Y-115700000D01*
X104100000Y-120250000D02*
X105300000Y-121450000D01*
X103005000Y-137000000D02*
X102630000Y-136625000D01*
X106022500Y-118555000D02*
X105545000Y-118555000D01*
X104200000Y-116450000D02*
X104600000Y-116050000D01*
D35*
X114000000Y-134300000D02*
X115175000Y-133125000D01*
D33*
X104200000Y-116940000D02*
X104200000Y-116450000D01*
X103650000Y-120700000D02*
X104100000Y-120250000D01*
D35*
X116380000Y-132020000D02*
X117200000Y-131200000D01*
D33*
X109210000Y-138190000D02*
X109150000Y-138250000D01*
D35*
X114950000Y-128850000D02*
X114525662Y-129274338D01*
D33*
X114000000Y-134300000D02*
X114705000Y-133595000D01*
D35*
X102630000Y-137505000D02*
X102630000Y-136625000D01*
D33*
X110650000Y-122500000D02*
X109600000Y-122500000D01*
X109077458Y-121600000D02*
X108460000Y-120982542D01*
D35*
X115175000Y-132020000D02*
X116380000Y-132020000D01*
X114525662Y-129274338D02*
X114525662Y-129817500D01*
D33*
X102230000Y-126770000D02*
X102950000Y-126050000D01*
D34*
X104090000Y-117050000D02*
X104090000Y-116670000D01*
D33*
X116195000Y-133595000D02*
X117200000Y-134600000D01*
X104600000Y-116050000D02*
X106325000Y-116050000D01*
X102230000Y-126800000D02*
X104860662Y-126800000D01*
X107460000Y-116685000D02*
X107460000Y-115960000D01*
X104350000Y-119250000D02*
X104100000Y-119250000D01*
D34*
X104090000Y-116670000D02*
X102500000Y-115080000D01*
D33*
X111848162Y-133787500D02*
X112687500Y-133787500D01*
X109830000Y-118055000D02*
X111575000Y-118055000D01*
X104100000Y-119250000D02*
X104100000Y-120250000D01*
X103523162Y-133787500D02*
X103523162Y-134381838D01*
X105545000Y-118555000D02*
X105500000Y-118600000D01*
X112687500Y-133787500D02*
X113850000Y-134950000D01*
D35*
X102630000Y-137505000D02*
X102715000Y-137590000D01*
X102370000Y-115080000D02*
X102500000Y-115080000D01*
D33*
X105300000Y-121450000D02*
X105300000Y-121840000D01*
X113850000Y-134950000D02*
X113820000Y-134950000D01*
X102230000Y-126800000D02*
X102230000Y-126770000D01*
X105500000Y-118600000D02*
X105000000Y-118600000D01*
X110435662Y-135200000D02*
X111555662Y-136320000D01*
X108960000Y-116617500D02*
X109632500Y-116617500D01*
D35*
X102715000Y-137590000D02*
X102715000Y-139690000D01*
D33*
X104090000Y-117050000D02*
X104200000Y-116940000D01*
X112250000Y-115580000D02*
X112220000Y-115580000D01*
X110650000Y-122500000D02*
X110650000Y-121850000D01*
X119300000Y-130600000D02*
X117880000Y-132020000D01*
X118300000Y-126800000D02*
X119300000Y-127800000D01*
%TO.N,Net-(D61-A)*%
X105300000Y-122860000D02*
X104385000Y-122860000D01*
X104385000Y-122860000D02*
X103650000Y-122125000D01*
%TO.N,/SCLK*%
X109435662Y-126103676D02*
X109435662Y-126875000D01*
X106960000Y-120425000D02*
X106960000Y-123628014D01*
X106960000Y-123628014D02*
X109435662Y-126103676D01*
%TO.N,Net-(D62-A)*%
X101090000Y-121712500D02*
X101540000Y-122162500D01*
X101090000Y-120700000D02*
X101090000Y-121712500D01*
%TO.N,/MOSI*%
X108435662Y-126005676D02*
X108435662Y-126875000D01*
X106090000Y-119555000D02*
X106090000Y-123660014D01*
X106090000Y-123660014D02*
X108435662Y-126005676D01*
%TO.N,/MISO*%
X109202838Y-127913500D02*
X108935662Y-127646324D01*
X107460000Y-122628014D02*
X110886662Y-126054676D01*
X107460000Y-120425000D02*
X107460000Y-122628014D01*
X110886662Y-127695324D02*
X110668486Y-127913500D01*
X108935662Y-127646324D02*
X108935662Y-126875000D01*
X110668486Y-127913500D02*
X109202838Y-127913500D01*
X110886662Y-126054676D02*
X110886662Y-127695324D01*
%TO.N,Net-(U31-RBIAS)*%
X104110000Y-118150000D02*
X104205000Y-118055000D01*
X104205000Y-118055000D02*
X106090000Y-118055000D01*
%TO.N,/GDO0*%
X112886662Y-128613338D02*
X112712500Y-128787500D01*
X112886662Y-122091663D02*
X112886662Y-128613338D01*
X112712500Y-128787500D02*
X111848162Y-128787500D01*
X110349999Y-119555000D02*
X112886662Y-122091663D01*
X109830000Y-119555000D02*
X110349999Y-119555000D01*
%TO.N,/GDO2*%
X107960000Y-122362550D02*
X111848162Y-126250712D01*
X111848162Y-126250712D02*
X111848162Y-128287500D01*
X107960000Y-120425000D02*
X107960000Y-122362550D01*
%TO.N,/SCL*%
X106910000Y-137000000D02*
X106910000Y-140575000D01*
X107435662Y-135200000D02*
X107435662Y-136474338D01*
X107435662Y-136474338D02*
X106910000Y-137000000D01*
X106910000Y-140575000D02*
X102715000Y-144770000D01*
%TO.N,/LED_RED*%
X103650000Y-124000000D02*
X105497086Y-124000000D01*
X107435662Y-125938576D02*
X107435662Y-126875000D01*
X105497086Y-124000000D02*
X107435662Y-125938576D01*
%TO.N,/LED_GREEN*%
X102652500Y-125150000D02*
X106079986Y-125150000D01*
X101540000Y-124037500D02*
X102652500Y-125150000D01*
X106079986Y-125150000D02*
X106935662Y-126005676D01*
X106935662Y-126005676D02*
X106935662Y-126875000D01*
%TO.N,/SDA*%
X107935662Y-135200000D02*
X107935662Y-136745662D01*
X107935662Y-136745662D02*
X108190000Y-137000000D01*
X108190000Y-141835000D02*
X102715000Y-147310000D01*
X108190000Y-137000000D02*
X108190000Y-141835000D01*
%TD*%
%TA.AperFunction,Conductor*%
%TO.N,GND*%
G36*
X100689597Y-124912573D02*
G01*
X100767066Y-124960357D01*
X100767069Y-124960358D01*
X100767075Y-124960362D01*
X100932225Y-125015087D01*
X101034152Y-125025500D01*
X101627402Y-125025500D01*
X101694441Y-125045185D01*
X101715083Y-125061819D01*
X102206469Y-125553205D01*
X102213964Y-125566932D01*
X102225415Y-125577588D01*
X102230366Y-125596970D01*
X102239954Y-125614528D01*
X102239070Y-125631038D01*
X102242710Y-125645283D01*
X102236872Y-125672133D01*
X102236451Y-125680018D01*
X102235043Y-125684250D01*
X102180263Y-125816503D01*
X102164195Y-125897278D01*
X102161750Y-125904632D01*
X102146069Y-125927227D01*
X102133319Y-125951603D01*
X102126432Y-125955524D01*
X102121915Y-125962034D01*
X102096507Y-125972564D01*
X102072603Y-125986177D01*
X102060170Y-125987625D01*
X102057371Y-125988786D01*
X102054560Y-125988279D01*
X102044087Y-125989500D01*
X102025302Y-125989500D01*
X101989008Y-125992356D01*
X101989002Y-125992357D01*
X101833609Y-126037504D01*
X101833604Y-126037506D01*
X101812628Y-126049911D01*
X101744903Y-126067092D01*
X101686389Y-126049911D01*
X101666191Y-126037966D01*
X101666190Y-126037965D01*
X101520001Y-125995493D01*
X101520000Y-125995494D01*
X101520000Y-126301645D01*
X101502734Y-126364763D01*
X101497507Y-126373600D01*
X101497504Y-126373608D01*
X101452357Y-126529002D01*
X101452356Y-126529008D01*
X101449500Y-126565302D01*
X101449500Y-127034697D01*
X101452356Y-127070991D01*
X101452357Y-127070997D01*
X101497503Y-127226389D01*
X101497505Y-127226393D01*
X101497506Y-127226395D01*
X101502732Y-127235233D01*
X101520000Y-127298352D01*
X101520000Y-127604503D01*
X101666194Y-127562032D01*
X101686384Y-127550091D01*
X101754108Y-127532906D01*
X101812629Y-127550089D01*
X101833605Y-127562494D01*
X101874587Y-127574400D01*
X101989002Y-127607642D01*
X101989005Y-127607642D01*
X101989007Y-127607643D01*
X102025310Y-127610500D01*
X102025318Y-127610500D01*
X102345745Y-127610500D01*
X102412784Y-127630185D01*
X102458539Y-127682989D01*
X102468483Y-127752147D01*
X102444120Y-127809987D01*
X102357964Y-127922265D01*
X102357962Y-127922269D01*
X102299975Y-128062263D01*
X102299975Y-128062264D01*
X102285162Y-128174772D01*
X102285162Y-128400227D01*
X102301036Y-128520792D01*
X102298061Y-128521183D01*
X102298061Y-128553816D01*
X102301036Y-128554208D01*
X102285162Y-128674772D01*
X102285162Y-128900227D01*
X102296161Y-128983771D01*
X102298232Y-128999500D01*
X102301036Y-129020792D01*
X102298061Y-129021183D01*
X102298061Y-129053816D01*
X102301036Y-129054208D01*
X102285162Y-129174772D01*
X102285162Y-129400227D01*
X102301036Y-129520792D01*
X102298061Y-129521183D01*
X102298061Y-129553816D01*
X102301036Y-129554208D01*
X102299975Y-129562262D01*
X102299975Y-129562264D01*
X102296600Y-129587893D01*
X102285162Y-129674772D01*
X102285162Y-129900227D01*
X102290888Y-129943714D01*
X102298232Y-129999500D01*
X102301036Y-130020792D01*
X102298061Y-130021183D01*
X102298061Y-130053816D01*
X102301036Y-130054208D01*
X102299975Y-130062262D01*
X102299975Y-130062264D01*
X102296667Y-130087392D01*
X102285162Y-130174772D01*
X102285162Y-130400227D01*
X102294665Y-130472402D01*
X102297931Y-130497214D01*
X102301036Y-130520792D01*
X102298061Y-130521183D01*
X102298061Y-130553816D01*
X102301036Y-130554208D01*
X102285162Y-130674772D01*
X102285162Y-130900227D01*
X102301036Y-131020792D01*
X102298061Y-131021183D01*
X102298061Y-131053816D01*
X102301036Y-131054208D01*
X102285162Y-131174772D01*
X102285162Y-131400227D01*
X102289466Y-131432914D01*
X102299534Y-131509390D01*
X102301036Y-131520792D01*
X102298061Y-131521183D01*
X102298061Y-131553816D01*
X102301036Y-131554208D01*
X102299975Y-131562262D01*
X102299975Y-131562264D01*
X102297447Y-131581467D01*
X102285162Y-131674772D01*
X102285162Y-131900227D01*
X102301036Y-132020792D01*
X102298061Y-132021183D01*
X102298061Y-132053816D01*
X102301036Y-132054208D01*
X102285162Y-132174772D01*
X102285162Y-132400227D01*
X102290502Y-132440783D01*
X102298366Y-132500518D01*
X102301036Y-132520792D01*
X102298061Y-132521183D01*
X102298061Y-132553816D01*
X102301036Y-132554208D01*
X102285162Y-132674772D01*
X102285162Y-132900227D01*
X102296126Y-132983501D01*
X102299975Y-133012736D01*
X102357964Y-133152733D01*
X102391397Y-133196303D01*
X102403453Y-133212015D01*
X102428646Y-133277184D01*
X102414607Y-133345629D01*
X102403453Y-133362984D01*
X102383501Y-133388986D01*
X102327075Y-133430189D01*
X102291556Y-133436379D01*
X102290573Y-133437500D01*
X102301466Y-133520229D01*
X102299257Y-133553972D01*
X102301036Y-133554207D01*
X102285162Y-133674772D01*
X102285162Y-133900227D01*
X102299975Y-134012735D01*
X102299975Y-134012736D01*
X102355178Y-134146009D01*
X102357964Y-134152733D01*
X102450211Y-134272951D01*
X102501131Y-134312023D01*
X102526230Y-134331283D01*
X102567432Y-134387711D01*
X102571587Y-134457457D01*
X102538424Y-134517339D01*
X102261286Y-134794478D01*
X102149481Y-134906282D01*
X102149479Y-134906284D01*
X102133124Y-134934613D01*
X102113724Y-134968216D01*
X102070423Y-135043215D01*
X102029499Y-135195943D01*
X102029499Y-135195945D01*
X102029499Y-135364046D01*
X102029500Y-135364059D01*
X102029500Y-135687153D01*
X102009815Y-135754192D01*
X101957011Y-135799947D01*
X101945082Y-135801662D01*
X101920000Y-135820494D01*
X101920000Y-136126645D01*
X101902734Y-136189763D01*
X101897507Y-136198600D01*
X101897504Y-136198608D01*
X101852357Y-136354002D01*
X101852356Y-136354008D01*
X101849500Y-136390302D01*
X101849500Y-136859697D01*
X101852356Y-136895991D01*
X101852357Y-136895997D01*
X101897503Y-137051389D01*
X101897505Y-137051393D01*
X101897506Y-137051395D01*
X101902732Y-137060233D01*
X101920000Y-137123352D01*
X101920000Y-137429504D01*
X101929952Y-137436977D01*
X101948539Y-137461880D01*
X101968697Y-137485518D01*
X101969704Y-137490238D01*
X101971744Y-137492971D01*
X101978373Y-137519460D01*
X101979500Y-137527763D01*
X101979500Y-137569069D01*
X101996408Y-137654069D01*
X101997148Y-137657793D01*
X101997151Y-137657809D01*
X102004497Y-137694736D01*
X102004499Y-137694744D01*
X102055061Y-137816811D01*
X102064500Y-137864264D01*
X102064500Y-138215500D01*
X102044815Y-138282539D01*
X101992011Y-138328294D01*
X101940501Y-138339500D01*
X101817130Y-138339500D01*
X101817123Y-138339501D01*
X101757516Y-138345908D01*
X101622671Y-138396202D01*
X101622664Y-138396206D01*
X101507455Y-138482452D01*
X101507452Y-138482455D01*
X101421206Y-138597664D01*
X101421202Y-138597671D01*
X101370908Y-138732517D01*
X101365928Y-138778842D01*
X101364501Y-138792123D01*
X101364500Y-138792135D01*
X101364500Y-140587870D01*
X101364501Y-140587876D01*
X101370908Y-140647483D01*
X101421202Y-140782328D01*
X101421206Y-140782335D01*
X101507452Y-140897544D01*
X101507455Y-140897547D01*
X101622664Y-140983793D01*
X101622671Y-140983797D01*
X101665270Y-140999685D01*
X101757517Y-141034091D01*
X101817127Y-141040500D01*
X101827685Y-141040499D01*
X101894723Y-141060179D01*
X101915372Y-141076818D01*
X102585591Y-141747037D01*
X102522007Y-141764075D01*
X102407993Y-141829901D01*
X102314901Y-141922993D01*
X102249075Y-142037007D01*
X102232037Y-142100591D01*
X101599728Y-141468282D01*
X101599727Y-141468282D01*
X101560380Y-141522439D01*
X101463904Y-141711782D01*
X101398242Y-141913869D01*
X101398242Y-141913872D01*
X101365000Y-142123753D01*
X101365000Y-142336246D01*
X101398242Y-142546127D01*
X101398242Y-142546130D01*
X101463904Y-142748217D01*
X101560375Y-142937550D01*
X101599728Y-142991716D01*
X102232037Y-142359408D01*
X102249075Y-142422993D01*
X102314901Y-142537007D01*
X102407993Y-142630099D01*
X102522007Y-142695925D01*
X102585590Y-142712962D01*
X101953282Y-143345269D01*
X101953282Y-143345270D01*
X102007452Y-143384626D01*
X102007451Y-143384626D01*
X102016495Y-143389234D01*
X102067292Y-143437208D01*
X102084087Y-143505029D01*
X102061550Y-143571164D01*
X102016499Y-143610202D01*
X102007182Y-143614949D01*
X101835213Y-143739890D01*
X101684890Y-143890213D01*
X101559951Y-144062179D01*
X101463444Y-144251585D01*
X101397753Y-144453760D01*
X101364500Y-144663713D01*
X101364500Y-144876286D01*
X101396169Y-145076239D01*
X101397754Y-145086243D01*
X101460194Y-145278414D01*
X101463444Y-145288414D01*
X101559951Y-145477820D01*
X101684890Y-145649786D01*
X101835213Y-145800109D01*
X102007182Y-145925050D01*
X102015946Y-145929516D01*
X102066742Y-145977491D01*
X102083536Y-146045312D01*
X102060998Y-146111447D01*
X102015946Y-146150484D01*
X102007182Y-146154949D01*
X101835213Y-146279890D01*
X101684890Y-146430213D01*
X101559951Y-146602179D01*
X101463444Y-146791585D01*
X101397753Y-146993760D01*
X101364500Y-147203713D01*
X101364500Y-147416286D01*
X101396169Y-147616239D01*
X101397754Y-147626243D01*
X101460194Y-147818414D01*
X101463444Y-147828414D01*
X101559951Y-148017820D01*
X101684890Y-148189786D01*
X101835213Y-148340109D01*
X102007179Y-148465048D01*
X102007181Y-148465049D01*
X102007184Y-148465051D01*
X102196588Y-148561557D01*
X102398757Y-148627246D01*
X102608713Y-148660500D01*
X102608714Y-148660500D01*
X102821286Y-148660500D01*
X102821287Y-148660500D01*
X103031243Y-148627246D01*
X103233412Y-148561557D01*
X103422816Y-148465051D01*
X103444789Y-148449086D01*
X103594786Y-148340109D01*
X103594788Y-148340106D01*
X103594792Y-148340104D01*
X103745104Y-148189792D01*
X103745106Y-148189788D01*
X103745109Y-148189786D01*
X103870048Y-148017820D01*
X103870047Y-148017820D01*
X103870051Y-148017816D01*
X103966557Y-147828412D01*
X104032246Y-147626243D01*
X104065500Y-147416287D01*
X104065500Y-147203713D01*
X104032246Y-146993757D01*
X104018506Y-146951473D01*
X104016512Y-146881635D01*
X104048755Y-146825478D01*
X108548506Y-142325728D01*
X108548511Y-142325724D01*
X108558714Y-142315520D01*
X108558716Y-142315520D01*
X108670520Y-142203716D01*
X108674003Y-142197683D01*
X108722483Y-142113714D01*
X108722483Y-142113713D01*
X108749577Y-142066785D01*
X108790500Y-141914058D01*
X108790500Y-141755943D01*
X108790500Y-139145768D01*
X108810185Y-139078729D01*
X108862989Y-139032974D01*
X108932147Y-139023030D01*
X108938692Y-139024151D01*
X109071155Y-139050500D01*
X109071158Y-139050500D01*
X109228844Y-139050500D01*
X109228845Y-139050499D01*
X109383497Y-139019737D01*
X109529179Y-138959394D01*
X109660289Y-138871789D01*
X109744603Y-138787474D01*
X109805924Y-138753991D01*
X109875616Y-138758975D01*
X109931550Y-138800846D01*
X109953900Y-138850965D01*
X109980261Y-138983491D01*
X109980264Y-138983501D01*
X110040602Y-139129172D01*
X110040609Y-139129185D01*
X110128602Y-139260874D01*
X110149480Y-139327551D01*
X110149500Y-139329765D01*
X110149500Y-140763330D01*
X110149499Y-140763348D01*
X110149499Y-140929054D01*
X110149498Y-140929054D01*
X110190423Y-141081785D01*
X110219358Y-141131900D01*
X110219359Y-141131904D01*
X110219360Y-141131904D01*
X110269479Y-141218714D01*
X110269481Y-141218717D01*
X110388349Y-141337585D01*
X110388355Y-141337590D01*
X115866241Y-146815476D01*
X115899726Y-146876799D01*
X115896492Y-146941473D01*
X115882753Y-146983757D01*
X115849500Y-147193713D01*
X115849500Y-147406287D01*
X115882754Y-147616243D01*
X115886003Y-147626243D01*
X115948444Y-147818414D01*
X116044951Y-148007820D01*
X116169890Y-148179786D01*
X116320213Y-148330109D01*
X116492179Y-148455048D01*
X116492181Y-148455049D01*
X116492184Y-148455051D01*
X116681588Y-148551557D01*
X116883757Y-148617246D01*
X117093713Y-148650500D01*
X117093714Y-148650500D01*
X117306286Y-148650500D01*
X117306287Y-148650500D01*
X117516243Y-148617246D01*
X117718412Y-148551557D01*
X117907816Y-148455051D01*
X117929789Y-148439086D01*
X118079786Y-148330109D01*
X118079788Y-148330106D01*
X118079792Y-148330104D01*
X118230104Y-148179792D01*
X118230106Y-148179788D01*
X118230109Y-148179786D01*
X118355048Y-148007820D01*
X118355047Y-148007820D01*
X118355051Y-148007816D01*
X118451557Y-147818412D01*
X118517246Y-147616243D01*
X118550500Y-147406287D01*
X118550500Y-147193713D01*
X118517246Y-146983757D01*
X118451557Y-146781588D01*
X118355051Y-146592184D01*
X118355049Y-146592181D01*
X118355048Y-146592179D01*
X118230109Y-146420213D01*
X118079786Y-146269890D01*
X117907820Y-146144951D01*
X117907115Y-146144591D01*
X117899054Y-146140485D01*
X117848259Y-146092512D01*
X117831463Y-146024692D01*
X117853999Y-145958556D01*
X117899054Y-145919515D01*
X117907816Y-145915051D01*
X117929789Y-145899086D01*
X118079786Y-145790109D01*
X118079788Y-145790106D01*
X118079792Y-145790104D01*
X118230104Y-145639792D01*
X118230106Y-145639788D01*
X118230109Y-145639786D01*
X118355048Y-145467820D01*
X118355047Y-145467820D01*
X118355051Y-145467816D01*
X118451557Y-145278412D01*
X118517246Y-145076243D01*
X118550500Y-144866287D01*
X118550500Y-144653713D01*
X118517246Y-144443757D01*
X118451557Y-144241588D01*
X118355051Y-144052184D01*
X118355049Y-144052181D01*
X118355048Y-144052179D01*
X118230109Y-143880213D01*
X118079786Y-143729890D01*
X117907820Y-143604951D01*
X117907115Y-143604591D01*
X117899054Y-143600485D01*
X117848259Y-143552512D01*
X117831463Y-143484692D01*
X117853999Y-143418556D01*
X117899054Y-143379515D01*
X117907816Y-143375051D01*
X117948808Y-143345269D01*
X118079786Y-143250109D01*
X118079788Y-143250106D01*
X118079792Y-143250104D01*
X118230104Y-143099792D01*
X118230106Y-143099788D01*
X118230109Y-143099786D01*
X118355048Y-142927820D01*
X118355047Y-142927820D01*
X118355051Y-142927816D01*
X118451557Y-142738412D01*
X118517246Y-142536243D01*
X118550500Y-142326287D01*
X118550500Y-142113713D01*
X118517246Y-141903757D01*
X118451557Y-141701588D01*
X118355051Y-141512184D01*
X118355049Y-141512181D01*
X118355048Y-141512179D01*
X118230109Y-141340213D01*
X118079786Y-141189890D01*
X117907820Y-141064951D01*
X117907115Y-141064591D01*
X117899054Y-141060485D01*
X117848259Y-141012512D01*
X117831463Y-140944692D01*
X117853999Y-140878556D01*
X117899054Y-140839515D01*
X117907816Y-140835051D01*
X117980374Y-140782335D01*
X118079786Y-140710109D01*
X118079788Y-140710106D01*
X118079792Y-140710104D01*
X118230104Y-140559792D01*
X118230106Y-140559788D01*
X118230109Y-140559786D01*
X118355048Y-140387820D01*
X118355047Y-140387820D01*
X118355051Y-140387816D01*
X118451557Y-140198412D01*
X118517246Y-139996243D01*
X118550500Y-139786287D01*
X118550500Y-139573713D01*
X118517246Y-139363757D01*
X118451557Y-139161588D01*
X118355051Y-138972184D01*
X118355049Y-138972181D01*
X118355048Y-138972179D01*
X118230109Y-138800213D01*
X118079786Y-138649890D01*
X117907817Y-138524949D01*
X117898504Y-138520204D01*
X117847707Y-138472230D01*
X117830912Y-138404409D01*
X117853449Y-138338274D01*
X117898507Y-138299232D01*
X117907555Y-138294622D01*
X117961716Y-138255270D01*
X117961717Y-138255270D01*
X117329408Y-137622962D01*
X117392993Y-137605925D01*
X117507007Y-137540099D01*
X117600099Y-137447007D01*
X117665925Y-137332993D01*
X117682962Y-137269408D01*
X118315270Y-137901717D01*
X118315270Y-137901716D01*
X118354622Y-137847554D01*
X118451095Y-137658217D01*
X118516757Y-137456130D01*
X118516757Y-137456127D01*
X118550000Y-137246246D01*
X118550000Y-137033753D01*
X118516757Y-136823872D01*
X118516757Y-136823869D01*
X118451095Y-136621782D01*
X118354624Y-136432449D01*
X118315270Y-136378282D01*
X118315269Y-136378282D01*
X117682962Y-137010590D01*
X117665925Y-136947007D01*
X117600099Y-136832993D01*
X117507007Y-136739901D01*
X117392993Y-136674075D01*
X117329409Y-136657037D01*
X117999627Y-135986818D01*
X118060950Y-135953333D01*
X118087307Y-135950499D01*
X118097872Y-135950499D01*
X118157483Y-135944091D01*
X118292331Y-135893796D01*
X118407546Y-135807546D01*
X118493796Y-135692331D01*
X118544091Y-135557483D01*
X118550500Y-135497873D01*
X118550499Y-133702128D01*
X118544091Y-133642517D01*
X118534297Y-133616259D01*
X118493797Y-133507671D01*
X118493793Y-133507664D01*
X118407547Y-133392455D01*
X118407544Y-133392452D01*
X118292335Y-133306206D01*
X118292328Y-133306202D01*
X118157482Y-133255908D01*
X118157483Y-133255908D01*
X118097883Y-133249501D01*
X118097881Y-133249500D01*
X118097873Y-133249500D01*
X118097865Y-133249500D01*
X116750098Y-133249500D01*
X116683059Y-133229815D01*
X116662417Y-133213181D01*
X116563717Y-133114481D01*
X116563712Y-133114477D01*
X116451165Y-133049499D01*
X116426785Y-133035423D01*
X116274057Y-132994499D01*
X116115943Y-132994499D01*
X116108347Y-132994499D01*
X116108331Y-132994500D01*
X115949500Y-132994500D01*
X115882461Y-132974815D01*
X115836706Y-132922011D01*
X115825500Y-132870500D01*
X115825500Y-132794500D01*
X115845185Y-132727461D01*
X115897989Y-132681706D01*
X115949500Y-132670500D01*
X116444071Y-132670500D01*
X116528615Y-132653682D01*
X116569744Y-132645501D01*
X116588235Y-132637841D01*
X116607315Y-132629939D01*
X116608417Y-132629719D01*
X116609022Y-132629247D01*
X116612334Y-132628940D01*
X116654767Y-132620500D01*
X117793331Y-132620500D01*
X117793347Y-132620501D01*
X117800943Y-132620501D01*
X117959054Y-132620501D01*
X117959057Y-132620501D01*
X118111785Y-132579577D01*
X118167174Y-132547598D01*
X118248716Y-132500520D01*
X118360520Y-132388716D01*
X118360520Y-132388714D01*
X118370724Y-132378511D01*
X118370727Y-132378506D01*
X119287820Y-131461414D01*
X119349142Y-131427930D01*
X119418834Y-131432914D01*
X119474767Y-131474786D01*
X119499184Y-131540250D01*
X119499500Y-131549096D01*
X119499500Y-149375500D01*
X119479815Y-149442539D01*
X119427011Y-149488294D01*
X119375500Y-149499500D01*
X100624500Y-149499500D01*
X100557461Y-149479815D01*
X100511706Y-149427011D01*
X100500500Y-149375500D01*
X100500500Y-136875000D01*
X100891210Y-136875000D01*
X100892854Y-136895910D01*
X100937968Y-137051195D01*
X101020278Y-137190374D01*
X101020285Y-137190383D01*
X101134616Y-137304714D01*
X101134625Y-137304721D01*
X101273804Y-137387031D01*
X101420000Y-137429504D01*
X101420000Y-136875000D01*
X100891210Y-136875000D01*
X100500500Y-136875000D01*
X100500500Y-136374999D01*
X100891209Y-136374999D01*
X100891210Y-136375000D01*
X101420000Y-136375000D01*
X101420000Y-135820494D01*
X101419998Y-135820493D01*
X101273809Y-135862965D01*
X101273806Y-135862967D01*
X101134625Y-135945278D01*
X101134616Y-135945285D01*
X101020285Y-136059616D01*
X101020278Y-136059625D01*
X100937968Y-136198804D01*
X100937966Y-136198809D01*
X100892855Y-136354081D01*
X100892854Y-136354087D01*
X100891209Y-136374999D01*
X100500500Y-136374999D01*
X100500500Y-127544960D01*
X100520185Y-127477921D01*
X100572989Y-127432166D01*
X100642147Y-127422222D01*
X100705703Y-127451247D01*
X100712181Y-127457279D01*
X100734616Y-127479714D01*
X100734625Y-127479721D01*
X100873804Y-127562031D01*
X101020000Y-127604504D01*
X101020000Y-125995494D01*
X101019998Y-125995493D01*
X100873809Y-126037965D01*
X100873806Y-126037967D01*
X100734625Y-126120278D01*
X100734616Y-126120285D01*
X100712181Y-126142721D01*
X100650858Y-126176206D01*
X100581166Y-126171222D01*
X100525233Y-126129350D01*
X100500816Y-126063886D01*
X100500500Y-126055040D01*
X100500500Y-125018111D01*
X100520185Y-124951072D01*
X100572989Y-124905317D01*
X100642147Y-124895373D01*
X100689597Y-124912573D01*
G37*
%TD.AperFunction*%
%TA.AperFunction,Conductor*%
G36*
X105287444Y-137620185D02*
G01*
X105308081Y-137636814D01*
X105362402Y-137691135D01*
X105500607Y-137772869D01*
X105541268Y-137784682D01*
X105654791Y-137817664D01*
X105654794Y-137817664D01*
X105654796Y-137817665D01*
X105690819Y-137820500D01*
X106089180Y-137820499D01*
X106125204Y-137817665D01*
X106150905Y-137810198D01*
X106220773Y-137810397D01*
X106279444Y-137848338D01*
X106308288Y-137911976D01*
X106309500Y-137929274D01*
X106309500Y-140274902D01*
X106289815Y-140341941D01*
X106273181Y-140362583D01*
X104276681Y-142359083D01*
X104215358Y-142392568D01*
X104145666Y-142387584D01*
X104089733Y-142345712D01*
X104065316Y-142280248D01*
X104065000Y-142271402D01*
X104065000Y-142123753D01*
X104031757Y-141913872D01*
X104031757Y-141913869D01*
X103966095Y-141711782D01*
X103869624Y-141522449D01*
X103830270Y-141468282D01*
X103830269Y-141468282D01*
X103197962Y-142100590D01*
X103180925Y-142037007D01*
X103115099Y-141922993D01*
X103022007Y-141829901D01*
X102907993Y-141764075D01*
X102844409Y-141747037D01*
X103514627Y-141076818D01*
X103575950Y-141043333D01*
X103602307Y-141040499D01*
X103612872Y-141040499D01*
X103672483Y-141034091D01*
X103807331Y-140983796D01*
X103922546Y-140897546D01*
X104008796Y-140782331D01*
X104059091Y-140647483D01*
X104065500Y-140587873D01*
X104065499Y-138792128D01*
X104059091Y-138732517D01*
X104057143Y-138727295D01*
X104008797Y-138597671D01*
X104008793Y-138597664D01*
X103922547Y-138482455D01*
X103922544Y-138482452D01*
X103807335Y-138396206D01*
X103807328Y-138396202D01*
X103672482Y-138345908D01*
X103672483Y-138345908D01*
X103612883Y-138339501D01*
X103612881Y-138339500D01*
X103612873Y-138339500D01*
X103612865Y-138339500D01*
X103489500Y-138339500D01*
X103422461Y-138319815D01*
X103376706Y-138267011D01*
X103365500Y-138215500D01*
X103365500Y-137724500D01*
X103385185Y-137657461D01*
X103437989Y-137611706D01*
X103489500Y-137600500D01*
X105220405Y-137600500D01*
X105287444Y-137620185D01*
G37*
%TD.AperFunction*%
%TA.AperFunction,Conductor*%
G36*
X115792539Y-134215185D02*
G01*
X115838294Y-134267989D01*
X115849500Y-134319500D01*
X115849500Y-135497870D01*
X115849501Y-135497876D01*
X115855908Y-135557483D01*
X115906202Y-135692328D01*
X115906206Y-135692335D01*
X115992452Y-135807544D01*
X115992455Y-135807547D01*
X116107664Y-135893793D01*
X116107671Y-135893797D01*
X116124911Y-135900227D01*
X116242517Y-135944091D01*
X116302127Y-135950500D01*
X116312685Y-135950499D01*
X116379723Y-135970179D01*
X116400372Y-135986818D01*
X117070591Y-136657037D01*
X117007007Y-136674075D01*
X116892993Y-136739901D01*
X116799901Y-136832993D01*
X116734075Y-136947007D01*
X116717037Y-137010591D01*
X116084728Y-136378282D01*
X116084727Y-136378282D01*
X116045380Y-136432439D01*
X115948904Y-136621782D01*
X115883242Y-136823869D01*
X115883242Y-136823872D01*
X115850000Y-137033753D01*
X115850000Y-137246246D01*
X115883242Y-137456127D01*
X115883242Y-137456130D01*
X115948904Y-137658217D01*
X116045375Y-137847550D01*
X116084728Y-137901716D01*
X116717037Y-137269408D01*
X116734075Y-137332993D01*
X116799901Y-137447007D01*
X116892993Y-137540099D01*
X117007007Y-137605925D01*
X117070590Y-137622962D01*
X116438282Y-138255269D01*
X116438282Y-138255270D01*
X116492452Y-138294626D01*
X116492451Y-138294626D01*
X116501495Y-138299234D01*
X116552292Y-138347208D01*
X116569087Y-138415029D01*
X116546550Y-138481164D01*
X116501499Y-138520202D01*
X116492182Y-138524949D01*
X116320213Y-138649890D01*
X116169890Y-138800213D01*
X116044948Y-138972184D01*
X116044947Y-138972185D01*
X116024765Y-139011795D01*
X115976791Y-139062591D01*
X115914281Y-139079500D01*
X115080098Y-139079500D01*
X115050657Y-139070855D01*
X115020671Y-139064332D01*
X115015655Y-139060577D01*
X115013059Y-139059815D01*
X114992417Y-139043181D01*
X114834573Y-138885337D01*
X114801088Y-138824014D01*
X114800637Y-138821847D01*
X114794726Y-138792129D01*
X114769737Y-138666503D01*
X114761298Y-138646130D01*
X114709397Y-138520827D01*
X114709390Y-138520814D01*
X114621789Y-138389711D01*
X114621786Y-138389707D01*
X114510292Y-138278213D01*
X114510288Y-138278210D01*
X114379185Y-138190609D01*
X114379172Y-138190602D01*
X114233501Y-138130264D01*
X114233489Y-138130261D01*
X114078845Y-138099500D01*
X114078842Y-138099500D01*
X113921158Y-138099500D01*
X113921155Y-138099500D01*
X113766510Y-138130261D01*
X113766498Y-138130264D01*
X113620827Y-138190602D01*
X113620814Y-138190609D01*
X113489711Y-138278210D01*
X113489707Y-138278213D01*
X113378213Y-138389707D01*
X113378210Y-138389711D01*
X113290607Y-138520817D01*
X113268561Y-138574042D01*
X113224719Y-138628446D01*
X113176698Y-138646130D01*
X113177132Y-138648311D01*
X113016510Y-138680261D01*
X113016507Y-138680262D01*
X113016506Y-138680262D01*
X113016503Y-138680263D01*
X112937282Y-138713077D01*
X112920986Y-138719827D01*
X112851516Y-138727295D01*
X112789037Y-138696019D01*
X112753385Y-138635930D01*
X112751834Y-138627102D01*
X112751689Y-138627132D01*
X112719738Y-138466510D01*
X112719737Y-138466503D01*
X112694017Y-138404409D01*
X112659397Y-138320827D01*
X112659389Y-138320812D01*
X112615594Y-138255270D01*
X112612625Y-138250827D01*
X112591747Y-138184151D01*
X112610231Y-138116770D01*
X112662209Y-138070080D01*
X112706002Y-138058318D01*
X112720910Y-138057145D01*
X112876196Y-138012030D01*
X113015374Y-137929721D01*
X113015383Y-137929714D01*
X113129714Y-137815383D01*
X113129721Y-137815374D01*
X113212031Y-137676195D01*
X113254504Y-137530000D01*
X111645496Y-137530000D01*
X111687968Y-137676195D01*
X111741532Y-137766767D01*
X111758715Y-137834491D01*
X111736555Y-137900754D01*
X111682253Y-137944449D01*
X111570824Y-137990604D01*
X111570814Y-137990609D01*
X111439711Y-138078210D01*
X111409828Y-138108093D01*
X111348504Y-138141577D01*
X111278813Y-138136591D01*
X111253257Y-138123512D01*
X111129185Y-138040609D01*
X111129172Y-138040602D01*
X110983501Y-137980264D01*
X110983489Y-137980261D01*
X110828845Y-137949500D01*
X110828842Y-137949500D01*
X110671158Y-137949500D01*
X110671155Y-137949500D01*
X110516510Y-137980261D01*
X110516498Y-137980264D01*
X110370827Y-138040602D01*
X110370814Y-138040609D01*
X110239711Y-138128210D01*
X110155397Y-138212524D01*
X110147259Y-138216967D01*
X110141679Y-138224368D01*
X110117084Y-138233443D01*
X110094073Y-138246008D01*
X110084826Y-138245346D01*
X110076129Y-138248556D01*
X110050532Y-138242894D01*
X110024382Y-138241024D01*
X110016960Y-138235468D01*
X110007909Y-138233466D01*
X109989437Y-138214864D01*
X109968448Y-138199152D01*
X109963900Y-138189148D01*
X109958677Y-138183888D01*
X109947767Y-138153657D01*
X109946458Y-138150776D01*
X109946282Y-138149956D01*
X109919737Y-138016503D01*
X109915608Y-138006535D01*
X109913242Y-137995471D01*
X109913903Y-137986651D01*
X109910500Y-137969537D01*
X109910500Y-137511139D01*
X109927768Y-137448018D01*
X109928366Y-137447007D01*
X109932869Y-137439393D01*
X109977665Y-137285204D01*
X109980500Y-137249181D01*
X109980499Y-137130096D01*
X109989143Y-137100655D01*
X109995667Y-137070669D01*
X109999420Y-137065655D01*
X110000183Y-137063058D01*
X110016819Y-137042415D01*
X110102418Y-136956818D01*
X110163741Y-136923333D01*
X110190098Y-136920500D01*
X111476604Y-136920500D01*
X111476605Y-136920500D01*
X111512156Y-136920500D01*
X111579195Y-136940185D01*
X111624950Y-136992989D01*
X111626665Y-137004921D01*
X111645495Y-137030000D01*
X111951648Y-137030000D01*
X112014766Y-137047267D01*
X112023605Y-137052494D01*
X112023608Y-137052494D01*
X112023610Y-137052496D01*
X112179002Y-137097642D01*
X112179005Y-137097642D01*
X112179007Y-137097643D01*
X112215310Y-137100500D01*
X112215318Y-137100500D01*
X112684682Y-137100500D01*
X112684690Y-137100500D01*
X112720993Y-137097643D01*
X112720995Y-137097642D01*
X112720997Y-137097642D01*
X112876389Y-137052496D01*
X112876389Y-137052495D01*
X112876395Y-137052494D01*
X112885233Y-137047267D01*
X112948352Y-137030000D01*
X113252912Y-137030000D01*
X113189239Y-136839867D01*
X113188400Y-136817542D01*
X113182906Y-136795889D01*
X113187055Y-136781756D01*
X113186616Y-136770046D01*
X113194326Y-136756995D01*
X113200089Y-136737369D01*
X113212494Y-136716395D01*
X113257643Y-136560993D01*
X113260500Y-136524690D01*
X113260500Y-136480808D01*
X113280185Y-136413769D01*
X113296819Y-136393127D01*
X113893127Y-135796819D01*
X113954450Y-135763334D01*
X113980808Y-135760500D01*
X114054682Y-135760500D01*
X114054690Y-135760500D01*
X114090993Y-135757643D01*
X114090995Y-135757642D01*
X114090997Y-135757642D01*
X114131975Y-135745736D01*
X114246395Y-135712494D01*
X114267369Y-135700089D01*
X114335088Y-135682906D01*
X114393613Y-135700090D01*
X114413803Y-135712031D01*
X114560000Y-135754504D01*
X114560000Y-135754503D01*
X115060000Y-135754503D01*
X115206195Y-135712031D01*
X115345374Y-135629721D01*
X115345383Y-135629714D01*
X115459714Y-135515383D01*
X115459721Y-135515374D01*
X115542031Y-135376195D01*
X115542033Y-135376190D01*
X115587144Y-135220918D01*
X115587145Y-135220912D01*
X115588790Y-135200000D01*
X115060000Y-135200000D01*
X115060000Y-135754503D01*
X114560000Y-135754503D01*
X114560000Y-135448352D01*
X114577267Y-135385233D01*
X114582494Y-135376395D01*
X114627643Y-135220993D01*
X114630500Y-135184690D01*
X114630500Y-135074000D01*
X114650185Y-135006961D01*
X114702989Y-134961206D01*
X114754500Y-134950000D01*
X114810000Y-134950000D01*
X114810000Y-134824000D01*
X114829685Y-134756961D01*
X114882489Y-134711206D01*
X114934000Y-134700000D01*
X115588790Y-134700000D01*
X115587145Y-134679089D01*
X115542031Y-134523804D01*
X115458536Y-134382621D01*
X115441353Y-134314897D01*
X115463513Y-134248635D01*
X115517979Y-134204871D01*
X115565268Y-134195500D01*
X115725500Y-134195500D01*
X115792539Y-134215185D01*
G37*
%TD.AperFunction*%
%TA.AperFunction,Conductor*%
G36*
X110556973Y-128533685D02*
G01*
X110602728Y-128586489D01*
X110612873Y-128654184D01*
X110610163Y-128674767D01*
X110610162Y-128674786D01*
X110610162Y-128900227D01*
X110621161Y-128983771D01*
X110623232Y-128999500D01*
X110626036Y-129020792D01*
X110623061Y-129021183D01*
X110623061Y-129053816D01*
X110626036Y-129054208D01*
X110610162Y-129174772D01*
X110610162Y-129400227D01*
X110626036Y-129520792D01*
X110623061Y-129521183D01*
X110623061Y-129553816D01*
X110626036Y-129554208D01*
X110624975Y-129562262D01*
X110624975Y-129562264D01*
X110621600Y-129587893D01*
X110610162Y-129674772D01*
X110610162Y-129900227D01*
X110623232Y-129999500D01*
X110624975Y-130012736D01*
X110682964Y-130152733D01*
X110716397Y-130196303D01*
X110728453Y-130212015D01*
X110753646Y-130277184D01*
X110739607Y-130345629D01*
X110728453Y-130362984D01*
X110708501Y-130388986D01*
X110652075Y-130430189D01*
X110616556Y-130436379D01*
X110615573Y-130437500D01*
X110626466Y-130520229D01*
X110624257Y-130553972D01*
X110626036Y-130554207D01*
X110610162Y-130674772D01*
X110610162Y-130900227D01*
X110626036Y-131020792D01*
X110623061Y-131021183D01*
X110623061Y-131053816D01*
X110626036Y-131054208D01*
X110610162Y-131174772D01*
X110610162Y-131400227D01*
X110614466Y-131432914D01*
X110624534Y-131509390D01*
X110626036Y-131520792D01*
X110623061Y-131521183D01*
X110623061Y-131553816D01*
X110626036Y-131554208D01*
X110624975Y-131562262D01*
X110624975Y-131562264D01*
X110622447Y-131581467D01*
X110610162Y-131674772D01*
X110610162Y-131900227D01*
X110626036Y-132020792D01*
X110623061Y-132021183D01*
X110623061Y-132053816D01*
X110626036Y-132054208D01*
X110610162Y-132174772D01*
X110610162Y-132400227D01*
X110615502Y-132440783D01*
X110623366Y-132500518D01*
X110626036Y-132520792D01*
X110623061Y-132521183D01*
X110623061Y-132553816D01*
X110626036Y-132554208D01*
X110610162Y-132674772D01*
X110610162Y-132900227D01*
X110626036Y-133020792D01*
X110623061Y-133021183D01*
X110623061Y-133053816D01*
X110626036Y-133054208D01*
X110610162Y-133174772D01*
X110610162Y-133400227D01*
X110617952Y-133459390D01*
X110624307Y-133507664D01*
X110626036Y-133520792D01*
X110623061Y-133521183D01*
X110623061Y-133553816D01*
X110626036Y-133554208D01*
X110610162Y-133674772D01*
X110610162Y-133838000D01*
X110590477Y-133905039D01*
X110537673Y-133950794D01*
X110486162Y-133962000D01*
X110322934Y-133962000D01*
X110220927Y-133975430D01*
X110220925Y-133975430D01*
X110210426Y-133976813D01*
X110070429Y-134034802D01*
X110011148Y-134080289D01*
X109945981Y-134105484D01*
X109877536Y-134091446D01*
X109860177Y-134080290D01*
X109834174Y-134060338D01*
X109792972Y-134003910D01*
X109786782Y-133968394D01*
X109785661Y-133967411D01*
X109702932Y-133978304D01*
X109669189Y-133976093D01*
X109668955Y-133977874D01*
X109660898Y-133976813D01*
X109641113Y-133974208D01*
X109548389Y-133962000D01*
X109548382Y-133962000D01*
X109322942Y-133962000D01*
X109322934Y-133962000D01*
X109204561Y-133977585D01*
X109204434Y-133977645D01*
X109204204Y-133977632D01*
X109202370Y-133977874D01*
X109202324Y-133977530D01*
X109188161Y-133976763D01*
X109169141Y-133977969D01*
X109161069Y-133976883D01*
X109160898Y-133976813D01*
X109143667Y-133974544D01*
X109143641Y-133974541D01*
X109111796Y-133960349D01*
X109080078Y-133946317D01*
X109079981Y-133946171D01*
X109079822Y-133946100D01*
X109060737Y-133916994D01*
X109041608Y-133887991D01*
X109041574Y-133887768D01*
X109041510Y-133887670D01*
X109041506Y-133887315D01*
X109036162Y-133851646D01*
X109036162Y-130010753D01*
X109055847Y-129943714D01*
X109108651Y-129897959D01*
X109135963Y-129889137D01*
X109233497Y-129869737D01*
X109379179Y-129809394D01*
X109510289Y-129721789D01*
X109621789Y-129610289D01*
X109709394Y-129479179D01*
X109769737Y-129333497D01*
X109800500Y-129178842D01*
X109800500Y-129021158D01*
X109800500Y-129021155D01*
X109800499Y-129021153D01*
X109796192Y-128999500D01*
X109769737Y-128866503D01*
X109769735Y-128866498D01*
X109709397Y-128720827D01*
X109709390Y-128720814D01*
X109700087Y-128706891D01*
X109679209Y-128640213D01*
X109697694Y-128572833D01*
X109749673Y-128526143D01*
X109803189Y-128514000D01*
X110489934Y-128514000D01*
X110556973Y-128533685D01*
G37*
%TD.AperFunction*%
%TA.AperFunction,Conductor*%
G36*
X105493791Y-127983555D02*
G01*
X105511146Y-127994708D01*
X105570429Y-128040198D01*
X105710426Y-128098187D01*
X105822942Y-128113000D01*
X105822949Y-128113000D01*
X106048375Y-128113000D01*
X106048382Y-128113000D01*
X106160898Y-128098187D01*
X106160898Y-128098186D01*
X106168957Y-128097126D01*
X106169360Y-128100189D01*
X106201964Y-128100189D01*
X106202367Y-128097126D01*
X106210425Y-128098186D01*
X106210426Y-128098187D01*
X106322942Y-128113000D01*
X106322949Y-128113000D01*
X106548375Y-128113000D01*
X106548382Y-128113000D01*
X106660898Y-128098187D01*
X106660898Y-128098186D01*
X106668957Y-128097126D01*
X106669360Y-128100189D01*
X106701964Y-128100189D01*
X106702367Y-128097126D01*
X106710425Y-128098186D01*
X106710426Y-128098187D01*
X106822942Y-128113000D01*
X106822949Y-128113000D01*
X107048375Y-128113000D01*
X107048382Y-128113000D01*
X107160898Y-128098187D01*
X107160898Y-128098186D01*
X107168957Y-128097126D01*
X107169360Y-128100189D01*
X107201964Y-128100189D01*
X107202367Y-128097126D01*
X107210425Y-128098186D01*
X107210426Y-128098187D01*
X107322942Y-128113000D01*
X107322949Y-128113000D01*
X107548375Y-128113000D01*
X107548382Y-128113000D01*
X107660898Y-128098187D01*
X107660898Y-128098186D01*
X107668957Y-128097126D01*
X107669360Y-128100189D01*
X107701964Y-128100189D01*
X107702367Y-128097126D01*
X107710425Y-128098186D01*
X107710426Y-128098187D01*
X107822942Y-128113000D01*
X107822949Y-128113000D01*
X108048375Y-128113000D01*
X108048382Y-128113000D01*
X108160898Y-128098187D01*
X108160898Y-128098186D01*
X108168957Y-128097126D01*
X108169360Y-128100189D01*
X108201964Y-128100189D01*
X108202367Y-128097126D01*
X108210425Y-128098186D01*
X108210426Y-128098187D01*
X108322942Y-128113000D01*
X108322949Y-128113000D01*
X108501741Y-128113000D01*
X108531181Y-128121644D01*
X108561168Y-128128168D01*
X108566183Y-128131922D01*
X108568780Y-128132685D01*
X108589422Y-128149319D01*
X108639799Y-128199696D01*
X108673284Y-128261019D01*
X108668300Y-128330711D01*
X108626428Y-128386644D01*
X108621009Y-128390479D01*
X108489711Y-128478210D01*
X108489707Y-128478213D01*
X108378213Y-128589707D01*
X108378210Y-128589711D01*
X108290609Y-128720814D01*
X108290602Y-128720827D01*
X108230264Y-128866498D01*
X108230261Y-128866508D01*
X108199362Y-129021848D01*
X108190596Y-129038605D01*
X108186577Y-129057082D01*
X108167832Y-129082123D01*
X108166977Y-129083759D01*
X108165427Y-129085337D01*
X108132028Y-129118736D01*
X108066948Y-129183816D01*
X108066947Y-129183816D01*
X108066946Y-129183817D01*
X107955141Y-129295622D01*
X107934261Y-129331789D01*
X107925435Y-129347077D01*
X107876085Y-129432553D01*
X107835161Y-129585281D01*
X107835161Y-129585283D01*
X107835161Y-129753384D01*
X107835162Y-129753397D01*
X107835162Y-133851646D01*
X107834995Y-133852213D01*
X107835157Y-133852783D01*
X107825159Y-133885709D01*
X107815477Y-133918685D01*
X107815030Y-133919072D01*
X107814858Y-133919639D01*
X107788626Y-133941951D01*
X107762673Y-133964440D01*
X107761937Y-133964652D01*
X107761637Y-133964908D01*
X107735435Y-133972302D01*
X107727683Y-133974541D01*
X107727656Y-133974544D01*
X107710426Y-133976813D01*
X107710254Y-133976883D01*
X107702183Y-133977969D01*
X107682139Y-133974899D01*
X107669346Y-133974899D01*
X107668954Y-133977874D01*
X107660899Y-133976813D01*
X107660898Y-133976813D01*
X107626634Y-133972302D01*
X107548389Y-133962000D01*
X107548382Y-133962000D01*
X107322942Y-133962000D01*
X107322934Y-133962000D01*
X107244690Y-133972302D01*
X107210426Y-133976813D01*
X107210424Y-133976813D01*
X107202370Y-133977874D01*
X107201978Y-133974899D01*
X107169346Y-133974899D01*
X107168954Y-133977874D01*
X107160899Y-133976813D01*
X107160898Y-133976813D01*
X107126634Y-133972302D01*
X107048389Y-133962000D01*
X107048382Y-133962000D01*
X106822942Y-133962000D01*
X106822934Y-133962000D01*
X106744690Y-133972302D01*
X106710426Y-133976813D01*
X106710424Y-133976813D01*
X106702370Y-133977874D01*
X106702147Y-133976181D01*
X106673981Y-133978523D01*
X106662375Y-133977424D01*
X106660898Y-133976813D01*
X106548382Y-133962000D01*
X106499358Y-133962000D01*
X106493535Y-133961449D01*
X106466303Y-133950573D01*
X106438177Y-133942315D01*
X106434236Y-133937767D01*
X106428648Y-133935536D01*
X106411618Y-133911665D01*
X106392422Y-133889511D01*
X106391565Y-133883555D01*
X106388071Y-133878657D01*
X106386650Y-133849372D01*
X106382478Y-133820353D01*
X106383599Y-133813808D01*
X106400500Y-133728844D01*
X106400500Y-133616259D01*
X106420185Y-133549220D01*
X106472989Y-133503465D01*
X106477048Y-133501698D01*
X106579172Y-133459397D01*
X106579172Y-133459396D01*
X106579179Y-133459394D01*
X106710289Y-133371789D01*
X106821789Y-133260289D01*
X106909394Y-133129179D01*
X106915483Y-133114480D01*
X106969735Y-132983501D01*
X106969737Y-132983497D01*
X107000500Y-132828842D01*
X107000500Y-132671158D01*
X107000500Y-132671155D01*
X107000499Y-132671153D01*
X106992102Y-132628940D01*
X106969737Y-132516503D01*
X106955763Y-132482766D01*
X106909397Y-132370827D01*
X106909390Y-132370814D01*
X106821789Y-132239711D01*
X106821786Y-132239707D01*
X106710292Y-132128213D01*
X106710288Y-132128210D01*
X106579185Y-132040609D01*
X106579172Y-132040602D01*
X106433501Y-131980264D01*
X106433491Y-131980261D01*
X106300308Y-131953769D01*
X106278757Y-131942496D01*
X106255552Y-131935216D01*
X106248352Y-131926591D01*
X106238397Y-131921384D01*
X106226361Y-131900247D01*
X106210777Y-131881579D01*
X106207928Y-131867876D01*
X106203823Y-131860668D01*
X106201458Y-131847537D01*
X106200500Y-131839875D01*
X106200500Y-131771158D01*
X106177364Y-131654847D01*
X106176812Y-131650431D01*
X106181732Y-131620173D01*
X106184464Y-131589647D01*
X106187287Y-131586011D01*
X106188027Y-131581467D01*
X106208523Y-131558674D01*
X106227326Y-131534469D01*
X106233272Y-131531152D01*
X106234746Y-131529514D01*
X106237623Y-131528726D01*
X106252398Y-131520486D01*
X106279179Y-131509394D01*
X106410289Y-131421789D01*
X106521789Y-131310289D01*
X106609394Y-131179179D01*
X106611220Y-131174772D01*
X106661158Y-131054208D01*
X106669737Y-131033497D01*
X106700500Y-130878842D01*
X106700500Y-130721158D01*
X106700500Y-130721155D01*
X106700499Y-130721153D01*
X106678510Y-130610607D01*
X106669737Y-130566503D01*
X106647466Y-130512736D01*
X106609397Y-130420827D01*
X106609390Y-130420814D01*
X106521789Y-130289711D01*
X106521786Y-130289707D01*
X106410292Y-130178213D01*
X106410288Y-130178210D01*
X106279185Y-130090609D01*
X106279172Y-130090602D01*
X106133501Y-130030264D01*
X106133489Y-130030261D01*
X105978845Y-129999500D01*
X105978842Y-129999500D01*
X105821158Y-129999500D01*
X105821155Y-129999500D01*
X105666510Y-130030261D01*
X105666498Y-130030264D01*
X105520827Y-130090602D01*
X105520814Y-130090609D01*
X105407833Y-130166102D01*
X105341156Y-130186980D01*
X105338942Y-130187000D01*
X104871516Y-130187000D01*
X104870951Y-130186834D01*
X104870384Y-130186995D01*
X104837441Y-130176994D01*
X104804477Y-130167315D01*
X104804091Y-130166870D01*
X104803527Y-130166699D01*
X104781213Y-130140467D01*
X104758722Y-130114511D01*
X104758510Y-130113778D01*
X104758256Y-130113479D01*
X104750893Y-130087392D01*
X104748622Y-130079526D01*
X104748602Y-130079378D01*
X104746349Y-130062264D01*
X104746277Y-130062091D01*
X104745193Y-130054026D01*
X104748351Y-130033401D01*
X104748351Y-130021198D01*
X104745288Y-130020795D01*
X104747732Y-130002233D01*
X104761162Y-129900220D01*
X104761162Y-129674780D01*
X104746349Y-129562264D01*
X104746348Y-129562263D01*
X104745288Y-129554205D01*
X104748351Y-129553801D01*
X104748351Y-129521198D01*
X104745288Y-129520795D01*
X104750767Y-129479179D01*
X104761162Y-129400220D01*
X104761162Y-129174780D01*
X104746349Y-129062264D01*
X104746348Y-129062263D01*
X104745288Y-129054205D01*
X104748351Y-129053801D01*
X104748351Y-129021198D01*
X104745288Y-129020795D01*
X104746349Y-129012736D01*
X104761162Y-128900220D01*
X104761162Y-128674780D01*
X104746349Y-128562264D01*
X104746348Y-128562263D01*
X104745288Y-128554205D01*
X104748351Y-128553801D01*
X104748351Y-128521198D01*
X104745288Y-128520795D01*
X104750894Y-128478210D01*
X104761162Y-128400220D01*
X104761162Y-128237000D01*
X104780847Y-128169961D01*
X104833651Y-128124206D01*
X104885162Y-128113000D01*
X105048375Y-128113000D01*
X105048382Y-128113000D01*
X105160898Y-128098187D01*
X105300895Y-128040198D01*
X105360177Y-127994708D01*
X105425346Y-127969516D01*
X105493791Y-127983555D01*
G37*
%TD.AperFunction*%
%TA.AperFunction,Conductor*%
G36*
X114193039Y-131999685D02*
G01*
X114238794Y-132052489D01*
X114250000Y-132104000D01*
X114250000Y-132758789D01*
X114270911Y-132757145D01*
X114303277Y-132747742D01*
X114373147Y-132747941D01*
X114431817Y-132785883D01*
X114460661Y-132849521D01*
X114450520Y-132918651D01*
X114425554Y-132954499D01*
X113652325Y-133727728D01*
X113591002Y-133761213D01*
X113521310Y-133756229D01*
X113476963Y-133727728D01*
X113175089Y-133425854D01*
X113168020Y-133418785D01*
X113168020Y-133418784D01*
X113122480Y-133373244D01*
X113103329Y-133338171D01*
X113088996Y-133311922D01*
X113086162Y-133285564D01*
X113086162Y-133174786D01*
X113086162Y-133174780D01*
X113071349Y-133062264D01*
X113071348Y-133062263D01*
X113070288Y-133054205D01*
X113073351Y-133053801D01*
X113073351Y-133021198D01*
X113070288Y-133020795D01*
X113079016Y-132954499D01*
X113086162Y-132900220D01*
X113086162Y-132674780D01*
X113085684Y-132671153D01*
X113082307Y-132645499D01*
X113071349Y-132562264D01*
X113071347Y-132562260D01*
X113071323Y-132562074D01*
X113082088Y-132493039D01*
X113128468Y-132440783D01*
X113195736Y-132421897D01*
X113262537Y-132442377D01*
X113300993Y-132482766D01*
X113320276Y-132515372D01*
X113320285Y-132515383D01*
X113434616Y-132629714D01*
X113434625Y-132629721D01*
X113573804Y-132712031D01*
X113729089Y-132757145D01*
X113750000Y-132758789D01*
X113750000Y-132104000D01*
X113769685Y-132036961D01*
X113822489Y-131991206D01*
X113874000Y-131980000D01*
X114126000Y-131980000D01*
X114193039Y-131999685D01*
G37*
%TD.AperFunction*%
%TA.AperFunction,Conductor*%
G36*
X116415245Y-130071423D02*
G01*
X116451738Y-130096684D01*
X116513181Y-130158127D01*
X116546666Y-130219450D01*
X116549500Y-130245808D01*
X116549500Y-130879192D01*
X116529815Y-130946231D01*
X116513181Y-130966873D01*
X116207180Y-131272873D01*
X116145857Y-131306358D01*
X116076165Y-131301374D01*
X116020232Y-131259502D01*
X115995815Y-131194038D01*
X115995499Y-131185219D01*
X115995499Y-130800820D01*
X115992665Y-130764796D01*
X115957320Y-130643137D01*
X115957519Y-130573269D01*
X115995461Y-130514599D01*
X116013277Y-130501810D01*
X116021037Y-130497220D01*
X116021045Y-130497214D01*
X116135376Y-130382883D01*
X116135383Y-130382874D01*
X116217693Y-130243695D01*
X116244980Y-130149771D01*
X116282586Y-130090885D01*
X116346058Y-130061678D01*
X116415245Y-130071423D01*
G37*
%TD.AperFunction*%
%TA.AperFunction,Conductor*%
G36*
X119442539Y-100520185D02*
G01*
X119488294Y-100572989D01*
X119499500Y-100624500D01*
X119499500Y-126850902D01*
X119479815Y-126917941D01*
X119427011Y-126963696D01*
X119357853Y-126973640D01*
X119294297Y-126944615D01*
X119287819Y-126938583D01*
X119111818Y-126762582D01*
X119078333Y-126701259D01*
X119075499Y-126674901D01*
X119075499Y-126002129D01*
X119075498Y-126002123D01*
X119074785Y-125995494D01*
X119069091Y-125942517D01*
X119063388Y-125927227D01*
X119018797Y-125807671D01*
X119018793Y-125807664D01*
X118932547Y-125692455D01*
X118932544Y-125692452D01*
X118817335Y-125606206D01*
X118817328Y-125606202D01*
X118682486Y-125555910D01*
X118682485Y-125555909D01*
X118682483Y-125555909D01*
X118622873Y-125549500D01*
X118622863Y-125549500D01*
X117977129Y-125549500D01*
X117977123Y-125549501D01*
X117917516Y-125555908D01*
X117782671Y-125606202D01*
X117782664Y-125606206D01*
X117667456Y-125692452D01*
X117667455Y-125692453D01*
X117667454Y-125692454D01*
X117624141Y-125750312D01*
X117568209Y-125792182D01*
X117524876Y-125800000D01*
X115825124Y-125800000D01*
X115758085Y-125780315D01*
X115725859Y-125750313D01*
X115682546Y-125692454D01*
X115619534Y-125645283D01*
X115567335Y-125606206D01*
X115567328Y-125606202D01*
X115432486Y-125555910D01*
X115432485Y-125555909D01*
X115432483Y-125555909D01*
X115372873Y-125549500D01*
X115372864Y-125549500D01*
X114786878Y-125549500D01*
X114719839Y-125529815D01*
X114674084Y-125477011D01*
X114672215Y-125472069D01*
X114672068Y-125472131D01*
X114609397Y-125320827D01*
X114609390Y-125320814D01*
X114573413Y-125266971D01*
X114563925Y-125236671D01*
X114552831Y-125206926D01*
X114553560Y-125203570D01*
X114552535Y-125200294D01*
X114560934Y-125169673D01*
X114567683Y-125138653D01*
X114570463Y-125134939D01*
X114571019Y-125132913D01*
X114588830Y-125110403D01*
X114614396Y-125084837D01*
X114675717Y-125051354D01*
X114715328Y-125049231D01*
X114727127Y-125050500D01*
X115372872Y-125050499D01*
X115432483Y-125044091D01*
X115567331Y-124993796D01*
X115682546Y-124907546D01*
X115725858Y-124849687D01*
X115781791Y-124807818D01*
X115825124Y-124800000D01*
X117525499Y-124800000D01*
X117592538Y-124819685D01*
X117624765Y-124849689D01*
X117667805Y-124907182D01*
X117667814Y-124907191D01*
X117782906Y-124993350D01*
X117782913Y-124993354D01*
X117917620Y-125043596D01*
X117917627Y-125043598D01*
X117977155Y-125049999D01*
X117977172Y-125050000D01*
X118050000Y-125050000D01*
X118550000Y-125050000D01*
X118622828Y-125050000D01*
X118622844Y-125049999D01*
X118682372Y-125043598D01*
X118682379Y-125043596D01*
X118817086Y-124993354D01*
X118817093Y-124993350D01*
X118932187Y-124907190D01*
X118932190Y-124907187D01*
X119018350Y-124792093D01*
X119018354Y-124792086D01*
X119068596Y-124657379D01*
X119068598Y-124657372D01*
X119074999Y-124597844D01*
X119075000Y-124597827D01*
X119075000Y-124050000D01*
X118550000Y-124050000D01*
X118550000Y-125050000D01*
X118050000Y-125050000D01*
X118050000Y-123550000D01*
X118550000Y-123550000D01*
X119075000Y-123550000D01*
X119075000Y-123002172D01*
X119074999Y-123002155D01*
X119068598Y-122942627D01*
X119068596Y-122942620D01*
X119018354Y-122807913D01*
X119018350Y-122807906D01*
X118932190Y-122692812D01*
X118932187Y-122692809D01*
X118817093Y-122606649D01*
X118817086Y-122606645D01*
X118682379Y-122556403D01*
X118682372Y-122556401D01*
X118622844Y-122550000D01*
X118550000Y-122550000D01*
X118550000Y-123550000D01*
X118050000Y-123550000D01*
X118050000Y-122550000D01*
X117977155Y-122550000D01*
X117917627Y-122556401D01*
X117917620Y-122556403D01*
X117782913Y-122606645D01*
X117782906Y-122606649D01*
X117667814Y-122692808D01*
X117667805Y-122692817D01*
X117624765Y-122750311D01*
X117568831Y-122792182D01*
X117525499Y-122800000D01*
X115825124Y-122800000D01*
X115758085Y-122780315D01*
X115725859Y-122750313D01*
X115682546Y-122692454D01*
X115659709Y-122675358D01*
X115567335Y-122606206D01*
X115567328Y-122606202D01*
X115432486Y-122555910D01*
X115432485Y-122555909D01*
X115432483Y-122555909D01*
X115372873Y-122549500D01*
X115372863Y-122549500D01*
X114727129Y-122549500D01*
X114727123Y-122549501D01*
X114667516Y-122555908D01*
X114532671Y-122606202D01*
X114532664Y-122606206D01*
X114417455Y-122692452D01*
X114417452Y-122692455D01*
X114331206Y-122807664D01*
X114331202Y-122807671D01*
X114280908Y-122942517D01*
X114274501Y-123002116D01*
X114274500Y-123002135D01*
X114274500Y-123674901D01*
X114265855Y-123704341D01*
X114259332Y-123734328D01*
X114255577Y-123739343D01*
X114254815Y-123741940D01*
X114238181Y-123762582D01*
X114112181Y-123888582D01*
X114050858Y-123922067D01*
X113981166Y-123917083D01*
X113925233Y-123875211D01*
X113900816Y-123809747D01*
X113900500Y-123800901D01*
X113900500Y-122026961D01*
X113900501Y-122026948D01*
X113900501Y-121858845D01*
X113859576Y-121706115D01*
X113859573Y-121706110D01*
X113780524Y-121569191D01*
X113780518Y-121569183D01*
X113283516Y-121072181D01*
X113250031Y-121010858D01*
X113255015Y-120941166D01*
X113296887Y-120885233D01*
X113362351Y-120860816D01*
X113371197Y-120860500D01*
X113883333Y-120860500D01*
X113950372Y-120880185D01*
X113971014Y-120896819D01*
X113984307Y-120910112D01*
X113984311Y-120910115D01*
X113984313Y-120910117D01*
X114123605Y-120992494D01*
X114164587Y-121004400D01*
X114279002Y-121037642D01*
X114279005Y-121037642D01*
X114279007Y-121037643D01*
X114315310Y-121040500D01*
X114315318Y-121040500D01*
X114784682Y-121040500D01*
X114784690Y-121040500D01*
X114820993Y-121037643D01*
X114820995Y-121037642D01*
X114820997Y-121037642D01*
X114913186Y-121010858D01*
X114976395Y-120992494D01*
X115115687Y-120910117D01*
X115115692Y-120910112D01*
X115128986Y-120896819D01*
X115190309Y-120863334D01*
X115216667Y-120860500D01*
X116983331Y-120860500D01*
X116983347Y-120860501D01*
X116990943Y-120860501D01*
X117149054Y-120860501D01*
X117149057Y-120860501D01*
X117301785Y-120819577D01*
X117371967Y-120779057D01*
X117438716Y-120740520D01*
X117550520Y-120628716D01*
X117550520Y-120628714D01*
X117560720Y-120618515D01*
X117560724Y-120618510D01*
X117712418Y-120466815D01*
X117773739Y-120433333D01*
X117800097Y-120430499D01*
X118500002Y-120430499D01*
X118500008Y-120430499D01*
X118602797Y-120419999D01*
X118769334Y-120364814D01*
X118918656Y-120272712D01*
X119042712Y-120148656D01*
X119134814Y-119999334D01*
X119189999Y-119832797D01*
X119200500Y-119730009D01*
X119200499Y-118729992D01*
X119189999Y-118627203D01*
X119134814Y-118460666D01*
X119042712Y-118311344D01*
X118948695Y-118217327D01*
X118915210Y-118156004D01*
X118920194Y-118086312D01*
X118948695Y-118041964D01*
X119042317Y-117948342D01*
X119134356Y-117799124D01*
X119134358Y-117799119D01*
X119189505Y-117632697D01*
X119189506Y-117632690D01*
X119199999Y-117529986D01*
X119200000Y-117529973D01*
X119200000Y-117280000D01*
X118224000Y-117280000D01*
X118156961Y-117260315D01*
X118111206Y-117207511D01*
X118100000Y-117156000D01*
X118100000Y-117030000D01*
X117974000Y-117030000D01*
X117906961Y-117010315D01*
X117861206Y-116957511D01*
X117850000Y-116906000D01*
X117850000Y-116780000D01*
X118350000Y-116780000D01*
X119199999Y-116780000D01*
X119199999Y-116530028D01*
X119199998Y-116530013D01*
X119189505Y-116427302D01*
X119134358Y-116260880D01*
X119134356Y-116260875D01*
X119042315Y-116111654D01*
X118918345Y-115987684D01*
X118769124Y-115895643D01*
X118769119Y-115895641D01*
X118602697Y-115840494D01*
X118602690Y-115840493D01*
X118499986Y-115830000D01*
X118350000Y-115830000D01*
X118350000Y-116780000D01*
X117850000Y-116780000D01*
X117850000Y-115830000D01*
X117700027Y-115830000D01*
X117700012Y-115830001D01*
X117597302Y-115840494D01*
X117430880Y-115895641D01*
X117430875Y-115895643D01*
X117315573Y-115966763D01*
X117248180Y-115985203D01*
X117185380Y-115966763D01*
X117069340Y-115895189D01*
X117069335Y-115895187D01*
X117069334Y-115895186D01*
X116902797Y-115840001D01*
X116902795Y-115840000D01*
X116800016Y-115829500D01*
X116800009Y-115829500D01*
X116380097Y-115829500D01*
X116350656Y-115820855D01*
X116320670Y-115814332D01*
X116315654Y-115810577D01*
X116313058Y-115809815D01*
X116292416Y-115793181D01*
X116137590Y-115638355D01*
X116137588Y-115638352D01*
X116018717Y-115519481D01*
X116018709Y-115519475D01*
X115914272Y-115459179D01*
X115914269Y-115459178D01*
X115881786Y-115440423D01*
X115881787Y-115440423D01*
X115820693Y-115424053D01*
X115729057Y-115399499D01*
X115570943Y-115399499D01*
X115563347Y-115399499D01*
X115563331Y-115399500D01*
X115216667Y-115399500D01*
X115149628Y-115379815D01*
X115128986Y-115363181D01*
X115115692Y-115349887D01*
X115115684Y-115349881D01*
X114976393Y-115267505D01*
X114976390Y-115267504D01*
X114820997Y-115222357D01*
X114820991Y-115222356D01*
X114784697Y-115219500D01*
X114784690Y-115219500D01*
X114315310Y-115219500D01*
X114315302Y-115219500D01*
X114279008Y-115222356D01*
X114279002Y-115222357D01*
X114123609Y-115267504D01*
X114123606Y-115267505D01*
X113984315Y-115349881D01*
X113984307Y-115349887D01*
X113971014Y-115363181D01*
X113909691Y-115396666D01*
X113883333Y-115399500D01*
X113420943Y-115399500D01*
X113268213Y-115440423D01*
X113244627Y-115454041D01*
X113176727Y-115470512D01*
X113110700Y-115447660D01*
X113067510Y-115392738D01*
X113059010Y-115356379D01*
X113057643Y-115339009D01*
X113057642Y-115339002D01*
X113012495Y-115183609D01*
X113012494Y-115183605D01*
X113000089Y-115162630D01*
X112982906Y-115094909D01*
X113000091Y-115036384D01*
X113012032Y-115016194D01*
X113054504Y-114870000D01*
X112748352Y-114870000D01*
X112685233Y-114852732D01*
X112676395Y-114847506D01*
X112676393Y-114847505D01*
X112676389Y-114847503D01*
X112520997Y-114802357D01*
X112520991Y-114802356D01*
X112484697Y-114799500D01*
X112484690Y-114799500D01*
X112015310Y-114799500D01*
X112015302Y-114799500D01*
X111979008Y-114802356D01*
X111979002Y-114802357D01*
X111823610Y-114847503D01*
X111823605Y-114847506D01*
X111814766Y-114852732D01*
X111751648Y-114870000D01*
X111433687Y-114870000D01*
X111404552Y-114891744D01*
X111361386Y-114899500D01*
X110929500Y-114899500D01*
X110921506Y-114897152D01*
X110913275Y-114898434D01*
X110888476Y-114887454D01*
X110862461Y-114879815D01*
X110857006Y-114873520D01*
X110849388Y-114870147D01*
X110834461Y-114847501D01*
X110816706Y-114827011D01*
X110814524Y-114817255D01*
X110810935Y-114811810D01*
X110806133Y-114779734D01*
X110805508Y-114776936D01*
X110805500Y-114776245D01*
X110805500Y-114617060D01*
X110803339Y-114589601D01*
X110803291Y-114585451D01*
X110811665Y-114555657D01*
X110818029Y-114525366D01*
X110820000Y-114523071D01*
X110820000Y-114203352D01*
X110837267Y-114140233D01*
X110842494Y-114131395D01*
X110865999Y-114050493D01*
X110887642Y-113975997D01*
X110887643Y-113975991D01*
X110889295Y-113955000D01*
X111320000Y-113955000D01*
X111320000Y-114370000D01*
X112000000Y-114370000D01*
X112500000Y-114370000D01*
X113054504Y-114370000D01*
X113012031Y-114223804D01*
X112929721Y-114084625D01*
X112929714Y-114084616D01*
X112815383Y-113970285D01*
X112815374Y-113970278D01*
X112676195Y-113887968D01*
X112676190Y-113887966D01*
X112520918Y-113842855D01*
X112520912Y-113842854D01*
X112500000Y-113841209D01*
X112500000Y-114370000D01*
X112000000Y-114370000D01*
X112000000Y-113841209D01*
X111979999Y-113842783D01*
X111974929Y-113848267D01*
X111960315Y-113898039D01*
X111907511Y-113943794D01*
X111856000Y-113955000D01*
X111320000Y-113955000D01*
X110889295Y-113955000D01*
X110890499Y-113939697D01*
X110890500Y-113939690D01*
X110890500Y-113470310D01*
X110887643Y-113434007D01*
X110874267Y-113387968D01*
X110842495Y-113278608D01*
X110842492Y-113278600D01*
X110837266Y-113269763D01*
X110820000Y-113206645D01*
X110820000Y-112900494D01*
X111320000Y-112900494D01*
X111320000Y-113455000D01*
X111848790Y-113455000D01*
X111847145Y-113434089D01*
X111802031Y-113278804D01*
X111719721Y-113139625D01*
X111719714Y-113139616D01*
X111605383Y-113025285D01*
X111605374Y-113025278D01*
X111466193Y-112942967D01*
X111466190Y-112942965D01*
X111320001Y-112900493D01*
X111320000Y-112900494D01*
X110820000Y-112900494D01*
X110819998Y-112900493D01*
X110673809Y-112942965D01*
X110673806Y-112942967D01*
X110653608Y-112954912D01*
X110585884Y-112972092D01*
X110527370Y-112954910D01*
X110506397Y-112942507D01*
X110506390Y-112942504D01*
X110350997Y-112897357D01*
X110350991Y-112897356D01*
X110314697Y-112894500D01*
X110314690Y-112894500D01*
X109974500Y-112894500D01*
X109907461Y-112874815D01*
X109861706Y-112822011D01*
X109850500Y-112770500D01*
X109850500Y-112600317D01*
X109850499Y-112600302D01*
X109849850Y-112592060D01*
X109847643Y-112564007D01*
X109845119Y-112555320D01*
X109802495Y-112408609D01*
X109802494Y-112408606D01*
X109802494Y-112408605D01*
X109720117Y-112269313D01*
X109720115Y-112269311D01*
X109720112Y-112269307D01*
X109605692Y-112154887D01*
X109605684Y-112154881D01*
X109466393Y-112072505D01*
X109466390Y-112072504D01*
X109310997Y-112027357D01*
X109310991Y-112027356D01*
X109274697Y-112024500D01*
X109274690Y-112024500D01*
X108805310Y-112024500D01*
X108805299Y-112024500D01*
X108794227Y-112025372D01*
X108725850Y-112011007D01*
X108676094Y-111961955D01*
X108660500Y-111901754D01*
X108660500Y-111557067D01*
X108660499Y-111557052D01*
X108657609Y-111520326D01*
X108657608Y-111520320D01*
X108611933Y-111363107D01*
X108611931Y-111363104D01*
X108611931Y-111363103D01*
X108576026Y-111302391D01*
X108558843Y-111234667D01*
X108576027Y-111176147D01*
X108602494Y-111131395D01*
X108647643Y-110975993D01*
X108650500Y-110939690D01*
X108650500Y-110470310D01*
X108647643Y-110434007D01*
X108647642Y-110434002D01*
X108602496Y-110278610D01*
X108602494Y-110278608D01*
X108602494Y-110278605D01*
X108580460Y-110241347D01*
X108563278Y-110173627D01*
X108580462Y-110115107D01*
X108611931Y-110061897D01*
X108611931Y-110061893D01*
X108611933Y-110061892D01*
X108657608Y-109904679D01*
X108657609Y-109904673D01*
X108660499Y-109867947D01*
X108660500Y-109867940D01*
X108660500Y-109639500D01*
X108680185Y-109572461D01*
X108732989Y-109526706D01*
X108784500Y-109515500D01*
X109134682Y-109515500D01*
X109134690Y-109515500D01*
X109170993Y-109512643D01*
X109170995Y-109512642D01*
X109170997Y-109512642D01*
X109211975Y-109500736D01*
X109326395Y-109467494D01*
X109347369Y-109455089D01*
X109415088Y-109437906D01*
X109473613Y-109455090D01*
X109493803Y-109467031D01*
X109640000Y-109509504D01*
X109640000Y-109509503D01*
X110140000Y-109509503D01*
X110286195Y-109467031D01*
X110425374Y-109384721D01*
X110425383Y-109384714D01*
X110539714Y-109270383D01*
X110539721Y-109270374D01*
X110622031Y-109131195D01*
X110622033Y-109131190D01*
X110667144Y-108975918D01*
X110667145Y-108975912D01*
X110668790Y-108955000D01*
X110140000Y-108955000D01*
X110140000Y-109509503D01*
X109640000Y-109509503D01*
X109640000Y-109203352D01*
X109657267Y-109140233D01*
X109662494Y-109131395D01*
X109669616Y-109106883D01*
X109707642Y-108975997D01*
X109707643Y-108975991D01*
X109710499Y-108939697D01*
X109710500Y-108939690D01*
X109710500Y-108470310D01*
X109707643Y-108434007D01*
X109662494Y-108278605D01*
X109662493Y-108278604D01*
X109662492Y-108278600D01*
X109657266Y-108269763D01*
X109640000Y-108206645D01*
X109640000Y-107922507D01*
X109584931Y-107900494D01*
X110140000Y-107900494D01*
X110140000Y-108455000D01*
X110668790Y-108455000D01*
X110667145Y-108434089D01*
X110622031Y-108278804D01*
X110539721Y-108139625D01*
X110539714Y-108139616D01*
X110425383Y-108025285D01*
X110425374Y-108025278D01*
X110286193Y-107942967D01*
X110286190Y-107942965D01*
X110140001Y-107900493D01*
X110140000Y-107900494D01*
X109584931Y-107900494D01*
X109568473Y-107893915D01*
X109545303Y-107875713D01*
X109520554Y-107859708D01*
X109518135Y-107854370D01*
X109513530Y-107850753D01*
X109503879Y-107822916D01*
X109491712Y-107796069D01*
X109490987Y-107785728D01*
X109490644Y-107784738D01*
X109490856Y-107783860D01*
X109490500Y-107778774D01*
X109490500Y-107746666D01*
X109510185Y-107679627D01*
X109526820Y-107658984D01*
X109570112Y-107615692D01*
X109570117Y-107615687D01*
X109652494Y-107476395D01*
X109697643Y-107320993D01*
X109700500Y-107284690D01*
X109700500Y-106875310D01*
X109697643Y-106839007D01*
X109684273Y-106792989D01*
X109652495Y-106683609D01*
X109652495Y-106683608D01*
X109652494Y-106683607D01*
X109652494Y-106683605D01*
X109640379Y-106663120D01*
X109623196Y-106595399D01*
X109640379Y-106536880D01*
X109652494Y-106516395D01*
X109697643Y-106360993D01*
X109700500Y-106324690D01*
X109700500Y-105915310D01*
X109697643Y-105879007D01*
X109652494Y-105723605D01*
X109570117Y-105584313D01*
X109570115Y-105584311D01*
X109570112Y-105584307D01*
X109455692Y-105469887D01*
X109455684Y-105469881D01*
X109316393Y-105387505D01*
X109316390Y-105387504D01*
X109160997Y-105342357D01*
X109160991Y-105342356D01*
X109124697Y-105339500D01*
X109124690Y-105339500D01*
X108655310Y-105339500D01*
X108655302Y-105339500D01*
X108619008Y-105342356D01*
X108619002Y-105342357D01*
X108463609Y-105387504D01*
X108463606Y-105387505D01*
X108324315Y-105469881D01*
X108324307Y-105469887D01*
X108311014Y-105483181D01*
X108249691Y-105516666D01*
X108223333Y-105519500D01*
X106226999Y-105519500D01*
X106159960Y-105499815D01*
X106114205Y-105447011D01*
X106102999Y-105395500D01*
X106102999Y-105302129D01*
X106102998Y-105302123D01*
X106096591Y-105242516D01*
X106046297Y-105107671D01*
X106046293Y-105107664D01*
X105960047Y-104992455D01*
X105960044Y-104992452D01*
X105844835Y-104906206D01*
X105844828Y-104906202D01*
X105709982Y-104855908D01*
X105709983Y-104855908D01*
X105650383Y-104849501D01*
X105650381Y-104849500D01*
X105650373Y-104849500D01*
X105650365Y-104849500D01*
X100624500Y-104849500D01*
X100557461Y-104829815D01*
X100511706Y-104777011D01*
X100500500Y-104725500D01*
X100500500Y-103224000D01*
X100520185Y-103156961D01*
X100572989Y-103111206D01*
X100624500Y-103100000D01*
X102812500Y-103100000D01*
X103312500Y-103100000D01*
X105650328Y-103100000D01*
X105650344Y-103099999D01*
X105709872Y-103093598D01*
X105709879Y-103093596D01*
X105844586Y-103043354D01*
X105844593Y-103043350D01*
X105959687Y-102957190D01*
X105959690Y-102957187D01*
X106045850Y-102842093D01*
X106045854Y-102842086D01*
X106096096Y-102707379D01*
X106096098Y-102707372D01*
X106102499Y-102647844D01*
X106102500Y-102647827D01*
X106102500Y-102100000D01*
X103312500Y-102100000D01*
X103312500Y-103100000D01*
X102812500Y-103100000D01*
X102812500Y-101974000D01*
X102832185Y-101906961D01*
X102884989Y-101861206D01*
X102936500Y-101850000D01*
X103062500Y-101850000D01*
X103062500Y-101724000D01*
X103082185Y-101656961D01*
X103134989Y-101611206D01*
X103186500Y-101600000D01*
X106102500Y-101600000D01*
X106102500Y-101052172D01*
X106102499Y-101052155D01*
X106096098Y-100992627D01*
X106096096Y-100992620D01*
X106045854Y-100857913D01*
X106045850Y-100857906D01*
X105959690Y-100742812D01*
X105934248Y-100723766D01*
X105892378Y-100667832D01*
X105887394Y-100598140D01*
X105920880Y-100536818D01*
X105982203Y-100503333D01*
X106008560Y-100500500D01*
X119375500Y-100500500D01*
X119442539Y-100520185D01*
G37*
%TD.AperFunction*%
%TA.AperFunction,Conductor*%
G36*
X111330222Y-123227267D02*
G01*
X111423605Y-123282494D01*
X111446553Y-123289161D01*
X111579002Y-123327642D01*
X111579005Y-123327642D01*
X111579007Y-123327643D01*
X111615310Y-123330500D01*
X111615318Y-123330500D01*
X111726000Y-123330500D01*
X111793039Y-123350185D01*
X111838794Y-123402989D01*
X111850000Y-123454500D01*
X111850000Y-123510000D01*
X111976000Y-123510000D01*
X112043039Y-123529685D01*
X112088794Y-123582489D01*
X112100000Y-123634000D01*
X112100000Y-124288789D01*
X112120913Y-124287144D01*
X112127567Y-124285212D01*
X112197437Y-124285411D01*
X112256107Y-124323353D01*
X112284950Y-124386992D01*
X112286162Y-124404288D01*
X112286162Y-125540115D01*
X112266477Y-125607154D01*
X112213673Y-125652909D01*
X112144515Y-125662853D01*
X112080959Y-125633828D01*
X112074481Y-125627796D01*
X110885463Y-124438778D01*
X110851978Y-124377455D01*
X110856962Y-124307763D01*
X110898834Y-124251830D01*
X110938550Y-124232020D01*
X111076195Y-124192031D01*
X111076197Y-124192030D01*
X111145556Y-124151011D01*
X111213279Y-124133827D01*
X111279542Y-124155986D01*
X111284607Y-124159710D01*
X111423804Y-124242031D01*
X111579089Y-124287145D01*
X111600000Y-124288789D01*
X111600000Y-123760000D01*
X111011362Y-123760000D01*
X110985802Y-123757337D01*
X110748440Y-123707337D01*
X110728585Y-123696664D01*
X110706961Y-123690315D01*
X110698407Y-123680443D01*
X110686898Y-123674257D01*
X110675963Y-123654542D01*
X110661206Y-123637511D01*
X110657777Y-123621752D01*
X110653010Y-123613156D01*
X110653675Y-123602896D01*
X110650000Y-123586000D01*
X110650000Y-123404500D01*
X110669685Y-123337461D01*
X110722489Y-123291706D01*
X110774000Y-123280500D01*
X110884682Y-123280500D01*
X110884690Y-123280500D01*
X110920993Y-123277643D01*
X110920995Y-123277642D01*
X110920997Y-123277642D01*
X111076389Y-123232496D01*
X111076389Y-123232495D01*
X111076395Y-123232494D01*
X111085233Y-123227267D01*
X111101132Y-123222917D01*
X111113417Y-123215023D01*
X111148352Y-123210000D01*
X111267102Y-123210000D01*
X111330222Y-123227267D01*
G37*
%TD.AperFunction*%
%TA.AperFunction,Conductor*%
G36*
X105028834Y-119522913D02*
G01*
X105084767Y-119564785D01*
X105109184Y-119630249D01*
X105109500Y-119639089D01*
X105109500Y-119654401D01*
X105123988Y-119764463D01*
X105123991Y-119764472D01*
X105172811Y-119882334D01*
X105180721Y-119901429D01*
X105270964Y-120019036D01*
X105388571Y-120109279D01*
X105388576Y-120109281D01*
X105412952Y-120119378D01*
X105467356Y-120163218D01*
X105489421Y-120229512D01*
X105489500Y-120233939D01*
X105489500Y-120490903D01*
X105469815Y-120557942D01*
X105417011Y-120603697D01*
X105347853Y-120613641D01*
X105284297Y-120584616D01*
X105277819Y-120578584D01*
X104934574Y-120235339D01*
X104901089Y-120174016D01*
X104900638Y-120171849D01*
X104870241Y-120019037D01*
X104869737Y-120016503D01*
X104862626Y-119999336D01*
X104809396Y-119870825D01*
X104809395Y-119870824D01*
X104809394Y-119870821D01*
X104803991Y-119862735D01*
X104801210Y-119853855D01*
X104795019Y-119846905D01*
X104790936Y-119821042D01*
X104783114Y-119796060D01*
X104785286Y-119785250D01*
X104784125Y-119777890D01*
X104790473Y-119759448D01*
X104793601Y-119743892D01*
X104796584Y-119737113D01*
X104832494Y-119676395D01*
X104850326Y-119615015D01*
X104853623Y-119607525D01*
X104865360Y-119593596D01*
X104879433Y-119569800D01*
X104897821Y-119551412D01*
X104959142Y-119517929D01*
X105028834Y-119522913D01*
G37*
%TD.AperFunction*%
%TA.AperFunction,Conductor*%
G36*
X108024580Y-106740185D02*
G01*
X108070335Y-106792989D01*
X108081159Y-106854228D01*
X108079500Y-106875302D01*
X108079500Y-107284697D01*
X108082356Y-107320991D01*
X108082357Y-107320997D01*
X108127504Y-107476390D01*
X108127505Y-107476393D01*
X108209881Y-107615684D01*
X108209887Y-107615692D01*
X108253180Y-107658984D01*
X108267884Y-107685912D01*
X108284477Y-107711731D01*
X108285368Y-107717930D01*
X108286666Y-107720307D01*
X108289500Y-107746666D01*
X108289500Y-107778029D01*
X108269815Y-107845068D01*
X108217011Y-107890823D01*
X108147853Y-107900767D01*
X108130909Y-107897107D01*
X108114673Y-107892390D01*
X108077947Y-107889500D01*
X108077940Y-107889500D01*
X107602060Y-107889500D01*
X107602052Y-107889500D01*
X107565326Y-107892390D01*
X107565320Y-107892391D01*
X107408107Y-107938066D01*
X107408104Y-107938068D01*
X107267182Y-108021408D01*
X107267174Y-108021414D01*
X107151414Y-108137174D01*
X107151408Y-108137182D01*
X107068068Y-108278104D01*
X107068066Y-108278107D01*
X107022391Y-108435320D01*
X107022390Y-108435326D01*
X107019500Y-108472052D01*
X107019500Y-108897947D01*
X107022390Y-108934673D01*
X107022391Y-108934679D01*
X107068067Y-109091894D01*
X107076931Y-109106883D01*
X107094110Y-109174608D01*
X107076931Y-109233117D01*
X107068067Y-109248105D01*
X107022391Y-109405320D01*
X107022390Y-109405326D01*
X107019500Y-109442052D01*
X107019500Y-109867947D01*
X107022390Y-109904673D01*
X107022391Y-109904679D01*
X107068066Y-110061892D01*
X107068067Y-110061893D01*
X107068068Y-110061895D01*
X107068069Y-110061897D01*
X107099014Y-110114222D01*
X107130157Y-110166883D01*
X107147339Y-110234607D01*
X107139109Y-110270946D01*
X107139682Y-110271113D01*
X107092357Y-110434002D01*
X107092356Y-110434008D01*
X107089500Y-110470302D01*
X107089500Y-110939697D01*
X107092356Y-110975991D01*
X107092357Y-110975997D01*
X107137504Y-111131390D01*
X107140603Y-111138551D01*
X107137634Y-111139835D01*
X107151154Y-111193173D01*
X107133974Y-111251662D01*
X107068067Y-111363106D01*
X107068066Y-111363107D01*
X107022391Y-111520320D01*
X107022390Y-111520326D01*
X107019500Y-111557052D01*
X107019500Y-111885500D01*
X106999815Y-111952539D01*
X106947011Y-111998294D01*
X106895500Y-112009500D01*
X106452052Y-112009500D01*
X106415326Y-112012390D01*
X106415320Y-112012391D01*
X106258107Y-112058066D01*
X106258104Y-112058068D01*
X106117182Y-112141408D01*
X106117174Y-112141414D01*
X106001414Y-112257174D01*
X106001408Y-112257182D01*
X105918068Y-112398104D01*
X105918066Y-112398107D01*
X105872391Y-112555320D01*
X105872390Y-112555326D01*
X105869500Y-112592052D01*
X105869500Y-113017947D01*
X105872390Y-113054673D01*
X105872391Y-113054679D01*
X105918067Y-113211894D01*
X105926931Y-113226883D01*
X105944110Y-113294608D01*
X105926931Y-113353117D01*
X105918067Y-113368105D01*
X105872391Y-113525320D01*
X105872390Y-113525326D01*
X105869500Y-113562052D01*
X105869500Y-113987947D01*
X105872390Y-114024673D01*
X105872391Y-114024679D01*
X105918066Y-114181892D01*
X105918067Y-114181893D01*
X105918068Y-114181895D01*
X105918069Y-114181897D01*
X105942853Y-114223804D01*
X105999203Y-114319089D01*
X106016385Y-114386813D01*
X106008683Y-114420823D01*
X106009682Y-114421114D01*
X105962357Y-114584002D01*
X105962356Y-114584008D01*
X105959500Y-114620302D01*
X105959500Y-114731000D01*
X105956949Y-114739685D01*
X105958238Y-114748647D01*
X105947259Y-114772687D01*
X105939815Y-114798039D01*
X105932974Y-114803966D01*
X105929213Y-114812203D01*
X105906978Y-114826492D01*
X105887011Y-114843794D01*
X105876496Y-114846081D01*
X105870435Y-114849977D01*
X105835500Y-114855000D01*
X105654000Y-114855000D01*
X105586961Y-114835315D01*
X105541206Y-114782511D01*
X105530000Y-114731000D01*
X105530000Y-114050494D01*
X105529998Y-114050493D01*
X105383809Y-114092965D01*
X105383806Y-114092967D01*
X105244625Y-114175278D01*
X105244616Y-114175285D01*
X105130285Y-114289616D01*
X105130278Y-114289625D01*
X105076647Y-114380311D01*
X105025577Y-114427995D01*
X104956836Y-114440498D01*
X104892246Y-114413852D01*
X104870754Y-114391642D01*
X104854505Y-114370000D01*
X104548352Y-114370000D01*
X104485233Y-114352732D01*
X104476395Y-114347506D01*
X104476393Y-114347505D01*
X104476389Y-114347503D01*
X104320997Y-114302357D01*
X104320991Y-114302356D01*
X104284697Y-114299500D01*
X104284690Y-114299500D01*
X103815310Y-114299500D01*
X103815302Y-114299500D01*
X103779008Y-114302356D01*
X103779002Y-114302357D01*
X103623610Y-114347503D01*
X103623605Y-114347506D01*
X103614766Y-114352732D01*
X103551648Y-114370000D01*
X103245495Y-114370000D01*
X103238023Y-114379952D01*
X103234435Y-114382629D01*
X103232575Y-114386703D01*
X103206687Y-114403339D01*
X103182029Y-114421744D01*
X103176505Y-114422736D01*
X103173797Y-114424477D01*
X103138862Y-114429500D01*
X103004935Y-114429500D01*
X102937896Y-114409815D01*
X102936090Y-114408633D01*
X102879179Y-114370606D01*
X102879172Y-114370602D01*
X102733501Y-114310264D01*
X102733489Y-114310261D01*
X102578845Y-114279500D01*
X102578842Y-114279500D01*
X102421158Y-114279500D01*
X102421155Y-114279500D01*
X102266510Y-114310261D01*
X102266498Y-114310264D01*
X102120827Y-114370602D01*
X102120814Y-114370609D01*
X101989711Y-114458210D01*
X101989707Y-114458213D01*
X101878213Y-114569707D01*
X101878210Y-114569711D01*
X101790609Y-114700814D01*
X101790602Y-114700827D01*
X101730264Y-114846498D01*
X101730261Y-114846510D01*
X101699500Y-115001153D01*
X101699500Y-115158846D01*
X101730261Y-115313489D01*
X101730264Y-115313501D01*
X101790602Y-115459172D01*
X101790609Y-115459185D01*
X101878210Y-115590288D01*
X101878213Y-115590292D01*
X101989707Y-115701786D01*
X101989711Y-115701789D01*
X102120814Y-115789390D01*
X102120827Y-115789397D01*
X102265185Y-115849191D01*
X102305414Y-115876071D01*
X102610617Y-116181274D01*
X102644102Y-116242597D01*
X102639118Y-116312289D01*
X102598934Y-116366936D01*
X102594619Y-116370282D01*
X102480285Y-116484616D01*
X102480278Y-116484625D01*
X102397968Y-116623804D01*
X102397966Y-116623809D01*
X102352855Y-116779081D01*
X102352854Y-116779087D01*
X102351209Y-116799999D01*
X102351210Y-116800000D01*
X103006000Y-116800000D01*
X103073039Y-116819685D01*
X103118794Y-116872489D01*
X103130000Y-116924000D01*
X103130000Y-117050000D01*
X103185500Y-117050000D01*
X103252539Y-117069685D01*
X103298294Y-117122489D01*
X103309500Y-117174000D01*
X103309500Y-117284697D01*
X103312356Y-117320991D01*
X103312357Y-117320997D01*
X103357503Y-117476389D01*
X103357505Y-117476393D01*
X103357506Y-117476395D01*
X103362732Y-117485233D01*
X103367082Y-117501132D01*
X103374977Y-117513417D01*
X103380000Y-117548352D01*
X103380000Y-117717505D01*
X103375076Y-117752100D01*
X103342335Y-117864791D01*
X103342334Y-117864797D01*
X103339500Y-117900811D01*
X103339500Y-117900819D01*
X103339500Y-118103995D01*
X103339501Y-118150000D01*
X103339501Y-118399193D01*
X103342335Y-118435204D01*
X103385076Y-118582321D01*
X103390000Y-118616916D01*
X103390000Y-118751645D01*
X103372734Y-118814763D01*
X103367507Y-118823600D01*
X103367504Y-118823608D01*
X103322357Y-118979002D01*
X103322356Y-118979008D01*
X103319500Y-119015302D01*
X103319500Y-119126000D01*
X103299815Y-119193039D01*
X103247011Y-119238794D01*
X103195500Y-119250000D01*
X103140000Y-119250000D01*
X103140000Y-119376000D01*
X103120315Y-119443039D01*
X103067511Y-119488794D01*
X103016000Y-119500000D01*
X102361210Y-119500000D01*
X102362854Y-119520910D01*
X102407968Y-119676194D01*
X102417540Y-119692380D01*
X102434721Y-119760105D01*
X102412561Y-119826367D01*
X102358095Y-119870129D01*
X102310807Y-119879500D01*
X101910830Y-119879500D01*
X101910808Y-119879501D01*
X101874794Y-119882335D01*
X101720611Y-119927129D01*
X101720604Y-119927132D01*
X101663119Y-119961128D01*
X101595395Y-119978309D01*
X101536881Y-119961128D01*
X101479395Y-119927132D01*
X101479388Y-119927129D01*
X101325208Y-119882335D01*
X101325202Y-119882334D01*
X101289181Y-119879500D01*
X100890830Y-119879500D01*
X100890808Y-119879501D01*
X100854794Y-119882335D01*
X100700611Y-119927129D01*
X100700605Y-119927131D01*
X100687621Y-119934811D01*
X100619897Y-119951994D01*
X100553634Y-119929834D01*
X100509871Y-119875368D01*
X100500500Y-119828079D01*
X100500500Y-118400000D01*
X102320069Y-118400000D01*
X102322832Y-118435122D01*
X102322833Y-118435128D01*
X102367592Y-118589188D01*
X102367593Y-118589191D01*
X102419826Y-118677512D01*
X102437009Y-118745236D01*
X102419827Y-118803753D01*
X102407967Y-118823806D01*
X102407966Y-118823809D01*
X102362855Y-118979081D01*
X102362854Y-118979087D01*
X102361209Y-118999999D01*
X102361210Y-119000000D01*
X102840000Y-119000000D01*
X102840000Y-118400000D01*
X102320069Y-118400000D01*
X100500500Y-118400000D01*
X100500500Y-117900000D01*
X102320069Y-117900000D01*
X102840000Y-117900000D01*
X102840000Y-117300000D01*
X102351210Y-117300000D01*
X102352854Y-117320910D01*
X102397968Y-117476195D01*
X102397969Y-117476197D01*
X102414825Y-117504698D01*
X102432009Y-117572421D01*
X102414826Y-117630940D01*
X102367595Y-117710804D01*
X102367592Y-117710811D01*
X102322833Y-117864871D01*
X102322832Y-117864877D01*
X102320069Y-117900000D01*
X100500500Y-117900000D01*
X100500500Y-113870000D01*
X103245496Y-113870000D01*
X103800000Y-113870000D01*
X104300000Y-113870000D01*
X104854504Y-113870000D01*
X104812031Y-113723804D01*
X104729721Y-113584625D01*
X104729714Y-113584616D01*
X104615383Y-113470285D01*
X104615374Y-113470278D01*
X104476195Y-113387968D01*
X104476190Y-113387966D01*
X104320918Y-113342855D01*
X104320912Y-113342854D01*
X104300000Y-113341209D01*
X104300000Y-113870000D01*
X103800000Y-113870000D01*
X103800000Y-113341210D01*
X103799999Y-113341209D01*
X103779087Y-113342854D01*
X103779081Y-113342855D01*
X103623809Y-113387966D01*
X103623804Y-113387968D01*
X103484625Y-113470278D01*
X103484616Y-113470285D01*
X103370285Y-113584616D01*
X103370278Y-113584625D01*
X103287968Y-113723804D01*
X103245496Y-113870000D01*
X100500500Y-113870000D01*
X100500500Y-111724000D01*
X100520185Y-111656961D01*
X100572989Y-111611206D01*
X100624500Y-111600000D01*
X102812500Y-111600000D01*
X103312500Y-111600000D01*
X105650328Y-111600000D01*
X105650344Y-111599999D01*
X105709872Y-111593598D01*
X105709879Y-111593596D01*
X105844586Y-111543354D01*
X105844593Y-111543350D01*
X105959687Y-111457190D01*
X105959690Y-111457187D01*
X106045850Y-111342093D01*
X106045855Y-111342084D01*
X106056156Y-111314466D01*
X106098026Y-111258532D01*
X106163490Y-111234114D01*
X106231763Y-111248965D01*
X106260019Y-111270117D01*
X106374616Y-111384714D01*
X106374625Y-111384721D01*
X106513804Y-111467031D01*
X106660000Y-111509504D01*
X106660000Y-109900494D01*
X106659998Y-109900493D01*
X106513809Y-109942965D01*
X106513806Y-109942967D01*
X106374625Y-110025278D01*
X106374616Y-110025285D01*
X106314181Y-110085721D01*
X106252858Y-110119206D01*
X106183166Y-110114222D01*
X106127233Y-110072350D01*
X106102816Y-110006886D01*
X106102500Y-109998040D01*
X106102500Y-109552172D01*
X106102499Y-109552155D01*
X106096098Y-109492627D01*
X106096096Y-109492620D01*
X106045854Y-109357913D01*
X106045850Y-109357906D01*
X105959690Y-109242812D01*
X105959687Y-109242809D01*
X105844593Y-109156649D01*
X105844586Y-109156645D01*
X105709879Y-109106403D01*
X105709872Y-109106401D01*
X105650344Y-109100000D01*
X103312500Y-109100000D01*
X103312500Y-111600000D01*
X102812500Y-111600000D01*
X102812500Y-109100000D01*
X100624500Y-109100000D01*
X100557461Y-109080315D01*
X100511706Y-109027511D01*
X100500500Y-108976000D01*
X100500500Y-107474499D01*
X100520185Y-107407460D01*
X100572989Y-107361705D01*
X100624500Y-107350499D01*
X105650371Y-107350499D01*
X105650372Y-107350499D01*
X105709983Y-107344091D01*
X105844831Y-107293796D01*
X105960046Y-107207546D01*
X106046296Y-107092331D01*
X106096591Y-106957483D01*
X106103000Y-106897873D01*
X106103000Y-106844500D01*
X106122685Y-106777461D01*
X106175489Y-106731706D01*
X106227000Y-106720500D01*
X107957541Y-106720500D01*
X108024580Y-106740185D01*
G37*
%TD.AperFunction*%
%TA.AperFunction,Conductor*%
G36*
X114114766Y-116727267D02*
G01*
X114123605Y-116732494D01*
X114123608Y-116732494D01*
X114123610Y-116732496D01*
X114279002Y-116777642D01*
X114279005Y-116777642D01*
X114279007Y-116777643D01*
X114315310Y-116780500D01*
X114315318Y-116780500D01*
X114426000Y-116780500D01*
X114493039Y-116800185D01*
X114538794Y-116852989D01*
X114550000Y-116904500D01*
X114550000Y-116960000D01*
X114676000Y-116960000D01*
X114743039Y-116979685D01*
X114788794Y-117032489D01*
X114800000Y-117084000D01*
X114800000Y-117738789D01*
X114820910Y-117737145D01*
X114976195Y-117692031D01*
X115115374Y-117609721D01*
X115121544Y-117604936D01*
X115122741Y-117606479D01*
X115174971Y-117577951D01*
X115244663Y-117582927D01*
X115300602Y-117624791D01*
X115319051Y-117660109D01*
X115341624Y-117728229D01*
X115365116Y-117799124D01*
X115365186Y-117799333D01*
X115365187Y-117799336D01*
X115395962Y-117849230D01*
X115457094Y-117948342D01*
X115457289Y-117948657D01*
X115551304Y-118042672D01*
X115584789Y-118103995D01*
X115579805Y-118173687D01*
X115551305Y-118218034D01*
X115457682Y-118311657D01*
X115365643Y-118460875D01*
X115365641Y-118460880D01*
X115319447Y-118600285D01*
X115279674Y-118657730D01*
X115215158Y-118684553D01*
X115146382Y-118672238D01*
X115121898Y-118654606D01*
X115121544Y-118655064D01*
X115115374Y-118650278D01*
X114976195Y-118567968D01*
X114976190Y-118567966D01*
X114820918Y-118522855D01*
X114820912Y-118522854D01*
X114800000Y-118521209D01*
X114800000Y-119050000D01*
X115170000Y-119050000D01*
X115203681Y-119016319D01*
X115265004Y-118982834D01*
X115291362Y-118980000D01*
X116276000Y-118980000D01*
X116343039Y-118999685D01*
X116388794Y-119052489D01*
X116400000Y-119104000D01*
X116400000Y-119356000D01*
X116380315Y-119423039D01*
X116327511Y-119468794D01*
X116276000Y-119480000D01*
X115490000Y-119480000D01*
X115456319Y-119513681D01*
X115394996Y-119547166D01*
X115368638Y-119550000D01*
X115048352Y-119550000D01*
X114985233Y-119532732D01*
X114976395Y-119527506D01*
X114976393Y-119527505D01*
X114976389Y-119527503D01*
X114820997Y-119482357D01*
X114820991Y-119482356D01*
X114784697Y-119479500D01*
X114784690Y-119479500D01*
X114315310Y-119479500D01*
X114315302Y-119479500D01*
X114279008Y-119482356D01*
X114279002Y-119482357D01*
X114123610Y-119527503D01*
X114123605Y-119527506D01*
X114114766Y-119532732D01*
X114051648Y-119550000D01*
X113745495Y-119550000D01*
X113731037Y-119569255D01*
X113731033Y-119570774D01*
X113716776Y-119592819D01*
X113705869Y-119616703D01*
X113698103Y-119621693D01*
X113693091Y-119629444D01*
X113669178Y-119640282D01*
X113647091Y-119654477D01*
X113633572Y-119656420D01*
X113629453Y-119658288D01*
X113612156Y-119659500D01*
X113455714Y-119659500D01*
X113388675Y-119639815D01*
X113342920Y-119587011D01*
X113332976Y-119517853D01*
X113334097Y-119511309D01*
X113350499Y-119428846D01*
X113350500Y-119428844D01*
X113350500Y-119271155D01*
X113350499Y-119271153D01*
X113319738Y-119116506D01*
X113319736Y-119116501D01*
X113292191Y-119050000D01*
X113745496Y-119050000D01*
X114300000Y-119050000D01*
X114300000Y-118521210D01*
X114299999Y-118521209D01*
X114279087Y-118522854D01*
X114279081Y-118522855D01*
X114123809Y-118567966D01*
X114123804Y-118567968D01*
X113984625Y-118650278D01*
X113984616Y-118650285D01*
X113870285Y-118764616D01*
X113870278Y-118764625D01*
X113787968Y-118903804D01*
X113745496Y-119050000D01*
X113292191Y-119050000D01*
X113259397Y-118970827D01*
X113259390Y-118970814D01*
X113181702Y-118854546D01*
X113160824Y-118787868D01*
X113179309Y-118720488D01*
X113197124Y-118697973D01*
X113229714Y-118665383D01*
X113229721Y-118665374D01*
X113312031Y-118526195D01*
X113312033Y-118526190D01*
X113357144Y-118370918D01*
X113357145Y-118370912D01*
X113358790Y-118350000D01*
X112704000Y-118350000D01*
X112636961Y-118330315D01*
X112591206Y-118277511D01*
X112580000Y-118226000D01*
X112580000Y-117974000D01*
X112599685Y-117906961D01*
X112652489Y-117861206D01*
X112704000Y-117850000D01*
X113358790Y-117850000D01*
X113357145Y-117829089D01*
X113312031Y-117673804D01*
X113229721Y-117534625D01*
X113229714Y-117534616D01*
X113109862Y-117414764D01*
X113112197Y-117412428D01*
X113111099Y-117410906D01*
X113097553Y-117400699D01*
X113091075Y-117383162D01*
X113080136Y-117368005D01*
X113079221Y-117351068D01*
X113073344Y-117335157D01*
X113077376Y-117316902D01*
X113076368Y-117298237D01*
X113084846Y-117283083D01*
X113088414Y-117266932D01*
X113104095Y-117248680D01*
X113109654Y-117238745D01*
X113116843Y-117231600D01*
X113118716Y-117230520D01*
X113139236Y-117210000D01*
X113745496Y-117210000D01*
X113787968Y-117356195D01*
X113870278Y-117495374D01*
X113870285Y-117495383D01*
X113984616Y-117609714D01*
X113984625Y-117609721D01*
X114123804Y-117692031D01*
X114279089Y-117737145D01*
X114300000Y-117738789D01*
X114300000Y-117210000D01*
X113745496Y-117210000D01*
X113139236Y-117210000D01*
X113230520Y-117118716D01*
X113230521Y-117118713D01*
X113602916Y-116746319D01*
X113664239Y-116712834D01*
X113690597Y-116710000D01*
X114051648Y-116710000D01*
X114114766Y-116727267D01*
G37*
%TD.AperFunction*%
%TA.AperFunction,Conductor*%
G36*
X107223197Y-117512336D02*
G01*
X107231925Y-117511392D01*
X107243139Y-117513948D01*
X107250442Y-117515973D01*
X107250528Y-117516009D01*
X107250608Y-117516019D01*
X107252312Y-117516492D01*
X107255613Y-117518544D01*
X107257539Y-117518913D01*
X107258122Y-117519155D01*
X107257809Y-117519908D01*
X107259485Y-117520950D01*
X107306854Y-117548301D01*
X107637577Y-117879024D01*
X107637578Y-117879024D01*
X107681175Y-117773775D01*
X107681179Y-117773760D01*
X107710253Y-117627596D01*
X107742637Y-117565685D01*
X107803353Y-117531111D01*
X107848053Y-117528848D01*
X107860599Y-117530500D01*
X108059400Y-117530499D01*
X108071943Y-117528847D01*
X108140975Y-117539611D01*
X108193232Y-117585989D01*
X108209746Y-117627595D01*
X108238820Y-117773759D01*
X108238822Y-117773767D01*
X108282421Y-117879024D01*
X108613144Y-117548301D01*
X108626651Y-117540423D01*
X108635367Y-117530667D01*
X108661884Y-117519174D01*
X108661877Y-117519155D01*
X108662460Y-117518913D01*
X108662496Y-117518909D01*
X108666573Y-117517141D01*
X108667690Y-117516491D01*
X108669388Y-117516019D01*
X108669472Y-117516009D01*
X108669560Y-117515972D01*
X108676864Y-117513947D01*
X108677149Y-117513951D01*
X108677322Y-117513905D01*
X108677335Y-117513954D01*
X108704474Y-117514363D01*
X108731924Y-117511392D01*
X108742515Y-117514498D01*
X108742674Y-117513905D01*
X108750524Y-117516008D01*
X108750526Y-117516008D01*
X108750528Y-117516009D01*
X108860599Y-117530500D01*
X108860619Y-117530499D01*
X108860900Y-117530519D01*
X108860967Y-117530500D01*
X108861068Y-117530530D01*
X108861874Y-117530582D01*
X108860000Y-117535109D01*
X108860000Y-117574891D01*
X108875224Y-117611645D01*
X108903355Y-117639776D01*
X108940109Y-117655000D01*
X108979891Y-117655000D01*
X108984500Y-117653090D01*
X108984501Y-117654400D01*
X108998991Y-117764472D01*
X109002172Y-117772152D01*
X109004364Y-117787815D01*
X109001474Y-117807392D01*
X109003581Y-117827073D01*
X109000513Y-117837534D01*
X109001092Y-117837689D01*
X108998790Y-117846277D01*
X108997084Y-117849230D01*
X108996184Y-117852302D01*
X108995943Y-117852886D01*
X108995160Y-117852563D01*
X108994684Y-117853386D01*
X108994161Y-117856936D01*
X108989655Y-117862095D01*
X108966699Y-117901853D01*
X108635974Y-118232577D01*
X108741232Y-118276177D01*
X108741240Y-118276179D01*
X108887403Y-118305253D01*
X108949314Y-118337637D01*
X108983888Y-118398353D01*
X108986151Y-118443053D01*
X108984500Y-118455595D01*
X108984500Y-118654403D01*
X108986152Y-118666946D01*
X108975385Y-118735981D01*
X108929004Y-118788236D01*
X108887404Y-118804746D01*
X108741240Y-118833820D01*
X108741228Y-118833823D01*
X108635974Y-118877420D01*
X108635974Y-118877421D01*
X108966699Y-119208145D01*
X108974577Y-119221656D01*
X108984340Y-119230379D01*
X108995928Y-119257120D01*
X108995943Y-119257114D01*
X108996184Y-119257698D01*
X108996185Y-119257713D01*
X108997872Y-119261606D01*
X108998512Y-119262703D01*
X108998980Y-119264393D01*
X108998991Y-119264472D01*
X108999025Y-119264554D01*
X109001055Y-119271877D01*
X109001050Y-119272156D01*
X109001094Y-119272318D01*
X109001048Y-119272330D01*
X109000633Y-119299603D01*
X109003562Y-119327177D01*
X109000523Y-119337523D01*
X109001095Y-119337677D01*
X108998990Y-119345529D01*
X108984501Y-119455589D01*
X108984416Y-119456874D01*
X108979891Y-119455000D01*
X108940109Y-119455000D01*
X108903355Y-119470224D01*
X108875224Y-119498355D01*
X108860000Y-119535109D01*
X108860000Y-119574891D01*
X108861874Y-119579416D01*
X108860600Y-119579500D01*
X108750531Y-119593989D01*
X108742678Y-119596094D01*
X108741802Y-119592824D01*
X108734149Y-119593639D01*
X108711879Y-119600547D01*
X108696607Y-119597635D01*
X108687853Y-119598567D01*
X108676872Y-119596054D01*
X108669556Y-119594025D01*
X108669472Y-119593991D01*
X108669392Y-119593980D01*
X108667699Y-119593511D01*
X108664476Y-119591508D01*
X108662628Y-119591156D01*
X108662045Y-119590915D01*
X108662346Y-119590184D01*
X108660591Y-119589093D01*
X108613145Y-119561699D01*
X108282421Y-119230974D01*
X108282420Y-119230974D01*
X108238823Y-119336228D01*
X108238820Y-119336238D01*
X108209746Y-119482404D01*
X108177361Y-119544315D01*
X108116645Y-119578889D01*
X108071945Y-119581151D01*
X108059403Y-119579500D01*
X107860603Y-119579500D01*
X107850771Y-119580794D01*
X107848051Y-119581152D01*
X107779017Y-119570385D01*
X107726762Y-119524003D01*
X107710253Y-119482404D01*
X107681179Y-119336240D01*
X107681177Y-119336232D01*
X107637577Y-119230974D01*
X107306853Y-119561699D01*
X107293343Y-119569577D01*
X107284625Y-119579336D01*
X107257879Y-119590928D01*
X107257886Y-119590943D01*
X107257302Y-119591184D01*
X107257285Y-119591185D01*
X107253399Y-119592870D01*
X107252302Y-119593510D01*
X107250602Y-119593981D01*
X107250528Y-119593991D01*
X107250448Y-119594023D01*
X107243130Y-119596053D01*
X107242850Y-119596048D01*
X107242689Y-119596092D01*
X107242676Y-119596046D01*
X107215401Y-119595633D01*
X107187823Y-119598562D01*
X107177476Y-119595523D01*
X107177323Y-119596095D01*
X107169470Y-119593990D01*
X107059410Y-119579501D01*
X107059407Y-119579500D01*
X107059401Y-119579500D01*
X107059395Y-119579500D01*
X107058125Y-119579416D01*
X107060000Y-119574891D01*
X107060000Y-119535109D01*
X107044776Y-119498355D01*
X107016645Y-119470224D01*
X106979891Y-119455000D01*
X106940109Y-119455000D01*
X106935582Y-119456874D01*
X106935499Y-119455600D01*
X106921011Y-119345536D01*
X106918906Y-119337682D01*
X106920798Y-119337174D01*
X106914462Y-119278311D01*
X106945728Y-119215828D01*
X106948814Y-119212630D01*
X107284024Y-118877421D01*
X107178767Y-118833822D01*
X107178759Y-118833820D01*
X107032596Y-118804746D01*
X106970685Y-118772361D01*
X106936111Y-118711645D01*
X106933849Y-118666938D01*
X106934055Y-118665374D01*
X106935500Y-118654401D01*
X106935499Y-118455600D01*
X106933847Y-118443055D01*
X106944611Y-118374023D01*
X106990989Y-118321766D01*
X107032596Y-118305252D01*
X107178768Y-118276177D01*
X107178775Y-118276175D01*
X107284024Y-118232578D01*
X107284024Y-118232577D01*
X106953301Y-117901855D01*
X106948347Y-117894367D01*
X106943722Y-117891093D01*
X106935970Y-117875659D01*
X106925991Y-117860575D01*
X106921536Y-117849536D01*
X106921009Y-117845528D01*
X106878801Y-117743630D01*
X106878611Y-117743159D01*
X106875250Y-117708954D01*
X106871572Y-117674743D01*
X106871836Y-117674213D01*
X106871779Y-117673625D01*
X106887447Y-117643025D01*
X106893837Y-117630258D01*
X106903355Y-117639776D01*
X106940109Y-117655000D01*
X106979891Y-117655000D01*
X107016645Y-117639776D01*
X107044776Y-117611645D01*
X107060000Y-117574891D01*
X107060000Y-117535109D01*
X107058090Y-117530499D01*
X107059400Y-117530499D01*
X107059402Y-117530499D01*
X107088382Y-117526683D01*
X107169472Y-117516009D01*
X107169475Y-117516007D01*
X107177326Y-117513905D01*
X107178210Y-117517207D01*
X107185751Y-117516391D01*
X107208132Y-117509452D01*
X107223197Y-117512336D01*
G37*
%TD.AperFunction*%
%TA.AperFunction,Conductor*%
G36*
X106091942Y-116670185D02*
G01*
X106112584Y-116686819D01*
X106163951Y-116738186D01*
X106197436Y-116799509D01*
X106192452Y-116869201D01*
X106163952Y-116913547D01*
X106147500Y-116929999D01*
X106147500Y-117305500D01*
X106144949Y-117314185D01*
X106146238Y-117323147D01*
X106135259Y-117347187D01*
X106127815Y-117372539D01*
X106120974Y-117378466D01*
X106117213Y-117386703D01*
X106094978Y-117400992D01*
X106075011Y-117418294D01*
X106064496Y-117420581D01*
X106058435Y-117424477D01*
X106023500Y-117429500D01*
X106021500Y-117429500D01*
X105954461Y-117409815D01*
X105908706Y-117357011D01*
X105897500Y-117305500D01*
X105897500Y-116930000D01*
X105635622Y-116930000D01*
X105525658Y-116944478D01*
X105525657Y-116944478D01*
X105388824Y-117001156D01*
X105271320Y-117091320D01*
X105181156Y-117208824D01*
X105124478Y-117345657D01*
X105124477Y-117345660D01*
X105124343Y-117346684D01*
X105124032Y-117347385D01*
X105124142Y-117348147D01*
X105123342Y-117349898D01*
X105122375Y-117353508D01*
X105121767Y-117353345D01*
X105109908Y-117379314D01*
X105096077Y-117410581D01*
X105095436Y-117411003D01*
X105095117Y-117411703D01*
X105066315Y-117430212D01*
X105037753Y-117449053D01*
X105036769Y-117449200D01*
X105036339Y-117449477D01*
X105001404Y-117454500D01*
X104991279Y-117454500D01*
X104924240Y-117434815D01*
X104878485Y-117382011D01*
X104867661Y-117320773D01*
X104870499Y-117284700D01*
X104870500Y-117284682D01*
X104870500Y-116815317D01*
X104870499Y-116815302D01*
X104868054Y-116784228D01*
X104882419Y-116715851D01*
X104931470Y-116666094D01*
X104991672Y-116650500D01*
X106024903Y-116650500D01*
X106091942Y-116670185D01*
G37*
%TD.AperFunction*%
%TD*%
M02*
