%TF.GenerationSoftware,KiCad,Pcbnew,9.0.6*%
%TF.CreationDate,2026-01-14T21:48:58+07:00*%
%TF.ProjectId,Sensor,53656e73-6f72-42e6-9b69-6361645f7063,rev?*%
%TF.SameCoordinates,Original*%
%TF.FileFunction,Copper,L2,Bot*%
%TF.FilePolarity,Positive*%
%FSLAX46Y46*%
G04 Gerber Fmt 4.6, Leading zero omitted, Abs format (unit mm)*
G04 Created by KiCad (PCBNEW 9.0.6) date 2026-01-14 21:48:58*
%MOMM*%
%LPD*%
G01*
G04 APERTURE LIST*
%TA.AperFunction,SMDPad,CuDef*%
%ADD10R,5.080000X1.500000*%
%TD*%
%TA.AperFunction,ComponentPad*%
%ADD11R,1.700000X1.700000*%
%TD*%
%TA.AperFunction,ComponentPad*%
%ADD12C,1.700000*%
%TD*%
%TA.AperFunction,HeatsinkPad*%
%ADD13C,0.500000*%
%TD*%
%TA.AperFunction,HeatsinkPad*%
%ADD14R,2.500000X2.500000*%
%TD*%
%TA.AperFunction,ViaPad*%
%ADD15C,0.600000*%
%TD*%
%TA.AperFunction,Conductor*%
%ADD16C,0.200000*%
%TD*%
%TA.AperFunction,Conductor*%
%ADD17C,0.300000*%
%TD*%
%TA.AperFunction,Conductor*%
%ADD18C,0.400000*%
%TD*%
G04 APERTURE END LIST*
D10*
%TO.P,J31,2,Ext*%
%TO.N,GND*%
X103062500Y-110350000D03*
X103062500Y-101850000D03*
%TD*%
D11*
%TO.P,J53,1,Pin_1*%
%TO.N,VCC*%
X117200000Y-134600000D03*
D12*
%TO.P,J53,2,Pin_2*%
%TO.N,GND*%
X117200000Y-137140000D03*
%TO.P,J53,3,Pin_3*%
%TO.N,/TX*%
X117200000Y-139680000D03*
%TO.P,J53,4,Pin_4*%
%TO.N,/RX*%
X117200000Y-142220000D03*
%TO.P,J53,5,Pin_5*%
%TO.N,/SWDIO*%
X117200000Y-144760000D03*
%TO.P,J53,6,Pin_6*%
%TO.N,/SWCLK*%
X117200000Y-147300000D03*
%TD*%
D13*
%TO.P,U31,21,EXP*%
%TO.N,GND*%
X106960000Y-119555000D03*
X108960000Y-119555000D03*
D14*
X107960000Y-118555000D03*
D13*
X106960000Y-117555000D03*
X108960000Y-117555000D03*
%TD*%
D11*
%TO.P,J52,1,Pin_1*%
%TO.N,VCC*%
X102715000Y-139690000D03*
D12*
%TO.P,J52,2,Pin_2*%
%TO.N,GND*%
X102715000Y-142230000D03*
%TO.P,J52,3,Pin_3*%
%TO.N,/SCL*%
X102715000Y-144770000D03*
%TO.P,J52,4,Pin_4*%
%TO.N,/SDA*%
X102715000Y-147310000D03*
%TD*%
D15*
%TO.N,GND*%
X114850000Y-137500000D03*
X114250000Y-136700000D03*
X112200000Y-148500000D03*
X112200000Y-145950000D03*
X107900000Y-148350000D03*
X108200000Y-146000000D03*
X113950000Y-103900000D03*
X111350000Y-106300000D03*
X117550000Y-105800000D03*
X118400000Y-114900000D03*
X116900000Y-113750000D03*
X114300000Y-113650000D03*
X107250000Y-130050000D03*
X105700000Y-129250000D03*
X101600000Y-129150000D03*
X101400000Y-131150000D03*
X110100000Y-148450000D03*
X109950000Y-143500000D03*
X110150000Y-146050000D03*
X114200000Y-147750000D03*
X114250000Y-146450000D03*
%TO.N,/SWCLK*%
X105600000Y-133650000D03*
X110750000Y-138750000D03*
%TO.N,/SWDIO*%
X106200000Y-132750000D03*
X111950000Y-138700000D03*
%TO.N,/RX*%
X105400000Y-131850000D03*
X113250000Y-139450000D03*
%TO.N,/TX*%
X105900000Y-130800000D03*
X114000000Y-138900000D03*
%TO.N,/SW_BOOT*%
X114000000Y-128300000D03*
X109000000Y-129100000D03*
%TO.N,GND*%
X116300000Y-130400000D03*
X108600000Y-103700000D03*
X105000000Y-119600000D03*
X113400000Y-111800000D03*
X115200000Y-106700000D03*
X112600000Y-102700000D03*
X117300000Y-103400000D03*
X105000000Y-117300000D03*
X117900000Y-131100000D03*
X115900000Y-104400000D03*
X102850000Y-113150000D03*
X110700000Y-102500000D03*
X117100000Y-112000000D03*
X105200000Y-112600000D03*
X112300000Y-108300000D03*
X101300000Y-133100000D03*
X117400000Y-109900000D03*
X109800000Y-130600000D03*
X102250000Y-118100000D03*
X109800000Y-132900000D03*
X113500000Y-118100000D03*
X111450000Y-124600000D03*
X111500000Y-111800000D03*
X116900000Y-108200000D03*
X113600000Y-106600000D03*
X111500000Y-110100000D03*
X105250000Y-113700000D03*
X114800000Y-102200000D03*
X115350000Y-121850000D03*
X102000000Y-112600000D03*
X113100000Y-110100000D03*
X115600000Y-111900000D03*
X109800000Y-131800000D03*
X105300000Y-120400000D03*
X103800000Y-112600000D03*
X111950000Y-125050000D03*
X102250000Y-119200000D03*
X114550000Y-118230000D03*
X115600000Y-110100000D03*
X102250000Y-117100000D03*
X112200000Y-104800000D03*
X113900000Y-108200000D03*
X113600000Y-133300000D03*
X107300000Y-129200000D03*
X118200057Y-121712004D03*
X116700000Y-121800000D03*
X102000000Y-113900000D03*
%TO.N,/SW_RESET*%
X113300000Y-130387500D03*
X113900000Y-125700000D03*
%TO.N,VCC*%
X112550000Y-119350000D03*
X109150000Y-138250000D03*
X102950000Y-126050000D03*
X109600000Y-122500000D03*
X111350000Y-116450000D03*
X104100000Y-120250000D03*
X102500000Y-115080000D03*
%TD*%
D16*
%TO.N,/SWCLK*%
X105650000Y-133650000D02*
X105600000Y-133650000D01*
X110750000Y-138750000D02*
X105650000Y-133650000D01*
%TO.N,/SWDIO*%
X111950000Y-138500000D02*
X106200000Y-132750000D01*
X111950000Y-138700000D02*
X111950000Y-138500000D01*
%TO.N,/RX*%
X106382900Y-131850000D02*
X105400000Y-131850000D01*
X113250000Y-138717100D02*
X106382900Y-131850000D01*
X113250000Y-139450000D02*
X113250000Y-138717100D01*
%TO.N,/TX*%
X114000000Y-138900000D02*
X105900000Y-130800000D01*
%TO.N,/SW_BOOT*%
X109800000Y-128300000D02*
X109000000Y-129100000D01*
X114000000Y-128300000D02*
X109800000Y-128300000D01*
%TO.N,/SW_RESET*%
X114601000Y-129086500D02*
X113300000Y-130387500D01*
X114601000Y-126401000D02*
X114601000Y-129086500D01*
X113900000Y-125700000D02*
X114601000Y-126401000D01*
D17*
%TO.N,VCC*%
X112550000Y-119350000D02*
X112550000Y-119550000D01*
D18*
X102500000Y-115080000D02*
X103121364Y-115080000D01*
D17*
X112550000Y-119550000D02*
X109600000Y-122500000D01*
D18*
X104100000Y-120250000D02*
X104100000Y-124900000D01*
X104100000Y-116058636D02*
X104100000Y-120250000D01*
X105300000Y-138250000D02*
X109150000Y-138250000D01*
X102715000Y-139690000D02*
X103860000Y-139690000D01*
X103860000Y-139690000D02*
X105300000Y-138250000D01*
D16*
X117200000Y-134600000D02*
X117200000Y-134649943D01*
D18*
X104100000Y-124900000D02*
X102950000Y-126050000D01*
X106500000Y-122500000D02*
X104100000Y-124900000D01*
X102950000Y-126050000D02*
X102715000Y-126285000D01*
D17*
X111350000Y-116450000D02*
X112550000Y-117650000D01*
D18*
X103121364Y-115080000D02*
X104100000Y-116058636D01*
X102715000Y-126285000D02*
X102715000Y-139690000D01*
D17*
X112550000Y-117650000D02*
X112550000Y-119350000D01*
D18*
X109600000Y-122500000D02*
X106500000Y-122500000D01*
%TD*%
%TA.AperFunction,Conductor*%
%TO.N,GND*%
G36*
X119442539Y-100520185D02*
G01*
X119488294Y-100572989D01*
X119499500Y-100624500D01*
X119499500Y-149375500D01*
X119479815Y-149442539D01*
X119427011Y-149488294D01*
X119375500Y-149499500D01*
X100624500Y-149499500D01*
X100557461Y-149479815D01*
X100511706Y-149427011D01*
X100500500Y-149375500D01*
X100500500Y-138792135D01*
X101364500Y-138792135D01*
X101364500Y-140587870D01*
X101364501Y-140587876D01*
X101370908Y-140647483D01*
X101421202Y-140782328D01*
X101421206Y-140782335D01*
X101507452Y-140897544D01*
X101507455Y-140897547D01*
X101622664Y-140983793D01*
X101622671Y-140983797D01*
X101667618Y-141000561D01*
X101757517Y-141034091D01*
X101817127Y-141040500D01*
X101827685Y-141040499D01*
X101894723Y-141060179D01*
X101915372Y-141076818D01*
X102585591Y-141747037D01*
X102522007Y-141764075D01*
X102407993Y-141829901D01*
X102314901Y-141922993D01*
X102249075Y-142037007D01*
X102232037Y-142100591D01*
X101599728Y-141468282D01*
X101599727Y-141468282D01*
X101560380Y-141522439D01*
X101463904Y-141711782D01*
X101398242Y-141913869D01*
X101398242Y-141913872D01*
X101365000Y-142123753D01*
X101365000Y-142336246D01*
X101398242Y-142546127D01*
X101398242Y-142546130D01*
X101463904Y-142748217D01*
X101560375Y-142937550D01*
X101599728Y-142991716D01*
X102232037Y-142359408D01*
X102249075Y-142422993D01*
X102314901Y-142537007D01*
X102407993Y-142630099D01*
X102522007Y-142695925D01*
X102585590Y-142712962D01*
X101953282Y-143345269D01*
X101953282Y-143345270D01*
X102007452Y-143384626D01*
X102007451Y-143384626D01*
X102016495Y-143389234D01*
X102067292Y-143437208D01*
X102084087Y-143505029D01*
X102061550Y-143571164D01*
X102016499Y-143610202D01*
X102007182Y-143614949D01*
X101835213Y-143739890D01*
X101684890Y-143890213D01*
X101559951Y-144062179D01*
X101463444Y-144251585D01*
X101397753Y-144453760D01*
X101364500Y-144663713D01*
X101364500Y-144876286D01*
X101396169Y-145076239D01*
X101397754Y-145086243D01*
X101460194Y-145278414D01*
X101463444Y-145288414D01*
X101559951Y-145477820D01*
X101684890Y-145649786D01*
X101835213Y-145800109D01*
X102007182Y-145925050D01*
X102015946Y-145929516D01*
X102066742Y-145977491D01*
X102083536Y-146045312D01*
X102060998Y-146111447D01*
X102015946Y-146150484D01*
X102007182Y-146154949D01*
X101835213Y-146279890D01*
X101684890Y-146430213D01*
X101559951Y-146602179D01*
X101463444Y-146791585D01*
X101397753Y-146993760D01*
X101364500Y-147203713D01*
X101364500Y-147416286D01*
X101396169Y-147616239D01*
X101397754Y-147626243D01*
X101460194Y-147818414D01*
X101463444Y-147828414D01*
X101559951Y-148017820D01*
X101684890Y-148189786D01*
X101835213Y-148340109D01*
X102007179Y-148465048D01*
X102007181Y-148465049D01*
X102007184Y-148465051D01*
X102196588Y-148561557D01*
X102398757Y-148627246D01*
X102608713Y-148660500D01*
X102608714Y-148660500D01*
X102821286Y-148660500D01*
X102821287Y-148660500D01*
X103031243Y-148627246D01*
X103233412Y-148561557D01*
X103422816Y-148465051D01*
X103444789Y-148449086D01*
X103594786Y-148340109D01*
X103594788Y-148340106D01*
X103594792Y-148340104D01*
X103745104Y-148189792D01*
X103745106Y-148189788D01*
X103745109Y-148189786D01*
X103870048Y-148017820D01*
X103870047Y-148017820D01*
X103870051Y-148017816D01*
X103966557Y-147828412D01*
X104032246Y-147626243D01*
X104065500Y-147416287D01*
X104065500Y-147203713D01*
X104032246Y-146993757D01*
X103966557Y-146791588D01*
X103870051Y-146602184D01*
X103870049Y-146602181D01*
X103870048Y-146602179D01*
X103745109Y-146430213D01*
X103594786Y-146279890D01*
X103422820Y-146154951D01*
X103422115Y-146154591D01*
X103414054Y-146150485D01*
X103363259Y-146102512D01*
X103346463Y-146034692D01*
X103368999Y-145968556D01*
X103414054Y-145929515D01*
X103422816Y-145925051D01*
X103444789Y-145909086D01*
X103594786Y-145800109D01*
X103594788Y-145800106D01*
X103594792Y-145800104D01*
X103745104Y-145649792D01*
X103745106Y-145649788D01*
X103745109Y-145649786D01*
X103870048Y-145477820D01*
X103870047Y-145477820D01*
X103870051Y-145477816D01*
X103966557Y-145288412D01*
X104032246Y-145086243D01*
X104065500Y-144876287D01*
X104065500Y-144663713D01*
X104032246Y-144453757D01*
X103966557Y-144251588D01*
X103870051Y-144062184D01*
X103870049Y-144062181D01*
X103870048Y-144062179D01*
X103745109Y-143890213D01*
X103594786Y-143739890D01*
X103422817Y-143614949D01*
X103413504Y-143610204D01*
X103362707Y-143562230D01*
X103345912Y-143494409D01*
X103368449Y-143428274D01*
X103413507Y-143389232D01*
X103422555Y-143384622D01*
X103476716Y-143345270D01*
X103476717Y-143345270D01*
X102844408Y-142712962D01*
X102907993Y-142695925D01*
X103022007Y-142630099D01*
X103115099Y-142537007D01*
X103180925Y-142422993D01*
X103197962Y-142359409D01*
X103830270Y-142991717D01*
X103830270Y-142991716D01*
X103869622Y-142937554D01*
X103966095Y-142748217D01*
X104031757Y-142546130D01*
X104031757Y-142546127D01*
X104065000Y-142336246D01*
X104065000Y-142123753D01*
X104031757Y-141913872D01*
X104031757Y-141913869D01*
X103966095Y-141711782D01*
X103869624Y-141522449D01*
X103830270Y-141468282D01*
X103830269Y-141468282D01*
X103197962Y-142100590D01*
X103180925Y-142037007D01*
X103115099Y-141922993D01*
X103022007Y-141829901D01*
X102907993Y-141764075D01*
X102844409Y-141747037D01*
X103514627Y-141076818D01*
X103575950Y-141043333D01*
X103602307Y-141040499D01*
X103612872Y-141040499D01*
X103672483Y-141034091D01*
X103807331Y-140983796D01*
X103922546Y-140897546D01*
X104008796Y-140782331D01*
X104059091Y-140647483D01*
X104065500Y-140587873D01*
X104065499Y-140445947D01*
X104085183Y-140378909D01*
X104137987Y-140333154D01*
X104141997Y-140331407D01*
X104191811Y-140310775D01*
X104306543Y-140234114D01*
X105553838Y-138986819D01*
X105615161Y-138953334D01*
X105641519Y-138950500D01*
X108724684Y-138950500D01*
X108772136Y-138959939D01*
X108837031Y-138986819D01*
X108916503Y-139019737D01*
X109071153Y-139050499D01*
X109071156Y-139050500D01*
X109071158Y-139050500D01*
X109228844Y-139050500D01*
X109228845Y-139050499D01*
X109383497Y-139019737D01*
X109529179Y-138959394D01*
X109660289Y-138871789D01*
X109744603Y-138787474D01*
X109805924Y-138753991D01*
X109875616Y-138758975D01*
X109931550Y-138800846D01*
X109953900Y-138850965D01*
X109980261Y-138983491D01*
X109980264Y-138983501D01*
X110040602Y-139129172D01*
X110040609Y-139129185D01*
X110128210Y-139260288D01*
X110128213Y-139260292D01*
X110239707Y-139371786D01*
X110239711Y-139371789D01*
X110370814Y-139459390D01*
X110370827Y-139459397D01*
X110516498Y-139519735D01*
X110516503Y-139519737D01*
X110671153Y-139550499D01*
X110671156Y-139550500D01*
X110671158Y-139550500D01*
X110828844Y-139550500D01*
X110828845Y-139550499D01*
X110983497Y-139519737D01*
X111129179Y-139459394D01*
X111260289Y-139371789D01*
X111290170Y-139341907D01*
X111351491Y-139308423D01*
X111421183Y-139313407D01*
X111446742Y-139326487D01*
X111570814Y-139409390D01*
X111570827Y-139409397D01*
X111716498Y-139469735D01*
X111716503Y-139469737D01*
X111871153Y-139500499D01*
X111871156Y-139500500D01*
X111871158Y-139500500D01*
X112028844Y-139500500D01*
X112028845Y-139500499D01*
X112183497Y-139469737D01*
X112279014Y-139430172D01*
X112348481Y-139422704D01*
X112410961Y-139453979D01*
X112446613Y-139514068D01*
X112448165Y-139522896D01*
X112448311Y-139522868D01*
X112480261Y-139683489D01*
X112480264Y-139683501D01*
X112540602Y-139829172D01*
X112540609Y-139829185D01*
X112628210Y-139960288D01*
X112628213Y-139960292D01*
X112739707Y-140071786D01*
X112739711Y-140071789D01*
X112870814Y-140159390D01*
X112870827Y-140159397D01*
X112965024Y-140198414D01*
X113016503Y-140219737D01*
X113171153Y-140250499D01*
X113171156Y-140250500D01*
X113171158Y-140250500D01*
X113328844Y-140250500D01*
X113328845Y-140250499D01*
X113483497Y-140219737D01*
X113629179Y-140159394D01*
X113760289Y-140071789D01*
X113871789Y-139960289D01*
X113959394Y-139829179D01*
X113981439Y-139775955D01*
X114025277Y-139721555D01*
X114073306Y-139703894D01*
X114072868Y-139701689D01*
X114164361Y-139683489D01*
X114233497Y-139669737D01*
X114379179Y-139609394D01*
X114510289Y-139521789D01*
X114518010Y-139514068D01*
X114550919Y-139481160D01*
X114621786Y-139410292D01*
X114621789Y-139410289D01*
X114709394Y-139279179D01*
X114769737Y-139133497D01*
X114800500Y-138978842D01*
X114800500Y-138821158D01*
X114800500Y-138821155D01*
X114800499Y-138821153D01*
X114788131Y-138758975D01*
X114769737Y-138666503D01*
X114741226Y-138597671D01*
X114709397Y-138520827D01*
X114709390Y-138520814D01*
X114621789Y-138389711D01*
X114621786Y-138389707D01*
X114510292Y-138278213D01*
X114510288Y-138278210D01*
X114379185Y-138190609D01*
X114379172Y-138190602D01*
X114233501Y-138130264D01*
X114233491Y-138130261D01*
X114078149Y-138099361D01*
X114016238Y-138066976D01*
X114014660Y-138065425D01*
X109651370Y-133702135D01*
X115849500Y-133702135D01*
X115849500Y-135497870D01*
X115849501Y-135497876D01*
X115855908Y-135557483D01*
X115906202Y-135692328D01*
X115906206Y-135692335D01*
X115992452Y-135807544D01*
X115992455Y-135807547D01*
X116107664Y-135893793D01*
X116107671Y-135893797D01*
X116152618Y-135910561D01*
X116242517Y-135944091D01*
X116302127Y-135950500D01*
X116312685Y-135950499D01*
X116379723Y-135970179D01*
X116400372Y-135986818D01*
X117070591Y-136657037D01*
X117007007Y-136674075D01*
X116892993Y-136739901D01*
X116799901Y-136832993D01*
X116734075Y-136947007D01*
X116717037Y-137010591D01*
X116084728Y-136378282D01*
X116084727Y-136378282D01*
X116045380Y-136432439D01*
X115948904Y-136621782D01*
X115883242Y-136823869D01*
X115883242Y-136823872D01*
X115850000Y-137033753D01*
X115850000Y-137246246D01*
X115883242Y-137456127D01*
X115883242Y-137456130D01*
X115948904Y-137658217D01*
X116045375Y-137847550D01*
X116084728Y-137901716D01*
X116717037Y-137269408D01*
X116734075Y-137332993D01*
X116799901Y-137447007D01*
X116892993Y-137540099D01*
X117007007Y-137605925D01*
X117070590Y-137622962D01*
X116438282Y-138255269D01*
X116438282Y-138255270D01*
X116492452Y-138294626D01*
X116492451Y-138294626D01*
X116501495Y-138299234D01*
X116552292Y-138347208D01*
X116569087Y-138415029D01*
X116546550Y-138481164D01*
X116501499Y-138520202D01*
X116492182Y-138524949D01*
X116320213Y-138649890D01*
X116169890Y-138800213D01*
X116044951Y-138972179D01*
X115948444Y-139161585D01*
X115882753Y-139363760D01*
X115865968Y-139469736D01*
X115849500Y-139573713D01*
X115849500Y-139786287D01*
X115882754Y-139996243D01*
X115935766Y-140159397D01*
X115948444Y-140198414D01*
X116044951Y-140387820D01*
X116169890Y-140559786D01*
X116320213Y-140710109D01*
X116492182Y-140835050D01*
X116500946Y-140839516D01*
X116551742Y-140887491D01*
X116568536Y-140955312D01*
X116545998Y-141021447D01*
X116500946Y-141060484D01*
X116492182Y-141064949D01*
X116320213Y-141189890D01*
X116169890Y-141340213D01*
X116044951Y-141512179D01*
X115948444Y-141701585D01*
X115882753Y-141903760D01*
X115879707Y-141922993D01*
X115849500Y-142113713D01*
X115849500Y-142326287D01*
X115882754Y-142536243D01*
X115898126Y-142583554D01*
X115948444Y-142738414D01*
X116044951Y-142927820D01*
X116169890Y-143099786D01*
X116320213Y-143250109D01*
X116492182Y-143375050D01*
X116500946Y-143379516D01*
X116551742Y-143427491D01*
X116568536Y-143495312D01*
X116545998Y-143561447D01*
X116500946Y-143600484D01*
X116492182Y-143604949D01*
X116320213Y-143729890D01*
X116169890Y-143880213D01*
X116044951Y-144052179D01*
X115948444Y-144241585D01*
X115882753Y-144443760D01*
X115849500Y-144653713D01*
X115849500Y-144866287D01*
X115882754Y-145076243D01*
X115886003Y-145086243D01*
X115948444Y-145278414D01*
X116044951Y-145467820D01*
X116169890Y-145639786D01*
X116320213Y-145790109D01*
X116492182Y-145915050D01*
X116500946Y-145919516D01*
X116551742Y-145967491D01*
X116568536Y-146035312D01*
X116545998Y-146101447D01*
X116500946Y-146140484D01*
X116492182Y-146144949D01*
X116320213Y-146269890D01*
X116169890Y-146420213D01*
X116044951Y-146592179D01*
X115948444Y-146781585D01*
X115882753Y-146983760D01*
X115849500Y-147193713D01*
X115849500Y-147406287D01*
X115882754Y-147616243D01*
X115886003Y-147626243D01*
X115948444Y-147818414D01*
X116044951Y-148007820D01*
X116169890Y-148179786D01*
X116320213Y-148330109D01*
X116492179Y-148455048D01*
X116492181Y-148455049D01*
X116492184Y-148455051D01*
X116681588Y-148551557D01*
X116883757Y-148617246D01*
X117093713Y-148650500D01*
X117093714Y-148650500D01*
X117306286Y-148650500D01*
X117306287Y-148650500D01*
X117516243Y-148617246D01*
X117718412Y-148551557D01*
X117907816Y-148455051D01*
X117929789Y-148439086D01*
X118079786Y-148330109D01*
X118079788Y-148330106D01*
X118079792Y-148330104D01*
X118230104Y-148179792D01*
X118230106Y-148179788D01*
X118230109Y-148179786D01*
X118355048Y-148007820D01*
X118355047Y-148007820D01*
X118355051Y-148007816D01*
X118451557Y-147818412D01*
X118517246Y-147616243D01*
X118550500Y-147406287D01*
X118550500Y-147193713D01*
X118517246Y-146983757D01*
X118451557Y-146781588D01*
X118355051Y-146592184D01*
X118355049Y-146592181D01*
X118355048Y-146592179D01*
X118230109Y-146420213D01*
X118079786Y-146269890D01*
X117907820Y-146144951D01*
X117907115Y-146144591D01*
X117899054Y-146140485D01*
X117848259Y-146092512D01*
X117831463Y-146024692D01*
X117853999Y-145958556D01*
X117899054Y-145919515D01*
X117907816Y-145915051D01*
X117929789Y-145899086D01*
X118079786Y-145790109D01*
X118079788Y-145790106D01*
X118079792Y-145790104D01*
X118230104Y-145639792D01*
X118230106Y-145639788D01*
X118230109Y-145639786D01*
X118355048Y-145467820D01*
X118355047Y-145467820D01*
X118355051Y-145467816D01*
X118451557Y-145278412D01*
X118517246Y-145076243D01*
X118550500Y-144866287D01*
X118550500Y-144653713D01*
X118517246Y-144443757D01*
X118451557Y-144241588D01*
X118355051Y-144052184D01*
X118355049Y-144052181D01*
X118355048Y-144052179D01*
X118230109Y-143880213D01*
X118079786Y-143729890D01*
X117907820Y-143604951D01*
X117907115Y-143604591D01*
X117899054Y-143600485D01*
X117848259Y-143552512D01*
X117831463Y-143484692D01*
X117853999Y-143418556D01*
X117899054Y-143379515D01*
X117907816Y-143375051D01*
X117948808Y-143345269D01*
X118079786Y-143250109D01*
X118079788Y-143250106D01*
X118079792Y-143250104D01*
X118230104Y-143099792D01*
X118230106Y-143099788D01*
X118230109Y-143099786D01*
X118355048Y-142927820D01*
X118355047Y-142927820D01*
X118355051Y-142927816D01*
X118451557Y-142738412D01*
X118517246Y-142536243D01*
X118550500Y-142326287D01*
X118550500Y-142113713D01*
X118517246Y-141903757D01*
X118451557Y-141701588D01*
X118355051Y-141512184D01*
X118355049Y-141512181D01*
X118355048Y-141512179D01*
X118230109Y-141340213D01*
X118079786Y-141189890D01*
X117907820Y-141064951D01*
X117907115Y-141064591D01*
X117899054Y-141060485D01*
X117848259Y-141012512D01*
X117831463Y-140944692D01*
X117853999Y-140878556D01*
X117899054Y-140839515D01*
X117907816Y-140835051D01*
X117980374Y-140782335D01*
X118079786Y-140710109D01*
X118079788Y-140710106D01*
X118079792Y-140710104D01*
X118230104Y-140559792D01*
X118230106Y-140559788D01*
X118230109Y-140559786D01*
X118355048Y-140387820D01*
X118355047Y-140387820D01*
X118355051Y-140387816D01*
X118451557Y-140198412D01*
X118517246Y-139996243D01*
X118550500Y-139786287D01*
X118550500Y-139573713D01*
X118517246Y-139363757D01*
X118451557Y-139161588D01*
X118355051Y-138972184D01*
X118355049Y-138972181D01*
X118355048Y-138972179D01*
X118230109Y-138800213D01*
X118079786Y-138649890D01*
X117907817Y-138524949D01*
X117898504Y-138520204D01*
X117847707Y-138472230D01*
X117830912Y-138404409D01*
X117853449Y-138338274D01*
X117898507Y-138299232D01*
X117907555Y-138294622D01*
X117961716Y-138255270D01*
X117961717Y-138255270D01*
X117329408Y-137622962D01*
X117392993Y-137605925D01*
X117507007Y-137540099D01*
X117600099Y-137447007D01*
X117665925Y-137332993D01*
X117682962Y-137269408D01*
X118315270Y-137901717D01*
X118315270Y-137901716D01*
X118354622Y-137847554D01*
X118451095Y-137658217D01*
X118516757Y-137456130D01*
X118516757Y-137456127D01*
X118550000Y-137246246D01*
X118550000Y-137033753D01*
X118516757Y-136823872D01*
X118516757Y-136823869D01*
X118451095Y-136621782D01*
X118354624Y-136432449D01*
X118315270Y-136378282D01*
X118315269Y-136378282D01*
X117682962Y-137010590D01*
X117665925Y-136947007D01*
X117600099Y-136832993D01*
X117507007Y-136739901D01*
X117392993Y-136674075D01*
X117329409Y-136657037D01*
X117999627Y-135986818D01*
X118060950Y-135953333D01*
X118087307Y-135950499D01*
X118097872Y-135950499D01*
X118157483Y-135944091D01*
X118292331Y-135893796D01*
X118407546Y-135807546D01*
X118493796Y-135692331D01*
X118544091Y-135557483D01*
X118550500Y-135497873D01*
X118550499Y-133702128D01*
X118544091Y-133642517D01*
X118493796Y-133507669D01*
X118493795Y-133507668D01*
X118493793Y-133507664D01*
X118407547Y-133392455D01*
X118407544Y-133392452D01*
X118292335Y-133306206D01*
X118292328Y-133306202D01*
X118157482Y-133255908D01*
X118157483Y-133255908D01*
X118097883Y-133249501D01*
X118097881Y-133249500D01*
X118097873Y-133249500D01*
X118097864Y-133249500D01*
X116302129Y-133249500D01*
X116302123Y-133249501D01*
X116242516Y-133255908D01*
X116107671Y-133306202D01*
X116107664Y-133306206D01*
X115992455Y-133392452D01*
X115992452Y-133392455D01*
X115906206Y-133507664D01*
X115906202Y-133507671D01*
X115855908Y-133642517D01*
X115849501Y-133702116D01*
X115849501Y-133702123D01*
X115849500Y-133702135D01*
X109651370Y-133702135D01*
X106734574Y-130785339D01*
X106701089Y-130724016D01*
X106700638Y-130721849D01*
X106669738Y-130566510D01*
X106669737Y-130566503D01*
X106628251Y-130466346D01*
X106609397Y-130420827D01*
X106609390Y-130420814D01*
X106521789Y-130289711D01*
X106521786Y-130289707D01*
X106410292Y-130178213D01*
X106410288Y-130178210D01*
X106279185Y-130090609D01*
X106279172Y-130090602D01*
X106133501Y-130030264D01*
X106133489Y-130030261D01*
X105978845Y-129999500D01*
X105978842Y-129999500D01*
X105821158Y-129999500D01*
X105821155Y-129999500D01*
X105666510Y-130030261D01*
X105666498Y-130030264D01*
X105520827Y-130090602D01*
X105520814Y-130090609D01*
X105389711Y-130178210D01*
X105389707Y-130178213D01*
X105278213Y-130289707D01*
X105278210Y-130289711D01*
X105190609Y-130420814D01*
X105190602Y-130420827D01*
X105130264Y-130566498D01*
X105130261Y-130566510D01*
X105099500Y-130721153D01*
X105099500Y-130878846D01*
X105121761Y-130990762D01*
X105115534Y-131060354D01*
X105072670Y-131115531D01*
X105047599Y-131129513D01*
X105020826Y-131140603D01*
X105020814Y-131140609D01*
X104889711Y-131228210D01*
X104889707Y-131228213D01*
X104778213Y-131339707D01*
X104778210Y-131339711D01*
X104690609Y-131470814D01*
X104690602Y-131470827D01*
X104630264Y-131616498D01*
X104630261Y-131616510D01*
X104599500Y-131771153D01*
X104599500Y-131928846D01*
X104630261Y-132083489D01*
X104630264Y-132083501D01*
X104690602Y-132229172D01*
X104690609Y-132229185D01*
X104778210Y-132360288D01*
X104778213Y-132360292D01*
X104889707Y-132471786D01*
X104889711Y-132471789D01*
X105020814Y-132559390D01*
X105020827Y-132559397D01*
X105166498Y-132619735D01*
X105166503Y-132619737D01*
X105276987Y-132641713D01*
X105299691Y-132646230D01*
X105327814Y-132660940D01*
X105356703Y-132674134D01*
X105358560Y-132677023D01*
X105361602Y-132678615D01*
X105377308Y-132706197D01*
X105394477Y-132732912D01*
X105395137Y-132737506D01*
X105396176Y-132739330D01*
X105399500Y-132767847D01*
X105399500Y-132783740D01*
X105379815Y-132850779D01*
X105327011Y-132896534D01*
X105322953Y-132898301D01*
X105220824Y-132940604D01*
X105220814Y-132940609D01*
X105089711Y-133028210D01*
X105089707Y-133028213D01*
X104978213Y-133139707D01*
X104978210Y-133139711D01*
X104890609Y-133270814D01*
X104890602Y-133270827D01*
X104830264Y-133416498D01*
X104830261Y-133416510D01*
X104799500Y-133571153D01*
X104799500Y-133728846D01*
X104830261Y-133883489D01*
X104830264Y-133883501D01*
X104890602Y-134029172D01*
X104890609Y-134029185D01*
X104978210Y-134160288D01*
X104978213Y-134160292D01*
X105089707Y-134271786D01*
X105089711Y-134271789D01*
X105220814Y-134359390D01*
X105220827Y-134359397D01*
X105366498Y-134419735D01*
X105366503Y-134419737D01*
X105521153Y-134450499D01*
X105521156Y-134450500D01*
X105521158Y-134450500D01*
X105549903Y-134450500D01*
X105616942Y-134470185D01*
X105637584Y-134486819D01*
X108488584Y-137337819D01*
X108522069Y-137399142D01*
X108517085Y-137468834D01*
X108475213Y-137524767D01*
X108409749Y-137549184D01*
X108400903Y-137549500D01*
X105231005Y-137549500D01*
X105095677Y-137576418D01*
X105095667Y-137576421D01*
X104968192Y-137629222D01*
X104853454Y-137705887D01*
X104086788Y-138472553D01*
X104025465Y-138506038D01*
X103955773Y-138501054D01*
X103924796Y-138484138D01*
X103807335Y-138396206D01*
X103807328Y-138396202D01*
X103672482Y-138345908D01*
X103672483Y-138345908D01*
X103612883Y-138339501D01*
X103612881Y-138339500D01*
X103612873Y-138339500D01*
X103612865Y-138339500D01*
X103539500Y-138339500D01*
X103472461Y-138319815D01*
X103426706Y-138267011D01*
X103415500Y-138215500D01*
X103415500Y-129021153D01*
X108199500Y-129021153D01*
X108199500Y-129178846D01*
X108230261Y-129333489D01*
X108230263Y-129333497D01*
X108230264Y-129333499D01*
X108290602Y-129479172D01*
X108290609Y-129479185D01*
X108378210Y-129610288D01*
X108378213Y-129610292D01*
X108489707Y-129721786D01*
X108489711Y-129721789D01*
X108620814Y-129809390D01*
X108620827Y-129809397D01*
X108766498Y-129869735D01*
X108766503Y-129869737D01*
X108921153Y-129900499D01*
X108921156Y-129900500D01*
X108921158Y-129900500D01*
X109078844Y-129900500D01*
X109078845Y-129900499D01*
X109233497Y-129869737D01*
X109379179Y-129809394D01*
X109510289Y-129721789D01*
X109621789Y-129610289D01*
X109709394Y-129479179D01*
X109769737Y-129333497D01*
X109797336Y-129194749D01*
X109800638Y-129178150D01*
X109833023Y-129116239D01*
X109834518Y-129114716D01*
X110012416Y-128936819D01*
X110073739Y-128903334D01*
X110100097Y-128900500D01*
X113420234Y-128900500D01*
X113438377Y-128905827D01*
X113457287Y-128906165D01*
X113485504Y-128919665D01*
X113487273Y-128920185D01*
X113489125Y-128921398D01*
X113619907Y-129008784D01*
X113664712Y-129062396D01*
X113673419Y-129131721D01*
X113643265Y-129194749D01*
X113638697Y-129199567D01*
X113285339Y-129552925D01*
X113224016Y-129586410D01*
X113221850Y-129586861D01*
X113066508Y-129617761D01*
X113066498Y-129617764D01*
X112920827Y-129678102D01*
X112920814Y-129678109D01*
X112789711Y-129765710D01*
X112789707Y-129765713D01*
X112678213Y-129877207D01*
X112678210Y-129877211D01*
X112590609Y-130008314D01*
X112590602Y-130008327D01*
X112530264Y-130153998D01*
X112530261Y-130154010D01*
X112499500Y-130308653D01*
X112499500Y-130466346D01*
X112530261Y-130620989D01*
X112530264Y-130621001D01*
X112590602Y-130766672D01*
X112590609Y-130766685D01*
X112678210Y-130897788D01*
X112678213Y-130897792D01*
X112789707Y-131009286D01*
X112789711Y-131009289D01*
X112920814Y-131096890D01*
X112920827Y-131096897D01*
X113026359Y-131140609D01*
X113066503Y-131157237D01*
X113221153Y-131187999D01*
X113221156Y-131188000D01*
X113221158Y-131188000D01*
X113378844Y-131188000D01*
X113378845Y-131187999D01*
X113533497Y-131157237D01*
X113679179Y-131096894D01*
X113810289Y-131009289D01*
X113921789Y-130897789D01*
X114009394Y-130766679D01*
X114069737Y-130620997D01*
X114089113Y-130523585D01*
X114100638Y-130465650D01*
X114133023Y-130403739D01*
X114134520Y-130402214D01*
X114959506Y-129577227D01*
X114959511Y-129577224D01*
X114969714Y-129567020D01*
X114969716Y-129567020D01*
X115081520Y-129455216D01*
X115151793Y-129333499D01*
X115151794Y-129333498D01*
X115155357Y-129327324D01*
X115160577Y-129318285D01*
X115201501Y-129165557D01*
X115201501Y-129007443D01*
X115201501Y-128999848D01*
X115201500Y-128999830D01*
X115201500Y-126490060D01*
X115201501Y-126490047D01*
X115201501Y-126321944D01*
X115201501Y-126321943D01*
X115160577Y-126169216D01*
X115108591Y-126079172D01*
X115081524Y-126032290D01*
X115081518Y-126032282D01*
X114734573Y-125685337D01*
X114701088Y-125624014D01*
X114700637Y-125621847D01*
X114669738Y-125466510D01*
X114669737Y-125466503D01*
X114653876Y-125428210D01*
X114609397Y-125320827D01*
X114609390Y-125320814D01*
X114521789Y-125189711D01*
X114521786Y-125189707D01*
X114410292Y-125078213D01*
X114410288Y-125078210D01*
X114279185Y-124990609D01*
X114279172Y-124990602D01*
X114133501Y-124930264D01*
X114133489Y-124930261D01*
X113978845Y-124899500D01*
X113978842Y-124899500D01*
X113821158Y-124899500D01*
X113821155Y-124899500D01*
X113666510Y-124930261D01*
X113666498Y-124930264D01*
X113520827Y-124990602D01*
X113520814Y-124990609D01*
X113389711Y-125078210D01*
X113389707Y-125078213D01*
X113278213Y-125189707D01*
X113278210Y-125189711D01*
X113190609Y-125320814D01*
X113190602Y-125320827D01*
X113130264Y-125466498D01*
X113130261Y-125466510D01*
X113099500Y-125621153D01*
X113099500Y-125778846D01*
X113130261Y-125933489D01*
X113130264Y-125933501D01*
X113190602Y-126079172D01*
X113190609Y-126079185D01*
X113278210Y-126210288D01*
X113278213Y-126210292D01*
X113389707Y-126321786D01*
X113389711Y-126321789D01*
X113520814Y-126409390D01*
X113520827Y-126409397D01*
X113666498Y-126469735D01*
X113666503Y-126469737D01*
X113768608Y-126490047D01*
X113821846Y-126500637D01*
X113838600Y-126509401D01*
X113857081Y-126513421D01*
X113882124Y-126532168D01*
X113883757Y-126533022D01*
X113885336Y-126534572D01*
X113964181Y-126613416D01*
X113997666Y-126674739D01*
X114000500Y-126701098D01*
X114000500Y-127381953D01*
X113980815Y-127448992D01*
X113928011Y-127494747D01*
X113900692Y-127503570D01*
X113766508Y-127530261D01*
X113766498Y-127530264D01*
X113620827Y-127590602D01*
X113620814Y-127590609D01*
X113489125Y-127678602D01*
X113422447Y-127699480D01*
X113420234Y-127699500D01*
X109886669Y-127699500D01*
X109886653Y-127699499D01*
X109879057Y-127699499D01*
X109720943Y-127699499D01*
X109613587Y-127728265D01*
X109568210Y-127740424D01*
X109568209Y-127740425D01*
X109518096Y-127769359D01*
X109518095Y-127769360D01*
X109474689Y-127794420D01*
X109431285Y-127819479D01*
X109431282Y-127819481D01*
X108985339Y-128265425D01*
X108924016Y-128298910D01*
X108921850Y-128299361D01*
X108766508Y-128330261D01*
X108766498Y-128330264D01*
X108620827Y-128390602D01*
X108620814Y-128390609D01*
X108489711Y-128478210D01*
X108489707Y-128478213D01*
X108378213Y-128589707D01*
X108378210Y-128589711D01*
X108290609Y-128720814D01*
X108290602Y-128720827D01*
X108230264Y-128866498D01*
X108230261Y-128866510D01*
X108199500Y-129021153D01*
X103415500Y-129021153D01*
X103415500Y-126767194D01*
X103435185Y-126700155D01*
X103456310Y-126676425D01*
X103455982Y-126676097D01*
X103571786Y-126560292D01*
X103571789Y-126560289D01*
X103659394Y-126429179D01*
X103659395Y-126429176D01*
X103659397Y-126429173D01*
X103719192Y-126284812D01*
X103746069Y-126244586D01*
X104644114Y-125346543D01*
X104644115Y-125346542D01*
X106753838Y-123236819D01*
X106815161Y-123203334D01*
X106841519Y-123200500D01*
X109174684Y-123200500D01*
X109222136Y-123209939D01*
X109287031Y-123236819D01*
X109366503Y-123269737D01*
X109521153Y-123300499D01*
X109521156Y-123300500D01*
X109521158Y-123300500D01*
X109678844Y-123300500D01*
X109678845Y-123300499D01*
X109833497Y-123269737D01*
X109979179Y-123209394D01*
X110110289Y-123121789D01*
X110221789Y-123010289D01*
X110309394Y-122879179D01*
X110369737Y-122733497D01*
X110383079Y-122666416D01*
X110415463Y-122604509D01*
X110416959Y-122602985D01*
X113015095Y-120004849D01*
X113033879Y-119989434D01*
X113060289Y-119971789D01*
X113171789Y-119860289D01*
X113259394Y-119729179D01*
X113319737Y-119583497D01*
X113350500Y-119428842D01*
X113350500Y-119271158D01*
X113350500Y-119271155D01*
X113350499Y-119271153D01*
X113319738Y-119116510D01*
X113319737Y-119116503D01*
X113259394Y-118970821D01*
X113221396Y-118913953D01*
X113200520Y-118847276D01*
X113200500Y-118845064D01*
X113200500Y-117585928D01*
X113175502Y-117460261D01*
X113175501Y-117460260D01*
X113175501Y-117460256D01*
X113126465Y-117341873D01*
X113065412Y-117250500D01*
X113055276Y-117235330D01*
X112167015Y-116347069D01*
X112133530Y-116285746D01*
X112133093Y-116283652D01*
X112119737Y-116216503D01*
X112095599Y-116158230D01*
X112059397Y-116070827D01*
X112059390Y-116070814D01*
X111971789Y-115939711D01*
X111971786Y-115939707D01*
X111860292Y-115828213D01*
X111860288Y-115828210D01*
X111729185Y-115740609D01*
X111729172Y-115740602D01*
X111583501Y-115680264D01*
X111583489Y-115680261D01*
X111428845Y-115649500D01*
X111428842Y-115649500D01*
X111271158Y-115649500D01*
X111271155Y-115649500D01*
X111116510Y-115680261D01*
X111116498Y-115680264D01*
X110970827Y-115740602D01*
X110970814Y-115740609D01*
X110839711Y-115828210D01*
X110839707Y-115828213D01*
X110728213Y-115939707D01*
X110728210Y-115939711D01*
X110640609Y-116070814D01*
X110640602Y-116070827D01*
X110580264Y-116216498D01*
X110580261Y-116216510D01*
X110549500Y-116371153D01*
X110549500Y-116528846D01*
X110580261Y-116683489D01*
X110580264Y-116683501D01*
X110640602Y-116829172D01*
X110640609Y-116829185D01*
X110728210Y-116960288D01*
X110728213Y-116960292D01*
X110839707Y-117071786D01*
X110839711Y-117071789D01*
X110970814Y-117159390D01*
X110970827Y-117159397D01*
X111058230Y-117195599D01*
X111116503Y-117219737D01*
X111183580Y-117233079D01*
X111245490Y-117265463D01*
X111247069Y-117267015D01*
X111863181Y-117883127D01*
X111896666Y-117944450D01*
X111899500Y-117970808D01*
X111899500Y-118845064D01*
X111879815Y-118912103D01*
X111878603Y-118913954D01*
X111840608Y-118970817D01*
X111840602Y-118970828D01*
X111780264Y-119116498D01*
X111780261Y-119116510D01*
X111749500Y-119271153D01*
X111749500Y-119379191D01*
X111729815Y-119446230D01*
X111713181Y-119466872D01*
X109497068Y-121682984D01*
X109486465Y-121689591D01*
X109480915Y-121696593D01*
X109462640Y-121704440D01*
X109449481Y-121712642D01*
X109441669Y-121715311D01*
X109366503Y-121730263D01*
X109220821Y-121790606D01*
X109220306Y-121790950D01*
X109214778Y-121792839D01*
X109206311Y-121793208D01*
X109174684Y-121799500D01*
X106431004Y-121799500D01*
X106295677Y-121826418D01*
X106295667Y-121826421D01*
X106168192Y-121879222D01*
X106053454Y-121955887D01*
X106053453Y-121955888D01*
X105012181Y-122997161D01*
X104950858Y-123030646D01*
X104881166Y-123025662D01*
X104825233Y-122983790D01*
X104800816Y-122918326D01*
X104800500Y-122909480D01*
X104800500Y-120675316D01*
X104809939Y-120627864D01*
X104869735Y-120483501D01*
X104869737Y-120483497D01*
X104900500Y-120328842D01*
X104900500Y-120232577D01*
X106635975Y-120232577D01*
X106741236Y-120276178D01*
X106741240Y-120276179D01*
X106886126Y-120304999D01*
X106886129Y-120305000D01*
X107033871Y-120305000D01*
X107033873Y-120304999D01*
X107178760Y-120276179D01*
X107178775Y-120276175D01*
X107284024Y-120232578D01*
X107284024Y-120232577D01*
X108635975Y-120232577D01*
X108741236Y-120276178D01*
X108741240Y-120276179D01*
X108886126Y-120304999D01*
X108886129Y-120305000D01*
X109033871Y-120305000D01*
X109033873Y-120304999D01*
X109178760Y-120276179D01*
X109178775Y-120276175D01*
X109284024Y-120232578D01*
X109284024Y-120232577D01*
X108960001Y-119908554D01*
X108960000Y-119908554D01*
X108635975Y-120232577D01*
X107284024Y-120232577D01*
X106960001Y-119908554D01*
X106960000Y-119908554D01*
X106635975Y-120232577D01*
X104900500Y-120232577D01*
X104900500Y-120171158D01*
X104900500Y-120171155D01*
X104900499Y-120171153D01*
X104869738Y-120016510D01*
X104869737Y-120016503D01*
X104851216Y-119971789D01*
X104809939Y-119872136D01*
X104800500Y-119824684D01*
X104800500Y-119481126D01*
X106210000Y-119481126D01*
X106210000Y-119628873D01*
X106238820Y-119773759D01*
X106238822Y-119773767D01*
X106282421Y-119879024D01*
X106606446Y-119555000D01*
X106606446Y-119554999D01*
X106586556Y-119535109D01*
X106860000Y-119535109D01*
X106860000Y-119574891D01*
X106875224Y-119611645D01*
X106903355Y-119639776D01*
X106940109Y-119655000D01*
X106979891Y-119655000D01*
X107016645Y-119639776D01*
X107044776Y-119611645D01*
X107060000Y-119574891D01*
X107060000Y-119554999D01*
X107313554Y-119554999D01*
X107313554Y-119555001D01*
X107637577Y-119879024D01*
X107637578Y-119879024D01*
X107681175Y-119773775D01*
X107681179Y-119773760D01*
X107709999Y-119628873D01*
X107710000Y-119628871D01*
X107710000Y-119481128D01*
X107709999Y-119481126D01*
X108210000Y-119481126D01*
X108210000Y-119628873D01*
X108238820Y-119773759D01*
X108238822Y-119773767D01*
X108282421Y-119879024D01*
X108606446Y-119555000D01*
X108606446Y-119554999D01*
X108586556Y-119535109D01*
X108860000Y-119535109D01*
X108860000Y-119574891D01*
X108875224Y-119611645D01*
X108903355Y-119639776D01*
X108940109Y-119655000D01*
X108979891Y-119655000D01*
X109016645Y-119639776D01*
X109044776Y-119611645D01*
X109060000Y-119574891D01*
X109060000Y-119554999D01*
X109313554Y-119554999D01*
X109313554Y-119555001D01*
X109637577Y-119879024D01*
X109637578Y-119879024D01*
X109681175Y-119773775D01*
X109681179Y-119773760D01*
X109709999Y-119628873D01*
X109710000Y-119628871D01*
X109710000Y-119481128D01*
X109709999Y-119481126D01*
X109681179Y-119336240D01*
X109681178Y-119336236D01*
X109637577Y-119230975D01*
X109313554Y-119554999D01*
X109060000Y-119554999D01*
X109060000Y-119535109D01*
X109044776Y-119498355D01*
X109016645Y-119470224D01*
X108979891Y-119455000D01*
X108940109Y-119455000D01*
X108903355Y-119470224D01*
X108875224Y-119498355D01*
X108860000Y-119535109D01*
X108586556Y-119535109D01*
X108282421Y-119230974D01*
X108282420Y-119230974D01*
X108238823Y-119336228D01*
X108238820Y-119336240D01*
X108210000Y-119481126D01*
X107709999Y-119481126D01*
X107681179Y-119336240D01*
X107681178Y-119336236D01*
X107637577Y-119230975D01*
X107313554Y-119554999D01*
X107060000Y-119554999D01*
X107060000Y-119535109D01*
X107044776Y-119498355D01*
X107016645Y-119470224D01*
X106979891Y-119455000D01*
X106940109Y-119455000D01*
X106903355Y-119470224D01*
X106875224Y-119498355D01*
X106860000Y-119535109D01*
X106586556Y-119535109D01*
X106282421Y-119230974D01*
X106282420Y-119230974D01*
X106238823Y-119336228D01*
X106238820Y-119336240D01*
X106210000Y-119481126D01*
X104800500Y-119481126D01*
X104800500Y-118877420D01*
X106635974Y-118877420D01*
X106635974Y-118877421D01*
X106960000Y-119201446D01*
X106960001Y-119201446D01*
X107284024Y-118877421D01*
X107284022Y-118877420D01*
X108635974Y-118877420D01*
X108635974Y-118877421D01*
X108960000Y-119201446D01*
X108960001Y-119201446D01*
X109284024Y-118877421D01*
X109178767Y-118833822D01*
X109178759Y-118833820D01*
X109033872Y-118805000D01*
X108886128Y-118805000D01*
X108741240Y-118833820D01*
X108741228Y-118833823D01*
X108635974Y-118877420D01*
X107284022Y-118877420D01*
X107178767Y-118833822D01*
X107178759Y-118833820D01*
X107033872Y-118805000D01*
X106886128Y-118805000D01*
X106741240Y-118833820D01*
X106741228Y-118833823D01*
X106635974Y-118877420D01*
X104800500Y-118877420D01*
X104800500Y-118232577D01*
X106635975Y-118232577D01*
X106741236Y-118276178D01*
X106741240Y-118276179D01*
X106886126Y-118304999D01*
X106886129Y-118305000D01*
X107033871Y-118305000D01*
X107033873Y-118304999D01*
X107178760Y-118276179D01*
X107178775Y-118276175D01*
X107284024Y-118232578D01*
X107284024Y-118232577D01*
X108635975Y-118232577D01*
X108741236Y-118276178D01*
X108741240Y-118276179D01*
X108886126Y-118304999D01*
X108886129Y-118305000D01*
X109033871Y-118305000D01*
X109033873Y-118304999D01*
X109178760Y-118276179D01*
X109178775Y-118276175D01*
X109284024Y-118232578D01*
X109284024Y-118232577D01*
X108960001Y-117908554D01*
X108960000Y-117908554D01*
X108635975Y-118232577D01*
X107284024Y-118232577D01*
X106960001Y-117908554D01*
X106960000Y-117908554D01*
X106635975Y-118232577D01*
X104800500Y-118232577D01*
X104800500Y-117481126D01*
X106210000Y-117481126D01*
X106210000Y-117628873D01*
X106238820Y-117773759D01*
X106238822Y-117773767D01*
X106282421Y-117879024D01*
X106606446Y-117555000D01*
X106606446Y-117554999D01*
X106586556Y-117535109D01*
X106860000Y-117535109D01*
X106860000Y-117574891D01*
X106875224Y-117611645D01*
X106903355Y-117639776D01*
X106940109Y-117655000D01*
X106979891Y-117655000D01*
X107016645Y-117639776D01*
X107044776Y-117611645D01*
X107060000Y-117574891D01*
X107060000Y-117554999D01*
X107313554Y-117554999D01*
X107313554Y-117555001D01*
X107637577Y-117879024D01*
X107637578Y-117879024D01*
X107681175Y-117773775D01*
X107681179Y-117773760D01*
X107709999Y-117628873D01*
X107710000Y-117628871D01*
X107710000Y-117481128D01*
X107709999Y-117481126D01*
X108210000Y-117481126D01*
X108210000Y-117628873D01*
X108238820Y-117773759D01*
X108238822Y-117773767D01*
X108282421Y-117879024D01*
X108606446Y-117555000D01*
X108606446Y-117554999D01*
X108586556Y-117535109D01*
X108860000Y-117535109D01*
X108860000Y-117574891D01*
X108875224Y-117611645D01*
X108903355Y-117639776D01*
X108940109Y-117655000D01*
X108979891Y-117655000D01*
X109016645Y-117639776D01*
X109044776Y-117611645D01*
X109060000Y-117574891D01*
X109060000Y-117554999D01*
X109313554Y-117554999D01*
X109313554Y-117555001D01*
X109637577Y-117879024D01*
X109637578Y-117879024D01*
X109681175Y-117773775D01*
X109681179Y-117773760D01*
X109709999Y-117628873D01*
X109710000Y-117628871D01*
X109710000Y-117481128D01*
X109709999Y-117481126D01*
X109681179Y-117336240D01*
X109681178Y-117336236D01*
X109637577Y-117230975D01*
X109313554Y-117554999D01*
X109060000Y-117554999D01*
X109060000Y-117535109D01*
X109044776Y-117498355D01*
X109016645Y-117470224D01*
X108979891Y-117455000D01*
X108940109Y-117455000D01*
X108903355Y-117470224D01*
X108875224Y-117498355D01*
X108860000Y-117535109D01*
X108586556Y-117535109D01*
X108282421Y-117230974D01*
X108282420Y-117230974D01*
X108238823Y-117336228D01*
X108238820Y-117336240D01*
X108210000Y-117481126D01*
X107709999Y-117481126D01*
X107681179Y-117336240D01*
X107681178Y-117336236D01*
X107637577Y-117230975D01*
X107313554Y-117554999D01*
X107060000Y-117554999D01*
X107060000Y-117535109D01*
X107044776Y-117498355D01*
X107016645Y-117470224D01*
X106979891Y-117455000D01*
X106940109Y-117455000D01*
X106903355Y-117470224D01*
X106875224Y-117498355D01*
X106860000Y-117535109D01*
X106586556Y-117535109D01*
X106282421Y-117230974D01*
X106282420Y-117230974D01*
X106238823Y-117336228D01*
X106238820Y-117336240D01*
X106210000Y-117481126D01*
X104800500Y-117481126D01*
X104800500Y-116877420D01*
X106635974Y-116877420D01*
X106635974Y-116877421D01*
X106960000Y-117201446D01*
X106960001Y-117201446D01*
X107284024Y-116877421D01*
X107284022Y-116877420D01*
X108635974Y-116877420D01*
X108635974Y-116877421D01*
X108960000Y-117201446D01*
X108960001Y-117201446D01*
X109284024Y-116877421D01*
X109178767Y-116833822D01*
X109178759Y-116833820D01*
X109033872Y-116805000D01*
X108886128Y-116805000D01*
X108741240Y-116833820D01*
X108741228Y-116833823D01*
X108635974Y-116877420D01*
X107284022Y-116877420D01*
X107178767Y-116833822D01*
X107178759Y-116833820D01*
X107033872Y-116805000D01*
X106886128Y-116805000D01*
X106741240Y-116833820D01*
X106741228Y-116833823D01*
X106635974Y-116877420D01*
X104800500Y-116877420D01*
X104800500Y-115989640D01*
X104773581Y-115854313D01*
X104773580Y-115854312D01*
X104773580Y-115854308D01*
X104761472Y-115825076D01*
X104720776Y-115726827D01*
X104704046Y-115701789D01*
X104652146Y-115624114D01*
X104644114Y-115612093D01*
X104644112Y-115612090D01*
X103567909Y-114535887D01*
X103453171Y-114459222D01*
X103325696Y-114406421D01*
X103325686Y-114406418D01*
X103190360Y-114379500D01*
X103190358Y-114379500D01*
X103190357Y-114379500D01*
X102925316Y-114379500D01*
X102877864Y-114370061D01*
X102733501Y-114310264D01*
X102733489Y-114310261D01*
X102578845Y-114279500D01*
X102578842Y-114279500D01*
X102421158Y-114279500D01*
X102421155Y-114279500D01*
X102266510Y-114310261D01*
X102266498Y-114310264D01*
X102120827Y-114370602D01*
X102120814Y-114370609D01*
X101989711Y-114458210D01*
X101989707Y-114458213D01*
X101878213Y-114569707D01*
X101878210Y-114569711D01*
X101790609Y-114700814D01*
X101790602Y-114700827D01*
X101730264Y-114846498D01*
X101730261Y-114846510D01*
X101699500Y-115001153D01*
X101699500Y-115158846D01*
X101730261Y-115313489D01*
X101730264Y-115313501D01*
X101790602Y-115459172D01*
X101790609Y-115459185D01*
X101878210Y-115590288D01*
X101878213Y-115590292D01*
X101989707Y-115701786D01*
X101989711Y-115701789D01*
X102120814Y-115789390D01*
X102120827Y-115789397D01*
X102266498Y-115849735D01*
X102266503Y-115849737D01*
X102421153Y-115880499D01*
X102421156Y-115880500D01*
X102421158Y-115880500D01*
X102578844Y-115880500D01*
X102578845Y-115880499D01*
X102733497Y-115849737D01*
X102775000Y-115832545D01*
X102844464Y-115825076D01*
X102906944Y-115856349D01*
X102910132Y-115859425D01*
X103363181Y-116312474D01*
X103396666Y-116373797D01*
X103399500Y-116400155D01*
X103399500Y-119824684D01*
X103390061Y-119872136D01*
X103330264Y-120016498D01*
X103330261Y-120016510D01*
X103299500Y-120171153D01*
X103299500Y-120328846D01*
X103330261Y-120483489D01*
X103330264Y-120483501D01*
X103390061Y-120627864D01*
X103399500Y-120675316D01*
X103399500Y-124558480D01*
X103379815Y-124625519D01*
X103363181Y-124646161D01*
X102755412Y-125253929D01*
X102715184Y-125280809D01*
X102570823Y-125340604D01*
X102570814Y-125340609D01*
X102439711Y-125428210D01*
X102439707Y-125428213D01*
X102328213Y-125539707D01*
X102328210Y-125539711D01*
X102240609Y-125670814D01*
X102240602Y-125670827D01*
X102177932Y-125822130D01*
X102177219Y-125821834D01*
X102165644Y-125846302D01*
X102094223Y-125953192D01*
X102041421Y-126080667D01*
X102041420Y-126080671D01*
X102041420Y-126080672D01*
X102016635Y-126205276D01*
X102016635Y-126205277D01*
X102014500Y-126216007D01*
X102014500Y-138215500D01*
X101994815Y-138282539D01*
X101942011Y-138328294D01*
X101890502Y-138339500D01*
X101817130Y-138339500D01*
X101817123Y-138339501D01*
X101757516Y-138345908D01*
X101622671Y-138396202D01*
X101622664Y-138396206D01*
X101507455Y-138482452D01*
X101507452Y-138482455D01*
X101421206Y-138597664D01*
X101421202Y-138597671D01*
X101370908Y-138732517D01*
X101364501Y-138792116D01*
X101364500Y-138792135D01*
X100500500Y-138792135D01*
X100500500Y-111724000D01*
X100520185Y-111656961D01*
X100572989Y-111611206D01*
X100624500Y-111600000D01*
X102812500Y-111600000D01*
X103312500Y-111600000D01*
X105650328Y-111600000D01*
X105650344Y-111599999D01*
X105709872Y-111593598D01*
X105709879Y-111593596D01*
X105844586Y-111543354D01*
X105844593Y-111543350D01*
X105959687Y-111457190D01*
X105959690Y-111457187D01*
X106045850Y-111342093D01*
X106045854Y-111342086D01*
X106096096Y-111207379D01*
X106096098Y-111207372D01*
X106102499Y-111147844D01*
X106102500Y-111147827D01*
X106102500Y-110600000D01*
X103312500Y-110600000D01*
X103312500Y-111600000D01*
X102812500Y-111600000D01*
X102812500Y-110100000D01*
X103312500Y-110100000D01*
X106102500Y-110100000D01*
X106102500Y-109552172D01*
X106102499Y-109552155D01*
X106096098Y-109492627D01*
X106096096Y-109492620D01*
X106045854Y-109357913D01*
X106045850Y-109357906D01*
X105959690Y-109242812D01*
X105959687Y-109242809D01*
X105844593Y-109156649D01*
X105844586Y-109156645D01*
X105709879Y-109106403D01*
X105709872Y-109106401D01*
X105650344Y-109100000D01*
X103312500Y-109100000D01*
X103312500Y-110100000D01*
X102812500Y-110100000D01*
X102812500Y-109100000D01*
X100624500Y-109100000D01*
X100557461Y-109080315D01*
X100511706Y-109027511D01*
X100500500Y-108976000D01*
X100500500Y-103224000D01*
X100520185Y-103156961D01*
X100572989Y-103111206D01*
X100624500Y-103100000D01*
X102812500Y-103100000D01*
X103312500Y-103100000D01*
X105650328Y-103100000D01*
X105650344Y-103099999D01*
X105709872Y-103093598D01*
X105709879Y-103093596D01*
X105844586Y-103043354D01*
X105844593Y-103043350D01*
X105959687Y-102957190D01*
X105959690Y-102957187D01*
X106045850Y-102842093D01*
X106045854Y-102842086D01*
X106096096Y-102707379D01*
X106096098Y-102707372D01*
X106102499Y-102647844D01*
X106102500Y-102647827D01*
X106102500Y-102100000D01*
X103312500Y-102100000D01*
X103312500Y-103100000D01*
X102812500Y-103100000D01*
X102812500Y-101974000D01*
X102832185Y-101906961D01*
X102884989Y-101861206D01*
X102936500Y-101850000D01*
X103062500Y-101850000D01*
X103062500Y-101724000D01*
X103082185Y-101656961D01*
X103134989Y-101611206D01*
X103186500Y-101600000D01*
X106102500Y-101600000D01*
X106102500Y-101052172D01*
X106102499Y-101052155D01*
X106096098Y-100992627D01*
X106096096Y-100992620D01*
X106045854Y-100857913D01*
X106045850Y-100857906D01*
X105959690Y-100742812D01*
X105934248Y-100723766D01*
X105892378Y-100667832D01*
X105887394Y-100598140D01*
X105920880Y-100536818D01*
X105982203Y-100503333D01*
X106008560Y-100500500D01*
X119375500Y-100500500D01*
X119442539Y-100520185D01*
G37*
%TD.AperFunction*%
%TD*%
M02*
