%TF.GenerationSoftware,KiCad,Pcbnew,9.0.6*%
%TF.CreationDate,2026-02-25T03:49:56+07:00*%
%TF.ProjectId,Robot_remote,526f626f-745f-4726-956d-6f74652e6b69,rev?*%
%TF.SameCoordinates,Original*%
%TF.FileFunction,Legend,Bot*%
%TF.FilePolarity,Positive*%
%FSLAX46Y46*%
G04 Gerber Fmt 4.6, Leading zero omitted, Abs format (unit mm)*
G04 Created by KiCad (PCBNEW 9.0.6) date 2026-02-25 03:49:56*
%MOMM*%
%LPD*%
G01*
G04 APERTURE LIST*
%ADD10C,0.500000*%
%ADD11C,0.300000*%
%ADD12C,0.200000*%
%ADD13C,0.150000*%
%ADD14C,0.120000*%
G04 APERTURE END LIST*
D10*
X133220095Y-56891423D02*
X128220095Y-56891423D01*
X128220095Y-56891423D02*
X128220095Y-58796185D01*
X128220095Y-58796185D02*
X128458190Y-59272375D01*
X128458190Y-59272375D02*
X128696285Y-59510470D01*
X128696285Y-59510470D02*
X129172476Y-59748566D01*
X129172476Y-59748566D02*
X129886761Y-59748566D01*
X129886761Y-59748566D02*
X130362952Y-59510470D01*
X130362952Y-59510470D02*
X130601047Y-59272375D01*
X130601047Y-59272375D02*
X130839142Y-58796185D01*
X130839142Y-58796185D02*
X130839142Y-56891423D01*
X128220095Y-61177137D02*
X133220095Y-62843804D01*
X133220095Y-62843804D02*
X128220095Y-64510470D01*
X133220095Y-66177137D02*
X128220095Y-66177137D01*
X128220095Y-66177137D02*
X128220095Y-67367613D01*
X128220095Y-67367613D02*
X128458190Y-68081899D01*
X128458190Y-68081899D02*
X128934380Y-68558089D01*
X128934380Y-68558089D02*
X129410571Y-68796184D01*
X129410571Y-68796184D02*
X130362952Y-69034280D01*
X130362952Y-69034280D02*
X131077238Y-69034280D01*
X131077238Y-69034280D02*
X132029619Y-68796184D01*
X132029619Y-68796184D02*
X132505809Y-68558089D01*
X132505809Y-68558089D02*
X132982000Y-68081899D01*
X132982000Y-68081899D02*
X133220095Y-67367613D01*
X133220095Y-67367613D02*
X133220095Y-66177137D01*
X128220095Y-70700946D02*
X133220095Y-71891422D01*
X133220095Y-71891422D02*
X129648666Y-72843803D01*
X129648666Y-72843803D02*
X133220095Y-73796184D01*
X133220095Y-73796184D02*
X128220095Y-74986661D01*
X128696285Y-80462851D02*
X128458190Y-80700947D01*
X128458190Y-80700947D02*
X128220095Y-81177137D01*
X128220095Y-81177137D02*
X128220095Y-82367613D01*
X128220095Y-82367613D02*
X128458190Y-82843804D01*
X128458190Y-82843804D02*
X128696285Y-83081899D01*
X128696285Y-83081899D02*
X129172476Y-83319994D01*
X129172476Y-83319994D02*
X129648666Y-83319994D01*
X129648666Y-83319994D02*
X130362952Y-83081899D01*
X130362952Y-83081899D02*
X133220095Y-80224756D01*
X133220095Y-80224756D02*
X133220095Y-83319994D01*
X128220095Y-86415233D02*
X128220095Y-86891423D01*
X128220095Y-86891423D02*
X128458190Y-87367614D01*
X128458190Y-87367614D02*
X128696285Y-87605709D01*
X128696285Y-87605709D02*
X129172476Y-87843804D01*
X129172476Y-87843804D02*
X130124857Y-88081899D01*
X130124857Y-88081899D02*
X131315333Y-88081899D01*
X131315333Y-88081899D02*
X132267714Y-87843804D01*
X132267714Y-87843804D02*
X132743904Y-87605709D01*
X132743904Y-87605709D02*
X132982000Y-87367614D01*
X132982000Y-87367614D02*
X133220095Y-86891423D01*
X133220095Y-86891423D02*
X133220095Y-86415233D01*
X133220095Y-86415233D02*
X132982000Y-85939042D01*
X132982000Y-85939042D02*
X132743904Y-85700947D01*
X132743904Y-85700947D02*
X132267714Y-85462852D01*
X132267714Y-85462852D02*
X131315333Y-85224756D01*
X131315333Y-85224756D02*
X130124857Y-85224756D01*
X130124857Y-85224756D02*
X129172476Y-85462852D01*
X129172476Y-85462852D02*
X128696285Y-85700947D01*
X128696285Y-85700947D02*
X128458190Y-85939042D01*
X128458190Y-85939042D02*
X128220095Y-86415233D01*
X128696285Y-89986661D02*
X128458190Y-90224757D01*
X128458190Y-90224757D02*
X128220095Y-90700947D01*
X128220095Y-90700947D02*
X128220095Y-91891423D01*
X128220095Y-91891423D02*
X128458190Y-92367614D01*
X128458190Y-92367614D02*
X128696285Y-92605709D01*
X128696285Y-92605709D02*
X129172476Y-92843804D01*
X129172476Y-92843804D02*
X129648666Y-92843804D01*
X129648666Y-92843804D02*
X130362952Y-92605709D01*
X130362952Y-92605709D02*
X133220095Y-89748566D01*
X133220095Y-89748566D02*
X133220095Y-92843804D01*
X128220095Y-97129519D02*
X128220095Y-96177138D01*
X128220095Y-96177138D02*
X128458190Y-95700947D01*
X128458190Y-95700947D02*
X128696285Y-95462852D01*
X128696285Y-95462852D02*
X129410571Y-94986662D01*
X129410571Y-94986662D02*
X130362952Y-94748566D01*
X130362952Y-94748566D02*
X132267714Y-94748566D01*
X132267714Y-94748566D02*
X132743904Y-94986662D01*
X132743904Y-94986662D02*
X132982000Y-95224757D01*
X132982000Y-95224757D02*
X133220095Y-95700947D01*
X133220095Y-95700947D02*
X133220095Y-96653328D01*
X133220095Y-96653328D02*
X132982000Y-97129519D01*
X132982000Y-97129519D02*
X132743904Y-97367614D01*
X132743904Y-97367614D02*
X132267714Y-97605709D01*
X132267714Y-97605709D02*
X131077238Y-97605709D01*
X131077238Y-97605709D02*
X130601047Y-97367614D01*
X130601047Y-97367614D02*
X130362952Y-97129519D01*
X130362952Y-97129519D02*
X130124857Y-96653328D01*
X130124857Y-96653328D02*
X130124857Y-95700947D01*
X130124857Y-95700947D02*
X130362952Y-95224757D01*
X130362952Y-95224757D02*
X130601047Y-94986662D01*
X130601047Y-94986662D02*
X131077238Y-94748566D01*
D11*
X89716828Y-59482510D02*
X88216828Y-59482510D01*
X88216828Y-59482510D02*
X88216828Y-59839653D01*
X88216828Y-59839653D02*
X88288257Y-60053939D01*
X88288257Y-60053939D02*
X88431114Y-60196796D01*
X88431114Y-60196796D02*
X88573971Y-60268225D01*
X88573971Y-60268225D02*
X88859685Y-60339653D01*
X88859685Y-60339653D02*
X89073971Y-60339653D01*
X89073971Y-60339653D02*
X89359685Y-60268225D01*
X89359685Y-60268225D02*
X89502542Y-60196796D01*
X89502542Y-60196796D02*
X89645400Y-60053939D01*
X89645400Y-60053939D02*
X89716828Y-59839653D01*
X89716828Y-59839653D02*
X89716828Y-59482510D01*
X89716828Y-60982510D02*
X88716828Y-60982510D01*
X88216828Y-60982510D02*
X88288257Y-60911082D01*
X88288257Y-60911082D02*
X88359685Y-60982510D01*
X88359685Y-60982510D02*
X88288257Y-61053939D01*
X88288257Y-61053939D02*
X88216828Y-60982510D01*
X88216828Y-60982510D02*
X88359685Y-60982510D01*
X89645400Y-61625368D02*
X89716828Y-61768225D01*
X89716828Y-61768225D02*
X89716828Y-62053939D01*
X89716828Y-62053939D02*
X89645400Y-62196796D01*
X89645400Y-62196796D02*
X89502542Y-62268225D01*
X89502542Y-62268225D02*
X89431114Y-62268225D01*
X89431114Y-62268225D02*
X89288257Y-62196796D01*
X89288257Y-62196796D02*
X89216828Y-62053939D01*
X89216828Y-62053939D02*
X89216828Y-61839654D01*
X89216828Y-61839654D02*
X89145400Y-61696796D01*
X89145400Y-61696796D02*
X89002542Y-61625368D01*
X89002542Y-61625368D02*
X88931114Y-61625368D01*
X88931114Y-61625368D02*
X88788257Y-61696796D01*
X88788257Y-61696796D02*
X88716828Y-61839654D01*
X88716828Y-61839654D02*
X88716828Y-62053939D01*
X88716828Y-62053939D02*
X88788257Y-62196796D01*
X88716828Y-62911082D02*
X90216828Y-62911082D01*
X88788257Y-62911082D02*
X88716828Y-63053940D01*
X88716828Y-63053940D02*
X88716828Y-63339654D01*
X88716828Y-63339654D02*
X88788257Y-63482511D01*
X88788257Y-63482511D02*
X88859685Y-63553940D01*
X88859685Y-63553940D02*
X89002542Y-63625368D01*
X89002542Y-63625368D02*
X89431114Y-63625368D01*
X89431114Y-63625368D02*
X89573971Y-63553940D01*
X89573971Y-63553940D02*
X89645400Y-63482511D01*
X89645400Y-63482511D02*
X89716828Y-63339654D01*
X89716828Y-63339654D02*
X89716828Y-63053940D01*
X89716828Y-63053940D02*
X89645400Y-62911082D01*
X89716828Y-64482511D02*
X89645400Y-64339654D01*
X89645400Y-64339654D02*
X89502542Y-64268225D01*
X89502542Y-64268225D02*
X88216828Y-64268225D01*
X89716828Y-65696797D02*
X88931114Y-65696797D01*
X88931114Y-65696797D02*
X88788257Y-65625368D01*
X88788257Y-65625368D02*
X88716828Y-65482511D01*
X88716828Y-65482511D02*
X88716828Y-65196797D01*
X88716828Y-65196797D02*
X88788257Y-65053939D01*
X89645400Y-65696797D02*
X89716828Y-65553939D01*
X89716828Y-65553939D02*
X89716828Y-65196797D01*
X89716828Y-65196797D02*
X89645400Y-65053939D01*
X89645400Y-65053939D02*
X89502542Y-64982511D01*
X89502542Y-64982511D02*
X89359685Y-64982511D01*
X89359685Y-64982511D02*
X89216828Y-65053939D01*
X89216828Y-65053939D02*
X89145400Y-65196797D01*
X89145400Y-65196797D02*
X89145400Y-65553939D01*
X89145400Y-65553939D02*
X89073971Y-65696797D01*
X88716828Y-66268225D02*
X89716828Y-66625368D01*
X88716828Y-66982511D02*
X89716828Y-66625368D01*
X89716828Y-66625368D02*
X90073971Y-66482511D01*
X90073971Y-66482511D02*
X90145400Y-66411082D01*
X90145400Y-66411082D02*
X90216828Y-66268225D01*
X89716828Y-68696796D02*
X88716828Y-68696796D01*
X89002542Y-68696796D02*
X88859685Y-68768225D01*
X88859685Y-68768225D02*
X88788257Y-68839654D01*
X88788257Y-68839654D02*
X88716828Y-68982511D01*
X88716828Y-68982511D02*
X88716828Y-69125368D01*
X89716828Y-69839653D02*
X89645400Y-69696796D01*
X89645400Y-69696796D02*
X89573971Y-69625367D01*
X89573971Y-69625367D02*
X89431114Y-69553939D01*
X89431114Y-69553939D02*
X89002542Y-69553939D01*
X89002542Y-69553939D02*
X88859685Y-69625367D01*
X88859685Y-69625367D02*
X88788257Y-69696796D01*
X88788257Y-69696796D02*
X88716828Y-69839653D01*
X88716828Y-69839653D02*
X88716828Y-70053939D01*
X88716828Y-70053939D02*
X88788257Y-70196796D01*
X88788257Y-70196796D02*
X88859685Y-70268225D01*
X88859685Y-70268225D02*
X89002542Y-70339653D01*
X89002542Y-70339653D02*
X89431114Y-70339653D01*
X89431114Y-70339653D02*
X89573971Y-70268225D01*
X89573971Y-70268225D02*
X89645400Y-70196796D01*
X89645400Y-70196796D02*
X89716828Y-70053939D01*
X89716828Y-70053939D02*
X89716828Y-69839653D01*
X88716828Y-70768225D02*
X88716828Y-71339653D01*
X88216828Y-70982510D02*
X89502542Y-70982510D01*
X89502542Y-70982510D02*
X89645400Y-71053939D01*
X89645400Y-71053939D02*
X89716828Y-71196796D01*
X89716828Y-71196796D02*
X89716828Y-71339653D01*
X89716828Y-72482511D02*
X88931114Y-72482511D01*
X88931114Y-72482511D02*
X88788257Y-72411082D01*
X88788257Y-72411082D02*
X88716828Y-72268225D01*
X88716828Y-72268225D02*
X88716828Y-71982511D01*
X88716828Y-71982511D02*
X88788257Y-71839653D01*
X89645400Y-72482511D02*
X89716828Y-72339653D01*
X89716828Y-72339653D02*
X89716828Y-71982511D01*
X89716828Y-71982511D02*
X89645400Y-71839653D01*
X89645400Y-71839653D02*
X89502542Y-71768225D01*
X89502542Y-71768225D02*
X89359685Y-71768225D01*
X89359685Y-71768225D02*
X89216828Y-71839653D01*
X89216828Y-71839653D02*
X89145400Y-71982511D01*
X89145400Y-71982511D02*
X89145400Y-72339653D01*
X89145400Y-72339653D02*
X89073971Y-72482511D01*
X89716828Y-73196796D02*
X88716828Y-73196796D01*
X89002542Y-73196796D02*
X88859685Y-73268225D01*
X88859685Y-73268225D02*
X88788257Y-73339654D01*
X88788257Y-73339654D02*
X88716828Y-73482511D01*
X88716828Y-73482511D02*
X88716828Y-73625368D01*
X88716828Y-73982510D02*
X89716828Y-74339653D01*
X88716828Y-74696796D02*
X89716828Y-74339653D01*
X89716828Y-74339653D02*
X90073971Y-74196796D01*
X90073971Y-74196796D02*
X90145400Y-74125367D01*
X90145400Y-74125367D02*
X90216828Y-73982510D01*
X89645400Y-76982510D02*
X89716828Y-76839653D01*
X89716828Y-76839653D02*
X89716828Y-76553939D01*
X89716828Y-76553939D02*
X89645400Y-76411081D01*
X89645400Y-76411081D02*
X89502542Y-76339653D01*
X89502542Y-76339653D02*
X88931114Y-76339653D01*
X88931114Y-76339653D02*
X88788257Y-76411081D01*
X88788257Y-76411081D02*
X88716828Y-76553939D01*
X88716828Y-76553939D02*
X88716828Y-76839653D01*
X88716828Y-76839653D02*
X88788257Y-76982510D01*
X88788257Y-76982510D02*
X88931114Y-77053939D01*
X88931114Y-77053939D02*
X89073971Y-77053939D01*
X89073971Y-77053939D02*
X89216828Y-76339653D01*
X88716828Y-77696795D02*
X89716828Y-77696795D01*
X88859685Y-77696795D02*
X88788257Y-77768224D01*
X88788257Y-77768224D02*
X88716828Y-77911081D01*
X88716828Y-77911081D02*
X88716828Y-78125367D01*
X88716828Y-78125367D02*
X88788257Y-78268224D01*
X88788257Y-78268224D02*
X88931114Y-78339653D01*
X88931114Y-78339653D02*
X89716828Y-78339653D01*
X89645400Y-79696796D02*
X89716828Y-79553938D01*
X89716828Y-79553938D02*
X89716828Y-79268224D01*
X89716828Y-79268224D02*
X89645400Y-79125367D01*
X89645400Y-79125367D02*
X89573971Y-79053938D01*
X89573971Y-79053938D02*
X89431114Y-78982510D01*
X89431114Y-78982510D02*
X89002542Y-78982510D01*
X89002542Y-78982510D02*
X88859685Y-79053938D01*
X88859685Y-79053938D02*
X88788257Y-79125367D01*
X88788257Y-79125367D02*
X88716828Y-79268224D01*
X88716828Y-79268224D02*
X88716828Y-79553938D01*
X88716828Y-79553938D02*
X88788257Y-79696796D01*
X89716828Y-80553938D02*
X89645400Y-80411081D01*
X89645400Y-80411081D02*
X89573971Y-80339652D01*
X89573971Y-80339652D02*
X89431114Y-80268224D01*
X89431114Y-80268224D02*
X89002542Y-80268224D01*
X89002542Y-80268224D02*
X88859685Y-80339652D01*
X88859685Y-80339652D02*
X88788257Y-80411081D01*
X88788257Y-80411081D02*
X88716828Y-80553938D01*
X88716828Y-80553938D02*
X88716828Y-80768224D01*
X88716828Y-80768224D02*
X88788257Y-80911081D01*
X88788257Y-80911081D02*
X88859685Y-80982510D01*
X88859685Y-80982510D02*
X89002542Y-81053938D01*
X89002542Y-81053938D02*
X89431114Y-81053938D01*
X89431114Y-81053938D02*
X89573971Y-80982510D01*
X89573971Y-80982510D02*
X89645400Y-80911081D01*
X89645400Y-80911081D02*
X89716828Y-80768224D01*
X89716828Y-80768224D02*
X89716828Y-80553938D01*
X89716828Y-82339653D02*
X88216828Y-82339653D01*
X89645400Y-82339653D02*
X89716828Y-82196795D01*
X89716828Y-82196795D02*
X89716828Y-81911081D01*
X89716828Y-81911081D02*
X89645400Y-81768224D01*
X89645400Y-81768224D02*
X89573971Y-81696795D01*
X89573971Y-81696795D02*
X89431114Y-81625367D01*
X89431114Y-81625367D02*
X89002542Y-81625367D01*
X89002542Y-81625367D02*
X88859685Y-81696795D01*
X88859685Y-81696795D02*
X88788257Y-81768224D01*
X88788257Y-81768224D02*
X88716828Y-81911081D01*
X88716828Y-81911081D02*
X88716828Y-82196795D01*
X88716828Y-82196795D02*
X88788257Y-82339653D01*
X89645400Y-83625367D02*
X89716828Y-83482510D01*
X89716828Y-83482510D02*
X89716828Y-83196796D01*
X89716828Y-83196796D02*
X89645400Y-83053938D01*
X89645400Y-83053938D02*
X89502542Y-82982510D01*
X89502542Y-82982510D02*
X88931114Y-82982510D01*
X88931114Y-82982510D02*
X88788257Y-83053938D01*
X88788257Y-83053938D02*
X88716828Y-83196796D01*
X88716828Y-83196796D02*
X88716828Y-83482510D01*
X88716828Y-83482510D02*
X88788257Y-83625367D01*
X88788257Y-83625367D02*
X88931114Y-83696796D01*
X88931114Y-83696796D02*
X89073971Y-83696796D01*
X89073971Y-83696796D02*
X89216828Y-82982510D01*
X89716828Y-84339652D02*
X88716828Y-84339652D01*
X89002542Y-84339652D02*
X88859685Y-84411081D01*
X88859685Y-84411081D02*
X88788257Y-84482510D01*
X88788257Y-84482510D02*
X88716828Y-84625367D01*
X88716828Y-84625367D02*
X88716828Y-84768224D01*
X166147114Y-84239510D02*
X166218542Y-84453796D01*
X166218542Y-84453796D02*
X166289971Y-84525225D01*
X166289971Y-84525225D02*
X166432828Y-84596653D01*
X166432828Y-84596653D02*
X166647114Y-84596653D01*
X166647114Y-84596653D02*
X166789971Y-84525225D01*
X166789971Y-84525225D02*
X166861400Y-84453796D01*
X166861400Y-84453796D02*
X166932828Y-84310939D01*
X166932828Y-84310939D02*
X166932828Y-83739510D01*
X166932828Y-83739510D02*
X165432828Y-83739510D01*
X165432828Y-83739510D02*
X165432828Y-84239510D01*
X165432828Y-84239510D02*
X165504257Y-84382368D01*
X165504257Y-84382368D02*
X165575685Y-84453796D01*
X165575685Y-84453796D02*
X165718542Y-84525225D01*
X165718542Y-84525225D02*
X165861400Y-84525225D01*
X165861400Y-84525225D02*
X166004257Y-84453796D01*
X166004257Y-84453796D02*
X166075685Y-84382368D01*
X166075685Y-84382368D02*
X166147114Y-84239510D01*
X166147114Y-84239510D02*
X166147114Y-83739510D01*
X165932828Y-85882368D02*
X166932828Y-85882368D01*
X165932828Y-85239510D02*
X166718542Y-85239510D01*
X166718542Y-85239510D02*
X166861400Y-85310939D01*
X166861400Y-85310939D02*
X166932828Y-85453796D01*
X166932828Y-85453796D02*
X166932828Y-85668082D01*
X166932828Y-85668082D02*
X166861400Y-85810939D01*
X166861400Y-85810939D02*
X166789971Y-85882368D01*
X165932828Y-86382368D02*
X165932828Y-86953796D01*
X165432828Y-86596653D02*
X166718542Y-86596653D01*
X166718542Y-86596653D02*
X166861400Y-86668082D01*
X166861400Y-86668082D02*
X166932828Y-86810939D01*
X166932828Y-86810939D02*
X166932828Y-86953796D01*
X165932828Y-87239511D02*
X165932828Y-87810939D01*
X165432828Y-87453796D02*
X166718542Y-87453796D01*
X166718542Y-87453796D02*
X166861400Y-87525225D01*
X166861400Y-87525225D02*
X166932828Y-87668082D01*
X166932828Y-87668082D02*
X166932828Y-87810939D01*
X166932828Y-88525225D02*
X166861400Y-88382368D01*
X166861400Y-88382368D02*
X166789971Y-88310939D01*
X166789971Y-88310939D02*
X166647114Y-88239511D01*
X166647114Y-88239511D02*
X166218542Y-88239511D01*
X166218542Y-88239511D02*
X166075685Y-88310939D01*
X166075685Y-88310939D02*
X166004257Y-88382368D01*
X166004257Y-88382368D02*
X165932828Y-88525225D01*
X165932828Y-88525225D02*
X165932828Y-88739511D01*
X165932828Y-88739511D02*
X166004257Y-88882368D01*
X166004257Y-88882368D02*
X166075685Y-88953797D01*
X166075685Y-88953797D02*
X166218542Y-89025225D01*
X166218542Y-89025225D02*
X166647114Y-89025225D01*
X166647114Y-89025225D02*
X166789971Y-88953797D01*
X166789971Y-88953797D02*
X166861400Y-88882368D01*
X166861400Y-88882368D02*
X166932828Y-88739511D01*
X166932828Y-88739511D02*
X166932828Y-88525225D01*
X165932828Y-89668082D02*
X166932828Y-89668082D01*
X166075685Y-89668082D02*
X166004257Y-89739511D01*
X166004257Y-89739511D02*
X165932828Y-89882368D01*
X165932828Y-89882368D02*
X165932828Y-90096654D01*
X165932828Y-90096654D02*
X166004257Y-90239511D01*
X166004257Y-90239511D02*
X166147114Y-90310940D01*
X166147114Y-90310940D02*
X166932828Y-90310940D01*
X166861400Y-90953797D02*
X166932828Y-91096654D01*
X166932828Y-91096654D02*
X166932828Y-91382368D01*
X166932828Y-91382368D02*
X166861400Y-91525225D01*
X166861400Y-91525225D02*
X166718542Y-91596654D01*
X166718542Y-91596654D02*
X166647114Y-91596654D01*
X166647114Y-91596654D02*
X166504257Y-91525225D01*
X166504257Y-91525225D02*
X166432828Y-91382368D01*
X166432828Y-91382368D02*
X166432828Y-91168083D01*
X166432828Y-91168083D02*
X166361400Y-91025225D01*
X166361400Y-91025225D02*
X166218542Y-90953797D01*
X166218542Y-90953797D02*
X166147114Y-90953797D01*
X166147114Y-90953797D02*
X166004257Y-91025225D01*
X166004257Y-91025225D02*
X165932828Y-91168083D01*
X165932828Y-91168083D02*
X165932828Y-91382368D01*
X165932828Y-91382368D02*
X166004257Y-91525225D01*
X165432828Y-65118082D02*
X166504257Y-65118082D01*
X166504257Y-65118082D02*
X166718542Y-65046653D01*
X166718542Y-65046653D02*
X166861400Y-64903796D01*
X166861400Y-64903796D02*
X166932828Y-64689510D01*
X166932828Y-64689510D02*
X166932828Y-64546653D01*
X166932828Y-66046653D02*
X166861400Y-65903796D01*
X166861400Y-65903796D02*
X166789971Y-65832367D01*
X166789971Y-65832367D02*
X166647114Y-65760939D01*
X166647114Y-65760939D02*
X166218542Y-65760939D01*
X166218542Y-65760939D02*
X166075685Y-65832367D01*
X166075685Y-65832367D02*
X166004257Y-65903796D01*
X166004257Y-65903796D02*
X165932828Y-66046653D01*
X165932828Y-66046653D02*
X165932828Y-66260939D01*
X165932828Y-66260939D02*
X166004257Y-66403796D01*
X166004257Y-66403796D02*
X166075685Y-66475225D01*
X166075685Y-66475225D02*
X166218542Y-66546653D01*
X166218542Y-66546653D02*
X166647114Y-66546653D01*
X166647114Y-66546653D02*
X166789971Y-66475225D01*
X166789971Y-66475225D02*
X166861400Y-66403796D01*
X166861400Y-66403796D02*
X166932828Y-66260939D01*
X166932828Y-66260939D02*
X166932828Y-66046653D01*
X165932828Y-67046653D02*
X166932828Y-67403796D01*
X165932828Y-67760939D02*
X166932828Y-67403796D01*
X166932828Y-67403796D02*
X167289971Y-67260939D01*
X167289971Y-67260939D02*
X167361400Y-67189510D01*
X167361400Y-67189510D02*
X167432828Y-67046653D01*
X166861400Y-68260939D02*
X166932828Y-68403796D01*
X166932828Y-68403796D02*
X166932828Y-68689510D01*
X166932828Y-68689510D02*
X166861400Y-68832367D01*
X166861400Y-68832367D02*
X166718542Y-68903796D01*
X166718542Y-68903796D02*
X166647114Y-68903796D01*
X166647114Y-68903796D02*
X166504257Y-68832367D01*
X166504257Y-68832367D02*
X166432828Y-68689510D01*
X166432828Y-68689510D02*
X166432828Y-68475225D01*
X166432828Y-68475225D02*
X166361400Y-68332367D01*
X166361400Y-68332367D02*
X166218542Y-68260939D01*
X166218542Y-68260939D02*
X166147114Y-68260939D01*
X166147114Y-68260939D02*
X166004257Y-68332367D01*
X166004257Y-68332367D02*
X165932828Y-68475225D01*
X165932828Y-68475225D02*
X165932828Y-68689510D01*
X165932828Y-68689510D02*
X166004257Y-68832367D01*
X165932828Y-69332368D02*
X165932828Y-69903796D01*
X165432828Y-69546653D02*
X166718542Y-69546653D01*
X166718542Y-69546653D02*
X166861400Y-69618082D01*
X166861400Y-69618082D02*
X166932828Y-69760939D01*
X166932828Y-69760939D02*
X166932828Y-69903796D01*
X166932828Y-70403796D02*
X165932828Y-70403796D01*
X165432828Y-70403796D02*
X165504257Y-70332368D01*
X165504257Y-70332368D02*
X165575685Y-70403796D01*
X165575685Y-70403796D02*
X165504257Y-70475225D01*
X165504257Y-70475225D02*
X165432828Y-70403796D01*
X165432828Y-70403796D02*
X165575685Y-70403796D01*
X166861400Y-71760940D02*
X166932828Y-71618082D01*
X166932828Y-71618082D02*
X166932828Y-71332368D01*
X166932828Y-71332368D02*
X166861400Y-71189511D01*
X166861400Y-71189511D02*
X166789971Y-71118082D01*
X166789971Y-71118082D02*
X166647114Y-71046654D01*
X166647114Y-71046654D02*
X166218542Y-71046654D01*
X166218542Y-71046654D02*
X166075685Y-71118082D01*
X166075685Y-71118082D02*
X166004257Y-71189511D01*
X166004257Y-71189511D02*
X165932828Y-71332368D01*
X165932828Y-71332368D02*
X165932828Y-71618082D01*
X165932828Y-71618082D02*
X166004257Y-71760940D01*
X166932828Y-72403796D02*
X165432828Y-72403796D01*
X166361400Y-72546654D02*
X166932828Y-72975225D01*
X165932828Y-72975225D02*
X166504257Y-72403796D01*
D12*
X95769326Y-86100219D02*
X95769326Y-85100219D01*
X95197898Y-86100219D02*
X95626469Y-85528790D01*
X95197898Y-85100219D02*
X95769326Y-85671647D01*
X94769326Y-85576409D02*
X94435993Y-85576409D01*
X94293136Y-86100219D02*
X94769326Y-86100219D01*
X94769326Y-86100219D02*
X94769326Y-85100219D01*
X94769326Y-85100219D02*
X94293136Y-85100219D01*
X93674088Y-85624028D02*
X93674088Y-86100219D01*
X94007421Y-85100219D02*
X93674088Y-85624028D01*
X93674088Y-85624028D02*
X93340755Y-85100219D01*
X92816945Y-85100219D02*
X92721707Y-85100219D01*
X92721707Y-85100219D02*
X92626469Y-85147838D01*
X92626469Y-85147838D02*
X92578850Y-85195457D01*
X92578850Y-85195457D02*
X92531231Y-85290695D01*
X92531231Y-85290695D02*
X92483612Y-85481171D01*
X92483612Y-85481171D02*
X92483612Y-85719266D01*
X92483612Y-85719266D02*
X92531231Y-85909742D01*
X92531231Y-85909742D02*
X92578850Y-86004980D01*
X92578850Y-86004980D02*
X92626469Y-86052600D01*
X92626469Y-86052600D02*
X92721707Y-86100219D01*
X92721707Y-86100219D02*
X92816945Y-86100219D01*
X92816945Y-86100219D02*
X92912183Y-86052600D01*
X92912183Y-86052600D02*
X92959802Y-86004980D01*
X92959802Y-86004980D02*
X93007421Y-85909742D01*
X93007421Y-85909742D02*
X93055040Y-85719266D01*
X93055040Y-85719266D02*
X93055040Y-85481171D01*
X93055040Y-85481171D02*
X93007421Y-85290695D01*
X93007421Y-85290695D02*
X92959802Y-85195457D01*
X92959802Y-85195457D02*
X92912183Y-85147838D01*
X92912183Y-85147838D02*
X92816945Y-85100219D01*
X149534517Y-83496838D02*
X149629755Y-83449219D01*
X149629755Y-83449219D02*
X149772612Y-83449219D01*
X149772612Y-83449219D02*
X149915469Y-83496838D01*
X149915469Y-83496838D02*
X150010707Y-83592076D01*
X150010707Y-83592076D02*
X150058326Y-83687314D01*
X150058326Y-83687314D02*
X150105945Y-83877790D01*
X150105945Y-83877790D02*
X150105945Y-84020647D01*
X150105945Y-84020647D02*
X150058326Y-84211123D01*
X150058326Y-84211123D02*
X150010707Y-84306361D01*
X150010707Y-84306361D02*
X149915469Y-84401600D01*
X149915469Y-84401600D02*
X149772612Y-84449219D01*
X149772612Y-84449219D02*
X149677374Y-84449219D01*
X149677374Y-84449219D02*
X149534517Y-84401600D01*
X149534517Y-84401600D02*
X149486898Y-84353980D01*
X149486898Y-84353980D02*
X149486898Y-84020647D01*
X149486898Y-84020647D02*
X149677374Y-84020647D01*
X149058326Y-84449219D02*
X149058326Y-83449219D01*
X149058326Y-83449219D02*
X148486898Y-84449219D01*
X148486898Y-84449219D02*
X148486898Y-83449219D01*
X148010707Y-84449219D02*
X148010707Y-83449219D01*
X148010707Y-83449219D02*
X147772612Y-83449219D01*
X147772612Y-83449219D02*
X147629755Y-83496838D01*
X147629755Y-83496838D02*
X147534517Y-83592076D01*
X147534517Y-83592076D02*
X147486898Y-83687314D01*
X147486898Y-83687314D02*
X147439279Y-83877790D01*
X147439279Y-83877790D02*
X147439279Y-84020647D01*
X147439279Y-84020647D02*
X147486898Y-84211123D01*
X147486898Y-84211123D02*
X147534517Y-84306361D01*
X147534517Y-84306361D02*
X147629755Y-84401600D01*
X147629755Y-84401600D02*
X147772612Y-84449219D01*
X147772612Y-84449219D02*
X148010707Y-84449219D01*
X95245517Y-56826838D02*
X95340755Y-56779219D01*
X95340755Y-56779219D02*
X95483612Y-56779219D01*
X95483612Y-56779219D02*
X95626469Y-56826838D01*
X95626469Y-56826838D02*
X95721707Y-56922076D01*
X95721707Y-56922076D02*
X95769326Y-57017314D01*
X95769326Y-57017314D02*
X95816945Y-57207790D01*
X95816945Y-57207790D02*
X95816945Y-57350647D01*
X95816945Y-57350647D02*
X95769326Y-57541123D01*
X95769326Y-57541123D02*
X95721707Y-57636361D01*
X95721707Y-57636361D02*
X95626469Y-57731600D01*
X95626469Y-57731600D02*
X95483612Y-57779219D01*
X95483612Y-57779219D02*
X95388374Y-57779219D01*
X95388374Y-57779219D02*
X95245517Y-57731600D01*
X95245517Y-57731600D02*
X95197898Y-57683980D01*
X95197898Y-57683980D02*
X95197898Y-57350647D01*
X95197898Y-57350647D02*
X95388374Y-57350647D01*
X94769326Y-57779219D02*
X94769326Y-56779219D01*
X94769326Y-56779219D02*
X94197898Y-57779219D01*
X94197898Y-57779219D02*
X94197898Y-56779219D01*
X93721707Y-57779219D02*
X93721707Y-56779219D01*
X93721707Y-56779219D02*
X93483612Y-56779219D01*
X93483612Y-56779219D02*
X93340755Y-56826838D01*
X93340755Y-56826838D02*
X93245517Y-56922076D01*
X93245517Y-56922076D02*
X93197898Y-57017314D01*
X93197898Y-57017314D02*
X93150279Y-57207790D01*
X93150279Y-57207790D02*
X93150279Y-57350647D01*
X93150279Y-57350647D02*
X93197898Y-57541123D01*
X93197898Y-57541123D02*
X93245517Y-57636361D01*
X93245517Y-57636361D02*
X93340755Y-57731600D01*
X93340755Y-57731600D02*
X93483612Y-57779219D01*
X93483612Y-57779219D02*
X93721707Y-57779219D01*
X95197898Y-68040819D02*
X95531231Y-67564628D01*
X95769326Y-68040819D02*
X95769326Y-67040819D01*
X95769326Y-67040819D02*
X95388374Y-67040819D01*
X95388374Y-67040819D02*
X95293136Y-67088438D01*
X95293136Y-67088438D02*
X95245517Y-67136057D01*
X95245517Y-67136057D02*
X95197898Y-67231295D01*
X95197898Y-67231295D02*
X95197898Y-67374152D01*
X95197898Y-67374152D02*
X95245517Y-67469390D01*
X95245517Y-67469390D02*
X95293136Y-67517009D01*
X95293136Y-67517009D02*
X95388374Y-67564628D01*
X95388374Y-67564628D02*
X95769326Y-67564628D01*
X94769326Y-67517009D02*
X94435993Y-67517009D01*
X94293136Y-68040819D02*
X94769326Y-68040819D01*
X94769326Y-68040819D02*
X94769326Y-67040819D01*
X94769326Y-67040819D02*
X94293136Y-67040819D01*
X93912183Y-67993200D02*
X93769326Y-68040819D01*
X93769326Y-68040819D02*
X93531231Y-68040819D01*
X93531231Y-68040819D02*
X93435993Y-67993200D01*
X93435993Y-67993200D02*
X93388374Y-67945580D01*
X93388374Y-67945580D02*
X93340755Y-67850342D01*
X93340755Y-67850342D02*
X93340755Y-67755104D01*
X93340755Y-67755104D02*
X93388374Y-67659866D01*
X93388374Y-67659866D02*
X93435993Y-67612247D01*
X93435993Y-67612247D02*
X93531231Y-67564628D01*
X93531231Y-67564628D02*
X93721707Y-67517009D01*
X93721707Y-67517009D02*
X93816945Y-67469390D01*
X93816945Y-67469390D02*
X93864564Y-67421771D01*
X93864564Y-67421771D02*
X93912183Y-67326533D01*
X93912183Y-67326533D02*
X93912183Y-67231295D01*
X93912183Y-67231295D02*
X93864564Y-67136057D01*
X93864564Y-67136057D02*
X93816945Y-67088438D01*
X93816945Y-67088438D02*
X93721707Y-67040819D01*
X93721707Y-67040819D02*
X93483612Y-67040819D01*
X93483612Y-67040819D02*
X93340755Y-67088438D01*
X149788517Y-72955838D02*
X149883755Y-72908219D01*
X149883755Y-72908219D02*
X150026612Y-72908219D01*
X150026612Y-72908219D02*
X150169469Y-72955838D01*
X150169469Y-72955838D02*
X150264707Y-73051076D01*
X150264707Y-73051076D02*
X150312326Y-73146314D01*
X150312326Y-73146314D02*
X150359945Y-73336790D01*
X150359945Y-73336790D02*
X150359945Y-73479647D01*
X150359945Y-73479647D02*
X150312326Y-73670123D01*
X150312326Y-73670123D02*
X150264707Y-73765361D01*
X150264707Y-73765361D02*
X150169469Y-73860600D01*
X150169469Y-73860600D02*
X150026612Y-73908219D01*
X150026612Y-73908219D02*
X149931374Y-73908219D01*
X149931374Y-73908219D02*
X149788517Y-73860600D01*
X149788517Y-73860600D02*
X149740898Y-73812980D01*
X149740898Y-73812980D02*
X149740898Y-73479647D01*
X149740898Y-73479647D02*
X149931374Y-73479647D01*
X149312326Y-73908219D02*
X149312326Y-72908219D01*
X149312326Y-72908219D02*
X148740898Y-73908219D01*
X148740898Y-73908219D02*
X148740898Y-72908219D01*
X148264707Y-73908219D02*
X148264707Y-72908219D01*
X148264707Y-72908219D02*
X148026612Y-72908219D01*
X148026612Y-72908219D02*
X147883755Y-72955838D01*
X147883755Y-72955838D02*
X147788517Y-73051076D01*
X147788517Y-73051076D02*
X147740898Y-73146314D01*
X147740898Y-73146314D02*
X147693279Y-73336790D01*
X147693279Y-73336790D02*
X147693279Y-73479647D01*
X147693279Y-73479647D02*
X147740898Y-73670123D01*
X147740898Y-73670123D02*
X147788517Y-73765361D01*
X147788517Y-73765361D02*
X147883755Y-73860600D01*
X147883755Y-73860600D02*
X148026612Y-73908219D01*
X148026612Y-73908219D02*
X148264707Y-73908219D01*
X95197898Y-73076380D02*
X95245517Y-73124000D01*
X95245517Y-73124000D02*
X95388374Y-73171619D01*
X95388374Y-73171619D02*
X95483612Y-73171619D01*
X95483612Y-73171619D02*
X95626469Y-73124000D01*
X95626469Y-73124000D02*
X95721707Y-73028761D01*
X95721707Y-73028761D02*
X95769326Y-72933523D01*
X95769326Y-72933523D02*
X95816945Y-72743047D01*
X95816945Y-72743047D02*
X95816945Y-72600190D01*
X95816945Y-72600190D02*
X95769326Y-72409714D01*
X95769326Y-72409714D02*
X95721707Y-72314476D01*
X95721707Y-72314476D02*
X95626469Y-72219238D01*
X95626469Y-72219238D02*
X95483612Y-72171619D01*
X95483612Y-72171619D02*
X95388374Y-72171619D01*
X95388374Y-72171619D02*
X95245517Y-72219238D01*
X95245517Y-72219238D02*
X95197898Y-72266857D01*
X94816945Y-73124000D02*
X94674088Y-73171619D01*
X94674088Y-73171619D02*
X94435993Y-73171619D01*
X94435993Y-73171619D02*
X94340755Y-73124000D01*
X94340755Y-73124000D02*
X94293136Y-73076380D01*
X94293136Y-73076380D02*
X94245517Y-72981142D01*
X94245517Y-72981142D02*
X94245517Y-72885904D01*
X94245517Y-72885904D02*
X94293136Y-72790666D01*
X94293136Y-72790666D02*
X94340755Y-72743047D01*
X94340755Y-72743047D02*
X94435993Y-72695428D01*
X94435993Y-72695428D02*
X94626469Y-72647809D01*
X94626469Y-72647809D02*
X94721707Y-72600190D01*
X94721707Y-72600190D02*
X94769326Y-72552571D01*
X94769326Y-72552571D02*
X94816945Y-72457333D01*
X94816945Y-72457333D02*
X94816945Y-72362095D01*
X94816945Y-72362095D02*
X94769326Y-72266857D01*
X94769326Y-72266857D02*
X94721707Y-72219238D01*
X94721707Y-72219238D02*
X94626469Y-72171619D01*
X94626469Y-72171619D02*
X94388374Y-72171619D01*
X94388374Y-72171619D02*
X94245517Y-72219238D01*
X149724993Y-89005409D02*
X149582136Y-89053028D01*
X149582136Y-89053028D02*
X149534517Y-89100647D01*
X149534517Y-89100647D02*
X149486898Y-89195885D01*
X149486898Y-89195885D02*
X149486898Y-89338742D01*
X149486898Y-89338742D02*
X149534517Y-89433980D01*
X149534517Y-89433980D02*
X149582136Y-89481600D01*
X149582136Y-89481600D02*
X149677374Y-89529219D01*
X149677374Y-89529219D02*
X150058326Y-89529219D01*
X150058326Y-89529219D02*
X150058326Y-88529219D01*
X150058326Y-88529219D02*
X149724993Y-88529219D01*
X149724993Y-88529219D02*
X149629755Y-88576838D01*
X149629755Y-88576838D02*
X149582136Y-88624457D01*
X149582136Y-88624457D02*
X149534517Y-88719695D01*
X149534517Y-88719695D02*
X149534517Y-88814933D01*
X149534517Y-88814933D02*
X149582136Y-88910171D01*
X149582136Y-88910171D02*
X149629755Y-88957790D01*
X149629755Y-88957790D02*
X149724993Y-89005409D01*
X149724993Y-89005409D02*
X150058326Y-89005409D01*
X148534517Y-89529219D02*
X149105945Y-89529219D01*
X148820231Y-89529219D02*
X148820231Y-88529219D01*
X148820231Y-88529219D02*
X148915469Y-88672076D01*
X148915469Y-88672076D02*
X149010707Y-88767314D01*
X149010707Y-88767314D02*
X149105945Y-88814933D01*
X95197898Y-62814780D02*
X95245517Y-62862400D01*
X95245517Y-62862400D02*
X95388374Y-62910019D01*
X95388374Y-62910019D02*
X95483612Y-62910019D01*
X95483612Y-62910019D02*
X95626469Y-62862400D01*
X95626469Y-62862400D02*
X95721707Y-62767161D01*
X95721707Y-62767161D02*
X95769326Y-62671923D01*
X95769326Y-62671923D02*
X95816945Y-62481447D01*
X95816945Y-62481447D02*
X95816945Y-62338590D01*
X95816945Y-62338590D02*
X95769326Y-62148114D01*
X95769326Y-62148114D02*
X95721707Y-62052876D01*
X95721707Y-62052876D02*
X95626469Y-61957638D01*
X95626469Y-61957638D02*
X95483612Y-61910019D01*
X95483612Y-61910019D02*
X95388374Y-61910019D01*
X95388374Y-61910019D02*
X95245517Y-61957638D01*
X95245517Y-61957638D02*
X95197898Y-62005257D01*
X94293136Y-62910019D02*
X94769326Y-62910019D01*
X94769326Y-62910019D02*
X94769326Y-61910019D01*
X93959802Y-62910019D02*
X93959802Y-61910019D01*
X93388374Y-62910019D02*
X93816945Y-62338590D01*
X93388374Y-61910019D02*
X93959802Y-62481447D01*
X95769326Y-70606219D02*
X95769326Y-69606219D01*
X95769326Y-69606219D02*
X95531231Y-69606219D01*
X95531231Y-69606219D02*
X95388374Y-69653838D01*
X95388374Y-69653838D02*
X95293136Y-69749076D01*
X95293136Y-69749076D02*
X95245517Y-69844314D01*
X95245517Y-69844314D02*
X95197898Y-70034790D01*
X95197898Y-70034790D02*
X95197898Y-70177647D01*
X95197898Y-70177647D02*
X95245517Y-70368123D01*
X95245517Y-70368123D02*
X95293136Y-70463361D01*
X95293136Y-70463361D02*
X95388374Y-70558600D01*
X95388374Y-70558600D02*
X95531231Y-70606219D01*
X95531231Y-70606219D02*
X95769326Y-70606219D01*
X94197898Y-70510980D02*
X94245517Y-70558600D01*
X94245517Y-70558600D02*
X94388374Y-70606219D01*
X94388374Y-70606219D02*
X94483612Y-70606219D01*
X94483612Y-70606219D02*
X94626469Y-70558600D01*
X94626469Y-70558600D02*
X94721707Y-70463361D01*
X94721707Y-70463361D02*
X94769326Y-70368123D01*
X94769326Y-70368123D02*
X94816945Y-70177647D01*
X94816945Y-70177647D02*
X94816945Y-70034790D01*
X94816945Y-70034790D02*
X94769326Y-69844314D01*
X94769326Y-69844314D02*
X94721707Y-69749076D01*
X94721707Y-69749076D02*
X94626469Y-69653838D01*
X94626469Y-69653838D02*
X94483612Y-69606219D01*
X94483612Y-69606219D02*
X94388374Y-69606219D01*
X94388374Y-69606219D02*
X94245517Y-69653838D01*
X94245517Y-69653838D02*
X94197898Y-69701457D01*
X95912183Y-79867819D02*
X95340755Y-79867819D01*
X95626469Y-80867819D02*
X95626469Y-79867819D01*
X94435993Y-80867819D02*
X94769326Y-80391628D01*
X95007421Y-80867819D02*
X95007421Y-79867819D01*
X95007421Y-79867819D02*
X94626469Y-79867819D01*
X94626469Y-79867819D02*
X94531231Y-79915438D01*
X94531231Y-79915438D02*
X94483612Y-79963057D01*
X94483612Y-79963057D02*
X94435993Y-80058295D01*
X94435993Y-80058295D02*
X94435993Y-80201152D01*
X94435993Y-80201152D02*
X94483612Y-80296390D01*
X94483612Y-80296390D02*
X94531231Y-80344009D01*
X94531231Y-80344009D02*
X94626469Y-80391628D01*
X94626469Y-80391628D02*
X95007421Y-80391628D01*
X93674088Y-80344009D02*
X93531231Y-80391628D01*
X93531231Y-80391628D02*
X93483612Y-80439247D01*
X93483612Y-80439247D02*
X93435993Y-80534485D01*
X93435993Y-80534485D02*
X93435993Y-80677342D01*
X93435993Y-80677342D02*
X93483612Y-80772580D01*
X93483612Y-80772580D02*
X93531231Y-80820200D01*
X93531231Y-80820200D02*
X93626469Y-80867819D01*
X93626469Y-80867819D02*
X94007421Y-80867819D01*
X94007421Y-80867819D02*
X94007421Y-79867819D01*
X94007421Y-79867819D02*
X93674088Y-79867819D01*
X93674088Y-79867819D02*
X93578850Y-79915438D01*
X93578850Y-79915438D02*
X93531231Y-79963057D01*
X93531231Y-79963057D02*
X93483612Y-80058295D01*
X93483612Y-80058295D02*
X93483612Y-80153533D01*
X93483612Y-80153533D02*
X93531231Y-80248771D01*
X93531231Y-80248771D02*
X93578850Y-80296390D01*
X93578850Y-80296390D02*
X93674088Y-80344009D01*
X93674088Y-80344009D02*
X94007421Y-80344009D01*
X95864564Y-59344619D02*
X95245517Y-59344619D01*
X95245517Y-59344619D02*
X95578850Y-59725571D01*
X95578850Y-59725571D02*
X95435993Y-59725571D01*
X95435993Y-59725571D02*
X95340755Y-59773190D01*
X95340755Y-59773190D02*
X95293136Y-59820809D01*
X95293136Y-59820809D02*
X95245517Y-59916047D01*
X95245517Y-59916047D02*
X95245517Y-60154142D01*
X95245517Y-60154142D02*
X95293136Y-60249380D01*
X95293136Y-60249380D02*
X95340755Y-60297000D01*
X95340755Y-60297000D02*
X95435993Y-60344619D01*
X95435993Y-60344619D02*
X95721707Y-60344619D01*
X95721707Y-60344619D02*
X95816945Y-60297000D01*
X95816945Y-60297000D02*
X95864564Y-60249380D01*
X94959802Y-59344619D02*
X94626469Y-60344619D01*
X94626469Y-60344619D02*
X94293136Y-59344619D01*
X94055040Y-59344619D02*
X93435993Y-59344619D01*
X93435993Y-59344619D02*
X93769326Y-59725571D01*
X93769326Y-59725571D02*
X93626469Y-59725571D01*
X93626469Y-59725571D02*
X93531231Y-59773190D01*
X93531231Y-59773190D02*
X93483612Y-59820809D01*
X93483612Y-59820809D02*
X93435993Y-59916047D01*
X93435993Y-59916047D02*
X93435993Y-60154142D01*
X93435993Y-60154142D02*
X93483612Y-60249380D01*
X93483612Y-60249380D02*
X93531231Y-60297000D01*
X93531231Y-60297000D02*
X93626469Y-60344619D01*
X93626469Y-60344619D02*
X93912183Y-60344619D01*
X93912183Y-60344619D02*
X94007421Y-60297000D01*
X94007421Y-60297000D02*
X94055040Y-60249380D01*
X149534517Y-91116838D02*
X149629755Y-91069219D01*
X149629755Y-91069219D02*
X149772612Y-91069219D01*
X149772612Y-91069219D02*
X149915469Y-91116838D01*
X149915469Y-91116838D02*
X150010707Y-91212076D01*
X150010707Y-91212076D02*
X150058326Y-91307314D01*
X150058326Y-91307314D02*
X150105945Y-91497790D01*
X150105945Y-91497790D02*
X150105945Y-91640647D01*
X150105945Y-91640647D02*
X150058326Y-91831123D01*
X150058326Y-91831123D02*
X150010707Y-91926361D01*
X150010707Y-91926361D02*
X149915469Y-92021600D01*
X149915469Y-92021600D02*
X149772612Y-92069219D01*
X149772612Y-92069219D02*
X149677374Y-92069219D01*
X149677374Y-92069219D02*
X149534517Y-92021600D01*
X149534517Y-92021600D02*
X149486898Y-91973980D01*
X149486898Y-91973980D02*
X149486898Y-91640647D01*
X149486898Y-91640647D02*
X149677374Y-91640647D01*
X149058326Y-92069219D02*
X149058326Y-91069219D01*
X149058326Y-91069219D02*
X148486898Y-92069219D01*
X148486898Y-92069219D02*
X148486898Y-91069219D01*
X148010707Y-92069219D02*
X148010707Y-91069219D01*
X148010707Y-91069219D02*
X147772612Y-91069219D01*
X147772612Y-91069219D02*
X147629755Y-91116838D01*
X147629755Y-91116838D02*
X147534517Y-91212076D01*
X147534517Y-91212076D02*
X147486898Y-91307314D01*
X147486898Y-91307314D02*
X147439279Y-91497790D01*
X147439279Y-91497790D02*
X147439279Y-91640647D01*
X147439279Y-91640647D02*
X147486898Y-91831123D01*
X147486898Y-91831123D02*
X147534517Y-91926361D01*
X147534517Y-91926361D02*
X147629755Y-92021600D01*
X147629755Y-92021600D02*
X147772612Y-92069219D01*
X147772612Y-92069219D02*
X148010707Y-92069219D01*
X95435993Y-75213209D02*
X95293136Y-75260828D01*
X95293136Y-75260828D02*
X95245517Y-75308447D01*
X95245517Y-75308447D02*
X95197898Y-75403685D01*
X95197898Y-75403685D02*
X95197898Y-75546542D01*
X95197898Y-75546542D02*
X95245517Y-75641780D01*
X95245517Y-75641780D02*
X95293136Y-75689400D01*
X95293136Y-75689400D02*
X95388374Y-75737019D01*
X95388374Y-75737019D02*
X95769326Y-75737019D01*
X95769326Y-75737019D02*
X95769326Y-74737019D01*
X95769326Y-74737019D02*
X95435993Y-74737019D01*
X95435993Y-74737019D02*
X95340755Y-74784638D01*
X95340755Y-74784638D02*
X95293136Y-74832257D01*
X95293136Y-74832257D02*
X95245517Y-74927495D01*
X95245517Y-74927495D02*
X95245517Y-75022733D01*
X95245517Y-75022733D02*
X95293136Y-75117971D01*
X95293136Y-75117971D02*
X95340755Y-75165590D01*
X95340755Y-75165590D02*
X95435993Y-75213209D01*
X95435993Y-75213209D02*
X95769326Y-75213209D01*
X94293136Y-75737019D02*
X94769326Y-75737019D01*
X94769326Y-75737019D02*
X94769326Y-74737019D01*
X93959802Y-75737019D02*
X93959802Y-74737019D01*
X93388374Y-75737019D02*
X93816945Y-75165590D01*
X93388374Y-74737019D02*
X93959802Y-75308447D01*
X95912183Y-77302419D02*
X95340755Y-77302419D01*
X95626469Y-78302419D02*
X95626469Y-77302419D01*
X94435993Y-78302419D02*
X94769326Y-77826228D01*
X95007421Y-78302419D02*
X95007421Y-77302419D01*
X95007421Y-77302419D02*
X94626469Y-77302419D01*
X94626469Y-77302419D02*
X94531231Y-77350038D01*
X94531231Y-77350038D02*
X94483612Y-77397657D01*
X94483612Y-77397657D02*
X94435993Y-77492895D01*
X94435993Y-77492895D02*
X94435993Y-77635752D01*
X94435993Y-77635752D02*
X94483612Y-77730990D01*
X94483612Y-77730990D02*
X94531231Y-77778609D01*
X94531231Y-77778609D02*
X94626469Y-77826228D01*
X94626469Y-77826228D02*
X95007421Y-77826228D01*
X94055040Y-78016704D02*
X93578850Y-78016704D01*
X94150278Y-78302419D02*
X93816945Y-77302419D01*
X93816945Y-77302419D02*
X93483612Y-78302419D01*
X150407564Y-70368219D02*
X149788517Y-70368219D01*
X149788517Y-70368219D02*
X150121850Y-70749171D01*
X150121850Y-70749171D02*
X149978993Y-70749171D01*
X149978993Y-70749171D02*
X149883755Y-70796790D01*
X149883755Y-70796790D02*
X149836136Y-70844409D01*
X149836136Y-70844409D02*
X149788517Y-70939647D01*
X149788517Y-70939647D02*
X149788517Y-71177742D01*
X149788517Y-71177742D02*
X149836136Y-71272980D01*
X149836136Y-71272980D02*
X149883755Y-71320600D01*
X149883755Y-71320600D02*
X149978993Y-71368219D01*
X149978993Y-71368219D02*
X150264707Y-71368219D01*
X150264707Y-71368219D02*
X150359945Y-71320600D01*
X150359945Y-71320600D02*
X150407564Y-71272980D01*
X149502802Y-70368219D02*
X149169469Y-71368219D01*
X149169469Y-71368219D02*
X148836136Y-70368219D01*
X148598040Y-70368219D02*
X147978993Y-70368219D01*
X147978993Y-70368219D02*
X148312326Y-70749171D01*
X148312326Y-70749171D02*
X148169469Y-70749171D01*
X148169469Y-70749171D02*
X148074231Y-70796790D01*
X148074231Y-70796790D02*
X148026612Y-70844409D01*
X148026612Y-70844409D02*
X147978993Y-70939647D01*
X147978993Y-70939647D02*
X147978993Y-71177742D01*
X147978993Y-71177742D02*
X148026612Y-71272980D01*
X148026612Y-71272980D02*
X148074231Y-71320600D01*
X148074231Y-71320600D02*
X148169469Y-71368219D01*
X148169469Y-71368219D02*
X148455183Y-71368219D01*
X148455183Y-71368219D02*
X148550421Y-71320600D01*
X148550421Y-71320600D02*
X148598040Y-71272980D01*
X95816945Y-65427800D02*
X95674088Y-65475419D01*
X95674088Y-65475419D02*
X95435993Y-65475419D01*
X95435993Y-65475419D02*
X95340755Y-65427800D01*
X95340755Y-65427800D02*
X95293136Y-65380180D01*
X95293136Y-65380180D02*
X95245517Y-65284942D01*
X95245517Y-65284942D02*
X95245517Y-65189704D01*
X95245517Y-65189704D02*
X95293136Y-65094466D01*
X95293136Y-65094466D02*
X95340755Y-65046847D01*
X95340755Y-65046847D02*
X95435993Y-64999228D01*
X95435993Y-64999228D02*
X95626469Y-64951609D01*
X95626469Y-64951609D02*
X95721707Y-64903990D01*
X95721707Y-64903990D02*
X95769326Y-64856371D01*
X95769326Y-64856371D02*
X95816945Y-64761133D01*
X95816945Y-64761133D02*
X95816945Y-64665895D01*
X95816945Y-64665895D02*
X95769326Y-64570657D01*
X95769326Y-64570657D02*
X95721707Y-64523038D01*
X95721707Y-64523038D02*
X95626469Y-64475419D01*
X95626469Y-64475419D02*
X95388374Y-64475419D01*
X95388374Y-64475419D02*
X95245517Y-64523038D01*
X94816945Y-65475419D02*
X94816945Y-64475419D01*
X94816945Y-64475419D02*
X94578850Y-64475419D01*
X94578850Y-64475419D02*
X94435993Y-64523038D01*
X94435993Y-64523038D02*
X94340755Y-64618276D01*
X94340755Y-64618276D02*
X94293136Y-64713514D01*
X94293136Y-64713514D02*
X94245517Y-64903990D01*
X94245517Y-64903990D02*
X94245517Y-65046847D01*
X94245517Y-65046847D02*
X94293136Y-65237323D01*
X94293136Y-65237323D02*
X94340755Y-65332561D01*
X94340755Y-65332561D02*
X94435993Y-65427800D01*
X94435993Y-65427800D02*
X94578850Y-65475419D01*
X94578850Y-65475419D02*
X94816945Y-65475419D01*
X93864564Y-65189704D02*
X93388374Y-65189704D01*
X93959802Y-65475419D02*
X93626469Y-64475419D01*
X93626469Y-64475419D02*
X93293136Y-65475419D01*
X149724993Y-86465409D02*
X149582136Y-86513028D01*
X149582136Y-86513028D02*
X149534517Y-86560647D01*
X149534517Y-86560647D02*
X149486898Y-86655885D01*
X149486898Y-86655885D02*
X149486898Y-86798742D01*
X149486898Y-86798742D02*
X149534517Y-86893980D01*
X149534517Y-86893980D02*
X149582136Y-86941600D01*
X149582136Y-86941600D02*
X149677374Y-86989219D01*
X149677374Y-86989219D02*
X150058326Y-86989219D01*
X150058326Y-86989219D02*
X150058326Y-85989219D01*
X150058326Y-85989219D02*
X149724993Y-85989219D01*
X149724993Y-85989219D02*
X149629755Y-86036838D01*
X149629755Y-86036838D02*
X149582136Y-86084457D01*
X149582136Y-86084457D02*
X149534517Y-86179695D01*
X149534517Y-86179695D02*
X149534517Y-86274933D01*
X149534517Y-86274933D02*
X149582136Y-86370171D01*
X149582136Y-86370171D02*
X149629755Y-86417790D01*
X149629755Y-86417790D02*
X149724993Y-86465409D01*
X149724993Y-86465409D02*
X150058326Y-86465409D01*
X149105945Y-86084457D02*
X149058326Y-86036838D01*
X149058326Y-86036838D02*
X148963088Y-85989219D01*
X148963088Y-85989219D02*
X148724993Y-85989219D01*
X148724993Y-85989219D02*
X148629755Y-86036838D01*
X148629755Y-86036838D02*
X148582136Y-86084457D01*
X148582136Y-86084457D02*
X148534517Y-86179695D01*
X148534517Y-86179695D02*
X148534517Y-86274933D01*
X148534517Y-86274933D02*
X148582136Y-86417790D01*
X148582136Y-86417790D02*
X149153564Y-86989219D01*
X149153564Y-86989219D02*
X148534517Y-86989219D01*
X149740898Y-66288219D02*
X150074231Y-65812028D01*
X150312326Y-66288219D02*
X150312326Y-65288219D01*
X150312326Y-65288219D02*
X149931374Y-65288219D01*
X149931374Y-65288219D02*
X149836136Y-65335838D01*
X149836136Y-65335838D02*
X149788517Y-65383457D01*
X149788517Y-65383457D02*
X149740898Y-65478695D01*
X149740898Y-65478695D02*
X149740898Y-65621552D01*
X149740898Y-65621552D02*
X149788517Y-65716790D01*
X149788517Y-65716790D02*
X149836136Y-65764409D01*
X149836136Y-65764409D02*
X149931374Y-65812028D01*
X149931374Y-65812028D02*
X150312326Y-65812028D01*
X149121850Y-65812028D02*
X149121850Y-66288219D01*
X149455183Y-65288219D02*
X149121850Y-65812028D01*
X149121850Y-65812028D02*
X148788517Y-65288219D01*
X149740898Y-68828219D02*
X150074231Y-68352028D01*
X150312326Y-68828219D02*
X150312326Y-67828219D01*
X150312326Y-67828219D02*
X149931374Y-67828219D01*
X149931374Y-67828219D02*
X149836136Y-67875838D01*
X149836136Y-67875838D02*
X149788517Y-67923457D01*
X149788517Y-67923457D02*
X149740898Y-68018695D01*
X149740898Y-68018695D02*
X149740898Y-68161552D01*
X149740898Y-68161552D02*
X149788517Y-68256790D01*
X149788517Y-68256790D02*
X149836136Y-68304409D01*
X149836136Y-68304409D02*
X149931374Y-68352028D01*
X149931374Y-68352028D02*
X150312326Y-68352028D01*
X149407564Y-67828219D02*
X148740898Y-68828219D01*
X148740898Y-67828219D02*
X149407564Y-68828219D01*
X150359945Y-63700600D02*
X150217088Y-63748219D01*
X150217088Y-63748219D02*
X149978993Y-63748219D01*
X149978993Y-63748219D02*
X149883755Y-63700600D01*
X149883755Y-63700600D02*
X149836136Y-63652980D01*
X149836136Y-63652980D02*
X149788517Y-63557742D01*
X149788517Y-63557742D02*
X149788517Y-63462504D01*
X149788517Y-63462504D02*
X149836136Y-63367266D01*
X149836136Y-63367266D02*
X149883755Y-63319647D01*
X149883755Y-63319647D02*
X149978993Y-63272028D01*
X149978993Y-63272028D02*
X150169469Y-63224409D01*
X150169469Y-63224409D02*
X150264707Y-63176790D01*
X150264707Y-63176790D02*
X150312326Y-63129171D01*
X150312326Y-63129171D02*
X150359945Y-63033933D01*
X150359945Y-63033933D02*
X150359945Y-62938695D01*
X150359945Y-62938695D02*
X150312326Y-62843457D01*
X150312326Y-62843457D02*
X150264707Y-62795838D01*
X150264707Y-62795838D02*
X150169469Y-62748219D01*
X150169469Y-62748219D02*
X149931374Y-62748219D01*
X149931374Y-62748219D02*
X149788517Y-62795838D01*
X149455183Y-62748219D02*
X149217088Y-63748219D01*
X149217088Y-63748219D02*
X149026612Y-63033933D01*
X149026612Y-63033933D02*
X148836136Y-63748219D01*
X148836136Y-63748219D02*
X148598041Y-62748219D01*
X95769326Y-83433219D02*
X95769326Y-82433219D01*
X95769326Y-82433219D02*
X95388374Y-82433219D01*
X95388374Y-82433219D02*
X95293136Y-82480838D01*
X95293136Y-82480838D02*
X95245517Y-82528457D01*
X95245517Y-82528457D02*
X95197898Y-82623695D01*
X95197898Y-82623695D02*
X95197898Y-82766552D01*
X95197898Y-82766552D02*
X95245517Y-82861790D01*
X95245517Y-82861790D02*
X95293136Y-82909409D01*
X95293136Y-82909409D02*
X95388374Y-82957028D01*
X95388374Y-82957028D02*
X95769326Y-82957028D01*
X94769326Y-82433219D02*
X94769326Y-83242742D01*
X94769326Y-83242742D02*
X94721707Y-83337980D01*
X94721707Y-83337980D02*
X94674088Y-83385600D01*
X94674088Y-83385600D02*
X94578850Y-83433219D01*
X94578850Y-83433219D02*
X94388374Y-83433219D01*
X94388374Y-83433219D02*
X94293136Y-83385600D01*
X94293136Y-83385600D02*
X94245517Y-83337980D01*
X94245517Y-83337980D02*
X94197898Y-83242742D01*
X94197898Y-83242742D02*
X94197898Y-82433219D01*
X93769326Y-83385600D02*
X93626469Y-83433219D01*
X93626469Y-83433219D02*
X93388374Y-83433219D01*
X93388374Y-83433219D02*
X93293136Y-83385600D01*
X93293136Y-83385600D02*
X93245517Y-83337980D01*
X93245517Y-83337980D02*
X93197898Y-83242742D01*
X93197898Y-83242742D02*
X93197898Y-83147504D01*
X93197898Y-83147504D02*
X93245517Y-83052266D01*
X93245517Y-83052266D02*
X93293136Y-83004647D01*
X93293136Y-83004647D02*
X93388374Y-82957028D01*
X93388374Y-82957028D02*
X93578850Y-82909409D01*
X93578850Y-82909409D02*
X93674088Y-82861790D01*
X93674088Y-82861790D02*
X93721707Y-82814171D01*
X93721707Y-82814171D02*
X93769326Y-82718933D01*
X93769326Y-82718933D02*
X93769326Y-82623695D01*
X93769326Y-82623695D02*
X93721707Y-82528457D01*
X93721707Y-82528457D02*
X93674088Y-82480838D01*
X93674088Y-82480838D02*
X93578850Y-82433219D01*
X93578850Y-82433219D02*
X93340755Y-82433219D01*
X93340755Y-82433219D02*
X93197898Y-82480838D01*
X92769326Y-83433219D02*
X92769326Y-82433219D01*
X92769326Y-82909409D02*
X92197898Y-82909409D01*
X92197898Y-83433219D02*
X92197898Y-82433219D01*
D13*
X98583333Y-54184819D02*
X98583333Y-54899104D01*
X98583333Y-54899104D02*
X98630952Y-55041961D01*
X98630952Y-55041961D02*
X98726190Y-55137200D01*
X98726190Y-55137200D02*
X98869047Y-55184819D01*
X98869047Y-55184819D02*
X98964285Y-55184819D01*
X98202380Y-54184819D02*
X97583333Y-54184819D01*
X97583333Y-54184819D02*
X97916666Y-54565771D01*
X97916666Y-54565771D02*
X97773809Y-54565771D01*
X97773809Y-54565771D02*
X97678571Y-54613390D01*
X97678571Y-54613390D02*
X97630952Y-54661009D01*
X97630952Y-54661009D02*
X97583333Y-54756247D01*
X97583333Y-54756247D02*
X97583333Y-54994342D01*
X97583333Y-54994342D02*
X97630952Y-55089580D01*
X97630952Y-55089580D02*
X97678571Y-55137200D01*
X97678571Y-55137200D02*
X97773809Y-55184819D01*
X97773809Y-55184819D02*
X98059523Y-55184819D01*
X98059523Y-55184819D02*
X98154761Y-55137200D01*
X98154761Y-55137200D02*
X98202380Y-55089580D01*
X158067333Y-75130819D02*
X158067333Y-75845104D01*
X158067333Y-75845104D02*
X158114952Y-75987961D01*
X158114952Y-75987961D02*
X158210190Y-76083200D01*
X158210190Y-76083200D02*
X158353047Y-76130819D01*
X158353047Y-76130819D02*
X158448285Y-76130819D01*
X157067333Y-76130819D02*
X157638761Y-76130819D01*
X157353047Y-76130819D02*
X157353047Y-75130819D01*
X157353047Y-75130819D02*
X157448285Y-75273676D01*
X157448285Y-75273676D02*
X157543523Y-75368914D01*
X157543523Y-75368914D02*
X157638761Y-75416533D01*
X158067333Y-93164819D02*
X158067333Y-93879104D01*
X158067333Y-93879104D02*
X158114952Y-94021961D01*
X158114952Y-94021961D02*
X158210190Y-94117200D01*
X158210190Y-94117200D02*
X158353047Y-94164819D01*
X158353047Y-94164819D02*
X158448285Y-94164819D01*
X157638761Y-93260057D02*
X157591142Y-93212438D01*
X157591142Y-93212438D02*
X157495904Y-93164819D01*
X157495904Y-93164819D02*
X157257809Y-93164819D01*
X157257809Y-93164819D02*
X157162571Y-93212438D01*
X157162571Y-93212438D02*
X157114952Y-93260057D01*
X157114952Y-93260057D02*
X157067333Y-93355295D01*
X157067333Y-93355295D02*
X157067333Y-93450533D01*
X157067333Y-93450533D02*
X157114952Y-93593390D01*
X157114952Y-93593390D02*
X157686380Y-94164819D01*
X157686380Y-94164819D02*
X157067333Y-94164819D01*
X163983779Y-134242180D02*
X163983779Y-135242180D01*
X163983779Y-135242180D02*
X164364731Y-135242180D01*
X164364731Y-135242180D02*
X164459969Y-135194561D01*
X164459969Y-135194561D02*
X164507588Y-135146942D01*
X164507588Y-135146942D02*
X164555207Y-135051704D01*
X164555207Y-135051704D02*
X164555207Y-134908847D01*
X164555207Y-134908847D02*
X164507588Y-134813609D01*
X164507588Y-134813609D02*
X164459969Y-134765990D01*
X164459969Y-134765990D02*
X164364731Y-134718371D01*
X164364731Y-134718371D02*
X163983779Y-134718371D01*
X164983779Y-134242180D02*
X164983779Y-135242180D01*
X165459969Y-134242180D02*
X165459969Y-135242180D01*
X165459969Y-135242180D02*
X166031397Y-134242180D01*
X166031397Y-134242180D02*
X166031397Y-135242180D01*
X166459969Y-135146942D02*
X166507588Y-135194561D01*
X166507588Y-135194561D02*
X166602826Y-135242180D01*
X166602826Y-135242180D02*
X166840921Y-135242180D01*
X166840921Y-135242180D02*
X166936159Y-135194561D01*
X166936159Y-135194561D02*
X166983778Y-135146942D01*
X166983778Y-135146942D02*
X167031397Y-135051704D01*
X167031397Y-135051704D02*
X167031397Y-134956466D01*
X167031397Y-134956466D02*
X166983778Y-134813609D01*
X166983778Y-134813609D02*
X166412350Y-134242180D01*
X166412350Y-134242180D02*
X167031397Y-134242180D01*
X163983779Y-131702180D02*
X163983779Y-132702180D01*
X163983779Y-132702180D02*
X164364731Y-132702180D01*
X164364731Y-132702180D02*
X164459969Y-132654561D01*
X164459969Y-132654561D02*
X164507588Y-132606942D01*
X164507588Y-132606942D02*
X164555207Y-132511704D01*
X164555207Y-132511704D02*
X164555207Y-132368847D01*
X164555207Y-132368847D02*
X164507588Y-132273609D01*
X164507588Y-132273609D02*
X164459969Y-132225990D01*
X164459969Y-132225990D02*
X164364731Y-132178371D01*
X164364731Y-132178371D02*
X163983779Y-132178371D01*
X164983779Y-131702180D02*
X164983779Y-132702180D01*
X165459969Y-131702180D02*
X165459969Y-132702180D01*
X165459969Y-132702180D02*
X166031397Y-131702180D01*
X166031397Y-131702180D02*
X166031397Y-132702180D01*
X167031397Y-131702180D02*
X166459969Y-131702180D01*
X166745683Y-131702180D02*
X166745683Y-132702180D01*
X166745683Y-132702180D02*
X166650445Y-132559323D01*
X166650445Y-132559323D02*
X166555207Y-132464085D01*
X166555207Y-132464085D02*
X166459969Y-132416466D01*
D14*
%TO.C,J3*%
X99580000Y-58770000D02*
X99580000Y-86770000D01*
X99580000Y-58770000D02*
X96920000Y-58770000D01*
X99580000Y-86770000D02*
X96920000Y-86770000D01*
X98250000Y-56170000D02*
X96920000Y-56170000D01*
X96920000Y-56170000D02*
X96920000Y-57500000D01*
X96920000Y-58770000D02*
X96920000Y-86770000D01*
%TO.C,J1*%
X152079000Y-73406000D02*
X152079000Y-74676000D01*
X152079000Y-74676000D02*
X153349000Y-74676000D01*
X154426358Y-62816000D02*
X154739000Y-62816000D01*
X154426358Y-63676000D02*
X154739000Y-63676000D01*
X154426358Y-65356000D02*
X154739000Y-65356000D01*
X154426358Y-66216000D02*
X154739000Y-66216000D01*
X154426358Y-67896000D02*
X154739000Y-67896000D01*
X154426358Y-68756000D02*
X154739000Y-68756000D01*
X154426358Y-70436000D02*
X154739000Y-70436000D01*
X154426358Y-71296000D02*
X154739000Y-71296000D01*
X154509000Y-72976000D02*
X154739000Y-72976000D01*
X154509000Y-73836000D02*
X154739000Y-73836000D01*
X154739000Y-61866000D02*
X157499000Y-61866000D01*
X154739000Y-64516000D02*
X157499000Y-64516000D01*
X154739000Y-67056000D02*
X157499000Y-67056000D01*
X154739000Y-69596000D02*
X157499000Y-69596000D01*
X154739000Y-72136000D02*
X157499000Y-72136000D01*
X154739000Y-74786000D02*
X154739000Y-61866000D01*
X157499000Y-61866000D02*
X157499000Y-74786000D01*
X157499000Y-63676000D02*
X163499000Y-63676000D01*
X157499000Y-66216000D02*
X163499000Y-66216000D01*
X157499000Y-68756000D02*
X163499000Y-68756000D01*
X157499000Y-71296000D02*
X163499000Y-71296000D01*
X157499000Y-74786000D02*
X154739000Y-74786000D01*
X163499000Y-62816000D02*
X157499000Y-62816000D01*
X163499000Y-63676000D02*
X163499000Y-62816000D01*
X163499000Y-65356000D02*
X157499000Y-65356000D01*
X163499000Y-66216000D02*
X163499000Y-65356000D01*
X163499000Y-67896000D02*
X157499000Y-67896000D01*
X163499000Y-68756000D02*
X163499000Y-67896000D01*
X163499000Y-70436000D02*
X157499000Y-70436000D01*
X163499000Y-71296000D02*
X163499000Y-70436000D01*
X157499000Y-73836000D02*
X163499000Y-73836000D01*
X163499000Y-72976000D01*
X157499000Y-72976000D01*
X157499000Y-73836000D01*
G36*
X157499000Y-73836000D02*
G01*
X163499000Y-73836000D01*
X163499000Y-72976000D01*
X157499000Y-72976000D01*
X157499000Y-73836000D01*
G37*
%TO.C,J2*%
X152079000Y-91440000D02*
X152079000Y-92710000D01*
X152079000Y-92710000D02*
X153349000Y-92710000D01*
X154426358Y-83390000D02*
X154739000Y-83390000D01*
X154426358Y-84250000D02*
X154739000Y-84250000D01*
X154426358Y-85930000D02*
X154739000Y-85930000D01*
X154426358Y-86790000D02*
X154739000Y-86790000D01*
X154426358Y-88470000D02*
X154739000Y-88470000D01*
X154426358Y-89330000D02*
X154739000Y-89330000D01*
X154509000Y-91010000D02*
X154739000Y-91010000D01*
X154509000Y-91870000D02*
X154739000Y-91870000D01*
X154739000Y-82440000D02*
X157499000Y-82440000D01*
X154739000Y-85090000D02*
X157499000Y-85090000D01*
X154739000Y-87630000D02*
X157499000Y-87630000D01*
X154739000Y-90170000D02*
X157499000Y-90170000D01*
X154739000Y-92820000D02*
X154739000Y-82440000D01*
X157499000Y-82440000D02*
X157499000Y-92820000D01*
X157499000Y-84250000D02*
X163499000Y-84250000D01*
X157499000Y-86790000D02*
X163499000Y-86790000D01*
X157499000Y-89330000D02*
X163499000Y-89330000D01*
X157499000Y-92820000D02*
X154739000Y-92820000D01*
X163499000Y-83390000D02*
X157499000Y-83390000D01*
X163499000Y-84250000D02*
X163499000Y-83390000D01*
X163499000Y-85930000D02*
X157499000Y-85930000D01*
X163499000Y-86790000D02*
X163499000Y-85930000D01*
X163499000Y-88470000D02*
X157499000Y-88470000D01*
X163499000Y-89330000D02*
X163499000Y-88470000D01*
X157499000Y-91870000D02*
X163499000Y-91870000D01*
X163499000Y-91010000D01*
X157499000Y-91010000D01*
X157499000Y-91870000D01*
G36*
X157499000Y-91870000D02*
G01*
X163499000Y-91870000D01*
X163499000Y-91010000D01*
X157499000Y-91010000D01*
X157499000Y-91870000D01*
G37*
%TD*%
M02*
