%TF.GenerationSoftware,KiCad,Pcbnew,9.0.6*%
%TF.CreationDate,2026-02-25T03:49:56+07:00*%
%TF.ProjectId,Robot_remote,526f626f-745f-4726-956d-6f74652e6b69,rev?*%
%TF.SameCoordinates,Original*%
%TF.FileFunction,Legend,Top*%
%TF.FilePolarity,Positive*%
%FSLAX46Y46*%
G04 Gerber Fmt 4.6, Leading zero omitted, Abs format (unit mm)*
G04 Created by KiCad (PCBNEW 9.0.6) date 2026-02-25 03:49:56*
%MOMM*%
%LPD*%
G01*
G04 APERTURE LIST*
%ADD10C,0.500000*%
%ADD11C,0.200000*%
%ADD12C,0.150000*%
%ADD13C,0.120000*%
%ADD14C,0.127000*%
%ADD15C,0.100000*%
G04 APERTURE END LIST*
D10*
X159768904Y-60828423D02*
X164768904Y-60828423D01*
X164768904Y-60828423D02*
X164768904Y-62733185D01*
X164768904Y-62733185D02*
X164530809Y-63209375D01*
X164530809Y-63209375D02*
X164292714Y-63447470D01*
X164292714Y-63447470D02*
X163816523Y-63685566D01*
X163816523Y-63685566D02*
X163102238Y-63685566D01*
X163102238Y-63685566D02*
X162626047Y-63447470D01*
X162626047Y-63447470D02*
X162387952Y-63209375D01*
X162387952Y-63209375D02*
X162149857Y-62733185D01*
X162149857Y-62733185D02*
X162149857Y-60828423D01*
X164768904Y-65114137D02*
X159768904Y-66780804D01*
X159768904Y-66780804D02*
X164768904Y-68447470D01*
X159768904Y-70114137D02*
X164768904Y-70114137D01*
X164768904Y-70114137D02*
X164768904Y-71304613D01*
X164768904Y-71304613D02*
X164530809Y-72018899D01*
X164530809Y-72018899D02*
X164054619Y-72495089D01*
X164054619Y-72495089D02*
X163578428Y-72733184D01*
X163578428Y-72733184D02*
X162626047Y-72971280D01*
X162626047Y-72971280D02*
X161911761Y-72971280D01*
X161911761Y-72971280D02*
X160959380Y-72733184D01*
X160959380Y-72733184D02*
X160483190Y-72495089D01*
X160483190Y-72495089D02*
X160007000Y-72018899D01*
X160007000Y-72018899D02*
X159768904Y-71304613D01*
X159768904Y-71304613D02*
X159768904Y-70114137D01*
X164768904Y-74637946D02*
X159768904Y-75828422D01*
X159768904Y-75828422D02*
X163340333Y-76780803D01*
X163340333Y-76780803D02*
X159768904Y-77733184D01*
X159768904Y-77733184D02*
X164768904Y-78923661D01*
X164292714Y-84399851D02*
X164530809Y-84637947D01*
X164530809Y-84637947D02*
X164768904Y-85114137D01*
X164768904Y-85114137D02*
X164768904Y-86304613D01*
X164768904Y-86304613D02*
X164530809Y-86780804D01*
X164530809Y-86780804D02*
X164292714Y-87018899D01*
X164292714Y-87018899D02*
X163816523Y-87256994D01*
X163816523Y-87256994D02*
X163340333Y-87256994D01*
X163340333Y-87256994D02*
X162626047Y-87018899D01*
X162626047Y-87018899D02*
X159768904Y-84161756D01*
X159768904Y-84161756D02*
X159768904Y-87256994D01*
X164768904Y-90352233D02*
X164768904Y-90828423D01*
X164768904Y-90828423D02*
X164530809Y-91304614D01*
X164530809Y-91304614D02*
X164292714Y-91542709D01*
X164292714Y-91542709D02*
X163816523Y-91780804D01*
X163816523Y-91780804D02*
X162864142Y-92018899D01*
X162864142Y-92018899D02*
X161673666Y-92018899D01*
X161673666Y-92018899D02*
X160721285Y-91780804D01*
X160721285Y-91780804D02*
X160245095Y-91542709D01*
X160245095Y-91542709D02*
X160007000Y-91304614D01*
X160007000Y-91304614D02*
X159768904Y-90828423D01*
X159768904Y-90828423D02*
X159768904Y-90352233D01*
X159768904Y-90352233D02*
X160007000Y-89876042D01*
X160007000Y-89876042D02*
X160245095Y-89637947D01*
X160245095Y-89637947D02*
X160721285Y-89399852D01*
X160721285Y-89399852D02*
X161673666Y-89161756D01*
X161673666Y-89161756D02*
X162864142Y-89161756D01*
X162864142Y-89161756D02*
X163816523Y-89399852D01*
X163816523Y-89399852D02*
X164292714Y-89637947D01*
X164292714Y-89637947D02*
X164530809Y-89876042D01*
X164530809Y-89876042D02*
X164768904Y-90352233D01*
X164292714Y-93923661D02*
X164530809Y-94161757D01*
X164530809Y-94161757D02*
X164768904Y-94637947D01*
X164768904Y-94637947D02*
X164768904Y-95828423D01*
X164768904Y-95828423D02*
X164530809Y-96304614D01*
X164530809Y-96304614D02*
X164292714Y-96542709D01*
X164292714Y-96542709D02*
X163816523Y-96780804D01*
X163816523Y-96780804D02*
X163340333Y-96780804D01*
X163340333Y-96780804D02*
X162626047Y-96542709D01*
X162626047Y-96542709D02*
X159768904Y-93685566D01*
X159768904Y-93685566D02*
X159768904Y-96780804D01*
X164768904Y-101066519D02*
X164768904Y-100114138D01*
X164768904Y-100114138D02*
X164530809Y-99637947D01*
X164530809Y-99637947D02*
X164292714Y-99399852D01*
X164292714Y-99399852D02*
X163578428Y-98923662D01*
X163578428Y-98923662D02*
X162626047Y-98685566D01*
X162626047Y-98685566D02*
X160721285Y-98685566D01*
X160721285Y-98685566D02*
X160245095Y-98923662D01*
X160245095Y-98923662D02*
X160007000Y-99161757D01*
X160007000Y-99161757D02*
X159768904Y-99637947D01*
X159768904Y-99637947D02*
X159768904Y-100590328D01*
X159768904Y-100590328D02*
X160007000Y-101066519D01*
X160007000Y-101066519D02*
X160245095Y-101304614D01*
X160245095Y-101304614D02*
X160721285Y-101542709D01*
X160721285Y-101542709D02*
X161911761Y-101542709D01*
X161911761Y-101542709D02*
X162387952Y-101304614D01*
X162387952Y-101304614D02*
X162626047Y-101066519D01*
X162626047Y-101066519D02*
X162864142Y-100590328D01*
X162864142Y-100590328D02*
X162864142Y-99637947D01*
X162864142Y-99637947D02*
X162626047Y-99161757D01*
X162626047Y-99161757D02*
X162387952Y-98923662D01*
X162387952Y-98923662D02*
X161911761Y-98685566D01*
D11*
X157833816Y-134249219D02*
X158167149Y-135249219D01*
X158167149Y-135249219D02*
X158500482Y-134249219D01*
X159405244Y-135153980D02*
X159357625Y-135201600D01*
X159357625Y-135201600D02*
X159214768Y-135249219D01*
X159214768Y-135249219D02*
X159119530Y-135249219D01*
X159119530Y-135249219D02*
X158976673Y-135201600D01*
X158976673Y-135201600D02*
X158881435Y-135106361D01*
X158881435Y-135106361D02*
X158833816Y-135011123D01*
X158833816Y-135011123D02*
X158786197Y-134820647D01*
X158786197Y-134820647D02*
X158786197Y-134677790D01*
X158786197Y-134677790D02*
X158833816Y-134487314D01*
X158833816Y-134487314D02*
X158881435Y-134392076D01*
X158881435Y-134392076D02*
X158976673Y-134296838D01*
X158976673Y-134296838D02*
X159119530Y-134249219D01*
X159119530Y-134249219D02*
X159214768Y-134249219D01*
X159214768Y-134249219D02*
X159357625Y-134296838D01*
X159357625Y-134296838D02*
X159405244Y-134344457D01*
X160405244Y-135153980D02*
X160357625Y-135201600D01*
X160357625Y-135201600D02*
X160214768Y-135249219D01*
X160214768Y-135249219D02*
X160119530Y-135249219D01*
X160119530Y-135249219D02*
X159976673Y-135201600D01*
X159976673Y-135201600D02*
X159881435Y-135106361D01*
X159881435Y-135106361D02*
X159833816Y-135011123D01*
X159833816Y-135011123D02*
X159786197Y-134820647D01*
X159786197Y-134820647D02*
X159786197Y-134677790D01*
X159786197Y-134677790D02*
X159833816Y-134487314D01*
X159833816Y-134487314D02*
X159881435Y-134392076D01*
X159881435Y-134392076D02*
X159976673Y-134296838D01*
X159976673Y-134296838D02*
X160119530Y-134249219D01*
X160119530Y-134249219D02*
X160214768Y-134249219D01*
X160214768Y-134249219D02*
X160357625Y-134296838D01*
X160357625Y-134296838D02*
X160405244Y-134344457D01*
X158373482Y-131502838D02*
X158278244Y-131455219D01*
X158278244Y-131455219D02*
X158135387Y-131455219D01*
X158135387Y-131455219D02*
X157992530Y-131502838D01*
X157992530Y-131502838D02*
X157897292Y-131598076D01*
X157897292Y-131598076D02*
X157849673Y-131693314D01*
X157849673Y-131693314D02*
X157802054Y-131883790D01*
X157802054Y-131883790D02*
X157802054Y-132026647D01*
X157802054Y-132026647D02*
X157849673Y-132217123D01*
X157849673Y-132217123D02*
X157897292Y-132312361D01*
X157897292Y-132312361D02*
X157992530Y-132407600D01*
X157992530Y-132407600D02*
X158135387Y-132455219D01*
X158135387Y-132455219D02*
X158230625Y-132455219D01*
X158230625Y-132455219D02*
X158373482Y-132407600D01*
X158373482Y-132407600D02*
X158421101Y-132359980D01*
X158421101Y-132359980D02*
X158421101Y-132026647D01*
X158421101Y-132026647D02*
X158230625Y-132026647D01*
X158849673Y-132455219D02*
X158849673Y-131455219D01*
X158849673Y-131455219D02*
X159421101Y-132455219D01*
X159421101Y-132455219D02*
X159421101Y-131455219D01*
X159897292Y-132455219D02*
X159897292Y-131455219D01*
X159897292Y-131455219D02*
X160135387Y-131455219D01*
X160135387Y-131455219D02*
X160278244Y-131502838D01*
X160278244Y-131502838D02*
X160373482Y-131598076D01*
X160373482Y-131598076D02*
X160421101Y-131693314D01*
X160421101Y-131693314D02*
X160468720Y-131883790D01*
X160468720Y-131883790D02*
X160468720Y-132026647D01*
X160468720Y-132026647D02*
X160421101Y-132217123D01*
X160421101Y-132217123D02*
X160373482Y-132312361D01*
X160373482Y-132312361D02*
X160278244Y-132407600D01*
X160278244Y-132407600D02*
X160135387Y-132455219D01*
X160135387Y-132455219D02*
X159897292Y-132455219D01*
D12*
X164238095Y-43304819D02*
X164238095Y-42304819D01*
X164238095Y-42781009D02*
X164809523Y-42781009D01*
X164809523Y-43304819D02*
X164809523Y-42304819D01*
X165761904Y-42304819D02*
X165285714Y-42304819D01*
X165285714Y-42304819D02*
X165238095Y-42781009D01*
X165238095Y-42781009D02*
X165285714Y-42733390D01*
X165285714Y-42733390D02*
X165380952Y-42685771D01*
X165380952Y-42685771D02*
X165619047Y-42685771D01*
X165619047Y-42685771D02*
X165714285Y-42733390D01*
X165714285Y-42733390D02*
X165761904Y-42781009D01*
X165761904Y-42781009D02*
X165809523Y-42876247D01*
X165809523Y-42876247D02*
X165809523Y-43114342D01*
X165809523Y-43114342D02*
X165761904Y-43209580D01*
X165761904Y-43209580D02*
X165714285Y-43257200D01*
X165714285Y-43257200D02*
X165619047Y-43304819D01*
X165619047Y-43304819D02*
X165380952Y-43304819D01*
X165380952Y-43304819D02*
X165285714Y-43257200D01*
X165285714Y-43257200D02*
X165238095Y-43209580D01*
X104089295Y-136792619D02*
X104089295Y-137602142D01*
X104089295Y-137602142D02*
X104136914Y-137697380D01*
X104136914Y-137697380D02*
X104184533Y-137745000D01*
X104184533Y-137745000D02*
X104279771Y-137792619D01*
X104279771Y-137792619D02*
X104470247Y-137792619D01*
X104470247Y-137792619D02*
X104565485Y-137745000D01*
X104565485Y-137745000D02*
X104613104Y-137697380D01*
X104613104Y-137697380D02*
X104660723Y-137602142D01*
X104660723Y-137602142D02*
X104660723Y-136792619D01*
X105660723Y-137792619D02*
X105089295Y-137792619D01*
X105375009Y-137792619D02*
X105375009Y-136792619D01*
X105375009Y-136792619D02*
X105279771Y-136935476D01*
X105279771Y-136935476D02*
X105184533Y-137030714D01*
X105184533Y-137030714D02*
X105089295Y-137078333D01*
X122718533Y-133379380D02*
X122670914Y-133427000D01*
X122670914Y-133427000D02*
X122528057Y-133474619D01*
X122528057Y-133474619D02*
X122432819Y-133474619D01*
X122432819Y-133474619D02*
X122289962Y-133427000D01*
X122289962Y-133427000D02*
X122194724Y-133331761D01*
X122194724Y-133331761D02*
X122147105Y-133236523D01*
X122147105Y-133236523D02*
X122099486Y-133046047D01*
X122099486Y-133046047D02*
X122099486Y-132903190D01*
X122099486Y-132903190D02*
X122147105Y-132712714D01*
X122147105Y-132712714D02*
X122194724Y-132617476D01*
X122194724Y-132617476D02*
X122289962Y-132522238D01*
X122289962Y-132522238D02*
X122432819Y-132474619D01*
X122432819Y-132474619D02*
X122528057Y-132474619D01*
X122528057Y-132474619D02*
X122670914Y-132522238D01*
X122670914Y-132522238D02*
X122718533Y-132569857D01*
X123099486Y-132569857D02*
X123147105Y-132522238D01*
X123147105Y-132522238D02*
X123242343Y-132474619D01*
X123242343Y-132474619D02*
X123480438Y-132474619D01*
X123480438Y-132474619D02*
X123575676Y-132522238D01*
X123575676Y-132522238D02*
X123623295Y-132569857D01*
X123623295Y-132569857D02*
X123670914Y-132665095D01*
X123670914Y-132665095D02*
X123670914Y-132760333D01*
X123670914Y-132760333D02*
X123623295Y-132903190D01*
X123623295Y-132903190D02*
X123051867Y-133474619D01*
X123051867Y-133474619D02*
X123670914Y-133474619D01*
X164238095Y-113304819D02*
X164238095Y-112304819D01*
X164238095Y-112781009D02*
X164809523Y-112781009D01*
X164809523Y-113304819D02*
X164809523Y-112304819D01*
X165428571Y-112733390D02*
X165333333Y-112685771D01*
X165333333Y-112685771D02*
X165285714Y-112638152D01*
X165285714Y-112638152D02*
X165238095Y-112542914D01*
X165238095Y-112542914D02*
X165238095Y-112495295D01*
X165238095Y-112495295D02*
X165285714Y-112400057D01*
X165285714Y-112400057D02*
X165333333Y-112352438D01*
X165333333Y-112352438D02*
X165428571Y-112304819D01*
X165428571Y-112304819D02*
X165619047Y-112304819D01*
X165619047Y-112304819D02*
X165714285Y-112352438D01*
X165714285Y-112352438D02*
X165761904Y-112400057D01*
X165761904Y-112400057D02*
X165809523Y-112495295D01*
X165809523Y-112495295D02*
X165809523Y-112542914D01*
X165809523Y-112542914D02*
X165761904Y-112638152D01*
X165761904Y-112638152D02*
X165714285Y-112685771D01*
X165714285Y-112685771D02*
X165619047Y-112733390D01*
X165619047Y-112733390D02*
X165428571Y-112733390D01*
X165428571Y-112733390D02*
X165333333Y-112781009D01*
X165333333Y-112781009D02*
X165285714Y-112828628D01*
X165285714Y-112828628D02*
X165238095Y-112923866D01*
X165238095Y-112923866D02*
X165238095Y-113114342D01*
X165238095Y-113114342D02*
X165285714Y-113209580D01*
X165285714Y-113209580D02*
X165333333Y-113257200D01*
X165333333Y-113257200D02*
X165428571Y-113304819D01*
X165428571Y-113304819D02*
X165619047Y-113304819D01*
X165619047Y-113304819D02*
X165714285Y-113257200D01*
X165714285Y-113257200D02*
X165761904Y-113209580D01*
X165761904Y-113209580D02*
X165809523Y-113114342D01*
X165809523Y-113114342D02*
X165809523Y-112923866D01*
X165809523Y-112923866D02*
X165761904Y-112828628D01*
X165761904Y-112828628D02*
X165714285Y-112781009D01*
X165714285Y-112781009D02*
X165619047Y-112733390D01*
X89238095Y-43304819D02*
X89238095Y-42304819D01*
X89238095Y-42781009D02*
X89809523Y-42781009D01*
X89809523Y-43304819D02*
X89809523Y-42304819D01*
X90714285Y-42304819D02*
X90523809Y-42304819D01*
X90523809Y-42304819D02*
X90428571Y-42352438D01*
X90428571Y-42352438D02*
X90380952Y-42400057D01*
X90380952Y-42400057D02*
X90285714Y-42542914D01*
X90285714Y-42542914D02*
X90238095Y-42733390D01*
X90238095Y-42733390D02*
X90238095Y-43114342D01*
X90238095Y-43114342D02*
X90285714Y-43209580D01*
X90285714Y-43209580D02*
X90333333Y-43257200D01*
X90333333Y-43257200D02*
X90428571Y-43304819D01*
X90428571Y-43304819D02*
X90619047Y-43304819D01*
X90619047Y-43304819D02*
X90714285Y-43257200D01*
X90714285Y-43257200D02*
X90761904Y-43209580D01*
X90761904Y-43209580D02*
X90809523Y-43114342D01*
X90809523Y-43114342D02*
X90809523Y-42876247D01*
X90809523Y-42876247D02*
X90761904Y-42781009D01*
X90761904Y-42781009D02*
X90714285Y-42733390D01*
X90714285Y-42733390D02*
X90619047Y-42685771D01*
X90619047Y-42685771D02*
X90428571Y-42685771D01*
X90428571Y-42685771D02*
X90333333Y-42733390D01*
X90333333Y-42733390D02*
X90285714Y-42781009D01*
X90285714Y-42781009D02*
X90238095Y-42876247D01*
X119594333Y-133422380D02*
X119546714Y-133470000D01*
X119546714Y-133470000D02*
X119403857Y-133517619D01*
X119403857Y-133517619D02*
X119308619Y-133517619D01*
X119308619Y-133517619D02*
X119165762Y-133470000D01*
X119165762Y-133470000D02*
X119070524Y-133374761D01*
X119070524Y-133374761D02*
X119022905Y-133279523D01*
X119022905Y-133279523D02*
X118975286Y-133089047D01*
X118975286Y-133089047D02*
X118975286Y-132946190D01*
X118975286Y-132946190D02*
X119022905Y-132755714D01*
X119022905Y-132755714D02*
X119070524Y-132660476D01*
X119070524Y-132660476D02*
X119165762Y-132565238D01*
X119165762Y-132565238D02*
X119308619Y-132517619D01*
X119308619Y-132517619D02*
X119403857Y-132517619D01*
X119403857Y-132517619D02*
X119546714Y-132565238D01*
X119546714Y-132565238D02*
X119594333Y-132612857D01*
X120546714Y-133517619D02*
X119975286Y-133517619D01*
X120261000Y-133517619D02*
X120261000Y-132517619D01*
X120261000Y-132517619D02*
X120165762Y-132660476D01*
X120165762Y-132660476D02*
X120070524Y-132755714D01*
X120070524Y-132755714D02*
X119975286Y-132803333D01*
X120672295Y-46773019D02*
X120672295Y-47582542D01*
X120672295Y-47582542D02*
X120719914Y-47677780D01*
X120719914Y-47677780D02*
X120767533Y-47725400D01*
X120767533Y-47725400D02*
X120862771Y-47773019D01*
X120862771Y-47773019D02*
X121053247Y-47773019D01*
X121053247Y-47773019D02*
X121148485Y-47725400D01*
X121148485Y-47725400D02*
X121196104Y-47677780D01*
X121196104Y-47677780D02*
X121243723Y-47582542D01*
X121243723Y-47582542D02*
X121243723Y-46773019D01*
X121624676Y-46773019D02*
X122243723Y-46773019D01*
X122243723Y-46773019D02*
X121910390Y-47153971D01*
X121910390Y-47153971D02*
X122053247Y-47153971D01*
X122053247Y-47153971D02*
X122148485Y-47201590D01*
X122148485Y-47201590D02*
X122196104Y-47249209D01*
X122196104Y-47249209D02*
X122243723Y-47344447D01*
X122243723Y-47344447D02*
X122243723Y-47582542D01*
X122243723Y-47582542D02*
X122196104Y-47677780D01*
X122196104Y-47677780D02*
X122148485Y-47725400D01*
X122148485Y-47725400D02*
X122053247Y-47773019D01*
X122053247Y-47773019D02*
X121767533Y-47773019D01*
X121767533Y-47773019D02*
X121672295Y-47725400D01*
X121672295Y-47725400D02*
X121624676Y-47677780D01*
X89238095Y-113304819D02*
X89238095Y-112304819D01*
X89238095Y-112781009D02*
X89809523Y-112781009D01*
X89809523Y-113304819D02*
X89809523Y-112304819D01*
X90190476Y-112304819D02*
X90857142Y-112304819D01*
X90857142Y-112304819D02*
X90428571Y-113304819D01*
D13*
%TO.C,U1*%
X85125200Y-124876800D02*
X114325200Y-124876800D01*
X85125200Y-140326800D02*
X85125200Y-124876800D01*
X108661200Y-129082800D02*
X113995200Y-129082800D01*
X108661200Y-139750800D02*
X108661200Y-129082800D01*
X113995200Y-129082800D02*
X113995200Y-129082800D01*
X113995200Y-129082800D02*
X113995200Y-139750800D01*
X113995200Y-139750800D02*
X108661200Y-139750800D01*
X113995200Y-139750800D02*
X113995200Y-139750800D01*
X114325200Y-124876800D02*
X114325200Y-140326800D01*
X114325200Y-140326800D02*
X85125200Y-140326800D01*
X114325200Y-140326800D02*
X114325200Y-140326800D01*
X114861200Y-138466800D02*
X114525200Y-138226800D01*
X114861200Y-137986800D01*
X114861200Y-138466800D01*
G36*
X114861200Y-138466800D02*
G01*
X114525200Y-138226800D01*
X114861200Y-137986800D01*
X114861200Y-138466800D01*
G37*
%TO.C,C2*%
X122150200Y-136202052D02*
X122150200Y-135679548D01*
X123620200Y-136202052D02*
X123620200Y-135679548D01*
%TO.C,C1*%
X118899000Y-136223552D02*
X118899000Y-135701048D01*
X120369000Y-136223552D02*
X120369000Y-135701048D01*
D14*
%TO.C,U3*%
X118059200Y-48333200D02*
X143459200Y-48333200D01*
X118059200Y-111073200D02*
X118059200Y-48333200D01*
X143459200Y-48333200D02*
X143459200Y-111073200D01*
X143459200Y-111073200D02*
X118059200Y-111073200D01*
%TO.C,U2*%
D15*
X169377000Y-137287000D02*
X161077000Y-137287000D01*
X161077000Y-129667000D01*
X169377000Y-129667000D01*
X169377000Y-137287000D01*
%TD*%
M02*
