M48
; DRILL file {KiCad 9.0.6} date 2026-02-25T03:50:00+0700
; FORMAT={-:-/ absolute / metric / decimal}
; #@! TF.CreationDate,2026-02-25T03:50:00+07:00
; #@! TF.GenerationSoftware,Kicad,Pcbnew,9.0.6
; #@! TF.FileFunction,Plated,1,2,PTH
FMAT,2
METRIC
; #@! TA.AperFunction,Plated,PTH,ViaDrill
T1C0.300
; #@! TA.AperFunction,Plated,PTH,ComponentDrill
T2C0.900
; #@! TA.AperFunction,Plated,PTH,ComponentDrill
T3C1.000
; #@! TA.AperFunction,Plated,PTH,ComponentDrill
T4C1.020
%
G90
G05
T1
X90.551Y-67.564
X90.678Y-103.124
X90.805Y-57.277
X90.805Y-92.964
X91.44Y-78.486
X99.568Y-98.425
X100.33Y-66.802
X101.092Y-68.58
X102.108Y-70.104
X102.489Y-72.263
X102.997Y-74.295
X104.013Y-75.819
X105.156Y-90.424
X105.918Y-76.454
X109.474Y-71.501
X110.871Y-58.674
X110.871Y-61.214
X110.871Y-63.754
X111.125Y-66.294
X111.633Y-55.118
X111.887Y-73.914
X112.395Y-68.707
X112.395Y-97.155
X113.03Y-79.629
X113.03Y-82.677
X113.157Y-77.216
X113.157Y-115.697
X113.157Y-120.269
X113.284Y-106.934
X113.411Y-86.741
X113.411Y-102.489
X113.411Y-111.252
X113.538Y-84.836
X114.173Y-95.631
X114.681Y-86.741
X114.808Y-85.471
X115.062Y-93.98
X115.57Y-55.372
X115.697Y-61.087
X115.697Y-63.754
X115.824Y-66.167
X115.951Y-58.674
X116.078Y-68.834
X116.078Y-71.374
X116.205Y-73.914
X121.412Y-115.951
X121.666Y-120.904
X121.92Y-127.0
X126.111Y-137.033
X126.873Y-98.044
X132.715Y-69.215
X133.223Y-76.835
X133.858Y-87.757
X134.62Y-54.737
X135.509Y-61.595
X137.668Y-124.333
X138.049Y-132.842
X144.272Y-78.994
X144.526Y-58.674
X145.669Y-62.992
X146.558Y-133.35
X146.685Y-60.452
X147.193Y-64.516
X147.828Y-82.042
X147.955Y-55.753
X148.844Y-96.012
X149.225Y-66.802
X150.368Y-64.008
X150.876Y-59.69
X151.384Y-77.724
X151.511Y-102.235
X154.432Y-95.631
X155.321Y-124.46
X158.496Y-77.978
X158.623Y-102.108
X162.179Y-56.769
X163.703Y-95.25
X164.084Y-67.183
X164.211Y-78.232
X164.211Y-102.235
T2
X162.377Y-132.207
X162.377Y-134.747
T3
X98.25Y-57.5
X98.25Y-60.04
X98.25Y-62.58
X98.25Y-65.12
X98.25Y-67.66
X98.25Y-70.2
X98.25Y-72.74
X98.25Y-75.28
X98.25Y-77.82
X98.25Y-80.36
X98.25Y-82.9
X98.25Y-85.44
X110.185Y-130.607
X110.185Y-133.147
X110.185Y-135.687
X110.185Y-138.227
X112.725Y-130.607
X112.725Y-133.147
X112.725Y-135.687
X112.725Y-138.227
X153.349Y-63.246
X153.349Y-65.786
X153.349Y-68.326
X153.349Y-70.866
X153.349Y-73.406
X153.349Y-83.82
X153.349Y-86.36
X153.349Y-88.9
X153.349Y-91.44
T4
X119.329Y-49.733
X119.329Y-52.273
X119.329Y-54.813
X119.329Y-57.353
X119.329Y-59.893
X119.329Y-62.433
X119.329Y-64.973
X119.329Y-67.513
X119.329Y-70.053
X119.329Y-72.593
X119.329Y-75.133
X119.329Y-77.673
X119.329Y-80.213
X119.329Y-82.753
X119.329Y-85.293
X119.329Y-87.833
X119.329Y-90.373
X119.329Y-92.913
X119.329Y-95.453
X119.329Y-97.993
X119.329Y-100.533
X119.329Y-103.073
X142.189Y-49.733
X142.189Y-52.273
X142.189Y-54.813
X142.189Y-57.353
X142.189Y-59.893
X142.189Y-62.433
X142.189Y-64.973
X142.189Y-67.513
X142.189Y-70.053
X142.189Y-72.593
X142.189Y-75.133
X142.189Y-77.673
X142.189Y-80.213
X142.189Y-82.753
X142.189Y-85.293
X142.189Y-87.833
X142.189Y-90.373
X142.189Y-92.913
X142.189Y-95.453
X142.189Y-97.993
X142.189Y-100.533
X142.189Y-103.073
M30
