%TF.GenerationSoftware,KiCad,Pcbnew,9.0.6*%
%TF.CreationDate,2026-02-25T03:49:56+07:00*%
%TF.ProjectId,Robot_remote,526f626f-745f-4726-956d-6f74652e6b69,rev?*%
%TF.SameCoordinates,Original*%
%TF.FileFunction,Copper,L2,Bot*%
%TF.FilePolarity,Positive*%
%FSLAX46Y46*%
G04 Gerber Fmt 4.6, Leading zero omitted, Abs format (unit mm)*
G04 Created by KiCad (PCBNEW 9.0.6) date 2026-02-25 03:49:56*
%MOMM*%
%LPD*%
G01*
G04 APERTURE LIST*
G04 Aperture macros list*
%AMRoundRect*
0 Rectangle with rounded corners*
0 $1 Rounding radius*
0 $2 $3 $4 $5 $6 $7 $8 $9 X,Y pos of 4 corners*
0 Add a 4 corners polygon primitive as box body*
4,1,4,$2,$3,$4,$5,$6,$7,$8,$9,$2,$3,0*
0 Add four circle primitives for the rounded corners*
1,1,$1+$1,$2,$3*
1,1,$1+$1,$4,$5*
1,1,$1+$1,$6,$7*
1,1,$1+$1,$8,$9*
0 Add four rect primitives between the rounded corners*
20,1,$1+$1,$2,$3,$4,$5,0*
20,1,$1+$1,$4,$5,$6,$7,0*
20,1,$1+$1,$6,$7,$8,$9,0*
20,1,$1+$1,$8,$9,$2,$3,0*%
G04 Aperture macros list end*
%TA.AperFunction,ComponentPad*%
%ADD10R,1.700000X1.700000*%
%TD*%
%TA.AperFunction,ComponentPad*%
%ADD11C,1.700000*%
%TD*%
%TA.AperFunction,ComponentPad*%
%ADD12C,1.530000*%
%TD*%
%TA.AperFunction,ComponentPad*%
%ADD13C,1.905000*%
%TD*%
%TA.AperFunction,ComponentPad*%
%ADD14RoundRect,0.285750X0.666750X0.666750X-0.666750X0.666750X-0.666750X-0.666750X0.666750X-0.666750X0*%
%TD*%
%TA.AperFunction,ViaPad*%
%ADD15C,0.600000*%
%TD*%
%TA.AperFunction,Conductor*%
%ADD16C,0.200000*%
%TD*%
%TA.AperFunction,Conductor*%
%ADD17C,0.400000*%
%TD*%
G04 APERTURE END LIST*
D10*
%TO.P,J3,1,Pin_1*%
%TO.N,GND*%
X98250000Y-57500000D03*
D11*
%TO.P,J3,2,Pin_2*%
%TO.N,+3.3V*%
X98250000Y-60040000D03*
%TO.P,J3,3,Pin_3*%
%TO.N,/NRF_CLK*%
X98250000Y-62580000D03*
%TO.P,J3,4,Pin_4*%
%TO.N,/NRF_MOSI*%
X98250000Y-65120000D03*
%TO.P,J3,5,Pin_5*%
%TO.N,/RES*%
X98250000Y-67660000D03*
%TO.P,J3,6,Pin_6*%
%TO.N,/DC*%
X98250000Y-70200000D03*
%TO.P,J3,7,Pin_7*%
%TO.N,/CS*%
X98250000Y-72740000D03*
%TO.P,J3,8,Pin_8*%
%TO.N,/BLK*%
X98250000Y-75280000D03*
%TO.P,J3,9,Pin_9*%
%TO.N,/TRA*%
X98250000Y-77820000D03*
%TO.P,J3,10,Pin_10*%
%TO.N,/TRB*%
X98250000Y-80360000D03*
%TO.P,J3,11,Pin_11*%
%TO.N,/PUSH*%
X98250000Y-82900000D03*
%TO.P,J3,12,Pin_12*%
%TO.N,/KEY0*%
X98250000Y-85440000D03*
%TD*%
D10*
%TO.P,U1,1,GND*%
%TO.N,GND*%
X112725200Y-138226800D03*
D11*
%TO.P,U1,2,VCC*%
%TO.N,+3.3V*%
X110185200Y-138226800D03*
%TO.P,U1,3,CE*%
%TO.N,/NRF_CE*%
X112725200Y-135686800D03*
%TO.P,U1,4,~{CSN}*%
%TO.N,/NRF_CSN*%
X110185200Y-135686800D03*
%TO.P,U1,5,SCK*%
%TO.N,/NRF_CLK*%
X112725200Y-133146800D03*
%TO.P,U1,6,MOSI*%
%TO.N,/NRF_MOSI*%
X110185200Y-133146800D03*
%TO.P,U1,7,MISO*%
%TO.N,/NRF_MISO*%
X112725200Y-130606800D03*
%TO.P,U1,8,IRQ*%
%TO.N,/NRF_IRQ*%
X110185200Y-130606800D03*
%TD*%
D12*
%TO.P,U3,J1_1,3V3*%
%TO.N,+3.3V*%
X119329200Y-49733200D03*
%TO.P,U3,J1_2,3V3*%
X119329200Y-52273200D03*
%TO.P,U3,J1_3,RST*%
%TO.N,unconnected-(U3-RST-PadJ1_3)*%
X119329200Y-54813200D03*
%TO.P,U3,J1_4,GPIO4*%
%TO.N,/RES*%
X119329200Y-57353200D03*
%TO.P,U3,J1_5,GPIO5*%
%TO.N,/DC*%
X119329200Y-59893200D03*
%TO.P,U3,J1_6,GPIO6*%
%TO.N,/CS*%
X119329200Y-62433200D03*
%TO.P,U3,J1_7,GPIO7*%
%TO.N,/BLK*%
X119329200Y-64973200D03*
%TO.P,U3,J1_8,GPIO15*%
%TO.N,/TRA*%
X119329200Y-67513200D03*
%TO.P,U3,J1_9,GPIO16*%
%TO.N,/TRB*%
X119329200Y-70053200D03*
%TO.P,U3,J1_10,GPIO17*%
%TO.N,/PUSH*%
X119329200Y-72593200D03*
%TO.P,U3,J1_11,GPIO18*%
%TO.N,/KEY0*%
X119329200Y-75133200D03*
%TO.P,U3,J1_12,GPIO8*%
%TO.N,unconnected-(U3-GPIO8-PadJ1_12)*%
X119329200Y-77673200D03*
%TO.P,U3,J1_13,GPIO3*%
%TO.N,unconnected-(U3-GPIO3-PadJ1_13)*%
X119329200Y-80213200D03*
%TO.P,U3,J1_14,GPIO46*%
%TO.N,unconnected-(U3-GPIO46-PadJ1_14)*%
X119329200Y-82753200D03*
%TO.P,U3,J1_15,GPIO9*%
%TO.N,/NRF_CSN*%
X119329200Y-85293200D03*
%TO.P,U3,J1_16,GPIO10*%
%TO.N,/NRF_MOSI*%
X119329200Y-87833200D03*
%TO.P,U3,J1_17,GPIO11*%
%TO.N,/NRF_IRQ*%
X119329200Y-90373200D03*
%TO.P,U3,J1_18,GPIO12*%
%TO.N,/NRF_MISO*%
X119329200Y-92913200D03*
%TO.P,U3,J1_19,GPIO13*%
%TO.N,/NRF_CLK*%
X119329200Y-95453200D03*
%TO.P,U3,J1_20,GPIO14*%
%TO.N,/NRF_CE*%
X119329200Y-97993200D03*
%TO.P,U3,J1_21,5V0*%
%TO.N,+5V*%
X119329200Y-100533200D03*
%TO.P,U3,J1_22,GND*%
%TO.N,GND*%
X119329200Y-103073200D03*
%TO.P,U3,J3_1,GND*%
X142189200Y-49733200D03*
%TO.P,U3,J3_2,U0TXD/GPIO43*%
%TO.N,unconnected-(U3-U0TXD{slash}GPIO43-PadJ3_2)*%
X142189200Y-52273200D03*
%TO.P,U3,J3_3,U0RXD/GPIO44*%
%TO.N,unconnected-(U3-U0RXD{slash}GPIO44-PadJ3_3)*%
X142189200Y-54813200D03*
%TO.P,U3,J3_4,GPIO1*%
%TO.N,/RY*%
X142189200Y-57353200D03*
%TO.P,U3,J3_5,GPIO2*%
%TO.N,/RX*%
X142189200Y-59893200D03*
%TO.P,U3,J3_6,MTMS/GPIO42*%
%TO.N,/SW*%
X142189200Y-62433200D03*
%TO.P,U3,J3_7,MTDI/GPIO41*%
%TO.N,unconnected-(U3-MTDI{slash}GPIO41-PadJ3_7)*%
X142189200Y-64973200D03*
%TO.P,U3,J3_8,MTDO/GPIO40*%
%TO.N,unconnected-(U3-MTDO{slash}GPIO40-PadJ3_8)*%
X142189200Y-67513200D03*
%TO.P,U3,J3_9,MTCK/GPIO39*%
%TO.N,unconnected-(U3-MTCK{slash}GPIO39-PadJ3_9)*%
X142189200Y-70053200D03*
%TO.P,U3,J3_10,GPIO38*%
%TO.N,unconnected-(U3-GPIO38-PadJ3_10)*%
X142189200Y-72593200D03*
%TO.P,U3,J3_11,GPIO37*%
%TO.N,unconnected-(U3-GPIO37-PadJ3_11)*%
X142189200Y-75133200D03*
%TO.P,U3,J3_12,GPIO36*%
%TO.N,/B2*%
X142189200Y-77673200D03*
%TO.P,U3,J3_13,GPIO35*%
%TO.N,/B1*%
X142189200Y-80213200D03*
%TO.P,U3,J3_14,GPIO0*%
%TO.N,unconnected-(U3-GPIO0-PadJ3_14)*%
X142189200Y-82753200D03*
%TO.P,U3,J3_15,GPIO45*%
%TO.N,unconnected-(U3-GPIO45-PadJ3_15)*%
X142189200Y-85293200D03*
%TO.P,U3,J3_16,GPIO48*%
%TO.N,unconnected-(U3-GPIO48-PadJ3_16)*%
X142189200Y-87833200D03*
%TO.P,U3,J3_17,GPIO47*%
%TO.N,unconnected-(U3-GPIO47-PadJ3_17)*%
X142189200Y-90373200D03*
%TO.P,U3,J3_18,GPIO21*%
%TO.N,unconnected-(U3-GPIO21-PadJ3_18)*%
X142189200Y-92913200D03*
%TO.P,U3,J3_19,USB_D+/GPIO20*%
%TO.N,unconnected-(U3-USB_D+{slash}GPIO20-PadJ3_19)*%
X142189200Y-95453200D03*
%TO.P,U3,J3_20,USB_D-/GPIO19*%
%TO.N,unconnected-(U3-USB_D-{slash}GPIO19-PadJ3_20)*%
X142189200Y-97993200D03*
%TO.P,U3,J3_21,GND*%
%TO.N,GND*%
X142189200Y-100533200D03*
%TO.P,U3,J3_22,GND*%
X142189200Y-103073200D03*
%TD*%
D10*
%TO.P,J1,1,Pin_1*%
%TO.N,GND*%
X153349000Y-73406000D03*
D11*
%TO.P,J1,2,Pin_2*%
%TO.N,+3.3V*%
X153349000Y-70866000D03*
%TO.P,J1,3,Pin_3*%
%TO.N,/RX*%
X153349000Y-68326000D03*
%TO.P,J1,4,Pin_4*%
%TO.N,/RY*%
X153349000Y-65786000D03*
%TO.P,J1,5,Pin_5*%
%TO.N,/SW*%
X153349000Y-63246000D03*
%TD*%
D10*
%TO.P,J2,1,Pin_1*%
%TO.N,GND*%
X153349000Y-91440000D03*
D11*
%TO.P,J2,2,Pin_2*%
%TO.N,/B1*%
X153349000Y-88900000D03*
%TO.P,J2,3,Pin_3*%
%TO.N,/B2*%
X153349000Y-86360000D03*
%TO.P,J2,4,Pin_4*%
%TO.N,GND*%
X153349000Y-83820000D03*
%TD*%
D13*
%TO.P,U2,1,VCC*%
%TO.N,+5V*%
X162377000Y-134747000D03*
D14*
%TO.P,U2,2,GND*%
%TO.N,GND*%
X162377000Y-132207000D03*
%TD*%
D15*
%TO.N,GND*%
X155321000Y-124460000D03*
X146558000Y-133350000D03*
X138049000Y-132842000D03*
X121412000Y-115951000D03*
X121666000Y-120904000D03*
X121920000Y-127000000D03*
X164084000Y-67183000D03*
X147955000Y-55753000D03*
X150876000Y-59690000D03*
X146685000Y-60452000D03*
X144526000Y-58674000D03*
X150368000Y-64008000D03*
X144272000Y-78994000D03*
X147828000Y-82042000D03*
X100330000Y-66802000D03*
X101092000Y-68580000D03*
X102108000Y-70104000D03*
X102489000Y-72263000D03*
X102997000Y-74295000D03*
X104013000Y-75819000D03*
X105918000Y-76454000D03*
X116205000Y-73914000D03*
X111887000Y-73914000D03*
X109474000Y-71501000D03*
X116078000Y-71374000D03*
X112395000Y-68707000D03*
X116078000Y-68834000D03*
X111125000Y-66294000D03*
X115824000Y-66167000D03*
X110871000Y-63754000D03*
X115697000Y-63754000D03*
X110871000Y-61214000D03*
X115697000Y-61087000D03*
X110871000Y-58674000D03*
X115951000Y-58674000D03*
X111633000Y-55118000D03*
X115570000Y-55372000D03*
X90805000Y-57277000D03*
X90551000Y-67564000D03*
X91440000Y-78486000D03*
X90805000Y-92964000D03*
X90678000Y-103124000D03*
X99568000Y-98425000D03*
X105156000Y-90424000D03*
X133858000Y-87757000D03*
X133223000Y-76835000D03*
X132715000Y-69215000D03*
X135509000Y-61595000D03*
X134620000Y-54737000D03*
X162179000Y-56769000D03*
X149225000Y-66802000D03*
X147193000Y-64516000D03*
X145669000Y-62992000D03*
X164211000Y-78232000D03*
X158496000Y-77978000D03*
X151384000Y-77724000D03*
X148844000Y-96012000D03*
X154432000Y-95631000D03*
X163703000Y-95250000D03*
X164211000Y-102235000D03*
X158623000Y-102108000D03*
X151511000Y-102235000D03*
X113157000Y-77216000D03*
X113030000Y-79629000D03*
X113030000Y-82677000D03*
%TO.N,+3.3V*%
X126111000Y-137033000D03*
X126873000Y-98044000D03*
%TO.N,GND*%
X137668000Y-124333000D03*
X113157000Y-120269000D03*
X113157000Y-115697000D03*
X113411000Y-111252000D03*
X113284000Y-106934000D03*
X113411000Y-102489000D03*
X115062000Y-93980000D03*
X114173000Y-95631000D03*
X112395000Y-97155000D03*
X114681000Y-86741000D03*
X114808000Y-85471000D03*
X113411000Y-86741000D03*
X113538000Y-84836000D03*
%TD*%
D16*
%TO.N,/NRF_MOSI*%
X101600000Y-61341000D02*
X114808000Y-74549000D01*
X97663000Y-61341000D02*
X101600000Y-61341000D01*
X96901000Y-62103000D02*
X97663000Y-61341000D01*
X96901000Y-63771000D02*
X96901000Y-62103000D01*
X98250000Y-65120000D02*
X96901000Y-63771000D01*
X114808000Y-74549000D02*
X114808000Y-83312000D01*
X114808000Y-83312000D02*
X119329200Y-87833200D01*
D17*
%TO.N,+3.3V*%
X126873000Y-136271000D02*
X126111000Y-137033000D01*
X126873000Y-98044000D02*
X126873000Y-136271000D01*
D16*
%TO.N,/NRF_CLK*%
X111379000Y-87503000D02*
X119329200Y-95453200D01*
X111379000Y-75709000D02*
X111379000Y-87503000D01*
X98250000Y-62580000D02*
X111379000Y-75709000D01*
%TD*%
%TA.AperFunction,Conductor*%
%TO.N,GND*%
G36*
X101366942Y-61961185D02*
G01*
X101387584Y-61977819D01*
X114171181Y-74761416D01*
X114204666Y-74822739D01*
X114207500Y-74849097D01*
X114207500Y-83225330D01*
X114207499Y-83225348D01*
X114207499Y-83391054D01*
X114207498Y-83391054D01*
X114207499Y-83391057D01*
X114248423Y-83543785D01*
X114267957Y-83577618D01*
X114307639Y-83646350D01*
X114327479Y-83680715D01*
X114446349Y-83799585D01*
X114446355Y-83799590D01*
X118062941Y-87416176D01*
X118096426Y-87477499D01*
X118095838Y-87532788D01*
X118094861Y-87536859D01*
X118063700Y-87733603D01*
X118063700Y-87932796D01*
X118094861Y-88129540D01*
X118094861Y-88129543D01*
X118156413Y-88318980D01*
X118246847Y-88496466D01*
X118363931Y-88657618D01*
X118504782Y-88798469D01*
X118665934Y-88915553D01*
X118735653Y-88951077D01*
X118817372Y-88992715D01*
X118868168Y-89040690D01*
X118884963Y-89108511D01*
X118862425Y-89174646D01*
X118817372Y-89213685D01*
X118665933Y-89290847D01*
X118573990Y-89357647D01*
X118504782Y-89407931D01*
X118504780Y-89407933D01*
X118504779Y-89407933D01*
X118363933Y-89548779D01*
X118363933Y-89548780D01*
X118363931Y-89548782D01*
X118321040Y-89607816D01*
X118246847Y-89709933D01*
X118156413Y-89887419D01*
X118094861Y-90076856D01*
X118094861Y-90076859D01*
X118063700Y-90273603D01*
X118063700Y-90472796D01*
X118094861Y-90669540D01*
X118094861Y-90669543D01*
X118156413Y-90858980D01*
X118156415Y-90858983D01*
X118246847Y-91036466D01*
X118363931Y-91197618D01*
X118504782Y-91338469D01*
X118665934Y-91455553D01*
X118735653Y-91491077D01*
X118817372Y-91532715D01*
X118868168Y-91580690D01*
X118884963Y-91648511D01*
X118862425Y-91714646D01*
X118817372Y-91753685D01*
X118665933Y-91830847D01*
X118573990Y-91897647D01*
X118504782Y-91947931D01*
X118504780Y-91947933D01*
X118504779Y-91947933D01*
X118363933Y-92088779D01*
X118363933Y-92088780D01*
X118363931Y-92088782D01*
X118313647Y-92157990D01*
X118246847Y-92249933D01*
X118156413Y-92427419D01*
X118094861Y-92616856D01*
X118094861Y-92616859D01*
X118067438Y-92790000D01*
X118063700Y-92813603D01*
X118063700Y-93012797D01*
X118065288Y-93022821D01*
X118056331Y-93092114D01*
X118011334Y-93145565D01*
X117944582Y-93166203D01*
X117877269Y-93147477D01*
X117855133Y-93129897D01*
X112015819Y-87290583D01*
X111982334Y-87229260D01*
X111979500Y-87202902D01*
X111979500Y-75798059D01*
X111979501Y-75798046D01*
X111979501Y-75629945D01*
X111979501Y-75629943D01*
X111938577Y-75477215D01*
X111909639Y-75427095D01*
X111859520Y-75340284D01*
X111747716Y-75228480D01*
X111747715Y-75228479D01*
X111743385Y-75224149D01*
X111743374Y-75224139D01*
X99583757Y-63064522D01*
X99550272Y-63003199D01*
X99553507Y-62938523D01*
X99567246Y-62896243D01*
X99600500Y-62686287D01*
X99600500Y-62473713D01*
X99567246Y-62263757D01*
X99515277Y-62103816D01*
X99513283Y-62033977D01*
X99549363Y-61974144D01*
X99612064Y-61943316D01*
X99633209Y-61941500D01*
X101299903Y-61941500D01*
X101366942Y-61961185D01*
G37*
%TD.AperFunction*%
%TA.AperFunction,Conductor*%
G36*
X169442539Y-42520185D02*
G01*
X169488294Y-42572989D01*
X169499500Y-42624500D01*
X169499500Y-141375500D01*
X169479815Y-141442539D01*
X169427011Y-141488294D01*
X169375500Y-141499500D01*
X107387955Y-141499500D01*
X107320916Y-141479815D01*
X107275161Y-141427011D01*
X107263979Y-141377955D01*
X107263930Y-141375500D01*
X107157416Y-135996519D01*
X107048585Y-130500513D01*
X108834700Y-130500513D01*
X108834700Y-130713086D01*
X108867953Y-130923039D01*
X108933644Y-131125214D01*
X109030151Y-131314620D01*
X109155090Y-131486586D01*
X109305413Y-131636909D01*
X109477382Y-131761850D01*
X109486146Y-131766316D01*
X109536942Y-131814291D01*
X109553736Y-131882112D01*
X109531198Y-131948247D01*
X109486146Y-131987284D01*
X109477382Y-131991749D01*
X109305413Y-132116690D01*
X109155090Y-132267013D01*
X109030151Y-132438979D01*
X108933644Y-132628385D01*
X108867953Y-132830560D01*
X108834700Y-133040513D01*
X108834700Y-133253087D01*
X108867954Y-133463043D01*
X108925033Y-133638714D01*
X108933644Y-133665214D01*
X109030151Y-133854620D01*
X109155090Y-134026586D01*
X109305413Y-134176909D01*
X109477382Y-134301850D01*
X109486146Y-134306316D01*
X109536942Y-134354291D01*
X109553736Y-134422112D01*
X109531198Y-134488247D01*
X109486146Y-134527284D01*
X109477382Y-134531749D01*
X109305413Y-134656690D01*
X109155090Y-134807013D01*
X109030151Y-134978979D01*
X108933644Y-135168385D01*
X108867953Y-135370560D01*
X108834700Y-135580513D01*
X108834700Y-135793086D01*
X108866920Y-135996519D01*
X108867954Y-136003043D01*
X108932601Y-136202006D01*
X108933644Y-136205214D01*
X109030151Y-136394620D01*
X109155090Y-136566586D01*
X109305413Y-136716909D01*
X109477382Y-136841850D01*
X109486146Y-136846316D01*
X109536942Y-136894291D01*
X109553736Y-136962112D01*
X109531198Y-137028247D01*
X109486146Y-137067284D01*
X109477382Y-137071749D01*
X109305413Y-137196690D01*
X109155090Y-137347013D01*
X109030151Y-137518979D01*
X108933644Y-137708385D01*
X108867953Y-137910560D01*
X108866491Y-137919793D01*
X108834700Y-138120513D01*
X108834700Y-138333087D01*
X108844734Y-138396444D01*
X108867953Y-138543039D01*
X108933644Y-138745214D01*
X109030151Y-138934620D01*
X109155090Y-139106586D01*
X109305413Y-139256909D01*
X109477379Y-139381848D01*
X109477381Y-139381849D01*
X109477384Y-139381851D01*
X109666788Y-139478357D01*
X109868957Y-139544046D01*
X110078913Y-139577300D01*
X110078914Y-139577300D01*
X110291486Y-139577300D01*
X110291487Y-139577300D01*
X110501443Y-139544046D01*
X110703612Y-139478357D01*
X110893016Y-139381851D01*
X110979678Y-139318888D01*
X111064984Y-139256910D01*
X111064984Y-139256909D01*
X111064992Y-139256904D01*
X111178917Y-139142978D01*
X111240236Y-139109496D01*
X111309928Y-139114480D01*
X111365862Y-139156351D01*
X111382777Y-139187328D01*
X111431846Y-139318888D01*
X111431849Y-139318893D01*
X111518009Y-139433987D01*
X111518012Y-139433990D01*
X111633106Y-139520150D01*
X111633113Y-139520154D01*
X111767820Y-139570396D01*
X111767827Y-139570398D01*
X111827355Y-139576799D01*
X111827372Y-139576800D01*
X112475200Y-139576800D01*
X112475200Y-138659812D01*
X112532207Y-138692725D01*
X112659374Y-138726800D01*
X112791026Y-138726800D01*
X112918193Y-138692725D01*
X112975200Y-138659812D01*
X112975200Y-139576800D01*
X113623028Y-139576800D01*
X113623044Y-139576799D01*
X113682572Y-139570398D01*
X113682579Y-139570396D01*
X113817286Y-139520154D01*
X113817293Y-139520150D01*
X113932387Y-139433990D01*
X113932390Y-139433987D01*
X114018550Y-139318893D01*
X114018554Y-139318886D01*
X114068796Y-139184179D01*
X114068798Y-139184172D01*
X114075199Y-139124644D01*
X114075200Y-139124627D01*
X114075200Y-138476800D01*
X113158212Y-138476800D01*
X113191125Y-138419793D01*
X113225200Y-138292626D01*
X113225200Y-138160974D01*
X113191125Y-138033807D01*
X113158212Y-137976800D01*
X114075200Y-137976800D01*
X114075200Y-137328972D01*
X114075199Y-137328955D01*
X114068798Y-137269427D01*
X114068796Y-137269420D01*
X114018554Y-137134713D01*
X114018550Y-137134706D01*
X113934460Y-137022377D01*
X113932390Y-137019612D01*
X113932387Y-137019609D01*
X113844950Y-136954153D01*
X125310500Y-136954153D01*
X125310500Y-137111846D01*
X125341261Y-137266489D01*
X125341264Y-137266501D01*
X125401602Y-137412172D01*
X125401609Y-137412185D01*
X125489210Y-137543288D01*
X125489213Y-137543292D01*
X125600707Y-137654786D01*
X125600711Y-137654789D01*
X125731814Y-137742390D01*
X125731827Y-137742397D01*
X125776438Y-137760875D01*
X125877503Y-137802737D01*
X126032153Y-137833499D01*
X126032156Y-137833500D01*
X126032158Y-137833500D01*
X126189844Y-137833500D01*
X126189845Y-137833499D01*
X126344497Y-137802737D01*
X126490179Y-137742394D01*
X126621289Y-137654789D01*
X126732789Y-137543289D01*
X126820394Y-137412179D01*
X126820395Y-137412176D01*
X126820397Y-137412173D01*
X126880192Y-137267812D01*
X126907069Y-137227586D01*
X127417114Y-136717543D01*
X127493775Y-136602811D01*
X127546580Y-136475328D01*
X127555389Y-136431040D01*
X127573500Y-136339996D01*
X127573500Y-134632646D01*
X160924000Y-134632646D01*
X160924000Y-134861353D01*
X160959778Y-135087246D01*
X160959778Y-135087249D01*
X161030450Y-135304755D01*
X161134283Y-135508538D01*
X161268714Y-135693566D01*
X161430434Y-135855286D01*
X161615462Y-135989717D01*
X161819242Y-136093548D01*
X161819244Y-136093549D01*
X162036751Y-136164221D01*
X162036752Y-136164221D01*
X162036755Y-136164222D01*
X162262646Y-136200000D01*
X162262647Y-136200000D01*
X162491353Y-136200000D01*
X162491354Y-136200000D01*
X162717245Y-136164222D01*
X162717248Y-136164221D01*
X162717249Y-136164221D01*
X162934755Y-136093549D01*
X162934755Y-136093548D01*
X162934758Y-136093548D01*
X163138538Y-135989717D01*
X163323566Y-135855286D01*
X163485286Y-135693566D01*
X163619717Y-135508538D01*
X163723548Y-135304758D01*
X163723549Y-135304755D01*
X163794221Y-135087249D01*
X163794221Y-135087248D01*
X163794222Y-135087245D01*
X163830000Y-134861354D01*
X163830000Y-134632646D01*
X163794222Y-134406755D01*
X163794221Y-134406751D01*
X163794221Y-134406750D01*
X163723549Y-134189244D01*
X163717261Y-134176904D01*
X163619717Y-133985462D01*
X163485286Y-133800434D01*
X163425424Y-133740572D01*
X163391939Y-133679249D01*
X163389884Y-133639012D01*
X163396522Y-133580074D01*
X162465585Y-132649137D01*
X162550694Y-132626333D01*
X162653306Y-132567090D01*
X162737090Y-132483306D01*
X162796333Y-132380694D01*
X162819137Y-132295585D01*
X163750075Y-133226523D01*
X163756163Y-133216836D01*
X163756167Y-133216827D01*
X163814648Y-133049696D01*
X163829499Y-132917884D01*
X163829500Y-132917880D01*
X163829500Y-131496119D01*
X163829499Y-131496115D01*
X163814648Y-131364304D01*
X163756166Y-131197170D01*
X163750074Y-131187476D01*
X162819137Y-132118413D01*
X162796333Y-132033306D01*
X162737090Y-131930694D01*
X162653306Y-131846910D01*
X162550694Y-131787667D01*
X162465586Y-131764862D01*
X163396523Y-130833923D01*
X163386834Y-130827836D01*
X163219694Y-130769351D01*
X163087884Y-130754500D01*
X161666115Y-130754500D01*
X161534304Y-130769351D01*
X161367166Y-130827835D01*
X161357475Y-130833923D01*
X162288414Y-131764862D01*
X162203306Y-131787667D01*
X162100694Y-131846910D01*
X162016910Y-131930694D01*
X161957667Y-132033306D01*
X161934862Y-132118414D01*
X161003923Y-131187475D01*
X160997835Y-131197166D01*
X160939351Y-131364304D01*
X160924500Y-131496115D01*
X160924500Y-132917884D01*
X160939351Y-133049694D01*
X160997836Y-133216834D01*
X161003923Y-133226522D01*
X161934862Y-132295585D01*
X161957667Y-132380694D01*
X162016910Y-132483306D01*
X162100694Y-132567090D01*
X162203306Y-132626333D01*
X162288414Y-132649137D01*
X161357476Y-133580074D01*
X161364115Y-133639011D01*
X161352058Y-133707832D01*
X161328576Y-133740572D01*
X161268713Y-133800434D01*
X161134283Y-133985461D01*
X161030450Y-134189244D01*
X160959778Y-134406750D01*
X160959778Y-134406753D01*
X160924000Y-134632646D01*
X127573500Y-134632646D01*
X127573500Y-112805683D01*
X148549500Y-112805683D01*
X148549500Y-113194316D01*
X148583371Y-113581462D01*
X148583371Y-113581466D01*
X148650853Y-113964172D01*
X148650857Y-113964189D01*
X148751435Y-114339555D01*
X148884362Y-114704768D01*
X149048587Y-115056952D01*
X149048600Y-115056976D01*
X149242905Y-115393521D01*
X149242914Y-115393536D01*
X149465821Y-115711880D01*
X149656358Y-115938952D01*
X149715621Y-116009579D01*
X149990421Y-116284379D01*
X150096361Y-116373273D01*
X150288119Y-116534178D01*
X150288125Y-116534182D01*
X150288126Y-116534183D01*
X150606470Y-116757090D01*
X150921894Y-116939200D01*
X150943023Y-116951399D01*
X150943047Y-116951412D01*
X151295231Y-117115637D01*
X151295236Y-117115638D01*
X151295245Y-117115643D01*
X151660434Y-117248561D01*
X151660440Y-117248562D01*
X151660444Y-117248564D01*
X151762666Y-117275954D01*
X152035818Y-117349145D01*
X152418540Y-117416629D01*
X152805685Y-117450499D01*
X152805686Y-117450500D01*
X152805687Y-117450500D01*
X153194314Y-117450500D01*
X153194314Y-117450499D01*
X153581460Y-117416629D01*
X153964182Y-117349145D01*
X154339566Y-117248561D01*
X154704755Y-117115643D01*
X154704768Y-117115637D01*
X155056952Y-116951412D01*
X155056960Y-116951407D01*
X155056970Y-116951403D01*
X155182876Y-116878711D01*
X163149500Y-116878711D01*
X163149500Y-117121288D01*
X163179497Y-117349146D01*
X163181162Y-117361789D01*
X163204932Y-117450499D01*
X163243947Y-117596104D01*
X163336773Y-117820205D01*
X163336776Y-117820212D01*
X163458064Y-118030289D01*
X163458066Y-118030292D01*
X163458067Y-118030293D01*
X163605733Y-118222736D01*
X163605739Y-118222743D01*
X163777256Y-118394260D01*
X163777262Y-118394265D01*
X163969711Y-118541936D01*
X164179788Y-118663224D01*
X164403900Y-118756054D01*
X164638211Y-118818838D01*
X164818586Y-118842584D01*
X164878711Y-118850500D01*
X164878712Y-118850500D01*
X165121289Y-118850500D01*
X165169388Y-118844167D01*
X165361789Y-118818838D01*
X165596100Y-118756054D01*
X165820212Y-118663224D01*
X166030289Y-118541936D01*
X166222738Y-118394265D01*
X166394265Y-118222738D01*
X166541936Y-118030289D01*
X166663224Y-117820212D01*
X166756054Y-117596100D01*
X166818838Y-117361789D01*
X166850500Y-117121288D01*
X166850500Y-116878712D01*
X166818838Y-116638211D01*
X166756054Y-116403900D01*
X166663224Y-116179788D01*
X166541936Y-115969711D01*
X166394265Y-115777262D01*
X166394260Y-115777256D01*
X166222743Y-115605739D01*
X166222736Y-115605733D01*
X166030293Y-115458067D01*
X166030292Y-115458066D01*
X166030289Y-115458064D01*
X165820212Y-115336776D01*
X165820205Y-115336773D01*
X165596104Y-115243947D01*
X165361785Y-115181161D01*
X165121289Y-115149500D01*
X165121288Y-115149500D01*
X164878712Y-115149500D01*
X164878711Y-115149500D01*
X164638214Y-115181161D01*
X164403895Y-115243947D01*
X164179794Y-115336773D01*
X164179785Y-115336777D01*
X163969706Y-115458067D01*
X163777263Y-115605733D01*
X163777256Y-115605739D01*
X163605739Y-115777256D01*
X163605733Y-115777263D01*
X163458067Y-115969706D01*
X163336777Y-116179785D01*
X163336773Y-116179794D01*
X163243947Y-116403895D01*
X163181161Y-116638214D01*
X163149500Y-116878711D01*
X155182876Y-116878711D01*
X155393530Y-116757090D01*
X155711874Y-116534183D01*
X156009579Y-116284379D01*
X156284379Y-116009579D01*
X156534183Y-115711874D01*
X156757090Y-115393530D01*
X156951403Y-115056970D01*
X156951407Y-115056960D01*
X156951412Y-115056952D01*
X157115637Y-114704768D01*
X157115637Y-114704767D01*
X157115643Y-114704755D01*
X157248561Y-114339566D01*
X157349145Y-113964182D01*
X157416629Y-113581460D01*
X157450500Y-113194313D01*
X157450500Y-112805687D01*
X157416629Y-112418540D01*
X157349145Y-112035818D01*
X157248561Y-111660434D01*
X157115643Y-111295245D01*
X157115638Y-111295236D01*
X157115637Y-111295231D01*
X156951412Y-110943047D01*
X156951399Y-110943023D01*
X156939200Y-110921894D01*
X156757090Y-110606470D01*
X156534183Y-110288126D01*
X156534182Y-110288125D01*
X156534178Y-110288119D01*
X156284376Y-109990418D01*
X156009581Y-109715623D01*
X155711880Y-109465821D01*
X155393536Y-109242914D01*
X155393533Y-109242912D01*
X155393530Y-109242910D01*
X155293538Y-109185179D01*
X155056976Y-109048600D01*
X155056952Y-109048587D01*
X154704768Y-108884362D01*
X154704757Y-108884358D01*
X154704755Y-108884357D01*
X154339566Y-108751439D01*
X154339565Y-108751438D01*
X154339555Y-108751435D01*
X153964189Y-108650857D01*
X153964192Y-108650857D01*
X153964182Y-108650855D01*
X153964176Y-108650853D01*
X153964172Y-108650853D01*
X153581464Y-108583371D01*
X153194316Y-108549500D01*
X153194313Y-108549500D01*
X152805687Y-108549500D01*
X152805683Y-108549500D01*
X152418537Y-108583371D01*
X152418533Y-108583371D01*
X152035827Y-108650853D01*
X152035810Y-108650857D01*
X151660444Y-108751435D01*
X151295231Y-108884362D01*
X150943047Y-109048587D01*
X150943023Y-109048600D01*
X150606478Y-109242905D01*
X150606463Y-109242914D01*
X150288119Y-109465821D01*
X149990418Y-109715623D01*
X149715623Y-109990418D01*
X149465821Y-110288119D01*
X149242914Y-110606463D01*
X149242905Y-110606478D01*
X149048600Y-110943023D01*
X149048587Y-110943047D01*
X148884362Y-111295231D01*
X148751435Y-111660444D01*
X148650857Y-112035810D01*
X148650853Y-112035827D01*
X148583371Y-112418533D01*
X148583371Y-112418537D01*
X148549500Y-112805683D01*
X127573500Y-112805683D01*
X127573500Y-98469316D01*
X127582939Y-98421864D01*
X127637747Y-98289543D01*
X127642737Y-98277497D01*
X127673500Y-98122842D01*
X127673500Y-97965158D01*
X127673500Y-97965155D01*
X127673499Y-97965153D01*
X127642738Y-97810510D01*
X127642737Y-97810503D01*
X127642735Y-97810498D01*
X127582397Y-97664827D01*
X127582390Y-97664814D01*
X127494789Y-97533711D01*
X127494786Y-97533707D01*
X127383292Y-97422213D01*
X127383288Y-97422210D01*
X127252185Y-97334609D01*
X127252172Y-97334602D01*
X127106501Y-97274264D01*
X127106489Y-97274261D01*
X126951845Y-97243500D01*
X126951842Y-97243500D01*
X126794158Y-97243500D01*
X126794155Y-97243500D01*
X126639510Y-97274261D01*
X126639498Y-97274264D01*
X126493827Y-97334602D01*
X126493814Y-97334609D01*
X126362711Y-97422210D01*
X126362707Y-97422213D01*
X126251213Y-97533707D01*
X126251210Y-97533711D01*
X126163609Y-97664814D01*
X126163602Y-97664827D01*
X126103264Y-97810498D01*
X126103261Y-97810510D01*
X126072500Y-97965153D01*
X126072500Y-98122846D01*
X126103261Y-98277489D01*
X126103264Y-98277501D01*
X126163061Y-98421864D01*
X126172500Y-98469316D01*
X126172500Y-135929480D01*
X126152815Y-135996519D01*
X126136181Y-136017161D01*
X125916412Y-136236929D01*
X125876184Y-136263809D01*
X125731823Y-136323604D01*
X125731814Y-136323609D01*
X125600711Y-136411210D01*
X125600707Y-136411213D01*
X125489213Y-136522707D01*
X125489210Y-136522711D01*
X125401609Y-136653814D01*
X125401602Y-136653827D01*
X125341264Y-136799498D01*
X125341261Y-136799510D01*
X125310500Y-136954153D01*
X113844950Y-136954153D01*
X113817293Y-136933449D01*
X113817288Y-136933446D01*
X113685728Y-136884377D01*
X113629795Y-136842505D01*
X113605378Y-136777041D01*
X113620230Y-136708768D01*
X113641375Y-136680520D01*
X113755304Y-136566592D01*
X113880251Y-136394616D01*
X113976757Y-136205212D01*
X114042446Y-136003043D01*
X114075700Y-135793087D01*
X114075700Y-135580513D01*
X114042446Y-135370557D01*
X113976757Y-135168388D01*
X113880251Y-134978984D01*
X113880249Y-134978981D01*
X113880248Y-134978979D01*
X113755309Y-134807013D01*
X113604986Y-134656690D01*
X113433020Y-134531751D01*
X113432315Y-134531391D01*
X113424254Y-134527285D01*
X113373459Y-134479312D01*
X113356663Y-134411492D01*
X113379199Y-134345356D01*
X113424254Y-134306315D01*
X113433016Y-134301851D01*
X113454989Y-134285886D01*
X113604986Y-134176909D01*
X113604988Y-134176906D01*
X113604992Y-134176904D01*
X113755304Y-134026592D01*
X113755306Y-134026588D01*
X113755309Y-134026586D01*
X113880248Y-133854620D01*
X113880247Y-133854620D01*
X113880251Y-133854616D01*
X113976757Y-133665212D01*
X114042446Y-133463043D01*
X114075700Y-133253087D01*
X114075700Y-133040513D01*
X114042446Y-132830557D01*
X113976757Y-132628388D01*
X113880251Y-132438984D01*
X113880249Y-132438981D01*
X113880248Y-132438979D01*
X113755309Y-132267013D01*
X113604986Y-132116690D01*
X113433020Y-131991751D01*
X113432315Y-131991391D01*
X113424254Y-131987285D01*
X113373459Y-131939312D01*
X113356663Y-131871492D01*
X113379199Y-131805356D01*
X113424254Y-131766315D01*
X113433016Y-131761851D01*
X113454989Y-131745886D01*
X113604986Y-131636909D01*
X113604988Y-131636906D01*
X113604992Y-131636904D01*
X113755304Y-131486592D01*
X113755306Y-131486588D01*
X113755309Y-131486586D01*
X113880248Y-131314620D01*
X113880247Y-131314620D01*
X113880251Y-131314616D01*
X113976757Y-131125212D01*
X114042446Y-130923043D01*
X114075700Y-130713087D01*
X114075700Y-130500513D01*
X114042446Y-130290557D01*
X113976757Y-130088388D01*
X113880251Y-129898984D01*
X113880249Y-129898981D01*
X113880248Y-129898979D01*
X113755309Y-129727013D01*
X113604986Y-129576690D01*
X113433020Y-129451751D01*
X113243614Y-129355244D01*
X113243613Y-129355243D01*
X113243612Y-129355243D01*
X113041443Y-129289554D01*
X113041441Y-129289553D01*
X113041440Y-129289553D01*
X112880157Y-129264008D01*
X112831487Y-129256300D01*
X112618913Y-129256300D01*
X112570242Y-129264008D01*
X112408960Y-129289553D01*
X112206785Y-129355244D01*
X112017379Y-129451751D01*
X111845413Y-129576690D01*
X111695090Y-129727013D01*
X111570149Y-129898982D01*
X111565684Y-129907746D01*
X111517709Y-129958542D01*
X111449888Y-129975336D01*
X111383753Y-129952798D01*
X111344716Y-129907746D01*
X111340250Y-129898982D01*
X111215309Y-129727013D01*
X111064986Y-129576690D01*
X110893020Y-129451751D01*
X110703614Y-129355244D01*
X110703613Y-129355243D01*
X110703612Y-129355243D01*
X110501443Y-129289554D01*
X110501441Y-129289553D01*
X110501440Y-129289553D01*
X110340157Y-129264008D01*
X110291487Y-129256300D01*
X110078913Y-129256300D01*
X110030242Y-129264008D01*
X109868960Y-129289553D01*
X109666785Y-129355244D01*
X109477379Y-129451751D01*
X109305413Y-129576690D01*
X109155090Y-129727013D01*
X109030151Y-129898979D01*
X108933644Y-130088385D01*
X108867953Y-130290560D01*
X108834700Y-130500513D01*
X107048585Y-130500513D01*
X107048537Y-130498096D01*
X106934000Y-124713999D01*
X91514920Y-112901415D01*
X91389960Y-112805683D01*
X95549500Y-112805683D01*
X95549500Y-113194316D01*
X95583371Y-113581462D01*
X95583371Y-113581466D01*
X95650853Y-113964172D01*
X95650857Y-113964189D01*
X95751435Y-114339555D01*
X95884362Y-114704768D01*
X96048587Y-115056952D01*
X96048600Y-115056976D01*
X96242905Y-115393521D01*
X96242914Y-115393536D01*
X96465821Y-115711880D01*
X96656358Y-115938952D01*
X96715621Y-116009579D01*
X96990421Y-116284379D01*
X97096361Y-116373273D01*
X97288119Y-116534178D01*
X97288125Y-116534182D01*
X97288126Y-116534183D01*
X97606470Y-116757090D01*
X97921894Y-116939200D01*
X97943023Y-116951399D01*
X97943047Y-116951412D01*
X98295231Y-117115637D01*
X98295236Y-117115638D01*
X98295245Y-117115643D01*
X98660434Y-117248561D01*
X98660440Y-117248562D01*
X98660444Y-117248564D01*
X98762666Y-117275954D01*
X99035818Y-117349145D01*
X99418540Y-117416629D01*
X99805685Y-117450499D01*
X99805686Y-117450500D01*
X99805687Y-117450500D01*
X100194314Y-117450500D01*
X100194314Y-117450499D01*
X100581460Y-117416629D01*
X100964182Y-117349145D01*
X101339566Y-117248561D01*
X101704755Y-117115643D01*
X101704768Y-117115637D01*
X102056952Y-116951412D01*
X102056960Y-116951407D01*
X102056970Y-116951403D01*
X102393530Y-116757090D01*
X102711874Y-116534183D01*
X103009579Y-116284379D01*
X103284379Y-116009579D01*
X103534183Y-115711874D01*
X103757090Y-115393530D01*
X103951403Y-115056970D01*
X103951407Y-115056960D01*
X103951412Y-115056952D01*
X104115637Y-114704768D01*
X104115637Y-114704767D01*
X104115643Y-114704755D01*
X104248561Y-114339566D01*
X104349145Y-113964182D01*
X104416629Y-113581460D01*
X104450500Y-113194313D01*
X104450500Y-112805687D01*
X104416629Y-112418540D01*
X104349145Y-112035818D01*
X104248561Y-111660434D01*
X104115643Y-111295245D01*
X104115638Y-111295236D01*
X104115637Y-111295231D01*
X103951412Y-110943047D01*
X103951399Y-110943023D01*
X103939200Y-110921894D01*
X103757090Y-110606470D01*
X103534183Y-110288126D01*
X103534182Y-110288125D01*
X103534178Y-110288119D01*
X103284376Y-109990418D01*
X103009581Y-109715623D01*
X102711880Y-109465821D01*
X102393536Y-109242914D01*
X102393533Y-109242912D01*
X102393530Y-109242910D01*
X102293538Y-109185179D01*
X102056976Y-109048600D01*
X102056952Y-109048587D01*
X101704768Y-108884362D01*
X101704757Y-108884358D01*
X101704755Y-108884357D01*
X101339566Y-108751439D01*
X101339565Y-108751438D01*
X101339555Y-108751435D01*
X100964189Y-108650857D01*
X100964192Y-108650857D01*
X100964182Y-108650855D01*
X100964176Y-108650853D01*
X100964172Y-108650853D01*
X100581464Y-108583371D01*
X100194316Y-108549500D01*
X100194313Y-108549500D01*
X99805687Y-108549500D01*
X99805683Y-108549500D01*
X99418537Y-108583371D01*
X99418533Y-108583371D01*
X99035827Y-108650853D01*
X99035810Y-108650857D01*
X98660444Y-108751435D01*
X98295231Y-108884362D01*
X97943047Y-109048587D01*
X97943023Y-109048600D01*
X97606478Y-109242905D01*
X97606463Y-109242914D01*
X97288119Y-109465821D01*
X96990418Y-109715623D01*
X96715623Y-109990418D01*
X96465821Y-110288119D01*
X96242914Y-110606463D01*
X96242905Y-110606478D01*
X96048600Y-110943023D01*
X96048587Y-110943047D01*
X95884362Y-111295231D01*
X95751435Y-111660444D01*
X95650857Y-112035810D01*
X95650853Y-112035827D01*
X95583371Y-112418533D01*
X95583371Y-112418537D01*
X95549500Y-112805683D01*
X91389960Y-112805683D01*
X85549090Y-108330982D01*
X85507843Y-108274586D01*
X85500500Y-108232548D01*
X85500500Y-63850054D01*
X96300498Y-63850054D01*
X96300499Y-63850057D01*
X96341423Y-64002785D01*
X96353175Y-64023139D01*
X96398045Y-64100857D01*
X96420479Y-64139715D01*
X96539349Y-64258585D01*
X96539355Y-64258590D01*
X96916241Y-64635476D01*
X96949726Y-64696799D01*
X96946492Y-64761473D01*
X96932753Y-64803757D01*
X96899762Y-65012058D01*
X96899500Y-65013713D01*
X96899500Y-65226287D01*
X96932754Y-65436243D01*
X96943644Y-65469760D01*
X96998444Y-65638414D01*
X97094951Y-65827820D01*
X97219890Y-65999786D01*
X97370213Y-66150109D01*
X97542182Y-66275050D01*
X97550946Y-66279516D01*
X97601742Y-66327491D01*
X97618536Y-66395312D01*
X97595998Y-66461447D01*
X97550946Y-66500484D01*
X97542182Y-66504949D01*
X97370213Y-66629890D01*
X97219890Y-66780213D01*
X97094951Y-66952179D01*
X96998444Y-67141585D01*
X96932753Y-67343760D01*
X96921691Y-67413603D01*
X96899500Y-67553713D01*
X96899500Y-67766287D01*
X96932754Y-67976243D01*
X96943644Y-68009760D01*
X96998444Y-68178414D01*
X97094951Y-68367820D01*
X97219890Y-68539786D01*
X97370213Y-68690109D01*
X97542182Y-68815050D01*
X97550946Y-68819516D01*
X97601742Y-68867491D01*
X97618536Y-68935312D01*
X97595998Y-69001447D01*
X97550946Y-69040484D01*
X97542182Y-69044949D01*
X97370213Y-69169890D01*
X97219890Y-69320213D01*
X97094951Y-69492179D01*
X96998444Y-69681585D01*
X96932753Y-69883760D01*
X96921691Y-69953603D01*
X96899500Y-70093713D01*
X96899500Y-70306287D01*
X96932754Y-70516243D01*
X96943644Y-70549760D01*
X96998444Y-70718414D01*
X97094951Y-70907820D01*
X97219890Y-71079786D01*
X97370213Y-71230109D01*
X97542182Y-71355050D01*
X97550946Y-71359516D01*
X97601742Y-71407491D01*
X97618536Y-71475312D01*
X97595998Y-71541447D01*
X97550946Y-71580484D01*
X97542182Y-71584949D01*
X97370213Y-71709890D01*
X97219890Y-71860213D01*
X97094951Y-72032179D01*
X96998444Y-72221585D01*
X96932753Y-72423760D01*
X96919384Y-72508172D01*
X96899500Y-72633713D01*
X96899500Y-72846287D01*
X96906351Y-72889540D01*
X96924780Y-73005901D01*
X96932754Y-73056243D01*
X96946644Y-73098993D01*
X96998444Y-73258414D01*
X97094951Y-73447820D01*
X97219890Y-73619786D01*
X97370213Y-73770109D01*
X97542182Y-73895050D01*
X97550946Y-73899516D01*
X97601742Y-73947491D01*
X97618536Y-74015312D01*
X97595998Y-74081447D01*
X97550946Y-74120484D01*
X97542182Y-74124949D01*
X97370213Y-74249890D01*
X97219890Y-74400213D01*
X97094951Y-74572179D01*
X96998444Y-74761585D01*
X96932753Y-74963760D01*
X96921691Y-75033603D01*
X96899500Y-75173713D01*
X96899500Y-75386287D01*
X96906351Y-75429540D01*
X96913901Y-75477214D01*
X96932754Y-75596243D01*
X96998328Y-75798059D01*
X96998444Y-75798414D01*
X97094951Y-75987820D01*
X97219890Y-76159786D01*
X97370213Y-76310109D01*
X97542182Y-76435050D01*
X97550946Y-76439516D01*
X97601742Y-76487491D01*
X97618536Y-76555312D01*
X97595998Y-76621447D01*
X97550946Y-76660484D01*
X97542182Y-76664949D01*
X97370213Y-76789890D01*
X97219890Y-76940213D01*
X97094951Y-77112179D01*
X96998444Y-77301585D01*
X96932753Y-77503760D01*
X96921691Y-77573603D01*
X96899500Y-77713713D01*
X96899500Y-77926287D01*
X96906351Y-77969540D01*
X96932753Y-78136239D01*
X96998444Y-78338414D01*
X97094951Y-78527820D01*
X97219890Y-78699786D01*
X97370213Y-78850109D01*
X97542182Y-78975050D01*
X97550946Y-78979516D01*
X97601742Y-79027491D01*
X97618536Y-79095312D01*
X97595998Y-79161447D01*
X97550946Y-79200484D01*
X97542182Y-79204949D01*
X97370213Y-79329890D01*
X97219890Y-79480213D01*
X97094951Y-79652179D01*
X96998444Y-79841585D01*
X96932753Y-80043760D01*
X96921691Y-80113603D01*
X96899500Y-80253713D01*
X96899500Y-80466287D01*
X96906351Y-80509540D01*
X96932753Y-80676239D01*
X96998444Y-80878414D01*
X97094951Y-81067820D01*
X97219890Y-81239786D01*
X97370213Y-81390109D01*
X97542182Y-81515050D01*
X97550946Y-81519516D01*
X97601742Y-81567491D01*
X97618536Y-81635312D01*
X97595998Y-81701447D01*
X97550946Y-81740484D01*
X97542182Y-81744949D01*
X97370213Y-81869890D01*
X97219890Y-82020213D01*
X97094951Y-82192179D01*
X96998444Y-82381585D01*
X96932753Y-82583760D01*
X96921691Y-82653603D01*
X96899500Y-82793713D01*
X96899500Y-83006287D01*
X96909534Y-83069644D01*
X96916314Y-83112449D01*
X96932754Y-83216243D01*
X96960547Y-83301782D01*
X96998444Y-83418414D01*
X97094951Y-83607820D01*
X97219890Y-83779786D01*
X97370213Y-83930109D01*
X97542182Y-84055050D01*
X97550946Y-84059516D01*
X97601742Y-84107491D01*
X97618536Y-84175312D01*
X97595998Y-84241447D01*
X97550946Y-84280484D01*
X97542182Y-84284949D01*
X97370213Y-84409890D01*
X97219890Y-84560213D01*
X97094951Y-84732179D01*
X96998444Y-84921585D01*
X96932753Y-85123760D01*
X96900105Y-85329896D01*
X96899500Y-85333713D01*
X96899500Y-85546287D01*
X96906351Y-85589540D01*
X96916272Y-85652184D01*
X96932754Y-85756243D01*
X96960484Y-85841588D01*
X96998444Y-85958414D01*
X97094951Y-86147820D01*
X97219890Y-86319786D01*
X97370213Y-86470109D01*
X97542179Y-86595048D01*
X97542181Y-86595049D01*
X97542184Y-86595051D01*
X97731588Y-86691557D01*
X97933757Y-86757246D01*
X98143713Y-86790500D01*
X98143714Y-86790500D01*
X98356286Y-86790500D01*
X98356287Y-86790500D01*
X98566243Y-86757246D01*
X98768412Y-86691557D01*
X98957816Y-86595051D01*
X98979789Y-86579086D01*
X99129786Y-86470109D01*
X99129788Y-86470106D01*
X99129792Y-86470104D01*
X99280104Y-86319792D01*
X99280106Y-86319788D01*
X99280109Y-86319786D01*
X99405048Y-86147820D01*
X99405047Y-86147820D01*
X99405051Y-86147816D01*
X99501557Y-85958412D01*
X99567246Y-85756243D01*
X99600500Y-85546287D01*
X99600500Y-85333713D01*
X99567246Y-85123757D01*
X99501557Y-84921588D01*
X99405051Y-84732184D01*
X99405049Y-84732181D01*
X99405048Y-84732179D01*
X99280109Y-84560213D01*
X99129786Y-84409890D01*
X98957820Y-84284951D01*
X98957115Y-84284591D01*
X98949054Y-84280485D01*
X98898259Y-84232512D01*
X98881463Y-84164692D01*
X98903999Y-84098556D01*
X98949054Y-84059515D01*
X98957816Y-84055051D01*
X98979789Y-84039086D01*
X99129786Y-83930109D01*
X99129788Y-83930106D01*
X99129792Y-83930104D01*
X99280104Y-83779792D01*
X99280106Y-83779788D01*
X99280109Y-83779786D01*
X99405048Y-83607820D01*
X99405047Y-83607820D01*
X99405051Y-83607816D01*
X99501557Y-83418412D01*
X99567246Y-83216243D01*
X99600500Y-83006287D01*
X99600500Y-82793713D01*
X99567246Y-82583757D01*
X99501557Y-82381588D01*
X99405051Y-82192184D01*
X99405049Y-82192181D01*
X99405048Y-82192179D01*
X99280109Y-82020213D01*
X99129786Y-81869890D01*
X98957820Y-81744951D01*
X98957115Y-81744591D01*
X98949054Y-81740485D01*
X98898259Y-81692512D01*
X98881463Y-81624692D01*
X98903999Y-81558556D01*
X98949054Y-81519515D01*
X98957816Y-81515051D01*
X98979789Y-81499086D01*
X99129786Y-81390109D01*
X99129788Y-81390106D01*
X99129792Y-81390104D01*
X99280104Y-81239792D01*
X99280106Y-81239788D01*
X99280109Y-81239786D01*
X99405048Y-81067820D01*
X99405047Y-81067820D01*
X99405051Y-81067816D01*
X99501557Y-80878412D01*
X99567246Y-80676243D01*
X99600500Y-80466287D01*
X99600500Y-80253713D01*
X99567246Y-80043757D01*
X99501557Y-79841588D01*
X99405051Y-79652184D01*
X99405049Y-79652181D01*
X99405048Y-79652179D01*
X99280109Y-79480213D01*
X99129786Y-79329890D01*
X98957820Y-79204951D01*
X98957115Y-79204591D01*
X98949054Y-79200485D01*
X98898259Y-79152512D01*
X98881463Y-79084692D01*
X98903999Y-79018556D01*
X98949054Y-78979515D01*
X98957816Y-78975051D01*
X98979789Y-78959086D01*
X99129786Y-78850109D01*
X99129788Y-78850106D01*
X99129792Y-78850104D01*
X99280104Y-78699792D01*
X99280106Y-78699788D01*
X99280109Y-78699786D01*
X99405048Y-78527820D01*
X99405047Y-78527820D01*
X99405051Y-78527816D01*
X99501557Y-78338412D01*
X99567246Y-78136243D01*
X99600500Y-77926287D01*
X99600500Y-77713713D01*
X99567246Y-77503757D01*
X99501557Y-77301588D01*
X99405051Y-77112184D01*
X99405049Y-77112181D01*
X99405048Y-77112179D01*
X99280109Y-76940213D01*
X99129786Y-76789890D01*
X98957820Y-76664951D01*
X98957115Y-76664591D01*
X98949054Y-76660485D01*
X98898259Y-76612512D01*
X98881463Y-76544692D01*
X98903999Y-76478556D01*
X98949054Y-76439515D01*
X98957816Y-76435051D01*
X98979789Y-76419086D01*
X99129786Y-76310109D01*
X99129788Y-76310106D01*
X99129792Y-76310104D01*
X99280104Y-76159792D01*
X99280106Y-76159788D01*
X99280109Y-76159786D01*
X99405048Y-75987820D01*
X99405047Y-75987820D01*
X99405051Y-75987816D01*
X99501557Y-75798412D01*
X99567246Y-75596243D01*
X99600500Y-75386287D01*
X99600500Y-75173713D01*
X99567246Y-74963757D01*
X99501557Y-74761588D01*
X99405051Y-74572184D01*
X99405049Y-74572181D01*
X99405048Y-74572179D01*
X99280109Y-74400213D01*
X99129786Y-74249890D01*
X98957820Y-74124951D01*
X98957115Y-74124591D01*
X98949054Y-74120485D01*
X98898259Y-74072512D01*
X98881463Y-74004692D01*
X98903999Y-73938556D01*
X98949054Y-73899515D01*
X98957816Y-73895051D01*
X98989646Y-73871925D01*
X99129786Y-73770109D01*
X99129788Y-73770106D01*
X99129792Y-73770104D01*
X99280104Y-73619792D01*
X99280106Y-73619788D01*
X99280109Y-73619786D01*
X99405048Y-73447820D01*
X99405047Y-73447820D01*
X99405051Y-73447816D01*
X99501557Y-73258412D01*
X99567246Y-73056243D01*
X99600500Y-72846287D01*
X99600500Y-72633713D01*
X99567246Y-72423757D01*
X99501557Y-72221588D01*
X99405051Y-72032184D01*
X99405049Y-72032181D01*
X99405048Y-72032179D01*
X99280109Y-71860213D01*
X99129786Y-71709890D01*
X98957820Y-71584951D01*
X98957115Y-71584591D01*
X98949054Y-71580485D01*
X98898259Y-71532512D01*
X98881463Y-71464692D01*
X98903999Y-71398556D01*
X98949054Y-71359515D01*
X98957816Y-71355051D01*
X98979789Y-71339086D01*
X99129786Y-71230109D01*
X99129788Y-71230106D01*
X99129792Y-71230104D01*
X99280104Y-71079792D01*
X99280106Y-71079788D01*
X99280109Y-71079786D01*
X99405048Y-70907820D01*
X99405047Y-70907820D01*
X99405051Y-70907816D01*
X99501557Y-70718412D01*
X99567246Y-70516243D01*
X99600500Y-70306287D01*
X99600500Y-70093713D01*
X99567246Y-69883757D01*
X99501557Y-69681588D01*
X99405051Y-69492184D01*
X99405049Y-69492181D01*
X99405048Y-69492179D01*
X99280109Y-69320213D01*
X99129786Y-69169890D01*
X98957820Y-69044951D01*
X98957115Y-69044591D01*
X98949054Y-69040485D01*
X98898259Y-68992512D01*
X98881463Y-68924692D01*
X98903999Y-68858556D01*
X98949054Y-68819515D01*
X98957816Y-68815051D01*
X98979789Y-68799086D01*
X99129786Y-68690109D01*
X99129788Y-68690106D01*
X99129792Y-68690104D01*
X99280104Y-68539792D01*
X99280106Y-68539788D01*
X99280109Y-68539786D01*
X99405048Y-68367820D01*
X99405047Y-68367820D01*
X99405051Y-68367816D01*
X99501557Y-68178412D01*
X99567246Y-67976243D01*
X99600500Y-67766287D01*
X99600500Y-67553713D01*
X99567246Y-67343757D01*
X99501557Y-67141588D01*
X99405051Y-66952184D01*
X99405049Y-66952181D01*
X99405048Y-66952179D01*
X99280109Y-66780213D01*
X99129786Y-66629890D01*
X98957820Y-66504951D01*
X98957115Y-66504591D01*
X98949054Y-66500485D01*
X98898259Y-66452512D01*
X98881463Y-66384692D01*
X98903999Y-66318556D01*
X98949054Y-66279515D01*
X98957816Y-66275051D01*
X98979789Y-66259086D01*
X99129786Y-66150109D01*
X99129788Y-66150106D01*
X99129792Y-66150104D01*
X99280104Y-65999792D01*
X99280106Y-65999788D01*
X99280109Y-65999786D01*
X99405048Y-65827820D01*
X99405047Y-65827820D01*
X99405051Y-65827816D01*
X99501557Y-65638412D01*
X99567246Y-65436243D01*
X99600500Y-65226287D01*
X99600500Y-65079097D01*
X99620185Y-65012058D01*
X99672989Y-64966303D01*
X99742147Y-64956359D01*
X99805703Y-64985384D01*
X99812181Y-64991416D01*
X110742181Y-75921416D01*
X110775666Y-75982739D01*
X110778500Y-76009097D01*
X110778500Y-87416330D01*
X110778499Y-87416348D01*
X110778499Y-87582054D01*
X110778498Y-87582054D01*
X110778499Y-87582057D01*
X110819423Y-87734785D01*
X110819424Y-87734786D01*
X110830596Y-87754139D01*
X110830599Y-87754142D01*
X110898477Y-87871712D01*
X110898481Y-87871717D01*
X111017349Y-87990585D01*
X111017355Y-87990590D01*
X118062941Y-95036177D01*
X118096426Y-95097500D01*
X118095837Y-95152792D01*
X118094861Y-95156857D01*
X118063700Y-95353603D01*
X118063700Y-95552796D01*
X118094861Y-95749540D01*
X118094861Y-95749543D01*
X118156413Y-95938980D01*
X118156415Y-95938983D01*
X118246847Y-96116466D01*
X118363931Y-96277618D01*
X118504782Y-96418469D01*
X118665934Y-96535553D01*
X118735653Y-96571077D01*
X118817372Y-96612715D01*
X118868168Y-96660690D01*
X118884963Y-96728511D01*
X118862425Y-96794646D01*
X118817372Y-96833685D01*
X118665933Y-96910847D01*
X118573990Y-96977647D01*
X118504782Y-97027931D01*
X118504780Y-97027933D01*
X118504779Y-97027933D01*
X118363933Y-97168779D01*
X118363933Y-97168780D01*
X118363931Y-97168782D01*
X118313647Y-97237990D01*
X118246847Y-97329933D01*
X118156413Y-97507419D01*
X118094861Y-97696856D01*
X118094861Y-97696859D01*
X118063700Y-97893603D01*
X118063700Y-98092796D01*
X118094861Y-98289540D01*
X118094861Y-98289543D01*
X118156413Y-98478980D01*
X118156415Y-98478983D01*
X118246847Y-98656466D01*
X118363931Y-98817618D01*
X118504782Y-98958469D01*
X118665934Y-99075553D01*
X118735653Y-99111077D01*
X118817372Y-99152715D01*
X118868168Y-99200690D01*
X118884963Y-99268511D01*
X118862425Y-99334646D01*
X118817372Y-99373685D01*
X118665933Y-99450847D01*
X118627486Y-99478781D01*
X118504782Y-99567931D01*
X118504780Y-99567933D01*
X118504779Y-99567933D01*
X118363933Y-99708779D01*
X118363933Y-99708780D01*
X118363931Y-99708782D01*
X118313647Y-99777990D01*
X118246847Y-99869933D01*
X118156413Y-100047419D01*
X118094861Y-100236856D01*
X118094861Y-100236859D01*
X118063700Y-100433603D01*
X118063700Y-100632796D01*
X118094861Y-100829540D01*
X118094861Y-100829543D01*
X118156413Y-101018980D01*
X118156415Y-101018983D01*
X118246847Y-101196466D01*
X118363931Y-101357618D01*
X118504782Y-101498469D01*
X118665934Y-101615553D01*
X118756109Y-101661499D01*
X118817922Y-101692995D01*
X118868718Y-101740970D01*
X118885513Y-101808791D01*
X118862976Y-101874926D01*
X118817923Y-101913964D01*
X118666193Y-101991275D01*
X118628335Y-102018780D01*
X118628335Y-102018781D01*
X119191625Y-102582071D01*
X119132347Y-102597955D01*
X119016053Y-102665098D01*
X118921098Y-102760053D01*
X118853955Y-102876347D01*
X118838071Y-102935625D01*
X118274781Y-102372335D01*
X118274780Y-102372335D01*
X118247277Y-102410190D01*
X118156879Y-102587605D01*
X118095347Y-102776977D01*
X118064200Y-102973636D01*
X118064200Y-103172763D01*
X118095347Y-103369422D01*
X118156879Y-103558794D01*
X118247277Y-103736208D01*
X118274780Y-103774063D01*
X118274781Y-103774064D01*
X118838071Y-103210774D01*
X118853955Y-103270053D01*
X118921098Y-103386347D01*
X119016053Y-103481302D01*
X119132347Y-103548445D01*
X119191625Y-103564328D01*
X118628334Y-104127617D01*
X118666194Y-104155124D01*
X118843605Y-104245520D01*
X119032977Y-104307052D01*
X119229637Y-104338200D01*
X119428763Y-104338200D01*
X119625422Y-104307052D01*
X119814794Y-104245520D01*
X119992205Y-104155124D01*
X120030063Y-104127618D01*
X120030063Y-104127617D01*
X119466774Y-103564328D01*
X119526053Y-103548445D01*
X119642347Y-103481302D01*
X119737302Y-103386347D01*
X119804445Y-103270053D01*
X119820328Y-103210774D01*
X120383617Y-103774063D01*
X120383618Y-103774063D01*
X120411124Y-103736205D01*
X120501520Y-103558794D01*
X120563052Y-103369422D01*
X120594200Y-103172763D01*
X120594200Y-102973636D01*
X120563052Y-102776977D01*
X120501520Y-102587605D01*
X120411124Y-102410194D01*
X120383617Y-102372335D01*
X120383617Y-102372334D01*
X119820328Y-102935624D01*
X119804445Y-102876347D01*
X119737302Y-102760053D01*
X119642347Y-102665098D01*
X119526053Y-102597955D01*
X119466774Y-102582071D01*
X120030064Y-102018781D01*
X120030063Y-102018780D01*
X119992208Y-101991277D01*
X119840477Y-101913965D01*
X119789681Y-101865990D01*
X119772886Y-101798169D01*
X119795424Y-101732034D01*
X119840477Y-101692995D01*
X119841027Y-101692715D01*
X119992466Y-101615553D01*
X120153618Y-101498469D01*
X120294469Y-101357618D01*
X120411553Y-101196466D01*
X120501985Y-101018983D01*
X120563539Y-100829539D01*
X120594700Y-100632797D01*
X120594700Y-100433603D01*
X120563539Y-100236861D01*
X120563538Y-100236857D01*
X120563538Y-100236856D01*
X120501986Y-100047419D01*
X120411552Y-99869933D01*
X120294469Y-99708782D01*
X120153618Y-99567931D01*
X119992466Y-99450847D01*
X119841027Y-99373685D01*
X119790231Y-99325710D01*
X119773436Y-99257889D01*
X119795973Y-99191754D01*
X119841027Y-99152715D01*
X119850316Y-99147981D01*
X119992466Y-99075553D01*
X120153618Y-98958469D01*
X120294469Y-98817618D01*
X120411553Y-98656466D01*
X120501985Y-98478983D01*
X120563539Y-98289539D01*
X120594700Y-98092797D01*
X120594700Y-97893603D01*
X120563539Y-97696861D01*
X120563538Y-97696857D01*
X120563538Y-97696856D01*
X120501986Y-97507419D01*
X120413935Y-97334609D01*
X120411553Y-97329934D01*
X120294469Y-97168782D01*
X120153618Y-97027931D01*
X119992466Y-96910847D01*
X119841027Y-96833685D01*
X119790231Y-96785710D01*
X119773436Y-96717889D01*
X119795973Y-96651754D01*
X119841027Y-96612715D01*
X119850316Y-96607981D01*
X119992466Y-96535553D01*
X120153618Y-96418469D01*
X120294469Y-96277618D01*
X120411553Y-96116466D01*
X120501985Y-95938983D01*
X120563539Y-95749539D01*
X120594700Y-95552797D01*
X120594700Y-95353603D01*
X120563539Y-95156861D01*
X120563538Y-95156857D01*
X120563538Y-95156856D01*
X120501986Y-94967419D01*
X120411552Y-94789933D01*
X120294469Y-94628782D01*
X120153618Y-94487931D01*
X119992466Y-94370847D01*
X119841027Y-94293685D01*
X119790231Y-94245710D01*
X119773436Y-94177889D01*
X119795973Y-94111754D01*
X119841027Y-94072715D01*
X119850316Y-94067981D01*
X119992466Y-93995553D01*
X120153618Y-93878469D01*
X120294469Y-93737618D01*
X120411553Y-93576466D01*
X120501985Y-93398983D01*
X120563539Y-93209539D01*
X120594700Y-93012797D01*
X120594700Y-92813603D01*
X120563539Y-92616861D01*
X120563538Y-92616857D01*
X120563538Y-92616856D01*
X120501986Y-92427419D01*
X120456345Y-92337844D01*
X120411553Y-92249934D01*
X120294469Y-92088782D01*
X120153618Y-91947931D01*
X119992466Y-91830847D01*
X119841027Y-91753685D01*
X119790231Y-91705710D01*
X119773436Y-91637889D01*
X119795973Y-91571754D01*
X119841027Y-91532715D01*
X119850316Y-91527981D01*
X119992466Y-91455553D01*
X120153618Y-91338469D01*
X120294469Y-91197618D01*
X120411553Y-91036466D01*
X120501985Y-90858983D01*
X120563539Y-90669539D01*
X120594700Y-90472797D01*
X120594700Y-90273603D01*
X120563539Y-90076861D01*
X120563538Y-90076857D01*
X120563538Y-90076856D01*
X120501986Y-89887419D01*
X120411552Y-89709933D01*
X120294469Y-89548782D01*
X120153618Y-89407931D01*
X119992466Y-89290847D01*
X119846047Y-89216243D01*
X119841027Y-89213685D01*
X119790231Y-89165710D01*
X119773436Y-89097889D01*
X119795973Y-89031754D01*
X119841027Y-88992715D01*
X119850316Y-88987981D01*
X119992466Y-88915553D01*
X120153618Y-88798469D01*
X120294469Y-88657618D01*
X120411553Y-88496466D01*
X120501985Y-88318983D01*
X120501986Y-88318980D01*
X120563538Y-88129543D01*
X120563538Y-88129542D01*
X120563539Y-88129539D01*
X120594700Y-87932797D01*
X120594700Y-87733603D01*
X120563539Y-87536861D01*
X120563538Y-87536857D01*
X120563538Y-87536856D01*
X120501986Y-87347419D01*
X120501985Y-87347417D01*
X120411553Y-87169934D01*
X120294469Y-87008782D01*
X120153618Y-86867931D01*
X119992466Y-86750847D01*
X119846047Y-86676243D01*
X119841027Y-86673685D01*
X119790231Y-86625710D01*
X119773436Y-86557889D01*
X119795973Y-86491754D01*
X119841027Y-86452715D01*
X119880628Y-86432537D01*
X119992466Y-86375553D01*
X120153618Y-86258469D01*
X120294469Y-86117618D01*
X120411553Y-85956466D01*
X120501985Y-85778983D01*
X120509375Y-85756239D01*
X120563538Y-85589543D01*
X120563538Y-85589542D01*
X120563539Y-85589539D01*
X120594700Y-85392797D01*
X120594700Y-85193603D01*
X120563539Y-84996861D01*
X120563538Y-84996857D01*
X120563538Y-84996856D01*
X120501986Y-84807419D01*
X120411552Y-84629933D01*
X120376521Y-84581717D01*
X120294469Y-84468782D01*
X120153618Y-84327931D01*
X119992466Y-84210847D01*
X119876103Y-84151557D01*
X119841027Y-84133685D01*
X119790231Y-84085710D01*
X119773436Y-84017889D01*
X119795973Y-83951754D01*
X119841027Y-83912715D01*
X119850316Y-83907981D01*
X119992466Y-83835553D01*
X120153618Y-83718469D01*
X120294469Y-83577618D01*
X120411553Y-83416466D01*
X120501985Y-83238983D01*
X120509375Y-83216239D01*
X120563538Y-83049543D01*
X120563538Y-83049542D01*
X120563539Y-83049539D01*
X120594700Y-82852797D01*
X120594700Y-82653603D01*
X120563539Y-82456861D01*
X120563538Y-82456857D01*
X120563538Y-82456856D01*
X120501986Y-82267419D01*
X120411552Y-82089933D01*
X120294469Y-81928782D01*
X120153618Y-81787931D01*
X119992466Y-81670847D01*
X119841027Y-81593685D01*
X119790231Y-81545710D01*
X119773436Y-81477889D01*
X119795973Y-81411754D01*
X119841027Y-81372715D01*
X119850316Y-81367981D01*
X119992466Y-81295553D01*
X120153618Y-81178469D01*
X120294469Y-81037618D01*
X120411553Y-80876466D01*
X120501985Y-80698983D01*
X120563539Y-80509539D01*
X120594700Y-80312797D01*
X120594700Y-80113603D01*
X120563539Y-79916861D01*
X120563538Y-79916857D01*
X120563538Y-79916856D01*
X120501986Y-79727419D01*
X120411552Y-79549933D01*
X120294469Y-79388782D01*
X120153618Y-79247931D01*
X119992466Y-79130847D01*
X119841027Y-79053685D01*
X119790231Y-79005710D01*
X119773436Y-78937889D01*
X119795973Y-78871754D01*
X119841027Y-78832715D01*
X119850316Y-78827981D01*
X119992466Y-78755553D01*
X120153618Y-78638469D01*
X120294469Y-78497618D01*
X120411553Y-78336466D01*
X120501985Y-78158983D01*
X120563539Y-77969539D01*
X120594700Y-77772797D01*
X120594700Y-77573603D01*
X120563539Y-77376861D01*
X120563538Y-77376857D01*
X120563538Y-77376856D01*
X120501986Y-77187419D01*
X120411552Y-77009933D01*
X120294469Y-76848782D01*
X120153618Y-76707931D01*
X119992466Y-76590847D01*
X119841027Y-76513685D01*
X119790231Y-76465710D01*
X119773436Y-76397889D01*
X119795973Y-76331754D01*
X119841027Y-76292715D01*
X119850316Y-76287981D01*
X119992466Y-76215553D01*
X120153618Y-76098469D01*
X120294469Y-75957618D01*
X120411553Y-75796466D01*
X120501985Y-75618983D01*
X120548048Y-75477215D01*
X120563538Y-75429543D01*
X120563538Y-75429542D01*
X120563539Y-75429539D01*
X120594700Y-75232797D01*
X120594700Y-75033603D01*
X120563539Y-74836861D01*
X120563538Y-74836857D01*
X120563538Y-74836856D01*
X120501986Y-74647419D01*
X120463649Y-74572179D01*
X120411553Y-74469934D01*
X120294469Y-74308782D01*
X120153618Y-74167931D01*
X119992466Y-74050847D01*
X119841027Y-73973685D01*
X119790231Y-73925710D01*
X119773436Y-73857889D01*
X119795973Y-73791754D01*
X119841027Y-73752715D01*
X119850316Y-73747981D01*
X119992466Y-73675553D01*
X120153618Y-73558469D01*
X120294469Y-73417618D01*
X120411553Y-73256466D01*
X120501985Y-73078983D01*
X120563539Y-72889539D01*
X120594700Y-72692797D01*
X120594700Y-72493603D01*
X120563539Y-72296861D01*
X120563538Y-72296857D01*
X120563538Y-72296856D01*
X120501986Y-72107419D01*
X120463649Y-72032179D01*
X120411553Y-71929934D01*
X120294469Y-71768782D01*
X120153618Y-71627931D01*
X119992466Y-71510847D01*
X119841027Y-71433685D01*
X119790231Y-71385710D01*
X119773436Y-71317889D01*
X119795973Y-71251754D01*
X119841027Y-71212715D01*
X119850316Y-71207981D01*
X119992466Y-71135553D01*
X120153618Y-71018469D01*
X120294469Y-70877618D01*
X120411553Y-70716466D01*
X120501985Y-70538983D01*
X120563539Y-70349539D01*
X120594700Y-70152797D01*
X120594700Y-69953603D01*
X120563539Y-69756861D01*
X120563538Y-69756857D01*
X120563538Y-69756856D01*
X120501986Y-69567419D01*
X120411552Y-69389933D01*
X120294469Y-69228782D01*
X120153618Y-69087931D01*
X119992466Y-68970847D01*
X119841027Y-68893685D01*
X119790231Y-68845710D01*
X119773436Y-68777889D01*
X119795973Y-68711754D01*
X119841027Y-68672715D01*
X119850316Y-68667981D01*
X119992466Y-68595553D01*
X120153618Y-68478469D01*
X120294469Y-68337618D01*
X120411553Y-68176466D01*
X120501985Y-67998983D01*
X120563539Y-67809539D01*
X120594700Y-67612797D01*
X120594700Y-67413603D01*
X120563539Y-67216861D01*
X120563538Y-67216857D01*
X120563538Y-67216856D01*
X120501986Y-67027419D01*
X120411552Y-66849933D01*
X120294469Y-66688782D01*
X120153618Y-66547931D01*
X119992466Y-66430847D01*
X119841027Y-66353685D01*
X119790231Y-66305710D01*
X119773436Y-66237889D01*
X119795973Y-66171754D01*
X119841027Y-66132715D01*
X119850316Y-66127981D01*
X119992466Y-66055553D01*
X120153618Y-65938469D01*
X120294469Y-65797618D01*
X120411553Y-65636466D01*
X120501985Y-65458983D01*
X120563539Y-65269539D01*
X120594700Y-65072797D01*
X120594700Y-64873603D01*
X120563539Y-64676861D01*
X120563538Y-64676857D01*
X120563538Y-64676856D01*
X120501986Y-64487419D01*
X120411552Y-64309933D01*
X120294469Y-64148782D01*
X120153618Y-64007931D01*
X119992466Y-63890847D01*
X119841027Y-63813685D01*
X119790231Y-63765710D01*
X119773436Y-63697889D01*
X119795973Y-63631754D01*
X119841027Y-63592715D01*
X119850316Y-63587981D01*
X119992466Y-63515553D01*
X120153618Y-63398469D01*
X120294469Y-63257618D01*
X120411553Y-63096466D01*
X120501985Y-62918983D01*
X120563539Y-62729539D01*
X120594700Y-62532797D01*
X120594700Y-62333603D01*
X120563539Y-62136861D01*
X120563538Y-62136857D01*
X120563538Y-62136856D01*
X120501986Y-61947419D01*
X120463158Y-61871215D01*
X120411553Y-61769934D01*
X120294469Y-61608782D01*
X120153618Y-61467931D01*
X119992466Y-61350847D01*
X119841027Y-61273685D01*
X119790231Y-61225710D01*
X119773436Y-61157889D01*
X119795973Y-61091754D01*
X119841027Y-61052715D01*
X119850316Y-61047981D01*
X119992466Y-60975553D01*
X120153618Y-60858469D01*
X120294469Y-60717618D01*
X120411553Y-60556466D01*
X120501985Y-60378983D01*
X120563539Y-60189539D01*
X120594700Y-59992797D01*
X120594700Y-59793603D01*
X120563539Y-59596861D01*
X120563538Y-59596857D01*
X120563538Y-59596856D01*
X120501986Y-59407419D01*
X120411552Y-59229933D01*
X120294469Y-59068782D01*
X120153618Y-58927931D01*
X119992466Y-58810847D01*
X119841027Y-58733685D01*
X119790231Y-58685710D01*
X119773436Y-58617889D01*
X119795973Y-58551754D01*
X119841027Y-58512715D01*
X119850316Y-58507981D01*
X119992466Y-58435553D01*
X120153618Y-58318469D01*
X120294469Y-58177618D01*
X120411553Y-58016466D01*
X120501985Y-57838983D01*
X120563539Y-57649539D01*
X120594700Y-57452797D01*
X120594700Y-57253603D01*
X120563539Y-57056861D01*
X120563538Y-57056857D01*
X120563538Y-57056856D01*
X120501986Y-56867419D01*
X120411552Y-56689933D01*
X120294469Y-56528782D01*
X120153618Y-56387931D01*
X119992466Y-56270847D01*
X119841027Y-56193685D01*
X119790231Y-56145710D01*
X119773436Y-56077889D01*
X119795973Y-56011754D01*
X119841027Y-55972715D01*
X119850316Y-55967981D01*
X119992466Y-55895553D01*
X120153618Y-55778469D01*
X120294469Y-55637618D01*
X120411553Y-55476466D01*
X120501985Y-55298983D01*
X120563539Y-55109539D01*
X120594700Y-54912797D01*
X120594700Y-54713603D01*
X120563539Y-54516861D01*
X120563538Y-54516857D01*
X120563538Y-54516856D01*
X120501986Y-54327419D01*
X120411552Y-54149933D01*
X120386639Y-54115643D01*
X120294469Y-53988782D01*
X120153618Y-53847931D01*
X119992466Y-53730847D01*
X119841027Y-53653685D01*
X119790231Y-53605710D01*
X119773436Y-53537889D01*
X119795973Y-53471754D01*
X119841027Y-53432715D01*
X119850316Y-53427981D01*
X119992466Y-53355553D01*
X120153618Y-53238469D01*
X120294469Y-53097618D01*
X120411553Y-52936466D01*
X120501985Y-52758983D01*
X120563539Y-52569539D01*
X120594700Y-52372797D01*
X120594700Y-52173603D01*
X140923700Y-52173603D01*
X140923700Y-52372796D01*
X140954861Y-52569540D01*
X140954861Y-52569543D01*
X141016413Y-52758980D01*
X141016415Y-52758983D01*
X141106847Y-52936466D01*
X141223931Y-53097618D01*
X141364782Y-53238469D01*
X141525934Y-53355553D01*
X141595653Y-53391077D01*
X141677372Y-53432715D01*
X141728168Y-53480690D01*
X141744963Y-53548511D01*
X141722425Y-53614646D01*
X141677372Y-53653685D01*
X141525933Y-53730847D01*
X141489808Y-53757094D01*
X141364782Y-53847931D01*
X141364780Y-53847933D01*
X141364779Y-53847933D01*
X141223933Y-53988779D01*
X141223933Y-53988780D01*
X141223931Y-53988782D01*
X141173647Y-54057990D01*
X141106847Y-54149933D01*
X141016413Y-54327419D01*
X140954861Y-54516856D01*
X140954861Y-54516859D01*
X140923700Y-54713603D01*
X140923700Y-54912796D01*
X140954861Y-55109540D01*
X140954861Y-55109543D01*
X141016413Y-55298980D01*
X141016415Y-55298983D01*
X141106847Y-55476466D01*
X141223931Y-55637618D01*
X141364782Y-55778469D01*
X141525934Y-55895553D01*
X141595653Y-55931077D01*
X141677372Y-55972715D01*
X141728168Y-56020690D01*
X141744963Y-56088511D01*
X141722425Y-56154646D01*
X141677372Y-56193685D01*
X141525933Y-56270847D01*
X141433990Y-56337647D01*
X141364782Y-56387931D01*
X141364780Y-56387933D01*
X141364779Y-56387933D01*
X141223933Y-56528779D01*
X141223933Y-56528780D01*
X141223931Y-56528782D01*
X141213872Y-56542627D01*
X141106847Y-56689933D01*
X141016413Y-56867419D01*
X140954861Y-57056856D01*
X140954861Y-57056859D01*
X140923700Y-57253603D01*
X140923700Y-57452796D01*
X140954861Y-57649540D01*
X140954861Y-57649543D01*
X141016413Y-57838980D01*
X141016415Y-57838983D01*
X141106847Y-58016466D01*
X141223931Y-58177618D01*
X141364782Y-58318469D01*
X141525934Y-58435553D01*
X141568770Y-58457379D01*
X141677372Y-58512715D01*
X141728168Y-58560690D01*
X141744963Y-58628511D01*
X141722425Y-58694646D01*
X141677372Y-58733685D01*
X141525933Y-58810847D01*
X141459193Y-58859337D01*
X141364782Y-58927931D01*
X141364780Y-58927933D01*
X141364779Y-58927933D01*
X141223933Y-59068779D01*
X141223933Y-59068780D01*
X141223931Y-59068782D01*
X141173647Y-59137990D01*
X141106847Y-59229933D01*
X141016413Y-59407419D01*
X140954861Y-59596856D01*
X140954861Y-59596859D01*
X140923700Y-59793603D01*
X140923700Y-59992796D01*
X140954861Y-60189540D01*
X140954861Y-60189543D01*
X141016413Y-60378980D01*
X141016415Y-60378983D01*
X141106847Y-60556466D01*
X141223931Y-60717618D01*
X141364782Y-60858469D01*
X141525934Y-60975553D01*
X141580607Y-61003410D01*
X141677372Y-61052715D01*
X141728168Y-61100690D01*
X141744963Y-61168511D01*
X141722425Y-61234646D01*
X141677372Y-61273685D01*
X141525933Y-61350847D01*
X141433990Y-61417647D01*
X141364782Y-61467931D01*
X141364780Y-61467933D01*
X141364779Y-61467933D01*
X141223933Y-61608779D01*
X141223933Y-61608780D01*
X141223931Y-61608782D01*
X141213979Y-61622480D01*
X141106847Y-61769933D01*
X141016413Y-61947419D01*
X140954861Y-62136856D01*
X140954861Y-62136859D01*
X140934762Y-62263760D01*
X140923700Y-62333603D01*
X140923700Y-62532797D01*
X140924553Y-62538184D01*
X140954861Y-62729540D01*
X140954861Y-62729543D01*
X141016413Y-62918980D01*
X141021906Y-62929760D01*
X141106847Y-63096466D01*
X141223931Y-63257618D01*
X141364782Y-63398469D01*
X141525934Y-63515553D01*
X141595653Y-63551077D01*
X141677372Y-63592715D01*
X141728168Y-63640690D01*
X141744963Y-63708511D01*
X141722425Y-63774646D01*
X141677372Y-63813685D01*
X141525933Y-63890847D01*
X141439265Y-63953816D01*
X141364782Y-64007931D01*
X141364780Y-64007933D01*
X141364779Y-64007933D01*
X141223933Y-64148779D01*
X141223933Y-64148780D01*
X141223931Y-64148782D01*
X141173647Y-64217990D01*
X141106847Y-64309933D01*
X141016413Y-64487419D01*
X140954861Y-64676856D01*
X140954861Y-64676859D01*
X140923700Y-64873603D01*
X140923700Y-65072797D01*
X140924553Y-65078184D01*
X140954861Y-65269540D01*
X140954861Y-65269543D01*
X141016413Y-65458980D01*
X141021906Y-65469760D01*
X141106847Y-65636466D01*
X141223931Y-65797618D01*
X141364782Y-65938469D01*
X141525934Y-66055553D01*
X141595653Y-66091077D01*
X141677372Y-66132715D01*
X141728168Y-66180690D01*
X141744963Y-66248511D01*
X141722425Y-66314646D01*
X141677372Y-66353685D01*
X141525933Y-66430847D01*
X141439265Y-66493816D01*
X141364782Y-66547931D01*
X141364780Y-66547933D01*
X141364779Y-66547933D01*
X141223933Y-66688779D01*
X141223933Y-66688780D01*
X141223931Y-66688782D01*
X141173647Y-66757990D01*
X141106847Y-66849933D01*
X141016413Y-67027419D01*
X140954861Y-67216856D01*
X140954861Y-67216859D01*
X140934762Y-67343760D01*
X140923700Y-67413603D01*
X140923700Y-67612797D01*
X140924553Y-67618184D01*
X140954861Y-67809540D01*
X140954861Y-67809543D01*
X141016413Y-67998980D01*
X141021906Y-68009760D01*
X141106847Y-68176466D01*
X141223931Y-68337618D01*
X141364782Y-68478469D01*
X141525934Y-68595553D01*
X141595653Y-68631077D01*
X141677372Y-68672715D01*
X141728168Y-68720690D01*
X141744963Y-68788511D01*
X141722425Y-68854646D01*
X141677372Y-68893685D01*
X141525933Y-68970847D01*
X141439265Y-69033816D01*
X141364782Y-69087931D01*
X141364780Y-69087933D01*
X141364779Y-69087933D01*
X141223933Y-69228779D01*
X141223933Y-69228780D01*
X141223931Y-69228782D01*
X141173647Y-69297990D01*
X141106847Y-69389933D01*
X141016413Y-69567419D01*
X140954861Y-69756856D01*
X140954861Y-69756859D01*
X140934762Y-69883760D01*
X140923700Y-69953603D01*
X140923700Y-70152797D01*
X140924553Y-70158184D01*
X140954861Y-70349540D01*
X140954861Y-70349543D01*
X141016413Y-70538980D01*
X141021906Y-70549760D01*
X141106847Y-70716466D01*
X141223931Y-70877618D01*
X141364782Y-71018469D01*
X141525934Y-71135553D01*
X141595653Y-71171077D01*
X141677372Y-71212715D01*
X141728168Y-71260690D01*
X141744963Y-71328511D01*
X141722425Y-71394646D01*
X141677372Y-71433685D01*
X141525933Y-71510847D01*
X141439265Y-71573816D01*
X141364782Y-71627931D01*
X141364780Y-71627933D01*
X141364779Y-71627933D01*
X141223933Y-71768779D01*
X141223933Y-71768780D01*
X141223931Y-71768782D01*
X141173647Y-71837990D01*
X141106847Y-71929933D01*
X141016413Y-72107419D01*
X140954861Y-72296856D01*
X140954861Y-72296859D01*
X140923700Y-72493603D01*
X140923700Y-72692796D01*
X140954861Y-72889540D01*
X140954861Y-72889543D01*
X141016413Y-73078980D01*
X141106847Y-73256466D01*
X141223931Y-73417618D01*
X141364782Y-73558469D01*
X141525934Y-73675553D01*
X141595653Y-73711077D01*
X141677372Y-73752715D01*
X141728168Y-73800690D01*
X141744963Y-73868511D01*
X141722425Y-73934646D01*
X141677372Y-73973685D01*
X141525933Y-74050847D01*
X141433990Y-74117647D01*
X141364782Y-74167931D01*
X141364780Y-74167933D01*
X141364779Y-74167933D01*
X141223933Y-74308779D01*
X141223933Y-74308780D01*
X141223931Y-74308782D01*
X141184269Y-74363372D01*
X141106847Y-74469933D01*
X141016413Y-74647419D01*
X140954861Y-74836856D01*
X140954861Y-74836859D01*
X140923700Y-75033603D01*
X140923700Y-75232796D01*
X140954861Y-75429540D01*
X140954861Y-75429543D01*
X141016413Y-75618980D01*
X141016415Y-75618983D01*
X141106847Y-75796466D01*
X141223931Y-75957618D01*
X141364782Y-76098469D01*
X141525934Y-76215553D01*
X141595653Y-76251077D01*
X141677372Y-76292715D01*
X141728168Y-76340690D01*
X141744963Y-76408511D01*
X141722425Y-76474646D01*
X141677372Y-76513685D01*
X141525933Y-76590847D01*
X141433990Y-76657647D01*
X141364782Y-76707931D01*
X141364780Y-76707933D01*
X141364779Y-76707933D01*
X141223933Y-76848779D01*
X141223933Y-76848780D01*
X141223931Y-76848782D01*
X141173647Y-76917990D01*
X141106847Y-77009933D01*
X141016413Y-77187419D01*
X140954861Y-77376856D01*
X140954861Y-77376859D01*
X140923700Y-77573603D01*
X140923700Y-77772796D01*
X140954861Y-77969540D01*
X140954861Y-77969543D01*
X141016413Y-78158980D01*
X141016415Y-78158983D01*
X141106847Y-78336466D01*
X141223931Y-78497618D01*
X141364782Y-78638469D01*
X141525934Y-78755553D01*
X141595653Y-78791077D01*
X141677372Y-78832715D01*
X141728168Y-78880690D01*
X141744963Y-78948511D01*
X141722425Y-79014646D01*
X141677372Y-79053685D01*
X141525933Y-79130847D01*
X141433990Y-79197647D01*
X141364782Y-79247931D01*
X141364780Y-79247933D01*
X141364779Y-79247933D01*
X141223933Y-79388779D01*
X141223933Y-79388780D01*
X141223931Y-79388782D01*
X141173647Y-79457990D01*
X141106847Y-79549933D01*
X141016413Y-79727419D01*
X140954861Y-79916856D01*
X140954861Y-79916859D01*
X140923700Y-80113603D01*
X140923700Y-80312796D01*
X140954861Y-80509540D01*
X140954861Y-80509543D01*
X141016413Y-80698980D01*
X141016415Y-80698983D01*
X141106847Y-80876466D01*
X141223931Y-81037618D01*
X141364782Y-81178469D01*
X141525934Y-81295553D01*
X141595653Y-81331077D01*
X141677372Y-81372715D01*
X141728168Y-81420690D01*
X141744963Y-81488511D01*
X141722425Y-81554646D01*
X141677372Y-81593685D01*
X141525933Y-81670847D01*
X141433990Y-81737647D01*
X141364782Y-81787931D01*
X141364780Y-81787933D01*
X141364779Y-81787933D01*
X141223933Y-81928779D01*
X141223933Y-81928780D01*
X141223931Y-81928782D01*
X141173647Y-81997990D01*
X141106847Y-82089933D01*
X141016413Y-82267419D01*
X140954861Y-82456856D01*
X140954861Y-82456859D01*
X140923700Y-82653603D01*
X140923700Y-82852796D01*
X140954861Y-83049540D01*
X140954861Y-83049543D01*
X141016413Y-83238980D01*
X141057695Y-83320000D01*
X141106847Y-83416466D01*
X141223931Y-83577618D01*
X141364782Y-83718469D01*
X141525934Y-83835553D01*
X141595653Y-83871077D01*
X141677372Y-83912715D01*
X141728168Y-83960690D01*
X141744963Y-84028511D01*
X141722425Y-84094646D01*
X141677372Y-84133685D01*
X141525933Y-84210847D01*
X141433990Y-84277647D01*
X141364782Y-84327931D01*
X141364780Y-84327933D01*
X141364779Y-84327933D01*
X141223933Y-84468779D01*
X141223933Y-84468780D01*
X141223931Y-84468782D01*
X141181231Y-84527554D01*
X141106847Y-84629933D01*
X141016413Y-84807419D01*
X140954861Y-84996856D01*
X140954861Y-84996859D01*
X140923700Y-85193603D01*
X140923700Y-85392796D01*
X140954861Y-85589540D01*
X140954861Y-85589543D01*
X141016413Y-85778980D01*
X141049862Y-85844627D01*
X141106847Y-85956466D01*
X141223931Y-86117618D01*
X141364782Y-86258469D01*
X141525934Y-86375553D01*
X141595653Y-86411077D01*
X141677372Y-86452715D01*
X141728168Y-86500690D01*
X141744963Y-86568511D01*
X141722425Y-86634646D01*
X141677372Y-86673685D01*
X141525933Y-86750847D01*
X141471356Y-86790500D01*
X141364782Y-86867931D01*
X141364780Y-86867933D01*
X141364779Y-86867933D01*
X141223933Y-87008779D01*
X141223933Y-87008780D01*
X141223931Y-87008782D01*
X141181040Y-87067816D01*
X141106847Y-87169933D01*
X141016413Y-87347419D01*
X140954861Y-87536856D01*
X140954861Y-87536859D01*
X140923700Y-87733603D01*
X140923700Y-87932796D01*
X140954861Y-88129540D01*
X140954861Y-88129543D01*
X141016413Y-88318980D01*
X141106847Y-88496466D01*
X141223931Y-88657618D01*
X141364782Y-88798469D01*
X141525934Y-88915553D01*
X141595653Y-88951077D01*
X141677372Y-88992715D01*
X141728168Y-89040690D01*
X141744963Y-89108511D01*
X141722425Y-89174646D01*
X141677372Y-89213685D01*
X141525933Y-89290847D01*
X141433990Y-89357647D01*
X141364782Y-89407931D01*
X141364780Y-89407933D01*
X141364779Y-89407933D01*
X141223933Y-89548779D01*
X141223933Y-89548780D01*
X141223931Y-89548782D01*
X141181040Y-89607816D01*
X141106847Y-89709933D01*
X141016413Y-89887419D01*
X140954861Y-90076856D01*
X140954861Y-90076859D01*
X140923700Y-90273603D01*
X140923700Y-90472796D01*
X140954861Y-90669540D01*
X140954861Y-90669543D01*
X141016413Y-90858980D01*
X141016415Y-90858983D01*
X141106847Y-91036466D01*
X141223931Y-91197618D01*
X141364782Y-91338469D01*
X141525934Y-91455553D01*
X141595653Y-91491077D01*
X141677372Y-91532715D01*
X141728168Y-91580690D01*
X141744963Y-91648511D01*
X141722425Y-91714646D01*
X141677372Y-91753685D01*
X141525933Y-91830847D01*
X141433990Y-91897647D01*
X141364782Y-91947931D01*
X141364780Y-91947933D01*
X141364779Y-91947933D01*
X141223933Y-92088779D01*
X141223933Y-92088780D01*
X141223931Y-92088782D01*
X141173647Y-92157990D01*
X141106847Y-92249933D01*
X141016413Y-92427419D01*
X140954861Y-92616856D01*
X140954861Y-92616859D01*
X140923700Y-92813603D01*
X140923700Y-93012796D01*
X140954861Y-93209540D01*
X140954861Y-93209543D01*
X141016413Y-93398980D01*
X141016415Y-93398983D01*
X141106847Y-93576466D01*
X141223931Y-93737618D01*
X141364782Y-93878469D01*
X141525934Y-93995553D01*
X141595653Y-94031077D01*
X141677372Y-94072715D01*
X141728168Y-94120690D01*
X141744963Y-94188511D01*
X141722425Y-94254646D01*
X141677372Y-94293685D01*
X141525933Y-94370847D01*
X141433990Y-94437647D01*
X141364782Y-94487931D01*
X141364780Y-94487933D01*
X141364779Y-94487933D01*
X141223933Y-94628779D01*
X141223933Y-94628780D01*
X141223931Y-94628782D01*
X141173647Y-94697990D01*
X141106847Y-94789933D01*
X141016413Y-94967419D01*
X140954861Y-95156856D01*
X140954861Y-95156859D01*
X140923700Y-95353603D01*
X140923700Y-95552796D01*
X140954861Y-95749540D01*
X140954861Y-95749543D01*
X141016413Y-95938980D01*
X141016415Y-95938983D01*
X141106847Y-96116466D01*
X141223931Y-96277618D01*
X141364782Y-96418469D01*
X141525934Y-96535553D01*
X141595653Y-96571077D01*
X141677372Y-96612715D01*
X141728168Y-96660690D01*
X141744963Y-96728511D01*
X141722425Y-96794646D01*
X141677372Y-96833685D01*
X141525933Y-96910847D01*
X141433990Y-96977647D01*
X141364782Y-97027931D01*
X141364780Y-97027933D01*
X141364779Y-97027933D01*
X141223933Y-97168779D01*
X141223933Y-97168780D01*
X141223931Y-97168782D01*
X141173647Y-97237990D01*
X141106847Y-97329933D01*
X141016413Y-97507419D01*
X140954861Y-97696856D01*
X140954861Y-97696859D01*
X140923700Y-97893603D01*
X140923700Y-98092796D01*
X140954861Y-98289540D01*
X140954861Y-98289543D01*
X141016413Y-98478980D01*
X141016415Y-98478983D01*
X141106847Y-98656466D01*
X141223931Y-98817618D01*
X141364782Y-98958469D01*
X141525934Y-99075553D01*
X141616109Y-99121499D01*
X141677922Y-99152995D01*
X141728718Y-99200970D01*
X141745513Y-99268791D01*
X141722976Y-99334926D01*
X141677923Y-99373964D01*
X141526193Y-99451275D01*
X141488335Y-99478780D01*
X141488335Y-99478781D01*
X142051625Y-100042071D01*
X141992347Y-100057955D01*
X141876053Y-100125098D01*
X141781098Y-100220053D01*
X141713955Y-100336347D01*
X141698071Y-100395625D01*
X141134781Y-99832335D01*
X141134780Y-99832335D01*
X141107277Y-99870190D01*
X141016879Y-100047605D01*
X140955347Y-100236977D01*
X140924200Y-100433636D01*
X140924200Y-100632763D01*
X140955347Y-100829422D01*
X141016879Y-101018794D01*
X141107277Y-101196208D01*
X141134780Y-101234063D01*
X141134781Y-101234064D01*
X141698071Y-100670774D01*
X141713955Y-100730053D01*
X141781098Y-100846347D01*
X141876053Y-100941302D01*
X141992347Y-101008445D01*
X142051625Y-101024328D01*
X141488334Y-101587617D01*
X141526199Y-101615128D01*
X141678472Y-101692716D01*
X141729268Y-101740690D01*
X141746063Y-101808511D01*
X141723525Y-101874646D01*
X141678472Y-101913684D01*
X141526196Y-101991273D01*
X141526195Y-101991274D01*
X141488335Y-102018780D01*
X141488335Y-102018781D01*
X142051625Y-102582071D01*
X141992347Y-102597955D01*
X141876053Y-102665098D01*
X141781098Y-102760053D01*
X141713955Y-102876347D01*
X141698071Y-102935625D01*
X141134781Y-102372335D01*
X141134780Y-102372335D01*
X141107277Y-102410190D01*
X141016879Y-102587605D01*
X140955347Y-102776977D01*
X140924200Y-102973636D01*
X140924200Y-103172763D01*
X140955347Y-103369422D01*
X141016879Y-103558794D01*
X141107277Y-103736208D01*
X141134780Y-103774063D01*
X141134781Y-103774064D01*
X141698071Y-103210774D01*
X141713955Y-103270053D01*
X141781098Y-103386347D01*
X141876053Y-103481302D01*
X141992347Y-103548445D01*
X142051625Y-103564328D01*
X141488334Y-104127617D01*
X141526194Y-104155124D01*
X141703605Y-104245520D01*
X141892977Y-104307052D01*
X142089637Y-104338200D01*
X142288763Y-104338200D01*
X142485422Y-104307052D01*
X142674794Y-104245520D01*
X142852205Y-104155124D01*
X142890063Y-104127618D01*
X142890063Y-104127617D01*
X142326774Y-103564328D01*
X142386053Y-103548445D01*
X142502347Y-103481302D01*
X142597302Y-103386347D01*
X142664445Y-103270053D01*
X142680328Y-103210774D01*
X143243617Y-103774063D01*
X143243618Y-103774063D01*
X143271124Y-103736205D01*
X143361520Y-103558794D01*
X143423052Y-103369422D01*
X143454200Y-103172763D01*
X143454200Y-102973636D01*
X143423052Y-102776977D01*
X143361520Y-102587605D01*
X143271124Y-102410194D01*
X143243617Y-102372335D01*
X143243617Y-102372334D01*
X142680328Y-102935624D01*
X142664445Y-102876347D01*
X142597302Y-102760053D01*
X142502347Y-102665098D01*
X142386053Y-102597955D01*
X142326774Y-102582071D01*
X142890064Y-102018781D01*
X142890063Y-102018780D01*
X142852208Y-101991277D01*
X142699927Y-101913685D01*
X142649131Y-101865710D01*
X142632336Y-101797889D01*
X142654874Y-101731754D01*
X142699927Y-101692715D01*
X142852205Y-101615124D01*
X142890063Y-101587618D01*
X142890063Y-101587617D01*
X142326774Y-101024328D01*
X142386053Y-101008445D01*
X142502347Y-100941302D01*
X142597302Y-100846347D01*
X142664445Y-100730053D01*
X142680328Y-100670774D01*
X143243617Y-101234063D01*
X143243618Y-101234063D01*
X143271124Y-101196205D01*
X143361520Y-101018794D01*
X143423052Y-100829422D01*
X143454200Y-100632763D01*
X143454200Y-100433636D01*
X143423052Y-100236977D01*
X143361520Y-100047605D01*
X143271124Y-99870194D01*
X143243617Y-99832335D01*
X143243617Y-99832334D01*
X142680328Y-100395624D01*
X142664445Y-100336347D01*
X142597302Y-100220053D01*
X142502347Y-100125098D01*
X142386053Y-100057955D01*
X142326774Y-100042071D01*
X142890064Y-99478781D01*
X142890063Y-99478780D01*
X142852208Y-99451277D01*
X142700477Y-99373965D01*
X142649681Y-99325990D01*
X142632886Y-99258169D01*
X142655424Y-99192034D01*
X142700477Y-99152995D01*
X142701027Y-99152715D01*
X142852466Y-99075553D01*
X143013618Y-98958469D01*
X143154469Y-98817618D01*
X143271553Y-98656466D01*
X143361985Y-98478983D01*
X143423539Y-98289539D01*
X143454700Y-98092797D01*
X143454700Y-97893603D01*
X143423539Y-97696861D01*
X143423538Y-97696857D01*
X143423538Y-97696856D01*
X143361986Y-97507419D01*
X143273935Y-97334609D01*
X143271553Y-97329934D01*
X143154469Y-97168782D01*
X143013618Y-97027931D01*
X142852466Y-96910847D01*
X142701027Y-96833685D01*
X142650231Y-96785710D01*
X142633436Y-96717889D01*
X142655973Y-96651754D01*
X142701027Y-96612715D01*
X142710316Y-96607981D01*
X142852466Y-96535553D01*
X143013618Y-96418469D01*
X143154469Y-96277618D01*
X143271553Y-96116466D01*
X143361985Y-95938983D01*
X143423539Y-95749539D01*
X143454700Y-95552797D01*
X143454700Y-95353603D01*
X143423539Y-95156861D01*
X143423538Y-95156857D01*
X143423538Y-95156856D01*
X143361986Y-94967419D01*
X143271552Y-94789933D01*
X143154469Y-94628782D01*
X143013618Y-94487931D01*
X142852466Y-94370847D01*
X142701027Y-94293685D01*
X142650231Y-94245710D01*
X142633436Y-94177889D01*
X142655973Y-94111754D01*
X142701027Y-94072715D01*
X142710316Y-94067981D01*
X142852466Y-93995553D01*
X143013618Y-93878469D01*
X143154469Y-93737618D01*
X143271553Y-93576466D01*
X143361985Y-93398983D01*
X143423539Y-93209539D01*
X143454700Y-93012797D01*
X143454700Y-92813603D01*
X143423539Y-92616861D01*
X143423538Y-92616857D01*
X143423538Y-92616856D01*
X143361986Y-92427419D01*
X143316345Y-92337844D01*
X143271553Y-92249934D01*
X143154469Y-92088782D01*
X143013618Y-91947931D01*
X142852466Y-91830847D01*
X142701027Y-91753685D01*
X142691873Y-91745040D01*
X142680209Y-91740306D01*
X142666955Y-91721505D01*
X142650231Y-91705710D01*
X142647204Y-91693489D01*
X142639951Y-91683200D01*
X142638965Y-91660216D01*
X142633436Y-91637889D01*
X142637496Y-91625973D01*
X142636957Y-91613395D01*
X142648552Y-91593529D01*
X142655973Y-91571754D01*
X142666676Y-91562479D01*
X142672179Y-91553052D01*
X142701025Y-91532716D01*
X142709978Y-91528154D01*
X142709977Y-91528154D01*
X142852466Y-91455553D01*
X143013618Y-91338469D01*
X143154469Y-91197618D01*
X143271553Y-91036466D01*
X143361985Y-90858983D01*
X143423539Y-90669539D01*
X143454700Y-90472797D01*
X143454700Y-90273603D01*
X143423539Y-90076861D01*
X143423538Y-90076857D01*
X143423538Y-90076856D01*
X143361986Y-89887419D01*
X143271552Y-89709933D01*
X143154469Y-89548782D01*
X143013618Y-89407931D01*
X142852466Y-89290847D01*
X142706047Y-89216243D01*
X142701027Y-89213685D01*
X142650231Y-89165710D01*
X142633436Y-89097889D01*
X142655973Y-89031754D01*
X142701027Y-88992715D01*
X142710316Y-88987981D01*
X142852466Y-88915553D01*
X143013618Y-88798469D01*
X143154469Y-88657618D01*
X143271553Y-88496466D01*
X143361985Y-88318983D01*
X143361986Y-88318980D01*
X143423538Y-88129543D01*
X143423538Y-88129542D01*
X143423539Y-88129539D01*
X143454700Y-87932797D01*
X143454700Y-87733603D01*
X143423539Y-87536861D01*
X143423538Y-87536857D01*
X143423538Y-87536856D01*
X143361986Y-87347419D01*
X143361985Y-87347417D01*
X143271553Y-87169934D01*
X143154469Y-87008782D01*
X143013618Y-86867931D01*
X142852466Y-86750847D01*
X142706047Y-86676243D01*
X142701027Y-86673685D01*
X142650231Y-86625710D01*
X142633436Y-86557889D01*
X142655973Y-86491754D01*
X142701027Y-86452715D01*
X142740628Y-86432537D01*
X142852466Y-86375553D01*
X143013618Y-86258469D01*
X143018374Y-86253713D01*
X151998500Y-86253713D01*
X151998500Y-86466286D01*
X152031348Y-86673685D01*
X152031754Y-86676243D01*
X152055994Y-86750847D01*
X152097444Y-86878414D01*
X152193951Y-87067820D01*
X152318890Y-87239786D01*
X152469213Y-87390109D01*
X152641182Y-87515050D01*
X152649946Y-87519516D01*
X152700742Y-87567491D01*
X152717536Y-87635312D01*
X152694998Y-87701447D01*
X152649946Y-87740484D01*
X152641182Y-87744949D01*
X152469213Y-87869890D01*
X152318890Y-88020213D01*
X152193951Y-88192179D01*
X152097444Y-88381585D01*
X152031753Y-88583760D01*
X151998500Y-88793713D01*
X151998500Y-89006286D01*
X152031348Y-89213685D01*
X152031754Y-89216243D01*
X152055994Y-89290847D01*
X152097444Y-89418414D01*
X152193951Y-89607820D01*
X152318890Y-89779786D01*
X152432818Y-89893714D01*
X152466303Y-89955037D01*
X152461319Y-90024729D01*
X152419447Y-90080662D01*
X152388471Y-90097577D01*
X152256912Y-90146646D01*
X152256906Y-90146649D01*
X152141812Y-90232809D01*
X152141809Y-90232812D01*
X152055649Y-90347906D01*
X152055645Y-90347913D01*
X152005403Y-90482620D01*
X152005401Y-90482627D01*
X151999000Y-90542155D01*
X151999000Y-91190000D01*
X152915988Y-91190000D01*
X152883075Y-91247007D01*
X152849000Y-91374174D01*
X152849000Y-91505826D01*
X152883075Y-91632993D01*
X152915988Y-91690000D01*
X151999000Y-91690000D01*
X151999000Y-92337844D01*
X152005401Y-92397372D01*
X152005403Y-92397379D01*
X152055645Y-92532086D01*
X152055649Y-92532093D01*
X152141809Y-92647187D01*
X152141812Y-92647190D01*
X152256906Y-92733350D01*
X152256913Y-92733354D01*
X152391620Y-92783596D01*
X152391627Y-92783598D01*
X152451155Y-92789999D01*
X152451172Y-92790000D01*
X153099000Y-92790000D01*
X153099000Y-91873012D01*
X153156007Y-91905925D01*
X153283174Y-91940000D01*
X153414826Y-91940000D01*
X153541993Y-91905925D01*
X153599000Y-91873012D01*
X153599000Y-92790000D01*
X154246828Y-92790000D01*
X154246844Y-92789999D01*
X154306372Y-92783598D01*
X154306379Y-92783596D01*
X154441086Y-92733354D01*
X154441093Y-92733350D01*
X154556187Y-92647190D01*
X154556190Y-92647187D01*
X154642350Y-92532093D01*
X154642354Y-92532086D01*
X154692596Y-92397379D01*
X154692598Y-92397372D01*
X154698999Y-92337844D01*
X154699000Y-92337827D01*
X154699000Y-91690000D01*
X153782012Y-91690000D01*
X153814925Y-91632993D01*
X153849000Y-91505826D01*
X153849000Y-91374174D01*
X153814925Y-91247007D01*
X153782012Y-91190000D01*
X154699000Y-91190000D01*
X154699000Y-90542172D01*
X154698999Y-90542155D01*
X154692598Y-90482627D01*
X154692596Y-90482620D01*
X154642354Y-90347913D01*
X154642350Y-90347906D01*
X154556190Y-90232812D01*
X154556187Y-90232809D01*
X154441093Y-90146649D01*
X154441088Y-90146646D01*
X154309528Y-90097577D01*
X154253595Y-90055705D01*
X154229178Y-89990241D01*
X154244030Y-89921968D01*
X154265175Y-89893720D01*
X154379104Y-89779792D01*
X154429859Y-89709934D01*
X154504048Y-89607820D01*
X154504047Y-89607820D01*
X154504051Y-89607816D01*
X154600557Y-89418412D01*
X154666246Y-89216243D01*
X154699500Y-89006287D01*
X154699500Y-88793713D01*
X154666246Y-88583757D01*
X154600557Y-88381588D01*
X154504051Y-88192184D01*
X154504049Y-88192181D01*
X154504048Y-88192179D01*
X154379109Y-88020213D01*
X154228786Y-87869890D01*
X154056820Y-87744951D01*
X154056115Y-87744591D01*
X154048054Y-87740485D01*
X153997259Y-87692512D01*
X153980463Y-87624692D01*
X154002999Y-87558556D01*
X154048054Y-87519515D01*
X154056816Y-87515051D01*
X154119011Y-87469864D01*
X154228786Y-87390109D01*
X154228788Y-87390106D01*
X154228792Y-87390104D01*
X154379104Y-87239792D01*
X154379106Y-87239788D01*
X154379109Y-87239786D01*
X154504048Y-87067820D01*
X154504047Y-87067820D01*
X154504051Y-87067816D01*
X154600557Y-86878412D01*
X154666246Y-86676243D01*
X154699500Y-86466287D01*
X154699500Y-86253713D01*
X154666246Y-86043757D01*
X154600557Y-85841588D01*
X154504051Y-85652184D01*
X154504049Y-85652181D01*
X154504048Y-85652179D01*
X154379109Y-85480213D01*
X154228786Y-85329890D01*
X154056817Y-85204949D01*
X154047504Y-85200204D01*
X153996707Y-85152230D01*
X153979912Y-85084409D01*
X154002449Y-85018274D01*
X154047507Y-84979232D01*
X154056555Y-84974622D01*
X154110716Y-84935270D01*
X154110717Y-84935270D01*
X153478408Y-84302962D01*
X153541993Y-84285925D01*
X153656007Y-84220099D01*
X153749099Y-84127007D01*
X153814925Y-84012993D01*
X153831962Y-83949409D01*
X154464270Y-84581717D01*
X154464270Y-84581716D01*
X154503622Y-84527554D01*
X154600095Y-84338217D01*
X154665757Y-84136130D01*
X154665757Y-84136127D01*
X154699000Y-83926246D01*
X154699000Y-83713753D01*
X154665757Y-83503872D01*
X154665757Y-83503869D01*
X154600095Y-83301782D01*
X154503624Y-83112449D01*
X154464270Y-83058282D01*
X154464269Y-83058282D01*
X153831962Y-83690590D01*
X153814925Y-83627007D01*
X153749099Y-83512993D01*
X153656007Y-83419901D01*
X153541993Y-83354075D01*
X153478409Y-83337037D01*
X154110716Y-82704728D01*
X154056550Y-82665375D01*
X153867217Y-82568904D01*
X153665129Y-82503242D01*
X153455246Y-82470000D01*
X153242754Y-82470000D01*
X153032872Y-82503242D01*
X153032869Y-82503242D01*
X152830782Y-82568904D01*
X152641439Y-82665380D01*
X152587282Y-82704727D01*
X152587282Y-82704728D01*
X153219591Y-83337037D01*
X153156007Y-83354075D01*
X153041993Y-83419901D01*
X152948901Y-83512993D01*
X152883075Y-83627007D01*
X152866037Y-83690591D01*
X152233728Y-83058282D01*
X152233727Y-83058282D01*
X152194380Y-83112439D01*
X152097904Y-83301782D01*
X152032242Y-83503869D01*
X152032242Y-83503872D01*
X151999000Y-83713753D01*
X151999000Y-83926246D01*
X152032242Y-84136127D01*
X152032242Y-84136130D01*
X152097904Y-84338217D01*
X152194375Y-84527550D01*
X152233728Y-84581716D01*
X152866037Y-83949408D01*
X152883075Y-84012993D01*
X152948901Y-84127007D01*
X153041993Y-84220099D01*
X153156007Y-84285925D01*
X153219590Y-84302962D01*
X152587282Y-84935269D01*
X152587282Y-84935270D01*
X152641452Y-84974626D01*
X152641451Y-84974626D01*
X152650495Y-84979234D01*
X152701292Y-85027208D01*
X152718087Y-85095029D01*
X152695550Y-85161164D01*
X152650499Y-85200202D01*
X152641182Y-85204949D01*
X152469213Y-85329890D01*
X152318890Y-85480213D01*
X152193951Y-85652179D01*
X152097444Y-85841585D01*
X152031753Y-86043760D01*
X151998500Y-86253713D01*
X143018374Y-86253713D01*
X143154469Y-86117618D01*
X143271553Y-85956466D01*
X143361985Y-85778983D01*
X143369375Y-85756239D01*
X143423538Y-85589543D01*
X143423538Y-85589542D01*
X143423539Y-85589539D01*
X143454700Y-85392797D01*
X143454700Y-85193603D01*
X143423539Y-84996861D01*
X143423538Y-84996857D01*
X143423538Y-84996856D01*
X143361986Y-84807419D01*
X143271552Y-84629933D01*
X143236521Y-84581717D01*
X143154469Y-84468782D01*
X143013618Y-84327931D01*
X142852466Y-84210847D01*
X142736103Y-84151557D01*
X142701027Y-84133685D01*
X142650231Y-84085710D01*
X142633436Y-84017889D01*
X142655973Y-83951754D01*
X142701027Y-83912715D01*
X142710316Y-83907981D01*
X142852466Y-83835553D01*
X143013618Y-83718469D01*
X143154469Y-83577618D01*
X143271553Y-83416466D01*
X143361985Y-83238983D01*
X143369375Y-83216239D01*
X143423538Y-83049543D01*
X143423538Y-83049542D01*
X143423539Y-83049539D01*
X143454700Y-82852797D01*
X143454700Y-82653603D01*
X143423539Y-82456861D01*
X143423538Y-82456857D01*
X143423538Y-82456856D01*
X143361986Y-82267419D01*
X143271552Y-82089933D01*
X143154469Y-81928782D01*
X143013618Y-81787931D01*
X142852466Y-81670847D01*
X142701027Y-81593685D01*
X142650231Y-81545710D01*
X142633436Y-81477889D01*
X142655973Y-81411754D01*
X142701027Y-81372715D01*
X142710316Y-81367981D01*
X142852466Y-81295553D01*
X143013618Y-81178469D01*
X143154469Y-81037618D01*
X143271553Y-80876466D01*
X143361985Y-80698983D01*
X143423539Y-80509539D01*
X143454700Y-80312797D01*
X143454700Y-80113603D01*
X143423539Y-79916861D01*
X143423538Y-79916857D01*
X143423538Y-79916856D01*
X143361986Y-79727419D01*
X143271552Y-79549933D01*
X143154469Y-79388782D01*
X143013618Y-79247931D01*
X142852466Y-79130847D01*
X142701027Y-79053685D01*
X142650231Y-79005710D01*
X142633436Y-78937889D01*
X142655973Y-78871754D01*
X142701027Y-78832715D01*
X142710316Y-78827981D01*
X142852466Y-78755553D01*
X143013618Y-78638469D01*
X143154469Y-78497618D01*
X143271553Y-78336466D01*
X143361985Y-78158983D01*
X143423539Y-77969539D01*
X143454700Y-77772797D01*
X143454700Y-77573603D01*
X143423539Y-77376861D01*
X143423538Y-77376857D01*
X143423538Y-77376856D01*
X143361986Y-77187419D01*
X143271552Y-77009933D01*
X143154469Y-76848782D01*
X143013618Y-76707931D01*
X142852466Y-76590847D01*
X142701027Y-76513685D01*
X142650231Y-76465710D01*
X142633436Y-76397889D01*
X142655973Y-76331754D01*
X142701027Y-76292715D01*
X142710316Y-76287981D01*
X142852466Y-76215553D01*
X143013618Y-76098469D01*
X143154469Y-75957618D01*
X143271553Y-75796466D01*
X143361985Y-75618983D01*
X143408048Y-75477215D01*
X143423538Y-75429543D01*
X143423538Y-75429542D01*
X143423539Y-75429539D01*
X143454700Y-75232797D01*
X143454700Y-75033603D01*
X143423539Y-74836861D01*
X143423538Y-74836857D01*
X143423538Y-74836856D01*
X143361986Y-74647419D01*
X143323649Y-74572179D01*
X143271553Y-74469934D01*
X143154469Y-74308782D01*
X143013618Y-74167931D01*
X142852466Y-74050847D01*
X142701027Y-73973685D01*
X142650231Y-73925710D01*
X142633436Y-73857889D01*
X142655973Y-73791754D01*
X142701027Y-73752715D01*
X142710316Y-73747981D01*
X142852466Y-73675553D01*
X143013618Y-73558469D01*
X143154469Y-73417618D01*
X143271553Y-73256466D01*
X143361985Y-73078983D01*
X143423539Y-72889539D01*
X143454700Y-72692797D01*
X143454700Y-72493603D01*
X143423539Y-72296861D01*
X143423538Y-72296857D01*
X143423538Y-72296856D01*
X143361986Y-72107419D01*
X143323649Y-72032179D01*
X143271553Y-71929934D01*
X143154469Y-71768782D01*
X143013618Y-71627931D01*
X142852466Y-71510847D01*
X142701027Y-71433685D01*
X142650231Y-71385710D01*
X142633436Y-71317889D01*
X142655973Y-71251754D01*
X142701027Y-71212715D01*
X142710316Y-71207981D01*
X142852466Y-71135553D01*
X143013618Y-71018469D01*
X143154469Y-70877618D01*
X143271553Y-70716466D01*
X143361985Y-70538983D01*
X143423539Y-70349539D01*
X143454700Y-70152797D01*
X143454700Y-69953603D01*
X143423539Y-69756861D01*
X143423538Y-69756857D01*
X143423538Y-69756856D01*
X143361986Y-69567419D01*
X143271552Y-69389933D01*
X143154469Y-69228782D01*
X143013618Y-69087931D01*
X142852466Y-68970847D01*
X142701027Y-68893685D01*
X142650231Y-68845710D01*
X142633436Y-68777889D01*
X142655973Y-68711754D01*
X142701027Y-68672715D01*
X142710316Y-68667981D01*
X142852466Y-68595553D01*
X143013618Y-68478469D01*
X143154469Y-68337618D01*
X143271553Y-68176466D01*
X143361985Y-67998983D01*
X143423539Y-67809539D01*
X143454700Y-67612797D01*
X143454700Y-67413603D01*
X143423539Y-67216861D01*
X143423538Y-67216857D01*
X143423538Y-67216856D01*
X143361986Y-67027419D01*
X143271552Y-66849933D01*
X143154469Y-66688782D01*
X143013618Y-66547931D01*
X142852466Y-66430847D01*
X142701027Y-66353685D01*
X142650231Y-66305710D01*
X142633436Y-66237889D01*
X142655973Y-66171754D01*
X142701027Y-66132715D01*
X142710316Y-66127981D01*
X142852466Y-66055553D01*
X143013618Y-65938469D01*
X143154469Y-65797618D01*
X143271553Y-65636466D01*
X143361985Y-65458983D01*
X143423539Y-65269539D01*
X143454700Y-65072797D01*
X143454700Y-64873603D01*
X143423539Y-64676861D01*
X143423538Y-64676857D01*
X143423538Y-64676856D01*
X143361986Y-64487419D01*
X143271552Y-64309933D01*
X143154469Y-64148782D01*
X143013618Y-64007931D01*
X142852466Y-63890847D01*
X142701027Y-63813685D01*
X142650231Y-63765710D01*
X142633436Y-63697889D01*
X142655973Y-63631754D01*
X142701027Y-63592715D01*
X142710316Y-63587981D01*
X142852466Y-63515553D01*
X143013618Y-63398469D01*
X143154469Y-63257618D01*
X143240132Y-63139713D01*
X151998500Y-63139713D01*
X151998500Y-63352287D01*
X152031754Y-63562243D01*
X152075828Y-63697889D01*
X152097444Y-63764414D01*
X152193951Y-63953820D01*
X152318890Y-64125786D01*
X152469213Y-64276109D01*
X152641182Y-64401050D01*
X152649946Y-64405516D01*
X152700742Y-64453491D01*
X152717536Y-64521312D01*
X152694998Y-64587447D01*
X152649946Y-64626484D01*
X152641182Y-64630949D01*
X152469213Y-64755890D01*
X152318890Y-64906213D01*
X152193951Y-65078179D01*
X152097444Y-65267585D01*
X152031753Y-65469760D01*
X152005350Y-65636466D01*
X151998500Y-65679713D01*
X151998500Y-65892287D01*
X152031754Y-66102243D01*
X152075828Y-66237889D01*
X152097444Y-66304414D01*
X152193951Y-66493820D01*
X152318890Y-66665786D01*
X152469213Y-66816109D01*
X152641182Y-66941050D01*
X152649946Y-66945516D01*
X152700742Y-66993491D01*
X152717536Y-67061312D01*
X152694998Y-67127447D01*
X152649946Y-67166484D01*
X152641182Y-67170949D01*
X152469213Y-67295890D01*
X152318890Y-67446213D01*
X152193951Y-67618179D01*
X152097444Y-67807585D01*
X152031753Y-68009760D01*
X152005350Y-68176466D01*
X151998500Y-68219713D01*
X151998500Y-68432287D01*
X152031754Y-68642243D01*
X152075828Y-68777889D01*
X152097444Y-68844414D01*
X152193951Y-69033820D01*
X152318890Y-69205786D01*
X152469213Y-69356109D01*
X152641182Y-69481050D01*
X152649946Y-69485516D01*
X152700742Y-69533491D01*
X152717536Y-69601312D01*
X152694998Y-69667447D01*
X152649946Y-69706484D01*
X152641182Y-69710949D01*
X152469213Y-69835890D01*
X152318890Y-69986213D01*
X152193951Y-70158179D01*
X152097444Y-70347585D01*
X152031753Y-70549760D01*
X152005350Y-70716466D01*
X151998500Y-70759713D01*
X151998500Y-70972287D01*
X152031754Y-71182243D01*
X152075828Y-71317889D01*
X152097444Y-71384414D01*
X152193951Y-71573820D01*
X152318890Y-71745786D01*
X152432818Y-71859714D01*
X152466303Y-71921037D01*
X152461319Y-71990729D01*
X152419447Y-72046662D01*
X152388471Y-72063577D01*
X152256912Y-72112646D01*
X152256906Y-72112649D01*
X152141812Y-72198809D01*
X152141809Y-72198812D01*
X152055649Y-72313906D01*
X152055645Y-72313913D01*
X152005403Y-72448620D01*
X152005401Y-72448627D01*
X151999000Y-72508155D01*
X151999000Y-73156000D01*
X152915988Y-73156000D01*
X152883075Y-73213007D01*
X152849000Y-73340174D01*
X152849000Y-73471826D01*
X152883075Y-73598993D01*
X152915988Y-73656000D01*
X151999000Y-73656000D01*
X151999000Y-74303844D01*
X152005401Y-74363372D01*
X152005403Y-74363379D01*
X152055645Y-74498086D01*
X152055649Y-74498093D01*
X152141809Y-74613187D01*
X152141812Y-74613190D01*
X152256906Y-74699350D01*
X152256913Y-74699354D01*
X152391620Y-74749596D01*
X152391627Y-74749598D01*
X152451155Y-74755999D01*
X152451172Y-74756000D01*
X153099000Y-74756000D01*
X153099000Y-73839012D01*
X153156007Y-73871925D01*
X153283174Y-73906000D01*
X153414826Y-73906000D01*
X153541993Y-73871925D01*
X153599000Y-73839012D01*
X153599000Y-74756000D01*
X154246828Y-74756000D01*
X154246844Y-74755999D01*
X154306372Y-74749598D01*
X154306379Y-74749596D01*
X154441086Y-74699354D01*
X154441093Y-74699350D01*
X154556187Y-74613190D01*
X154556190Y-74613187D01*
X154642350Y-74498093D01*
X154642354Y-74498086D01*
X154692596Y-74363379D01*
X154692598Y-74363372D01*
X154698999Y-74303844D01*
X154699000Y-74303827D01*
X154699000Y-73656000D01*
X153782012Y-73656000D01*
X153814925Y-73598993D01*
X153849000Y-73471826D01*
X153849000Y-73340174D01*
X153814925Y-73213007D01*
X153782012Y-73156000D01*
X154699000Y-73156000D01*
X154699000Y-72508172D01*
X154698999Y-72508155D01*
X154692598Y-72448627D01*
X154692596Y-72448620D01*
X154642354Y-72313913D01*
X154642350Y-72313906D01*
X154556190Y-72198812D01*
X154556187Y-72198809D01*
X154441093Y-72112649D01*
X154441088Y-72112646D01*
X154309528Y-72063577D01*
X154253595Y-72021705D01*
X154229178Y-71956241D01*
X154244030Y-71887968D01*
X154265175Y-71859720D01*
X154379104Y-71745792D01*
X154504051Y-71573816D01*
X154600557Y-71384412D01*
X154666246Y-71182243D01*
X154699500Y-70972287D01*
X154699500Y-70759713D01*
X154666246Y-70549757D01*
X154600557Y-70347588D01*
X154504051Y-70158184D01*
X154504049Y-70158181D01*
X154504048Y-70158179D01*
X154379109Y-69986213D01*
X154228786Y-69835890D01*
X154056820Y-69710951D01*
X154056115Y-69710591D01*
X154048054Y-69706485D01*
X153997259Y-69658512D01*
X153980463Y-69590692D01*
X154002999Y-69524556D01*
X154048054Y-69485515D01*
X154056816Y-69481051D01*
X154182229Y-69389934D01*
X154228786Y-69356109D01*
X154228788Y-69356106D01*
X154228792Y-69356104D01*
X154379104Y-69205792D01*
X154379106Y-69205788D01*
X154379109Y-69205786D01*
X154504048Y-69033820D01*
X154504047Y-69033820D01*
X154504051Y-69033816D01*
X154600557Y-68844412D01*
X154666246Y-68642243D01*
X154699500Y-68432287D01*
X154699500Y-68219713D01*
X154666246Y-68009757D01*
X154600557Y-67807588D01*
X154504051Y-67618184D01*
X154504049Y-67618181D01*
X154504048Y-67618179D01*
X154379109Y-67446213D01*
X154228786Y-67295890D01*
X154056820Y-67170951D01*
X154056115Y-67170591D01*
X154048054Y-67166485D01*
X153997259Y-67118512D01*
X153980463Y-67050692D01*
X154002999Y-66984556D01*
X154048054Y-66945515D01*
X154056816Y-66941051D01*
X154182229Y-66849934D01*
X154228786Y-66816109D01*
X154228788Y-66816106D01*
X154228792Y-66816104D01*
X154379104Y-66665792D01*
X154379106Y-66665788D01*
X154379109Y-66665786D01*
X154504048Y-66493820D01*
X154504047Y-66493820D01*
X154504051Y-66493816D01*
X154600557Y-66304412D01*
X154666246Y-66102243D01*
X154699500Y-65892287D01*
X154699500Y-65679713D01*
X154666246Y-65469757D01*
X154600557Y-65267588D01*
X154504051Y-65078184D01*
X154504049Y-65078181D01*
X154504048Y-65078179D01*
X154379109Y-64906213D01*
X154228786Y-64755890D01*
X154056820Y-64630951D01*
X154056115Y-64630591D01*
X154048054Y-64626485D01*
X153997259Y-64578512D01*
X153980463Y-64510692D01*
X154002999Y-64444556D01*
X154048054Y-64405515D01*
X154056816Y-64401051D01*
X154182229Y-64309934D01*
X154228786Y-64276109D01*
X154228788Y-64276106D01*
X154228792Y-64276104D01*
X154379104Y-64125792D01*
X154379106Y-64125788D01*
X154379109Y-64125786D01*
X154504048Y-63953820D01*
X154504047Y-63953820D01*
X154504051Y-63953816D01*
X154600557Y-63764412D01*
X154666246Y-63562243D01*
X154699500Y-63352287D01*
X154699500Y-63139713D01*
X154666246Y-62929757D01*
X154600557Y-62727588D01*
X154504051Y-62538184D01*
X154504049Y-62538181D01*
X154504048Y-62538179D01*
X154379109Y-62366213D01*
X154228786Y-62215890D01*
X154056820Y-62090951D01*
X153867414Y-61994444D01*
X153867413Y-61994443D01*
X153867412Y-61994443D01*
X153665243Y-61928754D01*
X153665241Y-61928753D01*
X153665240Y-61928753D01*
X153503957Y-61903208D01*
X153455287Y-61895500D01*
X153242713Y-61895500D01*
X153194042Y-61903208D01*
X153032760Y-61928753D01*
X152830585Y-61994444D01*
X152641179Y-62090951D01*
X152469213Y-62215890D01*
X152318890Y-62366213D01*
X152193951Y-62538179D01*
X152097444Y-62727585D01*
X152031753Y-62929760D01*
X152020122Y-63003199D01*
X151998500Y-63139713D01*
X143240132Y-63139713D01*
X143271553Y-63096466D01*
X143361985Y-62918983D01*
X143423539Y-62729539D01*
X143454700Y-62532797D01*
X143454700Y-62333603D01*
X143423539Y-62136861D01*
X143423538Y-62136857D01*
X143423538Y-62136856D01*
X143361986Y-61947419D01*
X143323158Y-61871215D01*
X143271553Y-61769934D01*
X143154469Y-61608782D01*
X143013618Y-61467931D01*
X142852466Y-61350847D01*
X142701027Y-61273685D01*
X142650231Y-61225710D01*
X142633436Y-61157889D01*
X142655973Y-61091754D01*
X142701027Y-61052715D01*
X142710316Y-61047981D01*
X142852466Y-60975553D01*
X143013618Y-60858469D01*
X143154469Y-60717618D01*
X143271553Y-60556466D01*
X143361985Y-60378983D01*
X143423539Y-60189539D01*
X143454700Y-59992797D01*
X143454700Y-59793603D01*
X143423539Y-59596861D01*
X143423538Y-59596857D01*
X143423538Y-59596856D01*
X143361986Y-59407419D01*
X143271552Y-59229933D01*
X143154469Y-59068782D01*
X143013618Y-58927931D01*
X142852466Y-58810847D01*
X142701027Y-58733685D01*
X142650231Y-58685710D01*
X142633436Y-58617889D01*
X142655973Y-58551754D01*
X142701027Y-58512715D01*
X142710316Y-58507981D01*
X142852466Y-58435553D01*
X143013618Y-58318469D01*
X143154469Y-58177618D01*
X143271553Y-58016466D01*
X143361985Y-57838983D01*
X143423539Y-57649539D01*
X143454700Y-57452797D01*
X143454700Y-57253603D01*
X143423539Y-57056861D01*
X143423538Y-57056857D01*
X143423538Y-57056856D01*
X143361986Y-56867419D01*
X143271552Y-56689933D01*
X143154469Y-56528782D01*
X143013618Y-56387931D01*
X142852466Y-56270847D01*
X142701027Y-56193685D01*
X142650231Y-56145710D01*
X142633436Y-56077889D01*
X142655973Y-56011754D01*
X142701027Y-55972715D01*
X142710316Y-55967981D01*
X142852466Y-55895553D01*
X143013618Y-55778469D01*
X143154469Y-55637618D01*
X143271553Y-55476466D01*
X143361985Y-55298983D01*
X143423539Y-55109539D01*
X143454700Y-54912797D01*
X143454700Y-54713603D01*
X143423539Y-54516861D01*
X143423538Y-54516857D01*
X143423538Y-54516856D01*
X143361986Y-54327419D01*
X143271552Y-54149933D01*
X143246639Y-54115643D01*
X143154469Y-53988782D01*
X143013618Y-53847931D01*
X142852466Y-53730847D01*
X142701027Y-53653685D01*
X142650231Y-53605710D01*
X142633436Y-53537889D01*
X142655973Y-53471754D01*
X142701027Y-53432715D01*
X142710316Y-53427981D01*
X142852466Y-53355553D01*
X143013618Y-53238469D01*
X143154469Y-53097618D01*
X143271553Y-52936466D01*
X143361985Y-52758983D01*
X143423539Y-52569539D01*
X143454700Y-52372797D01*
X143454700Y-52173603D01*
X143423539Y-51976861D01*
X143423538Y-51976857D01*
X143423538Y-51976856D01*
X143361986Y-51787419D01*
X143319873Y-51704768D01*
X143271553Y-51609934D01*
X143154469Y-51448782D01*
X143013618Y-51307931D01*
X142852466Y-51190847D01*
X142852462Y-51190845D01*
X142700477Y-51113404D01*
X142649681Y-51065429D01*
X142632886Y-50997608D01*
X142655424Y-50931473D01*
X142700477Y-50892434D01*
X142852205Y-50815124D01*
X142890063Y-50787618D01*
X142890063Y-50787617D01*
X142326774Y-50224328D01*
X142386053Y-50208445D01*
X142502347Y-50141302D01*
X142597302Y-50046347D01*
X142664445Y-49930053D01*
X142680328Y-49870774D01*
X143243617Y-50434063D01*
X143243618Y-50434063D01*
X143271124Y-50396205D01*
X143361520Y-50218794D01*
X143423052Y-50029422D01*
X143454200Y-49832763D01*
X143454200Y-49805683D01*
X149549500Y-49805683D01*
X149549500Y-50194316D01*
X149583371Y-50581462D01*
X149583371Y-50581466D01*
X149650853Y-50964172D01*
X149650855Y-50964182D01*
X149659887Y-50997889D01*
X149751435Y-51339555D01*
X149884362Y-51704768D01*
X150048587Y-52056952D01*
X150048600Y-52056976D01*
X150242905Y-52393521D01*
X150242914Y-52393536D01*
X150465821Y-52711880D01*
X150654272Y-52936466D01*
X150715621Y-53009579D01*
X150990421Y-53284379D01*
X151075242Y-53355552D01*
X151288119Y-53534178D01*
X151288125Y-53534182D01*
X151288126Y-53534183D01*
X151606470Y-53757090D01*
X151763815Y-53847933D01*
X151943023Y-53951399D01*
X151943047Y-53951412D01*
X152295231Y-54115637D01*
X152295236Y-54115638D01*
X152295245Y-54115643D01*
X152660434Y-54248561D01*
X152660440Y-54248562D01*
X152660444Y-54248564D01*
X152762666Y-54275954D01*
X153035818Y-54349145D01*
X153418540Y-54416629D01*
X153805685Y-54450499D01*
X153805686Y-54450500D01*
X153805687Y-54450500D01*
X154194314Y-54450500D01*
X154194314Y-54450499D01*
X154581460Y-54416629D01*
X154964182Y-54349145D01*
X155339566Y-54248561D01*
X155704755Y-54115643D01*
X155704768Y-54115637D01*
X156056952Y-53951412D01*
X156056960Y-53951407D01*
X156056970Y-53951403D01*
X156393530Y-53757090D01*
X156711874Y-53534183D01*
X157009579Y-53284379D01*
X157284379Y-53009579D01*
X157534183Y-52711874D01*
X157757090Y-52393530D01*
X157951403Y-52056970D01*
X157951407Y-52056960D01*
X157951412Y-52056952D01*
X158115637Y-51704768D01*
X158115637Y-51704767D01*
X158115643Y-51704755D01*
X158248561Y-51339566D01*
X158349145Y-50964182D01*
X158416629Y-50581460D01*
X158450500Y-50194313D01*
X158450500Y-49805687D01*
X158416629Y-49418540D01*
X158349145Y-49035818D01*
X158248561Y-48660434D01*
X158115643Y-48295245D01*
X158115638Y-48295236D01*
X158115637Y-48295231D01*
X157951412Y-47943047D01*
X157951399Y-47943023D01*
X157880490Y-47820205D01*
X157757090Y-47606470D01*
X157534183Y-47288126D01*
X157534182Y-47288125D01*
X157534178Y-47288119D01*
X157284376Y-46990418D01*
X157172669Y-46878711D01*
X163149500Y-46878711D01*
X163149500Y-47121288D01*
X163181161Y-47361785D01*
X163243947Y-47596104D01*
X163336773Y-47820205D01*
X163336776Y-47820212D01*
X163458064Y-48030289D01*
X163458066Y-48030292D01*
X163458067Y-48030293D01*
X163605733Y-48222736D01*
X163605739Y-48222743D01*
X163777256Y-48394260D01*
X163777262Y-48394265D01*
X163969711Y-48541936D01*
X164179788Y-48663224D01*
X164403900Y-48756054D01*
X164638211Y-48818838D01*
X164818586Y-48842584D01*
X164878711Y-48850500D01*
X164878712Y-48850500D01*
X165121289Y-48850500D01*
X165169388Y-48844167D01*
X165361789Y-48818838D01*
X165596100Y-48756054D01*
X165820212Y-48663224D01*
X166030289Y-48541936D01*
X166222738Y-48394265D01*
X166394265Y-48222738D01*
X166541936Y-48030289D01*
X166663224Y-47820212D01*
X166756054Y-47596100D01*
X166818838Y-47361789D01*
X166850500Y-47121288D01*
X166850500Y-46878712D01*
X166818838Y-46638211D01*
X166756054Y-46403900D01*
X166663224Y-46179788D01*
X166541936Y-45969711D01*
X166394265Y-45777262D01*
X166394260Y-45777256D01*
X166222743Y-45605739D01*
X166222736Y-45605733D01*
X166030293Y-45458067D01*
X166030292Y-45458066D01*
X166030289Y-45458064D01*
X165820212Y-45336776D01*
X165820205Y-45336773D01*
X165596104Y-45243947D01*
X165361785Y-45181161D01*
X165121289Y-45149500D01*
X165121288Y-45149500D01*
X164878712Y-45149500D01*
X164878711Y-45149500D01*
X164638214Y-45181161D01*
X164403895Y-45243947D01*
X164179794Y-45336773D01*
X164179785Y-45336777D01*
X163969706Y-45458067D01*
X163777263Y-45605733D01*
X163777256Y-45605739D01*
X163605739Y-45777256D01*
X163605733Y-45777263D01*
X163458067Y-45969706D01*
X163336777Y-46179785D01*
X163336773Y-46179794D01*
X163243947Y-46403895D01*
X163181161Y-46638214D01*
X163149500Y-46878711D01*
X157172669Y-46878711D01*
X157009581Y-46715623D01*
X156711880Y-46465821D01*
X156393536Y-46242914D01*
X156393533Y-46242912D01*
X156393530Y-46242910D01*
X156284210Y-46179794D01*
X156056976Y-46048600D01*
X156056952Y-46048587D01*
X155704768Y-45884362D01*
X155704757Y-45884358D01*
X155704755Y-45884357D01*
X155339566Y-45751439D01*
X155339565Y-45751438D01*
X155339555Y-45751435D01*
X154964189Y-45650857D01*
X154964192Y-45650857D01*
X154964182Y-45650855D01*
X154964176Y-45650853D01*
X154964172Y-45650853D01*
X154581464Y-45583371D01*
X154194316Y-45549500D01*
X154194313Y-45549500D01*
X153805687Y-45549500D01*
X153805683Y-45549500D01*
X153418537Y-45583371D01*
X153418533Y-45583371D01*
X153035827Y-45650853D01*
X153035810Y-45650857D01*
X152660444Y-45751435D01*
X152295231Y-45884362D01*
X151943047Y-46048587D01*
X151943023Y-46048600D01*
X151606478Y-46242905D01*
X151606463Y-46242914D01*
X151288119Y-46465821D01*
X150990418Y-46715623D01*
X150715623Y-46990418D01*
X150465821Y-47288119D01*
X150242914Y-47606463D01*
X150242905Y-47606478D01*
X150048600Y-47943023D01*
X150048587Y-47943047D01*
X149884362Y-48295231D01*
X149751435Y-48660444D01*
X149650857Y-49035810D01*
X149650853Y-49035827D01*
X149583371Y-49418533D01*
X149583371Y-49418537D01*
X149549500Y-49805683D01*
X143454200Y-49805683D01*
X143454200Y-49633636D01*
X143423052Y-49436977D01*
X143361520Y-49247605D01*
X143271124Y-49070194D01*
X143243617Y-49032335D01*
X143243617Y-49032334D01*
X142680328Y-49595624D01*
X142664445Y-49536347D01*
X142597302Y-49420053D01*
X142502347Y-49325098D01*
X142386053Y-49257955D01*
X142326774Y-49242071D01*
X142890064Y-48678781D01*
X142890063Y-48678780D01*
X142852208Y-48651277D01*
X142674794Y-48560879D01*
X142485422Y-48499347D01*
X142288763Y-48468200D01*
X142089637Y-48468200D01*
X141892977Y-48499347D01*
X141703605Y-48560879D01*
X141526190Y-48651277D01*
X141488335Y-48678780D01*
X141488335Y-48678781D01*
X142051625Y-49242071D01*
X141992347Y-49257955D01*
X141876053Y-49325098D01*
X141781098Y-49420053D01*
X141713955Y-49536347D01*
X141698071Y-49595625D01*
X141134781Y-49032335D01*
X141134780Y-49032335D01*
X141107277Y-49070190D01*
X141016879Y-49247605D01*
X140955347Y-49436977D01*
X140924200Y-49633636D01*
X140924200Y-49832763D01*
X140955347Y-50029422D01*
X141016879Y-50218794D01*
X141107277Y-50396208D01*
X141134780Y-50434063D01*
X141134781Y-50434064D01*
X141698071Y-49870774D01*
X141713955Y-49930053D01*
X141781098Y-50046347D01*
X141876053Y-50141302D01*
X141992347Y-50208445D01*
X142051625Y-50224328D01*
X141488334Y-50787617D01*
X141526194Y-50815124D01*
X141677922Y-50892434D01*
X141728718Y-50940409D01*
X141745513Y-51008230D01*
X141722976Y-51074365D01*
X141677923Y-51113403D01*
X141525935Y-51190845D01*
X141413197Y-51272755D01*
X141364782Y-51307931D01*
X141364780Y-51307933D01*
X141364779Y-51307933D01*
X141223933Y-51448779D01*
X141223933Y-51448780D01*
X141223931Y-51448782D01*
X141173647Y-51517990D01*
X141106847Y-51609933D01*
X141016413Y-51787419D01*
X140954861Y-51976856D01*
X140954861Y-51976859D01*
X140923700Y-52173603D01*
X120594700Y-52173603D01*
X120563539Y-51976861D01*
X120563538Y-51976857D01*
X120563538Y-51976856D01*
X120501986Y-51787419D01*
X120459873Y-51704768D01*
X120411553Y-51609934D01*
X120294469Y-51448782D01*
X120153618Y-51307931D01*
X119992466Y-51190847D01*
X119841027Y-51113685D01*
X119790231Y-51065710D01*
X119773436Y-50997889D01*
X119795973Y-50931754D01*
X119841027Y-50892715D01*
X119850316Y-50887981D01*
X119992466Y-50815553D01*
X120153618Y-50698469D01*
X120294469Y-50557618D01*
X120411553Y-50396466D01*
X120501985Y-50218983D01*
X120563539Y-50029539D01*
X120594700Y-49832797D01*
X120594700Y-49633603D01*
X120563539Y-49436861D01*
X120563538Y-49436857D01*
X120563538Y-49436856D01*
X120501986Y-49247419D01*
X120411552Y-49069933D01*
X120294469Y-48908782D01*
X120153618Y-48767931D01*
X119992466Y-48650847D01*
X119814980Y-48560413D01*
X119625542Y-48498861D01*
X119477982Y-48475490D01*
X119428797Y-48467700D01*
X119229603Y-48467700D01*
X119164022Y-48478087D01*
X119032859Y-48498861D01*
X119032856Y-48498861D01*
X118843419Y-48560413D01*
X118665933Y-48650847D01*
X118627486Y-48678781D01*
X118504782Y-48767931D01*
X118504780Y-48767933D01*
X118504779Y-48767933D01*
X118363933Y-48908779D01*
X118363933Y-48908780D01*
X118363931Y-48908782D01*
X118313647Y-48977990D01*
X118246847Y-49069933D01*
X118156413Y-49247419D01*
X118094861Y-49436856D01*
X118094861Y-49436859D01*
X118063700Y-49633603D01*
X118063700Y-49832796D01*
X118094861Y-50029540D01*
X118094861Y-50029543D01*
X118156413Y-50218980D01*
X118156415Y-50218983D01*
X118246847Y-50396466D01*
X118363931Y-50557618D01*
X118504782Y-50698469D01*
X118665934Y-50815553D01*
X118735653Y-50851077D01*
X118817372Y-50892715D01*
X118868168Y-50940690D01*
X118884963Y-51008511D01*
X118862425Y-51074646D01*
X118817372Y-51113685D01*
X118665933Y-51190847D01*
X118573990Y-51257647D01*
X118504782Y-51307931D01*
X118504780Y-51307933D01*
X118504779Y-51307933D01*
X118363933Y-51448779D01*
X118363933Y-51448780D01*
X118363931Y-51448782D01*
X118313647Y-51517990D01*
X118246847Y-51609933D01*
X118156413Y-51787419D01*
X118094861Y-51976856D01*
X118094861Y-51976859D01*
X118063700Y-52173603D01*
X118063700Y-52372796D01*
X118094861Y-52569540D01*
X118094861Y-52569543D01*
X118156413Y-52758980D01*
X118156415Y-52758983D01*
X118246847Y-52936466D01*
X118363931Y-53097618D01*
X118504782Y-53238469D01*
X118665934Y-53355553D01*
X118735653Y-53391077D01*
X118817372Y-53432715D01*
X118868168Y-53480690D01*
X118884963Y-53548511D01*
X118862425Y-53614646D01*
X118817372Y-53653685D01*
X118665933Y-53730847D01*
X118629808Y-53757094D01*
X118504782Y-53847931D01*
X118504780Y-53847933D01*
X118504779Y-53847933D01*
X118363933Y-53988779D01*
X118363933Y-53988780D01*
X118363931Y-53988782D01*
X118313647Y-54057990D01*
X118246847Y-54149933D01*
X118156413Y-54327419D01*
X118094861Y-54516856D01*
X118094861Y-54516859D01*
X118063700Y-54713603D01*
X118063700Y-54912796D01*
X118094861Y-55109540D01*
X118094861Y-55109543D01*
X118156413Y-55298980D01*
X118156415Y-55298983D01*
X118246847Y-55476466D01*
X118363931Y-55637618D01*
X118504782Y-55778469D01*
X118665934Y-55895553D01*
X118735653Y-55931077D01*
X118817372Y-55972715D01*
X118868168Y-56020690D01*
X118884963Y-56088511D01*
X118862425Y-56154646D01*
X118817372Y-56193685D01*
X118665933Y-56270847D01*
X118573990Y-56337647D01*
X118504782Y-56387931D01*
X118504780Y-56387933D01*
X118504779Y-56387933D01*
X118363933Y-56528779D01*
X118363933Y-56528780D01*
X118363931Y-56528782D01*
X118353872Y-56542627D01*
X118246847Y-56689933D01*
X118156413Y-56867419D01*
X118094861Y-57056856D01*
X118094861Y-57056859D01*
X118063700Y-57253603D01*
X118063700Y-57452796D01*
X118094861Y-57649540D01*
X118094861Y-57649543D01*
X118156413Y-57838980D01*
X118156415Y-57838983D01*
X118246847Y-58016466D01*
X118363931Y-58177618D01*
X118504782Y-58318469D01*
X118665934Y-58435553D01*
X118708770Y-58457379D01*
X118817372Y-58512715D01*
X118868168Y-58560690D01*
X118884963Y-58628511D01*
X118862425Y-58694646D01*
X118817372Y-58733685D01*
X118665933Y-58810847D01*
X118599193Y-58859337D01*
X118504782Y-58927931D01*
X118504780Y-58927933D01*
X118504779Y-58927933D01*
X118363933Y-59068779D01*
X118363933Y-59068780D01*
X118363931Y-59068782D01*
X118313647Y-59137990D01*
X118246847Y-59229933D01*
X118156413Y-59407419D01*
X118094861Y-59596856D01*
X118094861Y-59596859D01*
X118063700Y-59793603D01*
X118063700Y-59992796D01*
X118094861Y-60189540D01*
X118094861Y-60189543D01*
X118156413Y-60378980D01*
X118156415Y-60378983D01*
X118246847Y-60556466D01*
X118363931Y-60717618D01*
X118504782Y-60858469D01*
X118665934Y-60975553D01*
X118720607Y-61003410D01*
X118817372Y-61052715D01*
X118868168Y-61100690D01*
X118884963Y-61168511D01*
X118862425Y-61234646D01*
X118817372Y-61273685D01*
X118665933Y-61350847D01*
X118573990Y-61417647D01*
X118504782Y-61467931D01*
X118504780Y-61467933D01*
X118504779Y-61467933D01*
X118363933Y-61608779D01*
X118363933Y-61608780D01*
X118363931Y-61608782D01*
X118353979Y-61622480D01*
X118246847Y-61769933D01*
X118156413Y-61947419D01*
X118094861Y-62136856D01*
X118094861Y-62136859D01*
X118074762Y-62263760D01*
X118063700Y-62333603D01*
X118063700Y-62532797D01*
X118064553Y-62538184D01*
X118094861Y-62729540D01*
X118094861Y-62729543D01*
X118156413Y-62918980D01*
X118161906Y-62929760D01*
X118246847Y-63096466D01*
X118363931Y-63257618D01*
X118504782Y-63398469D01*
X118665934Y-63515553D01*
X118735653Y-63551077D01*
X118817372Y-63592715D01*
X118868168Y-63640690D01*
X118884963Y-63708511D01*
X118862425Y-63774646D01*
X118817372Y-63813685D01*
X118665933Y-63890847D01*
X118579265Y-63953816D01*
X118504782Y-64007931D01*
X118504780Y-64007933D01*
X118504779Y-64007933D01*
X118363933Y-64148779D01*
X118363933Y-64148780D01*
X118363931Y-64148782D01*
X118313647Y-64217990D01*
X118246847Y-64309933D01*
X118156413Y-64487419D01*
X118094861Y-64676856D01*
X118094861Y-64676859D01*
X118063700Y-64873603D01*
X118063700Y-65072797D01*
X118064553Y-65078184D01*
X118094861Y-65269540D01*
X118094861Y-65269543D01*
X118156413Y-65458980D01*
X118161906Y-65469760D01*
X118246847Y-65636466D01*
X118363931Y-65797618D01*
X118504782Y-65938469D01*
X118665934Y-66055553D01*
X118735653Y-66091077D01*
X118817372Y-66132715D01*
X118868168Y-66180690D01*
X118884963Y-66248511D01*
X118862425Y-66314646D01*
X118817372Y-66353685D01*
X118665933Y-66430847D01*
X118579265Y-66493816D01*
X118504782Y-66547931D01*
X118504780Y-66547933D01*
X118504779Y-66547933D01*
X118363933Y-66688779D01*
X118363933Y-66688780D01*
X118363931Y-66688782D01*
X118313647Y-66757990D01*
X118246847Y-66849933D01*
X118156413Y-67027419D01*
X118094861Y-67216856D01*
X118094861Y-67216859D01*
X118074762Y-67343760D01*
X118063700Y-67413603D01*
X118063700Y-67612797D01*
X118064553Y-67618184D01*
X118094861Y-67809540D01*
X118094861Y-67809543D01*
X118156413Y-67998980D01*
X118161906Y-68009760D01*
X118246847Y-68176466D01*
X118363931Y-68337618D01*
X118504782Y-68478469D01*
X118665934Y-68595553D01*
X118735653Y-68631077D01*
X118817372Y-68672715D01*
X118868168Y-68720690D01*
X118884963Y-68788511D01*
X118862425Y-68854646D01*
X118817372Y-68893685D01*
X118665933Y-68970847D01*
X118579265Y-69033816D01*
X118504782Y-69087931D01*
X118504780Y-69087933D01*
X118504779Y-69087933D01*
X118363933Y-69228779D01*
X118363933Y-69228780D01*
X118363931Y-69228782D01*
X118313647Y-69297990D01*
X118246847Y-69389933D01*
X118156413Y-69567419D01*
X118094861Y-69756856D01*
X118094861Y-69756859D01*
X118074762Y-69883760D01*
X118063700Y-69953603D01*
X118063700Y-70152797D01*
X118064553Y-70158184D01*
X118094861Y-70349540D01*
X118094861Y-70349543D01*
X118156413Y-70538980D01*
X118161906Y-70549760D01*
X118246847Y-70716466D01*
X118363931Y-70877618D01*
X118504782Y-71018469D01*
X118665934Y-71135553D01*
X118735653Y-71171077D01*
X118817372Y-71212715D01*
X118868168Y-71260690D01*
X118884963Y-71328511D01*
X118862425Y-71394646D01*
X118817372Y-71433685D01*
X118665933Y-71510847D01*
X118579265Y-71573816D01*
X118504782Y-71627931D01*
X118504780Y-71627933D01*
X118504779Y-71627933D01*
X118363933Y-71768779D01*
X118363933Y-71768780D01*
X118363931Y-71768782D01*
X118313647Y-71837990D01*
X118246847Y-71929933D01*
X118156413Y-72107419D01*
X118094861Y-72296856D01*
X118094861Y-72296859D01*
X118063700Y-72493603D01*
X118063700Y-72692796D01*
X118094861Y-72889540D01*
X118094861Y-72889543D01*
X118156413Y-73078980D01*
X118246847Y-73256466D01*
X118363931Y-73417618D01*
X118504782Y-73558469D01*
X118665934Y-73675553D01*
X118735653Y-73711077D01*
X118817372Y-73752715D01*
X118868168Y-73800690D01*
X118884963Y-73868511D01*
X118862425Y-73934646D01*
X118817372Y-73973685D01*
X118665933Y-74050847D01*
X118573990Y-74117647D01*
X118504782Y-74167931D01*
X118504780Y-74167933D01*
X118504779Y-74167933D01*
X118363933Y-74308779D01*
X118363933Y-74308780D01*
X118363931Y-74308782D01*
X118324269Y-74363372D01*
X118246847Y-74469933D01*
X118156413Y-74647419D01*
X118094861Y-74836856D01*
X118094861Y-74836859D01*
X118063700Y-75033603D01*
X118063700Y-75232796D01*
X118094861Y-75429540D01*
X118094861Y-75429543D01*
X118156413Y-75618980D01*
X118156415Y-75618983D01*
X118246847Y-75796466D01*
X118363931Y-75957618D01*
X118504782Y-76098469D01*
X118665934Y-76215553D01*
X118735653Y-76251077D01*
X118817372Y-76292715D01*
X118868168Y-76340690D01*
X118884963Y-76408511D01*
X118862425Y-76474646D01*
X118817372Y-76513685D01*
X118665933Y-76590847D01*
X118573990Y-76657647D01*
X118504782Y-76707931D01*
X118504780Y-76707933D01*
X118504779Y-76707933D01*
X118363933Y-76848779D01*
X118363933Y-76848780D01*
X118363931Y-76848782D01*
X118313647Y-76917990D01*
X118246847Y-77009933D01*
X118156413Y-77187419D01*
X118094861Y-77376856D01*
X118094861Y-77376859D01*
X118063700Y-77573603D01*
X118063700Y-77772796D01*
X118094861Y-77969540D01*
X118094861Y-77969543D01*
X118156413Y-78158980D01*
X118156415Y-78158983D01*
X118246847Y-78336466D01*
X118363931Y-78497618D01*
X118504782Y-78638469D01*
X118665934Y-78755553D01*
X118735653Y-78791077D01*
X118817372Y-78832715D01*
X118868168Y-78880690D01*
X118884963Y-78948511D01*
X118862425Y-79014646D01*
X118817372Y-79053685D01*
X118665933Y-79130847D01*
X118573990Y-79197647D01*
X118504782Y-79247931D01*
X118504780Y-79247933D01*
X118504779Y-79247933D01*
X118363933Y-79388779D01*
X118363933Y-79388780D01*
X118363931Y-79388782D01*
X118313647Y-79457990D01*
X118246847Y-79549933D01*
X118156413Y-79727419D01*
X118094861Y-79916856D01*
X118094861Y-79916859D01*
X118063700Y-80113603D01*
X118063700Y-80312796D01*
X118094861Y-80509540D01*
X118094861Y-80509543D01*
X118156413Y-80698980D01*
X118156415Y-80698983D01*
X118246847Y-80876466D01*
X118363931Y-81037618D01*
X118504782Y-81178469D01*
X118665934Y-81295553D01*
X118735653Y-81331077D01*
X118817372Y-81372715D01*
X118868168Y-81420690D01*
X118884963Y-81488511D01*
X118862425Y-81554646D01*
X118817372Y-81593685D01*
X118665933Y-81670847D01*
X118573990Y-81737647D01*
X118504782Y-81787931D01*
X118504780Y-81787933D01*
X118504779Y-81787933D01*
X118363933Y-81928779D01*
X118363933Y-81928780D01*
X118363931Y-81928782D01*
X118313647Y-81997990D01*
X118246847Y-82089933D01*
X118156413Y-82267419D01*
X118094861Y-82456856D01*
X118094861Y-82456859D01*
X118063700Y-82653603D01*
X118063700Y-82852796D01*
X118094861Y-83049540D01*
X118094861Y-83049543D01*
X118156413Y-83238980D01*
X118197695Y-83320000D01*
X118246847Y-83416466D01*
X118363931Y-83577618D01*
X118504782Y-83718469D01*
X118665934Y-83835553D01*
X118735653Y-83871077D01*
X118817372Y-83912715D01*
X118868168Y-83960690D01*
X118884963Y-84028511D01*
X118862425Y-84094646D01*
X118817372Y-84133685D01*
X118665933Y-84210847D01*
X118573990Y-84277647D01*
X118504782Y-84327931D01*
X118504780Y-84327933D01*
X118504779Y-84327933D01*
X118363933Y-84468779D01*
X118363933Y-84468780D01*
X118363931Y-84468782D01*
X118321231Y-84527554D01*
X118246847Y-84629933D01*
X118156413Y-84807419D01*
X118094861Y-84996856D01*
X118094861Y-84996859D01*
X118063700Y-85193603D01*
X118063700Y-85392794D01*
X118065288Y-85402823D01*
X118056331Y-85472116D01*
X118011333Y-85525567D01*
X117944581Y-85546204D01*
X117877268Y-85527477D01*
X117855133Y-85509898D01*
X115444819Y-83099584D01*
X115411334Y-83038261D01*
X115408500Y-83011903D01*
X115408500Y-74638060D01*
X115408501Y-74638047D01*
X115408501Y-74469944D01*
X115408501Y-74469943D01*
X115367577Y-74317216D01*
X115328707Y-74249890D01*
X115288524Y-74180290D01*
X115288518Y-74180282D01*
X102087590Y-60979355D01*
X102087588Y-60979352D01*
X101968717Y-60860481D01*
X101968716Y-60860480D01*
X101881904Y-60810360D01*
X101881904Y-60810359D01*
X101881900Y-60810358D01*
X101831785Y-60781423D01*
X101679057Y-60740499D01*
X101520943Y-60740499D01*
X101513347Y-60740499D01*
X101513331Y-60740500D01*
X99611129Y-60740500D01*
X99544090Y-60720815D01*
X99498335Y-60668011D01*
X99488391Y-60598853D01*
X99499771Y-60562954D01*
X99499690Y-60562921D01*
X99500081Y-60561974D01*
X99500641Y-60560211D01*
X99501555Y-60558416D01*
X99501556Y-60558414D01*
X99501557Y-60558412D01*
X99567246Y-60356243D01*
X99600500Y-60146287D01*
X99600500Y-59933713D01*
X99567246Y-59723757D01*
X99501557Y-59521588D01*
X99405051Y-59332184D01*
X99405049Y-59332181D01*
X99405048Y-59332179D01*
X99280109Y-59160213D01*
X99166181Y-59046285D01*
X99132696Y-58984962D01*
X99137680Y-58915270D01*
X99179552Y-58859337D01*
X99210529Y-58842422D01*
X99342086Y-58793354D01*
X99342093Y-58793350D01*
X99457187Y-58707190D01*
X99457190Y-58707187D01*
X99543350Y-58592093D01*
X99543354Y-58592086D01*
X99593596Y-58457379D01*
X99593598Y-58457372D01*
X99599999Y-58397844D01*
X99600000Y-58397827D01*
X99600000Y-57750000D01*
X98683012Y-57750000D01*
X98715925Y-57692993D01*
X98750000Y-57565826D01*
X98750000Y-57434174D01*
X98715925Y-57307007D01*
X98683012Y-57250000D01*
X99600000Y-57250000D01*
X99600000Y-56602172D01*
X99599999Y-56602155D01*
X99593598Y-56542627D01*
X99593596Y-56542620D01*
X99543354Y-56407913D01*
X99543350Y-56407906D01*
X99457190Y-56292812D01*
X99457187Y-56292809D01*
X99342093Y-56206649D01*
X99342086Y-56206645D01*
X99207379Y-56156403D01*
X99207372Y-56156401D01*
X99147844Y-56150000D01*
X98500000Y-56150000D01*
X98500000Y-57066988D01*
X98442993Y-57034075D01*
X98315826Y-57000000D01*
X98184174Y-57000000D01*
X98057007Y-57034075D01*
X98000000Y-57066988D01*
X98000000Y-56150000D01*
X97352155Y-56150000D01*
X97292627Y-56156401D01*
X97292620Y-56156403D01*
X97157913Y-56206645D01*
X97157906Y-56206649D01*
X97042812Y-56292809D01*
X97042809Y-56292812D01*
X96956649Y-56407906D01*
X96956645Y-56407913D01*
X96906403Y-56542620D01*
X96906401Y-56542627D01*
X96900000Y-56602155D01*
X96900000Y-57250000D01*
X97816988Y-57250000D01*
X97784075Y-57307007D01*
X97750000Y-57434174D01*
X97750000Y-57565826D01*
X97784075Y-57692993D01*
X97816988Y-57750000D01*
X96900000Y-57750000D01*
X96900000Y-58397844D01*
X96906401Y-58457372D01*
X96906403Y-58457379D01*
X96956645Y-58592086D01*
X96956649Y-58592093D01*
X97042809Y-58707187D01*
X97042812Y-58707190D01*
X97157906Y-58793350D01*
X97157913Y-58793354D01*
X97289470Y-58842422D01*
X97345404Y-58884293D01*
X97369821Y-58949758D01*
X97354969Y-59018031D01*
X97333819Y-59046285D01*
X97219889Y-59160215D01*
X97094951Y-59332179D01*
X96998444Y-59521585D01*
X96932753Y-59723760D01*
X96921691Y-59793603D01*
X96899500Y-59933713D01*
X96899500Y-60146287D01*
X96932754Y-60356243D01*
X96998443Y-60558412D01*
X97091221Y-60740500D01*
X97094951Y-60747819D01*
X97163990Y-60842844D01*
X97187470Y-60908650D01*
X97171644Y-60976704D01*
X97151353Y-61003410D01*
X96532286Y-61622478D01*
X96420481Y-61734282D01*
X96420479Y-61734285D01*
X96370361Y-61821094D01*
X96370359Y-61821096D01*
X96341425Y-61871209D01*
X96341424Y-61871210D01*
X96341423Y-61871215D01*
X96300499Y-62023943D01*
X96300499Y-62182057D01*
X96300499Y-62182059D01*
X96300500Y-62192053D01*
X96300500Y-63684330D01*
X96300499Y-63684348D01*
X96300499Y-63850054D01*
X96300498Y-63850054D01*
X85500500Y-63850054D01*
X85500500Y-49805683D01*
X95549500Y-49805683D01*
X95549500Y-50194316D01*
X95583371Y-50581462D01*
X95583371Y-50581466D01*
X95650853Y-50964172D01*
X95650855Y-50964182D01*
X95659887Y-50997889D01*
X95751435Y-51339555D01*
X95884362Y-51704768D01*
X96048587Y-52056952D01*
X96048600Y-52056976D01*
X96242905Y-52393521D01*
X96242914Y-52393536D01*
X96465821Y-52711880D01*
X96654272Y-52936466D01*
X96715621Y-53009579D01*
X96990421Y-53284379D01*
X97075242Y-53355552D01*
X97288119Y-53534178D01*
X97288125Y-53534182D01*
X97288126Y-53534183D01*
X97606470Y-53757090D01*
X97763815Y-53847933D01*
X97943023Y-53951399D01*
X97943047Y-53951412D01*
X98295231Y-54115637D01*
X98295236Y-54115638D01*
X98295245Y-54115643D01*
X98660434Y-54248561D01*
X98660440Y-54248562D01*
X98660444Y-54248564D01*
X98762666Y-54275954D01*
X99035818Y-54349145D01*
X99418540Y-54416629D01*
X99805685Y-54450499D01*
X99805686Y-54450500D01*
X99805687Y-54450500D01*
X100194314Y-54450500D01*
X100194314Y-54450499D01*
X100581460Y-54416629D01*
X100964182Y-54349145D01*
X101339566Y-54248561D01*
X101704755Y-54115643D01*
X101704768Y-54115637D01*
X102056952Y-53951412D01*
X102056960Y-53951407D01*
X102056970Y-53951403D01*
X102393530Y-53757090D01*
X102711874Y-53534183D01*
X103009579Y-53284379D01*
X103284379Y-53009579D01*
X103534183Y-52711874D01*
X103757090Y-52393530D01*
X103951403Y-52056970D01*
X103951407Y-52056960D01*
X103951412Y-52056952D01*
X104115637Y-51704768D01*
X104115637Y-51704767D01*
X104115643Y-51704755D01*
X104248561Y-51339566D01*
X104349145Y-50964182D01*
X104416629Y-50581460D01*
X104450500Y-50194313D01*
X104450500Y-49805687D01*
X104416629Y-49418540D01*
X104349145Y-49035818D01*
X104248561Y-48660434D01*
X104115643Y-48295245D01*
X104115638Y-48295236D01*
X104115637Y-48295231D01*
X103951412Y-47943047D01*
X103951399Y-47943023D01*
X103880490Y-47820205D01*
X103757090Y-47606470D01*
X103534183Y-47288126D01*
X103534182Y-47288125D01*
X103534178Y-47288119D01*
X103284376Y-46990418D01*
X103009581Y-46715623D01*
X102711880Y-46465821D01*
X102393536Y-46242914D01*
X102393533Y-46242912D01*
X102393530Y-46242910D01*
X102284210Y-46179794D01*
X102056976Y-46048600D01*
X102056952Y-46048587D01*
X101704768Y-45884362D01*
X101704757Y-45884358D01*
X101704755Y-45884357D01*
X101339566Y-45751439D01*
X101339565Y-45751438D01*
X101339555Y-45751435D01*
X100964189Y-45650857D01*
X100964192Y-45650857D01*
X100964182Y-45650855D01*
X100964176Y-45650853D01*
X100964172Y-45650853D01*
X100581464Y-45583371D01*
X100194316Y-45549500D01*
X100194313Y-45549500D01*
X99805687Y-45549500D01*
X99805683Y-45549500D01*
X99418537Y-45583371D01*
X99418533Y-45583371D01*
X99035827Y-45650853D01*
X99035810Y-45650857D01*
X98660444Y-45751435D01*
X98295231Y-45884362D01*
X97943047Y-46048587D01*
X97943023Y-46048600D01*
X97606478Y-46242905D01*
X97606463Y-46242914D01*
X97288119Y-46465821D01*
X96990418Y-46715623D01*
X96715623Y-46990418D01*
X96465821Y-47288119D01*
X96242914Y-47606463D01*
X96242905Y-47606478D01*
X96048600Y-47943023D01*
X96048587Y-47943047D01*
X95884362Y-48295231D01*
X95751435Y-48660444D01*
X95650857Y-49035810D01*
X95650853Y-49035827D01*
X95583371Y-49418533D01*
X95583371Y-49418537D01*
X95549500Y-49805683D01*
X85500500Y-49805683D01*
X85500500Y-46878711D01*
X88149500Y-46878711D01*
X88149500Y-47121288D01*
X88181161Y-47361785D01*
X88243947Y-47596104D01*
X88336773Y-47820205D01*
X88336776Y-47820212D01*
X88458064Y-48030289D01*
X88458066Y-48030292D01*
X88458067Y-48030293D01*
X88605733Y-48222736D01*
X88605739Y-48222743D01*
X88777256Y-48394260D01*
X88777262Y-48394265D01*
X88969711Y-48541936D01*
X89179788Y-48663224D01*
X89403900Y-48756054D01*
X89638211Y-48818838D01*
X89818586Y-48842584D01*
X89878711Y-48850500D01*
X89878712Y-48850500D01*
X90121289Y-48850500D01*
X90169388Y-48844167D01*
X90361789Y-48818838D01*
X90596100Y-48756054D01*
X90820212Y-48663224D01*
X91030289Y-48541936D01*
X91222738Y-48394265D01*
X91394265Y-48222738D01*
X91541936Y-48030289D01*
X91663224Y-47820212D01*
X91756054Y-47596100D01*
X91818838Y-47361789D01*
X91850500Y-47121288D01*
X91850500Y-46878712D01*
X91818838Y-46638211D01*
X91756054Y-46403900D01*
X91663224Y-46179788D01*
X91541936Y-45969711D01*
X91394265Y-45777262D01*
X91394260Y-45777256D01*
X91222743Y-45605739D01*
X91222736Y-45605733D01*
X91030293Y-45458067D01*
X91030292Y-45458066D01*
X91030289Y-45458064D01*
X90820212Y-45336776D01*
X90820205Y-45336773D01*
X90596104Y-45243947D01*
X90361785Y-45181161D01*
X90121289Y-45149500D01*
X90121288Y-45149500D01*
X89878712Y-45149500D01*
X89878711Y-45149500D01*
X89638214Y-45181161D01*
X89403895Y-45243947D01*
X89179794Y-45336773D01*
X89179785Y-45336777D01*
X88969706Y-45458067D01*
X88777263Y-45605733D01*
X88777256Y-45605739D01*
X88605739Y-45777256D01*
X88605733Y-45777263D01*
X88458067Y-45969706D01*
X88336777Y-46179785D01*
X88336773Y-46179794D01*
X88243947Y-46403895D01*
X88181161Y-46638214D01*
X88149500Y-46878711D01*
X85500500Y-46878711D01*
X85500500Y-42624500D01*
X85520185Y-42557461D01*
X85572989Y-42511706D01*
X85624500Y-42500500D01*
X169375500Y-42500500D01*
X169442539Y-42520185D01*
G37*
%TD.AperFunction*%
%TD*%
M02*
