%TF.GenerationSoftware,KiCad,Pcbnew,9.0.6*%
%TF.CreationDate,2026-03-15T19:13:41+01:00*%
%TF.ProjectId,Robot,526f626f-742e-46b6-9963-61645f706362,rev?*%
%TF.SameCoordinates,Original*%
%TF.FileFunction,Soldermask,Bot*%
%TF.FilePolarity,Negative*%
%FSLAX46Y46*%
G04 Gerber Fmt 4.6, Leading zero omitted, Abs format (unit mm)*
G04 Created by KiCad (PCBNEW 9.0.6) date 2026-03-15 19:13:41*
%MOMM*%
%LPD*%
G01*
G04 APERTURE LIST*
G04 Aperture macros list*
%AMRoundRect*
0 Rectangle with rounded corners*
0 $1 Rounding radius*
0 $2 $3 $4 $5 $6 $7 $8 $9 X,Y pos of 4 corners*
0 Add a 4 corners polygon primitive as box body*
4,1,4,$2,$3,$4,$5,$6,$7,$8,$9,$2,$3,0*
0 Add four circle primitives for the rounded corners*
1,1,$1+$1,$2,$3*
1,1,$1+$1,$4,$5*
1,1,$1+$1,$6,$7*
1,1,$1+$1,$8,$9*
0 Add four rect primitives between the rounded corners*
20,1,$1+$1,$2,$3,$4,$5,0*
20,1,$1+$1,$4,$5,$6,$7,0*
20,1,$1+$1,$6,$7,$8,$9,0*
20,1,$1+$1,$8,$9,$2,$3,0*%
G04 Aperture macros list end*
%ADD10RoundRect,0.102000X1.200000X-1.200000X1.200000X1.200000X-1.200000X1.200000X-1.200000X-1.200000X0*%
%ADD11C,2.604000*%
%ADD12RoundRect,0.102000X0.754000X0.754000X-0.754000X0.754000X-0.754000X-0.754000X0.754000X-0.754000X0*%
%ADD13C,1.712000*%
%ADD14O,3.204000X4.204000*%
%ADD15C,1.900000*%
%ADD16C,1.734000*%
%ADD17R,1.700000X1.700000*%
%ADD18C,1.700000*%
%ADD19RoundRect,0.102000X0.754000X-0.754000X0.754000X0.754000X-0.754000X0.754000X-0.754000X-0.754000X0*%
%ADD20RoundRect,0.102000X-0.950000X-0.950000X0.950000X-0.950000X0.950000X0.950000X-0.950000X0.950000X0*%
%ADD21C,2.104000*%
%ADD22C,3.200000*%
%ADD23R,2.000000X4.600000*%
%ADD24O,2.000000X4.200000*%
%ADD25O,4.200000X2.000000*%
%ADD26O,1.900000X4.000000*%
%ADD27C,3.000000*%
%ADD28C,1.905000*%
%ADD29RoundRect,0.250000X0.450000X-0.325000X0.450000X0.325000X-0.450000X0.325000X-0.450000X-0.325000X0*%
%ADD30RoundRect,0.250000X-0.475000X0.337500X-0.475000X-0.337500X0.475000X-0.337500X0.475000X0.337500X0*%
%ADD31RoundRect,0.250000X0.475000X-0.337500X0.475000X0.337500X-0.475000X0.337500X-0.475000X-0.337500X0*%
G04 APERTURE END LIST*
D10*
%TO.C,J2*%
X106569500Y-91059000D03*
D11*
X106569500Y-85979000D03*
%TD*%
D12*
%TO.C,J5*%
X105410000Y-101076667D03*
D13*
X107950000Y-101076667D03*
X110490000Y-101076667D03*
X113030000Y-101076667D03*
%TD*%
D12*
%TO.C,J4*%
X183388000Y-100076000D03*
D13*
X185928000Y-100076000D03*
X188468000Y-100076000D03*
X191008000Y-100076000D03*
%TD*%
D14*
%TO.C,F1*%
X121666000Y-78419000D03*
X121666000Y-72919000D03*
X121666000Y-59919000D03*
X121666000Y-54419000D03*
%TD*%
D15*
%TO.C,J10*%
X143764000Y-127466000D03*
X146304000Y-127466000D03*
X148844000Y-127466000D03*
%TD*%
D16*
%TO.C,U3*%
X174752000Y-112012000D03*
X174752000Y-109472000D03*
X174752000Y-106932000D03*
X174752000Y-104392000D03*
X174752000Y-101852000D03*
X174752000Y-99312000D03*
X174752000Y-96772000D03*
X174752000Y-94232000D03*
X174752000Y-91692000D03*
X174752000Y-89152000D03*
X174752000Y-86612000D03*
X174752000Y-84072000D03*
X174752000Y-81532000D03*
X174752000Y-78992000D03*
X174752000Y-76452000D03*
X174752000Y-73912000D03*
X174752000Y-71372000D03*
X174752000Y-68832000D03*
X174752000Y-66292000D03*
X174752000Y-63752000D03*
X174752000Y-61212000D03*
X174752000Y-58672000D03*
X149347000Y-112012000D03*
X149347000Y-109472000D03*
X149347000Y-106932000D03*
X149347000Y-104392000D03*
X149347000Y-101852000D03*
X149347000Y-99312000D03*
X149347000Y-96772000D03*
X149347000Y-94232000D03*
X149347000Y-91692000D03*
X149347000Y-89152000D03*
X149347000Y-86612000D03*
X149347000Y-84072000D03*
X149347000Y-81532000D03*
X149347000Y-78992000D03*
X149347000Y-76452000D03*
X149347000Y-73912000D03*
X149347000Y-71372000D03*
X149347000Y-68832000D03*
X149347000Y-66292000D03*
X149347000Y-63752000D03*
X149347000Y-61212000D03*
X149347000Y-58672000D03*
%TD*%
D17*
%TO.C,J6*%
X184023000Y-108458000D03*
D18*
X186563000Y-108458000D03*
X189103000Y-108458000D03*
%TD*%
D19*
%TO.C,J11*%
X109220000Y-111760000D03*
D13*
X109220000Y-114300000D03*
X109220000Y-116840000D03*
X109220000Y-119380000D03*
%TD*%
D15*
%TO.C,J9*%
X143764000Y-135890000D03*
X146304000Y-135890000D03*
X148844000Y-135890000D03*
%TD*%
D20*
%TO.C,U7*%
X122267500Y-104168333D03*
D21*
X122267500Y-106708333D03*
X122267500Y-109248333D03*
X122267500Y-111788333D03*
X122267500Y-114328333D03*
X122267500Y-116868333D03*
X122267500Y-119408333D03*
X122267500Y-121948333D03*
X134967500Y-104168333D03*
X134967500Y-106708333D03*
X134967500Y-109248333D03*
X134967500Y-111788333D03*
X134967500Y-114328333D03*
X134967500Y-116868333D03*
X134967500Y-119408333D03*
X134967500Y-121948333D03*
X132427500Y-121948333D03*
X129887500Y-121948333D03*
%TD*%
D19*
%TO.C,J3*%
X109220000Y-128905000D03*
D13*
X109220000Y-131445000D03*
X109220000Y-133985000D03*
X109220000Y-136525000D03*
%TD*%
D12*
%TO.C,J7*%
X183388000Y-120396000D03*
D13*
X185928000Y-120396000D03*
X188468000Y-120396000D03*
X191008000Y-120396000D03*
%TD*%
D15*
%TO.C,U9*%
X135985000Y-96801667D03*
X135985000Y-94261667D03*
X135985000Y-91721667D03*
X135985000Y-89181667D03*
X135985000Y-86641667D03*
X135985000Y-84101667D03*
X120745000Y-96801667D03*
X120745000Y-94261667D03*
X120745000Y-91721667D03*
X120745000Y-89181667D03*
X120745000Y-86641667D03*
X120745000Y-84101667D03*
%TD*%
D17*
%TO.C,U1*%
X185002000Y-89624500D03*
D18*
X185002000Y-87084500D03*
X187542000Y-89624500D03*
X187542000Y-87084500D03*
X190082000Y-89624500D03*
X190082000Y-87084500D03*
X192622000Y-89624500D03*
X192622000Y-87084500D03*
%TD*%
D22*
%TO.C,H3*%
X105000000Y-145000000D03*
%TD*%
%TO.C,H2*%
X195000000Y-55000000D03*
%TD*%
D15*
%TO.C,J8*%
X143637000Y-144202000D03*
X146177000Y-144202000D03*
X148717000Y-144202000D03*
%TD*%
D23*
%TO.C,J1*%
X115012000Y-76073000D03*
D24*
X108712000Y-76073000D03*
D25*
X112112000Y-80873000D03*
%TD*%
D26*
%TO.C,U4*%
X140462000Y-76708000D03*
X143002000Y-76708000D03*
X129322000Y-76708000D03*
X131762000Y-76708000D03*
X129222000Y-57308000D03*
X131762000Y-57308000D03*
X140462000Y-57308000D03*
X143002000Y-57308000D03*
%TD*%
D27*
%TO.C,U5*%
X182339000Y-142930000D03*
X162339000Y-142930000D03*
D28*
X183769000Y-131930000D03*
X181229000Y-131930000D03*
X178689000Y-131930000D03*
X176149000Y-131930000D03*
X173609000Y-131930000D03*
X171069000Y-131930000D03*
X168529000Y-131930000D03*
X165989000Y-131930000D03*
X163449000Y-131930000D03*
X160909000Y-131930000D03*
%TD*%
D22*
%TO.C,H4*%
X195000000Y-145000000D03*
%TD*%
%TO.C,H1*%
X105000000Y-55000000D03*
%TD*%
D10*
%TO.C,U8*%
X106569500Y-67500000D03*
D11*
X106569500Y-62420000D03*
%TD*%
D20*
%TO.C,U2*%
X122267500Y-128270000D03*
D21*
X122267500Y-130810000D03*
X122267500Y-133350000D03*
X122267500Y-135890000D03*
X122267500Y-138430000D03*
X122267500Y-140970000D03*
X122267500Y-143510000D03*
X122267500Y-146050000D03*
X134967500Y-128270000D03*
X134967500Y-130810000D03*
X134967500Y-133350000D03*
X134967500Y-135890000D03*
X134967500Y-138430000D03*
X134967500Y-140970000D03*
X134967500Y-143510000D03*
X134967500Y-146050000D03*
X132427500Y-146050000D03*
X129887500Y-146050000D03*
%TD*%
D29*
%TO.C,R1*%
X170815000Y-89045000D03*
X170815000Y-86995000D03*
%TD*%
D30*
%TO.C,C2*%
X179578000Y-89894500D03*
X179578000Y-91969500D03*
%TD*%
D31*
%TO.C,C1*%
X179578000Y-87016500D03*
X179578000Y-84941500D03*
%TD*%
M02*
