%TF.GenerationSoftware,KiCad,Pcbnew,9.0.6*%
%TF.CreationDate,2026-03-15T18:50:00+01:00*%
%TF.ProjectId,Robot,526f626f-742e-46b6-9963-61645f706362,rev?*%
%TF.SameCoordinates,Original*%
%TF.FileFunction,Legend,Top*%
%TF.FilePolarity,Positive*%
%FSLAX46Y46*%
G04 Gerber Fmt 4.6, Leading zero omitted, Abs format (unit mm)*
G04 Created by KiCad (PCBNEW 9.0.6) date 2026-03-15 18:50:00*
%MOMM*%
%LPD*%
G01*
G04 APERTURE LIST*
%ADD10C,0.300000*%
%ADD11C,0.200000*%
%ADD12C,0.150000*%
%ADD13C,0.375000*%
%ADD14C,0.100000*%
%ADD15C,0.127000*%
%ADD16C,0.050000*%
%ADD17C,0.120000*%
G04 APERTURE END LIST*
D10*
X113000828Y-90609774D02*
X114500828Y-90109774D01*
X114500828Y-90109774D02*
X113000828Y-89609774D01*
X114500828Y-89109775D02*
X113500828Y-89109775D01*
X113000828Y-89109775D02*
X113072257Y-89181203D01*
X113072257Y-89181203D02*
X113143685Y-89109775D01*
X113143685Y-89109775D02*
X113072257Y-89038346D01*
X113072257Y-89038346D02*
X113000828Y-89109775D01*
X113000828Y-89109775D02*
X113143685Y-89109775D01*
X113500828Y-88395489D02*
X114500828Y-88395489D01*
X113643685Y-88395489D02*
X113572257Y-88324060D01*
X113572257Y-88324060D02*
X113500828Y-88181203D01*
X113500828Y-88181203D02*
X113500828Y-87966917D01*
X113500828Y-87966917D02*
X113572257Y-87824060D01*
X113572257Y-87824060D02*
X113715114Y-87752632D01*
X113715114Y-87752632D02*
X114500828Y-87752632D01*
D11*
X182019673Y-53886266D02*
X182781578Y-53886266D01*
X182400625Y-54267219D02*
X182400625Y-53505314D01*
X183733958Y-53267219D02*
X183257768Y-53267219D01*
X183257768Y-53267219D02*
X183210149Y-53743409D01*
X183210149Y-53743409D02*
X183257768Y-53695790D01*
X183257768Y-53695790D02*
X183353006Y-53648171D01*
X183353006Y-53648171D02*
X183591101Y-53648171D01*
X183591101Y-53648171D02*
X183686339Y-53695790D01*
X183686339Y-53695790D02*
X183733958Y-53743409D01*
X183733958Y-53743409D02*
X183781577Y-53838647D01*
X183781577Y-53838647D02*
X183781577Y-54076742D01*
X183781577Y-54076742D02*
X183733958Y-54171980D01*
X183733958Y-54171980D02*
X183686339Y-54219600D01*
X183686339Y-54219600D02*
X183591101Y-54267219D01*
X183591101Y-54267219D02*
X183353006Y-54267219D01*
X183353006Y-54267219D02*
X183257768Y-54219600D01*
X183257768Y-54219600D02*
X183210149Y-54171980D01*
X184067292Y-53267219D02*
X184400625Y-54267219D01*
X184400625Y-54267219D02*
X184733958Y-53267219D01*
D12*
X103006533Y-86633332D02*
X103006533Y-85566666D01*
X103539866Y-86099999D02*
X102473200Y-86099999D01*
D11*
X183027435Y-111008219D02*
X183646482Y-111008219D01*
X183646482Y-111008219D02*
X183313149Y-111389171D01*
X183313149Y-111389171D02*
X183456006Y-111389171D01*
X183456006Y-111389171D02*
X183551244Y-111436790D01*
X183551244Y-111436790D02*
X183598863Y-111484409D01*
X183598863Y-111484409D02*
X183646482Y-111579647D01*
X183646482Y-111579647D02*
X183646482Y-111817742D01*
X183646482Y-111817742D02*
X183598863Y-111912980D01*
X183598863Y-111912980D02*
X183551244Y-111960600D01*
X183551244Y-111960600D02*
X183456006Y-112008219D01*
X183456006Y-112008219D02*
X183170292Y-112008219D01*
X183170292Y-112008219D02*
X183075054Y-111960600D01*
X183075054Y-111960600D02*
X183027435Y-111912980D01*
X184075054Y-112008219D02*
X184075054Y-111008219D01*
X184075054Y-111008219D02*
X184408387Y-111722504D01*
X184408387Y-111722504D02*
X184741720Y-111008219D01*
X184741720Y-111008219D02*
X184741720Y-112008219D01*
X188726482Y-112008219D02*
X188155054Y-112008219D01*
X188440768Y-112008219D02*
X188440768Y-111008219D01*
X188440768Y-111008219D02*
X188345530Y-111151076D01*
X188345530Y-111151076D02*
X188250292Y-111246314D01*
X188250292Y-111246314D02*
X188155054Y-111293933D01*
X189155054Y-112008219D02*
X189155054Y-111008219D01*
X189155054Y-111008219D02*
X189488387Y-111722504D01*
X189488387Y-111722504D02*
X189821720Y-111008219D01*
X189821720Y-111008219D02*
X189821720Y-112008219D01*
D10*
X120700828Y-66481203D02*
X120700828Y-67195489D01*
X120700828Y-67195489D02*
X121415114Y-67266917D01*
X121415114Y-67266917D02*
X121343685Y-67195489D01*
X121343685Y-67195489D02*
X121272257Y-67052632D01*
X121272257Y-67052632D02*
X121272257Y-66695489D01*
X121272257Y-66695489D02*
X121343685Y-66552632D01*
X121343685Y-66552632D02*
X121415114Y-66481203D01*
X121415114Y-66481203D02*
X121557971Y-66409774D01*
X121557971Y-66409774D02*
X121915114Y-66409774D01*
X121915114Y-66409774D02*
X122057971Y-66481203D01*
X122057971Y-66481203D02*
X122129400Y-66552632D01*
X122129400Y-66552632D02*
X122200828Y-66695489D01*
X122200828Y-66695489D02*
X122200828Y-67052632D01*
X122200828Y-67052632D02*
X122129400Y-67195489D01*
X122129400Y-67195489D02*
X122057971Y-67266917D01*
X121772257Y-65838346D02*
X121772257Y-65124061D01*
X122200828Y-65981203D02*
X120700828Y-65481203D01*
X120700828Y-65481203D02*
X122200828Y-64981203D01*
D12*
X103006533Y-91633332D02*
X103006533Y-90566666D01*
D11*
X184964101Y-105785219D02*
X184630768Y-105309028D01*
X184392673Y-105785219D02*
X184392673Y-104785219D01*
X184392673Y-104785219D02*
X184773625Y-104785219D01*
X184773625Y-104785219D02*
X184868863Y-104832838D01*
X184868863Y-104832838D02*
X184916482Y-104880457D01*
X184916482Y-104880457D02*
X184964101Y-104975695D01*
X184964101Y-104975695D02*
X184964101Y-105118552D01*
X184964101Y-105118552D02*
X184916482Y-105213790D01*
X184916482Y-105213790D02*
X184868863Y-105261409D01*
X184868863Y-105261409D02*
X184773625Y-105309028D01*
X184773625Y-105309028D02*
X184392673Y-105309028D01*
X185345054Y-105499504D02*
X185821244Y-105499504D01*
X185249816Y-105785219D02*
X185583149Y-104785219D01*
X185583149Y-104785219D02*
X185916482Y-105785219D01*
X186249816Y-105785219D02*
X186249816Y-104785219D01*
X186249816Y-104785219D02*
X186821244Y-105785219D01*
X186821244Y-105785219D02*
X186821244Y-104785219D01*
X187821244Y-104832838D02*
X187726006Y-104785219D01*
X187726006Y-104785219D02*
X187583149Y-104785219D01*
X187583149Y-104785219D02*
X187440292Y-104832838D01*
X187440292Y-104832838D02*
X187345054Y-104928076D01*
X187345054Y-104928076D02*
X187297435Y-105023314D01*
X187297435Y-105023314D02*
X187249816Y-105213790D01*
X187249816Y-105213790D02*
X187249816Y-105356647D01*
X187249816Y-105356647D02*
X187297435Y-105547123D01*
X187297435Y-105547123D02*
X187345054Y-105642361D01*
X187345054Y-105642361D02*
X187440292Y-105737600D01*
X187440292Y-105737600D02*
X187583149Y-105785219D01*
X187583149Y-105785219D02*
X187678387Y-105785219D01*
X187678387Y-105785219D02*
X187821244Y-105737600D01*
X187821244Y-105737600D02*
X187868863Y-105689980D01*
X187868863Y-105689980D02*
X187868863Y-105356647D01*
X187868863Y-105356647D02*
X187678387Y-105356647D01*
X188297435Y-105261409D02*
X188630768Y-105261409D01*
X188773625Y-105785219D02*
X188297435Y-105785219D01*
X188297435Y-105785219D02*
X188297435Y-104785219D01*
X188297435Y-104785219D02*
X188773625Y-104785219D01*
X183461600Y-116534945D02*
X183509219Y-116392088D01*
X183509219Y-116392088D02*
X183509219Y-116153993D01*
X183509219Y-116153993D02*
X183461600Y-116058755D01*
X183461600Y-116058755D02*
X183413980Y-116011136D01*
X183413980Y-116011136D02*
X183318742Y-115963517D01*
X183318742Y-115963517D02*
X183223504Y-115963517D01*
X183223504Y-115963517D02*
X183128266Y-116011136D01*
X183128266Y-116011136D02*
X183080647Y-116058755D01*
X183080647Y-116058755D02*
X183033028Y-116153993D01*
X183033028Y-116153993D02*
X182985409Y-116344469D01*
X182985409Y-116344469D02*
X182937790Y-116439707D01*
X182937790Y-116439707D02*
X182890171Y-116487326D01*
X182890171Y-116487326D02*
X182794933Y-116534945D01*
X182794933Y-116534945D02*
X182699695Y-116534945D01*
X182699695Y-116534945D02*
X182604457Y-116487326D01*
X182604457Y-116487326D02*
X182556838Y-116439707D01*
X182556838Y-116439707D02*
X182509219Y-116344469D01*
X182509219Y-116344469D02*
X182509219Y-116106374D01*
X182509219Y-116106374D02*
X182556838Y-115963517D01*
X183509219Y-115534945D02*
X182509219Y-115534945D01*
X182509219Y-115534945D02*
X182509219Y-115296850D01*
X182509219Y-115296850D02*
X182556838Y-115153993D01*
X182556838Y-115153993D02*
X182652076Y-115058755D01*
X182652076Y-115058755D02*
X182747314Y-115011136D01*
X182747314Y-115011136D02*
X182937790Y-114963517D01*
X182937790Y-114963517D02*
X183080647Y-114963517D01*
X183080647Y-114963517D02*
X183271123Y-115011136D01*
X183271123Y-115011136D02*
X183366361Y-115058755D01*
X183366361Y-115058755D02*
X183461600Y-115153993D01*
X183461600Y-115153993D02*
X183509219Y-115296850D01*
X183509219Y-115296850D02*
X183509219Y-115534945D01*
X183223504Y-114582564D02*
X183223504Y-114106374D01*
X183509219Y-114677802D02*
X182509219Y-114344469D01*
X182509219Y-114344469D02*
X183509219Y-114011136D01*
D10*
X113250828Y-66659774D02*
X113250828Y-66374060D01*
X113250828Y-66374060D02*
X113322257Y-66231203D01*
X113322257Y-66231203D02*
X113465114Y-66088346D01*
X113465114Y-66088346D02*
X113750828Y-66016917D01*
X113750828Y-66016917D02*
X114250828Y-66016917D01*
X114250828Y-66016917D02*
X114536542Y-66088346D01*
X114536542Y-66088346D02*
X114679400Y-66231203D01*
X114679400Y-66231203D02*
X114750828Y-66374060D01*
X114750828Y-66374060D02*
X114750828Y-66659774D01*
X114750828Y-66659774D02*
X114679400Y-66802632D01*
X114679400Y-66802632D02*
X114536542Y-66945489D01*
X114536542Y-66945489D02*
X114250828Y-67016917D01*
X114250828Y-67016917D02*
X113750828Y-67016917D01*
X113750828Y-67016917D02*
X113465114Y-66945489D01*
X113465114Y-66945489D02*
X113322257Y-66802632D01*
X113322257Y-66802632D02*
X113250828Y-66659774D01*
X113750828Y-65374060D02*
X114750828Y-65374060D01*
X113893685Y-65374060D02*
X113822257Y-65302631D01*
X113822257Y-65302631D02*
X113750828Y-65159774D01*
X113750828Y-65159774D02*
X113750828Y-64945488D01*
X113750828Y-64945488D02*
X113822257Y-64802631D01*
X113822257Y-64802631D02*
X113965114Y-64731203D01*
X113965114Y-64731203D02*
X114750828Y-64731203D01*
X113250828Y-63731202D02*
X113250828Y-63445488D01*
X113250828Y-63445488D02*
X113322257Y-63302631D01*
X113322257Y-63302631D02*
X113465114Y-63159774D01*
X113465114Y-63159774D02*
X113750828Y-63088345D01*
X113750828Y-63088345D02*
X114250828Y-63088345D01*
X114250828Y-63088345D02*
X114536542Y-63159774D01*
X114536542Y-63159774D02*
X114679400Y-63302631D01*
X114679400Y-63302631D02*
X114750828Y-63445488D01*
X114750828Y-63445488D02*
X114750828Y-63731202D01*
X114750828Y-63731202D02*
X114679400Y-63874060D01*
X114679400Y-63874060D02*
X114536542Y-64016917D01*
X114536542Y-64016917D02*
X114250828Y-64088345D01*
X114250828Y-64088345D02*
X113750828Y-64088345D01*
X113750828Y-64088345D02*
X113465114Y-64016917D01*
X113465114Y-64016917D02*
X113322257Y-63874060D01*
X113322257Y-63874060D02*
X113250828Y-63731202D01*
X113750828Y-62659773D02*
X113750828Y-62088345D01*
X114750828Y-62445488D02*
X113465114Y-62445488D01*
X113465114Y-62445488D02*
X113322257Y-62374059D01*
X113322257Y-62374059D02*
X113250828Y-62231202D01*
X113250828Y-62231202D02*
X113250828Y-62088345D01*
X113750828Y-61802630D02*
X113750828Y-61231202D01*
X114750828Y-61588345D02*
X113465114Y-61588345D01*
X113465114Y-61588345D02*
X113322257Y-61516916D01*
X113322257Y-61516916D02*
X113250828Y-61374059D01*
X113250828Y-61374059D02*
X113250828Y-61231202D01*
D11*
X181619673Y-60786266D02*
X182381578Y-60786266D01*
X182000625Y-61167219D02*
X182000625Y-60405314D01*
X182762530Y-60167219D02*
X183381577Y-60167219D01*
X183381577Y-60167219D02*
X183048244Y-60548171D01*
X183048244Y-60548171D02*
X183191101Y-60548171D01*
X183191101Y-60548171D02*
X183286339Y-60595790D01*
X183286339Y-60595790D02*
X183333958Y-60643409D01*
X183333958Y-60643409D02*
X183381577Y-60738647D01*
X183381577Y-60738647D02*
X183381577Y-60976742D01*
X183381577Y-60976742D02*
X183333958Y-61071980D01*
X183333958Y-61071980D02*
X183286339Y-61119600D01*
X183286339Y-61119600D02*
X183191101Y-61167219D01*
X183191101Y-61167219D02*
X182905387Y-61167219D01*
X182905387Y-61167219D02*
X182810149Y-61119600D01*
X182810149Y-61119600D02*
X182762530Y-61071980D01*
X183667292Y-60167219D02*
X184000625Y-61167219D01*
X184000625Y-61167219D02*
X184333958Y-60167219D01*
X184572054Y-60167219D02*
X185191101Y-60167219D01*
X185191101Y-60167219D02*
X184857768Y-60548171D01*
X184857768Y-60548171D02*
X185000625Y-60548171D01*
X185000625Y-60548171D02*
X185095863Y-60595790D01*
X185095863Y-60595790D02*
X185143482Y-60643409D01*
X185143482Y-60643409D02*
X185191101Y-60738647D01*
X185191101Y-60738647D02*
X185191101Y-60976742D01*
X185191101Y-60976742D02*
X185143482Y-61071980D01*
X185143482Y-61071980D02*
X185095863Y-61119600D01*
X185095863Y-61119600D02*
X185000625Y-61167219D01*
X185000625Y-61167219D02*
X184714911Y-61167219D01*
X184714911Y-61167219D02*
X184619673Y-61119600D01*
X184619673Y-61119600D02*
X184572054Y-61071980D01*
D13*
X194950642Y-114498995D02*
X197950642Y-114498995D01*
X197950642Y-114498995D02*
X197950642Y-115641852D01*
X197950642Y-115641852D02*
X197807785Y-115927567D01*
X197807785Y-115927567D02*
X197664928Y-116070424D01*
X197664928Y-116070424D02*
X197379214Y-116213281D01*
X197379214Y-116213281D02*
X196950642Y-116213281D01*
X196950642Y-116213281D02*
X196664928Y-116070424D01*
X196664928Y-116070424D02*
X196522071Y-115927567D01*
X196522071Y-115927567D02*
X196379214Y-115641852D01*
X196379214Y-115641852D02*
X196379214Y-114498995D01*
X197950642Y-117070424D02*
X194950642Y-118070424D01*
X194950642Y-118070424D02*
X197950642Y-119070424D01*
X194950642Y-120070424D02*
X197950642Y-120070424D01*
X197950642Y-120070424D02*
X197950642Y-120784710D01*
X197950642Y-120784710D02*
X197807785Y-121213281D01*
X197807785Y-121213281D02*
X197522071Y-121498996D01*
X197522071Y-121498996D02*
X197236357Y-121641853D01*
X197236357Y-121641853D02*
X196664928Y-121784710D01*
X196664928Y-121784710D02*
X196236357Y-121784710D01*
X196236357Y-121784710D02*
X195664928Y-121641853D01*
X195664928Y-121641853D02*
X195379214Y-121498996D01*
X195379214Y-121498996D02*
X195093500Y-121213281D01*
X195093500Y-121213281D02*
X194950642Y-120784710D01*
X194950642Y-120784710D02*
X194950642Y-120070424D01*
X197950642Y-122784710D02*
X194950642Y-123498996D01*
X194950642Y-123498996D02*
X197093500Y-124070424D01*
X197093500Y-124070424D02*
X194950642Y-124641853D01*
X194950642Y-124641853D02*
X197950642Y-125356139D01*
X197664928Y-128641852D02*
X197807785Y-128784709D01*
X197807785Y-128784709D02*
X197950642Y-129070424D01*
X197950642Y-129070424D02*
X197950642Y-129784709D01*
X197950642Y-129784709D02*
X197807785Y-130070424D01*
X197807785Y-130070424D02*
X197664928Y-130213281D01*
X197664928Y-130213281D02*
X197379214Y-130356138D01*
X197379214Y-130356138D02*
X197093500Y-130356138D01*
X197093500Y-130356138D02*
X196664928Y-130213281D01*
X196664928Y-130213281D02*
X194950642Y-128498995D01*
X194950642Y-128498995D02*
X194950642Y-130356138D01*
X197950642Y-132213281D02*
X197950642Y-132498995D01*
X197950642Y-132498995D02*
X197807785Y-132784709D01*
X197807785Y-132784709D02*
X197664928Y-132927567D01*
X197664928Y-132927567D02*
X197379214Y-133070424D01*
X197379214Y-133070424D02*
X196807785Y-133213281D01*
X196807785Y-133213281D02*
X196093500Y-133213281D01*
X196093500Y-133213281D02*
X195522071Y-133070424D01*
X195522071Y-133070424D02*
X195236357Y-132927567D01*
X195236357Y-132927567D02*
X195093500Y-132784709D01*
X195093500Y-132784709D02*
X194950642Y-132498995D01*
X194950642Y-132498995D02*
X194950642Y-132213281D01*
X194950642Y-132213281D02*
X195093500Y-131927567D01*
X195093500Y-131927567D02*
X195236357Y-131784709D01*
X195236357Y-131784709D02*
X195522071Y-131641852D01*
X195522071Y-131641852D02*
X196093500Y-131498995D01*
X196093500Y-131498995D02*
X196807785Y-131498995D01*
X196807785Y-131498995D02*
X197379214Y-131641852D01*
X197379214Y-131641852D02*
X197664928Y-131784709D01*
X197664928Y-131784709D02*
X197807785Y-131927567D01*
X197807785Y-131927567D02*
X197950642Y-132213281D01*
X197664928Y-134356138D02*
X197807785Y-134498995D01*
X197807785Y-134498995D02*
X197950642Y-134784710D01*
X197950642Y-134784710D02*
X197950642Y-135498995D01*
X197950642Y-135498995D02*
X197807785Y-135784710D01*
X197807785Y-135784710D02*
X197664928Y-135927567D01*
X197664928Y-135927567D02*
X197379214Y-136070424D01*
X197379214Y-136070424D02*
X197093500Y-136070424D01*
X197093500Y-136070424D02*
X196664928Y-135927567D01*
X196664928Y-135927567D02*
X194950642Y-134213281D01*
X194950642Y-134213281D02*
X194950642Y-136070424D01*
X197950642Y-138641853D02*
X197950642Y-138070424D01*
X197950642Y-138070424D02*
X197807785Y-137784710D01*
X197807785Y-137784710D02*
X197664928Y-137641853D01*
X197664928Y-137641853D02*
X197236357Y-137356138D01*
X197236357Y-137356138D02*
X196664928Y-137213281D01*
X196664928Y-137213281D02*
X195522071Y-137213281D01*
X195522071Y-137213281D02*
X195236357Y-137356138D01*
X195236357Y-137356138D02*
X195093500Y-137498995D01*
X195093500Y-137498995D02*
X194950642Y-137784710D01*
X194950642Y-137784710D02*
X194950642Y-138356138D01*
X194950642Y-138356138D02*
X195093500Y-138641853D01*
X195093500Y-138641853D02*
X195236357Y-138784710D01*
X195236357Y-138784710D02*
X195522071Y-138927567D01*
X195522071Y-138927567D02*
X196236357Y-138927567D01*
X196236357Y-138927567D02*
X196522071Y-138784710D01*
X196522071Y-138784710D02*
X196664928Y-138641853D01*
X196664928Y-138641853D02*
X196807785Y-138356138D01*
X196807785Y-138356138D02*
X196807785Y-137784710D01*
X196807785Y-137784710D02*
X196664928Y-137498995D01*
X196664928Y-137498995D02*
X196522071Y-137356138D01*
X196522071Y-137356138D02*
X196236357Y-137213281D01*
D12*
X116070439Y-101916627D02*
X116745355Y-101916627D01*
X116745355Y-101916627D02*
X116880338Y-101961622D01*
X116880338Y-101961622D02*
X116970327Y-102051610D01*
X116970327Y-102051610D02*
X117015321Y-102186594D01*
X117015321Y-102186594D02*
X117015321Y-102276582D01*
X116070439Y-101016740D02*
X116070439Y-101466684D01*
X116070439Y-101466684D02*
X116520383Y-101511678D01*
X116520383Y-101511678D02*
X116475388Y-101466684D01*
X116475388Y-101466684D02*
X116430394Y-101376695D01*
X116430394Y-101376695D02*
X116430394Y-101151723D01*
X116430394Y-101151723D02*
X116475388Y-101061734D01*
X116475388Y-101061734D02*
X116520383Y-101016740D01*
X116520383Y-101016740D02*
X116610371Y-100971745D01*
X116610371Y-100971745D02*
X116835343Y-100971745D01*
X116835343Y-100971745D02*
X116925332Y-101016740D01*
X116925332Y-101016740D02*
X116970327Y-101061734D01*
X116970327Y-101061734D02*
X117015321Y-101151723D01*
X117015321Y-101151723D02*
X117015321Y-101376695D01*
X117015321Y-101376695D02*
X116970327Y-101466684D01*
X116970327Y-101466684D02*
X116925332Y-101511678D01*
D11*
X110949886Y-97167993D02*
X109949886Y-97167993D01*
X109949886Y-97167993D02*
X110664171Y-96834660D01*
X110664171Y-96834660D02*
X109949886Y-96501327D01*
X109949886Y-96501327D02*
X110949886Y-96501327D01*
X110045124Y-96072755D02*
X109997505Y-96025136D01*
X109997505Y-96025136D02*
X109949886Y-95929898D01*
X109949886Y-95929898D02*
X109949886Y-95691803D01*
X109949886Y-95691803D02*
X109997505Y-95596565D01*
X109997505Y-95596565D02*
X110045124Y-95548946D01*
X110045124Y-95548946D02*
X110140362Y-95501327D01*
X110140362Y-95501327D02*
X110235600Y-95501327D01*
X110235600Y-95501327D02*
X110378457Y-95548946D01*
X110378457Y-95548946D02*
X110949886Y-96120374D01*
X110949886Y-96120374D02*
X110949886Y-95501327D01*
X110664171Y-95120374D02*
X110664171Y-94644184D01*
X110949886Y-95215612D02*
X109949886Y-94882279D01*
X109949886Y-94882279D02*
X110949886Y-94548946D01*
X105531219Y-97167993D02*
X104531219Y-97167993D01*
X104531219Y-97167993D02*
X105245504Y-96834660D01*
X105245504Y-96834660D02*
X104531219Y-96501327D01*
X104531219Y-96501327D02*
X105531219Y-96501327D01*
X105531219Y-95501327D02*
X105531219Y-96072755D01*
X105531219Y-95787041D02*
X104531219Y-95787041D01*
X104531219Y-95787041D02*
X104674076Y-95882279D01*
X104674076Y-95882279D02*
X104769314Y-95977517D01*
X104769314Y-95977517D02*
X104816933Y-96072755D01*
X105007409Y-94739422D02*
X105055028Y-94596565D01*
X105055028Y-94596565D02*
X105102647Y-94548946D01*
X105102647Y-94548946D02*
X105197885Y-94501327D01*
X105197885Y-94501327D02*
X105340742Y-94501327D01*
X105340742Y-94501327D02*
X105435980Y-94548946D01*
X105435980Y-94548946D02*
X105483600Y-94596565D01*
X105483600Y-94596565D02*
X105531219Y-94691803D01*
X105531219Y-94691803D02*
X105531219Y-95072755D01*
X105531219Y-95072755D02*
X104531219Y-95072755D01*
X104531219Y-95072755D02*
X104531219Y-94739422D01*
X104531219Y-94739422D02*
X104578838Y-94644184D01*
X104578838Y-94644184D02*
X104626457Y-94596565D01*
X104626457Y-94596565D02*
X104721695Y-94548946D01*
X104721695Y-94548946D02*
X104816933Y-94548946D01*
X104816933Y-94548946D02*
X104912171Y-94596565D01*
X104912171Y-94596565D02*
X104959790Y-94644184D01*
X104959790Y-94644184D02*
X105007409Y-94739422D01*
X105007409Y-94739422D02*
X105007409Y-95072755D01*
X108240552Y-97167993D02*
X107240552Y-97167993D01*
X107240552Y-97167993D02*
X107954837Y-96834660D01*
X107954837Y-96834660D02*
X107240552Y-96501327D01*
X107240552Y-96501327D02*
X108240552Y-96501327D01*
X108240552Y-95501327D02*
X108240552Y-96072755D01*
X108240552Y-95787041D02*
X107240552Y-95787041D01*
X107240552Y-95787041D02*
X107383409Y-95882279D01*
X107383409Y-95882279D02*
X107478647Y-95977517D01*
X107478647Y-95977517D02*
X107526266Y-96072755D01*
X107954837Y-95120374D02*
X107954837Y-94644184D01*
X108240552Y-95215612D02*
X107240552Y-94882279D01*
X107240552Y-94882279D02*
X108240552Y-94548946D01*
X113659219Y-97167993D02*
X112659219Y-97167993D01*
X112659219Y-97167993D02*
X113373504Y-96834660D01*
X113373504Y-96834660D02*
X112659219Y-96501327D01*
X112659219Y-96501327D02*
X113659219Y-96501327D01*
X112754457Y-96072755D02*
X112706838Y-96025136D01*
X112706838Y-96025136D02*
X112659219Y-95929898D01*
X112659219Y-95929898D02*
X112659219Y-95691803D01*
X112659219Y-95691803D02*
X112706838Y-95596565D01*
X112706838Y-95596565D02*
X112754457Y-95548946D01*
X112754457Y-95548946D02*
X112849695Y-95501327D01*
X112849695Y-95501327D02*
X112944933Y-95501327D01*
X112944933Y-95501327D02*
X113087790Y-95548946D01*
X113087790Y-95548946D02*
X113659219Y-96120374D01*
X113659219Y-96120374D02*
X113659219Y-95501327D01*
X113135409Y-94739422D02*
X113183028Y-94596565D01*
X113183028Y-94596565D02*
X113230647Y-94548946D01*
X113230647Y-94548946D02*
X113325885Y-94501327D01*
X113325885Y-94501327D02*
X113468742Y-94501327D01*
X113468742Y-94501327D02*
X113563980Y-94548946D01*
X113563980Y-94548946D02*
X113611600Y-94596565D01*
X113611600Y-94596565D02*
X113659219Y-94691803D01*
X113659219Y-94691803D02*
X113659219Y-95072755D01*
X113659219Y-95072755D02*
X112659219Y-95072755D01*
X112659219Y-95072755D02*
X112659219Y-94739422D01*
X112659219Y-94739422D02*
X112706838Y-94644184D01*
X112706838Y-94644184D02*
X112754457Y-94596565D01*
X112754457Y-94596565D02*
X112849695Y-94548946D01*
X112849695Y-94548946D02*
X112944933Y-94548946D01*
X112944933Y-94548946D02*
X113040171Y-94596565D01*
X113040171Y-94596565D02*
X113087790Y-94644184D01*
X113087790Y-94644184D02*
X113135409Y-94739422D01*
X113135409Y-94739422D02*
X113135409Y-95072755D01*
X101975219Y-105040326D02*
X100975219Y-105040326D01*
X100975219Y-105040326D02*
X100975219Y-104802231D01*
X100975219Y-104802231D02*
X101022838Y-104659374D01*
X101022838Y-104659374D02*
X101118076Y-104564136D01*
X101118076Y-104564136D02*
X101213314Y-104516517D01*
X101213314Y-104516517D02*
X101403790Y-104468898D01*
X101403790Y-104468898D02*
X101546647Y-104468898D01*
X101546647Y-104468898D02*
X101737123Y-104516517D01*
X101737123Y-104516517D02*
X101832361Y-104564136D01*
X101832361Y-104564136D02*
X101927600Y-104659374D01*
X101927600Y-104659374D02*
X101975219Y-104802231D01*
X101975219Y-104802231D02*
X101975219Y-105040326D01*
X101879980Y-103468898D02*
X101927600Y-103516517D01*
X101927600Y-103516517D02*
X101975219Y-103659374D01*
X101975219Y-103659374D02*
X101975219Y-103754612D01*
X101975219Y-103754612D02*
X101927600Y-103897469D01*
X101927600Y-103897469D02*
X101832361Y-103992707D01*
X101832361Y-103992707D02*
X101737123Y-104040326D01*
X101737123Y-104040326D02*
X101546647Y-104087945D01*
X101546647Y-104087945D02*
X101403790Y-104087945D01*
X101403790Y-104087945D02*
X101213314Y-104040326D01*
X101213314Y-104040326D02*
X101118076Y-103992707D01*
X101118076Y-103992707D02*
X101022838Y-103897469D01*
X101022838Y-103897469D02*
X100975219Y-103754612D01*
X100975219Y-103754612D02*
X100975219Y-103659374D01*
X100975219Y-103659374D02*
X101022838Y-103516517D01*
X101022838Y-103516517D02*
X101070457Y-103468898D01*
X101975219Y-102278421D02*
X100975219Y-102278421D01*
X100975219Y-102278421D02*
X101689504Y-101945088D01*
X101689504Y-101945088D02*
X100975219Y-101611755D01*
X100975219Y-101611755D02*
X101975219Y-101611755D01*
X100975219Y-100945088D02*
X100975219Y-100754612D01*
X100975219Y-100754612D02*
X101022838Y-100659374D01*
X101022838Y-100659374D02*
X101118076Y-100564136D01*
X101118076Y-100564136D02*
X101308552Y-100516517D01*
X101308552Y-100516517D02*
X101641885Y-100516517D01*
X101641885Y-100516517D02*
X101832361Y-100564136D01*
X101832361Y-100564136D02*
X101927600Y-100659374D01*
X101927600Y-100659374D02*
X101975219Y-100754612D01*
X101975219Y-100754612D02*
X101975219Y-100945088D01*
X101975219Y-100945088D02*
X101927600Y-101040326D01*
X101927600Y-101040326D02*
X101832361Y-101135564D01*
X101832361Y-101135564D02*
X101641885Y-101183183D01*
X101641885Y-101183183D02*
X101308552Y-101183183D01*
X101308552Y-101183183D02*
X101118076Y-101135564D01*
X101118076Y-101135564D02*
X101022838Y-101040326D01*
X101022838Y-101040326D02*
X100975219Y-100945088D01*
X100975219Y-100230802D02*
X100975219Y-99659374D01*
X101975219Y-99945088D02*
X100975219Y-99945088D01*
X100975219Y-99135564D02*
X100975219Y-98945088D01*
X100975219Y-98945088D02*
X101022838Y-98849850D01*
X101022838Y-98849850D02*
X101118076Y-98754612D01*
X101118076Y-98754612D02*
X101308552Y-98706993D01*
X101308552Y-98706993D02*
X101641885Y-98706993D01*
X101641885Y-98706993D02*
X101832361Y-98754612D01*
X101832361Y-98754612D02*
X101927600Y-98849850D01*
X101927600Y-98849850D02*
X101975219Y-98945088D01*
X101975219Y-98945088D02*
X101975219Y-99135564D01*
X101975219Y-99135564D02*
X101927600Y-99230802D01*
X101927600Y-99230802D02*
X101832361Y-99326040D01*
X101832361Y-99326040D02*
X101641885Y-99373659D01*
X101641885Y-99373659D02*
X101308552Y-99373659D01*
X101308552Y-99373659D02*
X101118076Y-99326040D01*
X101118076Y-99326040D02*
X101022838Y-99230802D01*
X101022838Y-99230802D02*
X100975219Y-99135564D01*
X101975219Y-97706993D02*
X101499028Y-98040326D01*
X101975219Y-98278421D02*
X100975219Y-98278421D01*
X100975219Y-98278421D02*
X100975219Y-97897469D01*
X100975219Y-97897469D02*
X101022838Y-97802231D01*
X101022838Y-97802231D02*
X101070457Y-97754612D01*
X101070457Y-97754612D02*
X101165695Y-97706993D01*
X101165695Y-97706993D02*
X101308552Y-97706993D01*
X101308552Y-97706993D02*
X101403790Y-97754612D01*
X101403790Y-97754612D02*
X101451409Y-97802231D01*
X101451409Y-97802231D02*
X101499028Y-97897469D01*
X101499028Y-97897469D02*
X101499028Y-98278421D01*
D12*
X194048439Y-100915960D02*
X194723355Y-100915960D01*
X194723355Y-100915960D02*
X194858338Y-100960955D01*
X194858338Y-100960955D02*
X194948327Y-101050943D01*
X194948327Y-101050943D02*
X194993321Y-101185927D01*
X194993321Y-101185927D02*
X194993321Y-101275915D01*
X194363400Y-100061067D02*
X194993321Y-100061067D01*
X194003445Y-100286039D02*
X194678360Y-100511011D01*
X194678360Y-100511011D02*
X194678360Y-99926084D01*
D11*
X179080219Y-103406326D02*
X179889742Y-103406326D01*
X179889742Y-103406326D02*
X179984980Y-103358707D01*
X179984980Y-103358707D02*
X180032600Y-103311088D01*
X180032600Y-103311088D02*
X180080219Y-103215850D01*
X180080219Y-103215850D02*
X180080219Y-103025374D01*
X180080219Y-103025374D02*
X180032600Y-102930136D01*
X180032600Y-102930136D02*
X179984980Y-102882517D01*
X179984980Y-102882517D02*
X179889742Y-102834898D01*
X179889742Y-102834898D02*
X179080219Y-102834898D01*
X180080219Y-101882517D02*
X180080219Y-102358707D01*
X180080219Y-102358707D02*
X179080219Y-102358707D01*
X179080219Y-101692040D02*
X179080219Y-101120612D01*
X180080219Y-101406326D02*
X179080219Y-101406326D01*
X180080219Y-100215850D02*
X179604028Y-100549183D01*
X180080219Y-100787278D02*
X179080219Y-100787278D01*
X179080219Y-100787278D02*
X179080219Y-100406326D01*
X179080219Y-100406326D02*
X179127838Y-100311088D01*
X179127838Y-100311088D02*
X179175457Y-100263469D01*
X179175457Y-100263469D02*
X179270695Y-100215850D01*
X179270695Y-100215850D02*
X179413552Y-100215850D01*
X179413552Y-100215850D02*
X179508790Y-100263469D01*
X179508790Y-100263469D02*
X179556409Y-100311088D01*
X179556409Y-100311088D02*
X179604028Y-100406326D01*
X179604028Y-100406326D02*
X179604028Y-100787278D01*
X179794504Y-99834897D02*
X179794504Y-99358707D01*
X180080219Y-99930135D02*
X179080219Y-99596802D01*
X179080219Y-99596802D02*
X180080219Y-99263469D01*
X179699266Y-98930135D02*
X179699266Y-98168231D01*
X180032600Y-97739659D02*
X180080219Y-97596802D01*
X180080219Y-97596802D02*
X180080219Y-97358707D01*
X180080219Y-97358707D02*
X180032600Y-97263469D01*
X180032600Y-97263469D02*
X179984980Y-97215850D01*
X179984980Y-97215850D02*
X179889742Y-97168231D01*
X179889742Y-97168231D02*
X179794504Y-97168231D01*
X179794504Y-97168231D02*
X179699266Y-97215850D01*
X179699266Y-97215850D02*
X179651647Y-97263469D01*
X179651647Y-97263469D02*
X179604028Y-97358707D01*
X179604028Y-97358707D02*
X179556409Y-97549183D01*
X179556409Y-97549183D02*
X179508790Y-97644421D01*
X179508790Y-97644421D02*
X179461171Y-97692040D01*
X179461171Y-97692040D02*
X179365933Y-97739659D01*
X179365933Y-97739659D02*
X179270695Y-97739659D01*
X179270695Y-97739659D02*
X179175457Y-97692040D01*
X179175457Y-97692040D02*
X179127838Y-97644421D01*
X179127838Y-97644421D02*
X179080219Y-97549183D01*
X179080219Y-97549183D02*
X179080219Y-97311088D01*
X179080219Y-97311088D02*
X179127838Y-97168231D01*
X183250780Y-95731863D02*
X183250780Y-95255673D01*
X183250780Y-95255673D02*
X182774590Y-95208054D01*
X182774590Y-95208054D02*
X182822209Y-95255673D01*
X182822209Y-95255673D02*
X182869828Y-95350911D01*
X182869828Y-95350911D02*
X182869828Y-95589006D01*
X182869828Y-95589006D02*
X182822209Y-95684244D01*
X182822209Y-95684244D02*
X182774590Y-95731863D01*
X182774590Y-95731863D02*
X182679352Y-95779482D01*
X182679352Y-95779482D02*
X182441257Y-95779482D01*
X182441257Y-95779482D02*
X182346019Y-95731863D01*
X182346019Y-95731863D02*
X182298400Y-95684244D01*
X182298400Y-95684244D02*
X182250780Y-95589006D01*
X182250780Y-95589006D02*
X182250780Y-95350911D01*
X182250780Y-95350911D02*
X182298400Y-95255673D01*
X182298400Y-95255673D02*
X182346019Y-95208054D01*
X183250780Y-96065197D02*
X182250780Y-96398530D01*
X182250780Y-96398530D02*
X183250780Y-96731863D01*
X191458161Y-94509482D02*
X191505780Y-94414244D01*
X191505780Y-94414244D02*
X191505780Y-94271387D01*
X191505780Y-94271387D02*
X191458161Y-94128530D01*
X191458161Y-94128530D02*
X191362923Y-94033292D01*
X191362923Y-94033292D02*
X191267685Y-93985673D01*
X191267685Y-93985673D02*
X191077209Y-93938054D01*
X191077209Y-93938054D02*
X190934352Y-93938054D01*
X190934352Y-93938054D02*
X190743876Y-93985673D01*
X190743876Y-93985673D02*
X190648638Y-94033292D01*
X190648638Y-94033292D02*
X190553400Y-94128530D01*
X190553400Y-94128530D02*
X190505780Y-94271387D01*
X190505780Y-94271387D02*
X190505780Y-94366625D01*
X190505780Y-94366625D02*
X190553400Y-94509482D01*
X190553400Y-94509482D02*
X190601019Y-94557101D01*
X190601019Y-94557101D02*
X190934352Y-94557101D01*
X190934352Y-94557101D02*
X190934352Y-94366625D01*
X190505780Y-94985673D02*
X191505780Y-94985673D01*
X191505780Y-94985673D02*
X190505780Y-95557101D01*
X190505780Y-95557101D02*
X191505780Y-95557101D01*
X190505780Y-96033292D02*
X191505780Y-96033292D01*
X191505780Y-96033292D02*
X191505780Y-96271387D01*
X191505780Y-96271387D02*
X191458161Y-96414244D01*
X191458161Y-96414244D02*
X191362923Y-96509482D01*
X191362923Y-96509482D02*
X191267685Y-96557101D01*
X191267685Y-96557101D02*
X191077209Y-96604720D01*
X191077209Y-96604720D02*
X190934352Y-96604720D01*
X190934352Y-96604720D02*
X190743876Y-96557101D01*
X190743876Y-96557101D02*
X190648638Y-96509482D01*
X190648638Y-96509482D02*
X190553400Y-96414244D01*
X190553400Y-96414244D02*
X190505780Y-96271387D01*
X190505780Y-96271387D02*
X190505780Y-96033292D01*
X188965780Y-94176149D02*
X188965780Y-94366625D01*
X188965780Y-94366625D02*
X188918161Y-94461863D01*
X188918161Y-94461863D02*
X188822923Y-94557101D01*
X188822923Y-94557101D02*
X188632447Y-94604720D01*
X188632447Y-94604720D02*
X188299114Y-94604720D01*
X188299114Y-94604720D02*
X188108638Y-94557101D01*
X188108638Y-94557101D02*
X188013400Y-94461863D01*
X188013400Y-94461863D02*
X187965780Y-94366625D01*
X187965780Y-94366625D02*
X187965780Y-94176149D01*
X187965780Y-94176149D02*
X188013400Y-94080911D01*
X188013400Y-94080911D02*
X188108638Y-93985673D01*
X188108638Y-93985673D02*
X188299114Y-93938054D01*
X188299114Y-93938054D02*
X188632447Y-93938054D01*
X188632447Y-93938054D02*
X188822923Y-93985673D01*
X188822923Y-93985673D02*
X188918161Y-94080911D01*
X188918161Y-94080911D02*
X188965780Y-94176149D01*
X188965780Y-95033292D02*
X188156257Y-95033292D01*
X188156257Y-95033292D02*
X188061019Y-95080911D01*
X188061019Y-95080911D02*
X188013400Y-95128530D01*
X188013400Y-95128530D02*
X187965780Y-95223768D01*
X187965780Y-95223768D02*
X187965780Y-95414244D01*
X187965780Y-95414244D02*
X188013400Y-95509482D01*
X188013400Y-95509482D02*
X188061019Y-95557101D01*
X188061019Y-95557101D02*
X188156257Y-95604720D01*
X188156257Y-95604720D02*
X188965780Y-95604720D01*
X188965780Y-95938054D02*
X188965780Y-96509482D01*
X187965780Y-96223768D02*
X188965780Y-96223768D01*
X185425780Y-92652101D02*
X185901971Y-92318768D01*
X185425780Y-92080673D02*
X186425780Y-92080673D01*
X186425780Y-92080673D02*
X186425780Y-92461625D01*
X186425780Y-92461625D02*
X186378161Y-92556863D01*
X186378161Y-92556863D02*
X186330542Y-92604482D01*
X186330542Y-92604482D02*
X186235304Y-92652101D01*
X186235304Y-92652101D02*
X186092447Y-92652101D01*
X186092447Y-92652101D02*
X185997209Y-92604482D01*
X185997209Y-92604482D02*
X185949590Y-92556863D01*
X185949590Y-92556863D02*
X185901971Y-92461625D01*
X185901971Y-92461625D02*
X185901971Y-92080673D01*
X185711495Y-93033054D02*
X185711495Y-93509244D01*
X185425780Y-92937816D02*
X186425780Y-93271149D01*
X186425780Y-93271149D02*
X185425780Y-93604482D01*
X185425780Y-93937816D02*
X186425780Y-93937816D01*
X186425780Y-93937816D02*
X185425780Y-94509244D01*
X185425780Y-94509244D02*
X186425780Y-94509244D01*
X186378161Y-95509244D02*
X186425780Y-95414006D01*
X186425780Y-95414006D02*
X186425780Y-95271149D01*
X186425780Y-95271149D02*
X186378161Y-95128292D01*
X186378161Y-95128292D02*
X186282923Y-95033054D01*
X186282923Y-95033054D02*
X186187685Y-94985435D01*
X186187685Y-94985435D02*
X185997209Y-94937816D01*
X185997209Y-94937816D02*
X185854352Y-94937816D01*
X185854352Y-94937816D02*
X185663876Y-94985435D01*
X185663876Y-94985435D02*
X185568638Y-95033054D01*
X185568638Y-95033054D02*
X185473400Y-95128292D01*
X185473400Y-95128292D02*
X185425780Y-95271149D01*
X185425780Y-95271149D02*
X185425780Y-95366387D01*
X185425780Y-95366387D02*
X185473400Y-95509244D01*
X185473400Y-95509244D02*
X185521019Y-95556863D01*
X185521019Y-95556863D02*
X185854352Y-95556863D01*
X185854352Y-95556863D02*
X185854352Y-95366387D01*
X185949590Y-95985435D02*
X185949590Y-96318768D01*
X185425780Y-96461625D02*
X185425780Y-95985435D01*
X185425780Y-95985435D02*
X186425780Y-95985435D01*
X186425780Y-95985435D02*
X186425780Y-96461625D01*
D12*
X118041009Y-71197333D02*
X118041009Y-71530666D01*
X118564819Y-71530666D02*
X117564819Y-71530666D01*
X117564819Y-71530666D02*
X117564819Y-71054476D01*
X118564819Y-70149714D02*
X118564819Y-70721142D01*
X118564819Y-70435428D02*
X117564819Y-70435428D01*
X117564819Y-70435428D02*
X117707676Y-70530666D01*
X117707676Y-70530666D02*
X117802914Y-70625904D01*
X117802914Y-70625904D02*
X117850533Y-70721142D01*
D14*
X140046419Y-128275523D02*
X140760704Y-128275523D01*
X140760704Y-128275523D02*
X140903561Y-128323142D01*
X140903561Y-128323142D02*
X140998800Y-128418380D01*
X140998800Y-128418380D02*
X141046419Y-128561237D01*
X141046419Y-128561237D02*
X141046419Y-128656475D01*
X141046419Y-127275523D02*
X141046419Y-127846951D01*
X141046419Y-127561237D02*
X140046419Y-127561237D01*
X140046419Y-127561237D02*
X140189276Y-127656475D01*
X140189276Y-127656475D02*
X140284514Y-127751713D01*
X140284514Y-127751713D02*
X140332133Y-127846951D01*
X140046419Y-126656475D02*
X140046419Y-126561237D01*
X140046419Y-126561237D02*
X140094038Y-126465999D01*
X140094038Y-126465999D02*
X140141657Y-126418380D01*
X140141657Y-126418380D02*
X140236895Y-126370761D01*
X140236895Y-126370761D02*
X140427371Y-126323142D01*
X140427371Y-126323142D02*
X140665466Y-126323142D01*
X140665466Y-126323142D02*
X140855942Y-126370761D01*
X140855942Y-126370761D02*
X140951180Y-126418380D01*
X140951180Y-126418380D02*
X140998800Y-126465999D01*
X140998800Y-126465999D02*
X141046419Y-126561237D01*
X141046419Y-126561237D02*
X141046419Y-126656475D01*
X141046419Y-126656475D02*
X140998800Y-126751713D01*
X140998800Y-126751713D02*
X140951180Y-126799332D01*
X140951180Y-126799332D02*
X140855942Y-126846951D01*
X140855942Y-126846951D02*
X140665466Y-126894570D01*
X140665466Y-126894570D02*
X140427371Y-126894570D01*
X140427371Y-126894570D02*
X140236895Y-126846951D01*
X140236895Y-126846951D02*
X140141657Y-126799332D01*
X140141657Y-126799332D02*
X140094038Y-126751713D01*
X140094038Y-126751713D02*
X140046419Y-126656475D01*
D11*
X143504266Y-124344326D02*
X143504266Y-123582422D01*
X149092266Y-124344326D02*
X149092266Y-123582422D01*
X149473219Y-123963374D02*
X148711314Y-123963374D01*
X153235600Y-130699945D02*
X153283219Y-130557088D01*
X153283219Y-130557088D02*
X153283219Y-130318993D01*
X153283219Y-130318993D02*
X153235600Y-130223755D01*
X153235600Y-130223755D02*
X153187980Y-130176136D01*
X153187980Y-130176136D02*
X153092742Y-130128517D01*
X153092742Y-130128517D02*
X152997504Y-130128517D01*
X152997504Y-130128517D02*
X152902266Y-130176136D01*
X152902266Y-130176136D02*
X152854647Y-130223755D01*
X152854647Y-130223755D02*
X152807028Y-130318993D01*
X152807028Y-130318993D02*
X152759409Y-130509469D01*
X152759409Y-130509469D02*
X152711790Y-130604707D01*
X152711790Y-130604707D02*
X152664171Y-130652326D01*
X152664171Y-130652326D02*
X152568933Y-130699945D01*
X152568933Y-130699945D02*
X152473695Y-130699945D01*
X152473695Y-130699945D02*
X152378457Y-130652326D01*
X152378457Y-130652326D02*
X152330838Y-130604707D01*
X152330838Y-130604707D02*
X152283219Y-130509469D01*
X152283219Y-130509469D02*
X152283219Y-130271374D01*
X152283219Y-130271374D02*
X152330838Y-130128517D01*
X152759409Y-129699945D02*
X152759409Y-129366612D01*
X153283219Y-129223755D02*
X153283219Y-129699945D01*
X153283219Y-129699945D02*
X152283219Y-129699945D01*
X152283219Y-129699945D02*
X152283219Y-129223755D01*
X153283219Y-128223755D02*
X152807028Y-128557088D01*
X153283219Y-128795183D02*
X152283219Y-128795183D01*
X152283219Y-128795183D02*
X152283219Y-128414231D01*
X152283219Y-128414231D02*
X152330838Y-128318993D01*
X152330838Y-128318993D02*
X152378457Y-128271374D01*
X152378457Y-128271374D02*
X152473695Y-128223755D01*
X152473695Y-128223755D02*
X152616552Y-128223755D01*
X152616552Y-128223755D02*
X152711790Y-128271374D01*
X152711790Y-128271374D02*
X152759409Y-128318993D01*
X152759409Y-128318993D02*
X152807028Y-128414231D01*
X152807028Y-128414231D02*
X152807028Y-128795183D01*
X152283219Y-127938040D02*
X153283219Y-127604707D01*
X153283219Y-127604707D02*
X152283219Y-127271374D01*
X152283219Y-126747564D02*
X152283219Y-126557088D01*
X152283219Y-126557088D02*
X152330838Y-126461850D01*
X152330838Y-126461850D02*
X152426076Y-126366612D01*
X152426076Y-126366612D02*
X152616552Y-126318993D01*
X152616552Y-126318993D02*
X152949885Y-126318993D01*
X152949885Y-126318993D02*
X153140361Y-126366612D01*
X153140361Y-126366612D02*
X153235600Y-126461850D01*
X153235600Y-126461850D02*
X153283219Y-126557088D01*
X153283219Y-126557088D02*
X153283219Y-126747564D01*
X153283219Y-126747564D02*
X153235600Y-126842802D01*
X153235600Y-126842802D02*
X153140361Y-126938040D01*
X153140361Y-126938040D02*
X152949885Y-126985659D01*
X152949885Y-126985659D02*
X152616552Y-126985659D01*
X152616552Y-126985659D02*
X152426076Y-126938040D01*
X152426076Y-126938040D02*
X152330838Y-126842802D01*
X152330838Y-126842802D02*
X152283219Y-126747564D01*
X152283219Y-125223754D02*
X152283219Y-124604707D01*
X152283219Y-124604707D02*
X152664171Y-124938040D01*
X152664171Y-124938040D02*
X152664171Y-124795183D01*
X152664171Y-124795183D02*
X152711790Y-124699945D01*
X152711790Y-124699945D02*
X152759409Y-124652326D01*
X152759409Y-124652326D02*
X152854647Y-124604707D01*
X152854647Y-124604707D02*
X153092742Y-124604707D01*
X153092742Y-124604707D02*
X153187980Y-124652326D01*
X153187980Y-124652326D02*
X153235600Y-124699945D01*
X153235600Y-124699945D02*
X153283219Y-124795183D01*
X153283219Y-124795183D02*
X153283219Y-125080897D01*
X153283219Y-125080897D02*
X153235600Y-125176135D01*
X153235600Y-125176135D02*
X153187980Y-125223754D01*
X146631600Y-124349945D02*
X146679219Y-124207088D01*
X146679219Y-124207088D02*
X146679219Y-123968993D01*
X146679219Y-123968993D02*
X146631600Y-123873755D01*
X146631600Y-123873755D02*
X146583980Y-123826136D01*
X146583980Y-123826136D02*
X146488742Y-123778517D01*
X146488742Y-123778517D02*
X146393504Y-123778517D01*
X146393504Y-123778517D02*
X146298266Y-123826136D01*
X146298266Y-123826136D02*
X146250647Y-123873755D01*
X146250647Y-123873755D02*
X146203028Y-123968993D01*
X146203028Y-123968993D02*
X146155409Y-124159469D01*
X146155409Y-124159469D02*
X146107790Y-124254707D01*
X146107790Y-124254707D02*
X146060171Y-124302326D01*
X146060171Y-124302326D02*
X145964933Y-124349945D01*
X145964933Y-124349945D02*
X145869695Y-124349945D01*
X145869695Y-124349945D02*
X145774457Y-124302326D01*
X145774457Y-124302326D02*
X145726838Y-124254707D01*
X145726838Y-124254707D02*
X145679219Y-124159469D01*
X145679219Y-124159469D02*
X145679219Y-123921374D01*
X145679219Y-123921374D02*
X145726838Y-123778517D01*
D12*
X170615095Y-113881819D02*
X170615095Y-114691342D01*
X170615095Y-114691342D02*
X170662714Y-114786580D01*
X170662714Y-114786580D02*
X170710333Y-114834200D01*
X170710333Y-114834200D02*
X170805571Y-114881819D01*
X170805571Y-114881819D02*
X170996047Y-114881819D01*
X170996047Y-114881819D02*
X171091285Y-114834200D01*
X171091285Y-114834200D02*
X171138904Y-114786580D01*
X171138904Y-114786580D02*
X171186523Y-114691342D01*
X171186523Y-114691342D02*
X171186523Y-113881819D01*
X171567476Y-113881819D02*
X172186523Y-113881819D01*
X172186523Y-113881819D02*
X171853190Y-114262771D01*
X171853190Y-114262771D02*
X171996047Y-114262771D01*
X171996047Y-114262771D02*
X172091285Y-114310390D01*
X172091285Y-114310390D02*
X172138904Y-114358009D01*
X172138904Y-114358009D02*
X172186523Y-114453247D01*
X172186523Y-114453247D02*
X172186523Y-114691342D01*
X172186523Y-114691342D02*
X172138904Y-114786580D01*
X172138904Y-114786580D02*
X172091285Y-114834200D01*
X172091285Y-114834200D02*
X171996047Y-114881819D01*
X171996047Y-114881819D02*
X171710333Y-114881819D01*
X171710333Y-114881819D02*
X171615095Y-114834200D01*
X171615095Y-114834200D02*
X171567476Y-114786580D01*
X181097819Y-108791333D02*
X181812104Y-108791333D01*
X181812104Y-108791333D02*
X181954961Y-108838952D01*
X181954961Y-108838952D02*
X182050200Y-108934190D01*
X182050200Y-108934190D02*
X182097819Y-109077047D01*
X182097819Y-109077047D02*
X182097819Y-109172285D01*
X181097819Y-107886571D02*
X181097819Y-108077047D01*
X181097819Y-108077047D02*
X181145438Y-108172285D01*
X181145438Y-108172285D02*
X181193057Y-108219904D01*
X181193057Y-108219904D02*
X181335914Y-108315142D01*
X181335914Y-108315142D02*
X181526390Y-108362761D01*
X181526390Y-108362761D02*
X181907342Y-108362761D01*
X181907342Y-108362761D02*
X182002580Y-108315142D01*
X182002580Y-108315142D02*
X182050200Y-108267523D01*
X182050200Y-108267523D02*
X182097819Y-108172285D01*
X182097819Y-108172285D02*
X182097819Y-107981809D01*
X182097819Y-107981809D02*
X182050200Y-107886571D01*
X182050200Y-107886571D02*
X182002580Y-107838952D01*
X182002580Y-107838952D02*
X181907342Y-107791333D01*
X181907342Y-107791333D02*
X181669247Y-107791333D01*
X181669247Y-107791333D02*
X181574009Y-107838952D01*
X181574009Y-107838952D02*
X181526390Y-107886571D01*
X181526390Y-107886571D02*
X181478771Y-107981809D01*
X181478771Y-107981809D02*
X181478771Y-108172285D01*
X181478771Y-108172285D02*
X181526390Y-108267523D01*
X181526390Y-108267523D02*
X181574009Y-108315142D01*
X181574009Y-108315142D02*
X181669247Y-108362761D01*
X189049819Y-58586666D02*
X188573628Y-58919999D01*
X189049819Y-59158094D02*
X188049819Y-59158094D01*
X188049819Y-59158094D02*
X188049819Y-58777142D01*
X188049819Y-58777142D02*
X188097438Y-58681904D01*
X188097438Y-58681904D02*
X188145057Y-58634285D01*
X188145057Y-58634285D02*
X188240295Y-58586666D01*
X188240295Y-58586666D02*
X188383152Y-58586666D01*
X188383152Y-58586666D02*
X188478390Y-58634285D01*
X188478390Y-58634285D02*
X188526009Y-58681904D01*
X188526009Y-58681904D02*
X188573628Y-58777142D01*
X188573628Y-58777142D02*
X188573628Y-59158094D01*
X188383152Y-57729523D02*
X189049819Y-57729523D01*
X188002200Y-57967618D02*
X188716485Y-58205713D01*
X188716485Y-58205713D02*
X188716485Y-57586666D01*
X107930095Y-122420439D02*
X107930095Y-123095355D01*
X107930095Y-123095355D02*
X107885100Y-123230338D01*
X107885100Y-123230338D02*
X107795112Y-123320327D01*
X107795112Y-123320327D02*
X107660128Y-123365321D01*
X107660128Y-123365321D02*
X107570140Y-123365321D01*
X108874977Y-123365321D02*
X108335044Y-123365321D01*
X108605010Y-123365321D02*
X108605010Y-122420439D01*
X108605010Y-122420439D02*
X108515022Y-122555422D01*
X108515022Y-122555422D02*
X108425033Y-122645411D01*
X108425033Y-122645411D02*
X108335044Y-122690405D01*
X109774865Y-123365321D02*
X109234932Y-123365321D01*
X109504898Y-123365321D02*
X109504898Y-122420439D01*
X109504898Y-122420439D02*
X109414910Y-122555422D01*
X109414910Y-122555422D02*
X109324921Y-122645411D01*
X109324921Y-122645411D02*
X109234932Y-122690405D01*
D11*
X106477054Y-108277600D02*
X106619911Y-108325219D01*
X106619911Y-108325219D02*
X106858006Y-108325219D01*
X106858006Y-108325219D02*
X106953244Y-108277600D01*
X106953244Y-108277600D02*
X107000863Y-108229980D01*
X107000863Y-108229980D02*
X107048482Y-108134742D01*
X107048482Y-108134742D02*
X107048482Y-108039504D01*
X107048482Y-108039504D02*
X107000863Y-107944266D01*
X107000863Y-107944266D02*
X106953244Y-107896647D01*
X106953244Y-107896647D02*
X106858006Y-107849028D01*
X106858006Y-107849028D02*
X106667530Y-107801409D01*
X106667530Y-107801409D02*
X106572292Y-107753790D01*
X106572292Y-107753790D02*
X106524673Y-107706171D01*
X106524673Y-107706171D02*
X106477054Y-107610933D01*
X106477054Y-107610933D02*
X106477054Y-107515695D01*
X106477054Y-107515695D02*
X106524673Y-107420457D01*
X106524673Y-107420457D02*
X106572292Y-107372838D01*
X106572292Y-107372838D02*
X106667530Y-107325219D01*
X106667530Y-107325219D02*
X106905625Y-107325219D01*
X106905625Y-107325219D02*
X107048482Y-107372838D01*
X107334197Y-107325219D02*
X107905625Y-107325219D01*
X107619911Y-108325219D02*
X107619911Y-107325219D01*
X108238959Y-107801409D02*
X108572292Y-107801409D01*
X108715149Y-108325219D02*
X108238959Y-108325219D01*
X108238959Y-108325219D02*
X108238959Y-107325219D01*
X108238959Y-107325219D02*
X108715149Y-107325219D01*
X109143721Y-108325219D02*
X109143721Y-107325219D01*
X109143721Y-107325219D02*
X109524673Y-107325219D01*
X109524673Y-107325219D02*
X109619911Y-107372838D01*
X109619911Y-107372838D02*
X109667530Y-107420457D01*
X109667530Y-107420457D02*
X109715149Y-107515695D01*
X109715149Y-107515695D02*
X109715149Y-107658552D01*
X109715149Y-107658552D02*
X109667530Y-107753790D01*
X109667530Y-107753790D02*
X109619911Y-107801409D01*
X109619911Y-107801409D02*
X109524673Y-107849028D01*
X109524673Y-107849028D02*
X109143721Y-107849028D01*
X111429435Y-108325219D02*
X110858007Y-108325219D01*
X111143721Y-108325219D02*
X111143721Y-107325219D01*
X111143721Y-107325219D02*
X111048483Y-107468076D01*
X111048483Y-107468076D02*
X110953245Y-107563314D01*
X110953245Y-107563314D02*
X110858007Y-107610933D01*
X113128673Y-120009219D02*
X113128673Y-119009219D01*
X113128673Y-119009219D02*
X113462006Y-119723504D01*
X113462006Y-119723504D02*
X113795339Y-119009219D01*
X113795339Y-119009219D02*
X113795339Y-120009219D01*
X114223911Y-119104457D02*
X114271530Y-119056838D01*
X114271530Y-119056838D02*
X114366768Y-119009219D01*
X114366768Y-119009219D02*
X114604863Y-119009219D01*
X114604863Y-119009219D02*
X114700101Y-119056838D01*
X114700101Y-119056838D02*
X114747720Y-119104457D01*
X114747720Y-119104457D02*
X114795339Y-119199695D01*
X114795339Y-119199695D02*
X114795339Y-119294933D01*
X114795339Y-119294933D02*
X114747720Y-119437790D01*
X114747720Y-119437790D02*
X114176292Y-120009219D01*
X114176292Y-120009219D02*
X114795339Y-120009219D01*
X115557244Y-119485409D02*
X115700101Y-119533028D01*
X115700101Y-119533028D02*
X115747720Y-119580647D01*
X115747720Y-119580647D02*
X115795339Y-119675885D01*
X115795339Y-119675885D02*
X115795339Y-119818742D01*
X115795339Y-119818742D02*
X115747720Y-119913980D01*
X115747720Y-119913980D02*
X115700101Y-119961600D01*
X115700101Y-119961600D02*
X115604863Y-120009219D01*
X115604863Y-120009219D02*
X115223911Y-120009219D01*
X115223911Y-120009219D02*
X115223911Y-119009219D01*
X115223911Y-119009219D02*
X115557244Y-119009219D01*
X115557244Y-119009219D02*
X115652482Y-119056838D01*
X115652482Y-119056838D02*
X115700101Y-119104457D01*
X115700101Y-119104457D02*
X115747720Y-119199695D01*
X115747720Y-119199695D02*
X115747720Y-119294933D01*
X115747720Y-119294933D02*
X115700101Y-119390171D01*
X115700101Y-119390171D02*
X115652482Y-119437790D01*
X115652482Y-119437790D02*
X115557244Y-119485409D01*
X115557244Y-119485409D02*
X115223911Y-119485409D01*
D14*
X140046419Y-136223333D02*
X140760704Y-136223333D01*
X140760704Y-136223333D02*
X140903561Y-136270952D01*
X140903561Y-136270952D02*
X140998800Y-136366190D01*
X140998800Y-136366190D02*
X141046419Y-136509047D01*
X141046419Y-136509047D02*
X141046419Y-136604285D01*
X141046419Y-135699523D02*
X141046419Y-135509047D01*
X141046419Y-135509047D02*
X140998800Y-135413809D01*
X140998800Y-135413809D02*
X140951180Y-135366190D01*
X140951180Y-135366190D02*
X140808323Y-135270952D01*
X140808323Y-135270952D02*
X140617847Y-135223333D01*
X140617847Y-135223333D02*
X140236895Y-135223333D01*
X140236895Y-135223333D02*
X140141657Y-135270952D01*
X140141657Y-135270952D02*
X140094038Y-135318571D01*
X140094038Y-135318571D02*
X140046419Y-135413809D01*
X140046419Y-135413809D02*
X140046419Y-135604285D01*
X140046419Y-135604285D02*
X140094038Y-135699523D01*
X140094038Y-135699523D02*
X140141657Y-135747142D01*
X140141657Y-135747142D02*
X140236895Y-135794761D01*
X140236895Y-135794761D02*
X140474990Y-135794761D01*
X140474990Y-135794761D02*
X140570228Y-135747142D01*
X140570228Y-135747142D02*
X140617847Y-135699523D01*
X140617847Y-135699523D02*
X140665466Y-135604285D01*
X140665466Y-135604285D02*
X140665466Y-135413809D01*
X140665466Y-135413809D02*
X140617847Y-135318571D01*
X140617847Y-135318571D02*
X140570228Y-135270952D01*
X140570228Y-135270952D02*
X140474990Y-135223333D01*
D11*
X153235600Y-139123945D02*
X153283219Y-138981088D01*
X153283219Y-138981088D02*
X153283219Y-138742993D01*
X153283219Y-138742993D02*
X153235600Y-138647755D01*
X153235600Y-138647755D02*
X153187980Y-138600136D01*
X153187980Y-138600136D02*
X153092742Y-138552517D01*
X153092742Y-138552517D02*
X152997504Y-138552517D01*
X152997504Y-138552517D02*
X152902266Y-138600136D01*
X152902266Y-138600136D02*
X152854647Y-138647755D01*
X152854647Y-138647755D02*
X152807028Y-138742993D01*
X152807028Y-138742993D02*
X152759409Y-138933469D01*
X152759409Y-138933469D02*
X152711790Y-139028707D01*
X152711790Y-139028707D02*
X152664171Y-139076326D01*
X152664171Y-139076326D02*
X152568933Y-139123945D01*
X152568933Y-139123945D02*
X152473695Y-139123945D01*
X152473695Y-139123945D02*
X152378457Y-139076326D01*
X152378457Y-139076326D02*
X152330838Y-139028707D01*
X152330838Y-139028707D02*
X152283219Y-138933469D01*
X152283219Y-138933469D02*
X152283219Y-138695374D01*
X152283219Y-138695374D02*
X152330838Y-138552517D01*
X152759409Y-138123945D02*
X152759409Y-137790612D01*
X153283219Y-137647755D02*
X153283219Y-138123945D01*
X153283219Y-138123945D02*
X152283219Y-138123945D01*
X152283219Y-138123945D02*
X152283219Y-137647755D01*
X153283219Y-136647755D02*
X152807028Y-136981088D01*
X153283219Y-137219183D02*
X152283219Y-137219183D01*
X152283219Y-137219183D02*
X152283219Y-136838231D01*
X152283219Y-136838231D02*
X152330838Y-136742993D01*
X152330838Y-136742993D02*
X152378457Y-136695374D01*
X152378457Y-136695374D02*
X152473695Y-136647755D01*
X152473695Y-136647755D02*
X152616552Y-136647755D01*
X152616552Y-136647755D02*
X152711790Y-136695374D01*
X152711790Y-136695374D02*
X152759409Y-136742993D01*
X152759409Y-136742993D02*
X152807028Y-136838231D01*
X152807028Y-136838231D02*
X152807028Y-137219183D01*
X152283219Y-136362040D02*
X153283219Y-136028707D01*
X153283219Y-136028707D02*
X152283219Y-135695374D01*
X152283219Y-135171564D02*
X152283219Y-134981088D01*
X152283219Y-134981088D02*
X152330838Y-134885850D01*
X152330838Y-134885850D02*
X152426076Y-134790612D01*
X152426076Y-134790612D02*
X152616552Y-134742993D01*
X152616552Y-134742993D02*
X152949885Y-134742993D01*
X152949885Y-134742993D02*
X153140361Y-134790612D01*
X153140361Y-134790612D02*
X153235600Y-134885850D01*
X153235600Y-134885850D02*
X153283219Y-134981088D01*
X153283219Y-134981088D02*
X153283219Y-135171564D01*
X153283219Y-135171564D02*
X153235600Y-135266802D01*
X153235600Y-135266802D02*
X153140361Y-135362040D01*
X153140361Y-135362040D02*
X152949885Y-135409659D01*
X152949885Y-135409659D02*
X152616552Y-135409659D01*
X152616552Y-135409659D02*
X152426076Y-135362040D01*
X152426076Y-135362040D02*
X152330838Y-135266802D01*
X152330838Y-135266802D02*
X152283219Y-135171564D01*
X152378457Y-133600135D02*
X152330838Y-133552516D01*
X152330838Y-133552516D02*
X152283219Y-133457278D01*
X152283219Y-133457278D02*
X152283219Y-133219183D01*
X152283219Y-133219183D02*
X152330838Y-133123945D01*
X152330838Y-133123945D02*
X152378457Y-133076326D01*
X152378457Y-133076326D02*
X152473695Y-133028707D01*
X152473695Y-133028707D02*
X152568933Y-133028707D01*
X152568933Y-133028707D02*
X152711790Y-133076326D01*
X152711790Y-133076326D02*
X153283219Y-133647754D01*
X153283219Y-133647754D02*
X153283219Y-133028707D01*
X143631266Y-132726326D02*
X143631266Y-131964422D01*
X146631600Y-132773945D02*
X146679219Y-132631088D01*
X146679219Y-132631088D02*
X146679219Y-132392993D01*
X146679219Y-132392993D02*
X146631600Y-132297755D01*
X146631600Y-132297755D02*
X146583980Y-132250136D01*
X146583980Y-132250136D02*
X146488742Y-132202517D01*
X146488742Y-132202517D02*
X146393504Y-132202517D01*
X146393504Y-132202517D02*
X146298266Y-132250136D01*
X146298266Y-132250136D02*
X146250647Y-132297755D01*
X146250647Y-132297755D02*
X146203028Y-132392993D01*
X146203028Y-132392993D02*
X146155409Y-132583469D01*
X146155409Y-132583469D02*
X146107790Y-132678707D01*
X146107790Y-132678707D02*
X146060171Y-132726326D01*
X146060171Y-132726326D02*
X145964933Y-132773945D01*
X145964933Y-132773945D02*
X145869695Y-132773945D01*
X145869695Y-132773945D02*
X145774457Y-132726326D01*
X145774457Y-132726326D02*
X145726838Y-132678707D01*
X145726838Y-132678707D02*
X145679219Y-132583469D01*
X145679219Y-132583469D02*
X145679219Y-132345374D01*
X145679219Y-132345374D02*
X145726838Y-132202517D01*
X148965266Y-132853326D02*
X148965266Y-132091422D01*
X149346219Y-132472374D02*
X148584314Y-132472374D01*
D12*
X122780595Y-101358152D02*
X122780595Y-102167675D01*
X122780595Y-102167675D02*
X122828214Y-102262913D01*
X122828214Y-102262913D02*
X122875833Y-102310533D01*
X122875833Y-102310533D02*
X122971071Y-102358152D01*
X122971071Y-102358152D02*
X123161547Y-102358152D01*
X123161547Y-102358152D02*
X123256785Y-102310533D01*
X123256785Y-102310533D02*
X123304404Y-102262913D01*
X123304404Y-102262913D02*
X123352023Y-102167675D01*
X123352023Y-102167675D02*
X123352023Y-101358152D01*
X123732976Y-101358152D02*
X124399642Y-101358152D01*
X124399642Y-101358152D02*
X123971071Y-102358152D01*
D11*
X129862054Y-102054600D02*
X130004911Y-102102219D01*
X130004911Y-102102219D02*
X130243006Y-102102219D01*
X130243006Y-102102219D02*
X130338244Y-102054600D01*
X130338244Y-102054600D02*
X130385863Y-102006980D01*
X130385863Y-102006980D02*
X130433482Y-101911742D01*
X130433482Y-101911742D02*
X130433482Y-101816504D01*
X130433482Y-101816504D02*
X130385863Y-101721266D01*
X130385863Y-101721266D02*
X130338244Y-101673647D01*
X130338244Y-101673647D02*
X130243006Y-101626028D01*
X130243006Y-101626028D02*
X130052530Y-101578409D01*
X130052530Y-101578409D02*
X129957292Y-101530790D01*
X129957292Y-101530790D02*
X129909673Y-101483171D01*
X129909673Y-101483171D02*
X129862054Y-101387933D01*
X129862054Y-101387933D02*
X129862054Y-101292695D01*
X129862054Y-101292695D02*
X129909673Y-101197457D01*
X129909673Y-101197457D02*
X129957292Y-101149838D01*
X129957292Y-101149838D02*
X130052530Y-101102219D01*
X130052530Y-101102219D02*
X130290625Y-101102219D01*
X130290625Y-101102219D02*
X130433482Y-101149838D01*
X130719197Y-101102219D02*
X131290625Y-101102219D01*
X131004911Y-102102219D02*
X131004911Y-101102219D01*
X131623959Y-101578409D02*
X131957292Y-101578409D01*
X132100149Y-102102219D02*
X131623959Y-102102219D01*
X131623959Y-102102219D02*
X131623959Y-101102219D01*
X131623959Y-101102219D02*
X132100149Y-101102219D01*
X132528721Y-102102219D02*
X132528721Y-101102219D01*
X132528721Y-101102219D02*
X132909673Y-101102219D01*
X132909673Y-101102219D02*
X133004911Y-101149838D01*
X133004911Y-101149838D02*
X133052530Y-101197457D01*
X133052530Y-101197457D02*
X133100149Y-101292695D01*
X133100149Y-101292695D02*
X133100149Y-101435552D01*
X133100149Y-101435552D02*
X133052530Y-101530790D01*
X133052530Y-101530790D02*
X133004911Y-101578409D01*
X133004911Y-101578409D02*
X132909673Y-101626028D01*
X132909673Y-101626028D02*
X132528721Y-101626028D01*
X134814435Y-102102219D02*
X134243007Y-102102219D01*
X134528721Y-102102219D02*
X134528721Y-101102219D01*
X134528721Y-101102219D02*
X134433483Y-101245076D01*
X134433483Y-101245076D02*
X134338245Y-101340314D01*
X134338245Y-101340314D02*
X134243007Y-101387933D01*
D12*
X108380039Y-139565439D02*
X108380039Y-140240355D01*
X108380039Y-140240355D02*
X108335044Y-140375338D01*
X108335044Y-140375338D02*
X108245056Y-140465327D01*
X108245056Y-140465327D02*
X108110072Y-140510321D01*
X108110072Y-140510321D02*
X108020084Y-140510321D01*
X108739994Y-139565439D02*
X109324921Y-139565439D01*
X109324921Y-139565439D02*
X109009960Y-139925394D01*
X109009960Y-139925394D02*
X109144943Y-139925394D01*
X109144943Y-139925394D02*
X109234932Y-139970388D01*
X109234932Y-139970388D02*
X109279926Y-140015383D01*
X109279926Y-140015383D02*
X109324921Y-140105371D01*
X109324921Y-140105371D02*
X109324921Y-140330343D01*
X109324921Y-140330343D02*
X109279926Y-140420332D01*
X109279926Y-140420332D02*
X109234932Y-140465327D01*
X109234932Y-140465327D02*
X109144943Y-140510321D01*
X109144943Y-140510321D02*
X108874977Y-140510321D01*
X108874977Y-140510321D02*
X108784988Y-140465327D01*
X108784988Y-140465327D02*
X108739994Y-140420332D01*
D11*
X106477054Y-125422600D02*
X106619911Y-125470219D01*
X106619911Y-125470219D02*
X106858006Y-125470219D01*
X106858006Y-125470219D02*
X106953244Y-125422600D01*
X106953244Y-125422600D02*
X107000863Y-125374980D01*
X107000863Y-125374980D02*
X107048482Y-125279742D01*
X107048482Y-125279742D02*
X107048482Y-125184504D01*
X107048482Y-125184504D02*
X107000863Y-125089266D01*
X107000863Y-125089266D02*
X106953244Y-125041647D01*
X106953244Y-125041647D02*
X106858006Y-124994028D01*
X106858006Y-124994028D02*
X106667530Y-124946409D01*
X106667530Y-124946409D02*
X106572292Y-124898790D01*
X106572292Y-124898790D02*
X106524673Y-124851171D01*
X106524673Y-124851171D02*
X106477054Y-124755933D01*
X106477054Y-124755933D02*
X106477054Y-124660695D01*
X106477054Y-124660695D02*
X106524673Y-124565457D01*
X106524673Y-124565457D02*
X106572292Y-124517838D01*
X106572292Y-124517838D02*
X106667530Y-124470219D01*
X106667530Y-124470219D02*
X106905625Y-124470219D01*
X106905625Y-124470219D02*
X107048482Y-124517838D01*
X107334197Y-124470219D02*
X107905625Y-124470219D01*
X107619911Y-125470219D02*
X107619911Y-124470219D01*
X108238959Y-124946409D02*
X108572292Y-124946409D01*
X108715149Y-125470219D02*
X108238959Y-125470219D01*
X108238959Y-125470219D02*
X108238959Y-124470219D01*
X108238959Y-124470219D02*
X108715149Y-124470219D01*
X109143721Y-125470219D02*
X109143721Y-124470219D01*
X109143721Y-124470219D02*
X109524673Y-124470219D01*
X109524673Y-124470219D02*
X109619911Y-124517838D01*
X109619911Y-124517838D02*
X109667530Y-124565457D01*
X109667530Y-124565457D02*
X109715149Y-124660695D01*
X109715149Y-124660695D02*
X109715149Y-124803552D01*
X109715149Y-124803552D02*
X109667530Y-124898790D01*
X109667530Y-124898790D02*
X109619911Y-124946409D01*
X109619911Y-124946409D02*
X109524673Y-124994028D01*
X109524673Y-124994028D02*
X109143721Y-124994028D01*
X110858007Y-124565457D02*
X110905626Y-124517838D01*
X110905626Y-124517838D02*
X111000864Y-124470219D01*
X111000864Y-124470219D02*
X111238959Y-124470219D01*
X111238959Y-124470219D02*
X111334197Y-124517838D01*
X111334197Y-124517838D02*
X111381816Y-124565457D01*
X111381816Y-124565457D02*
X111429435Y-124660695D01*
X111429435Y-124660695D02*
X111429435Y-124755933D01*
X111429435Y-124755933D02*
X111381816Y-124898790D01*
X111381816Y-124898790D02*
X110810388Y-125470219D01*
X110810388Y-125470219D02*
X111429435Y-125470219D01*
X190684838Y-115963517D02*
X190637219Y-116058755D01*
X190637219Y-116058755D02*
X190637219Y-116201612D01*
X190637219Y-116201612D02*
X190684838Y-116344469D01*
X190684838Y-116344469D02*
X190780076Y-116439707D01*
X190780076Y-116439707D02*
X190875314Y-116487326D01*
X190875314Y-116487326D02*
X191065790Y-116534945D01*
X191065790Y-116534945D02*
X191208647Y-116534945D01*
X191208647Y-116534945D02*
X191399123Y-116487326D01*
X191399123Y-116487326D02*
X191494361Y-116439707D01*
X191494361Y-116439707D02*
X191589600Y-116344469D01*
X191589600Y-116344469D02*
X191637219Y-116201612D01*
X191637219Y-116201612D02*
X191637219Y-116106374D01*
X191637219Y-116106374D02*
X191589600Y-115963517D01*
X191589600Y-115963517D02*
X191541980Y-115915898D01*
X191541980Y-115915898D02*
X191208647Y-115915898D01*
X191208647Y-115915898D02*
X191208647Y-116106374D01*
X191637219Y-115487326D02*
X190637219Y-115487326D01*
X190637219Y-115487326D02*
X191637219Y-114915898D01*
X191637219Y-114915898D02*
X190637219Y-114915898D01*
X191637219Y-114439707D02*
X190637219Y-114439707D01*
X190637219Y-114439707D02*
X190637219Y-114201612D01*
X190637219Y-114201612D02*
X190684838Y-114058755D01*
X190684838Y-114058755D02*
X190780076Y-113963517D01*
X190780076Y-113963517D02*
X190875314Y-113915898D01*
X190875314Y-113915898D02*
X191065790Y-113868279D01*
X191065790Y-113868279D02*
X191208647Y-113868279D01*
X191208647Y-113868279D02*
X191399123Y-113915898D01*
X191399123Y-113915898D02*
X191494361Y-113963517D01*
X191494361Y-113963517D02*
X191589600Y-114058755D01*
X191589600Y-114058755D02*
X191637219Y-114201612D01*
X191637219Y-114201612D02*
X191637219Y-114439707D01*
X187927886Y-116582564D02*
X187927886Y-115963517D01*
X187927886Y-115963517D02*
X188308838Y-116296850D01*
X188308838Y-116296850D02*
X188308838Y-116153993D01*
X188308838Y-116153993D02*
X188356457Y-116058755D01*
X188356457Y-116058755D02*
X188404076Y-116011136D01*
X188404076Y-116011136D02*
X188499314Y-115963517D01*
X188499314Y-115963517D02*
X188737409Y-115963517D01*
X188737409Y-115963517D02*
X188832647Y-116011136D01*
X188832647Y-116011136D02*
X188880267Y-116058755D01*
X188880267Y-116058755D02*
X188927886Y-116153993D01*
X188927886Y-116153993D02*
X188927886Y-116439707D01*
X188927886Y-116439707D02*
X188880267Y-116534945D01*
X188880267Y-116534945D02*
X188832647Y-116582564D01*
X187927886Y-115677802D02*
X188927886Y-115344469D01*
X188927886Y-115344469D02*
X187927886Y-115011136D01*
X187927886Y-114773040D02*
X187927886Y-114153993D01*
X187927886Y-114153993D02*
X188308838Y-114487326D01*
X188308838Y-114487326D02*
X188308838Y-114344469D01*
X188308838Y-114344469D02*
X188356457Y-114249231D01*
X188356457Y-114249231D02*
X188404076Y-114201612D01*
X188404076Y-114201612D02*
X188499314Y-114153993D01*
X188499314Y-114153993D02*
X188737409Y-114153993D01*
X188737409Y-114153993D02*
X188832647Y-114201612D01*
X188832647Y-114201612D02*
X188880267Y-114249231D01*
X188880267Y-114249231D02*
X188927886Y-114344469D01*
X188927886Y-114344469D02*
X188927886Y-114630183D01*
X188927886Y-114630183D02*
X188880267Y-114725421D01*
X188880267Y-114725421D02*
X188832647Y-114773040D01*
X179953219Y-123091326D02*
X178953219Y-123091326D01*
X178953219Y-123091326D02*
X178953219Y-122853231D01*
X178953219Y-122853231D02*
X179000838Y-122710374D01*
X179000838Y-122710374D02*
X179096076Y-122615136D01*
X179096076Y-122615136D02*
X179191314Y-122567517D01*
X179191314Y-122567517D02*
X179381790Y-122519898D01*
X179381790Y-122519898D02*
X179524647Y-122519898D01*
X179524647Y-122519898D02*
X179715123Y-122567517D01*
X179715123Y-122567517D02*
X179810361Y-122615136D01*
X179810361Y-122615136D02*
X179905600Y-122710374D01*
X179905600Y-122710374D02*
X179953219Y-122853231D01*
X179953219Y-122853231D02*
X179953219Y-123091326D01*
X179953219Y-122091326D02*
X178953219Y-122091326D01*
X179905600Y-121662755D02*
X179953219Y-121519898D01*
X179953219Y-121519898D02*
X179953219Y-121281803D01*
X179953219Y-121281803D02*
X179905600Y-121186565D01*
X179905600Y-121186565D02*
X179857980Y-121138946D01*
X179857980Y-121138946D02*
X179762742Y-121091327D01*
X179762742Y-121091327D02*
X179667504Y-121091327D01*
X179667504Y-121091327D02*
X179572266Y-121138946D01*
X179572266Y-121138946D02*
X179524647Y-121186565D01*
X179524647Y-121186565D02*
X179477028Y-121281803D01*
X179477028Y-121281803D02*
X179429409Y-121472279D01*
X179429409Y-121472279D02*
X179381790Y-121567517D01*
X179381790Y-121567517D02*
X179334171Y-121615136D01*
X179334171Y-121615136D02*
X179238933Y-121662755D01*
X179238933Y-121662755D02*
X179143695Y-121662755D01*
X179143695Y-121662755D02*
X179048457Y-121615136D01*
X179048457Y-121615136D02*
X179000838Y-121567517D01*
X179000838Y-121567517D02*
X178953219Y-121472279D01*
X178953219Y-121472279D02*
X178953219Y-121234184D01*
X178953219Y-121234184D02*
X179000838Y-121091327D01*
X179953219Y-120662755D02*
X178953219Y-120662755D01*
X178953219Y-120662755D02*
X178953219Y-120281803D01*
X178953219Y-120281803D02*
X179000838Y-120186565D01*
X179000838Y-120186565D02*
X179048457Y-120138946D01*
X179048457Y-120138946D02*
X179143695Y-120091327D01*
X179143695Y-120091327D02*
X179286552Y-120091327D01*
X179286552Y-120091327D02*
X179381790Y-120138946D01*
X179381790Y-120138946D02*
X179429409Y-120186565D01*
X179429409Y-120186565D02*
X179477028Y-120281803D01*
X179477028Y-120281803D02*
X179477028Y-120662755D01*
X179953219Y-119186565D02*
X179953219Y-119662755D01*
X179953219Y-119662755D02*
X178953219Y-119662755D01*
X179667504Y-118900850D02*
X179667504Y-118424660D01*
X179953219Y-118996088D02*
X178953219Y-118662755D01*
X178953219Y-118662755D02*
X179953219Y-118329422D01*
X179477028Y-117805612D02*
X179953219Y-117805612D01*
X178953219Y-118138945D02*
X179477028Y-117805612D01*
X179477028Y-117805612D02*
X178953219Y-117472279D01*
X186170933Y-116534945D02*
X186218552Y-116392088D01*
X186218552Y-116392088D02*
X186218552Y-116153993D01*
X186218552Y-116153993D02*
X186170933Y-116058755D01*
X186170933Y-116058755D02*
X186123313Y-116011136D01*
X186123313Y-116011136D02*
X186028075Y-115963517D01*
X186028075Y-115963517D02*
X185932837Y-115963517D01*
X185932837Y-115963517D02*
X185837599Y-116011136D01*
X185837599Y-116011136D02*
X185789980Y-116058755D01*
X185789980Y-116058755D02*
X185742361Y-116153993D01*
X185742361Y-116153993D02*
X185694742Y-116344469D01*
X185694742Y-116344469D02*
X185647123Y-116439707D01*
X185647123Y-116439707D02*
X185599504Y-116487326D01*
X185599504Y-116487326D02*
X185504266Y-116534945D01*
X185504266Y-116534945D02*
X185409028Y-116534945D01*
X185409028Y-116534945D02*
X185313790Y-116487326D01*
X185313790Y-116487326D02*
X185266171Y-116439707D01*
X185266171Y-116439707D02*
X185218552Y-116344469D01*
X185218552Y-116344469D02*
X185218552Y-116106374D01*
X185218552Y-116106374D02*
X185266171Y-115963517D01*
X186123313Y-114963517D02*
X186170933Y-115011136D01*
X186170933Y-115011136D02*
X186218552Y-115153993D01*
X186218552Y-115153993D02*
X186218552Y-115249231D01*
X186218552Y-115249231D02*
X186170933Y-115392088D01*
X186170933Y-115392088D02*
X186075694Y-115487326D01*
X186075694Y-115487326D02*
X185980456Y-115534945D01*
X185980456Y-115534945D02*
X185789980Y-115582564D01*
X185789980Y-115582564D02*
X185647123Y-115582564D01*
X185647123Y-115582564D02*
X185456647Y-115534945D01*
X185456647Y-115534945D02*
X185361409Y-115487326D01*
X185361409Y-115487326D02*
X185266171Y-115392088D01*
X185266171Y-115392088D02*
X185218552Y-115249231D01*
X185218552Y-115249231D02*
X185218552Y-115153993D01*
X185218552Y-115153993D02*
X185266171Y-115011136D01*
X185266171Y-115011136D02*
X185313790Y-114963517D01*
X186218552Y-114058755D02*
X186218552Y-114534945D01*
X186218552Y-114534945D02*
X185218552Y-114534945D01*
D12*
X188961819Y-56046666D02*
X188485628Y-56379999D01*
X188961819Y-56618094D02*
X187961819Y-56618094D01*
X187961819Y-56618094D02*
X187961819Y-56237142D01*
X187961819Y-56237142D02*
X188009438Y-56141904D01*
X188009438Y-56141904D02*
X188057057Y-56094285D01*
X188057057Y-56094285D02*
X188152295Y-56046666D01*
X188152295Y-56046666D02*
X188295152Y-56046666D01*
X188295152Y-56046666D02*
X188390390Y-56094285D01*
X188390390Y-56094285D02*
X188438009Y-56141904D01*
X188438009Y-56141904D02*
X188485628Y-56237142D01*
X188485628Y-56237142D02*
X188485628Y-56618094D01*
X187961819Y-55141904D02*
X187961819Y-55618094D01*
X187961819Y-55618094D02*
X188438009Y-55665713D01*
X188438009Y-55665713D02*
X188390390Y-55618094D01*
X188390390Y-55618094D02*
X188342771Y-55522856D01*
X188342771Y-55522856D02*
X188342771Y-55284761D01*
X188342771Y-55284761D02*
X188390390Y-55189523D01*
X188390390Y-55189523D02*
X188438009Y-55141904D01*
X188438009Y-55141904D02*
X188533247Y-55094285D01*
X188533247Y-55094285D02*
X188771342Y-55094285D01*
X188771342Y-55094285D02*
X188866580Y-55141904D01*
X188866580Y-55141904D02*
X188914200Y-55189523D01*
X188914200Y-55189523D02*
X188961819Y-55284761D01*
X188961819Y-55284761D02*
X188961819Y-55522856D01*
X188961819Y-55522856D02*
X188914200Y-55618094D01*
X188914200Y-55618094D02*
X188866580Y-55665713D01*
D14*
X120871904Y-102424247D02*
X120871904Y-101614724D01*
X120871904Y-101614724D02*
X120824285Y-101519486D01*
X120824285Y-101519486D02*
X120776666Y-101471867D01*
X120776666Y-101471867D02*
X120681428Y-101424247D01*
X120681428Y-101424247D02*
X120490952Y-101424247D01*
X120490952Y-101424247D02*
X120395714Y-101471867D01*
X120395714Y-101471867D02*
X120348095Y-101519486D01*
X120348095Y-101519486D02*
X120300476Y-101614724D01*
X120300476Y-101614724D02*
X120300476Y-102424247D01*
X119776666Y-101424247D02*
X119586190Y-101424247D01*
X119586190Y-101424247D02*
X119490952Y-101471867D01*
X119490952Y-101471867D02*
X119443333Y-101519486D01*
X119443333Y-101519486D02*
X119348095Y-101662343D01*
X119348095Y-101662343D02*
X119300476Y-101852819D01*
X119300476Y-101852819D02*
X119300476Y-102233771D01*
X119300476Y-102233771D02*
X119348095Y-102329009D01*
X119348095Y-102329009D02*
X119395714Y-102376628D01*
X119395714Y-102376628D02*
X119490952Y-102424247D01*
X119490952Y-102424247D02*
X119681428Y-102424247D01*
X119681428Y-102424247D02*
X119776666Y-102376628D01*
X119776666Y-102376628D02*
X119824285Y-102329009D01*
X119824285Y-102329009D02*
X119871904Y-102233771D01*
X119871904Y-102233771D02*
X119871904Y-101995676D01*
X119871904Y-101995676D02*
X119824285Y-101900438D01*
X119824285Y-101900438D02*
X119776666Y-101852819D01*
X119776666Y-101852819D02*
X119681428Y-101805200D01*
X119681428Y-101805200D02*
X119490952Y-101805200D01*
X119490952Y-101805200D02*
X119395714Y-101852819D01*
X119395714Y-101852819D02*
X119348095Y-101900438D01*
X119348095Y-101900438D02*
X119300476Y-101995676D01*
D12*
X186906819Y-72516904D02*
X187716342Y-72516904D01*
X187716342Y-72516904D02*
X187811580Y-72469285D01*
X187811580Y-72469285D02*
X187859200Y-72421666D01*
X187859200Y-72421666D02*
X187906819Y-72326428D01*
X187906819Y-72326428D02*
X187906819Y-72135952D01*
X187906819Y-72135952D02*
X187859200Y-72040714D01*
X187859200Y-72040714D02*
X187811580Y-71993095D01*
X187811580Y-71993095D02*
X187716342Y-71945476D01*
X187716342Y-71945476D02*
X186906819Y-71945476D01*
X187906819Y-70945476D02*
X187906819Y-71516904D01*
X187906819Y-71231190D02*
X186906819Y-71231190D01*
X186906819Y-71231190D02*
X187049676Y-71326428D01*
X187049676Y-71326428D02*
X187144914Y-71421666D01*
X187144914Y-71421666D02*
X187192533Y-71516904D01*
X179661905Y-54354819D02*
X179661905Y-53354819D01*
X179661905Y-53354819D02*
X179900000Y-53354819D01*
X179900000Y-53354819D02*
X180042857Y-53402438D01*
X180042857Y-53402438D02*
X180138095Y-53497676D01*
X180138095Y-53497676D02*
X180185714Y-53592914D01*
X180185714Y-53592914D02*
X180233333Y-53783390D01*
X180233333Y-53783390D02*
X180233333Y-53926247D01*
X180233333Y-53926247D02*
X180185714Y-54116723D01*
X180185714Y-54116723D02*
X180138095Y-54211961D01*
X180138095Y-54211961D02*
X180042857Y-54307200D01*
X180042857Y-54307200D02*
X179900000Y-54354819D01*
X179900000Y-54354819D02*
X179661905Y-54354819D01*
X180614286Y-53450057D02*
X180661905Y-53402438D01*
X180661905Y-53402438D02*
X180757143Y-53354819D01*
X180757143Y-53354819D02*
X180995238Y-53354819D01*
X180995238Y-53354819D02*
X181090476Y-53402438D01*
X181090476Y-53402438D02*
X181138095Y-53450057D01*
X181138095Y-53450057D02*
X181185714Y-53545295D01*
X181185714Y-53545295D02*
X181185714Y-53640533D01*
X181185714Y-53640533D02*
X181138095Y-53783390D01*
X181138095Y-53783390D02*
X180566667Y-54354819D01*
X180566667Y-54354819D02*
X181185714Y-54354819D01*
X104238095Y-141304819D02*
X104238095Y-140304819D01*
X104238095Y-140781009D02*
X104809523Y-140781009D01*
X104809523Y-141304819D02*
X104809523Y-140304819D01*
X105190476Y-140304819D02*
X105809523Y-140304819D01*
X105809523Y-140304819D02*
X105476190Y-140685771D01*
X105476190Y-140685771D02*
X105619047Y-140685771D01*
X105619047Y-140685771D02*
X105714285Y-140733390D01*
X105714285Y-140733390D02*
X105761904Y-140781009D01*
X105761904Y-140781009D02*
X105809523Y-140876247D01*
X105809523Y-140876247D02*
X105809523Y-141114342D01*
X105809523Y-141114342D02*
X105761904Y-141209580D01*
X105761904Y-141209580D02*
X105714285Y-141257200D01*
X105714285Y-141257200D02*
X105619047Y-141304819D01*
X105619047Y-141304819D02*
X105333333Y-141304819D01*
X105333333Y-141304819D02*
X105238095Y-141257200D01*
X105238095Y-141257200D02*
X105190476Y-141209580D01*
X194238095Y-51304819D02*
X194238095Y-50304819D01*
X194238095Y-50781009D02*
X194809523Y-50781009D01*
X194809523Y-51304819D02*
X194809523Y-50304819D01*
X195238095Y-50400057D02*
X195285714Y-50352438D01*
X195285714Y-50352438D02*
X195380952Y-50304819D01*
X195380952Y-50304819D02*
X195619047Y-50304819D01*
X195619047Y-50304819D02*
X195714285Y-50352438D01*
X195714285Y-50352438D02*
X195761904Y-50400057D01*
X195761904Y-50400057D02*
X195809523Y-50495295D01*
X195809523Y-50495295D02*
X195809523Y-50590533D01*
X195809523Y-50590533D02*
X195761904Y-50733390D01*
X195761904Y-50733390D02*
X195190476Y-51304819D01*
X195190476Y-51304819D02*
X195809523Y-51304819D01*
D14*
X139919419Y-144535333D02*
X140633704Y-144535333D01*
X140633704Y-144535333D02*
X140776561Y-144582952D01*
X140776561Y-144582952D02*
X140871800Y-144678190D01*
X140871800Y-144678190D02*
X140919419Y-144821047D01*
X140919419Y-144821047D02*
X140919419Y-144916285D01*
X140347990Y-143916285D02*
X140300371Y-144011523D01*
X140300371Y-144011523D02*
X140252752Y-144059142D01*
X140252752Y-144059142D02*
X140157514Y-144106761D01*
X140157514Y-144106761D02*
X140109895Y-144106761D01*
X140109895Y-144106761D02*
X140014657Y-144059142D01*
X140014657Y-144059142D02*
X139967038Y-144011523D01*
X139967038Y-144011523D02*
X139919419Y-143916285D01*
X139919419Y-143916285D02*
X139919419Y-143725809D01*
X139919419Y-143725809D02*
X139967038Y-143630571D01*
X139967038Y-143630571D02*
X140014657Y-143582952D01*
X140014657Y-143582952D02*
X140109895Y-143535333D01*
X140109895Y-143535333D02*
X140157514Y-143535333D01*
X140157514Y-143535333D02*
X140252752Y-143582952D01*
X140252752Y-143582952D02*
X140300371Y-143630571D01*
X140300371Y-143630571D02*
X140347990Y-143725809D01*
X140347990Y-143725809D02*
X140347990Y-143916285D01*
X140347990Y-143916285D02*
X140395609Y-144011523D01*
X140395609Y-144011523D02*
X140443228Y-144059142D01*
X140443228Y-144059142D02*
X140538466Y-144106761D01*
X140538466Y-144106761D02*
X140728942Y-144106761D01*
X140728942Y-144106761D02*
X140824180Y-144059142D01*
X140824180Y-144059142D02*
X140871800Y-144011523D01*
X140871800Y-144011523D02*
X140919419Y-143916285D01*
X140919419Y-143916285D02*
X140919419Y-143725809D01*
X140919419Y-143725809D02*
X140871800Y-143630571D01*
X140871800Y-143630571D02*
X140824180Y-143582952D01*
X140824180Y-143582952D02*
X140728942Y-143535333D01*
X140728942Y-143535333D02*
X140538466Y-143535333D01*
X140538466Y-143535333D02*
X140443228Y-143582952D01*
X140443228Y-143582952D02*
X140395609Y-143630571D01*
X140395609Y-143630571D02*
X140347990Y-143725809D01*
D11*
X153108600Y-147435945D02*
X153156219Y-147293088D01*
X153156219Y-147293088D02*
X153156219Y-147054993D01*
X153156219Y-147054993D02*
X153108600Y-146959755D01*
X153108600Y-146959755D02*
X153060980Y-146912136D01*
X153060980Y-146912136D02*
X152965742Y-146864517D01*
X152965742Y-146864517D02*
X152870504Y-146864517D01*
X152870504Y-146864517D02*
X152775266Y-146912136D01*
X152775266Y-146912136D02*
X152727647Y-146959755D01*
X152727647Y-146959755D02*
X152680028Y-147054993D01*
X152680028Y-147054993D02*
X152632409Y-147245469D01*
X152632409Y-147245469D02*
X152584790Y-147340707D01*
X152584790Y-147340707D02*
X152537171Y-147388326D01*
X152537171Y-147388326D02*
X152441933Y-147435945D01*
X152441933Y-147435945D02*
X152346695Y-147435945D01*
X152346695Y-147435945D02*
X152251457Y-147388326D01*
X152251457Y-147388326D02*
X152203838Y-147340707D01*
X152203838Y-147340707D02*
X152156219Y-147245469D01*
X152156219Y-147245469D02*
X152156219Y-147007374D01*
X152156219Y-147007374D02*
X152203838Y-146864517D01*
X152632409Y-146435945D02*
X152632409Y-146102612D01*
X153156219Y-145959755D02*
X153156219Y-146435945D01*
X153156219Y-146435945D02*
X152156219Y-146435945D01*
X152156219Y-146435945D02*
X152156219Y-145959755D01*
X153156219Y-144959755D02*
X152680028Y-145293088D01*
X153156219Y-145531183D02*
X152156219Y-145531183D01*
X152156219Y-145531183D02*
X152156219Y-145150231D01*
X152156219Y-145150231D02*
X152203838Y-145054993D01*
X152203838Y-145054993D02*
X152251457Y-145007374D01*
X152251457Y-145007374D02*
X152346695Y-144959755D01*
X152346695Y-144959755D02*
X152489552Y-144959755D01*
X152489552Y-144959755D02*
X152584790Y-145007374D01*
X152584790Y-145007374D02*
X152632409Y-145054993D01*
X152632409Y-145054993D02*
X152680028Y-145150231D01*
X152680028Y-145150231D02*
X152680028Y-145531183D01*
X152156219Y-144674040D02*
X153156219Y-144340707D01*
X153156219Y-144340707D02*
X152156219Y-144007374D01*
X152156219Y-143483564D02*
X152156219Y-143293088D01*
X152156219Y-143293088D02*
X152203838Y-143197850D01*
X152203838Y-143197850D02*
X152299076Y-143102612D01*
X152299076Y-143102612D02*
X152489552Y-143054993D01*
X152489552Y-143054993D02*
X152822885Y-143054993D01*
X152822885Y-143054993D02*
X153013361Y-143102612D01*
X153013361Y-143102612D02*
X153108600Y-143197850D01*
X153108600Y-143197850D02*
X153156219Y-143293088D01*
X153156219Y-143293088D02*
X153156219Y-143483564D01*
X153156219Y-143483564D02*
X153108600Y-143578802D01*
X153108600Y-143578802D02*
X153013361Y-143674040D01*
X153013361Y-143674040D02*
X152822885Y-143721659D01*
X152822885Y-143721659D02*
X152489552Y-143721659D01*
X152489552Y-143721659D02*
X152299076Y-143674040D01*
X152299076Y-143674040D02*
X152203838Y-143578802D01*
X152203838Y-143578802D02*
X152156219Y-143483564D01*
X153156219Y-141340707D02*
X153156219Y-141912135D01*
X153156219Y-141626421D02*
X152156219Y-141626421D01*
X152156219Y-141626421D02*
X152299076Y-141721659D01*
X152299076Y-141721659D02*
X152394314Y-141816897D01*
X152394314Y-141816897D02*
X152441933Y-141912135D01*
X149092266Y-140981326D02*
X149092266Y-140219422D01*
X149473219Y-140600374D02*
X148711314Y-140600374D01*
X146504600Y-141085945D02*
X146552219Y-140943088D01*
X146552219Y-140943088D02*
X146552219Y-140704993D01*
X146552219Y-140704993D02*
X146504600Y-140609755D01*
X146504600Y-140609755D02*
X146456980Y-140562136D01*
X146456980Y-140562136D02*
X146361742Y-140514517D01*
X146361742Y-140514517D02*
X146266504Y-140514517D01*
X146266504Y-140514517D02*
X146171266Y-140562136D01*
X146171266Y-140562136D02*
X146123647Y-140609755D01*
X146123647Y-140609755D02*
X146076028Y-140704993D01*
X146076028Y-140704993D02*
X146028409Y-140895469D01*
X146028409Y-140895469D02*
X145980790Y-140990707D01*
X145980790Y-140990707D02*
X145933171Y-141038326D01*
X145933171Y-141038326D02*
X145837933Y-141085945D01*
X145837933Y-141085945D02*
X145742695Y-141085945D01*
X145742695Y-141085945D02*
X145647457Y-141038326D01*
X145647457Y-141038326D02*
X145599838Y-140990707D01*
X145599838Y-140990707D02*
X145552219Y-140895469D01*
X145552219Y-140895469D02*
X145552219Y-140657374D01*
X145552219Y-140657374D02*
X145599838Y-140514517D01*
X143123266Y-140981326D02*
X143123266Y-140219422D01*
D12*
X116966819Y-76406333D02*
X117681104Y-76406333D01*
X117681104Y-76406333D02*
X117823961Y-76453952D01*
X117823961Y-76453952D02*
X117919200Y-76549190D01*
X117919200Y-76549190D02*
X117966819Y-76692047D01*
X117966819Y-76692047D02*
X117966819Y-76787285D01*
X117966819Y-75406333D02*
X117966819Y-75977761D01*
X117966819Y-75692047D02*
X116966819Y-75692047D01*
X116966819Y-75692047D02*
X117109676Y-75787285D01*
X117109676Y-75787285D02*
X117204914Y-75882523D01*
X117204914Y-75882523D02*
X117252533Y-75977761D01*
X179161905Y-61104819D02*
X179161905Y-60104819D01*
X179161905Y-60104819D02*
X179400000Y-60104819D01*
X179400000Y-60104819D02*
X179542857Y-60152438D01*
X179542857Y-60152438D02*
X179638095Y-60247676D01*
X179638095Y-60247676D02*
X179685714Y-60342914D01*
X179685714Y-60342914D02*
X179733333Y-60533390D01*
X179733333Y-60533390D02*
X179733333Y-60676247D01*
X179733333Y-60676247D02*
X179685714Y-60866723D01*
X179685714Y-60866723D02*
X179638095Y-60961961D01*
X179638095Y-60961961D02*
X179542857Y-61057200D01*
X179542857Y-61057200D02*
X179400000Y-61104819D01*
X179400000Y-61104819D02*
X179161905Y-61104819D01*
X180685714Y-61104819D02*
X180114286Y-61104819D01*
X180400000Y-61104819D02*
X180400000Y-60104819D01*
X180400000Y-60104819D02*
X180304762Y-60247676D01*
X180304762Y-60247676D02*
X180209524Y-60342914D01*
X180209524Y-60342914D02*
X180114286Y-60390533D01*
D14*
X141080419Y-73704972D02*
X142080419Y-73371639D01*
X142080419Y-73371639D02*
X141080419Y-73038306D01*
X142080419Y-72704972D02*
X141413752Y-72704972D01*
X141080419Y-72704972D02*
X141128038Y-72752591D01*
X141128038Y-72752591D02*
X141175657Y-72704972D01*
X141175657Y-72704972D02*
X141128038Y-72657353D01*
X141128038Y-72657353D02*
X141080419Y-72704972D01*
X141080419Y-72704972D02*
X141175657Y-72704972D01*
X141413752Y-72228782D02*
X142080419Y-72228782D01*
X141508990Y-72228782D02*
X141461371Y-72181163D01*
X141461371Y-72181163D02*
X141413752Y-72085925D01*
X141413752Y-72085925D02*
X141413752Y-71943068D01*
X141413752Y-71943068D02*
X141461371Y-71847830D01*
X141461371Y-71847830D02*
X141556609Y-71800211D01*
X141556609Y-71800211D02*
X142080419Y-71800211D01*
X141699466Y-71324020D02*
X141699466Y-70562116D01*
X142080419Y-70943068D02*
X141318514Y-70943068D01*
X129904419Y-73450972D02*
X130904419Y-73117639D01*
X130904419Y-73117639D02*
X129904419Y-72784306D01*
X130904419Y-72450972D02*
X130237752Y-72450972D01*
X129904419Y-72450972D02*
X129952038Y-72498591D01*
X129952038Y-72498591D02*
X129999657Y-72450972D01*
X129999657Y-72450972D02*
X129952038Y-72403353D01*
X129952038Y-72403353D02*
X129904419Y-72450972D01*
X129904419Y-72450972D02*
X129999657Y-72450972D01*
X130237752Y-71974782D02*
X130904419Y-71974782D01*
X130332990Y-71974782D02*
X130285371Y-71927163D01*
X130285371Y-71927163D02*
X130237752Y-71831925D01*
X130237752Y-71831925D02*
X130237752Y-71689068D01*
X130237752Y-71689068D02*
X130285371Y-71593830D01*
X130285371Y-71593830D02*
X130380609Y-71546211D01*
X130380609Y-71546211D02*
X130904419Y-71546211D01*
X130523466Y-71070020D02*
X130523466Y-70308116D01*
X129650419Y-64052972D02*
X130650419Y-63719639D01*
X130650419Y-63719639D02*
X129650419Y-63386306D01*
X130650419Y-62910115D02*
X130602800Y-63005353D01*
X130602800Y-63005353D02*
X130555180Y-63052972D01*
X130555180Y-63052972D02*
X130459942Y-63100591D01*
X130459942Y-63100591D02*
X130174228Y-63100591D01*
X130174228Y-63100591D02*
X130078990Y-63052972D01*
X130078990Y-63052972D02*
X130031371Y-63005353D01*
X130031371Y-63005353D02*
X129983752Y-62910115D01*
X129983752Y-62910115D02*
X129983752Y-62767258D01*
X129983752Y-62767258D02*
X130031371Y-62672020D01*
X130031371Y-62672020D02*
X130078990Y-62624401D01*
X130078990Y-62624401D02*
X130174228Y-62576782D01*
X130174228Y-62576782D02*
X130459942Y-62576782D01*
X130459942Y-62576782D02*
X130555180Y-62624401D01*
X130555180Y-62624401D02*
X130602800Y-62672020D01*
X130602800Y-62672020D02*
X130650419Y-62767258D01*
X130650419Y-62767258D02*
X130650419Y-62910115D01*
X129983752Y-61719639D02*
X130650419Y-61719639D01*
X129983752Y-62148210D02*
X130507561Y-62148210D01*
X130507561Y-62148210D02*
X130602800Y-62100591D01*
X130602800Y-62100591D02*
X130650419Y-62005353D01*
X130650419Y-62005353D02*
X130650419Y-61862496D01*
X130650419Y-61862496D02*
X130602800Y-61767258D01*
X130602800Y-61767258D02*
X130555180Y-61719639D01*
X129983752Y-61386305D02*
X129983752Y-61005353D01*
X129650419Y-61243448D02*
X130507561Y-61243448D01*
X130507561Y-61243448D02*
X130602800Y-61195829D01*
X130602800Y-61195829D02*
X130650419Y-61100591D01*
X130650419Y-61100591D02*
X130650419Y-61005353D01*
X130269466Y-60672019D02*
X130269466Y-59910115D01*
X141334419Y-63798972D02*
X142334419Y-63465639D01*
X142334419Y-63465639D02*
X141334419Y-63132306D01*
X142334419Y-62656115D02*
X142286800Y-62751353D01*
X142286800Y-62751353D02*
X142239180Y-62798972D01*
X142239180Y-62798972D02*
X142143942Y-62846591D01*
X142143942Y-62846591D02*
X141858228Y-62846591D01*
X141858228Y-62846591D02*
X141762990Y-62798972D01*
X141762990Y-62798972D02*
X141715371Y-62751353D01*
X141715371Y-62751353D02*
X141667752Y-62656115D01*
X141667752Y-62656115D02*
X141667752Y-62513258D01*
X141667752Y-62513258D02*
X141715371Y-62418020D01*
X141715371Y-62418020D02*
X141762990Y-62370401D01*
X141762990Y-62370401D02*
X141858228Y-62322782D01*
X141858228Y-62322782D02*
X142143942Y-62322782D01*
X142143942Y-62322782D02*
X142239180Y-62370401D01*
X142239180Y-62370401D02*
X142286800Y-62418020D01*
X142286800Y-62418020D02*
X142334419Y-62513258D01*
X142334419Y-62513258D02*
X142334419Y-62656115D01*
X141667752Y-61465639D02*
X142334419Y-61465639D01*
X141667752Y-61894210D02*
X142191561Y-61894210D01*
X142191561Y-61894210D02*
X142286800Y-61846591D01*
X142286800Y-61846591D02*
X142334419Y-61751353D01*
X142334419Y-61751353D02*
X142334419Y-61608496D01*
X142334419Y-61608496D02*
X142286800Y-61513258D01*
X142286800Y-61513258D02*
X142239180Y-61465639D01*
X141667752Y-61132305D02*
X141667752Y-60751353D01*
X141334419Y-60989448D02*
X142191561Y-60989448D01*
X142191561Y-60989448D02*
X142286800Y-60941829D01*
X142286800Y-60941829D02*
X142334419Y-60846591D01*
X142334419Y-60846591D02*
X142334419Y-60751353D01*
X141953466Y-60418019D02*
X141953466Y-59656115D01*
X142334419Y-60037067D02*
X141572514Y-60037067D01*
D11*
X184393780Y-134846816D02*
X183393780Y-135180149D01*
X183393780Y-135180149D02*
X184393780Y-135513482D01*
X183489019Y-136418244D02*
X183441400Y-136370625D01*
X183441400Y-136370625D02*
X183393780Y-136227768D01*
X183393780Y-136227768D02*
X183393780Y-136132530D01*
X183393780Y-136132530D02*
X183441400Y-135989673D01*
X183441400Y-135989673D02*
X183536638Y-135894435D01*
X183536638Y-135894435D02*
X183631876Y-135846816D01*
X183631876Y-135846816D02*
X183822352Y-135799197D01*
X183822352Y-135799197D02*
X183965209Y-135799197D01*
X183965209Y-135799197D02*
X184155685Y-135846816D01*
X184155685Y-135846816D02*
X184250923Y-135894435D01*
X184250923Y-135894435D02*
X184346161Y-135989673D01*
X184346161Y-135989673D02*
X184393780Y-136132530D01*
X184393780Y-136132530D02*
X184393780Y-136227768D01*
X184393780Y-136227768D02*
X184346161Y-136370625D01*
X184346161Y-136370625D02*
X184298542Y-136418244D01*
X183489019Y-137418244D02*
X183441400Y-137370625D01*
X183441400Y-137370625D02*
X183393780Y-137227768D01*
X183393780Y-137227768D02*
X183393780Y-137132530D01*
X183393780Y-137132530D02*
X183441400Y-136989673D01*
X183441400Y-136989673D02*
X183536638Y-136894435D01*
X183536638Y-136894435D02*
X183631876Y-136846816D01*
X183631876Y-136846816D02*
X183822352Y-136799197D01*
X183822352Y-136799197D02*
X183965209Y-136799197D01*
X183965209Y-136799197D02*
X184155685Y-136846816D01*
X184155685Y-136846816D02*
X184250923Y-136894435D01*
X184250923Y-136894435D02*
X184346161Y-136989673D01*
X184346161Y-136989673D02*
X184393780Y-137132530D01*
X184393780Y-137132530D02*
X184393780Y-137227768D01*
X184393780Y-137227768D02*
X184346161Y-137370625D01*
X184346161Y-137370625D02*
X184298542Y-137418244D01*
X165613780Y-134989673D02*
X166613780Y-134989673D01*
X165613780Y-135465863D02*
X166613780Y-135465863D01*
X166613780Y-135465863D02*
X165613780Y-136037291D01*
X165613780Y-136037291D02*
X166613780Y-136037291D01*
X166613780Y-136370625D02*
X166613780Y-136942053D01*
X165613780Y-136656339D02*
X166613780Y-136656339D01*
X163073780Y-134989673D02*
X164073780Y-134989673D01*
X164073780Y-134989673D02*
X163073780Y-135561101D01*
X163073780Y-135561101D02*
X164073780Y-135561101D01*
X163169019Y-136608720D02*
X163121400Y-136561101D01*
X163121400Y-136561101D02*
X163073780Y-136418244D01*
X163073780Y-136418244D02*
X163073780Y-136323006D01*
X163073780Y-136323006D02*
X163121400Y-136180149D01*
X163121400Y-136180149D02*
X163216638Y-136084911D01*
X163216638Y-136084911D02*
X163311876Y-136037292D01*
X163311876Y-136037292D02*
X163502352Y-135989673D01*
X163502352Y-135989673D02*
X163645209Y-135989673D01*
X163645209Y-135989673D02*
X163835685Y-136037292D01*
X163835685Y-136037292D02*
X163930923Y-136084911D01*
X163930923Y-136084911D02*
X164026161Y-136180149D01*
X164026161Y-136180149D02*
X164073780Y-136323006D01*
X164073780Y-136323006D02*
X164073780Y-136418244D01*
X164073780Y-136418244D02*
X164026161Y-136561101D01*
X164026161Y-136561101D02*
X163978542Y-136608720D01*
X163121400Y-136989673D02*
X163073780Y-137132530D01*
X163073780Y-137132530D02*
X163073780Y-137370625D01*
X163073780Y-137370625D02*
X163121400Y-137465863D01*
X163121400Y-137465863D02*
X163169019Y-137513482D01*
X163169019Y-137513482D02*
X163264257Y-137561101D01*
X163264257Y-137561101D02*
X163359495Y-137561101D01*
X163359495Y-137561101D02*
X163454733Y-137513482D01*
X163454733Y-137513482D02*
X163502352Y-137465863D01*
X163502352Y-137465863D02*
X163549971Y-137370625D01*
X163549971Y-137370625D02*
X163597590Y-137180149D01*
X163597590Y-137180149D02*
X163645209Y-137084911D01*
X163645209Y-137084911D02*
X163692828Y-137037292D01*
X163692828Y-137037292D02*
X163788066Y-136989673D01*
X163788066Y-136989673D02*
X163883304Y-136989673D01*
X163883304Y-136989673D02*
X163978542Y-137037292D01*
X163978542Y-137037292D02*
X164026161Y-137084911D01*
X164026161Y-137084911D02*
X164073780Y-137180149D01*
X164073780Y-137180149D02*
X164073780Y-137418244D01*
X164073780Y-137418244D02*
X164026161Y-137561101D01*
X175821400Y-134942054D02*
X175773780Y-135084911D01*
X175773780Y-135084911D02*
X175773780Y-135323006D01*
X175773780Y-135323006D02*
X175821400Y-135418244D01*
X175821400Y-135418244D02*
X175869019Y-135465863D01*
X175869019Y-135465863D02*
X175964257Y-135513482D01*
X175964257Y-135513482D02*
X176059495Y-135513482D01*
X176059495Y-135513482D02*
X176154733Y-135465863D01*
X176154733Y-135465863D02*
X176202352Y-135418244D01*
X176202352Y-135418244D02*
X176249971Y-135323006D01*
X176249971Y-135323006D02*
X176297590Y-135132530D01*
X176297590Y-135132530D02*
X176345209Y-135037292D01*
X176345209Y-135037292D02*
X176392828Y-134989673D01*
X176392828Y-134989673D02*
X176488066Y-134942054D01*
X176488066Y-134942054D02*
X176583304Y-134942054D01*
X176583304Y-134942054D02*
X176678542Y-134989673D01*
X176678542Y-134989673D02*
X176726161Y-135037292D01*
X176726161Y-135037292D02*
X176773780Y-135132530D01*
X176773780Y-135132530D02*
X176773780Y-135370625D01*
X176773780Y-135370625D02*
X176726161Y-135513482D01*
X175773780Y-135942054D02*
X176773780Y-135942054D01*
X176773780Y-135942054D02*
X176773780Y-136180149D01*
X176773780Y-136180149D02*
X176726161Y-136323006D01*
X176726161Y-136323006D02*
X176630923Y-136418244D01*
X176630923Y-136418244D02*
X176535685Y-136465863D01*
X176535685Y-136465863D02*
X176345209Y-136513482D01*
X176345209Y-136513482D02*
X176202352Y-136513482D01*
X176202352Y-136513482D02*
X176011876Y-136465863D01*
X176011876Y-136465863D02*
X175916638Y-136418244D01*
X175916638Y-136418244D02*
X175821400Y-136323006D01*
X175821400Y-136323006D02*
X175773780Y-136180149D01*
X175773780Y-136180149D02*
X175773780Y-135942054D01*
X176059495Y-136894435D02*
X176059495Y-137370625D01*
X175773780Y-136799197D02*
X176773780Y-137132530D01*
X176773780Y-137132530D02*
X175773780Y-137465863D01*
X181806161Y-135513482D02*
X181853780Y-135418244D01*
X181853780Y-135418244D02*
X181853780Y-135275387D01*
X181853780Y-135275387D02*
X181806161Y-135132530D01*
X181806161Y-135132530D02*
X181710923Y-135037292D01*
X181710923Y-135037292D02*
X181615685Y-134989673D01*
X181615685Y-134989673D02*
X181425209Y-134942054D01*
X181425209Y-134942054D02*
X181282352Y-134942054D01*
X181282352Y-134942054D02*
X181091876Y-134989673D01*
X181091876Y-134989673D02*
X180996638Y-135037292D01*
X180996638Y-135037292D02*
X180901400Y-135132530D01*
X180901400Y-135132530D02*
X180853780Y-135275387D01*
X180853780Y-135275387D02*
X180853780Y-135370625D01*
X180853780Y-135370625D02*
X180901400Y-135513482D01*
X180901400Y-135513482D02*
X180949019Y-135561101D01*
X180949019Y-135561101D02*
X181282352Y-135561101D01*
X181282352Y-135561101D02*
X181282352Y-135370625D01*
X180853780Y-135989673D02*
X181853780Y-135989673D01*
X181853780Y-135989673D02*
X180853780Y-136561101D01*
X180853780Y-136561101D02*
X181853780Y-136561101D01*
X180853780Y-137037292D02*
X181853780Y-137037292D01*
X181853780Y-137037292D02*
X181853780Y-137275387D01*
X181853780Y-137275387D02*
X181806161Y-137418244D01*
X181806161Y-137418244D02*
X181710923Y-137513482D01*
X181710923Y-137513482D02*
X181615685Y-137561101D01*
X181615685Y-137561101D02*
X181425209Y-137608720D01*
X181425209Y-137608720D02*
X181282352Y-137608720D01*
X181282352Y-137608720D02*
X181091876Y-137561101D01*
X181091876Y-137561101D02*
X180996638Y-137513482D01*
X180996638Y-137513482D02*
X180901400Y-137418244D01*
X180901400Y-137418244D02*
X180853780Y-137275387D01*
X180853780Y-137275387D02*
X180853780Y-137037292D01*
X173757590Y-134989673D02*
X173757590Y-135323006D01*
X173233780Y-135465863D02*
X173233780Y-134989673D01*
X173233780Y-134989673D02*
X174233780Y-134989673D01*
X174233780Y-134989673D02*
X174233780Y-135465863D01*
X173233780Y-135894435D02*
X174233780Y-135894435D01*
X174233780Y-135894435D02*
X174233780Y-136132530D01*
X174233780Y-136132530D02*
X174186161Y-136275387D01*
X174186161Y-136275387D02*
X174090923Y-136370625D01*
X174090923Y-136370625D02*
X173995685Y-136418244D01*
X173995685Y-136418244D02*
X173805209Y-136465863D01*
X173805209Y-136465863D02*
X173662352Y-136465863D01*
X173662352Y-136465863D02*
X173471876Y-136418244D01*
X173471876Y-136418244D02*
X173376638Y-136370625D01*
X173376638Y-136370625D02*
X173281400Y-136275387D01*
X173281400Y-136275387D02*
X173233780Y-136132530D01*
X173233780Y-136132530D02*
X173233780Y-135894435D01*
X173519495Y-136846816D02*
X173519495Y-137323006D01*
X173233780Y-136751578D02*
X174233780Y-137084911D01*
X174233780Y-137084911D02*
X173233780Y-137418244D01*
X161057590Y-135323006D02*
X161057590Y-134989673D01*
X160533780Y-134989673D02*
X161533780Y-134989673D01*
X161533780Y-134989673D02*
X161533780Y-135465863D01*
X160581400Y-135799197D02*
X160533780Y-135942054D01*
X160533780Y-135942054D02*
X160533780Y-136180149D01*
X160533780Y-136180149D02*
X160581400Y-136275387D01*
X160581400Y-136275387D02*
X160629019Y-136323006D01*
X160629019Y-136323006D02*
X160724257Y-136370625D01*
X160724257Y-136370625D02*
X160819495Y-136370625D01*
X160819495Y-136370625D02*
X160914733Y-136323006D01*
X160914733Y-136323006D02*
X160962352Y-136275387D01*
X160962352Y-136275387D02*
X161009971Y-136180149D01*
X161009971Y-136180149D02*
X161057590Y-135989673D01*
X161057590Y-135989673D02*
X161105209Y-135894435D01*
X161105209Y-135894435D02*
X161152828Y-135846816D01*
X161152828Y-135846816D02*
X161248066Y-135799197D01*
X161248066Y-135799197D02*
X161343304Y-135799197D01*
X161343304Y-135799197D02*
X161438542Y-135846816D01*
X161438542Y-135846816D02*
X161486161Y-135894435D01*
X161486161Y-135894435D02*
X161533780Y-135989673D01*
X161533780Y-135989673D02*
X161533780Y-136227768D01*
X161533780Y-136227768D02*
X161486161Y-136370625D01*
X161009971Y-136989673D02*
X160533780Y-136989673D01*
X161533780Y-136656340D02*
X161009971Y-136989673D01*
X161009971Y-136989673D02*
X161533780Y-137323006D01*
X160533780Y-137656340D02*
X161533780Y-137656340D01*
X161533780Y-137656340D02*
X160533780Y-138227768D01*
X160533780Y-138227768D02*
X161533780Y-138227768D01*
X160629019Y-139275387D02*
X160581400Y-139227768D01*
X160581400Y-139227768D02*
X160533780Y-139084911D01*
X160533780Y-139084911D02*
X160533780Y-138989673D01*
X160533780Y-138989673D02*
X160581400Y-138846816D01*
X160581400Y-138846816D02*
X160676638Y-138751578D01*
X160676638Y-138751578D02*
X160771876Y-138703959D01*
X160771876Y-138703959D02*
X160962352Y-138656340D01*
X160962352Y-138656340D02*
X161105209Y-138656340D01*
X161105209Y-138656340D02*
X161295685Y-138703959D01*
X161295685Y-138703959D02*
X161390923Y-138751578D01*
X161390923Y-138751578D02*
X161486161Y-138846816D01*
X161486161Y-138846816D02*
X161533780Y-138989673D01*
X161533780Y-138989673D02*
X161533780Y-139084911D01*
X161533780Y-139084911D02*
X161486161Y-139227768D01*
X161486161Y-139227768D02*
X161438542Y-139275387D01*
X168439495Y-134942054D02*
X168439495Y-135418244D01*
X168153780Y-134846816D02*
X169153780Y-135180149D01*
X169153780Y-135180149D02*
X168153780Y-135513482D01*
X168153780Y-135846816D02*
X169153780Y-135846816D01*
X169153780Y-135846816D02*
X169153780Y-136084911D01*
X169153780Y-136084911D02*
X169106161Y-136227768D01*
X169106161Y-136227768D02*
X169010923Y-136323006D01*
X169010923Y-136323006D02*
X168915685Y-136370625D01*
X168915685Y-136370625D02*
X168725209Y-136418244D01*
X168725209Y-136418244D02*
X168582352Y-136418244D01*
X168582352Y-136418244D02*
X168391876Y-136370625D01*
X168391876Y-136370625D02*
X168296638Y-136323006D01*
X168296638Y-136323006D02*
X168201400Y-136227768D01*
X168201400Y-136227768D02*
X168153780Y-136084911D01*
X168153780Y-136084911D02*
X168153780Y-135846816D01*
X169153780Y-137037292D02*
X169153780Y-137132530D01*
X169153780Y-137132530D02*
X169106161Y-137227768D01*
X169106161Y-137227768D02*
X169058542Y-137275387D01*
X169058542Y-137275387D02*
X168963304Y-137323006D01*
X168963304Y-137323006D02*
X168772828Y-137370625D01*
X168772828Y-137370625D02*
X168534733Y-137370625D01*
X168534733Y-137370625D02*
X168344257Y-137323006D01*
X168344257Y-137323006D02*
X168249019Y-137275387D01*
X168249019Y-137275387D02*
X168201400Y-137227768D01*
X168201400Y-137227768D02*
X168153780Y-137132530D01*
X168153780Y-137132530D02*
X168153780Y-137037292D01*
X168153780Y-137037292D02*
X168201400Y-136942054D01*
X168201400Y-136942054D02*
X168249019Y-136894435D01*
X168249019Y-136894435D02*
X168344257Y-136846816D01*
X168344257Y-136846816D02*
X168534733Y-136799197D01*
X168534733Y-136799197D02*
X168772828Y-136799197D01*
X168772828Y-136799197D02*
X168963304Y-136846816D01*
X168963304Y-136846816D02*
X169058542Y-136894435D01*
X169058542Y-136894435D02*
X169106161Y-136942054D01*
X169106161Y-136942054D02*
X169153780Y-137037292D01*
X171217590Y-134989673D02*
X171217590Y-135323006D01*
X170693780Y-135465863D02*
X170693780Y-134989673D01*
X170693780Y-134989673D02*
X171693780Y-134989673D01*
X171693780Y-134989673D02*
X171693780Y-135465863D01*
X170789019Y-136465863D02*
X170741400Y-136418244D01*
X170741400Y-136418244D02*
X170693780Y-136275387D01*
X170693780Y-136275387D02*
X170693780Y-136180149D01*
X170693780Y-136180149D02*
X170741400Y-136037292D01*
X170741400Y-136037292D02*
X170836638Y-135942054D01*
X170836638Y-135942054D02*
X170931876Y-135894435D01*
X170931876Y-135894435D02*
X171122352Y-135846816D01*
X171122352Y-135846816D02*
X171265209Y-135846816D01*
X171265209Y-135846816D02*
X171455685Y-135894435D01*
X171455685Y-135894435D02*
X171550923Y-135942054D01*
X171550923Y-135942054D02*
X171646161Y-136037292D01*
X171646161Y-136037292D02*
X171693780Y-136180149D01*
X171693780Y-136180149D02*
X171693780Y-136275387D01*
X171693780Y-136275387D02*
X171646161Y-136418244D01*
X171646161Y-136418244D02*
X171598542Y-136465863D01*
X170693780Y-137370625D02*
X170693780Y-136894435D01*
X170693780Y-136894435D02*
X171693780Y-136894435D01*
X178361400Y-134942054D02*
X178313780Y-135084911D01*
X178313780Y-135084911D02*
X178313780Y-135323006D01*
X178313780Y-135323006D02*
X178361400Y-135418244D01*
X178361400Y-135418244D02*
X178409019Y-135465863D01*
X178409019Y-135465863D02*
X178504257Y-135513482D01*
X178504257Y-135513482D02*
X178599495Y-135513482D01*
X178599495Y-135513482D02*
X178694733Y-135465863D01*
X178694733Y-135465863D02*
X178742352Y-135418244D01*
X178742352Y-135418244D02*
X178789971Y-135323006D01*
X178789971Y-135323006D02*
X178837590Y-135132530D01*
X178837590Y-135132530D02*
X178885209Y-135037292D01*
X178885209Y-135037292D02*
X178932828Y-134989673D01*
X178932828Y-134989673D02*
X179028066Y-134942054D01*
X179028066Y-134942054D02*
X179123304Y-134942054D01*
X179123304Y-134942054D02*
X179218542Y-134989673D01*
X179218542Y-134989673D02*
X179266161Y-135037292D01*
X179266161Y-135037292D02*
X179313780Y-135132530D01*
X179313780Y-135132530D02*
X179313780Y-135370625D01*
X179313780Y-135370625D02*
X179266161Y-135513482D01*
X178409019Y-136513482D02*
X178361400Y-136465863D01*
X178361400Y-136465863D02*
X178313780Y-136323006D01*
X178313780Y-136323006D02*
X178313780Y-136227768D01*
X178313780Y-136227768D02*
X178361400Y-136084911D01*
X178361400Y-136084911D02*
X178456638Y-135989673D01*
X178456638Y-135989673D02*
X178551876Y-135942054D01*
X178551876Y-135942054D02*
X178742352Y-135894435D01*
X178742352Y-135894435D02*
X178885209Y-135894435D01*
X178885209Y-135894435D02*
X179075685Y-135942054D01*
X179075685Y-135942054D02*
X179170923Y-135989673D01*
X179170923Y-135989673D02*
X179266161Y-136084911D01*
X179266161Y-136084911D02*
X179313780Y-136227768D01*
X179313780Y-136227768D02*
X179313780Y-136323006D01*
X179313780Y-136323006D02*
X179266161Y-136465863D01*
X179266161Y-136465863D02*
X179218542Y-136513482D01*
X178313780Y-137418244D02*
X178313780Y-136942054D01*
X178313780Y-136942054D02*
X179313780Y-136942054D01*
D12*
X194238095Y-141304819D02*
X194238095Y-140304819D01*
X194238095Y-140781009D02*
X194809523Y-140781009D01*
X194809523Y-141304819D02*
X194809523Y-140304819D01*
X195714285Y-140638152D02*
X195714285Y-141304819D01*
X195476190Y-140257200D02*
X195238095Y-140971485D01*
X195238095Y-140971485D02*
X195857142Y-140971485D01*
X104238095Y-51304819D02*
X104238095Y-50304819D01*
X104238095Y-50781009D02*
X104809523Y-50781009D01*
X104809523Y-51304819D02*
X104809523Y-50304819D01*
X105809523Y-51304819D02*
X105238095Y-51304819D01*
X105523809Y-51304819D02*
X105523809Y-50304819D01*
X105523809Y-50304819D02*
X105428571Y-50447676D01*
X105428571Y-50447676D02*
X105333333Y-50542914D01*
X105333333Y-50542914D02*
X105238095Y-50590533D01*
X102309366Y-65766666D02*
X103442700Y-65766666D01*
X103442700Y-65766666D02*
X103576033Y-65700000D01*
X103576033Y-65700000D02*
X103642700Y-65633333D01*
X103642700Y-65633333D02*
X103709366Y-65500000D01*
X103709366Y-65500000D02*
X103709366Y-65233333D01*
X103709366Y-65233333D02*
X103642700Y-65100000D01*
X103642700Y-65100000D02*
X103576033Y-65033333D01*
X103576033Y-65033333D02*
X103442700Y-64966666D01*
X103442700Y-64966666D02*
X102309366Y-64966666D01*
X102909366Y-64099999D02*
X102842700Y-64233333D01*
X102842700Y-64233333D02*
X102776033Y-64299999D01*
X102776033Y-64299999D02*
X102642700Y-64366666D01*
X102642700Y-64366666D02*
X102576033Y-64366666D01*
X102576033Y-64366666D02*
X102442700Y-64299999D01*
X102442700Y-64299999D02*
X102376033Y-64233333D01*
X102376033Y-64233333D02*
X102309366Y-64099999D01*
X102309366Y-64099999D02*
X102309366Y-63833333D01*
X102309366Y-63833333D02*
X102376033Y-63699999D01*
X102376033Y-63699999D02*
X102442700Y-63633333D01*
X102442700Y-63633333D02*
X102576033Y-63566666D01*
X102576033Y-63566666D02*
X102642700Y-63566666D01*
X102642700Y-63566666D02*
X102776033Y-63633333D01*
X102776033Y-63633333D02*
X102842700Y-63699999D01*
X102842700Y-63699999D02*
X102909366Y-63833333D01*
X102909366Y-63833333D02*
X102909366Y-64099999D01*
X102909366Y-64099999D02*
X102976033Y-64233333D01*
X102976033Y-64233333D02*
X103042700Y-64299999D01*
X103042700Y-64299999D02*
X103176033Y-64366666D01*
X103176033Y-64366666D02*
X103442700Y-64366666D01*
X103442700Y-64366666D02*
X103576033Y-64299999D01*
X103576033Y-64299999D02*
X103642700Y-64233333D01*
X103642700Y-64233333D02*
X103709366Y-64099999D01*
X103709366Y-64099999D02*
X103709366Y-63833333D01*
X103709366Y-63833333D02*
X103642700Y-63699999D01*
X103642700Y-63699999D02*
X103576033Y-63633333D01*
X103576033Y-63633333D02*
X103442700Y-63566666D01*
X103442700Y-63566666D02*
X103176033Y-63566666D01*
X103176033Y-63566666D02*
X103042700Y-63633333D01*
X103042700Y-63633333D02*
X102976033Y-63699999D01*
X102976033Y-63699999D02*
X102909366Y-63833333D01*
X122780595Y-125459819D02*
X122780595Y-126269342D01*
X122780595Y-126269342D02*
X122828214Y-126364580D01*
X122828214Y-126364580D02*
X122875833Y-126412200D01*
X122875833Y-126412200D02*
X122971071Y-126459819D01*
X122971071Y-126459819D02*
X123161547Y-126459819D01*
X123161547Y-126459819D02*
X123256785Y-126412200D01*
X123256785Y-126412200D02*
X123304404Y-126364580D01*
X123304404Y-126364580D02*
X123352023Y-126269342D01*
X123352023Y-126269342D02*
X123352023Y-125459819D01*
X123780595Y-125555057D02*
X123828214Y-125507438D01*
X123828214Y-125507438D02*
X123923452Y-125459819D01*
X123923452Y-125459819D02*
X124161547Y-125459819D01*
X124161547Y-125459819D02*
X124256785Y-125507438D01*
X124256785Y-125507438D02*
X124304404Y-125555057D01*
X124304404Y-125555057D02*
X124352023Y-125650295D01*
X124352023Y-125650295D02*
X124352023Y-125745533D01*
X124352023Y-125745533D02*
X124304404Y-125888390D01*
X124304404Y-125888390D02*
X123732976Y-126459819D01*
X123732976Y-126459819D02*
X124352023Y-126459819D01*
D11*
X129862054Y-126184600D02*
X130004911Y-126232219D01*
X130004911Y-126232219D02*
X130243006Y-126232219D01*
X130243006Y-126232219D02*
X130338244Y-126184600D01*
X130338244Y-126184600D02*
X130385863Y-126136980D01*
X130385863Y-126136980D02*
X130433482Y-126041742D01*
X130433482Y-126041742D02*
X130433482Y-125946504D01*
X130433482Y-125946504D02*
X130385863Y-125851266D01*
X130385863Y-125851266D02*
X130338244Y-125803647D01*
X130338244Y-125803647D02*
X130243006Y-125756028D01*
X130243006Y-125756028D02*
X130052530Y-125708409D01*
X130052530Y-125708409D02*
X129957292Y-125660790D01*
X129957292Y-125660790D02*
X129909673Y-125613171D01*
X129909673Y-125613171D02*
X129862054Y-125517933D01*
X129862054Y-125517933D02*
X129862054Y-125422695D01*
X129862054Y-125422695D02*
X129909673Y-125327457D01*
X129909673Y-125327457D02*
X129957292Y-125279838D01*
X129957292Y-125279838D02*
X130052530Y-125232219D01*
X130052530Y-125232219D02*
X130290625Y-125232219D01*
X130290625Y-125232219D02*
X130433482Y-125279838D01*
X130719197Y-125232219D02*
X131290625Y-125232219D01*
X131004911Y-126232219D02*
X131004911Y-125232219D01*
X131623959Y-125708409D02*
X131957292Y-125708409D01*
X132100149Y-126232219D02*
X131623959Y-126232219D01*
X131623959Y-126232219D02*
X131623959Y-125232219D01*
X131623959Y-125232219D02*
X132100149Y-125232219D01*
X132528721Y-126232219D02*
X132528721Y-125232219D01*
X132528721Y-125232219D02*
X132909673Y-125232219D01*
X132909673Y-125232219D02*
X133004911Y-125279838D01*
X133004911Y-125279838D02*
X133052530Y-125327457D01*
X133052530Y-125327457D02*
X133100149Y-125422695D01*
X133100149Y-125422695D02*
X133100149Y-125565552D01*
X133100149Y-125565552D02*
X133052530Y-125660790D01*
X133052530Y-125660790D02*
X133004911Y-125708409D01*
X133004911Y-125708409D02*
X132909673Y-125756028D01*
X132909673Y-125756028D02*
X132528721Y-125756028D01*
X134243007Y-125327457D02*
X134290626Y-125279838D01*
X134290626Y-125279838D02*
X134385864Y-125232219D01*
X134385864Y-125232219D02*
X134623959Y-125232219D01*
X134623959Y-125232219D02*
X134719197Y-125279838D01*
X134719197Y-125279838D02*
X134766816Y-125327457D01*
X134766816Y-125327457D02*
X134814435Y-125422695D01*
X134814435Y-125422695D02*
X134814435Y-125517933D01*
X134814435Y-125517933D02*
X134766816Y-125660790D01*
X134766816Y-125660790D02*
X134195388Y-126232219D01*
X134195388Y-126232219D02*
X134814435Y-126232219D01*
X126653554Y-137741600D02*
X126796411Y-137789219D01*
X126796411Y-137789219D02*
X127034506Y-137789219D01*
X127034506Y-137789219D02*
X127129744Y-137741600D01*
X127129744Y-137741600D02*
X127177363Y-137693980D01*
X127177363Y-137693980D02*
X127224982Y-137598742D01*
X127224982Y-137598742D02*
X127224982Y-137503504D01*
X127224982Y-137503504D02*
X127177363Y-137408266D01*
X127177363Y-137408266D02*
X127129744Y-137360647D01*
X127129744Y-137360647D02*
X127034506Y-137313028D01*
X127034506Y-137313028D02*
X126844030Y-137265409D01*
X126844030Y-137265409D02*
X126748792Y-137217790D01*
X126748792Y-137217790D02*
X126701173Y-137170171D01*
X126701173Y-137170171D02*
X126653554Y-137074933D01*
X126653554Y-137074933D02*
X126653554Y-136979695D01*
X126653554Y-136979695D02*
X126701173Y-136884457D01*
X126701173Y-136884457D02*
X126748792Y-136836838D01*
X126748792Y-136836838D02*
X126844030Y-136789219D01*
X126844030Y-136789219D02*
X127082125Y-136789219D01*
X127082125Y-136789219D02*
X127224982Y-136836838D01*
X127510697Y-136789219D02*
X128082125Y-136789219D01*
X127796411Y-137789219D02*
X127796411Y-136789219D01*
X128415459Y-137265409D02*
X128748792Y-137265409D01*
X128891649Y-137789219D02*
X128415459Y-137789219D01*
X128415459Y-137789219D02*
X128415459Y-136789219D01*
X128415459Y-136789219D02*
X128891649Y-136789219D01*
X129320221Y-137789219D02*
X129320221Y-136789219D01*
X129320221Y-136789219D02*
X129701173Y-136789219D01*
X129701173Y-136789219D02*
X129796411Y-136836838D01*
X129796411Y-136836838D02*
X129844030Y-136884457D01*
X129844030Y-136884457D02*
X129891649Y-136979695D01*
X129891649Y-136979695D02*
X129891649Y-137122552D01*
X129891649Y-137122552D02*
X129844030Y-137217790D01*
X129844030Y-137217790D02*
X129796411Y-137265409D01*
X129796411Y-137265409D02*
X129701173Y-137313028D01*
X129701173Y-137313028D02*
X129320221Y-137313028D01*
X131605935Y-137789219D02*
X131034507Y-137789219D01*
X131320221Y-137789219D02*
X131320221Y-136789219D01*
X131320221Y-136789219D02*
X131224983Y-136932076D01*
X131224983Y-136932076D02*
X131129745Y-137027314D01*
X131129745Y-137027314D02*
X131034507Y-137074933D01*
D15*
%TO.C,J2*%
X101219500Y-83439000D02*
X111469500Y-83439000D01*
X101219500Y-93599000D02*
X101219500Y-83439000D01*
X111469500Y-83439000D02*
X111469500Y-93599000D01*
X111469500Y-93599000D02*
X101219500Y-93599000D01*
D11*
X112569500Y-91059000D02*
G75*
G02*
X112369500Y-91059000I-100000J0D01*
G01*
X112369500Y-91059000D02*
G75*
G02*
X112569500Y-91059000I100000J0D01*
G01*
D15*
%TO.C,J5*%
X103020000Y-98726667D02*
X115420000Y-98726667D01*
X103020000Y-104476667D02*
X103020000Y-98726667D01*
X115420000Y-98726667D02*
X115420000Y-104476667D01*
X115420000Y-104476667D02*
X103020000Y-104476667D01*
%TO.C,J4*%
X180998000Y-97726000D02*
X193398000Y-97726000D01*
X180998000Y-103476000D02*
X180998000Y-97726000D01*
X193398000Y-97726000D02*
X193398000Y-103476000D01*
X193398000Y-103476000D02*
X180998000Y-103476000D01*
%TO.C,F1*%
D14*
X119166000Y-75419000D02*
X124166000Y-75419000D01*
X124166000Y-57419000D01*
X119166000Y-57419000D01*
X119166000Y-75419000D01*
%TO.C,J10*%
X141478000Y-130514000D02*
X151130000Y-130514000D01*
X151130000Y-125434000D01*
X141478000Y-125434000D01*
X141478000Y-130514000D01*
D15*
%TO.C,U3*%
X148082000Y-50292000D02*
X176022000Y-50292000D01*
D16*
X177552000Y-115062000D02*
X146552000Y-115062000D01*
X146552000Y-51308000D01*
X177552000Y-51308000D01*
X177552000Y-115062000D01*
D17*
%TO.C,J6*%
X182643000Y-109838000D02*
X182643000Y-108458000D01*
X184023000Y-109838000D02*
X182643000Y-109838000D01*
X185293000Y-107078000D02*
X190483000Y-107078000D01*
X185293000Y-109838000D02*
X185293000Y-107078000D01*
X185293000Y-109838000D02*
X190483000Y-109838000D01*
X190483000Y-109838000D02*
X190483000Y-107078000D01*
%TO.C,R4*%
X185917064Y-57910000D02*
X185462936Y-57910000D01*
X185917064Y-59380000D02*
X185462936Y-59380000D01*
D15*
%TO.C,J11*%
X105820000Y-109370000D02*
X111570000Y-109370000D01*
X105820000Y-121770000D02*
X105820000Y-109370000D01*
X111570000Y-109370000D02*
X111570000Y-121770000D01*
X111570000Y-121770000D02*
X105820000Y-121770000D01*
%TO.C,J9*%
D14*
X141478000Y-138938000D02*
X151130000Y-138938000D01*
X151130000Y-133858000D01*
X141478000Y-133858000D01*
X141478000Y-138938000D01*
D15*
%TO.C,U7*%
X120997500Y-102898333D02*
X136237500Y-102898333D01*
X120997500Y-123218333D02*
X120997500Y-102898333D01*
X136237500Y-102898333D02*
X136237500Y-123218333D01*
X136237500Y-123218333D02*
X120997500Y-123218333D01*
D11*
X120517500Y-104168333D02*
G75*
G02*
X120317500Y-104168333I-100000J0D01*
G01*
X120317500Y-104168333D02*
G75*
G02*
X120517500Y-104168333I100000J0D01*
G01*
D15*
%TO.C,J3*%
X105820000Y-126515000D02*
X111570000Y-126515000D01*
X105820000Y-138915000D02*
X105820000Y-126515000D01*
X111570000Y-126515000D02*
X111570000Y-138915000D01*
X111570000Y-138915000D02*
X105820000Y-138915000D01*
%TO.C,J7*%
X180998000Y-118046000D02*
X193398000Y-118046000D01*
X180998000Y-123796000D02*
X180998000Y-118046000D01*
X193398000Y-118046000D02*
X193398000Y-123796000D01*
X193398000Y-123796000D02*
X180998000Y-123796000D01*
D17*
%TO.C,R5*%
X185829064Y-55145000D02*
X185374936Y-55145000D01*
X185829064Y-56615000D02*
X185374936Y-56615000D01*
%TO.C,U9*%
D14*
X137255000Y-98071667D02*
X119475000Y-98071667D01*
X119475000Y-82831667D01*
X137255000Y-82831667D01*
X137255000Y-98071667D01*
D17*
%TO.C,U1*%
X182902000Y-62024500D02*
X198352000Y-62024500D01*
X182902000Y-91224500D02*
X182902000Y-62024500D01*
X182902000Y-91224500D02*
X182902000Y-91224500D01*
X183478000Y-85560500D02*
X194146000Y-85560500D01*
X183478000Y-90894500D02*
X183478000Y-85560500D01*
X183478000Y-90894500D02*
X183478000Y-90894500D01*
X194146000Y-85560500D02*
X194146000Y-90894500D01*
X194146000Y-90894500D02*
X183478000Y-90894500D01*
X194146000Y-90894500D02*
X194146000Y-90894500D01*
X198352000Y-62024500D02*
X198352000Y-91224500D01*
X198352000Y-91224500D02*
X182902000Y-91224500D01*
X185242000Y-91760500D02*
X184762000Y-91760500D01*
X185002000Y-91424500D01*
X185242000Y-91760500D01*
G36*
X185242000Y-91760500D02*
G01*
X184762000Y-91760500D01*
X185002000Y-91424500D01*
X185242000Y-91760500D01*
G37*
%TO.C,D2*%
X179857000Y-56840000D02*
X182717000Y-56840000D01*
X182717000Y-54920000D02*
X179857000Y-54920000D01*
X182717000Y-56840000D02*
X182717000Y-54920000D01*
%TO.C,J8*%
D14*
X141351000Y-147250000D02*
X151003000Y-147250000D01*
X151003000Y-142170000D01*
X141351000Y-142170000D01*
X141351000Y-147250000D01*
D17*
%TO.C,J1*%
X101212000Y-71473000D02*
X115712000Y-71473000D01*
X101212000Y-80673000D02*
X101212000Y-71473000D01*
X109812000Y-80673000D02*
X101212000Y-80673000D01*
X115712000Y-71473000D02*
X115712000Y-73473000D01*
X115712000Y-78673000D02*
X115712000Y-80673000D01*
X115712000Y-80673000D02*
X114412000Y-80673000D01*
X116012000Y-71173000D02*
X114712000Y-71173000D01*
X116012000Y-72873000D02*
X116012000Y-71173000D01*
%TO.C,D1*%
X179945000Y-59605000D02*
X182805000Y-59605000D01*
X182805000Y-57685000D02*
X179945000Y-57685000D01*
X182805000Y-59605000D02*
X182805000Y-57685000D01*
D14*
%TO.C,U4*%
X136112000Y-61928000D02*
X134842000Y-63452000D01*
X136112000Y-61928000D02*
X137636000Y-63452000D01*
X136112000Y-72088000D02*
X136112000Y-61928000D01*
X137636000Y-63452000D02*
X134842000Y-63452000D01*
X127112000Y-80008000D02*
X145112000Y-80008000D01*
X145112000Y-54008000D01*
X127112000Y-54008000D01*
X127112000Y-80008000D01*
%TO.C,U5*%
X185339000Y-130680000D02*
X159339000Y-130680000D01*
X159339000Y-146180000D01*
X185339000Y-146180000D01*
X185339000Y-130680000D01*
D15*
%TO.C,U8*%
X101219500Y-59880000D02*
X111469500Y-59880000D01*
X101219500Y-70040000D02*
X101219500Y-59880000D01*
X111469500Y-59880000D02*
X111469500Y-70040000D01*
X111469500Y-70040000D02*
X101219500Y-70040000D01*
D11*
X112569500Y-67500000D02*
G75*
G02*
X112369500Y-67500000I-100000J0D01*
G01*
X112369500Y-67500000D02*
G75*
G02*
X112569500Y-67500000I100000J0D01*
G01*
D15*
%TO.C,U2*%
X120997500Y-127000000D02*
X136237500Y-127000000D01*
X120997500Y-147320000D02*
X120997500Y-127000000D01*
X136237500Y-127000000D02*
X136237500Y-147320000D01*
X136237500Y-147320000D02*
X120997500Y-147320000D01*
D11*
X120517500Y-128270000D02*
G75*
G02*
X120317500Y-128270000I-100000J0D01*
G01*
X120317500Y-128270000D02*
G75*
G02*
X120517500Y-128270000I100000J0D01*
G01*
%TD*%
M02*
