M48
; DRILL file {KiCad 9.0.6} date 2026-03-15T19:13:47+0100
; FORMAT={-:-/ absolute / metric / decimal}
; #@! TF.CreationDate,2026-03-15T19:13:47+01:00
; #@! TF.GenerationSoftware,Kicad,Pcbnew,9.0.6
; #@! TF.FileFunction,Plated,1,2,PTH
FMAT,2
METRIC
; #@! TA.AperFunction,Plated,PTH,ViaDrill
T1C0.300
; #@! TA.AperFunction,Plated,PTH,ComponentDrill
T2C0.900
; #@! TA.AperFunction,Plated,PTH,ComponentDrill
T3C1.000
; #@! TA.AperFunction,Plated,PTH,ComponentDrill
T4C1.020
; #@! TA.AperFunction,Plated,PTH,ComponentDrill
T5C1.600
; #@! TA.AperFunction,Plated,PTH,ComponentDrill
T6C1.700
%
G90
G05
T1
X103.25Y-119.15
X103.25Y-134.6
X103.35Y-126.85
X103.4Y-111.45
X110.6Y-144.95
X115.1Y-146.0
X115.8Y-55.65
X116.85Y-121.4
X117.45Y-126.75
X129.4Y-109.65
X129.6Y-92.95
X129.65Y-96.3
X130.2Y-116.9
X130.2Y-118.75
X130.7Y-51.95
X132.2Y-94.0
X133.75Y-61.65
X134.4Y-65.4
X137.45Y-61.65
X138.3Y-71.45
X139.4Y-108.6
X139.45Y-52.75
X139.45Y-110.25
X139.55Y-112.1
X139.6Y-113.8
X139.7Y-116.45
X139.85Y-65.85
X139.9Y-97.55
X139.95Y-86.05
X141.45Y-95.6
X142.05Y-70.2
X142.3Y-62.85
X143.45Y-93.75
X151.3Y-131.95
X152.1Y-141.1
X152.7Y-134.75
X152.8Y-127.0
X152.9Y-129.65
X153.15Y-139.85
X153.4Y-131.95
X155.25Y-84.55
X155.75Y-69.75
X155.75Y-73.8
X155.95Y-59.5
X155.95Y-61.7
X155.95Y-65.15
X155.95Y-104.65
X156.05Y-112.15
X156.4Y-97.85
X156.45Y-107.8
X156.55Y-79.2
X158.25Y-124.3
X158.369Y-89.408
X158.95Y-126.85
X162.0Y-120.2
X162.8Y-123.95
X165.989Y-97.663
X165.989Y-104.267
X167.4Y-141.35
X167.45Y-82.15
X167.7Y-71.8
X167.75Y-63.85
X167.75Y-66.0
X167.75Y-75.45
X168.0Y-68.9
X168.0Y-79.0
X168.2Y-92.95
X168.9Y-125.85
X169.0Y-117.15
X169.8Y-107.8
X170.5Y-94.65
X170.75Y-140.85
X174.35Y-124.8
X174.85Y-140.7
X174.95Y-126.55
X175.1Y-128.5
X175.45Y-52.85
X176.1Y-113.65
X176.1Y-119.0
X176.15Y-116.25
X176.2Y-121.8
X177.75Y-60.35
X179.7Y-114.4
X180.7Y-115.55
X181.75Y-116.65
X183.0Y-117.45
X184.55Y-126.45
X190.1Y-134.55
X190.2Y-130.25
X190.25Y-139.25
X190.3Y-126.55
X196.35Y-111.3
X196.75Y-105.3
X196.9Y-95.6
T2
X120.745Y-84.102
X120.745Y-86.642
X120.745Y-89.182
X120.745Y-91.722
X120.745Y-94.262
X120.745Y-96.802
X135.985Y-84.102
X135.985Y-86.642
X135.985Y-89.182
X135.985Y-91.722
X135.985Y-94.262
X135.985Y-96.802
X143.637Y-144.202
X143.764Y-127.466
X143.764Y-135.89
X146.177Y-144.202
X146.304Y-127.466
X146.304Y-135.89
X148.717Y-144.202
X148.844Y-127.466
X148.844Y-135.89
X160.909Y-131.93
X163.449Y-131.93
X165.989Y-131.93
X168.529Y-131.93
X171.069Y-131.93
X173.609Y-131.93
X176.149Y-131.93
X178.689Y-131.93
X181.229Y-131.93
X183.769Y-131.93
T3
X105.41Y-101.077
X107.95Y-101.077
X109.22Y-111.76
X109.22Y-114.3
X109.22Y-116.84
X109.22Y-119.38
X109.22Y-128.905
X109.22Y-131.445
X109.22Y-133.985
X109.22Y-136.525
X110.49Y-101.077
X113.03Y-101.077
X122.267Y-104.168
X122.267Y-106.708
X122.267Y-109.248
X122.267Y-111.788
X122.267Y-114.328
X122.267Y-116.868
X122.267Y-119.408
X122.267Y-121.948
X122.267Y-128.27
X122.267Y-130.81
X122.267Y-133.35
X122.267Y-135.89
X122.267Y-138.43
X122.267Y-140.97
X122.267Y-143.51
X122.267Y-146.05
X129.887Y-121.948
X129.887Y-146.05
X132.427Y-121.948
X132.427Y-146.05
X134.968Y-104.168
X134.968Y-106.708
X134.968Y-109.248
X134.968Y-111.788
X134.968Y-114.328
X134.968Y-116.868
X134.968Y-119.408
X134.968Y-121.948
X134.968Y-128.27
X134.968Y-130.81
X134.968Y-133.35
X134.968Y-135.89
X134.968Y-138.43
X134.968Y-140.97
X134.968Y-143.51
X134.968Y-146.05
X183.388Y-100.076
X183.388Y-120.396
X184.023Y-108.458
X185.002Y-87.084
X185.002Y-89.624
X185.928Y-100.076
X185.928Y-120.396
X186.563Y-108.458
X187.542Y-87.084
X187.542Y-89.624
X188.468Y-100.076
X188.468Y-120.396
X189.103Y-108.458
X190.082Y-87.084
X190.082Y-89.624
X191.008Y-100.076
X191.008Y-120.396
X192.622Y-87.084
X192.622Y-89.624
T4
X149.347Y-58.672
X149.347Y-61.212
X149.347Y-63.752
X149.347Y-66.292
X149.347Y-68.832
X149.347Y-71.372
X149.347Y-73.912
X149.347Y-76.452
X149.347Y-78.992
X149.347Y-81.532
X149.347Y-84.072
X149.347Y-86.612
X149.347Y-89.152
X149.347Y-91.692
X149.347Y-94.232
X149.347Y-96.772
X149.347Y-99.312
X149.347Y-101.852
X149.347Y-104.392
X149.347Y-106.932
X149.347Y-109.472
X149.347Y-112.012
X174.752Y-58.672
X174.752Y-61.212
X174.752Y-63.752
X174.752Y-66.292
X174.752Y-68.832
X174.752Y-71.372
X174.752Y-73.912
X174.752Y-76.452
X174.752Y-78.992
X174.752Y-81.532
X174.752Y-84.072
X174.752Y-86.612
X174.752Y-89.152
X174.752Y-91.692
X174.752Y-94.232
X174.752Y-96.772
X174.752Y-99.312
X174.752Y-101.852
X174.752Y-104.392
X174.752Y-106.932
X174.752Y-109.472
X174.752Y-112.012
T5
X106.569Y-62.42
X106.569Y-67.5
X106.569Y-85.979
X106.569Y-91.059
T2
G00X129.222Y-57.808
M15
G01X129.222Y-56.808
M16
G05
G00X129.322Y-77.208
M15
G01X129.322Y-76.208
M16
G05
G00X131.762Y-57.808
M15
G01X131.762Y-56.808
M16
G05
G00X131.762Y-77.208
M15
G01X131.762Y-76.208
M16
G05
G00X140.462Y-57.808
M15
G01X140.462Y-56.808
M16
G05
G00X140.462Y-77.208
M15
G01X140.462Y-76.208
M16
G05
G00X143.002Y-57.808
M15
G01X143.002Y-56.808
M16
G05
G00X143.002Y-77.208
M15
G01X143.002Y-76.208
M16
G05
T3
G00X108.712Y-74.973
M15
G01X108.712Y-77.173
M16
G05
G00X113.212Y-80.873
M15
G01X111.012Y-80.873
M16
G05
G00X115.012Y-74.773
M15
G01X115.012Y-77.373
M16
G05
T6
G00X121.666Y-54.869
M15
G01X121.666Y-53.969
M16
G05
G00X121.666Y-60.369
M15
G01X121.666Y-59.469
M16
G05
G00X121.666Y-73.369
M15
G01X121.666Y-72.469
M16
G05
G00X121.666Y-78.869
M15
G01X121.666Y-77.969
M16
G05
M30
