M48
; DRILL file KiCad 10.0.0 date 2026-06-03T17:24:09
; FORMAT={-:-/ absolute / metric / decimal}
; #@! TF.CreationDate,2026-06-03T17:24:09+02:00
; #@! TF.GenerationSoftware,Kicad,Pcbnew,10.0.0
; #@! TF.FileFunction,Plated,1,2,PTH
FMAT,2
METRIC
; #@! TA.AperFunction,Plated,PTH,ViaDrill
T1C0.300
; #@! TA.AperFunction,Plated,PTH,ComponentDrill
T2C0.800
; #@! TA.AperFunction,Plated,PTH,ComponentDrill
T3C0.900
; #@! TA.AperFunction,Plated,PTH,ComponentDrill
T4C1.000
; #@! TA.AperFunction,Plated,PTH,ComponentDrill
T5C1.020
; #@! TA.AperFunction,Plated,PTH,ComponentDrill
T6C1.100
; #@! TA.AperFunction,Plated,PTH,ComponentDrill
T7C4.500
%
G90
G05
T1
X126.75Y-81.25
X127.0Y-83.0
X128.0Y-81.25
X128.0Y-83.0
X128.25Y-84.75
X163.5Y-109.5
X163.5Y-110.25
X164.25Y-109.5
X164.25Y-110.25
X164.75Y-60.5
X164.75Y-63.0
X174.0Y-65.5
X174.25Y-86.25
X174.5Y-82.75
X174.5Y-91.25
X174.5Y-95.5
X174.75Y-75.75
X174.75Y-78.75
X174.75Y-99.5
X175.5Y-64.5
X177.75Y-67.75
X181.5Y-94.0
X181.75Y-85.5
X181.75Y-89.75
X182.5Y-79.5
X183.5Y-88.25
X183.75Y-84.25
X184.25Y-91.75
X189.5Y-80.5
X190.82Y-86.57
X191.0Y-80.5
X191.0Y-89.0
X191.25Y-82.0
X192.25Y-83.0
T2
X138.0Y-91.0
X143.0Y-91.0
X157.0Y-91.0
X162.0Y-91.0
T3
X110.525Y-63.19
X110.525Y-65.73
X110.525Y-68.27
X110.525Y-70.81
X110.525Y-86.19
X110.525Y-88.73
X110.525Y-91.27
X110.525Y-93.81
X138.57Y-81.5
X141.11Y-81.5
X143.65Y-81.5
X146.19Y-81.5
X148.73Y-81.5
X151.27Y-81.5
X153.81Y-81.5
X156.35Y-81.5
X158.89Y-81.5
X161.43Y-81.5
T4
X118.65Y-58.11
X118.65Y-60.65
X118.65Y-63.19
X118.65Y-65.73
X118.65Y-68.27
X118.65Y-70.81
X118.65Y-73.35
X118.65Y-75.89
X118.65Y-81.11
X118.65Y-83.65
X118.65Y-86.19
X118.65Y-88.73
X118.65Y-91.27
X118.65Y-93.81
X118.65Y-96.35
X118.65Y-98.89
X126.27Y-75.89
X126.27Y-98.89
X128.81Y-75.89
X128.81Y-98.89
X131.35Y-58.11
X131.35Y-60.65
X131.35Y-63.19
X131.35Y-65.73
X131.35Y-68.27
X131.35Y-70.81
X131.35Y-73.35
X131.35Y-75.89
X131.35Y-81.11
X131.35Y-83.65
X131.35Y-86.19
X131.35Y-88.73
X131.35Y-91.27
X131.35Y-93.81
X131.35Y-96.35
X131.35Y-98.89
X138.35Y-107.735
X138.35Y-110.275
X141.46Y-60.25
X143.84Y-54.0
X144.0Y-60.25
X146.38Y-54.0
X148.92Y-54.0
X150.21Y-60.25
X151.46Y-54.0
X152.75Y-60.25
X154.0Y-54.0
X155.29Y-60.25
X157.83Y-60.25
X160.37Y-60.25
T5
X169.595Y-58.63
X169.595Y-61.17
X169.595Y-63.71
X169.595Y-66.25
X169.595Y-68.79
X169.595Y-71.33
X169.595Y-73.87
X169.595Y-76.41
X169.595Y-78.95
X169.595Y-81.49
X169.595Y-84.03
X169.595Y-86.57
X169.595Y-89.11
X169.595Y-91.65
X169.595Y-94.19
X169.595Y-96.73
X169.595Y-99.27
X169.595Y-101.81
X169.595Y-104.35
X169.595Y-106.89
X169.595Y-109.43
X169.595Y-111.97
X195.0Y-58.63
X195.0Y-61.17
X195.0Y-63.71
X195.0Y-66.25
X195.0Y-68.79
X195.0Y-71.33
X195.0Y-73.87
X195.0Y-76.41
X195.0Y-78.95
X195.0Y-81.49
X195.0Y-84.03
X195.0Y-86.57
X195.0Y-89.11
X195.0Y-91.65
X195.0Y-94.19
X195.0Y-96.73
X195.0Y-99.27
X195.0Y-101.81
X195.0Y-104.35
X195.0Y-106.89
X195.0Y-109.43
X195.0Y-111.97
T6
X147.46Y-106.75
X150.0Y-106.75
X152.54Y-106.75
T7
X121.0Y-109.05
X128.2Y-109.05
M30
