M48
; DRILL file {KiCad 9.0.6} date 2026-02-25T04:36:11+0700
; FORMAT={-:-/ absolute / metric / decimal}
; #@! TF.CreationDate,2026-02-25T04:36:11+07:00
; #@! TF.GenerationSoftware,Kicad,Pcbnew,9.0.6
; #@! TF.FileFunction,Plated,1,2,PTH
FMAT,2
METRIC
; #@! TA.AperFunction,Plated,PTH,ViaDrill
T1C0.300
; #@! TA.AperFunction,Plated,PTH,ComponentDrill
T2C0.900
; #@! TA.AperFunction,Plated,PTH,ComponentDrill
T3C1.000
; #@! TA.AperFunction,Plated,PTH,ComponentDrill
T4C1.020
; #@! TA.AperFunction,Plated,PTH,ComponentDrill
T5C1.700
%
G90
G05
T1
X101.854Y-133.35
X103.124Y-92.456
X103.505Y-111.76
X103.759Y-82.296
X103.759Y-121.412
X113.665Y-135.255
X113.665Y-144.018
X113.919Y-132.715
X114.046Y-130.175
X114.3Y-110.49
X114.3Y-115.697
X114.427Y-113.157
X116.459Y-130.175
X116.713Y-135.89
X116.967Y-132.842
X117.602Y-113.03
X117.729Y-115.697
X117.983Y-110.49
X122.555Y-64.135
X123.063Y-69.215
X129.413Y-89.154
X129.54Y-104.14
X129.667Y-92.202
X129.667Y-107.061
X129.794Y-117.856
X129.921Y-96.012
X131.445Y-84.582
X131.826Y-68.453
X132.715Y-61.468
X132.969Y-105.664
X133.35Y-85.725
X138.43Y-86.741
X138.43Y-102.548
X143.129Y-120.523
X145.542Y-130.048
X145.542Y-132.207
X146.812Y-87.249
X147.193Y-88.265
X147.447Y-132.334
X147.574Y-102.87
X148.082Y-89.662
X148.336Y-79.121
X148.336Y-130.048
X148.463Y-63.246
X148.463Y-70.993
X148.463Y-115.443
X148.844Y-53.34
X149.352Y-102.997
X153.416Y-119.38
X153.543Y-91.44
X153.924Y-85.598
X154.686Y-109.093
X156.845Y-63.246
X157.226Y-69.977
X157.988Y-78.232
X160.655Y-53.086
X160.782Y-102.743
X161.163Y-118.745
X161.798Y-124.46
X164.465Y-118.618
X164.973Y-141.478
X165.227Y-124.079
X169.037Y-124.206
X172.466Y-109.855
X173.609Y-52.959
X173.99Y-106.045
X176.53Y-108.458
X177.292Y-119.126
X177.292Y-128.524
X177.419Y-115.697
X177.546Y-122.682
X179.705Y-141.859
X181.483Y-113.792
X181.61Y-88.011
X181.864Y-91.567
X184.531Y-62.357
X185.166Y-52.578
X188.214Y-125.349
X191.643Y-129.921
X191.897Y-136.017
X195.453Y-111.379
X195.961Y-92.837
X196.215Y-104.013
T2
X107.95Y-87.63
X110.49Y-87.63
X111.76Y-55.88
X114.3Y-55.88
X120.745Y-84.102
X120.745Y-86.642
X120.745Y-89.182
X120.745Y-91.722
X120.745Y-94.262
X120.745Y-96.802
X135.985Y-84.102
X135.985Y-86.642
X135.985Y-89.182
X135.985Y-91.722
X135.985Y-94.262
X135.985Y-96.802
X143.637Y-144.202
X143.764Y-127.466
X143.764Y-135.89
X146.177Y-144.202
X146.304Y-127.466
X146.304Y-135.89
X148.717Y-144.202
X148.844Y-127.466
X148.844Y-135.89
X160.909Y-131.93
X163.449Y-131.93
X165.989Y-131.93
X168.529Y-131.93
X171.069Y-131.93
X173.609Y-131.93
X176.149Y-131.93
X178.689Y-131.93
X181.229Y-131.93
X183.769Y-131.93
T3
X105.41Y-101.077
X107.95Y-101.077
X109.22Y-111.76
X109.22Y-114.3
X109.22Y-116.84
X109.22Y-119.38
X109.22Y-128.905
X109.22Y-131.445
X109.22Y-133.985
X109.22Y-136.525
X110.49Y-101.077
X113.03Y-101.077
X122.267Y-104.168
X122.267Y-106.708
X122.267Y-109.248
X122.267Y-111.788
X122.267Y-114.328
X122.267Y-116.868
X122.267Y-119.408
X122.267Y-121.948
X122.267Y-128.27
X122.267Y-130.81
X122.267Y-133.35
X122.267Y-135.89
X122.267Y-138.43
X122.267Y-140.97
X122.267Y-143.51
X122.267Y-146.05
X129.887Y-121.948
X129.887Y-146.05
X132.427Y-121.948
X132.427Y-146.05
X134.968Y-104.168
X134.968Y-106.708
X134.968Y-109.248
X134.968Y-111.788
X134.968Y-114.328
X134.968Y-116.868
X134.968Y-119.408
X134.968Y-121.948
X134.968Y-128.27
X134.968Y-130.81
X134.968Y-133.35
X134.968Y-135.89
X134.968Y-138.43
X134.968Y-140.97
X134.968Y-143.51
X134.968Y-146.05
X171.995Y-68.67
X171.995Y-71.21
X171.995Y-73.75
X171.995Y-76.29
X174.535Y-68.67
X174.535Y-71.21
X174.535Y-73.75
X174.535Y-76.29
X183.515Y-97.9
X183.515Y-118.745
X184.15Y-106.68
X186.055Y-97.9
X186.055Y-118.745
X186.69Y-106.68
X188.595Y-97.9
X188.595Y-118.745
X189.23Y-106.68
X191.135Y-97.9
X191.135Y-118.745
T4
X142.875Y-58.545
X142.875Y-61.085
X142.875Y-63.625
X142.875Y-66.165
X142.875Y-68.705
X142.875Y-71.245
X142.875Y-73.785
X142.875Y-76.325
X142.875Y-78.865
X142.875Y-81.405
X142.875Y-83.945
X142.875Y-86.485
X142.875Y-89.025
X142.875Y-91.565
X142.875Y-94.105
X142.875Y-96.645
X142.875Y-99.185
X142.875Y-101.725
X142.875Y-104.265
X142.875Y-106.805
X142.875Y-109.345
X142.875Y-111.885
X165.735Y-58.545
X165.735Y-61.085
X165.735Y-63.625
X165.735Y-66.165
X165.735Y-68.705
X165.735Y-71.245
X165.735Y-73.785
X165.735Y-76.325
X165.735Y-78.865
X165.735Y-81.405
X165.735Y-83.945
X165.735Y-86.485
X165.735Y-89.025
X165.735Y-91.565
X165.735Y-94.105
X165.735Y-96.645
X165.735Y-99.185
X165.735Y-101.725
X165.735Y-104.265
X165.735Y-106.805
X165.735Y-109.345
X165.735Y-111.885
T5
X102.995Y-64.77
X106.655Y-64.77
X111.125Y-64.77
X114.785Y-64.77
T2
G00X121.475Y-55.03
M15
G01X121.475Y-56.03
M16
G05
G00X121.475Y-74.43
M15
G01X121.475Y-75.43
M16
G05
G00X124.015Y-55.03
M15
G01X124.015Y-56.03
M16
G05
G00X124.015Y-74.43
M15
G01X124.015Y-75.43
M16
G05
G00X132.715Y-55.03
M15
G01X132.715Y-56.03
M16
G05
G00X132.715Y-74.43
M15
G01X132.715Y-75.43
M16
G05
G00X135.155Y-55.03
M15
G01X135.155Y-56.03
M16
G05
G00X135.255Y-74.43
M15
G01X135.255Y-75.43
M16
G05
T3
G00X108.635Y-73.815
M15
G01X108.635Y-76.015
M16
G05
G00X113.135Y-79.715
M15
G01X110.935Y-79.715
M16
G05
G00X114.935Y-73.615
M15
G01X114.935Y-76.215
M16
G05
M30
