%TF.GenerationSoftware,KiCad,Pcbnew,10.0.0*%
%TF.CreationDate,2026-06-03T17:24:06+02:00*%
%TF.ProjectId,Robot,526f626f-742e-46b6-9963-61645f706362,rev?*%
%TF.SameCoordinates,Original*%
%TF.FileFunction,Soldermask,Top*%
%TF.FilePolarity,Negative*%
%FSLAX46Y46*%
G04 Gerber Fmt 4.6, Leading zero omitted, Abs format (unit mm)*
G04 Created by KiCad (PCBNEW 10.0.0) date 2026-06-03 17:24:06*
%MOMM*%
%LPD*%
G01*
G04 APERTURE LIST*
G04 Aperture macros list*
%AMRoundRect*
0 Rectangle with rounded corners*
0 $1 Rounding radius*
0 $2 $3 $4 $5 $6 $7 $8 $9 X,Y pos of 4 corners*
0 Add a 4 corners polygon primitive as box body*
4,1,4,$2,$3,$4,$5,$6,$7,$8,$9,$2,$3,0*
0 Add four circle primitives for the rounded corners*
1,1,$1+$1,$2,$3*
1,1,$1+$1,$4,$5*
1,1,$1+$1,$6,$7*
1,1,$1+$1,$8,$9*
0 Add four rect primitives between the rounded corners*
20,1,$1+$1,$2,$3,$4,$5,0*
20,1,$1+$1,$4,$5,$6,$7,0*
20,1,$1+$1,$6,$7,$8,$9,0*
20,1,$1+$1,$8,$9,$2,$3,0*%
G04 Aperture macros list end*
%ADD10R,1.700000X1.700000*%
%ADD11C,1.700000*%
%ADD12RoundRect,1.500000X-1.500000X-1.500000X1.500000X-1.500000X1.500000X1.500000X-1.500000X1.500000X0*%
%ADD13C,6.000000*%
%ADD14R,1.905000X2.000000*%
%ADD15O,1.905000X2.000000*%
%ADD16C,1.600000*%
%ADD17C,1.734000*%
%ADD18RoundRect,0.102000X0.950000X-0.950000X0.950000X0.950000X-0.950000X0.950000X-0.950000X-0.950000X0*%
%ADD19C,2.104000*%
%ADD20RoundRect,0.102000X-0.950000X-0.950000X0.950000X-0.950000X0.950000X0.950000X-0.950000X0.950000X0*%
%ADD21C,3.200000*%
%ADD22C,3.000000*%
%ADD23C,1.905000*%
G04 APERTURE END LIST*
D10*
%TO.C,J6*%
X138350000Y-110275000D03*
D11*
X138350000Y-107735000D03*
%TD*%
D10*
%TO.C,J4*%
X144000000Y-60250000D03*
D11*
X141460000Y-60250000D03*
%TD*%
D12*
%TO.C,J1*%
X121000000Y-109050000D03*
D13*
X128200000Y-109050000D03*
%TD*%
D14*
%TO.C,U1*%
X147460000Y-106750000D03*
D15*
X150000000Y-106750000D03*
X152540000Y-106750000D03*
%TD*%
D16*
%TO.C,C2*%
X143000000Y-91000000D03*
X138000000Y-91000000D03*
%TD*%
D17*
%TO.C,U3*%
X195000000Y-111970000D03*
X195000000Y-109430000D03*
X195000000Y-106890000D03*
X195000000Y-104350000D03*
X195000000Y-101810000D03*
X195000000Y-99270000D03*
X195000000Y-96730000D03*
X195000000Y-94190000D03*
X195000000Y-91650000D03*
X195000000Y-89110000D03*
X195000000Y-86570000D03*
X195000000Y-84030000D03*
X195000000Y-81490000D03*
X195000000Y-78950000D03*
X195000000Y-76410000D03*
X195000000Y-73870000D03*
X195000000Y-71330000D03*
X195000000Y-68790000D03*
X195000000Y-66250000D03*
X195000000Y-63710000D03*
X195000000Y-61170000D03*
X195000000Y-58630000D03*
X169595000Y-111970000D03*
X169595000Y-109430000D03*
X169595000Y-106890000D03*
X169595000Y-104350000D03*
X169595000Y-101810000D03*
X169595000Y-99270000D03*
X169595000Y-96730000D03*
X169595000Y-94190000D03*
X169595000Y-91650000D03*
X169595000Y-89110000D03*
X169595000Y-86570000D03*
X169595000Y-84030000D03*
X169595000Y-81490000D03*
X169595000Y-78950000D03*
X169595000Y-76410000D03*
X169595000Y-73870000D03*
X169595000Y-71330000D03*
X169595000Y-68790000D03*
X169595000Y-66250000D03*
X169595000Y-63710000D03*
X169595000Y-61170000D03*
X169595000Y-58630000D03*
%TD*%
D18*
%TO.C,J11*%
X110525000Y-63190000D03*
D19*
X110525000Y-65730000D03*
X110525000Y-68270000D03*
X110525000Y-70810000D03*
%TD*%
D10*
%TO.C,J2*%
X143840000Y-54000000D03*
D11*
X146380000Y-54000000D03*
X148920000Y-54000000D03*
X151460000Y-54000000D03*
X154000000Y-54000000D03*
%TD*%
D20*
%TO.C,U7*%
X118650000Y-58110000D03*
D19*
X118650000Y-60650000D03*
X118650000Y-63190000D03*
X118650000Y-65730000D03*
X118650000Y-68270000D03*
X118650000Y-70810000D03*
X118650000Y-73350000D03*
X118650000Y-75890000D03*
X131350000Y-58110000D03*
X131350000Y-60650000D03*
X131350000Y-63190000D03*
X131350000Y-65730000D03*
X131350000Y-68270000D03*
X131350000Y-70810000D03*
X131350000Y-73350000D03*
X131350000Y-75890000D03*
X128810000Y-75890000D03*
X126270000Y-75890000D03*
%TD*%
D18*
%TO.C,J3*%
X110525000Y-86190000D03*
D19*
X110525000Y-88730000D03*
X110525000Y-91270000D03*
X110525000Y-93810000D03*
%TD*%
D10*
%TO.C,J5*%
X150210000Y-60250000D03*
D11*
X152750000Y-60250000D03*
X155290000Y-60250000D03*
X157830000Y-60250000D03*
X160370000Y-60250000D03*
%TD*%
D21*
%TO.C,H3*%
X185000000Y-75000000D03*
%TD*%
%TO.C,H2*%
X110000000Y-110000000D03*
%TD*%
D16*
%TO.C,C1*%
X157000000Y-91000000D03*
X162000000Y-91000000D03*
%TD*%
D22*
%TO.C,U5*%
X140000000Y-70500000D03*
X160000000Y-70500000D03*
D23*
X138570000Y-81500000D03*
X141110000Y-81500000D03*
X143650000Y-81500000D03*
X146190000Y-81500000D03*
X148730000Y-81500000D03*
X151270000Y-81500000D03*
X153810000Y-81500000D03*
X156350000Y-81500000D03*
X158890000Y-81500000D03*
X161430000Y-81500000D03*
%TD*%
D21*
%TO.C,H4*%
X185000000Y-110000000D03*
%TD*%
%TO.C,H1*%
X110000000Y-55000000D03*
%TD*%
D20*
%TO.C,U2*%
X118650000Y-81110000D03*
D19*
X118650000Y-83650000D03*
X118650000Y-86190000D03*
X118650000Y-88730000D03*
X118650000Y-91270000D03*
X118650000Y-93810000D03*
X118650000Y-96350000D03*
X118650000Y-98890000D03*
X131350000Y-81110000D03*
X131350000Y-83650000D03*
X131350000Y-86190000D03*
X131350000Y-88730000D03*
X131350000Y-91270000D03*
X131350000Y-93810000D03*
X131350000Y-96350000D03*
X131350000Y-98890000D03*
X128810000Y-98890000D03*
X126270000Y-98890000D03*
%TD*%
M02*
