%TF.GenerationSoftware,KiCad,Pcbnew,9.0.6*%
%TF.CreationDate,2026-02-25T04:36:07+07:00*%
%TF.ProjectId,Robot,526f626f-742e-46b6-9963-61645f706362,rev?*%
%TF.SameCoordinates,Original*%
%TF.FileFunction,Soldermask,Bot*%
%TF.FilePolarity,Negative*%
%FSLAX46Y46*%
G04 Gerber Fmt 4.6, Leading zero omitted, Abs format (unit mm)*
G04 Created by KiCad (PCBNEW 9.0.6) date 2026-02-25 04:36:07*
%MOMM*%
%LPD*%
G01*
G04 APERTURE LIST*
G04 Aperture macros list*
%AMRoundRect*
0 Rectangle with rounded corners*
0 $1 Rounding radius*
0 $2 $3 $4 $5 $6 $7 $8 $9 X,Y pos of 4 corners*
0 Add a 4 corners polygon primitive as box body*
4,1,4,$2,$3,$4,$5,$6,$7,$8,$9,$2,$3,0*
0 Add four circle primitives for the rounded corners*
1,1,$1+$1,$2,$3*
1,1,$1+$1,$4,$5*
1,1,$1+$1,$6,$7*
1,1,$1+$1,$8,$9*
0 Add four rect primitives between the rounded corners*
20,1,$1+$1,$2,$3,$4,$5,0*
20,1,$1+$1,$4,$5,$6,$7,0*
20,1,$1+$1,$6,$7,$8,$9,0*
20,1,$1+$1,$8,$9,$2,$3,0*%
G04 Aperture macros list end*
%ADD10RoundRect,0.102000X0.754000X0.754000X-0.754000X0.754000X-0.754000X-0.754000X0.754000X-0.754000X0*%
%ADD11C,1.712000*%
%ADD12C,2.754000*%
%ADD13C,1.734000*%
%ADD14R,1.700000X1.700000*%
%ADD15C,1.700000*%
%ADD16RoundRect,0.102000X0.754000X-0.754000X0.754000X0.754000X-0.754000X0.754000X-0.754000X-0.754000X0*%
%ADD17RoundRect,0.102000X-0.754000X-0.754000X0.754000X-0.754000X0.754000X0.754000X-0.754000X0.754000X0*%
%ADD18C,1.900000*%
%ADD19C,3.200000*%
%ADD20R,2.000000X4.600000*%
%ADD21O,2.000000X4.200000*%
%ADD22O,4.200000X2.000000*%
%ADD23O,1.900000X4.000000*%
%ADD24C,1.905000*%
G04 APERTURE END LIST*
D10*
%TO.C,J5*%
X105410000Y-101076667D03*
D11*
X107950000Y-101076667D03*
X110490000Y-101076667D03*
X113030000Y-101076667D03*
%TD*%
D10*
%TO.C,J4*%
X183515000Y-97900000D03*
D11*
X186055000Y-97900000D03*
X188595000Y-97900000D03*
X191135000Y-97900000D03*
%TD*%
D12*
%TO.C,F1*%
X102995000Y-64770000D03*
X106655000Y-64770000D03*
X111125000Y-64770000D03*
X114785000Y-64770000D03*
%TD*%
D13*
%TO.C,U3*%
X165735000Y-111885000D03*
X165735000Y-109345000D03*
X165735000Y-106805000D03*
X165735000Y-104265000D03*
X165735000Y-101725000D03*
X165735000Y-99185000D03*
X165735000Y-96645000D03*
X165735000Y-94105000D03*
X165735000Y-91565000D03*
X165735000Y-89025000D03*
X165735000Y-86485000D03*
X165735000Y-83945000D03*
X165735000Y-81405000D03*
X165735000Y-78865000D03*
X165735000Y-76325000D03*
X165735000Y-73785000D03*
X165735000Y-71245000D03*
X165735000Y-68705000D03*
X165735000Y-66165000D03*
X165735000Y-63625000D03*
X165735000Y-61085000D03*
X165735000Y-58545000D03*
X142875000Y-111885000D03*
X142875000Y-109345000D03*
X142875000Y-106805000D03*
X142875000Y-104265000D03*
X142875000Y-101725000D03*
X142875000Y-99185000D03*
X142875000Y-96645000D03*
X142875000Y-94105000D03*
X142875000Y-91565000D03*
X142875000Y-89025000D03*
X142875000Y-86485000D03*
X142875000Y-83945000D03*
X142875000Y-81405000D03*
X142875000Y-78865000D03*
X142875000Y-76325000D03*
X142875000Y-73785000D03*
X142875000Y-71245000D03*
X142875000Y-68705000D03*
X142875000Y-66165000D03*
X142875000Y-63625000D03*
X142875000Y-61085000D03*
X142875000Y-58545000D03*
%TD*%
D14*
%TO.C,J6*%
X184150000Y-106680000D03*
D15*
X186690000Y-106680000D03*
X189230000Y-106680000D03*
%TD*%
D16*
%TO.C,J11*%
X109220000Y-111760000D03*
D11*
X109220000Y-114300000D03*
X109220000Y-116840000D03*
X109220000Y-119380000D03*
%TD*%
D17*
%TO.C,U7*%
X122267500Y-104168333D03*
D11*
X122267500Y-106708333D03*
X122267500Y-109248333D03*
X122267500Y-111788333D03*
X122267500Y-114328333D03*
X122267500Y-116868333D03*
X122267500Y-119408333D03*
X122267500Y-121948333D03*
X134967500Y-104168333D03*
X134967500Y-106708333D03*
X134967500Y-109248333D03*
X134967500Y-111788333D03*
X134967500Y-114328333D03*
X134967500Y-116868333D03*
X134967500Y-119408333D03*
X134967500Y-121948333D03*
X132427500Y-121948333D03*
X129887500Y-121948333D03*
%TD*%
D16*
%TO.C,J3*%
X109220000Y-128905000D03*
D11*
X109220000Y-131445000D03*
X109220000Y-133985000D03*
X109220000Y-136525000D03*
%TD*%
D10*
%TO.C,J7*%
X183515000Y-118745000D03*
D11*
X186055000Y-118745000D03*
X188595000Y-118745000D03*
X191135000Y-118745000D03*
%TD*%
D18*
%TO.C,U9*%
X135985000Y-96801667D03*
X135985000Y-94261667D03*
X135985000Y-91721667D03*
X135985000Y-89181667D03*
X135985000Y-86641667D03*
X135985000Y-84101667D03*
X120745000Y-96801667D03*
X120745000Y-94261667D03*
X120745000Y-91721667D03*
X120745000Y-89181667D03*
X120745000Y-86641667D03*
X120745000Y-84101667D03*
%TD*%
D14*
%TO.C,U1*%
X171995500Y-68670000D03*
D15*
X174535500Y-68670000D03*
X171995500Y-71210000D03*
X174535500Y-71210000D03*
X171995500Y-73750000D03*
X174535500Y-73750000D03*
X171995500Y-76290000D03*
X174535500Y-76290000D03*
%TD*%
D19*
%TO.C,H3*%
X105000000Y-145000000D03*
%TD*%
%TO.C,H2*%
X195000000Y-55000000D03*
%TD*%
D20*
%TO.C,J1*%
X114935000Y-74915000D03*
D21*
X108635000Y-74915000D03*
D22*
X112035000Y-79715000D03*
%TD*%
D23*
%TO.C,U4*%
X135155000Y-55530000D03*
X132715000Y-55530000D03*
X124015000Y-55530000D03*
X121475000Y-55530000D03*
X124015000Y-74930000D03*
X121475000Y-74930000D03*
X135255000Y-74930000D03*
X132715000Y-74930000D03*
%TD*%
D24*
%TO.C,U5*%
X183769000Y-131930000D03*
X181229000Y-131930000D03*
X178689000Y-131930000D03*
X176149000Y-131930000D03*
X173609000Y-131930000D03*
X171069000Y-131930000D03*
X168529000Y-131930000D03*
X165989000Y-131930000D03*
X163449000Y-131930000D03*
X160909000Y-131930000D03*
%TD*%
D19*
%TO.C,H4*%
X195000000Y-145000000D03*
%TD*%
%TO.C,H1*%
X105000000Y-55000000D03*
%TD*%
D17*
%TO.C,U2*%
X122267500Y-128270000D03*
D11*
X122267500Y-130810000D03*
X122267500Y-133350000D03*
X122267500Y-135890000D03*
X122267500Y-138430000D03*
X122267500Y-140970000D03*
X122267500Y-143510000D03*
X122267500Y-146050000D03*
X134967500Y-128270000D03*
X134967500Y-130810000D03*
X134967500Y-133350000D03*
X134967500Y-135890000D03*
X134967500Y-138430000D03*
X134967500Y-140970000D03*
X134967500Y-143510000D03*
X134967500Y-146050000D03*
X132427500Y-146050000D03*
X129887500Y-146050000D03*
%TD*%
M02*
