%TF.GenerationSoftware,KiCad,Pcbnew,9.0.6*%
%TF.CreationDate,2026-02-25T04:49:12+07:00*%
%TF.ProjectId,solder_test_board,736f6c64-6572-45f7-9465-73745f626f61,rev?*%
%TF.SameCoordinates,Original*%
%TF.FileFunction,Soldermask,Top*%
%TF.FilePolarity,Negative*%
%FSLAX46Y46*%
G04 Gerber Fmt 4.6, Leading zero omitted, Abs format (unit mm)*
G04 Created by KiCad (PCBNEW 9.0.6) date 2026-02-25 04:49:12*
%MOMM*%
%LPD*%
G01*
G04 APERTURE LIST*
G04 Aperture macros list*
%AMRoundRect*
0 Rectangle with rounded corners*
0 $1 Rounding radius*
0 $2 $3 $4 $5 $6 $7 $8 $9 X,Y pos of 4 corners*
0 Add a 4 corners polygon primitive as box body*
4,1,4,$2,$3,$4,$5,$6,$7,$8,$9,$2,$3,0*
0 Add four circle primitives for the rounded corners*
1,1,$1+$1,$2,$3*
1,1,$1+$1,$4,$5*
1,1,$1+$1,$6,$7*
1,1,$1+$1,$8,$9*
0 Add four rect primitives between the rounded corners*
20,1,$1+$1,$2,$3,$4,$5,0*
20,1,$1+$1,$4,$5,$6,$7,0*
20,1,$1+$1,$6,$7,$8,$9,0*
20,1,$1+$1,$8,$9,$2,$3,0*%
G04 Aperture macros list end*
%ADD10RoundRect,0.135000X0.185000X-0.135000X0.185000X0.135000X-0.185000X0.135000X-0.185000X-0.135000X0*%
%ADD11RoundRect,0.135000X-0.185000X0.135000X-0.185000X-0.135000X0.185000X-0.135000X0.185000X0.135000X0*%
%ADD12RoundRect,0.135000X-0.135000X-0.185000X0.135000X-0.185000X0.135000X0.185000X-0.135000X0.185000X0*%
%ADD13R,1.700000X1.700000*%
%ADD14C,1.700000*%
G04 APERTURE END LIST*
D10*
%TO.C,R17*%
X42291000Y-37844000D03*
X42291000Y-38864000D03*
%TD*%
%TO.C,R21*%
X47752000Y-38864000D03*
X47752000Y-37844000D03*
%TD*%
D11*
%TO.C,R20*%
X46355000Y-37844000D03*
X46355000Y-38864000D03*
%TD*%
D10*
%TO.C,R19*%
X45085000Y-38864000D03*
X45085000Y-37844000D03*
%TD*%
D11*
%TO.C,R18*%
X43688000Y-37844000D03*
X43688000Y-38864000D03*
%TD*%
%TO.C,R16*%
X40767000Y-37844000D03*
X40767000Y-38864000D03*
%TD*%
D10*
%TO.C,R15*%
X39327000Y-38864000D03*
X39327000Y-37844000D03*
%TD*%
%TO.C,R14*%
X49786000Y-32516000D03*
X49786000Y-31496000D03*
%TD*%
D12*
%TO.C,R13*%
X47286000Y-32006000D03*
X48306000Y-32006000D03*
%TD*%
D10*
%TO.C,R12*%
X45806000Y-32516000D03*
X45806000Y-31496000D03*
%TD*%
D12*
%TO.C,R11*%
X43306000Y-32006000D03*
X44326000Y-32006000D03*
%TD*%
D10*
%TO.C,R10*%
X41826000Y-32516000D03*
X41826000Y-31496000D03*
%TD*%
D12*
%TO.C,R9*%
X39326000Y-32006000D03*
X40346000Y-32006000D03*
%TD*%
D10*
%TO.C,R8*%
X37846000Y-32516000D03*
X37846000Y-31496000D03*
%TD*%
D13*
%TO.C,J3*%
X33020000Y-37211000D03*
D14*
X33020000Y-39751000D03*
%TD*%
D13*
%TO.C,J2*%
X33020000Y-33020000D03*
D14*
X33020000Y-30480000D03*
%TD*%
D10*
%TO.C,R7*%
X50038000Y-25781000D03*
X50038000Y-24761000D03*
%TD*%
%TO.C,R6*%
X48048000Y-25781000D03*
X48048000Y-24761000D03*
%TD*%
%TO.C,R5*%
X46058000Y-25781000D03*
X46058000Y-24761000D03*
%TD*%
%TO.C,R4*%
X44068000Y-25781000D03*
X44068000Y-24761000D03*
%TD*%
%TO.C,R3*%
X42078000Y-25781000D03*
X42078000Y-24761000D03*
%TD*%
%TO.C,R2*%
X40088000Y-25781000D03*
X40088000Y-24761000D03*
%TD*%
%TO.C,R1*%
X38098000Y-25781000D03*
X38098000Y-24761000D03*
%TD*%
D13*
%TO.C,J1*%
X33018000Y-26416000D03*
D14*
X33018000Y-23876000D03*
%TD*%
M02*
