%TF.GenerationSoftware,KiCad,Pcbnew,9.0.6*%
%TF.CreationDate,2026-02-25T04:49:12+07:00*%
%TF.ProjectId,solder_test_board,736f6c64-6572-45f7-9465-73745f626f61,rev?*%
%TF.SameCoordinates,Original*%
%TF.FileFunction,Legend,Top*%
%TF.FilePolarity,Positive*%
%FSLAX46Y46*%
G04 Gerber Fmt 4.6, Leading zero omitted, Abs format (unit mm)*
G04 Created by KiCad (PCBNEW 9.0.6) date 2026-02-25 04:49:12*
%MOMM*%
%LPD*%
G01*
G04 APERTURE LIST*
%ADD10C,0.120000*%
G04 APERTURE END LIST*
D10*
%TO.C,R17*%
X42671000Y-38507641D02*
X42671000Y-38200359D01*
X41911000Y-38507641D02*
X41911000Y-38200359D01*
%TO.C,R21*%
X47372000Y-38507641D02*
X47372000Y-38200359D01*
X48132000Y-38507641D02*
X48132000Y-38200359D01*
%TO.C,R20*%
X46735000Y-38200359D02*
X46735000Y-38507641D01*
X45975000Y-38200359D02*
X45975000Y-38507641D01*
%TO.C,R19*%
X44705000Y-38507641D02*
X44705000Y-38200359D01*
X45465000Y-38507641D02*
X45465000Y-38200359D01*
%TO.C,R18*%
X44068000Y-38200359D02*
X44068000Y-38507641D01*
X43308000Y-38200359D02*
X43308000Y-38507641D01*
%TO.C,R16*%
X41147000Y-38200359D02*
X41147000Y-38507641D01*
X40387000Y-38200359D02*
X40387000Y-38507641D01*
%TO.C,R15*%
X38947000Y-38507641D02*
X38947000Y-38200359D01*
X39707000Y-38507641D02*
X39707000Y-38200359D01*
%TO.C,R14*%
X49406000Y-32159641D02*
X49406000Y-31852359D01*
X50166000Y-32159641D02*
X50166000Y-31852359D01*
%TO.C,R13*%
X47642359Y-31626000D02*
X47949641Y-31626000D01*
X47642359Y-32386000D02*
X47949641Y-32386000D01*
%TO.C,R12*%
X45426000Y-32159641D02*
X45426000Y-31852359D01*
X46186000Y-32159641D02*
X46186000Y-31852359D01*
%TO.C,R11*%
X43662359Y-31626000D02*
X43969641Y-31626000D01*
X43662359Y-32386000D02*
X43969641Y-32386000D01*
%TO.C,R10*%
X41446000Y-32159641D02*
X41446000Y-31852359D01*
X42206000Y-32159641D02*
X42206000Y-31852359D01*
%TO.C,R9*%
X39682359Y-31626000D02*
X39989641Y-31626000D01*
X39682359Y-32386000D02*
X39989641Y-32386000D01*
%TO.C,R8*%
X37466000Y-32159641D02*
X37466000Y-31852359D01*
X38226000Y-32159641D02*
X38226000Y-31852359D01*
%TO.C,J3*%
X31640000Y-35831000D02*
X33020000Y-35831000D01*
X31640000Y-37211000D02*
X31640000Y-35831000D01*
X31640000Y-38481000D02*
X31640000Y-41131000D01*
X31640000Y-38481000D02*
X34400000Y-38481000D01*
X31640000Y-41131000D02*
X34400000Y-41131000D01*
X34400000Y-38481000D02*
X34400000Y-41131000D01*
%TO.C,J2*%
X34400000Y-34400000D02*
X33020000Y-34400000D01*
X34400000Y-33020000D02*
X34400000Y-34400000D01*
X34400000Y-31750000D02*
X34400000Y-29100000D01*
X34400000Y-31750000D02*
X31640000Y-31750000D01*
X34400000Y-29100000D02*
X31640000Y-29100000D01*
X31640000Y-31750000D02*
X31640000Y-29100000D01*
%TO.C,R7*%
X49658000Y-25424641D02*
X49658000Y-25117359D01*
X50418000Y-25424641D02*
X50418000Y-25117359D01*
%TO.C,R6*%
X47668000Y-25424641D02*
X47668000Y-25117359D01*
X48428000Y-25424641D02*
X48428000Y-25117359D01*
%TO.C,R5*%
X45678000Y-25424641D02*
X45678000Y-25117359D01*
X46438000Y-25424641D02*
X46438000Y-25117359D01*
%TO.C,R4*%
X43688000Y-25424641D02*
X43688000Y-25117359D01*
X44448000Y-25424641D02*
X44448000Y-25117359D01*
%TO.C,R3*%
X41698000Y-25424641D02*
X41698000Y-25117359D01*
X42458000Y-25424641D02*
X42458000Y-25117359D01*
%TO.C,R2*%
X39708000Y-25424641D02*
X39708000Y-25117359D01*
X40468000Y-25424641D02*
X40468000Y-25117359D01*
%TO.C,R1*%
X37718000Y-25424641D02*
X37718000Y-25117359D01*
X38478000Y-25424641D02*
X38478000Y-25117359D01*
%TO.C,J1*%
X34398000Y-27796000D02*
X33018000Y-27796000D01*
X34398000Y-26416000D02*
X34398000Y-27796000D01*
X34398000Y-25146000D02*
X34398000Y-22496000D01*
X34398000Y-25146000D02*
X31638000Y-25146000D01*
X34398000Y-22496000D02*
X31638000Y-22496000D01*
X31638000Y-25146000D02*
X31638000Y-22496000D01*
%TD*%
M02*
