%TF.GenerationSoftware,KiCad,Pcbnew,9.0.6*%
%TF.CreationDate,2026-02-25T04:49:12+07:00*%
%TF.ProjectId,solder_test_board,736f6c64-6572-45f7-9465-73745f626f61,rev?*%
%TF.SameCoordinates,Original*%
%TF.FileFunction,Copper,L1,Top*%
%TF.FilePolarity,Positive*%
%FSLAX46Y46*%
G04 Gerber Fmt 4.6, Leading zero omitted, Abs format (unit mm)*
G04 Created by KiCad (PCBNEW 9.0.6) date 2026-02-25 04:49:12*
%MOMM*%
%LPD*%
G01*
G04 APERTURE LIST*
G04 Aperture macros list*
%AMRoundRect*
0 Rectangle with rounded corners*
0 $1 Rounding radius*
0 $2 $3 $4 $5 $6 $7 $8 $9 X,Y pos of 4 corners*
0 Add a 4 corners polygon primitive as box body*
4,1,4,$2,$3,$4,$5,$6,$7,$8,$9,$2,$3,0*
0 Add four circle primitives for the rounded corners*
1,1,$1+$1,$2,$3*
1,1,$1+$1,$4,$5*
1,1,$1+$1,$6,$7*
1,1,$1+$1,$8,$9*
0 Add four rect primitives between the rounded corners*
20,1,$1+$1,$2,$3,$4,$5,0*
20,1,$1+$1,$4,$5,$6,$7,0*
20,1,$1+$1,$6,$7,$8,$9,0*
20,1,$1+$1,$8,$9,$2,$3,0*%
G04 Aperture macros list end*
%TA.AperFunction,SMDPad,CuDef*%
%ADD10RoundRect,0.135000X0.185000X-0.135000X0.185000X0.135000X-0.185000X0.135000X-0.185000X-0.135000X0*%
%TD*%
%TA.AperFunction,SMDPad,CuDef*%
%ADD11RoundRect,0.135000X-0.185000X0.135000X-0.185000X-0.135000X0.185000X-0.135000X0.185000X0.135000X0*%
%TD*%
%TA.AperFunction,SMDPad,CuDef*%
%ADD12RoundRect,0.135000X-0.135000X-0.185000X0.135000X-0.185000X0.135000X0.185000X-0.135000X0.185000X0*%
%TD*%
%TA.AperFunction,ComponentPad*%
%ADD13R,1.700000X1.700000*%
%TD*%
%TA.AperFunction,ComponentPad*%
%ADD14C,1.700000*%
%TD*%
%TA.AperFunction,Conductor*%
%ADD15C,0.200000*%
%TD*%
G04 APERTURE END LIST*
D10*
%TO.P,R17,2*%
%TO.N,Net-(R17-Pad2)*%
X42291000Y-37844000D03*
%TO.P,R17,1*%
%TO.N,Net-(R16-Pad2)*%
X42291000Y-38864000D03*
%TD*%
%TO.P,R21,1*%
%TO.N,Net-(R20-Pad2)*%
X47752000Y-38864000D03*
%TO.P,R21,2*%
%TO.N,GND*%
X47752000Y-37844000D03*
%TD*%
D11*
%TO.P,R20,1*%
%TO.N,Net-(R19-Pad2)*%
X46355000Y-37844000D03*
%TO.P,R20,2*%
%TO.N,Net-(R20-Pad2)*%
X46355000Y-38864000D03*
%TD*%
D10*
%TO.P,R19,1*%
%TO.N,Net-(R18-Pad2)*%
X45085000Y-38864000D03*
%TO.P,R19,2*%
%TO.N,Net-(R19-Pad2)*%
X45085000Y-37844000D03*
%TD*%
D11*
%TO.P,R18,1*%
%TO.N,Net-(R17-Pad2)*%
X43688000Y-37844000D03*
%TO.P,R18,2*%
%TO.N,Net-(R18-Pad2)*%
X43688000Y-38864000D03*
%TD*%
%TO.P,R16,1*%
%TO.N,Net-(R15-Pad2)*%
X40767000Y-37844000D03*
%TO.P,R16,2*%
%TO.N,Net-(R16-Pad2)*%
X40767000Y-38864000D03*
%TD*%
D10*
%TO.P,R15,1*%
%TO.N,Net-(J3-Pin_1)*%
X39327000Y-38864000D03*
%TO.P,R15,2*%
%TO.N,Net-(R15-Pad2)*%
X39327000Y-37844000D03*
%TD*%
%TO.P,R14,1*%
%TO.N,Net-(R13-Pad2)*%
X49786000Y-32516000D03*
%TO.P,R14,2*%
%TO.N,GND*%
X49786000Y-31496000D03*
%TD*%
D12*
%TO.P,R13,1*%
%TO.N,Net-(R12-Pad2)*%
X47286000Y-32006000D03*
%TO.P,R13,2*%
%TO.N,Net-(R13-Pad2)*%
X48306000Y-32006000D03*
%TD*%
D10*
%TO.P,R12,1*%
%TO.N,Net-(R11-Pad2)*%
X45806000Y-32516000D03*
%TO.P,R12,2*%
%TO.N,Net-(R12-Pad2)*%
X45806000Y-31496000D03*
%TD*%
D12*
%TO.P,R11,1*%
%TO.N,Net-(R10-Pad2)*%
X43306000Y-32006000D03*
%TO.P,R11,2*%
%TO.N,Net-(R11-Pad2)*%
X44326000Y-32006000D03*
%TD*%
D10*
%TO.P,R10,1*%
%TO.N,Net-(R10-Pad1)*%
X41826000Y-32516000D03*
%TO.P,R10,2*%
%TO.N,Net-(R10-Pad2)*%
X41826000Y-31496000D03*
%TD*%
D12*
%TO.P,R9,1*%
%TO.N,Net-(R8-Pad2)*%
X39326000Y-32006000D03*
%TO.P,R9,2*%
%TO.N,Net-(R10-Pad1)*%
X40346000Y-32006000D03*
%TD*%
D10*
%TO.P,R8,1*%
%TO.N,Net-(J2-Pin_1)*%
X37846000Y-32516000D03*
%TO.P,R8,2*%
%TO.N,Net-(R8-Pad2)*%
X37846000Y-31496000D03*
%TD*%
D13*
%TO.P,J3,1,Pin_1*%
%TO.N,Net-(J3-Pin_1)*%
X33020000Y-37211000D03*
D14*
%TO.P,J3,2,Pin_2*%
%TO.N,GND*%
X33020000Y-39751000D03*
%TD*%
D13*
%TO.P,J2,1,Pin_1*%
%TO.N,Net-(J2-Pin_1)*%
X33020000Y-33020000D03*
D14*
%TO.P,J2,2,Pin_2*%
%TO.N,GND*%
X33020000Y-30480000D03*
%TD*%
D10*
%TO.P,R7,1*%
%TO.N,Net-(R6-Pad2)*%
X50038000Y-25781000D03*
%TO.P,R7,2*%
%TO.N,GND*%
X50038000Y-24761000D03*
%TD*%
%TO.P,R6,1*%
%TO.N,Net-(R5-Pad2)*%
X48048000Y-25781000D03*
%TO.P,R6,2*%
%TO.N,Net-(R6-Pad2)*%
X48048000Y-24761000D03*
%TD*%
%TO.P,R5,1*%
%TO.N,Net-(R4-Pad2)*%
X46058000Y-25781000D03*
%TO.P,R5,2*%
%TO.N,Net-(R5-Pad2)*%
X46058000Y-24761000D03*
%TD*%
%TO.P,R4,1*%
%TO.N,Net-(R3-Pad2)*%
X44068000Y-25781000D03*
%TO.P,R4,2*%
%TO.N,Net-(R4-Pad2)*%
X44068000Y-24761000D03*
%TD*%
%TO.P,R3,1*%
%TO.N,Net-(R2-Pad2)*%
X42078000Y-25781000D03*
%TO.P,R3,2*%
%TO.N,Net-(R3-Pad2)*%
X42078000Y-24761000D03*
%TD*%
%TO.P,R2,1*%
%TO.N,Net-(R1-Pad2)*%
X40088000Y-25781000D03*
%TO.P,R2,2*%
%TO.N,Net-(R2-Pad2)*%
X40088000Y-24761000D03*
%TD*%
%TO.P,R1,1*%
%TO.N,Net-(J1-Pin_1)*%
X38098000Y-25781000D03*
%TO.P,R1,2*%
%TO.N,Net-(R1-Pad2)*%
X38098000Y-24761000D03*
%TD*%
D13*
%TO.P,J1,1,Pin_1*%
%TO.N,Net-(J1-Pin_1)*%
X33018000Y-26416000D03*
D14*
%TO.P,J1,2,Pin_2*%
%TO.N,GND*%
X33018000Y-23876000D03*
%TD*%
D15*
%TO.N,GND*%
X48373000Y-38465000D02*
X47752000Y-37844000D01*
X47805340Y-39751000D02*
X48373000Y-39183340D01*
X33020000Y-39751000D02*
X47805340Y-39751000D01*
X48373000Y-39183340D02*
X48373000Y-38465000D01*
%TO.N,Net-(J3-Pin_1)*%
X37674000Y-37211000D02*
X39327000Y-38864000D01*
X33020000Y-37211000D02*
X37674000Y-37211000D01*
%TO.N,Net-(R20-Pad2)*%
X46355000Y-38864000D02*
X47752000Y-38864000D01*
%TO.N,Net-(R19-Pad2)*%
X45085000Y-37844000D02*
X46355000Y-37844000D01*
%TO.N,Net-(R18-Pad2)*%
X43688000Y-38864000D02*
X45085000Y-38864000D01*
%TO.N,Net-(R17-Pad2)*%
X43688000Y-37844000D02*
X42291000Y-37844000D01*
%TO.N,Net-(R16-Pad2)*%
X40767000Y-38864000D02*
X42291000Y-38864000D01*
%TO.N,Net-(R15-Pad2)*%
X39327000Y-37844000D02*
X40767000Y-37844000D01*
%TO.N,GND*%
X48770000Y-30480000D02*
X33020000Y-30480000D01*
X49786000Y-31496000D02*
X48770000Y-30480000D01*
%TO.N,Net-(R13-Pad2)*%
X49276000Y-32006000D02*
X49786000Y-32516000D01*
X48306000Y-32006000D02*
X49276000Y-32006000D01*
%TO.N,Net-(R12-Pad2)*%
X46776000Y-31496000D02*
X47286000Y-32006000D01*
X45806000Y-31496000D02*
X46776000Y-31496000D01*
%TO.N,Net-(R11-Pad2)*%
X45296000Y-32006000D02*
X45806000Y-32516000D01*
X44326000Y-32006000D02*
X45296000Y-32006000D01*
%TO.N,Net-(R10-Pad2)*%
X42796000Y-31496000D02*
X43306000Y-32006000D01*
X41826000Y-31496000D02*
X42796000Y-31496000D01*
%TO.N,Net-(R10-Pad1)*%
X41316000Y-32006000D02*
X41826000Y-32516000D01*
X40346000Y-32006000D02*
X41316000Y-32006000D01*
%TO.N,Net-(R8-Pad2)*%
X38816000Y-31496000D02*
X39326000Y-32006000D01*
X37846000Y-31496000D02*
X38816000Y-31496000D01*
%TO.N,Net-(J2-Pin_1)*%
X37342000Y-33020000D02*
X37846000Y-32516000D01*
X33020000Y-33020000D02*
X37342000Y-33020000D01*
%TO.N,GND*%
X49153000Y-23876000D02*
X33018000Y-23876000D01*
X50038000Y-24761000D02*
X49153000Y-23876000D01*
%TO.N,Net-(R6-Pad2)*%
X48048000Y-24761000D02*
X49018000Y-24761000D01*
X49018000Y-24761000D02*
X50038000Y-25781000D01*
%TO.N,Net-(R5-Pad2)*%
X47028000Y-24761000D02*
X48048000Y-25781000D01*
X46058000Y-24761000D02*
X47028000Y-24761000D01*
%TO.N,Net-(R4-Pad2)*%
X45038000Y-24761000D02*
X46058000Y-25781000D01*
X44068000Y-24761000D02*
X45038000Y-24761000D01*
%TO.N,Net-(R3-Pad2)*%
X43048000Y-24761000D02*
X44068000Y-25781000D01*
X42078000Y-24761000D02*
X43048000Y-24761000D01*
%TO.N,Net-(R2-Pad2)*%
X41058000Y-24761000D02*
X42078000Y-25781000D01*
X40088000Y-24761000D02*
X41058000Y-24761000D01*
%TO.N,Net-(R1-Pad2)*%
X39068000Y-24761000D02*
X40088000Y-25781000D01*
X38098000Y-24761000D02*
X39068000Y-24761000D01*
%TO.N,Net-(J1-Pin_1)*%
X37463000Y-26416000D02*
X38098000Y-25781000D01*
X33018000Y-26416000D02*
X37463000Y-26416000D01*
%TD*%
%TA.AperFunction,Conductor*%
%TO.N,GND*%
G36*
X55830539Y-20713185D02*
G01*
X55876294Y-20765989D01*
X55887500Y-20817500D01*
X55887500Y-42936500D01*
X55867815Y-43003539D01*
X55815011Y-43049294D01*
X55763500Y-43060500D01*
X27421500Y-43060500D01*
X27354461Y-43040815D01*
X27308706Y-42988011D01*
X27297500Y-42936500D01*
X27297500Y-36313135D01*
X31669500Y-36313135D01*
X31669500Y-38108870D01*
X31669501Y-38108876D01*
X31675908Y-38168483D01*
X31726202Y-38303328D01*
X31726206Y-38303335D01*
X31812452Y-38418544D01*
X31812455Y-38418547D01*
X31927664Y-38504793D01*
X31927671Y-38504797D01*
X31972618Y-38521561D01*
X32062517Y-38555091D01*
X32122127Y-38561500D01*
X32132685Y-38561499D01*
X32199723Y-38581179D01*
X32220372Y-38597818D01*
X32890591Y-39268037D01*
X32827007Y-39285075D01*
X32712993Y-39350901D01*
X32619901Y-39443993D01*
X32554075Y-39558007D01*
X32537037Y-39621591D01*
X31904728Y-38989282D01*
X31904727Y-38989282D01*
X31865380Y-39043439D01*
X31768904Y-39232782D01*
X31703242Y-39434869D01*
X31703242Y-39434872D01*
X31670000Y-39644753D01*
X31670000Y-39857246D01*
X31703242Y-40067127D01*
X31703242Y-40067130D01*
X31768904Y-40269217D01*
X31865375Y-40458550D01*
X31904728Y-40512716D01*
X32537037Y-39880408D01*
X32554075Y-39943993D01*
X32619901Y-40058007D01*
X32712993Y-40151099D01*
X32827007Y-40216925D01*
X32890590Y-40233962D01*
X32258282Y-40866269D01*
X32258282Y-40866270D01*
X32312449Y-40905624D01*
X32501782Y-41002095D01*
X32703870Y-41067757D01*
X32913754Y-41101000D01*
X33126246Y-41101000D01*
X33336127Y-41067757D01*
X33336130Y-41067757D01*
X33538217Y-41002095D01*
X33727554Y-40905622D01*
X33781716Y-40866270D01*
X33781717Y-40866270D01*
X33149408Y-40233962D01*
X33212993Y-40216925D01*
X33327007Y-40151099D01*
X33420099Y-40058007D01*
X33485925Y-39943993D01*
X33502962Y-39880409D01*
X34135270Y-40512717D01*
X34135270Y-40512716D01*
X34174622Y-40458554D01*
X34271095Y-40269217D01*
X34336757Y-40067130D01*
X34336757Y-40067127D01*
X34370000Y-39857246D01*
X34370000Y-39644753D01*
X34336757Y-39434872D01*
X34336757Y-39434869D01*
X34271095Y-39232782D01*
X34174624Y-39043449D01*
X34135270Y-38989282D01*
X34135269Y-38989282D01*
X33502962Y-39621590D01*
X33485925Y-39558007D01*
X33420099Y-39443993D01*
X33327007Y-39350901D01*
X33212993Y-39285075D01*
X33149409Y-39268037D01*
X33819627Y-38597818D01*
X33880950Y-38564333D01*
X33907307Y-38561499D01*
X33917872Y-38561499D01*
X33977483Y-38555091D01*
X34112331Y-38504796D01*
X34227546Y-38418546D01*
X34313796Y-38303331D01*
X34364091Y-38168483D01*
X34370500Y-38108873D01*
X34370500Y-37935500D01*
X34390185Y-37868461D01*
X34442989Y-37822706D01*
X34494500Y-37811500D01*
X37373903Y-37811500D01*
X37440942Y-37831185D01*
X37461584Y-37847819D01*
X38470181Y-38856416D01*
X38503666Y-38917739D01*
X38506500Y-38944096D01*
X38506500Y-39063168D01*
X38506501Y-39063192D01*
X38509335Y-39099205D01*
X38554129Y-39253388D01*
X38554131Y-39253393D01*
X38635863Y-39391595D01*
X38635869Y-39391603D01*
X38749396Y-39505130D01*
X38749400Y-39505133D01*
X38749402Y-39505135D01*
X38887607Y-39586869D01*
X38928268Y-39598682D01*
X39041791Y-39631664D01*
X39041794Y-39631664D01*
X39041796Y-39631665D01*
X39077819Y-39634500D01*
X39576180Y-39634499D01*
X39612204Y-39631665D01*
X39766393Y-39586869D01*
X39904598Y-39505135D01*
X39925548Y-39484185D01*
X39959319Y-39450415D01*
X40020642Y-39416930D01*
X40090334Y-39421914D01*
X40134681Y-39450415D01*
X40189396Y-39505130D01*
X40189400Y-39505133D01*
X40189402Y-39505135D01*
X40327607Y-39586869D01*
X40368268Y-39598682D01*
X40481791Y-39631664D01*
X40481794Y-39631664D01*
X40481796Y-39631665D01*
X40517819Y-39634500D01*
X41016180Y-39634499D01*
X41052204Y-39631665D01*
X41206393Y-39586869D01*
X41344598Y-39505135D01*
X41344603Y-39505130D01*
X41348915Y-39500819D01*
X41375842Y-39486115D01*
X41401661Y-39469523D01*
X41407861Y-39468631D01*
X41410238Y-39467334D01*
X41436596Y-39464500D01*
X41621404Y-39464500D01*
X41688443Y-39484185D01*
X41709085Y-39500819D01*
X41713396Y-39505130D01*
X41713400Y-39505133D01*
X41713402Y-39505135D01*
X41851607Y-39586869D01*
X41892268Y-39598682D01*
X42005791Y-39631664D01*
X42005794Y-39631664D01*
X42005796Y-39631665D01*
X42041819Y-39634500D01*
X42540180Y-39634499D01*
X42576204Y-39631665D01*
X42730393Y-39586869D01*
X42868598Y-39505135D01*
X42901818Y-39471915D01*
X42963140Y-39438429D01*
X43032832Y-39443413D01*
X43077182Y-39471915D01*
X43110396Y-39505130D01*
X43110400Y-39505133D01*
X43110402Y-39505135D01*
X43248607Y-39586869D01*
X43289268Y-39598682D01*
X43402791Y-39631664D01*
X43402794Y-39631664D01*
X43402796Y-39631665D01*
X43438819Y-39634500D01*
X43937180Y-39634499D01*
X43973204Y-39631665D01*
X44127393Y-39586869D01*
X44265598Y-39505135D01*
X44265603Y-39505130D01*
X44269915Y-39500819D01*
X44296842Y-39486115D01*
X44322661Y-39469523D01*
X44328861Y-39468631D01*
X44331238Y-39467334D01*
X44357596Y-39464500D01*
X44415404Y-39464500D01*
X44482443Y-39484185D01*
X44503085Y-39500819D01*
X44507396Y-39505130D01*
X44507400Y-39505133D01*
X44507402Y-39505135D01*
X44645607Y-39586869D01*
X44686268Y-39598682D01*
X44799791Y-39631664D01*
X44799794Y-39631664D01*
X44799796Y-39631665D01*
X44835819Y-39634500D01*
X45334180Y-39634499D01*
X45370204Y-39631665D01*
X45524393Y-39586869D01*
X45656879Y-39508516D01*
X45724603Y-39491334D01*
X45783120Y-39508516D01*
X45915607Y-39586869D01*
X45956268Y-39598682D01*
X46069791Y-39631664D01*
X46069794Y-39631664D01*
X46069796Y-39631665D01*
X46105819Y-39634500D01*
X46604180Y-39634499D01*
X46640204Y-39631665D01*
X46794393Y-39586869D01*
X46932598Y-39505135D01*
X46932603Y-39505130D01*
X46936915Y-39500819D01*
X46963842Y-39486115D01*
X46989661Y-39469523D01*
X46995861Y-39468631D01*
X46998238Y-39467334D01*
X47024596Y-39464500D01*
X47082404Y-39464500D01*
X47149443Y-39484185D01*
X47170085Y-39500819D01*
X47174396Y-39505130D01*
X47174400Y-39505133D01*
X47174402Y-39505135D01*
X47312607Y-39586869D01*
X47353268Y-39598682D01*
X47466791Y-39631664D01*
X47466794Y-39631664D01*
X47466796Y-39631665D01*
X47502819Y-39634500D01*
X48001180Y-39634499D01*
X48037204Y-39631665D01*
X48191393Y-39586869D01*
X48329598Y-39505135D01*
X48443135Y-39391598D01*
X48524869Y-39253393D01*
X48569665Y-39099204D01*
X48572500Y-39063181D01*
X48572499Y-38664820D01*
X48569665Y-38628796D01*
X48524869Y-38474607D01*
X48490581Y-38416629D01*
X48473398Y-38348905D01*
X48490582Y-38290386D01*
X48524404Y-38233196D01*
X48524405Y-38233194D01*
X48564844Y-38094000D01*
X48012409Y-38094000D01*
X48011954Y-38093999D01*
X48007305Y-38093981D01*
X48001181Y-38093500D01*
X47875886Y-38093500D01*
X47875545Y-38093499D01*
X47842216Y-38083579D01*
X47808961Y-38073815D01*
X47808806Y-38073636D01*
X47808579Y-38073569D01*
X47785867Y-38047163D01*
X47763206Y-38021011D01*
X47763149Y-38020750D01*
X47763018Y-38020598D01*
X47762840Y-38019331D01*
X47752000Y-37969500D01*
X47752000Y-37844000D01*
X47626000Y-37844000D01*
X47558961Y-37824315D01*
X47513206Y-37771511D01*
X47502000Y-37720000D01*
X47502000Y-37594000D01*
X48002000Y-37594000D01*
X48564844Y-37594000D01*
X48524404Y-37454805D01*
X48442738Y-37316714D01*
X48442731Y-37316705D01*
X48329294Y-37203268D01*
X48329285Y-37203261D01*
X48191191Y-37121593D01*
X48191188Y-37121592D01*
X48037130Y-37076834D01*
X48002000Y-37074068D01*
X48002000Y-37594000D01*
X47502000Y-37594000D01*
X47502000Y-37074068D01*
X47501999Y-37074068D01*
X47466869Y-37076834D01*
X47466868Y-37076834D01*
X47312811Y-37121592D01*
X47312808Y-37121593D01*
X47174714Y-37203261D01*
X47174704Y-37203269D01*
X47141533Y-37236440D01*
X47080210Y-37269925D01*
X47010518Y-37264939D01*
X46966171Y-37236438D01*
X46932603Y-37202869D01*
X46932595Y-37202863D01*
X46794393Y-37121131D01*
X46794388Y-37121129D01*
X46640208Y-37076335D01*
X46640202Y-37076334D01*
X46604181Y-37073500D01*
X46105830Y-37073500D01*
X46105808Y-37073501D01*
X46069794Y-37076335D01*
X45915611Y-37121129D01*
X45915602Y-37121133D01*
X45783120Y-37199482D01*
X45715396Y-37216665D01*
X45656880Y-37199482D01*
X45524397Y-37121133D01*
X45524388Y-37121129D01*
X45370208Y-37076335D01*
X45370202Y-37076334D01*
X45334181Y-37073500D01*
X44835830Y-37073500D01*
X44835808Y-37073501D01*
X44799794Y-37076335D01*
X44645611Y-37121129D01*
X44645606Y-37121131D01*
X44507404Y-37202863D01*
X44507396Y-37202869D01*
X44474181Y-37236085D01*
X44412858Y-37269570D01*
X44343166Y-37264586D01*
X44298819Y-37236085D01*
X44265603Y-37202869D01*
X44265595Y-37202863D01*
X44127393Y-37121131D01*
X44127388Y-37121129D01*
X43973208Y-37076335D01*
X43973202Y-37076334D01*
X43937181Y-37073500D01*
X43438830Y-37073500D01*
X43438808Y-37073501D01*
X43402794Y-37076335D01*
X43248611Y-37121129D01*
X43248606Y-37121131D01*
X43110404Y-37202863D01*
X43110396Y-37202869D01*
X43106085Y-37207181D01*
X43079157Y-37221884D01*
X43053339Y-37238477D01*
X43047138Y-37239368D01*
X43044762Y-37240666D01*
X43018404Y-37243500D01*
X42960596Y-37243500D01*
X42893557Y-37223815D01*
X42872915Y-37207181D01*
X42868603Y-37202869D01*
X42868595Y-37202863D01*
X42730393Y-37121131D01*
X42730388Y-37121129D01*
X42576208Y-37076335D01*
X42576202Y-37076334D01*
X42540181Y-37073500D01*
X42041830Y-37073500D01*
X42041808Y-37073501D01*
X42005794Y-37076335D01*
X41851611Y-37121129D01*
X41851606Y-37121131D01*
X41713404Y-37202863D01*
X41713396Y-37202869D01*
X41616681Y-37299585D01*
X41555358Y-37333070D01*
X41485666Y-37328086D01*
X41441319Y-37299585D01*
X41344603Y-37202869D01*
X41344595Y-37202863D01*
X41206393Y-37121131D01*
X41206388Y-37121129D01*
X41052208Y-37076335D01*
X41052202Y-37076334D01*
X41016181Y-37073500D01*
X40517830Y-37073500D01*
X40517808Y-37073501D01*
X40481794Y-37076335D01*
X40327611Y-37121129D01*
X40327606Y-37121131D01*
X40189404Y-37202863D01*
X40189396Y-37202869D01*
X40185085Y-37207181D01*
X40158157Y-37221884D01*
X40132339Y-37238477D01*
X40126138Y-37239368D01*
X40123762Y-37240666D01*
X40097404Y-37243500D01*
X39996596Y-37243500D01*
X39929557Y-37223815D01*
X39908915Y-37207181D01*
X39904603Y-37202869D01*
X39904595Y-37202863D01*
X39766393Y-37121131D01*
X39766388Y-37121129D01*
X39612208Y-37076335D01*
X39612202Y-37076334D01*
X39576181Y-37073500D01*
X39077830Y-37073500D01*
X39077808Y-37073501D01*
X39041794Y-37076335D01*
X38887611Y-37121129D01*
X38887606Y-37121131D01*
X38749404Y-37202863D01*
X38749395Y-37202870D01*
X38719930Y-37232335D01*
X38658606Y-37265820D01*
X38588915Y-37260834D01*
X38544569Y-37232334D01*
X38161590Y-36849355D01*
X38161588Y-36849352D01*
X38042717Y-36730481D01*
X38042716Y-36730480D01*
X37955904Y-36680360D01*
X37955904Y-36680359D01*
X37955900Y-36680358D01*
X37905785Y-36651423D01*
X37753057Y-36610499D01*
X37594943Y-36610499D01*
X37587347Y-36610499D01*
X37587331Y-36610500D01*
X34494499Y-36610500D01*
X34427460Y-36590815D01*
X34381705Y-36538011D01*
X34370499Y-36486500D01*
X34370499Y-36313129D01*
X34370498Y-36313123D01*
X34370497Y-36313116D01*
X34364091Y-36253517D01*
X34313796Y-36118669D01*
X34313795Y-36118668D01*
X34313793Y-36118664D01*
X34227547Y-36003455D01*
X34227544Y-36003452D01*
X34112335Y-35917206D01*
X34112328Y-35917202D01*
X33977482Y-35866908D01*
X33977483Y-35866908D01*
X33917883Y-35860501D01*
X33917881Y-35860500D01*
X33917873Y-35860500D01*
X33917864Y-35860500D01*
X32122129Y-35860500D01*
X32122123Y-35860501D01*
X32062516Y-35866908D01*
X31927671Y-35917202D01*
X31927664Y-35917206D01*
X31812455Y-36003452D01*
X31812452Y-36003455D01*
X31726206Y-36118664D01*
X31726202Y-36118671D01*
X31675908Y-36253517D01*
X31669501Y-36313116D01*
X31669501Y-36313123D01*
X31669500Y-36313135D01*
X27297500Y-36313135D01*
X27297500Y-32122135D01*
X31669500Y-32122135D01*
X31669500Y-33917870D01*
X31669501Y-33917876D01*
X31675908Y-33977483D01*
X31726202Y-34112328D01*
X31726206Y-34112335D01*
X31812452Y-34227544D01*
X31812455Y-34227547D01*
X31927664Y-34313793D01*
X31927671Y-34313797D01*
X32062517Y-34364091D01*
X32062516Y-34364091D01*
X32069444Y-34364835D01*
X32122127Y-34370500D01*
X33917872Y-34370499D01*
X33977483Y-34364091D01*
X34112331Y-34313796D01*
X34227546Y-34227546D01*
X34313796Y-34112331D01*
X34364091Y-33977483D01*
X34370500Y-33917873D01*
X34370500Y-33744500D01*
X34390185Y-33677461D01*
X34442989Y-33631706D01*
X34494500Y-33620500D01*
X37255331Y-33620500D01*
X37255347Y-33620501D01*
X37262943Y-33620501D01*
X37421054Y-33620501D01*
X37421057Y-33620501D01*
X37573785Y-33579577D01*
X37623904Y-33550639D01*
X37710716Y-33500520D01*
X37822520Y-33388716D01*
X37822521Y-33388714D01*
X37888418Y-33322817D01*
X37949741Y-33289333D01*
X37976098Y-33286499D01*
X38095168Y-33286499D01*
X38095180Y-33286499D01*
X38131204Y-33283665D01*
X38285393Y-33238869D01*
X38423598Y-33157135D01*
X38537135Y-33043598D01*
X38618869Y-32905393D01*
X38652227Y-32790572D01*
X38689831Y-32731690D01*
X38753304Y-32702483D01*
X38822490Y-32712229D01*
X38834423Y-32718438D01*
X38934936Y-32777881D01*
X38936607Y-32778869D01*
X38936614Y-32778871D01*
X39090791Y-32823664D01*
X39090794Y-32823664D01*
X39090796Y-32823665D01*
X39126819Y-32826500D01*
X39525180Y-32826499D01*
X39561204Y-32823665D01*
X39715393Y-32778869D01*
X39772882Y-32744869D01*
X39840602Y-32727688D01*
X39899117Y-32744869D01*
X39956607Y-32778869D01*
X39956610Y-32778869D01*
X39956612Y-32778871D01*
X40110791Y-32823664D01*
X40110794Y-32823664D01*
X40110796Y-32823665D01*
X40146819Y-32826500D01*
X40545180Y-32826499D01*
X40581204Y-32823665D01*
X40735393Y-32778869D01*
X40837576Y-32718437D01*
X40905300Y-32701255D01*
X40971562Y-32723415D01*
X41015326Y-32777881D01*
X41019773Y-32790575D01*
X41053129Y-32905388D01*
X41053131Y-32905393D01*
X41134863Y-33043595D01*
X41134869Y-33043603D01*
X41248396Y-33157130D01*
X41248400Y-33157133D01*
X41248402Y-33157135D01*
X41386607Y-33238869D01*
X41427268Y-33250682D01*
X41540791Y-33283664D01*
X41540794Y-33283664D01*
X41540796Y-33283665D01*
X41576819Y-33286500D01*
X42075180Y-33286499D01*
X42111204Y-33283665D01*
X42265393Y-33238869D01*
X42403598Y-33157135D01*
X42517135Y-33043598D01*
X42598869Y-32905393D01*
X42632227Y-32790572D01*
X42669831Y-32731690D01*
X42733304Y-32702483D01*
X42802490Y-32712229D01*
X42814423Y-32718438D01*
X42914936Y-32777881D01*
X42916607Y-32778869D01*
X42916614Y-32778871D01*
X43070791Y-32823664D01*
X43070794Y-32823664D01*
X43070796Y-32823665D01*
X43106819Y-32826500D01*
X43505180Y-32826499D01*
X43541204Y-32823665D01*
X43695393Y-32778869D01*
X43752882Y-32744869D01*
X43820602Y-32727688D01*
X43879117Y-32744869D01*
X43936607Y-32778869D01*
X43936610Y-32778869D01*
X43936612Y-32778871D01*
X44090791Y-32823664D01*
X44090794Y-32823664D01*
X44090796Y-32823665D01*
X44126819Y-32826500D01*
X44525180Y-32826499D01*
X44561204Y-32823665D01*
X44715393Y-32778869D01*
X44817576Y-32718437D01*
X44885300Y-32701255D01*
X44951562Y-32723415D01*
X44995326Y-32777881D01*
X44999773Y-32790575D01*
X45033129Y-32905388D01*
X45033131Y-32905393D01*
X45114863Y-33043595D01*
X45114869Y-33043603D01*
X45228396Y-33157130D01*
X45228400Y-33157133D01*
X45228402Y-33157135D01*
X45366607Y-33238869D01*
X45407268Y-33250682D01*
X45520791Y-33283664D01*
X45520794Y-33283664D01*
X45520796Y-33283665D01*
X45556819Y-33286500D01*
X46055180Y-33286499D01*
X46091204Y-33283665D01*
X46245393Y-33238869D01*
X46383598Y-33157135D01*
X46497135Y-33043598D01*
X46578869Y-32905393D01*
X46612227Y-32790572D01*
X46649831Y-32731690D01*
X46713304Y-32702483D01*
X46782490Y-32712229D01*
X46794423Y-32718438D01*
X46894936Y-32777881D01*
X46896607Y-32778869D01*
X46896614Y-32778871D01*
X47050791Y-32823664D01*
X47050794Y-32823664D01*
X47050796Y-32823665D01*
X47086819Y-32826500D01*
X47485180Y-32826499D01*
X47521204Y-32823665D01*
X47675393Y-32778869D01*
X47732882Y-32744869D01*
X47800602Y-32727688D01*
X47859117Y-32744869D01*
X47916607Y-32778869D01*
X47916610Y-32778869D01*
X47916612Y-32778871D01*
X48070791Y-32823664D01*
X48070794Y-32823664D01*
X48070796Y-32823665D01*
X48106819Y-32826500D01*
X48505180Y-32826499D01*
X48541204Y-32823665D01*
X48695393Y-32778869D01*
X48797576Y-32718437D01*
X48865300Y-32701255D01*
X48931562Y-32723415D01*
X48975326Y-32777881D01*
X48979773Y-32790575D01*
X49013129Y-32905388D01*
X49013131Y-32905393D01*
X49094863Y-33043595D01*
X49094869Y-33043603D01*
X49208396Y-33157130D01*
X49208400Y-33157133D01*
X49208402Y-33157135D01*
X49346607Y-33238869D01*
X49387268Y-33250682D01*
X49500791Y-33283664D01*
X49500794Y-33283664D01*
X49500796Y-33283665D01*
X49536819Y-33286500D01*
X50035180Y-33286499D01*
X50071204Y-33283665D01*
X50225393Y-33238869D01*
X50363598Y-33157135D01*
X50477135Y-33043598D01*
X50558869Y-32905393D01*
X50603665Y-32751204D01*
X50606500Y-32715181D01*
X50606499Y-32316820D01*
X50603665Y-32280796D01*
X50558869Y-32126607D01*
X50524581Y-32068629D01*
X50507398Y-32000905D01*
X50524582Y-31942386D01*
X50558404Y-31885196D01*
X50558405Y-31885194D01*
X50598844Y-31746000D01*
X50046409Y-31746000D01*
X50045933Y-31745999D01*
X50041295Y-31745981D01*
X50035181Y-31745500D01*
X49915882Y-31745500D01*
X49915621Y-31745499D01*
X49882352Y-31735591D01*
X49849058Y-31725815D01*
X49848784Y-31725594D01*
X49848658Y-31725557D01*
X49848477Y-31725347D01*
X49828416Y-31709181D01*
X49822319Y-31703084D01*
X49810108Y-31680722D01*
X49803106Y-31672578D01*
X49802226Y-31666286D01*
X49788834Y-31641761D01*
X49786000Y-31615403D01*
X49786000Y-31496000D01*
X49660000Y-31496000D01*
X49592961Y-31476315D01*
X49547206Y-31423511D01*
X49536000Y-31372000D01*
X49536000Y-31246000D01*
X50036000Y-31246000D01*
X50598844Y-31246000D01*
X50558404Y-31106805D01*
X50476738Y-30968714D01*
X50476731Y-30968705D01*
X50363294Y-30855268D01*
X50363285Y-30855261D01*
X50225191Y-30773593D01*
X50225188Y-30773592D01*
X50071130Y-30728834D01*
X50036000Y-30726068D01*
X50036000Y-31246000D01*
X49536000Y-31246000D01*
X49536000Y-30726068D01*
X49535999Y-30726068D01*
X49500869Y-30728834D01*
X49500868Y-30728834D01*
X49346811Y-30773592D01*
X49346808Y-30773593D01*
X49208714Y-30855261D01*
X49208705Y-30855268D01*
X49095268Y-30968705D01*
X49095261Y-30968714D01*
X49013593Y-31106808D01*
X49013591Y-31106811D01*
X48980217Y-31221687D01*
X48942611Y-31280573D01*
X48879138Y-31309779D01*
X48809951Y-31300033D01*
X48798020Y-31293824D01*
X48695394Y-31233131D01*
X48695388Y-31233129D01*
X48541208Y-31188335D01*
X48541202Y-31188334D01*
X48505181Y-31185500D01*
X48106830Y-31185500D01*
X48106808Y-31185501D01*
X48070794Y-31188335D01*
X47916611Y-31233129D01*
X47916604Y-31233132D01*
X47859119Y-31267128D01*
X47791395Y-31284309D01*
X47732881Y-31267128D01*
X47675395Y-31233132D01*
X47675388Y-31233129D01*
X47521208Y-31188335D01*
X47521202Y-31188334D01*
X47485188Y-31185500D01*
X47485181Y-31185500D01*
X47366097Y-31185500D01*
X47336656Y-31176855D01*
X47306670Y-31170332D01*
X47301654Y-31166577D01*
X47299058Y-31165815D01*
X47278416Y-31149181D01*
X47263590Y-31134355D01*
X47263588Y-31134352D01*
X47144717Y-31015481D01*
X47144716Y-31015480D01*
X47057904Y-30965360D01*
X47057904Y-30965359D01*
X47057900Y-30965358D01*
X47007785Y-30936423D01*
X46855057Y-30895499D01*
X46696943Y-30895499D01*
X46689347Y-30895499D01*
X46689331Y-30895500D01*
X46475596Y-30895500D01*
X46408557Y-30875815D01*
X46387915Y-30859181D01*
X46383603Y-30854869D01*
X46383595Y-30854863D01*
X46245393Y-30773131D01*
X46245388Y-30773129D01*
X46091208Y-30728335D01*
X46091202Y-30728334D01*
X46055181Y-30725500D01*
X45556830Y-30725500D01*
X45556808Y-30725501D01*
X45520794Y-30728335D01*
X45366611Y-30773129D01*
X45366606Y-30773131D01*
X45228404Y-30854863D01*
X45228396Y-30854869D01*
X45114869Y-30968396D01*
X45114863Y-30968404D01*
X45033131Y-31106606D01*
X45033129Y-31106612D01*
X44999773Y-31221424D01*
X44962167Y-31280310D01*
X44898694Y-31309516D01*
X44829508Y-31299770D01*
X44817577Y-31293561D01*
X44715397Y-31233133D01*
X44715388Y-31233129D01*
X44561208Y-31188335D01*
X44561202Y-31188334D01*
X44525181Y-31185500D01*
X44126830Y-31185500D01*
X44126808Y-31185501D01*
X44090794Y-31188335D01*
X43936611Y-31233129D01*
X43936604Y-31233132D01*
X43879119Y-31267128D01*
X43811395Y-31284309D01*
X43752881Y-31267128D01*
X43695395Y-31233132D01*
X43695388Y-31233129D01*
X43541208Y-31188335D01*
X43541202Y-31188334D01*
X43505188Y-31185500D01*
X43505181Y-31185500D01*
X43386097Y-31185500D01*
X43356656Y-31176855D01*
X43326670Y-31170332D01*
X43321654Y-31166577D01*
X43319058Y-31165815D01*
X43298416Y-31149181D01*
X43283590Y-31134355D01*
X43283588Y-31134352D01*
X43164717Y-31015481D01*
X43164716Y-31015480D01*
X43077904Y-30965360D01*
X43077904Y-30965359D01*
X43077900Y-30965358D01*
X43027785Y-30936423D01*
X42875057Y-30895499D01*
X42716943Y-30895499D01*
X42709347Y-30895499D01*
X42709331Y-30895500D01*
X42495596Y-30895500D01*
X42428557Y-30875815D01*
X42407915Y-30859181D01*
X42403603Y-30854869D01*
X42403595Y-30854863D01*
X42265393Y-30773131D01*
X42265388Y-30773129D01*
X42111208Y-30728335D01*
X42111202Y-30728334D01*
X42075181Y-30725500D01*
X41576830Y-30725500D01*
X41576808Y-30725501D01*
X41540794Y-30728335D01*
X41386611Y-30773129D01*
X41386606Y-30773131D01*
X41248404Y-30854863D01*
X41248396Y-30854869D01*
X41134869Y-30968396D01*
X41134863Y-30968404D01*
X41053131Y-31106606D01*
X41053129Y-31106612D01*
X41019773Y-31221424D01*
X40982167Y-31280310D01*
X40918694Y-31309516D01*
X40849508Y-31299770D01*
X40837577Y-31293561D01*
X40735397Y-31233133D01*
X40735388Y-31233129D01*
X40581208Y-31188335D01*
X40581202Y-31188334D01*
X40545181Y-31185500D01*
X40146830Y-31185500D01*
X40146808Y-31185501D01*
X40110794Y-31188335D01*
X39956611Y-31233129D01*
X39956604Y-31233132D01*
X39899119Y-31267128D01*
X39831395Y-31284309D01*
X39772881Y-31267128D01*
X39715395Y-31233132D01*
X39715388Y-31233129D01*
X39561208Y-31188335D01*
X39561202Y-31188334D01*
X39525188Y-31185500D01*
X39525181Y-31185500D01*
X39406097Y-31185500D01*
X39376656Y-31176855D01*
X39346670Y-31170332D01*
X39341654Y-31166577D01*
X39339058Y-31165815D01*
X39318416Y-31149181D01*
X39303590Y-31134355D01*
X39303588Y-31134352D01*
X39184717Y-31015481D01*
X39184716Y-31015480D01*
X39097904Y-30965360D01*
X39097904Y-30965359D01*
X39097900Y-30965358D01*
X39047785Y-30936423D01*
X38895057Y-30895499D01*
X38736943Y-30895499D01*
X38729347Y-30895499D01*
X38729331Y-30895500D01*
X38515596Y-30895500D01*
X38448557Y-30875815D01*
X38427915Y-30859181D01*
X38423603Y-30854869D01*
X38423595Y-30854863D01*
X38285393Y-30773131D01*
X38285388Y-30773129D01*
X38131208Y-30728335D01*
X38131202Y-30728334D01*
X38095181Y-30725500D01*
X37596830Y-30725500D01*
X37596808Y-30725501D01*
X37560794Y-30728335D01*
X37406611Y-30773129D01*
X37406606Y-30773131D01*
X37268404Y-30854863D01*
X37268396Y-30854869D01*
X37154869Y-30968396D01*
X37154863Y-30968404D01*
X37073131Y-31106606D01*
X37073129Y-31106611D01*
X37028335Y-31260791D01*
X37028334Y-31260797D01*
X37025500Y-31296811D01*
X37025500Y-31695169D01*
X37025501Y-31695191D01*
X37028335Y-31731205D01*
X37073129Y-31885388D01*
X37073132Y-31885395D01*
X37107128Y-31942881D01*
X37124309Y-32010605D01*
X37107128Y-32069119D01*
X37073132Y-32126604D01*
X37073129Y-32126611D01*
X37028335Y-32280791D01*
X37028334Y-32280797D01*
X37026412Y-32305229D01*
X37001528Y-32370517D01*
X36945297Y-32411988D01*
X36902794Y-32419500D01*
X34494499Y-32419500D01*
X34427460Y-32399815D01*
X34381705Y-32347011D01*
X34370499Y-32295500D01*
X34370499Y-32122129D01*
X34370498Y-32122123D01*
X34370497Y-32122116D01*
X34364091Y-32062517D01*
X34341111Y-32000905D01*
X34313797Y-31927671D01*
X34313793Y-31927664D01*
X34227547Y-31812455D01*
X34227544Y-31812452D01*
X34112335Y-31726206D01*
X34112328Y-31726202D01*
X33977482Y-31675908D01*
X33977483Y-31675908D01*
X33917883Y-31669501D01*
X33917881Y-31669500D01*
X33917873Y-31669500D01*
X33917865Y-31669500D01*
X33907309Y-31669500D01*
X33840270Y-31649815D01*
X33819628Y-31633181D01*
X33149408Y-30962962D01*
X33212993Y-30945925D01*
X33327007Y-30880099D01*
X33420099Y-30787007D01*
X33485925Y-30672993D01*
X33502962Y-30609409D01*
X34135270Y-31241717D01*
X34135270Y-31241716D01*
X34174622Y-31187554D01*
X34271095Y-30998217D01*
X34336757Y-30796130D01*
X34336757Y-30796127D01*
X34370000Y-30586246D01*
X34370000Y-30373753D01*
X34336757Y-30163872D01*
X34336757Y-30163869D01*
X34271095Y-29961782D01*
X34174624Y-29772449D01*
X34135270Y-29718282D01*
X34135269Y-29718282D01*
X33502962Y-30350590D01*
X33485925Y-30287007D01*
X33420099Y-30172993D01*
X33327007Y-30079901D01*
X33212993Y-30014075D01*
X33149409Y-29997037D01*
X33781716Y-29364728D01*
X33727550Y-29325375D01*
X33538217Y-29228904D01*
X33336129Y-29163242D01*
X33126246Y-29130000D01*
X32913754Y-29130000D01*
X32703872Y-29163242D01*
X32703869Y-29163242D01*
X32501782Y-29228904D01*
X32312439Y-29325380D01*
X32258282Y-29364727D01*
X32258282Y-29364728D01*
X32890591Y-29997037D01*
X32827007Y-30014075D01*
X32712993Y-30079901D01*
X32619901Y-30172993D01*
X32554075Y-30287007D01*
X32537037Y-30350591D01*
X31904728Y-29718282D01*
X31904727Y-29718282D01*
X31865380Y-29772439D01*
X31768904Y-29961782D01*
X31703242Y-30163869D01*
X31703242Y-30163872D01*
X31670000Y-30373753D01*
X31670000Y-30586246D01*
X31703242Y-30796127D01*
X31703242Y-30796130D01*
X31768904Y-30998217D01*
X31865375Y-31187550D01*
X31904728Y-31241716D01*
X32537037Y-30609408D01*
X32554075Y-30672993D01*
X32619901Y-30787007D01*
X32712993Y-30880099D01*
X32827007Y-30945925D01*
X32890590Y-30962962D01*
X32220370Y-31633181D01*
X32159047Y-31666666D01*
X32132698Y-31669500D01*
X32122134Y-31669500D01*
X32122123Y-31669501D01*
X32062516Y-31675908D01*
X31927671Y-31726202D01*
X31927664Y-31726206D01*
X31812455Y-31812452D01*
X31812452Y-31812455D01*
X31726206Y-31927664D01*
X31726202Y-31927671D01*
X31675908Y-32062517D01*
X31669501Y-32122116D01*
X31669501Y-32122123D01*
X31669500Y-32122135D01*
X27297500Y-32122135D01*
X27297500Y-25518135D01*
X31667500Y-25518135D01*
X31667500Y-27313870D01*
X31667501Y-27313876D01*
X31673908Y-27373483D01*
X31724202Y-27508328D01*
X31724206Y-27508335D01*
X31810452Y-27623544D01*
X31810455Y-27623547D01*
X31925664Y-27709793D01*
X31925671Y-27709797D01*
X32060517Y-27760091D01*
X32060516Y-27760091D01*
X32067444Y-27760835D01*
X32120127Y-27766500D01*
X33915872Y-27766499D01*
X33975483Y-27760091D01*
X34110331Y-27709796D01*
X34225546Y-27623546D01*
X34311796Y-27508331D01*
X34362091Y-27373483D01*
X34368500Y-27313873D01*
X34368500Y-27140500D01*
X34388185Y-27073461D01*
X34440989Y-27027706D01*
X34492500Y-27016500D01*
X37376331Y-27016500D01*
X37376347Y-27016501D01*
X37383943Y-27016501D01*
X37542054Y-27016501D01*
X37542057Y-27016501D01*
X37694785Y-26975577D01*
X37744904Y-26946639D01*
X37831716Y-26896520D01*
X37943520Y-26784716D01*
X37943521Y-26784713D01*
X38140418Y-26587815D01*
X38201741Y-26554333D01*
X38228098Y-26551499D01*
X38347168Y-26551499D01*
X38347180Y-26551499D01*
X38383204Y-26548665D01*
X38537393Y-26503869D01*
X38675598Y-26422135D01*
X38789135Y-26308598D01*
X38870869Y-26170393D01*
X38915665Y-26016204D01*
X38918500Y-25980181D01*
X38918499Y-25760095D01*
X38924737Y-25738850D01*
X38926317Y-25716762D01*
X38934388Y-25705979D01*
X38938183Y-25693057D01*
X38954919Y-25678555D01*
X38968189Y-25660829D01*
X38980807Y-25656122D01*
X38990987Y-25647302D01*
X39012905Y-25644150D01*
X39033653Y-25636412D01*
X39046813Y-25639274D01*
X39060145Y-25637358D01*
X39080287Y-25646556D01*
X39101926Y-25651264D01*
X39119652Y-25664534D01*
X39123701Y-25666383D01*
X39130180Y-25672415D01*
X39231181Y-25773416D01*
X39264666Y-25834739D01*
X39267500Y-25861096D01*
X39267500Y-25980168D01*
X39267501Y-25980192D01*
X39270335Y-26016205D01*
X39315129Y-26170388D01*
X39315131Y-26170393D01*
X39396863Y-26308595D01*
X39396869Y-26308603D01*
X39510396Y-26422130D01*
X39510400Y-26422133D01*
X39510402Y-26422135D01*
X39648607Y-26503869D01*
X39689268Y-26515682D01*
X39802791Y-26548664D01*
X39802794Y-26548664D01*
X39802796Y-26548665D01*
X39838819Y-26551500D01*
X40337180Y-26551499D01*
X40373204Y-26548665D01*
X40527393Y-26503869D01*
X40665598Y-26422135D01*
X40779135Y-26308598D01*
X40860869Y-26170393D01*
X40905665Y-26016204D01*
X40908500Y-25980181D01*
X40908499Y-25760095D01*
X40914737Y-25738850D01*
X40916317Y-25716762D01*
X40924388Y-25705979D01*
X40928183Y-25693057D01*
X40944919Y-25678555D01*
X40958189Y-25660829D01*
X40970807Y-25656122D01*
X40980987Y-25647302D01*
X41002905Y-25644150D01*
X41023653Y-25636412D01*
X41036813Y-25639274D01*
X41050145Y-25637358D01*
X41070287Y-25646556D01*
X41091926Y-25651264D01*
X41109652Y-25664534D01*
X41113701Y-25666383D01*
X41120180Y-25672415D01*
X41221181Y-25773416D01*
X41254666Y-25834739D01*
X41257500Y-25861096D01*
X41257500Y-25980168D01*
X41257501Y-25980192D01*
X41260335Y-26016205D01*
X41305129Y-26170388D01*
X41305131Y-26170393D01*
X41386863Y-26308595D01*
X41386869Y-26308603D01*
X41500396Y-26422130D01*
X41500400Y-26422133D01*
X41500402Y-26422135D01*
X41638607Y-26503869D01*
X41679268Y-26515682D01*
X41792791Y-26548664D01*
X41792794Y-26548664D01*
X41792796Y-26548665D01*
X41828819Y-26551500D01*
X42327180Y-26551499D01*
X42363204Y-26548665D01*
X42517393Y-26503869D01*
X42655598Y-26422135D01*
X42769135Y-26308598D01*
X42850869Y-26170393D01*
X42895665Y-26016204D01*
X42898500Y-25980181D01*
X42898499Y-25760095D01*
X42904737Y-25738850D01*
X42906317Y-25716762D01*
X42914388Y-25705979D01*
X42918183Y-25693057D01*
X42934919Y-25678555D01*
X42948189Y-25660829D01*
X42960807Y-25656122D01*
X42970987Y-25647302D01*
X42992905Y-25644150D01*
X43013653Y-25636412D01*
X43026813Y-25639274D01*
X43040145Y-25637358D01*
X43060287Y-25646556D01*
X43081926Y-25651264D01*
X43099652Y-25664534D01*
X43103701Y-25666383D01*
X43110180Y-25672415D01*
X43211181Y-25773416D01*
X43244666Y-25834739D01*
X43247500Y-25861096D01*
X43247500Y-25980168D01*
X43247501Y-25980192D01*
X43250335Y-26016205D01*
X43295129Y-26170388D01*
X43295131Y-26170393D01*
X43376863Y-26308595D01*
X43376869Y-26308603D01*
X43490396Y-26422130D01*
X43490400Y-26422133D01*
X43490402Y-26422135D01*
X43628607Y-26503869D01*
X43669268Y-26515682D01*
X43782791Y-26548664D01*
X43782794Y-26548664D01*
X43782796Y-26548665D01*
X43818819Y-26551500D01*
X44317180Y-26551499D01*
X44353204Y-26548665D01*
X44507393Y-26503869D01*
X44645598Y-26422135D01*
X44759135Y-26308598D01*
X44840869Y-26170393D01*
X44885665Y-26016204D01*
X44888500Y-25980181D01*
X44888499Y-25760095D01*
X44894737Y-25738850D01*
X44896317Y-25716762D01*
X44904388Y-25705979D01*
X44908183Y-25693057D01*
X44924919Y-25678555D01*
X44938189Y-25660829D01*
X44950807Y-25656122D01*
X44960987Y-25647302D01*
X44982905Y-25644150D01*
X45003653Y-25636412D01*
X45016813Y-25639274D01*
X45030145Y-25637358D01*
X45050287Y-25646556D01*
X45071926Y-25651264D01*
X45089652Y-25664534D01*
X45093701Y-25666383D01*
X45100180Y-25672415D01*
X45201181Y-25773416D01*
X45234666Y-25834739D01*
X45237500Y-25861096D01*
X45237500Y-25980168D01*
X45237501Y-25980192D01*
X45240335Y-26016205D01*
X45285129Y-26170388D01*
X45285131Y-26170393D01*
X45366863Y-26308595D01*
X45366869Y-26308603D01*
X45480396Y-26422130D01*
X45480400Y-26422133D01*
X45480402Y-26422135D01*
X45618607Y-26503869D01*
X45659268Y-26515682D01*
X45772791Y-26548664D01*
X45772794Y-26548664D01*
X45772796Y-26548665D01*
X45808819Y-26551500D01*
X46307180Y-26551499D01*
X46343204Y-26548665D01*
X46497393Y-26503869D01*
X46635598Y-26422135D01*
X46749135Y-26308598D01*
X46830869Y-26170393D01*
X46875665Y-26016204D01*
X46878500Y-25980181D01*
X46878499Y-25760095D01*
X46884737Y-25738850D01*
X46886317Y-25716762D01*
X46894388Y-25705979D01*
X46898183Y-25693057D01*
X46914919Y-25678555D01*
X46928189Y-25660829D01*
X46940807Y-25656122D01*
X46950987Y-25647302D01*
X46972905Y-25644150D01*
X46993653Y-25636412D01*
X47006813Y-25639274D01*
X47020145Y-25637358D01*
X47040287Y-25646556D01*
X47061926Y-25651264D01*
X47079652Y-25664534D01*
X47083701Y-25666383D01*
X47090180Y-25672415D01*
X47191181Y-25773416D01*
X47224666Y-25834739D01*
X47227500Y-25861096D01*
X47227500Y-25980168D01*
X47227501Y-25980192D01*
X47230335Y-26016205D01*
X47275129Y-26170388D01*
X47275131Y-26170393D01*
X47356863Y-26308595D01*
X47356869Y-26308603D01*
X47470396Y-26422130D01*
X47470400Y-26422133D01*
X47470402Y-26422135D01*
X47608607Y-26503869D01*
X47649268Y-26515682D01*
X47762791Y-26548664D01*
X47762794Y-26548664D01*
X47762796Y-26548665D01*
X47798819Y-26551500D01*
X48297180Y-26551499D01*
X48333204Y-26548665D01*
X48487393Y-26503869D01*
X48625598Y-26422135D01*
X48739135Y-26308598D01*
X48820869Y-26170393D01*
X48865665Y-26016204D01*
X48868500Y-25980181D01*
X48868499Y-25760095D01*
X48874737Y-25738850D01*
X48876317Y-25716762D01*
X48884388Y-25705979D01*
X48888183Y-25693057D01*
X48904919Y-25678555D01*
X48918189Y-25660829D01*
X48930807Y-25656122D01*
X48940987Y-25647302D01*
X48962905Y-25644150D01*
X48983653Y-25636412D01*
X48996813Y-25639274D01*
X49010145Y-25637358D01*
X49030287Y-25646556D01*
X49051926Y-25651264D01*
X49069652Y-25664534D01*
X49073701Y-25666383D01*
X49080180Y-25672415D01*
X49181181Y-25773416D01*
X49214666Y-25834739D01*
X49217500Y-25861096D01*
X49217500Y-25980168D01*
X49217501Y-25980192D01*
X49220335Y-26016205D01*
X49265129Y-26170388D01*
X49265131Y-26170393D01*
X49346863Y-26308595D01*
X49346869Y-26308603D01*
X49460396Y-26422130D01*
X49460400Y-26422133D01*
X49460402Y-26422135D01*
X49598607Y-26503869D01*
X49639268Y-26515682D01*
X49752791Y-26548664D01*
X49752794Y-26548664D01*
X49752796Y-26548665D01*
X49788819Y-26551500D01*
X50287180Y-26551499D01*
X50323204Y-26548665D01*
X50477393Y-26503869D01*
X50615598Y-26422135D01*
X50729135Y-26308598D01*
X50810869Y-26170393D01*
X50855665Y-26016204D01*
X50858500Y-25980181D01*
X50858499Y-25581820D01*
X50855665Y-25545796D01*
X50810869Y-25391607D01*
X50776581Y-25333629D01*
X50759398Y-25265905D01*
X50776582Y-25207386D01*
X50810404Y-25150196D01*
X50810405Y-25150194D01*
X50850844Y-25011000D01*
X50298409Y-25011000D01*
X50297933Y-25010999D01*
X50293295Y-25010981D01*
X50287181Y-25010500D01*
X50167882Y-25010500D01*
X50167621Y-25010499D01*
X50134352Y-25000591D01*
X50101058Y-24990815D01*
X50100784Y-24990594D01*
X50100658Y-24990557D01*
X50100477Y-24990347D01*
X50080416Y-24974181D01*
X50074319Y-24968084D01*
X50062108Y-24945722D01*
X50055106Y-24937578D01*
X50054226Y-24931286D01*
X50040834Y-24906761D01*
X50038000Y-24880403D01*
X50038000Y-24761000D01*
X49918597Y-24761000D01*
X49889156Y-24752355D01*
X49859170Y-24745832D01*
X49854154Y-24742077D01*
X49851558Y-24741315D01*
X49830916Y-24724681D01*
X49824319Y-24718084D01*
X49790834Y-24656761D01*
X49788000Y-24630403D01*
X49788000Y-24511000D01*
X50288000Y-24511000D01*
X50850844Y-24511000D01*
X50810404Y-24371805D01*
X50728738Y-24233714D01*
X50728731Y-24233705D01*
X50615294Y-24120268D01*
X50615285Y-24120261D01*
X50477191Y-24038593D01*
X50477188Y-24038592D01*
X50323130Y-23993834D01*
X50288000Y-23991068D01*
X50288000Y-24511000D01*
X49788000Y-24511000D01*
X49788000Y-23991068D01*
X49787999Y-23991068D01*
X49752869Y-23993834D01*
X49752868Y-23993834D01*
X49598811Y-24038592D01*
X49598808Y-24038593D01*
X49460714Y-24120261D01*
X49460709Y-24120265D01*
X49399333Y-24181641D01*
X49338009Y-24215125D01*
X49268318Y-24210140D01*
X49250035Y-24201526D01*
X49249787Y-24201424D01*
X49249786Y-24201423D01*
X49249785Y-24201423D01*
X49097057Y-24160499D01*
X48938943Y-24160499D01*
X48931347Y-24160499D01*
X48931331Y-24160500D01*
X48717596Y-24160500D01*
X48650557Y-24140815D01*
X48629915Y-24124181D01*
X48625603Y-24119869D01*
X48625595Y-24119863D01*
X48487393Y-24038131D01*
X48487388Y-24038129D01*
X48333208Y-23993335D01*
X48333202Y-23993334D01*
X48297181Y-23990500D01*
X47798830Y-23990500D01*
X47798808Y-23990501D01*
X47762794Y-23993335D01*
X47608611Y-24038129D01*
X47608606Y-24038131D01*
X47470404Y-24119863D01*
X47470396Y-24119869D01*
X47408885Y-24181381D01*
X47347562Y-24214866D01*
X47277870Y-24209882D01*
X47260866Y-24201870D01*
X47259787Y-24201424D01*
X47259786Y-24201423D01*
X47259785Y-24201423D01*
X47107057Y-24160499D01*
X46948943Y-24160499D01*
X46941347Y-24160499D01*
X46941331Y-24160500D01*
X46727596Y-24160500D01*
X46660557Y-24140815D01*
X46639915Y-24124181D01*
X46635603Y-24119869D01*
X46635595Y-24119863D01*
X46497393Y-24038131D01*
X46497388Y-24038129D01*
X46343208Y-23993335D01*
X46343202Y-23993334D01*
X46307181Y-23990500D01*
X45808830Y-23990500D01*
X45808808Y-23990501D01*
X45772794Y-23993335D01*
X45618611Y-24038129D01*
X45618606Y-24038131D01*
X45480404Y-24119863D01*
X45480396Y-24119869D01*
X45418885Y-24181381D01*
X45357562Y-24214866D01*
X45287870Y-24209882D01*
X45270866Y-24201870D01*
X45269787Y-24201424D01*
X45269786Y-24201423D01*
X45269785Y-24201423D01*
X45117057Y-24160499D01*
X44958943Y-24160499D01*
X44951347Y-24160499D01*
X44951331Y-24160500D01*
X44737596Y-24160500D01*
X44670557Y-24140815D01*
X44649915Y-24124181D01*
X44645603Y-24119869D01*
X44645595Y-24119863D01*
X44507393Y-24038131D01*
X44507388Y-24038129D01*
X44353208Y-23993335D01*
X44353202Y-23993334D01*
X44317181Y-23990500D01*
X43818830Y-23990500D01*
X43818808Y-23990501D01*
X43782794Y-23993335D01*
X43628611Y-24038129D01*
X43628606Y-24038131D01*
X43490404Y-24119863D01*
X43490396Y-24119869D01*
X43428885Y-24181381D01*
X43367562Y-24214866D01*
X43297870Y-24209882D01*
X43280866Y-24201870D01*
X43279787Y-24201424D01*
X43279786Y-24201423D01*
X43279785Y-24201423D01*
X43127057Y-24160499D01*
X42968943Y-24160499D01*
X42961347Y-24160499D01*
X42961331Y-24160500D01*
X42747596Y-24160500D01*
X42680557Y-24140815D01*
X42659915Y-24124181D01*
X42655603Y-24119869D01*
X42655595Y-24119863D01*
X42517393Y-24038131D01*
X42517388Y-24038129D01*
X42363208Y-23993335D01*
X42363202Y-23993334D01*
X42327181Y-23990500D01*
X41828830Y-23990500D01*
X41828808Y-23990501D01*
X41792794Y-23993335D01*
X41638611Y-24038129D01*
X41638606Y-24038131D01*
X41500404Y-24119863D01*
X41500396Y-24119869D01*
X41438885Y-24181381D01*
X41377562Y-24214866D01*
X41307870Y-24209882D01*
X41290866Y-24201870D01*
X41289787Y-24201424D01*
X41289786Y-24201423D01*
X41289785Y-24201423D01*
X41137057Y-24160499D01*
X40978943Y-24160499D01*
X40971347Y-24160499D01*
X40971331Y-24160500D01*
X40757596Y-24160500D01*
X40690557Y-24140815D01*
X40669915Y-24124181D01*
X40665603Y-24119869D01*
X40665595Y-24119863D01*
X40527393Y-24038131D01*
X40527388Y-24038129D01*
X40373208Y-23993335D01*
X40373202Y-23993334D01*
X40337181Y-23990500D01*
X39838830Y-23990500D01*
X39838808Y-23990501D01*
X39802794Y-23993335D01*
X39648611Y-24038129D01*
X39648606Y-24038131D01*
X39510404Y-24119863D01*
X39510396Y-24119869D01*
X39448885Y-24181381D01*
X39387562Y-24214866D01*
X39317870Y-24209882D01*
X39300866Y-24201870D01*
X39299787Y-24201424D01*
X39299786Y-24201423D01*
X39299785Y-24201423D01*
X39147057Y-24160499D01*
X38988943Y-24160499D01*
X38981347Y-24160499D01*
X38981331Y-24160500D01*
X38767596Y-24160500D01*
X38700557Y-24140815D01*
X38679915Y-24124181D01*
X38675603Y-24119869D01*
X38675595Y-24119863D01*
X38537393Y-24038131D01*
X38537388Y-24038129D01*
X38383208Y-23993335D01*
X38383202Y-23993334D01*
X38347181Y-23990500D01*
X37848830Y-23990500D01*
X37848808Y-23990501D01*
X37812794Y-23993335D01*
X37658611Y-24038129D01*
X37658606Y-24038131D01*
X37520404Y-24119863D01*
X37520396Y-24119869D01*
X37406869Y-24233396D01*
X37406863Y-24233404D01*
X37325131Y-24371606D01*
X37325129Y-24371611D01*
X37280335Y-24525791D01*
X37280334Y-24525797D01*
X37277500Y-24561811D01*
X37277500Y-24960169D01*
X37277501Y-24960191D01*
X37280335Y-24996205D01*
X37325129Y-25150388D01*
X37325132Y-25150395D01*
X37359128Y-25207881D01*
X37376309Y-25275605D01*
X37359128Y-25334119D01*
X37325132Y-25391604D01*
X37325129Y-25391611D01*
X37280335Y-25545791D01*
X37280334Y-25545797D01*
X37277500Y-25581811D01*
X37277500Y-25691500D01*
X37257815Y-25758539D01*
X37205011Y-25804294D01*
X37153500Y-25815500D01*
X34492499Y-25815500D01*
X34425460Y-25795815D01*
X34379705Y-25743011D01*
X34368499Y-25691500D01*
X34368499Y-25518129D01*
X34368498Y-25518123D01*
X34368497Y-25518116D01*
X34362091Y-25458517D01*
X34337135Y-25391607D01*
X34311797Y-25323671D01*
X34311793Y-25323664D01*
X34225547Y-25208455D01*
X34225544Y-25208452D01*
X34110335Y-25122206D01*
X34110328Y-25122202D01*
X33975482Y-25071908D01*
X33975483Y-25071908D01*
X33915883Y-25065501D01*
X33915881Y-25065500D01*
X33915873Y-25065500D01*
X33915865Y-25065500D01*
X33905309Y-25065500D01*
X33838270Y-25045815D01*
X33817628Y-25029181D01*
X33147408Y-24358962D01*
X33210993Y-24341925D01*
X33325007Y-24276099D01*
X33418099Y-24183007D01*
X33483925Y-24068993D01*
X33500962Y-24005408D01*
X34133270Y-24637717D01*
X34133270Y-24637716D01*
X34172622Y-24583554D01*
X34269095Y-24394217D01*
X34334757Y-24192130D01*
X34334757Y-24192127D01*
X34368000Y-23982246D01*
X34368000Y-23769753D01*
X34334757Y-23559872D01*
X34334757Y-23559869D01*
X34269095Y-23357782D01*
X34172624Y-23168449D01*
X34133270Y-23114282D01*
X34133269Y-23114282D01*
X33500962Y-23746590D01*
X33483925Y-23683007D01*
X33418099Y-23568993D01*
X33325007Y-23475901D01*
X33210993Y-23410075D01*
X33147409Y-23393037D01*
X33779716Y-22760728D01*
X33725550Y-22721375D01*
X33536217Y-22624904D01*
X33334129Y-22559242D01*
X33124246Y-22526000D01*
X32911754Y-22526000D01*
X32701872Y-22559242D01*
X32701869Y-22559242D01*
X32499782Y-22624904D01*
X32310439Y-22721380D01*
X32256282Y-22760727D01*
X32256282Y-22760728D01*
X32888591Y-23393037D01*
X32825007Y-23410075D01*
X32710993Y-23475901D01*
X32617901Y-23568993D01*
X32552075Y-23683007D01*
X32535037Y-23746591D01*
X31902728Y-23114282D01*
X31902727Y-23114282D01*
X31863380Y-23168439D01*
X31766904Y-23357782D01*
X31701242Y-23559869D01*
X31701242Y-23559872D01*
X31668000Y-23769753D01*
X31668000Y-23982246D01*
X31701242Y-24192127D01*
X31701242Y-24192130D01*
X31766904Y-24394217D01*
X31863375Y-24583550D01*
X31902728Y-24637716D01*
X32535037Y-24005408D01*
X32552075Y-24068993D01*
X32617901Y-24183007D01*
X32710993Y-24276099D01*
X32825007Y-24341925D01*
X32888590Y-24358962D01*
X32218370Y-25029181D01*
X32157047Y-25062666D01*
X32130698Y-25065500D01*
X32120134Y-25065500D01*
X32120123Y-25065501D01*
X32060516Y-25071908D01*
X31925671Y-25122202D01*
X31925664Y-25122206D01*
X31810455Y-25208452D01*
X31810452Y-25208455D01*
X31724206Y-25323664D01*
X31724202Y-25323671D01*
X31673908Y-25458517D01*
X31667501Y-25518116D01*
X31667501Y-25518123D01*
X31667500Y-25518135D01*
X27297500Y-25518135D01*
X27297500Y-20817500D01*
X27317185Y-20750461D01*
X27369989Y-20704706D01*
X27421500Y-20693500D01*
X55763500Y-20693500D01*
X55830539Y-20713185D01*
G37*
%TD.AperFunction*%
%TD*%
M02*
