M48
; DRILL file {KiCad 9.0.1} date 2025-08-27T22:57:35+0200
; FORMAT={-:-/ absolute / metric / decimal}
; #@! TF.CreationDate,2025-08-27T22:57:35+02:00
; #@! TF.GenerationSoftware,Kicad,Pcbnew,9.0.1
; #@! TF.FileFunction,Plated,1,2,PTH
FMAT,2
METRIC
; #@! TA.AperFunction,Plated,PTH,ViaDrill
T1C0.300
; #@! TA.AperFunction,Plated,PTH,ViaDrill
T2C0.400
; #@! TA.AperFunction,Plated,PTH,ComponentDrill
T3C0.900
; #@! TA.AperFunction,Plated,PTH,ComponentDrill
T4C1.000
%
G90
G05
T1
X165.074Y-84.126
X167.0Y-84.3
X167.0Y-86.7
X173.625Y-89.925
X178.85Y-89.35
X178.85Y-90.25
X180.75Y-89.387
X180.8Y-90.225
T2
X166.6Y-81.0
X166.937Y-87.747
X168.1Y-91.4
X168.2Y-99.2
X168.3Y-103.8
X170.0Y-78.2
X170.7Y-86.2
X170.7Y-87.1
X172.9Y-82.0
X173.3Y-83.2
X173.8Y-85.8
X175.9Y-96.9
X177.5Y-80.4
X177.993Y-95.443
X178.95Y-92.6
X179.3Y-81.5
X182.1Y-81.0
X186.9Y-93.2
X187.0Y-81.2
T3
X161.3Y-96.745
X161.3Y-99.285
X161.3Y-101.825
X161.325Y-88.36
X161.325Y-90.9
X161.35Y-74.925
X161.35Y-77.465
X161.35Y-80.005
X161.35Y-82.545
T4
X166.5Y-74.6
X169.04Y-74.6
X171.58Y-74.6
X174.12Y-74.6
X176.66Y-74.6
X179.2Y-74.6
X181.74Y-74.6
X184.28Y-74.6
M30
