%TF.GenerationSoftware,KiCad,Pcbnew,9.0.1*%
%TF.CreationDate,2025-08-08T13:48:55+02:00*%
%TF.ProjectId,ventilation,76656e74-696c-4617-9469-6f6e2e6b6963,rev?*%
%TF.SameCoordinates,Original*%
%TF.FileFunction,Legend,Bot*%
%TF.FilePolarity,Positive*%
%FSLAX46Y46*%
G04 Gerber Fmt 4.6, Leading zero omitted, Abs format (unit mm)*
G04 Created by KiCad (PCBNEW 9.0.1) date 2025-08-08 13:48:55*
%MOMM*%
%LPD*%
G01*
G04 APERTURE LIST*
%ADD10C,0.150000*%
%ADD11C,0.120000*%
G04 APERTURE END LIST*
D10*
X162669411Y-77432438D02*
X162764649Y-77384819D01*
X162764649Y-77384819D02*
X162907506Y-77384819D01*
X162907506Y-77384819D02*
X163050363Y-77432438D01*
X163050363Y-77432438D02*
X163145601Y-77527676D01*
X163145601Y-77527676D02*
X163193220Y-77622914D01*
X163193220Y-77622914D02*
X163240839Y-77813390D01*
X163240839Y-77813390D02*
X163240839Y-77956247D01*
X163240839Y-77956247D02*
X163193220Y-78146723D01*
X163193220Y-78146723D02*
X163145601Y-78241961D01*
X163145601Y-78241961D02*
X163050363Y-78337200D01*
X163050363Y-78337200D02*
X162907506Y-78384819D01*
X162907506Y-78384819D02*
X162812268Y-78384819D01*
X162812268Y-78384819D02*
X162669411Y-78337200D01*
X162669411Y-78337200D02*
X162621792Y-78289580D01*
X162621792Y-78289580D02*
X162621792Y-77956247D01*
X162621792Y-77956247D02*
X162812268Y-77956247D01*
X162193220Y-78384819D02*
X162193220Y-77384819D01*
X162193220Y-77384819D02*
X161621792Y-78384819D01*
X161621792Y-78384819D02*
X161621792Y-77384819D01*
X161145601Y-78384819D02*
X161145601Y-77384819D01*
X161145601Y-77384819D02*
X160907506Y-77384819D01*
X160907506Y-77384819D02*
X160764649Y-77432438D01*
X160764649Y-77432438D02*
X160669411Y-77527676D01*
X160669411Y-77527676D02*
X160621792Y-77622914D01*
X160621792Y-77622914D02*
X160574173Y-77813390D01*
X160574173Y-77813390D02*
X160574173Y-77956247D01*
X160574173Y-77956247D02*
X160621792Y-78146723D01*
X160621792Y-78146723D02*
X160669411Y-78241961D01*
X160669411Y-78241961D02*
X160764649Y-78337200D01*
X160764649Y-78337200D02*
X160907506Y-78384819D01*
X160907506Y-78384819D02*
X161145601Y-78384819D01*
X163288458Y-79924819D02*
X162669411Y-79924819D01*
X162669411Y-79924819D02*
X163002744Y-80305771D01*
X163002744Y-80305771D02*
X162859887Y-80305771D01*
X162859887Y-80305771D02*
X162764649Y-80353390D01*
X162764649Y-80353390D02*
X162717030Y-80401009D01*
X162717030Y-80401009D02*
X162669411Y-80496247D01*
X162669411Y-80496247D02*
X162669411Y-80734342D01*
X162669411Y-80734342D02*
X162717030Y-80829580D01*
X162717030Y-80829580D02*
X162764649Y-80877200D01*
X162764649Y-80877200D02*
X162859887Y-80924819D01*
X162859887Y-80924819D02*
X163145601Y-80924819D01*
X163145601Y-80924819D02*
X163240839Y-80877200D01*
X163240839Y-80877200D02*
X163288458Y-80829580D01*
X162383696Y-79924819D02*
X162050363Y-80924819D01*
X162050363Y-80924819D02*
X161717030Y-79924819D01*
X161478934Y-79924819D02*
X160859887Y-79924819D01*
X160859887Y-79924819D02*
X161193220Y-80305771D01*
X161193220Y-80305771D02*
X161050363Y-80305771D01*
X161050363Y-80305771D02*
X160955125Y-80353390D01*
X160955125Y-80353390D02*
X160907506Y-80401009D01*
X160907506Y-80401009D02*
X160859887Y-80496247D01*
X160859887Y-80496247D02*
X160859887Y-80734342D01*
X160859887Y-80734342D02*
X160907506Y-80829580D01*
X160907506Y-80829580D02*
X160955125Y-80877200D01*
X160955125Y-80877200D02*
X161050363Y-80924819D01*
X161050363Y-80924819D02*
X161336077Y-80924819D01*
X161336077Y-80924819D02*
X161431315Y-80877200D01*
X161431315Y-80877200D02*
X161478934Y-80829580D01*
X163240839Y-85957200D02*
X163097982Y-86004819D01*
X163097982Y-86004819D02*
X162859887Y-86004819D01*
X162859887Y-86004819D02*
X162764649Y-85957200D01*
X162764649Y-85957200D02*
X162717030Y-85909580D01*
X162717030Y-85909580D02*
X162669411Y-85814342D01*
X162669411Y-85814342D02*
X162669411Y-85719104D01*
X162669411Y-85719104D02*
X162717030Y-85623866D01*
X162717030Y-85623866D02*
X162764649Y-85576247D01*
X162764649Y-85576247D02*
X162859887Y-85528628D01*
X162859887Y-85528628D02*
X163050363Y-85481009D01*
X163050363Y-85481009D02*
X163145601Y-85433390D01*
X163145601Y-85433390D02*
X163193220Y-85385771D01*
X163193220Y-85385771D02*
X163240839Y-85290533D01*
X163240839Y-85290533D02*
X163240839Y-85195295D01*
X163240839Y-85195295D02*
X163193220Y-85100057D01*
X163193220Y-85100057D02*
X163145601Y-85052438D01*
X163145601Y-85052438D02*
X163050363Y-85004819D01*
X163050363Y-85004819D02*
X162812268Y-85004819D01*
X162812268Y-85004819D02*
X162669411Y-85052438D01*
X162240839Y-86004819D02*
X162240839Y-85004819D01*
X162240839Y-85004819D02*
X162002744Y-85004819D01*
X162002744Y-85004819D02*
X161859887Y-85052438D01*
X161859887Y-85052438D02*
X161764649Y-85147676D01*
X161764649Y-85147676D02*
X161717030Y-85242914D01*
X161717030Y-85242914D02*
X161669411Y-85433390D01*
X161669411Y-85433390D02*
X161669411Y-85576247D01*
X161669411Y-85576247D02*
X161717030Y-85766723D01*
X161717030Y-85766723D02*
X161764649Y-85861961D01*
X161764649Y-85861961D02*
X161859887Y-85957200D01*
X161859887Y-85957200D02*
X162002744Y-86004819D01*
X162002744Y-86004819D02*
X162240839Y-86004819D01*
X161288458Y-85719104D02*
X160812268Y-85719104D01*
X161383696Y-86004819D02*
X161050363Y-85004819D01*
X161050363Y-85004819D02*
X160717030Y-86004819D01*
X163240839Y-83417200D02*
X163097982Y-83464819D01*
X163097982Y-83464819D02*
X162859887Y-83464819D01*
X162859887Y-83464819D02*
X162764649Y-83417200D01*
X162764649Y-83417200D02*
X162717030Y-83369580D01*
X162717030Y-83369580D02*
X162669411Y-83274342D01*
X162669411Y-83274342D02*
X162669411Y-83179104D01*
X162669411Y-83179104D02*
X162717030Y-83083866D01*
X162717030Y-83083866D02*
X162764649Y-83036247D01*
X162764649Y-83036247D02*
X162859887Y-82988628D01*
X162859887Y-82988628D02*
X163050363Y-82941009D01*
X163050363Y-82941009D02*
X163145601Y-82893390D01*
X163145601Y-82893390D02*
X163193220Y-82845771D01*
X163193220Y-82845771D02*
X163240839Y-82750533D01*
X163240839Y-82750533D02*
X163240839Y-82655295D01*
X163240839Y-82655295D02*
X163193220Y-82560057D01*
X163193220Y-82560057D02*
X163145601Y-82512438D01*
X163145601Y-82512438D02*
X163050363Y-82464819D01*
X163050363Y-82464819D02*
X162812268Y-82464819D01*
X162812268Y-82464819D02*
X162669411Y-82512438D01*
X161669411Y-83369580D02*
X161717030Y-83417200D01*
X161717030Y-83417200D02*
X161859887Y-83464819D01*
X161859887Y-83464819D02*
X161955125Y-83464819D01*
X161955125Y-83464819D02*
X162097982Y-83417200D01*
X162097982Y-83417200D02*
X162193220Y-83321961D01*
X162193220Y-83321961D02*
X162240839Y-83226723D01*
X162240839Y-83226723D02*
X162288458Y-83036247D01*
X162288458Y-83036247D02*
X162288458Y-82893390D01*
X162288458Y-82893390D02*
X162240839Y-82702914D01*
X162240839Y-82702914D02*
X162193220Y-82607676D01*
X162193220Y-82607676D02*
X162097982Y-82512438D01*
X162097982Y-82512438D02*
X161955125Y-82464819D01*
X161955125Y-82464819D02*
X161859887Y-82464819D01*
X161859887Y-82464819D02*
X161717030Y-82512438D01*
X161717030Y-82512438D02*
X161669411Y-82560057D01*
X160764649Y-83464819D02*
X161240839Y-83464819D01*
X161240839Y-83464819D02*
X161240839Y-82464819D01*
X169959580Y-83257142D02*
X170007200Y-83209523D01*
X170007200Y-83209523D02*
X170054819Y-83066666D01*
X170054819Y-83066666D02*
X170054819Y-82971428D01*
X170054819Y-82971428D02*
X170007200Y-82828571D01*
X170007200Y-82828571D02*
X169911961Y-82733333D01*
X169911961Y-82733333D02*
X169816723Y-82685714D01*
X169816723Y-82685714D02*
X169626247Y-82638095D01*
X169626247Y-82638095D02*
X169483390Y-82638095D01*
X169483390Y-82638095D02*
X169292914Y-82685714D01*
X169292914Y-82685714D02*
X169197676Y-82733333D01*
X169197676Y-82733333D02*
X169102438Y-82828571D01*
X169102438Y-82828571D02*
X169054819Y-82971428D01*
X169054819Y-82971428D02*
X169054819Y-83066666D01*
X169054819Y-83066666D02*
X169102438Y-83209523D01*
X169102438Y-83209523D02*
X169150057Y-83257142D01*
X170054819Y-84209523D02*
X170054819Y-83638095D01*
X170054819Y-83923809D02*
X169054819Y-83923809D01*
X169054819Y-83923809D02*
X169197676Y-83828571D01*
X169197676Y-83828571D02*
X169292914Y-83733333D01*
X169292914Y-83733333D02*
X169340533Y-83638095D01*
X170054819Y-85161904D02*
X170054819Y-84590476D01*
X170054819Y-84876190D02*
X169054819Y-84876190D01*
X169054819Y-84876190D02*
X169197676Y-84780952D01*
X169197676Y-84780952D02*
X169292914Y-84685714D01*
X169292914Y-84685714D02*
X169340533Y-84590476D01*
X171954819Y-79233333D02*
X171478628Y-78900000D01*
X171954819Y-78661905D02*
X170954819Y-78661905D01*
X170954819Y-78661905D02*
X170954819Y-79042857D01*
X170954819Y-79042857D02*
X171002438Y-79138095D01*
X171002438Y-79138095D02*
X171050057Y-79185714D01*
X171050057Y-79185714D02*
X171145295Y-79233333D01*
X171145295Y-79233333D02*
X171288152Y-79233333D01*
X171288152Y-79233333D02*
X171383390Y-79185714D01*
X171383390Y-79185714D02*
X171431009Y-79138095D01*
X171431009Y-79138095D02*
X171478628Y-79042857D01*
X171478628Y-79042857D02*
X171478628Y-78661905D01*
X171954819Y-79709524D02*
X171954819Y-79900000D01*
X171954819Y-79900000D02*
X171907200Y-79995238D01*
X171907200Y-79995238D02*
X171859580Y-80042857D01*
X171859580Y-80042857D02*
X171716723Y-80138095D01*
X171716723Y-80138095D02*
X171526247Y-80185714D01*
X171526247Y-80185714D02*
X171145295Y-80185714D01*
X171145295Y-80185714D02*
X171050057Y-80138095D01*
X171050057Y-80138095D02*
X171002438Y-80090476D01*
X171002438Y-80090476D02*
X170954819Y-79995238D01*
X170954819Y-79995238D02*
X170954819Y-79804762D01*
X170954819Y-79804762D02*
X171002438Y-79709524D01*
X171002438Y-79709524D02*
X171050057Y-79661905D01*
X171050057Y-79661905D02*
X171145295Y-79614286D01*
X171145295Y-79614286D02*
X171383390Y-79614286D01*
X171383390Y-79614286D02*
X171478628Y-79661905D01*
X171478628Y-79661905D02*
X171526247Y-79709524D01*
X171526247Y-79709524D02*
X171573866Y-79804762D01*
X171573866Y-79804762D02*
X171573866Y-79995238D01*
X171573866Y-79995238D02*
X171526247Y-80090476D01*
X171526247Y-80090476D02*
X171478628Y-80138095D01*
X171478628Y-80138095D02*
X171383390Y-80185714D01*
X170350057Y-97604761D02*
X170302438Y-97509523D01*
X170302438Y-97509523D02*
X170207200Y-97414285D01*
X170207200Y-97414285D02*
X170064342Y-97271428D01*
X170064342Y-97271428D02*
X170016723Y-97176190D01*
X170016723Y-97176190D02*
X170016723Y-97080952D01*
X170254819Y-97128571D02*
X170207200Y-97033333D01*
X170207200Y-97033333D02*
X170111961Y-96938095D01*
X170111961Y-96938095D02*
X169921485Y-96890476D01*
X169921485Y-96890476D02*
X169588152Y-96890476D01*
X169588152Y-96890476D02*
X169397676Y-96938095D01*
X169397676Y-96938095D02*
X169302438Y-97033333D01*
X169302438Y-97033333D02*
X169254819Y-97128571D01*
X169254819Y-97128571D02*
X169254819Y-97319047D01*
X169254819Y-97319047D02*
X169302438Y-97414285D01*
X169302438Y-97414285D02*
X169397676Y-97509523D01*
X169397676Y-97509523D02*
X169588152Y-97557142D01*
X169588152Y-97557142D02*
X169921485Y-97557142D01*
X169921485Y-97557142D02*
X170111961Y-97509523D01*
X170111961Y-97509523D02*
X170207200Y-97414285D01*
X170207200Y-97414285D02*
X170254819Y-97319047D01*
X170254819Y-97319047D02*
X170254819Y-97128571D01*
X170254819Y-98509523D02*
X170254819Y-97938095D01*
X170254819Y-98223809D02*
X169254819Y-98223809D01*
X169254819Y-98223809D02*
X169397676Y-98128571D01*
X169397676Y-98128571D02*
X169492914Y-98033333D01*
X169492914Y-98033333D02*
X169540533Y-97938095D01*
X175950057Y-97704761D02*
X175902438Y-97609523D01*
X175902438Y-97609523D02*
X175807200Y-97514285D01*
X175807200Y-97514285D02*
X175664342Y-97371428D01*
X175664342Y-97371428D02*
X175616723Y-97276190D01*
X175616723Y-97276190D02*
X175616723Y-97180952D01*
X175854819Y-97228571D02*
X175807200Y-97133333D01*
X175807200Y-97133333D02*
X175711961Y-97038095D01*
X175711961Y-97038095D02*
X175521485Y-96990476D01*
X175521485Y-96990476D02*
X175188152Y-96990476D01*
X175188152Y-96990476D02*
X174997676Y-97038095D01*
X174997676Y-97038095D02*
X174902438Y-97133333D01*
X174902438Y-97133333D02*
X174854819Y-97228571D01*
X174854819Y-97228571D02*
X174854819Y-97419047D01*
X174854819Y-97419047D02*
X174902438Y-97514285D01*
X174902438Y-97514285D02*
X174997676Y-97609523D01*
X174997676Y-97609523D02*
X175188152Y-97657142D01*
X175188152Y-97657142D02*
X175521485Y-97657142D01*
X175521485Y-97657142D02*
X175711961Y-97609523D01*
X175711961Y-97609523D02*
X175807200Y-97514285D01*
X175807200Y-97514285D02*
X175854819Y-97419047D01*
X175854819Y-97419047D02*
X175854819Y-97228571D01*
X174950057Y-98038095D02*
X174902438Y-98085714D01*
X174902438Y-98085714D02*
X174854819Y-98180952D01*
X174854819Y-98180952D02*
X174854819Y-98419047D01*
X174854819Y-98419047D02*
X174902438Y-98514285D01*
X174902438Y-98514285D02*
X174950057Y-98561904D01*
X174950057Y-98561904D02*
X175045295Y-98609523D01*
X175045295Y-98609523D02*
X175140533Y-98609523D01*
X175140533Y-98609523D02*
X175283390Y-98561904D01*
X175283390Y-98561904D02*
X175854819Y-97990476D01*
X175854819Y-97990476D02*
X175854819Y-98609523D01*
X186666666Y-82559580D02*
X186714285Y-82607200D01*
X186714285Y-82607200D02*
X186857142Y-82654819D01*
X186857142Y-82654819D02*
X186952380Y-82654819D01*
X186952380Y-82654819D02*
X187095237Y-82607200D01*
X187095237Y-82607200D02*
X187190475Y-82511961D01*
X187190475Y-82511961D02*
X187238094Y-82416723D01*
X187238094Y-82416723D02*
X187285713Y-82226247D01*
X187285713Y-82226247D02*
X187285713Y-82083390D01*
X187285713Y-82083390D02*
X187238094Y-81892914D01*
X187238094Y-81892914D02*
X187190475Y-81797676D01*
X187190475Y-81797676D02*
X187095237Y-81702438D01*
X187095237Y-81702438D02*
X186952380Y-81654819D01*
X186952380Y-81654819D02*
X186857142Y-81654819D01*
X186857142Y-81654819D02*
X186714285Y-81702438D01*
X186714285Y-81702438D02*
X186666666Y-81750057D01*
X186333332Y-81654819D02*
X185666666Y-81654819D01*
X185666666Y-81654819D02*
X186095237Y-82654819D01*
X180654819Y-93433333D02*
X180178628Y-93100000D01*
X180654819Y-92861905D02*
X179654819Y-92861905D01*
X179654819Y-92861905D02*
X179654819Y-93242857D01*
X179654819Y-93242857D02*
X179702438Y-93338095D01*
X179702438Y-93338095D02*
X179750057Y-93385714D01*
X179750057Y-93385714D02*
X179845295Y-93433333D01*
X179845295Y-93433333D02*
X179988152Y-93433333D01*
X179988152Y-93433333D02*
X180083390Y-93385714D01*
X180083390Y-93385714D02*
X180131009Y-93338095D01*
X180131009Y-93338095D02*
X180178628Y-93242857D01*
X180178628Y-93242857D02*
X180178628Y-92861905D01*
X179654819Y-94290476D02*
X179654819Y-94100000D01*
X179654819Y-94100000D02*
X179702438Y-94004762D01*
X179702438Y-94004762D02*
X179750057Y-93957143D01*
X179750057Y-93957143D02*
X179892914Y-93861905D01*
X179892914Y-93861905D02*
X180083390Y-93814286D01*
X180083390Y-93814286D02*
X180464342Y-93814286D01*
X180464342Y-93814286D02*
X180559580Y-93861905D01*
X180559580Y-93861905D02*
X180607200Y-93909524D01*
X180607200Y-93909524D02*
X180654819Y-94004762D01*
X180654819Y-94004762D02*
X180654819Y-94195238D01*
X180654819Y-94195238D02*
X180607200Y-94290476D01*
X180607200Y-94290476D02*
X180559580Y-94338095D01*
X180559580Y-94338095D02*
X180464342Y-94385714D01*
X180464342Y-94385714D02*
X180226247Y-94385714D01*
X180226247Y-94385714D02*
X180131009Y-94338095D01*
X180131009Y-94338095D02*
X180083390Y-94290476D01*
X180083390Y-94290476D02*
X180035771Y-94195238D01*
X180035771Y-94195238D02*
X180035771Y-94004762D01*
X180035771Y-94004762D02*
X180083390Y-93909524D01*
X180083390Y-93909524D02*
X180131009Y-93861905D01*
X180131009Y-93861905D02*
X180226247Y-93814286D01*
X169959580Y-81233333D02*
X170007200Y-81185714D01*
X170007200Y-81185714D02*
X170054819Y-81042857D01*
X170054819Y-81042857D02*
X170054819Y-80947619D01*
X170054819Y-80947619D02*
X170007200Y-80804762D01*
X170007200Y-80804762D02*
X169911961Y-80709524D01*
X169911961Y-80709524D02*
X169816723Y-80661905D01*
X169816723Y-80661905D02*
X169626247Y-80614286D01*
X169626247Y-80614286D02*
X169483390Y-80614286D01*
X169483390Y-80614286D02*
X169292914Y-80661905D01*
X169292914Y-80661905D02*
X169197676Y-80709524D01*
X169197676Y-80709524D02*
X169102438Y-80804762D01*
X169102438Y-80804762D02*
X169054819Y-80947619D01*
X169054819Y-80947619D02*
X169054819Y-81042857D01*
X169054819Y-81042857D02*
X169102438Y-81185714D01*
X169102438Y-81185714D02*
X169150057Y-81233333D01*
X169150057Y-81614286D02*
X169102438Y-81661905D01*
X169102438Y-81661905D02*
X169054819Y-81757143D01*
X169054819Y-81757143D02*
X169054819Y-81995238D01*
X169054819Y-81995238D02*
X169102438Y-82090476D01*
X169102438Y-82090476D02*
X169150057Y-82138095D01*
X169150057Y-82138095D02*
X169245295Y-82185714D01*
X169245295Y-82185714D02*
X169340533Y-82185714D01*
X169340533Y-82185714D02*
X169483390Y-82138095D01*
X169483390Y-82138095D02*
X170054819Y-81566667D01*
X170054819Y-81566667D02*
X170054819Y-82185714D01*
X184166666Y-82559580D02*
X184214285Y-82607200D01*
X184214285Y-82607200D02*
X184357142Y-82654819D01*
X184357142Y-82654819D02*
X184452380Y-82654819D01*
X184452380Y-82654819D02*
X184595237Y-82607200D01*
X184595237Y-82607200D02*
X184690475Y-82511961D01*
X184690475Y-82511961D02*
X184738094Y-82416723D01*
X184738094Y-82416723D02*
X184785713Y-82226247D01*
X184785713Y-82226247D02*
X184785713Y-82083390D01*
X184785713Y-82083390D02*
X184738094Y-81892914D01*
X184738094Y-81892914D02*
X184690475Y-81797676D01*
X184690475Y-81797676D02*
X184595237Y-81702438D01*
X184595237Y-81702438D02*
X184452380Y-81654819D01*
X184452380Y-81654819D02*
X184357142Y-81654819D01*
X184357142Y-81654819D02*
X184214285Y-81702438D01*
X184214285Y-81702438D02*
X184166666Y-81750057D01*
X183595237Y-82083390D02*
X183690475Y-82035771D01*
X183690475Y-82035771D02*
X183738094Y-81988152D01*
X183738094Y-81988152D02*
X183785713Y-81892914D01*
X183785713Y-81892914D02*
X183785713Y-81845295D01*
X183785713Y-81845295D02*
X183738094Y-81750057D01*
X183738094Y-81750057D02*
X183690475Y-81702438D01*
X183690475Y-81702438D02*
X183595237Y-81654819D01*
X183595237Y-81654819D02*
X183404761Y-81654819D01*
X183404761Y-81654819D02*
X183309523Y-81702438D01*
X183309523Y-81702438D02*
X183261904Y-81750057D01*
X183261904Y-81750057D02*
X183214285Y-81845295D01*
X183214285Y-81845295D02*
X183214285Y-81892914D01*
X183214285Y-81892914D02*
X183261904Y-81988152D01*
X183261904Y-81988152D02*
X183309523Y-82035771D01*
X183309523Y-82035771D02*
X183404761Y-82083390D01*
X183404761Y-82083390D02*
X183595237Y-82083390D01*
X183595237Y-82083390D02*
X183690475Y-82131009D01*
X183690475Y-82131009D02*
X183738094Y-82178628D01*
X183738094Y-82178628D02*
X183785713Y-82273866D01*
X183785713Y-82273866D02*
X183785713Y-82464342D01*
X183785713Y-82464342D02*
X183738094Y-82559580D01*
X183738094Y-82559580D02*
X183690475Y-82607200D01*
X183690475Y-82607200D02*
X183595237Y-82654819D01*
X183595237Y-82654819D02*
X183404761Y-82654819D01*
X183404761Y-82654819D02*
X183309523Y-82607200D01*
X183309523Y-82607200D02*
X183261904Y-82559580D01*
X183261904Y-82559580D02*
X183214285Y-82464342D01*
X183214285Y-82464342D02*
X183214285Y-82273866D01*
X183214285Y-82273866D02*
X183261904Y-82178628D01*
X183261904Y-82178628D02*
X183309523Y-82131009D01*
X183309523Y-82131009D02*
X183404761Y-82083390D01*
X179566666Y-87622080D02*
X179614285Y-87669700D01*
X179614285Y-87669700D02*
X179757142Y-87717319D01*
X179757142Y-87717319D02*
X179852380Y-87717319D01*
X179852380Y-87717319D02*
X179995237Y-87669700D01*
X179995237Y-87669700D02*
X180090475Y-87574461D01*
X180090475Y-87574461D02*
X180138094Y-87479223D01*
X180138094Y-87479223D02*
X180185713Y-87288747D01*
X180185713Y-87288747D02*
X180185713Y-87145890D01*
X180185713Y-87145890D02*
X180138094Y-86955414D01*
X180138094Y-86955414D02*
X180090475Y-86860176D01*
X180090475Y-86860176D02*
X179995237Y-86764938D01*
X179995237Y-86764938D02*
X179852380Y-86717319D01*
X179852380Y-86717319D02*
X179757142Y-86717319D01*
X179757142Y-86717319D02*
X179614285Y-86764938D01*
X179614285Y-86764938D02*
X179566666Y-86812557D01*
X178709523Y-87050652D02*
X178709523Y-87717319D01*
X178947618Y-86669700D02*
X179185713Y-87383985D01*
X179185713Y-87383985D02*
X178566666Y-87383985D01*
X168442857Y-90959580D02*
X168490476Y-91007200D01*
X168490476Y-91007200D02*
X168633333Y-91054819D01*
X168633333Y-91054819D02*
X168728571Y-91054819D01*
X168728571Y-91054819D02*
X168871428Y-91007200D01*
X168871428Y-91007200D02*
X168966666Y-90911961D01*
X168966666Y-90911961D02*
X169014285Y-90816723D01*
X169014285Y-90816723D02*
X169061904Y-90626247D01*
X169061904Y-90626247D02*
X169061904Y-90483390D01*
X169061904Y-90483390D02*
X169014285Y-90292914D01*
X169014285Y-90292914D02*
X168966666Y-90197676D01*
X168966666Y-90197676D02*
X168871428Y-90102438D01*
X168871428Y-90102438D02*
X168728571Y-90054819D01*
X168728571Y-90054819D02*
X168633333Y-90054819D01*
X168633333Y-90054819D02*
X168490476Y-90102438D01*
X168490476Y-90102438D02*
X168442857Y-90150057D01*
X167490476Y-91054819D02*
X168061904Y-91054819D01*
X167776190Y-91054819D02*
X167776190Y-90054819D01*
X167776190Y-90054819D02*
X167871428Y-90197676D01*
X167871428Y-90197676D02*
X167966666Y-90292914D01*
X167966666Y-90292914D02*
X168061904Y-90340533D01*
X166871428Y-90054819D02*
X166776190Y-90054819D01*
X166776190Y-90054819D02*
X166680952Y-90102438D01*
X166680952Y-90102438D02*
X166633333Y-90150057D01*
X166633333Y-90150057D02*
X166585714Y-90245295D01*
X166585714Y-90245295D02*
X166538095Y-90435771D01*
X166538095Y-90435771D02*
X166538095Y-90673866D01*
X166538095Y-90673866D02*
X166585714Y-90864342D01*
X166585714Y-90864342D02*
X166633333Y-90959580D01*
X166633333Y-90959580D02*
X166680952Y-91007200D01*
X166680952Y-91007200D02*
X166776190Y-91054819D01*
X166776190Y-91054819D02*
X166871428Y-91054819D01*
X166871428Y-91054819D02*
X166966666Y-91007200D01*
X166966666Y-91007200D02*
X167014285Y-90959580D01*
X167014285Y-90959580D02*
X167061904Y-90864342D01*
X167061904Y-90864342D02*
X167109523Y-90673866D01*
X167109523Y-90673866D02*
X167109523Y-90435771D01*
X167109523Y-90435771D02*
X167061904Y-90245295D01*
X167061904Y-90245295D02*
X167014285Y-90150057D01*
X167014285Y-90150057D02*
X166966666Y-90102438D01*
X166966666Y-90102438D02*
X166871428Y-90054819D01*
X180742080Y-89083333D02*
X180789700Y-89035714D01*
X180789700Y-89035714D02*
X180837319Y-88892857D01*
X180837319Y-88892857D02*
X180837319Y-88797619D01*
X180837319Y-88797619D02*
X180789700Y-88654762D01*
X180789700Y-88654762D02*
X180694461Y-88559524D01*
X180694461Y-88559524D02*
X180599223Y-88511905D01*
X180599223Y-88511905D02*
X180408747Y-88464286D01*
X180408747Y-88464286D02*
X180265890Y-88464286D01*
X180265890Y-88464286D02*
X180075414Y-88511905D01*
X180075414Y-88511905D02*
X179980176Y-88559524D01*
X179980176Y-88559524D02*
X179884938Y-88654762D01*
X179884938Y-88654762D02*
X179837319Y-88797619D01*
X179837319Y-88797619D02*
X179837319Y-88892857D01*
X179837319Y-88892857D02*
X179884938Y-89035714D01*
X179884938Y-89035714D02*
X179932557Y-89083333D01*
X179837319Y-89416667D02*
X179837319Y-90035714D01*
X179837319Y-90035714D02*
X180218271Y-89702381D01*
X180218271Y-89702381D02*
X180218271Y-89845238D01*
X180218271Y-89845238D02*
X180265890Y-89940476D01*
X180265890Y-89940476D02*
X180313509Y-89988095D01*
X180313509Y-89988095D02*
X180408747Y-90035714D01*
X180408747Y-90035714D02*
X180646842Y-90035714D01*
X180646842Y-90035714D02*
X180742080Y-89988095D01*
X180742080Y-89988095D02*
X180789700Y-89940476D01*
X180789700Y-89940476D02*
X180837319Y-89845238D01*
X180837319Y-89845238D02*
X180837319Y-89559524D01*
X180837319Y-89559524D02*
X180789700Y-89464286D01*
X180789700Y-89464286D02*
X180742080Y-89416667D01*
X180842080Y-90913333D02*
X180889700Y-90865714D01*
X180889700Y-90865714D02*
X180937319Y-90722857D01*
X180937319Y-90722857D02*
X180937319Y-90627619D01*
X180937319Y-90627619D02*
X180889700Y-90484762D01*
X180889700Y-90484762D02*
X180794461Y-90389524D01*
X180794461Y-90389524D02*
X180699223Y-90341905D01*
X180699223Y-90341905D02*
X180508747Y-90294286D01*
X180508747Y-90294286D02*
X180365890Y-90294286D01*
X180365890Y-90294286D02*
X180175414Y-90341905D01*
X180175414Y-90341905D02*
X180080176Y-90389524D01*
X180080176Y-90389524D02*
X179984938Y-90484762D01*
X179984938Y-90484762D02*
X179937319Y-90627619D01*
X179937319Y-90627619D02*
X179937319Y-90722857D01*
X179937319Y-90722857D02*
X179984938Y-90865714D01*
X179984938Y-90865714D02*
X180032557Y-90913333D01*
X180937319Y-91865714D02*
X180937319Y-91294286D01*
X180937319Y-91580000D02*
X179937319Y-91580000D01*
X179937319Y-91580000D02*
X180080176Y-91484762D01*
X180080176Y-91484762D02*
X180175414Y-91389524D01*
X180175414Y-91389524D02*
X180223033Y-91294286D01*
X169354819Y-87863095D02*
X170164342Y-87863095D01*
X170164342Y-87863095D02*
X170259580Y-87910714D01*
X170259580Y-87910714D02*
X170307200Y-87958333D01*
X170307200Y-87958333D02*
X170354819Y-88053571D01*
X170354819Y-88053571D02*
X170354819Y-88244047D01*
X170354819Y-88244047D02*
X170307200Y-88339285D01*
X170307200Y-88339285D02*
X170259580Y-88386904D01*
X170259580Y-88386904D02*
X170164342Y-88434523D01*
X170164342Y-88434523D02*
X169354819Y-88434523D01*
X169450057Y-88863095D02*
X169402438Y-88910714D01*
X169402438Y-88910714D02*
X169354819Y-89005952D01*
X169354819Y-89005952D02*
X169354819Y-89244047D01*
X169354819Y-89244047D02*
X169402438Y-89339285D01*
X169402438Y-89339285D02*
X169450057Y-89386904D01*
X169450057Y-89386904D02*
X169545295Y-89434523D01*
X169545295Y-89434523D02*
X169640533Y-89434523D01*
X169640533Y-89434523D02*
X169783390Y-89386904D01*
X169783390Y-89386904D02*
X170354819Y-88815476D01*
X170354819Y-88815476D02*
X170354819Y-89434523D01*
X175454819Y-93253333D02*
X174978628Y-92920000D01*
X175454819Y-92681905D02*
X174454819Y-92681905D01*
X174454819Y-92681905D02*
X174454819Y-93062857D01*
X174454819Y-93062857D02*
X174502438Y-93158095D01*
X174502438Y-93158095D02*
X174550057Y-93205714D01*
X174550057Y-93205714D02*
X174645295Y-93253333D01*
X174645295Y-93253333D02*
X174788152Y-93253333D01*
X174788152Y-93253333D02*
X174883390Y-93205714D01*
X174883390Y-93205714D02*
X174931009Y-93158095D01*
X174931009Y-93158095D02*
X174978628Y-93062857D01*
X174978628Y-93062857D02*
X174978628Y-92681905D01*
X174454819Y-93586667D02*
X174454819Y-94205714D01*
X174454819Y-94205714D02*
X174835771Y-93872381D01*
X174835771Y-93872381D02*
X174835771Y-94015238D01*
X174835771Y-94015238D02*
X174883390Y-94110476D01*
X174883390Y-94110476D02*
X174931009Y-94158095D01*
X174931009Y-94158095D02*
X175026247Y-94205714D01*
X175026247Y-94205714D02*
X175264342Y-94205714D01*
X175264342Y-94205714D02*
X175359580Y-94158095D01*
X175359580Y-94158095D02*
X175407200Y-94110476D01*
X175407200Y-94110476D02*
X175454819Y-94015238D01*
X175454819Y-94015238D02*
X175454819Y-93729524D01*
X175454819Y-93729524D02*
X175407200Y-93634286D01*
X175407200Y-93634286D02*
X175359580Y-93586667D01*
X171854819Y-76357142D02*
X171378628Y-76023809D01*
X171854819Y-75785714D02*
X170854819Y-75785714D01*
X170854819Y-75785714D02*
X170854819Y-76166666D01*
X170854819Y-76166666D02*
X170902438Y-76261904D01*
X170902438Y-76261904D02*
X170950057Y-76309523D01*
X170950057Y-76309523D02*
X171045295Y-76357142D01*
X171045295Y-76357142D02*
X171188152Y-76357142D01*
X171188152Y-76357142D02*
X171283390Y-76309523D01*
X171283390Y-76309523D02*
X171331009Y-76261904D01*
X171331009Y-76261904D02*
X171378628Y-76166666D01*
X171378628Y-76166666D02*
X171378628Y-75785714D01*
X171854819Y-77309523D02*
X171854819Y-76738095D01*
X171854819Y-77023809D02*
X170854819Y-77023809D01*
X170854819Y-77023809D02*
X170997676Y-76928571D01*
X170997676Y-76928571D02*
X171092914Y-76833333D01*
X171092914Y-76833333D02*
X171140533Y-76738095D01*
X170854819Y-77928571D02*
X170854819Y-78023809D01*
X170854819Y-78023809D02*
X170902438Y-78119047D01*
X170902438Y-78119047D02*
X170950057Y-78166666D01*
X170950057Y-78166666D02*
X171045295Y-78214285D01*
X171045295Y-78214285D02*
X171235771Y-78261904D01*
X171235771Y-78261904D02*
X171473866Y-78261904D01*
X171473866Y-78261904D02*
X171664342Y-78214285D01*
X171664342Y-78214285D02*
X171759580Y-78166666D01*
X171759580Y-78166666D02*
X171807200Y-78119047D01*
X171807200Y-78119047D02*
X171854819Y-78023809D01*
X171854819Y-78023809D02*
X171854819Y-77928571D01*
X171854819Y-77928571D02*
X171807200Y-77833333D01*
X171807200Y-77833333D02*
X171759580Y-77785714D01*
X171759580Y-77785714D02*
X171664342Y-77738095D01*
X171664342Y-77738095D02*
X171473866Y-77690476D01*
X171473866Y-77690476D02*
X171235771Y-77690476D01*
X171235771Y-77690476D02*
X171045295Y-77738095D01*
X171045295Y-77738095D02*
X170950057Y-77785714D01*
X170950057Y-77785714D02*
X170902438Y-77833333D01*
X170902438Y-77833333D02*
X170854819Y-77928571D01*
X162669411Y-90442438D02*
X162764649Y-90394819D01*
X162764649Y-90394819D02*
X162907506Y-90394819D01*
X162907506Y-90394819D02*
X163050363Y-90442438D01*
X163050363Y-90442438D02*
X163145601Y-90537676D01*
X163145601Y-90537676D02*
X163193220Y-90632914D01*
X163193220Y-90632914D02*
X163240839Y-90823390D01*
X163240839Y-90823390D02*
X163240839Y-90966247D01*
X163240839Y-90966247D02*
X163193220Y-91156723D01*
X163193220Y-91156723D02*
X163145601Y-91251961D01*
X163145601Y-91251961D02*
X163050363Y-91347200D01*
X163050363Y-91347200D02*
X162907506Y-91394819D01*
X162907506Y-91394819D02*
X162812268Y-91394819D01*
X162812268Y-91394819D02*
X162669411Y-91347200D01*
X162669411Y-91347200D02*
X162621792Y-91299580D01*
X162621792Y-91299580D02*
X162621792Y-90966247D01*
X162621792Y-90966247D02*
X162812268Y-90966247D01*
X162193220Y-91394819D02*
X162193220Y-90394819D01*
X162193220Y-90394819D02*
X161621792Y-91394819D01*
X161621792Y-91394819D02*
X161621792Y-90394819D01*
X161145601Y-91394819D02*
X161145601Y-90394819D01*
X161145601Y-90394819D02*
X160907506Y-90394819D01*
X160907506Y-90394819D02*
X160764649Y-90442438D01*
X160764649Y-90442438D02*
X160669411Y-90537676D01*
X160669411Y-90537676D02*
X160621792Y-90632914D01*
X160621792Y-90632914D02*
X160574173Y-90823390D01*
X160574173Y-90823390D02*
X160574173Y-90966247D01*
X160574173Y-90966247D02*
X160621792Y-91156723D01*
X160621792Y-91156723D02*
X160669411Y-91251961D01*
X160669411Y-91251961D02*
X160764649Y-91347200D01*
X160764649Y-91347200D02*
X160907506Y-91394819D01*
X160907506Y-91394819D02*
X161145601Y-91394819D01*
X163336077Y-98014819D02*
X163002744Y-99014819D01*
X163002744Y-99014819D02*
X162669411Y-98014819D01*
X162145601Y-98014819D02*
X161955125Y-98014819D01*
X161955125Y-98014819D02*
X161859887Y-98062438D01*
X161859887Y-98062438D02*
X161764649Y-98157676D01*
X161764649Y-98157676D02*
X161717030Y-98348152D01*
X161717030Y-98348152D02*
X161717030Y-98681485D01*
X161717030Y-98681485D02*
X161764649Y-98871961D01*
X161764649Y-98871961D02*
X161859887Y-98967200D01*
X161859887Y-98967200D02*
X161955125Y-99014819D01*
X161955125Y-99014819D02*
X162145601Y-99014819D01*
X162145601Y-99014819D02*
X162240839Y-98967200D01*
X162240839Y-98967200D02*
X162336077Y-98871961D01*
X162336077Y-98871961D02*
X162383696Y-98681485D01*
X162383696Y-98681485D02*
X162383696Y-98348152D01*
X162383696Y-98348152D02*
X162336077Y-98157676D01*
X162336077Y-98157676D02*
X162240839Y-98062438D01*
X162240839Y-98062438D02*
X162145601Y-98014819D01*
X161288458Y-98014819D02*
X161288458Y-98824342D01*
X161288458Y-98824342D02*
X161240839Y-98919580D01*
X161240839Y-98919580D02*
X161193220Y-98967200D01*
X161193220Y-98967200D02*
X161097982Y-99014819D01*
X161097982Y-99014819D02*
X160907506Y-99014819D01*
X160907506Y-99014819D02*
X160812268Y-98967200D01*
X160812268Y-98967200D02*
X160764649Y-98919580D01*
X160764649Y-98919580D02*
X160717030Y-98824342D01*
X160717030Y-98824342D02*
X160717030Y-98014819D01*
X160383696Y-98014819D02*
X159812268Y-98014819D01*
X160097982Y-99014819D02*
X160097982Y-98014819D01*
X163240839Y-96427200D02*
X163097982Y-96474819D01*
X163097982Y-96474819D02*
X162859887Y-96474819D01*
X162859887Y-96474819D02*
X162764649Y-96427200D01*
X162764649Y-96427200D02*
X162717030Y-96379580D01*
X162717030Y-96379580D02*
X162669411Y-96284342D01*
X162669411Y-96284342D02*
X162669411Y-96189104D01*
X162669411Y-96189104D02*
X162717030Y-96093866D01*
X162717030Y-96093866D02*
X162764649Y-96046247D01*
X162764649Y-96046247D02*
X162859887Y-95998628D01*
X162859887Y-95998628D02*
X163050363Y-95951009D01*
X163050363Y-95951009D02*
X163145601Y-95903390D01*
X163145601Y-95903390D02*
X163193220Y-95855771D01*
X163193220Y-95855771D02*
X163240839Y-95760533D01*
X163240839Y-95760533D02*
X163240839Y-95665295D01*
X163240839Y-95665295D02*
X163193220Y-95570057D01*
X163193220Y-95570057D02*
X163145601Y-95522438D01*
X163145601Y-95522438D02*
X163050363Y-95474819D01*
X163050363Y-95474819D02*
X162812268Y-95474819D01*
X162812268Y-95474819D02*
X162669411Y-95522438D01*
X162240839Y-96474819D02*
X162240839Y-95474819D01*
X161240840Y-95522438D02*
X161336078Y-95474819D01*
X161336078Y-95474819D02*
X161478935Y-95474819D01*
X161478935Y-95474819D02*
X161621792Y-95522438D01*
X161621792Y-95522438D02*
X161717030Y-95617676D01*
X161717030Y-95617676D02*
X161764649Y-95712914D01*
X161764649Y-95712914D02*
X161812268Y-95903390D01*
X161812268Y-95903390D02*
X161812268Y-96046247D01*
X161812268Y-96046247D02*
X161764649Y-96236723D01*
X161764649Y-96236723D02*
X161717030Y-96331961D01*
X161717030Y-96331961D02*
X161621792Y-96427200D01*
X161621792Y-96427200D02*
X161478935Y-96474819D01*
X161478935Y-96474819D02*
X161383697Y-96474819D01*
X161383697Y-96474819D02*
X161240840Y-96427200D01*
X161240840Y-96427200D02*
X161193221Y-96379580D01*
X161193221Y-96379580D02*
X161193221Y-96046247D01*
X161193221Y-96046247D02*
X161383697Y-96046247D01*
X163336077Y-92934819D02*
X163002744Y-93934819D01*
X163002744Y-93934819D02*
X162669411Y-92934819D01*
X162336077Y-93934819D02*
X162336077Y-92934819D01*
X161859887Y-93934819D02*
X161859887Y-92934819D01*
X161859887Y-92934819D02*
X161288459Y-93934819D01*
X161288459Y-93934819D02*
X161288459Y-92934819D01*
D11*
%TO.C,C11*%
X172561252Y-83065000D02*
X172038748Y-83065000D01*
X172561252Y-84535000D02*
X172038748Y-84535000D01*
%TO.C,R9*%
X169127064Y-78465000D02*
X168672936Y-78465000D01*
X169127064Y-79935000D02*
X168672936Y-79935000D01*
%TO.C,Q1*%
X170640000Y-97700000D02*
X170640000Y-97050000D01*
X170640000Y-97700000D02*
X170640000Y-98350000D01*
X173760000Y-97700000D02*
X173760000Y-97050000D01*
X173760000Y-97700000D02*
X173760000Y-98350000D01*
X170690000Y-96537500D02*
X170360000Y-96777500D01*
X170360000Y-96297500D01*
X170690000Y-96537500D01*
G36*
X170690000Y-96537500D02*
G01*
X170360000Y-96777500D01*
X170360000Y-96297500D01*
X170690000Y-96537500D01*
G37*
%TO.C,Q2*%
X176240000Y-97800000D02*
X176240000Y-97150000D01*
X176240000Y-97800000D02*
X176240000Y-98450000D01*
X179360000Y-97800000D02*
X179360000Y-97150000D01*
X179360000Y-97800000D02*
X179360000Y-98450000D01*
X176290000Y-96637500D02*
X175960000Y-96877500D01*
X175960000Y-96397500D01*
X176290000Y-96637500D01*
G36*
X176290000Y-96637500D02*
G01*
X175960000Y-96877500D01*
X175960000Y-96397500D01*
X176290000Y-96637500D01*
G37*
%TO.C,C7*%
X185765000Y-84538748D02*
X185765000Y-85061252D01*
X187235000Y-84538748D02*
X187235000Y-85061252D01*
%TO.C,R6*%
X178027064Y-92765000D02*
X177572936Y-92765000D01*
X178027064Y-94235000D02*
X177572936Y-94235000D01*
%TO.C,C2*%
X172561252Y-80565000D02*
X172038748Y-80565000D01*
X172561252Y-82035000D02*
X172038748Y-82035000D01*
%TO.C,C8*%
X183265000Y-84538748D02*
X183265000Y-85061252D01*
X184735000Y-84538748D02*
X184735000Y-85061252D01*
%TO.C,C4*%
X178665000Y-84438748D02*
X178665000Y-84961252D01*
X180135000Y-84438748D02*
X180135000Y-84961252D01*
%TO.C,C10*%
X167565000Y-93023752D02*
X167565000Y-92501248D01*
X169035000Y-93023752D02*
X169035000Y-92501248D01*
%TO.C,C3*%
X177568748Y-88365000D02*
X178091252Y-88365000D01*
X177568748Y-89835000D02*
X178091252Y-89835000D01*
%TO.C,C1*%
X177568748Y-90565000D02*
X178091252Y-90565000D01*
X177568748Y-92035000D02*
X178091252Y-92035000D01*
%TO.C,U2*%
X170740000Y-88625000D02*
X170740000Y-87975000D01*
X170740000Y-88625000D02*
X170740000Y-89275000D01*
X173860000Y-88625000D02*
X173860000Y-87975000D01*
X173860000Y-88625000D02*
X173860000Y-89275000D01*
X170790000Y-87462500D02*
X170460000Y-87702500D01*
X170460000Y-87222500D01*
X170790000Y-87462500D01*
G36*
X170790000Y-87462500D02*
G01*
X170460000Y-87702500D01*
X170460000Y-87222500D01*
X170790000Y-87462500D01*
G37*
%TO.C,R3*%
X172172936Y-92765000D02*
X172627064Y-92765000D01*
X172172936Y-94235000D02*
X172627064Y-94235000D01*
%TO.C,R10*%
X168672936Y-76265000D02*
X169127064Y-76265000D01*
X168672936Y-77735000D02*
X169127064Y-77735000D01*
%TD*%
M02*
