%TF.GenerationSoftware,KiCad,Pcbnew,9.0.1*%
%TF.CreationDate,2025-08-27T22:57:26+02:00*%
%TF.ProjectId,ventilation,76656e74-696c-4617-9469-6f6e2e6b6963,rev?*%
%TF.SameCoordinates,Original*%
%TF.FileFunction,Legend,Bot*%
%TF.FilePolarity,Positive*%
%FSLAX46Y46*%
G04 Gerber Fmt 4.6, Leading zero omitted, Abs format (unit mm)*
G04 Created by KiCad (PCBNEW 9.0.1) date 2025-08-27 22:57:26*
%MOMM*%
%LPD*%
G01*
G04 APERTURE LIST*
%ADD10C,0.300000*%
%ADD11C,0.150000*%
%ADD12C,0.120000*%
%ADD13C,0.100000*%
G04 APERTURE END LIST*
D10*
X186976441Y-99419750D02*
X186976441Y-97419750D01*
X186976441Y-97419750D02*
X186214536Y-97419750D01*
X186214536Y-97419750D02*
X186024060Y-97514988D01*
X186024060Y-97514988D02*
X185928822Y-97610226D01*
X185928822Y-97610226D02*
X185833584Y-97800702D01*
X185833584Y-97800702D02*
X185833584Y-98086416D01*
X185833584Y-98086416D02*
X185928822Y-98276892D01*
X185928822Y-98276892D02*
X186024060Y-98372131D01*
X186024060Y-98372131D02*
X186214536Y-98467369D01*
X186214536Y-98467369D02*
X186976441Y-98467369D01*
X185262155Y-97419750D02*
X184595489Y-99419750D01*
X184595489Y-99419750D02*
X183928822Y-97419750D01*
X183262155Y-99419750D02*
X183262155Y-97419750D01*
X183262155Y-97419750D02*
X182785965Y-97419750D01*
X182785965Y-97419750D02*
X182500250Y-97514988D01*
X182500250Y-97514988D02*
X182309774Y-97705464D01*
X182309774Y-97705464D02*
X182214536Y-97895940D01*
X182214536Y-97895940D02*
X182119298Y-98276892D01*
X182119298Y-98276892D02*
X182119298Y-98562607D01*
X182119298Y-98562607D02*
X182214536Y-98943559D01*
X182214536Y-98943559D02*
X182309774Y-99134035D01*
X182309774Y-99134035D02*
X182500250Y-99324512D01*
X182500250Y-99324512D02*
X182785965Y-99419750D01*
X182785965Y-99419750D02*
X183262155Y-99419750D01*
X181452631Y-97419750D02*
X180976441Y-99419750D01*
X180976441Y-99419750D02*
X180595488Y-97991178D01*
X180595488Y-97991178D02*
X180214536Y-99419750D01*
X180214536Y-99419750D02*
X179738346Y-97419750D01*
X187071679Y-100830114D02*
X186976441Y-100734876D01*
X186976441Y-100734876D02*
X186785965Y-100639638D01*
X186785965Y-100639638D02*
X186309774Y-100639638D01*
X186309774Y-100639638D02*
X186119298Y-100734876D01*
X186119298Y-100734876D02*
X186024060Y-100830114D01*
X186024060Y-100830114D02*
X185928822Y-101020590D01*
X185928822Y-101020590D02*
X185928822Y-101211066D01*
X185928822Y-101211066D02*
X186024060Y-101496780D01*
X186024060Y-101496780D02*
X187166917Y-102639638D01*
X187166917Y-102639638D02*
X185928822Y-102639638D01*
X184690727Y-100639638D02*
X184500250Y-100639638D01*
X184500250Y-100639638D02*
X184309774Y-100734876D01*
X184309774Y-100734876D02*
X184214536Y-100830114D01*
X184214536Y-100830114D02*
X184119298Y-101020590D01*
X184119298Y-101020590D02*
X184024060Y-101401542D01*
X184024060Y-101401542D02*
X184024060Y-101877733D01*
X184024060Y-101877733D02*
X184119298Y-102258685D01*
X184119298Y-102258685D02*
X184214536Y-102449161D01*
X184214536Y-102449161D02*
X184309774Y-102544400D01*
X184309774Y-102544400D02*
X184500250Y-102639638D01*
X184500250Y-102639638D02*
X184690727Y-102639638D01*
X184690727Y-102639638D02*
X184881203Y-102544400D01*
X184881203Y-102544400D02*
X184976441Y-102449161D01*
X184976441Y-102449161D02*
X185071679Y-102258685D01*
X185071679Y-102258685D02*
X185166917Y-101877733D01*
X185166917Y-101877733D02*
X185166917Y-101401542D01*
X185166917Y-101401542D02*
X185071679Y-101020590D01*
X185071679Y-101020590D02*
X184976441Y-100830114D01*
X184976441Y-100830114D02*
X184881203Y-100734876D01*
X184881203Y-100734876D02*
X184690727Y-100639638D01*
X183262155Y-100830114D02*
X183166917Y-100734876D01*
X183166917Y-100734876D02*
X182976441Y-100639638D01*
X182976441Y-100639638D02*
X182500250Y-100639638D01*
X182500250Y-100639638D02*
X182309774Y-100734876D01*
X182309774Y-100734876D02*
X182214536Y-100830114D01*
X182214536Y-100830114D02*
X182119298Y-101020590D01*
X182119298Y-101020590D02*
X182119298Y-101211066D01*
X182119298Y-101211066D02*
X182214536Y-101496780D01*
X182214536Y-101496780D02*
X183357393Y-102639638D01*
X183357393Y-102639638D02*
X182119298Y-102639638D01*
X180309774Y-100639638D02*
X181262155Y-100639638D01*
X181262155Y-100639638D02*
X181357393Y-101592019D01*
X181357393Y-101592019D02*
X181262155Y-101496780D01*
X181262155Y-101496780D02*
X181071679Y-101401542D01*
X181071679Y-101401542D02*
X180595488Y-101401542D01*
X180595488Y-101401542D02*
X180405012Y-101496780D01*
X180405012Y-101496780D02*
X180309774Y-101592019D01*
X180309774Y-101592019D02*
X180214536Y-101782495D01*
X180214536Y-101782495D02*
X180214536Y-102258685D01*
X180214536Y-102258685D02*
X180309774Y-102449161D01*
X180309774Y-102449161D02*
X180405012Y-102544400D01*
X180405012Y-102544400D02*
X180595488Y-102639638D01*
X180595488Y-102639638D02*
X181071679Y-102639638D01*
X181071679Y-102639638D02*
X181262155Y-102544400D01*
X181262155Y-102544400D02*
X181357393Y-102449161D01*
D11*
X167404819Y-92888095D02*
X168214342Y-92888095D01*
X168214342Y-92888095D02*
X168309580Y-92935714D01*
X168309580Y-92935714D02*
X168357200Y-92983333D01*
X168357200Y-92983333D02*
X168404819Y-93078571D01*
X168404819Y-93078571D02*
X168404819Y-93269047D01*
X168404819Y-93269047D02*
X168357200Y-93364285D01*
X168357200Y-93364285D02*
X168309580Y-93411904D01*
X168309580Y-93411904D02*
X168214342Y-93459523D01*
X168214342Y-93459523D02*
X167404819Y-93459523D01*
X167500057Y-93888095D02*
X167452438Y-93935714D01*
X167452438Y-93935714D02*
X167404819Y-94030952D01*
X167404819Y-94030952D02*
X167404819Y-94269047D01*
X167404819Y-94269047D02*
X167452438Y-94364285D01*
X167452438Y-94364285D02*
X167500057Y-94411904D01*
X167500057Y-94411904D02*
X167595295Y-94459523D01*
X167595295Y-94459523D02*
X167690533Y-94459523D01*
X167690533Y-94459523D02*
X167833390Y-94411904D01*
X167833390Y-94411904D02*
X168404819Y-93840476D01*
X168404819Y-93840476D02*
X168404819Y-94459523D01*
X159169411Y-96297438D02*
X159264649Y-96249819D01*
X159264649Y-96249819D02*
X159407506Y-96249819D01*
X159407506Y-96249819D02*
X159550363Y-96297438D01*
X159550363Y-96297438D02*
X159645601Y-96392676D01*
X159645601Y-96392676D02*
X159693220Y-96487914D01*
X159693220Y-96487914D02*
X159740839Y-96678390D01*
X159740839Y-96678390D02*
X159740839Y-96821247D01*
X159740839Y-96821247D02*
X159693220Y-97011723D01*
X159693220Y-97011723D02*
X159645601Y-97106961D01*
X159645601Y-97106961D02*
X159550363Y-97202200D01*
X159550363Y-97202200D02*
X159407506Y-97249819D01*
X159407506Y-97249819D02*
X159312268Y-97249819D01*
X159312268Y-97249819D02*
X159169411Y-97202200D01*
X159169411Y-97202200D02*
X159121792Y-97154580D01*
X159121792Y-97154580D02*
X159121792Y-96821247D01*
X159121792Y-96821247D02*
X159312268Y-96821247D01*
X158693220Y-97249819D02*
X158693220Y-96249819D01*
X158693220Y-96249819D02*
X158121792Y-97249819D01*
X158121792Y-97249819D02*
X158121792Y-96249819D01*
X157645601Y-97249819D02*
X157645601Y-96249819D01*
X157645601Y-96249819D02*
X157407506Y-96249819D01*
X157407506Y-96249819D02*
X157264649Y-96297438D01*
X157264649Y-96297438D02*
X157169411Y-96392676D01*
X157169411Y-96392676D02*
X157121792Y-96487914D01*
X157121792Y-96487914D02*
X157074173Y-96678390D01*
X157074173Y-96678390D02*
X157074173Y-96821247D01*
X157074173Y-96821247D02*
X157121792Y-97011723D01*
X157121792Y-97011723D02*
X157169411Y-97106961D01*
X157169411Y-97106961D02*
X157264649Y-97202200D01*
X157264649Y-97202200D02*
X157407506Y-97249819D01*
X157407506Y-97249819D02*
X157645601Y-97249819D01*
X159836077Y-101329819D02*
X159502744Y-102329819D01*
X159502744Y-102329819D02*
X159169411Y-101329819D01*
X158264649Y-102234580D02*
X158312268Y-102282200D01*
X158312268Y-102282200D02*
X158455125Y-102329819D01*
X158455125Y-102329819D02*
X158550363Y-102329819D01*
X158550363Y-102329819D02*
X158693220Y-102282200D01*
X158693220Y-102282200D02*
X158788458Y-102186961D01*
X158788458Y-102186961D02*
X158836077Y-102091723D01*
X158836077Y-102091723D02*
X158883696Y-101901247D01*
X158883696Y-101901247D02*
X158883696Y-101758390D01*
X158883696Y-101758390D02*
X158836077Y-101567914D01*
X158836077Y-101567914D02*
X158788458Y-101472676D01*
X158788458Y-101472676D02*
X158693220Y-101377438D01*
X158693220Y-101377438D02*
X158550363Y-101329819D01*
X158550363Y-101329819D02*
X158455125Y-101329819D01*
X158455125Y-101329819D02*
X158312268Y-101377438D01*
X158312268Y-101377438D02*
X158264649Y-101425057D01*
X157264649Y-102234580D02*
X157312268Y-102282200D01*
X157312268Y-102282200D02*
X157455125Y-102329819D01*
X157455125Y-102329819D02*
X157550363Y-102329819D01*
X157550363Y-102329819D02*
X157693220Y-102282200D01*
X157693220Y-102282200D02*
X157788458Y-102186961D01*
X157788458Y-102186961D02*
X157836077Y-102091723D01*
X157836077Y-102091723D02*
X157883696Y-101901247D01*
X157883696Y-101901247D02*
X157883696Y-101758390D01*
X157883696Y-101758390D02*
X157836077Y-101567914D01*
X157836077Y-101567914D02*
X157788458Y-101472676D01*
X157788458Y-101472676D02*
X157693220Y-101377438D01*
X157693220Y-101377438D02*
X157550363Y-101329819D01*
X157550363Y-101329819D02*
X157455125Y-101329819D01*
X157455125Y-101329819D02*
X157312268Y-101377438D01*
X157312268Y-101377438D02*
X157264649Y-101425057D01*
X159740839Y-99742200D02*
X159597982Y-99789819D01*
X159597982Y-99789819D02*
X159359887Y-99789819D01*
X159359887Y-99789819D02*
X159264649Y-99742200D01*
X159264649Y-99742200D02*
X159217030Y-99694580D01*
X159217030Y-99694580D02*
X159169411Y-99599342D01*
X159169411Y-99599342D02*
X159169411Y-99504104D01*
X159169411Y-99504104D02*
X159217030Y-99408866D01*
X159217030Y-99408866D02*
X159264649Y-99361247D01*
X159264649Y-99361247D02*
X159359887Y-99313628D01*
X159359887Y-99313628D02*
X159550363Y-99266009D01*
X159550363Y-99266009D02*
X159645601Y-99218390D01*
X159645601Y-99218390D02*
X159693220Y-99170771D01*
X159693220Y-99170771D02*
X159740839Y-99075533D01*
X159740839Y-99075533D02*
X159740839Y-98980295D01*
X159740839Y-98980295D02*
X159693220Y-98885057D01*
X159693220Y-98885057D02*
X159645601Y-98837438D01*
X159645601Y-98837438D02*
X159550363Y-98789819D01*
X159550363Y-98789819D02*
X159312268Y-98789819D01*
X159312268Y-98789819D02*
X159169411Y-98837438D01*
X158740839Y-99789819D02*
X158740839Y-98789819D01*
X157740840Y-98837438D02*
X157836078Y-98789819D01*
X157836078Y-98789819D02*
X157978935Y-98789819D01*
X157978935Y-98789819D02*
X158121792Y-98837438D01*
X158121792Y-98837438D02*
X158217030Y-98932676D01*
X158217030Y-98932676D02*
X158264649Y-99027914D01*
X158264649Y-99027914D02*
X158312268Y-99218390D01*
X158312268Y-99218390D02*
X158312268Y-99361247D01*
X158312268Y-99361247D02*
X158264649Y-99551723D01*
X158264649Y-99551723D02*
X158217030Y-99646961D01*
X158217030Y-99646961D02*
X158121792Y-99742200D01*
X158121792Y-99742200D02*
X157978935Y-99789819D01*
X157978935Y-99789819D02*
X157883697Y-99789819D01*
X157883697Y-99789819D02*
X157740840Y-99742200D01*
X157740840Y-99742200D02*
X157693221Y-99694580D01*
X157693221Y-99694580D02*
X157693221Y-99361247D01*
X157693221Y-99361247D02*
X157883697Y-99361247D01*
X159209887Y-90841009D02*
X159067030Y-90888628D01*
X159067030Y-90888628D02*
X159019411Y-90936247D01*
X159019411Y-90936247D02*
X158971792Y-91031485D01*
X158971792Y-91031485D02*
X158971792Y-91174342D01*
X158971792Y-91174342D02*
X159019411Y-91269580D01*
X159019411Y-91269580D02*
X159067030Y-91317200D01*
X159067030Y-91317200D02*
X159162268Y-91364819D01*
X159162268Y-91364819D02*
X159543220Y-91364819D01*
X159543220Y-91364819D02*
X159543220Y-90364819D01*
X159543220Y-90364819D02*
X159209887Y-90364819D01*
X159209887Y-90364819D02*
X159114649Y-90412438D01*
X159114649Y-90412438D02*
X159067030Y-90460057D01*
X159067030Y-90460057D02*
X159019411Y-90555295D01*
X159019411Y-90555295D02*
X159019411Y-90650533D01*
X159019411Y-90650533D02*
X159067030Y-90745771D01*
X159067030Y-90745771D02*
X159114649Y-90793390D01*
X159114649Y-90793390D02*
X159209887Y-90841009D01*
X159209887Y-90841009D02*
X159543220Y-90841009D01*
X158590839Y-91079104D02*
X158114649Y-91079104D01*
X158686077Y-91364819D02*
X158352744Y-90364819D01*
X158352744Y-90364819D02*
X158019411Y-91364819D01*
X157828934Y-90364819D02*
X157257506Y-90364819D01*
X157543220Y-91364819D02*
X157543220Y-90364819D01*
X156924172Y-90983866D02*
X156162268Y-90983866D01*
X156543220Y-91364819D02*
X156543220Y-90602914D01*
X159384887Y-88341009D02*
X159242030Y-88388628D01*
X159242030Y-88388628D02*
X159194411Y-88436247D01*
X159194411Y-88436247D02*
X159146792Y-88531485D01*
X159146792Y-88531485D02*
X159146792Y-88674342D01*
X159146792Y-88674342D02*
X159194411Y-88769580D01*
X159194411Y-88769580D02*
X159242030Y-88817200D01*
X159242030Y-88817200D02*
X159337268Y-88864819D01*
X159337268Y-88864819D02*
X159718220Y-88864819D01*
X159718220Y-88864819D02*
X159718220Y-87864819D01*
X159718220Y-87864819D02*
X159384887Y-87864819D01*
X159384887Y-87864819D02*
X159289649Y-87912438D01*
X159289649Y-87912438D02*
X159242030Y-87960057D01*
X159242030Y-87960057D02*
X159194411Y-88055295D01*
X159194411Y-88055295D02*
X159194411Y-88150533D01*
X159194411Y-88150533D02*
X159242030Y-88245771D01*
X159242030Y-88245771D02*
X159289649Y-88293390D01*
X159289649Y-88293390D02*
X159384887Y-88341009D01*
X159384887Y-88341009D02*
X159718220Y-88341009D01*
X158765839Y-88579104D02*
X158289649Y-88579104D01*
X158861077Y-88864819D02*
X158527744Y-87864819D01*
X158527744Y-87864819D02*
X158194411Y-88864819D01*
X158003934Y-87864819D02*
X157432506Y-87864819D01*
X157718220Y-88864819D02*
X157718220Y-87864819D01*
X157099172Y-88483866D02*
X156337268Y-88483866D01*
X159790839Y-75382200D02*
X159647982Y-75429819D01*
X159647982Y-75429819D02*
X159409887Y-75429819D01*
X159409887Y-75429819D02*
X159314649Y-75382200D01*
X159314649Y-75382200D02*
X159267030Y-75334580D01*
X159267030Y-75334580D02*
X159219411Y-75239342D01*
X159219411Y-75239342D02*
X159219411Y-75144104D01*
X159219411Y-75144104D02*
X159267030Y-75048866D01*
X159267030Y-75048866D02*
X159314649Y-75001247D01*
X159314649Y-75001247D02*
X159409887Y-74953628D01*
X159409887Y-74953628D02*
X159600363Y-74906009D01*
X159600363Y-74906009D02*
X159695601Y-74858390D01*
X159695601Y-74858390D02*
X159743220Y-74810771D01*
X159743220Y-74810771D02*
X159790839Y-74715533D01*
X159790839Y-74715533D02*
X159790839Y-74620295D01*
X159790839Y-74620295D02*
X159743220Y-74525057D01*
X159743220Y-74525057D02*
X159695601Y-74477438D01*
X159695601Y-74477438D02*
X159600363Y-74429819D01*
X159600363Y-74429819D02*
X159362268Y-74429819D01*
X159362268Y-74429819D02*
X159219411Y-74477438D01*
X158219411Y-75334580D02*
X158267030Y-75382200D01*
X158267030Y-75382200D02*
X158409887Y-75429819D01*
X158409887Y-75429819D02*
X158505125Y-75429819D01*
X158505125Y-75429819D02*
X158647982Y-75382200D01*
X158647982Y-75382200D02*
X158743220Y-75286961D01*
X158743220Y-75286961D02*
X158790839Y-75191723D01*
X158790839Y-75191723D02*
X158838458Y-75001247D01*
X158838458Y-75001247D02*
X158838458Y-74858390D01*
X158838458Y-74858390D02*
X158790839Y-74667914D01*
X158790839Y-74667914D02*
X158743220Y-74572676D01*
X158743220Y-74572676D02*
X158647982Y-74477438D01*
X158647982Y-74477438D02*
X158505125Y-74429819D01*
X158505125Y-74429819D02*
X158409887Y-74429819D01*
X158409887Y-74429819D02*
X158267030Y-74477438D01*
X158267030Y-74477438D02*
X158219411Y-74525057D01*
X157314649Y-75429819D02*
X157790839Y-75429819D01*
X157790839Y-75429819D02*
X157790839Y-74429819D01*
X159790839Y-77922200D02*
X159647982Y-77969819D01*
X159647982Y-77969819D02*
X159409887Y-77969819D01*
X159409887Y-77969819D02*
X159314649Y-77922200D01*
X159314649Y-77922200D02*
X159267030Y-77874580D01*
X159267030Y-77874580D02*
X159219411Y-77779342D01*
X159219411Y-77779342D02*
X159219411Y-77684104D01*
X159219411Y-77684104D02*
X159267030Y-77588866D01*
X159267030Y-77588866D02*
X159314649Y-77541247D01*
X159314649Y-77541247D02*
X159409887Y-77493628D01*
X159409887Y-77493628D02*
X159600363Y-77446009D01*
X159600363Y-77446009D02*
X159695601Y-77398390D01*
X159695601Y-77398390D02*
X159743220Y-77350771D01*
X159743220Y-77350771D02*
X159790839Y-77255533D01*
X159790839Y-77255533D02*
X159790839Y-77160295D01*
X159790839Y-77160295D02*
X159743220Y-77065057D01*
X159743220Y-77065057D02*
X159695601Y-77017438D01*
X159695601Y-77017438D02*
X159600363Y-76969819D01*
X159600363Y-76969819D02*
X159362268Y-76969819D01*
X159362268Y-76969819D02*
X159219411Y-77017438D01*
X158790839Y-77969819D02*
X158790839Y-76969819D01*
X158790839Y-76969819D02*
X158552744Y-76969819D01*
X158552744Y-76969819D02*
X158409887Y-77017438D01*
X158409887Y-77017438D02*
X158314649Y-77112676D01*
X158314649Y-77112676D02*
X158267030Y-77207914D01*
X158267030Y-77207914D02*
X158219411Y-77398390D01*
X158219411Y-77398390D02*
X158219411Y-77541247D01*
X158219411Y-77541247D02*
X158267030Y-77731723D01*
X158267030Y-77731723D02*
X158314649Y-77826961D01*
X158314649Y-77826961D02*
X158409887Y-77922200D01*
X158409887Y-77922200D02*
X158552744Y-77969819D01*
X158552744Y-77969819D02*
X158790839Y-77969819D01*
X157838458Y-77684104D02*
X157362268Y-77684104D01*
X157933696Y-77969819D02*
X157600363Y-76969819D01*
X157600363Y-76969819D02*
X157267030Y-77969819D01*
X159838458Y-82049819D02*
X159219411Y-82049819D01*
X159219411Y-82049819D02*
X159552744Y-82430771D01*
X159552744Y-82430771D02*
X159409887Y-82430771D01*
X159409887Y-82430771D02*
X159314649Y-82478390D01*
X159314649Y-82478390D02*
X159267030Y-82526009D01*
X159267030Y-82526009D02*
X159219411Y-82621247D01*
X159219411Y-82621247D02*
X159219411Y-82859342D01*
X159219411Y-82859342D02*
X159267030Y-82954580D01*
X159267030Y-82954580D02*
X159314649Y-83002200D01*
X159314649Y-83002200D02*
X159409887Y-83049819D01*
X159409887Y-83049819D02*
X159695601Y-83049819D01*
X159695601Y-83049819D02*
X159790839Y-83002200D01*
X159790839Y-83002200D02*
X159838458Y-82954580D01*
X158933696Y-82049819D02*
X158600363Y-83049819D01*
X158600363Y-83049819D02*
X158267030Y-82049819D01*
X158028934Y-82049819D02*
X157409887Y-82049819D01*
X157409887Y-82049819D02*
X157743220Y-82430771D01*
X157743220Y-82430771D02*
X157600363Y-82430771D01*
X157600363Y-82430771D02*
X157505125Y-82478390D01*
X157505125Y-82478390D02*
X157457506Y-82526009D01*
X157457506Y-82526009D02*
X157409887Y-82621247D01*
X157409887Y-82621247D02*
X157409887Y-82859342D01*
X157409887Y-82859342D02*
X157457506Y-82954580D01*
X157457506Y-82954580D02*
X157505125Y-83002200D01*
X157505125Y-83002200D02*
X157600363Y-83049819D01*
X157600363Y-83049819D02*
X157886077Y-83049819D01*
X157886077Y-83049819D02*
X157981315Y-83002200D01*
X157981315Y-83002200D02*
X158028934Y-82954580D01*
X159219411Y-79557438D02*
X159314649Y-79509819D01*
X159314649Y-79509819D02*
X159457506Y-79509819D01*
X159457506Y-79509819D02*
X159600363Y-79557438D01*
X159600363Y-79557438D02*
X159695601Y-79652676D01*
X159695601Y-79652676D02*
X159743220Y-79747914D01*
X159743220Y-79747914D02*
X159790839Y-79938390D01*
X159790839Y-79938390D02*
X159790839Y-80081247D01*
X159790839Y-80081247D02*
X159743220Y-80271723D01*
X159743220Y-80271723D02*
X159695601Y-80366961D01*
X159695601Y-80366961D02*
X159600363Y-80462200D01*
X159600363Y-80462200D02*
X159457506Y-80509819D01*
X159457506Y-80509819D02*
X159362268Y-80509819D01*
X159362268Y-80509819D02*
X159219411Y-80462200D01*
X159219411Y-80462200D02*
X159171792Y-80414580D01*
X159171792Y-80414580D02*
X159171792Y-80081247D01*
X159171792Y-80081247D02*
X159362268Y-80081247D01*
X158743220Y-80509819D02*
X158743220Y-79509819D01*
X158743220Y-79509819D02*
X158171792Y-80509819D01*
X158171792Y-80509819D02*
X158171792Y-79509819D01*
X157695601Y-80509819D02*
X157695601Y-79509819D01*
X157695601Y-79509819D02*
X157457506Y-79509819D01*
X157457506Y-79509819D02*
X157314649Y-79557438D01*
X157314649Y-79557438D02*
X157219411Y-79652676D01*
X157219411Y-79652676D02*
X157171792Y-79747914D01*
X157171792Y-79747914D02*
X157124173Y-79938390D01*
X157124173Y-79938390D02*
X157124173Y-80081247D01*
X157124173Y-80081247D02*
X157171792Y-80271723D01*
X157171792Y-80271723D02*
X157219411Y-80366961D01*
X157219411Y-80366961D02*
X157314649Y-80462200D01*
X157314649Y-80462200D02*
X157457506Y-80509819D01*
X157457506Y-80509819D02*
X157695601Y-80509819D01*
X167959580Y-89157142D02*
X168007200Y-89109523D01*
X168007200Y-89109523D02*
X168054819Y-88966666D01*
X168054819Y-88966666D02*
X168054819Y-88871428D01*
X168054819Y-88871428D02*
X168007200Y-88728571D01*
X168007200Y-88728571D02*
X167911961Y-88633333D01*
X167911961Y-88633333D02*
X167816723Y-88585714D01*
X167816723Y-88585714D02*
X167626247Y-88538095D01*
X167626247Y-88538095D02*
X167483390Y-88538095D01*
X167483390Y-88538095D02*
X167292914Y-88585714D01*
X167292914Y-88585714D02*
X167197676Y-88633333D01*
X167197676Y-88633333D02*
X167102438Y-88728571D01*
X167102438Y-88728571D02*
X167054819Y-88871428D01*
X167054819Y-88871428D02*
X167054819Y-88966666D01*
X167054819Y-88966666D02*
X167102438Y-89109523D01*
X167102438Y-89109523D02*
X167150057Y-89157142D01*
X168054819Y-90109523D02*
X168054819Y-89538095D01*
X168054819Y-89823809D02*
X167054819Y-89823809D01*
X167054819Y-89823809D02*
X167197676Y-89728571D01*
X167197676Y-89728571D02*
X167292914Y-89633333D01*
X167292914Y-89633333D02*
X167340533Y-89538095D01*
X168054819Y-91061904D02*
X168054819Y-90490476D01*
X168054819Y-90776190D02*
X167054819Y-90776190D01*
X167054819Y-90776190D02*
X167197676Y-90680952D01*
X167197676Y-90680952D02*
X167292914Y-90585714D01*
X167292914Y-90585714D02*
X167340533Y-90490476D01*
X168529819Y-77208333D02*
X168053628Y-76875000D01*
X168529819Y-76636905D02*
X167529819Y-76636905D01*
X167529819Y-76636905D02*
X167529819Y-77017857D01*
X167529819Y-77017857D02*
X167577438Y-77113095D01*
X167577438Y-77113095D02*
X167625057Y-77160714D01*
X167625057Y-77160714D02*
X167720295Y-77208333D01*
X167720295Y-77208333D02*
X167863152Y-77208333D01*
X167863152Y-77208333D02*
X167958390Y-77160714D01*
X167958390Y-77160714D02*
X168006009Y-77113095D01*
X168006009Y-77113095D02*
X168053628Y-77017857D01*
X168053628Y-77017857D02*
X168053628Y-76636905D01*
X168529819Y-77684524D02*
X168529819Y-77875000D01*
X168529819Y-77875000D02*
X168482200Y-77970238D01*
X168482200Y-77970238D02*
X168434580Y-78017857D01*
X168434580Y-78017857D02*
X168291723Y-78113095D01*
X168291723Y-78113095D02*
X168101247Y-78160714D01*
X168101247Y-78160714D02*
X167720295Y-78160714D01*
X167720295Y-78160714D02*
X167625057Y-78113095D01*
X167625057Y-78113095D02*
X167577438Y-78065476D01*
X167577438Y-78065476D02*
X167529819Y-77970238D01*
X167529819Y-77970238D02*
X167529819Y-77779762D01*
X167529819Y-77779762D02*
X167577438Y-77684524D01*
X167577438Y-77684524D02*
X167625057Y-77636905D01*
X167625057Y-77636905D02*
X167720295Y-77589286D01*
X167720295Y-77589286D02*
X167958390Y-77589286D01*
X167958390Y-77589286D02*
X168053628Y-77636905D01*
X168053628Y-77636905D02*
X168101247Y-77684524D01*
X168101247Y-77684524D02*
X168148866Y-77779762D01*
X168148866Y-77779762D02*
X168148866Y-77970238D01*
X168148866Y-77970238D02*
X168101247Y-78065476D01*
X168101247Y-78065476D02*
X168053628Y-78113095D01*
X168053628Y-78113095D02*
X167958390Y-78160714D01*
X186666666Y-82559580D02*
X186714285Y-82607200D01*
X186714285Y-82607200D02*
X186857142Y-82654819D01*
X186857142Y-82654819D02*
X186952380Y-82654819D01*
X186952380Y-82654819D02*
X187095237Y-82607200D01*
X187095237Y-82607200D02*
X187190475Y-82511961D01*
X187190475Y-82511961D02*
X187238094Y-82416723D01*
X187238094Y-82416723D02*
X187285713Y-82226247D01*
X187285713Y-82226247D02*
X187285713Y-82083390D01*
X187285713Y-82083390D02*
X187238094Y-81892914D01*
X187238094Y-81892914D02*
X187190475Y-81797676D01*
X187190475Y-81797676D02*
X187095237Y-81702438D01*
X187095237Y-81702438D02*
X186952380Y-81654819D01*
X186952380Y-81654819D02*
X186857142Y-81654819D01*
X186857142Y-81654819D02*
X186714285Y-81702438D01*
X186714285Y-81702438D02*
X186666666Y-81750057D01*
X186333332Y-81654819D02*
X185666666Y-81654819D01*
X185666666Y-81654819D02*
X186095237Y-82654819D01*
X173728571Y-103654819D02*
X174061904Y-103178628D01*
X174299999Y-103654819D02*
X174299999Y-102654819D01*
X174299999Y-102654819D02*
X173919047Y-102654819D01*
X173919047Y-102654819D02*
X173823809Y-102702438D01*
X173823809Y-102702438D02*
X173776190Y-102750057D01*
X173776190Y-102750057D02*
X173728571Y-102845295D01*
X173728571Y-102845295D02*
X173728571Y-102988152D01*
X173728571Y-102988152D02*
X173776190Y-103083390D01*
X173776190Y-103083390D02*
X173823809Y-103131009D01*
X173823809Y-103131009D02*
X173919047Y-103178628D01*
X173919047Y-103178628D02*
X174299999Y-103178628D01*
X173299999Y-103131009D02*
X172966666Y-103131009D01*
X172823809Y-103654819D02*
X173299999Y-103654819D01*
X173299999Y-103654819D02*
X173299999Y-102654819D01*
X173299999Y-102654819D02*
X172823809Y-102654819D01*
X172442856Y-103607200D02*
X172299999Y-103654819D01*
X172299999Y-103654819D02*
X172061904Y-103654819D01*
X172061904Y-103654819D02*
X171966666Y-103607200D01*
X171966666Y-103607200D02*
X171919047Y-103559580D01*
X171919047Y-103559580D02*
X171871428Y-103464342D01*
X171871428Y-103464342D02*
X171871428Y-103369104D01*
X171871428Y-103369104D02*
X171919047Y-103273866D01*
X171919047Y-103273866D02*
X171966666Y-103226247D01*
X171966666Y-103226247D02*
X172061904Y-103178628D01*
X172061904Y-103178628D02*
X172252380Y-103131009D01*
X172252380Y-103131009D02*
X172347618Y-103083390D01*
X172347618Y-103083390D02*
X172395237Y-103035771D01*
X172395237Y-103035771D02*
X172442856Y-102940533D01*
X172442856Y-102940533D02*
X172442856Y-102845295D01*
X172442856Y-102845295D02*
X172395237Y-102750057D01*
X172395237Y-102750057D02*
X172347618Y-102702438D01*
X172347618Y-102702438D02*
X172252380Y-102654819D01*
X172252380Y-102654819D02*
X172014285Y-102654819D01*
X172014285Y-102654819D02*
X171871428Y-102702438D01*
X171442856Y-103131009D02*
X171109523Y-103131009D01*
X170966666Y-103654819D02*
X171442856Y-103654819D01*
X171442856Y-103654819D02*
X171442856Y-102654819D01*
X171442856Y-102654819D02*
X170966666Y-102654819D01*
X170680951Y-102654819D02*
X170109523Y-102654819D01*
X170395237Y-103654819D02*
X170395237Y-102654819D01*
X169252380Y-103654819D02*
X169823808Y-103654819D01*
X169538094Y-103654819D02*
X169538094Y-102654819D01*
X169538094Y-102654819D02*
X169633332Y-102797676D01*
X169633332Y-102797676D02*
X169728570Y-102892914D01*
X169728570Y-102892914D02*
X169823808Y-102940533D01*
X177454819Y-89845833D02*
X176978628Y-89512500D01*
X177454819Y-89274405D02*
X176454819Y-89274405D01*
X176454819Y-89274405D02*
X176454819Y-89655357D01*
X176454819Y-89655357D02*
X176502438Y-89750595D01*
X176502438Y-89750595D02*
X176550057Y-89798214D01*
X176550057Y-89798214D02*
X176645295Y-89845833D01*
X176645295Y-89845833D02*
X176788152Y-89845833D01*
X176788152Y-89845833D02*
X176883390Y-89798214D01*
X176883390Y-89798214D02*
X176931009Y-89750595D01*
X176931009Y-89750595D02*
X176978628Y-89655357D01*
X176978628Y-89655357D02*
X176978628Y-89274405D01*
X177454819Y-90798214D02*
X177454819Y-90226786D01*
X177454819Y-90512500D02*
X176454819Y-90512500D01*
X176454819Y-90512500D02*
X176597676Y-90417262D01*
X176597676Y-90417262D02*
X176692914Y-90322024D01*
X176692914Y-90322024D02*
X176740533Y-90226786D01*
X173159580Y-80133333D02*
X173207200Y-80085714D01*
X173207200Y-80085714D02*
X173254819Y-79942857D01*
X173254819Y-79942857D02*
X173254819Y-79847619D01*
X173254819Y-79847619D02*
X173207200Y-79704762D01*
X173207200Y-79704762D02*
X173111961Y-79609524D01*
X173111961Y-79609524D02*
X173016723Y-79561905D01*
X173016723Y-79561905D02*
X172826247Y-79514286D01*
X172826247Y-79514286D02*
X172683390Y-79514286D01*
X172683390Y-79514286D02*
X172492914Y-79561905D01*
X172492914Y-79561905D02*
X172397676Y-79609524D01*
X172397676Y-79609524D02*
X172302438Y-79704762D01*
X172302438Y-79704762D02*
X172254819Y-79847619D01*
X172254819Y-79847619D02*
X172254819Y-79942857D01*
X172254819Y-79942857D02*
X172302438Y-80085714D01*
X172302438Y-80085714D02*
X172350057Y-80133333D01*
X172350057Y-80514286D02*
X172302438Y-80561905D01*
X172302438Y-80561905D02*
X172254819Y-80657143D01*
X172254819Y-80657143D02*
X172254819Y-80895238D01*
X172254819Y-80895238D02*
X172302438Y-80990476D01*
X172302438Y-80990476D02*
X172350057Y-81038095D01*
X172350057Y-81038095D02*
X172445295Y-81085714D01*
X172445295Y-81085714D02*
X172540533Y-81085714D01*
X172540533Y-81085714D02*
X172683390Y-81038095D01*
X172683390Y-81038095D02*
X173254819Y-80466667D01*
X173254819Y-80466667D02*
X173254819Y-81085714D01*
X184166666Y-82559580D02*
X184214285Y-82607200D01*
X184214285Y-82607200D02*
X184357142Y-82654819D01*
X184357142Y-82654819D02*
X184452380Y-82654819D01*
X184452380Y-82654819D02*
X184595237Y-82607200D01*
X184595237Y-82607200D02*
X184690475Y-82511961D01*
X184690475Y-82511961D02*
X184738094Y-82416723D01*
X184738094Y-82416723D02*
X184785713Y-82226247D01*
X184785713Y-82226247D02*
X184785713Y-82083390D01*
X184785713Y-82083390D02*
X184738094Y-81892914D01*
X184738094Y-81892914D02*
X184690475Y-81797676D01*
X184690475Y-81797676D02*
X184595237Y-81702438D01*
X184595237Y-81702438D02*
X184452380Y-81654819D01*
X184452380Y-81654819D02*
X184357142Y-81654819D01*
X184357142Y-81654819D02*
X184214285Y-81702438D01*
X184214285Y-81702438D02*
X184166666Y-81750057D01*
X183595237Y-82083390D02*
X183690475Y-82035771D01*
X183690475Y-82035771D02*
X183738094Y-81988152D01*
X183738094Y-81988152D02*
X183785713Y-81892914D01*
X183785713Y-81892914D02*
X183785713Y-81845295D01*
X183785713Y-81845295D02*
X183738094Y-81750057D01*
X183738094Y-81750057D02*
X183690475Y-81702438D01*
X183690475Y-81702438D02*
X183595237Y-81654819D01*
X183595237Y-81654819D02*
X183404761Y-81654819D01*
X183404761Y-81654819D02*
X183309523Y-81702438D01*
X183309523Y-81702438D02*
X183261904Y-81750057D01*
X183261904Y-81750057D02*
X183214285Y-81845295D01*
X183214285Y-81845295D02*
X183214285Y-81892914D01*
X183214285Y-81892914D02*
X183261904Y-81988152D01*
X183261904Y-81988152D02*
X183309523Y-82035771D01*
X183309523Y-82035771D02*
X183404761Y-82083390D01*
X183404761Y-82083390D02*
X183595237Y-82083390D01*
X183595237Y-82083390D02*
X183690475Y-82131009D01*
X183690475Y-82131009D02*
X183738094Y-82178628D01*
X183738094Y-82178628D02*
X183785713Y-82273866D01*
X183785713Y-82273866D02*
X183785713Y-82464342D01*
X183785713Y-82464342D02*
X183738094Y-82559580D01*
X183738094Y-82559580D02*
X183690475Y-82607200D01*
X183690475Y-82607200D02*
X183595237Y-82654819D01*
X183595237Y-82654819D02*
X183404761Y-82654819D01*
X183404761Y-82654819D02*
X183309523Y-82607200D01*
X183309523Y-82607200D02*
X183261904Y-82559580D01*
X183261904Y-82559580D02*
X183214285Y-82464342D01*
X183214285Y-82464342D02*
X183214285Y-82273866D01*
X183214285Y-82273866D02*
X183261904Y-82178628D01*
X183261904Y-82178628D02*
X183309523Y-82131009D01*
X183309523Y-82131009D02*
X183404761Y-82083390D01*
X177572080Y-93672081D02*
X177619700Y-93624462D01*
X177619700Y-93624462D02*
X177667319Y-93481605D01*
X177667319Y-93481605D02*
X177667319Y-93386367D01*
X177667319Y-93386367D02*
X177619700Y-93243510D01*
X177619700Y-93243510D02*
X177524461Y-93148272D01*
X177524461Y-93148272D02*
X177429223Y-93100653D01*
X177429223Y-93100653D02*
X177238747Y-93053034D01*
X177238747Y-93053034D02*
X177095890Y-93053034D01*
X177095890Y-93053034D02*
X176905414Y-93100653D01*
X176905414Y-93100653D02*
X176810176Y-93148272D01*
X176810176Y-93148272D02*
X176714938Y-93243510D01*
X176714938Y-93243510D02*
X176667319Y-93386367D01*
X176667319Y-93386367D02*
X176667319Y-93481605D01*
X176667319Y-93481605D02*
X176714938Y-93624462D01*
X176714938Y-93624462D02*
X176762557Y-93672081D01*
X176667319Y-94529224D02*
X176667319Y-94338748D01*
X176667319Y-94338748D02*
X176714938Y-94243510D01*
X176714938Y-94243510D02*
X176762557Y-94195891D01*
X176762557Y-94195891D02*
X176905414Y-94100653D01*
X176905414Y-94100653D02*
X177095890Y-94053034D01*
X177095890Y-94053034D02*
X177476842Y-94053034D01*
X177476842Y-94053034D02*
X177572080Y-94100653D01*
X177572080Y-94100653D02*
X177619700Y-94148272D01*
X177619700Y-94148272D02*
X177667319Y-94243510D01*
X177667319Y-94243510D02*
X177667319Y-94433986D01*
X177667319Y-94433986D02*
X177619700Y-94529224D01*
X177619700Y-94529224D02*
X177572080Y-94576843D01*
X177572080Y-94576843D02*
X177476842Y-94624462D01*
X177476842Y-94624462D02*
X177238747Y-94624462D01*
X177238747Y-94624462D02*
X177143509Y-94576843D01*
X177143509Y-94576843D02*
X177095890Y-94529224D01*
X177095890Y-94529224D02*
X177048271Y-94433986D01*
X177048271Y-94433986D02*
X177048271Y-94243510D01*
X177048271Y-94243510D02*
X177095890Y-94148272D01*
X177095890Y-94148272D02*
X177143509Y-94100653D01*
X177143509Y-94100653D02*
X177238747Y-94053034D01*
X177359580Y-81433333D02*
X177407200Y-81385714D01*
X177407200Y-81385714D02*
X177454819Y-81242857D01*
X177454819Y-81242857D02*
X177454819Y-81147619D01*
X177454819Y-81147619D02*
X177407200Y-81004762D01*
X177407200Y-81004762D02*
X177311961Y-80909524D01*
X177311961Y-80909524D02*
X177216723Y-80861905D01*
X177216723Y-80861905D02*
X177026247Y-80814286D01*
X177026247Y-80814286D02*
X176883390Y-80814286D01*
X176883390Y-80814286D02*
X176692914Y-80861905D01*
X176692914Y-80861905D02*
X176597676Y-80909524D01*
X176597676Y-80909524D02*
X176502438Y-81004762D01*
X176502438Y-81004762D02*
X176454819Y-81147619D01*
X176454819Y-81147619D02*
X176454819Y-81242857D01*
X176454819Y-81242857D02*
X176502438Y-81385714D01*
X176502438Y-81385714D02*
X176550057Y-81433333D01*
X176788152Y-82290476D02*
X177454819Y-82290476D01*
X176407200Y-82052381D02*
X177121485Y-81814286D01*
X177121485Y-81814286D02*
X177121485Y-82433333D01*
X166794047Y-96259580D02*
X166841666Y-96307200D01*
X166841666Y-96307200D02*
X166984523Y-96354819D01*
X166984523Y-96354819D02*
X167079761Y-96354819D01*
X167079761Y-96354819D02*
X167222618Y-96307200D01*
X167222618Y-96307200D02*
X167317856Y-96211961D01*
X167317856Y-96211961D02*
X167365475Y-96116723D01*
X167365475Y-96116723D02*
X167413094Y-95926247D01*
X167413094Y-95926247D02*
X167413094Y-95783390D01*
X167413094Y-95783390D02*
X167365475Y-95592914D01*
X167365475Y-95592914D02*
X167317856Y-95497676D01*
X167317856Y-95497676D02*
X167222618Y-95402438D01*
X167222618Y-95402438D02*
X167079761Y-95354819D01*
X167079761Y-95354819D02*
X166984523Y-95354819D01*
X166984523Y-95354819D02*
X166841666Y-95402438D01*
X166841666Y-95402438D02*
X166794047Y-95450057D01*
X165841666Y-96354819D02*
X166413094Y-96354819D01*
X166127380Y-96354819D02*
X166127380Y-95354819D01*
X166127380Y-95354819D02*
X166222618Y-95497676D01*
X166222618Y-95497676D02*
X166317856Y-95592914D01*
X166317856Y-95592914D02*
X166413094Y-95640533D01*
X165222618Y-95354819D02*
X165127380Y-95354819D01*
X165127380Y-95354819D02*
X165032142Y-95402438D01*
X165032142Y-95402438D02*
X164984523Y-95450057D01*
X164984523Y-95450057D02*
X164936904Y-95545295D01*
X164936904Y-95545295D02*
X164889285Y-95735771D01*
X164889285Y-95735771D02*
X164889285Y-95973866D01*
X164889285Y-95973866D02*
X164936904Y-96164342D01*
X164936904Y-96164342D02*
X164984523Y-96259580D01*
X164984523Y-96259580D02*
X165032142Y-96307200D01*
X165032142Y-96307200D02*
X165127380Y-96354819D01*
X165127380Y-96354819D02*
X165222618Y-96354819D01*
X165222618Y-96354819D02*
X165317856Y-96307200D01*
X165317856Y-96307200D02*
X165365475Y-96259580D01*
X165365475Y-96259580D02*
X165413094Y-96164342D01*
X165413094Y-96164342D02*
X165460713Y-95973866D01*
X165460713Y-95973866D02*
X165460713Y-95735771D01*
X165460713Y-95735771D02*
X165413094Y-95545295D01*
X165413094Y-95545295D02*
X165365475Y-95450057D01*
X165365475Y-95450057D02*
X165317856Y-95402438D01*
X165317856Y-95402438D02*
X165222618Y-95354819D01*
X172466666Y-88459580D02*
X172514285Y-88507200D01*
X172514285Y-88507200D02*
X172657142Y-88554819D01*
X172657142Y-88554819D02*
X172752380Y-88554819D01*
X172752380Y-88554819D02*
X172895237Y-88507200D01*
X172895237Y-88507200D02*
X172990475Y-88411961D01*
X172990475Y-88411961D02*
X173038094Y-88316723D01*
X173038094Y-88316723D02*
X173085713Y-88126247D01*
X173085713Y-88126247D02*
X173085713Y-87983390D01*
X173085713Y-87983390D02*
X173038094Y-87792914D01*
X173038094Y-87792914D02*
X172990475Y-87697676D01*
X172990475Y-87697676D02*
X172895237Y-87602438D01*
X172895237Y-87602438D02*
X172752380Y-87554819D01*
X172752380Y-87554819D02*
X172657142Y-87554819D01*
X172657142Y-87554819D02*
X172514285Y-87602438D01*
X172514285Y-87602438D02*
X172466666Y-87650057D01*
X172133332Y-87554819D02*
X171514285Y-87554819D01*
X171514285Y-87554819D02*
X171847618Y-87935771D01*
X171847618Y-87935771D02*
X171704761Y-87935771D01*
X171704761Y-87935771D02*
X171609523Y-87983390D01*
X171609523Y-87983390D02*
X171561904Y-88031009D01*
X171561904Y-88031009D02*
X171514285Y-88126247D01*
X171514285Y-88126247D02*
X171514285Y-88364342D01*
X171514285Y-88364342D02*
X171561904Y-88459580D01*
X171561904Y-88459580D02*
X171609523Y-88507200D01*
X171609523Y-88507200D02*
X171704761Y-88554819D01*
X171704761Y-88554819D02*
X171990475Y-88554819D01*
X171990475Y-88554819D02*
X172085713Y-88507200D01*
X172085713Y-88507200D02*
X172133332Y-88459580D01*
X177359580Y-85333333D02*
X177407200Y-85285714D01*
X177407200Y-85285714D02*
X177454819Y-85142857D01*
X177454819Y-85142857D02*
X177454819Y-85047619D01*
X177454819Y-85047619D02*
X177407200Y-84904762D01*
X177407200Y-84904762D02*
X177311961Y-84809524D01*
X177311961Y-84809524D02*
X177216723Y-84761905D01*
X177216723Y-84761905D02*
X177026247Y-84714286D01*
X177026247Y-84714286D02*
X176883390Y-84714286D01*
X176883390Y-84714286D02*
X176692914Y-84761905D01*
X176692914Y-84761905D02*
X176597676Y-84809524D01*
X176597676Y-84809524D02*
X176502438Y-84904762D01*
X176502438Y-84904762D02*
X176454819Y-85047619D01*
X176454819Y-85047619D02*
X176454819Y-85142857D01*
X176454819Y-85142857D02*
X176502438Y-85285714D01*
X176502438Y-85285714D02*
X176550057Y-85333333D01*
X177454819Y-86285714D02*
X177454819Y-85714286D01*
X177454819Y-86000000D02*
X176454819Y-86000000D01*
X176454819Y-86000000D02*
X176597676Y-85904762D01*
X176597676Y-85904762D02*
X176692914Y-85809524D01*
X176692914Y-85809524D02*
X176740533Y-85714286D01*
X169731009Y-83766666D02*
X169778628Y-83909523D01*
X169778628Y-83909523D02*
X169826247Y-83957142D01*
X169826247Y-83957142D02*
X169921485Y-84004761D01*
X169921485Y-84004761D02*
X170064342Y-84004761D01*
X170064342Y-84004761D02*
X170159580Y-83957142D01*
X170159580Y-83957142D02*
X170207200Y-83909523D01*
X170207200Y-83909523D02*
X170254819Y-83814285D01*
X170254819Y-83814285D02*
X170254819Y-83433333D01*
X170254819Y-83433333D02*
X169254819Y-83433333D01*
X169254819Y-83433333D02*
X169254819Y-83766666D01*
X169254819Y-83766666D02*
X169302438Y-83861904D01*
X169302438Y-83861904D02*
X169350057Y-83909523D01*
X169350057Y-83909523D02*
X169445295Y-83957142D01*
X169445295Y-83957142D02*
X169540533Y-83957142D01*
X169540533Y-83957142D02*
X169635771Y-83909523D01*
X169635771Y-83909523D02*
X169683390Y-83861904D01*
X169683390Y-83861904D02*
X169731009Y-83766666D01*
X169731009Y-83766666D02*
X169731009Y-83433333D01*
X169254819Y-84623809D02*
X169254819Y-84814285D01*
X169254819Y-84814285D02*
X169302438Y-84909523D01*
X169302438Y-84909523D02*
X169397676Y-85004761D01*
X169397676Y-85004761D02*
X169588152Y-85052380D01*
X169588152Y-85052380D02*
X169921485Y-85052380D01*
X169921485Y-85052380D02*
X170111961Y-85004761D01*
X170111961Y-85004761D02*
X170207200Y-84909523D01*
X170207200Y-84909523D02*
X170254819Y-84814285D01*
X170254819Y-84814285D02*
X170254819Y-84623809D01*
X170254819Y-84623809D02*
X170207200Y-84528571D01*
X170207200Y-84528571D02*
X170111961Y-84433333D01*
X170111961Y-84433333D02*
X169921485Y-84385714D01*
X169921485Y-84385714D02*
X169588152Y-84385714D01*
X169588152Y-84385714D02*
X169397676Y-84433333D01*
X169397676Y-84433333D02*
X169302438Y-84528571D01*
X169302438Y-84528571D02*
X169254819Y-84623809D01*
X169254819Y-85671428D02*
X169254819Y-85861904D01*
X169254819Y-85861904D02*
X169302438Y-85957142D01*
X169302438Y-85957142D02*
X169397676Y-86052380D01*
X169397676Y-86052380D02*
X169588152Y-86099999D01*
X169588152Y-86099999D02*
X169921485Y-86099999D01*
X169921485Y-86099999D02*
X170111961Y-86052380D01*
X170111961Y-86052380D02*
X170207200Y-85957142D01*
X170207200Y-85957142D02*
X170254819Y-85861904D01*
X170254819Y-85861904D02*
X170254819Y-85671428D01*
X170254819Y-85671428D02*
X170207200Y-85576190D01*
X170207200Y-85576190D02*
X170111961Y-85480952D01*
X170111961Y-85480952D02*
X169921485Y-85433333D01*
X169921485Y-85433333D02*
X169588152Y-85433333D01*
X169588152Y-85433333D02*
X169397676Y-85480952D01*
X169397676Y-85480952D02*
X169302438Y-85576190D01*
X169302438Y-85576190D02*
X169254819Y-85671428D01*
X169254819Y-86385714D02*
X169254819Y-86957142D01*
X170254819Y-86671428D02*
X169254819Y-86671428D01*
X170254819Y-87814285D02*
X170254819Y-87242857D01*
X170254819Y-87528571D02*
X169254819Y-87528571D01*
X169254819Y-87528571D02*
X169397676Y-87433333D01*
X169397676Y-87433333D02*
X169492914Y-87338095D01*
X169492914Y-87338095D02*
X169540533Y-87242857D01*
X168554819Y-79057142D02*
X168078628Y-78723809D01*
X168554819Y-78485714D02*
X167554819Y-78485714D01*
X167554819Y-78485714D02*
X167554819Y-78866666D01*
X167554819Y-78866666D02*
X167602438Y-78961904D01*
X167602438Y-78961904D02*
X167650057Y-79009523D01*
X167650057Y-79009523D02*
X167745295Y-79057142D01*
X167745295Y-79057142D02*
X167888152Y-79057142D01*
X167888152Y-79057142D02*
X167983390Y-79009523D01*
X167983390Y-79009523D02*
X168031009Y-78961904D01*
X168031009Y-78961904D02*
X168078628Y-78866666D01*
X168078628Y-78866666D02*
X168078628Y-78485714D01*
X168554819Y-80009523D02*
X168554819Y-79438095D01*
X168554819Y-79723809D02*
X167554819Y-79723809D01*
X167554819Y-79723809D02*
X167697676Y-79628571D01*
X167697676Y-79628571D02*
X167792914Y-79533333D01*
X167792914Y-79533333D02*
X167840533Y-79438095D01*
X167554819Y-80628571D02*
X167554819Y-80723809D01*
X167554819Y-80723809D02*
X167602438Y-80819047D01*
X167602438Y-80819047D02*
X167650057Y-80866666D01*
X167650057Y-80866666D02*
X167745295Y-80914285D01*
X167745295Y-80914285D02*
X167935771Y-80961904D01*
X167935771Y-80961904D02*
X168173866Y-80961904D01*
X168173866Y-80961904D02*
X168364342Y-80914285D01*
X168364342Y-80914285D02*
X168459580Y-80866666D01*
X168459580Y-80866666D02*
X168507200Y-80819047D01*
X168507200Y-80819047D02*
X168554819Y-80723809D01*
X168554819Y-80723809D02*
X168554819Y-80628571D01*
X168554819Y-80628571D02*
X168507200Y-80533333D01*
X168507200Y-80533333D02*
X168459580Y-80485714D01*
X168459580Y-80485714D02*
X168364342Y-80438095D01*
X168364342Y-80438095D02*
X168173866Y-80390476D01*
X168173866Y-80390476D02*
X167935771Y-80390476D01*
X167935771Y-80390476D02*
X167745295Y-80438095D01*
X167745295Y-80438095D02*
X167650057Y-80485714D01*
X167650057Y-80485714D02*
X167602438Y-80533333D01*
X167602438Y-80533333D02*
X167554819Y-80628571D01*
D12*
%TO.C,U2*%
X168720000Y-93610000D02*
X168720000Y-92810000D01*
X168720000Y-93610000D02*
X168720000Y-94410000D01*
X168720000Y-94410000D02*
X169650000Y-94410000D01*
X171880000Y-94410000D02*
X171880000Y-92950000D01*
X171880000Y-94410000D02*
X170950000Y-94410000D01*
X168690000Y-92310000D02*
X168360000Y-92550000D01*
X168360000Y-92070000D01*
X168690000Y-92310000D01*
G36*
X168690000Y-92310000D02*
G01*
X168360000Y-92550000D01*
X168360000Y-92070000D01*
X168690000Y-92310000D01*
G37*
%TO.C,C11*%
X170561252Y-88965000D02*
X170038748Y-88965000D01*
X170561252Y-90435000D02*
X170038748Y-90435000D01*
%TO.C,R9*%
X165627064Y-76465000D02*
X165172936Y-76465000D01*
X165627064Y-77935000D02*
X165172936Y-77935000D01*
%TO.C,C7*%
X185765000Y-84538748D02*
X185765000Y-85061252D01*
X187235000Y-84538748D02*
X187235000Y-85061252D01*
%TO.C,RESET1*%
D13*
X167100000Y-101200000D02*
X171500000Y-101200000D01*
X171500000Y-97600000D01*
X167100000Y-97600000D01*
X167100000Y-101200000D01*
D12*
%TO.C,R1*%
X174452500Y-89572936D02*
X174452500Y-90027064D01*
X175922500Y-89572936D02*
X175922500Y-90027064D01*
%TO.C,C2*%
X170265000Y-81138748D02*
X170265000Y-81661252D01*
X171735000Y-81138748D02*
X171735000Y-81661252D01*
%TO.C,C8*%
X183265000Y-84538748D02*
X183265000Y-85061252D01*
X184735000Y-84538748D02*
X184735000Y-85061252D01*
%TO.C,C6*%
X174565000Y-93838748D02*
X174565000Y-94361252D01*
X176035000Y-93838748D02*
X176035000Y-94361252D01*
%TO.C,C4*%
X174465000Y-81138748D02*
X174465000Y-81661252D01*
X175935000Y-81138748D02*
X175935000Y-81661252D01*
%TO.C,C10*%
X165565000Y-93423752D02*
X165565000Y-92901248D01*
X167035000Y-93423752D02*
X167035000Y-92901248D01*
%TO.C,C3*%
X171565000Y-85761252D02*
X171565000Y-85238748D01*
X173035000Y-85761252D02*
X173035000Y-85238748D01*
%TO.C,C1*%
X174465000Y-85798752D02*
X174465000Y-85276248D01*
X175935000Y-85798752D02*
X175935000Y-85276248D01*
%TO.C,BOOT1*%
D13*
X168000000Y-87100000D02*
X164400000Y-87100000D01*
X164400000Y-82700000D01*
X168000000Y-82700000D01*
X168000000Y-87100000D01*
D12*
%TO.C,R10*%
X165172936Y-78765000D02*
X165627064Y-78765000D01*
X165172936Y-80235000D02*
X165627064Y-80235000D01*
%TD*%
M02*
