%TF.GenerationSoftware,KiCad,Pcbnew,9.0.1*%
%TF.CreationDate,2025-07-19T18:14:50+02:00*%
%TF.ProjectId,ventilation,76656e74-696c-4617-9469-6f6e2e6b6963,rev?*%
%TF.SameCoordinates,Original*%
%TF.FileFunction,Paste,Top*%
%TF.FilePolarity,Positive*%
%FSLAX46Y46*%
G04 Gerber Fmt 4.6, Leading zero omitted, Abs format (unit mm)*
G04 Created by KiCad (PCBNEW 9.0.1) date 2025-07-19 18:14:50*
%MOMM*%
%LPD*%
G01*
G04 APERTURE LIST*
G04 Aperture macros list*
%AMRoundRect*
0 Rectangle with rounded corners*
0 $1 Rounding radius*
0 $2 $3 $4 $5 $6 $7 $8 $9 X,Y pos of 4 corners*
0 Add a 4 corners polygon primitive as box body*
4,1,4,$2,$3,$4,$5,$6,$7,$8,$9,$2,$3,0*
0 Add four circle primitives for the rounded corners*
1,1,$1+$1,$2,$3*
1,1,$1+$1,$4,$5*
1,1,$1+$1,$6,$7*
1,1,$1+$1,$8,$9*
0 Add four rect primitives between the rounded corners*
20,1,$1+$1,$2,$3,$4,$5,0*
20,1,$1+$1,$4,$5,$6,$7,0*
20,1,$1+$1,$6,$7,$8,$9,0*
20,1,$1+$1,$8,$9,$2,$3,0*%
G04 Aperture macros list end*
%ADD10RoundRect,0.250000X0.262500X0.450000X-0.262500X0.450000X-0.262500X-0.450000X0.262500X-0.450000X0*%
%ADD11RoundRect,0.243750X-0.243750X-0.456250X0.243750X-0.456250X0.243750X0.456250X-0.243750X0.456250X0*%
%ADD12RoundRect,0.250000X0.250000X0.475000X-0.250000X0.475000X-0.250000X-0.475000X0.250000X-0.475000X0*%
%ADD13RoundRect,0.250000X-0.250000X-0.475000X0.250000X-0.475000X0.250000X0.475000X-0.250000X0.475000X0*%
%ADD14O,2.000000X0.600000*%
%ADD15RoundRect,0.250000X-0.450000X0.262500X-0.450000X-0.262500X0.450000X-0.262500X0.450000X0.262500X0*%
%ADD16RoundRect,0.075000X0.075000X-0.662500X0.075000X0.662500X-0.075000X0.662500X-0.075000X-0.662500X0*%
%ADD17RoundRect,0.075000X0.662500X-0.075000X0.662500X0.075000X-0.662500X0.075000X-0.662500X-0.075000X0*%
%ADD18RoundRect,0.250000X0.450000X-0.262500X0.450000X0.262500X-0.450000X0.262500X-0.450000X-0.262500X0*%
G04 APERTURE END LIST*
D10*
%TO.C,R5*%
X184037500Y-77300000D03*
X182212500Y-77300000D03*
%TD*%
D11*
%TO.C,D2*%
X185952500Y-77300000D03*
X187827500Y-77300000D03*
%TD*%
D10*
%TO.C,R7*%
X173292500Y-100040000D03*
X171467500Y-100040000D03*
%TD*%
D12*
%TO.C,C9*%
X178670000Y-97870000D03*
X176770000Y-97870000D03*
%TD*%
D11*
%TO.C,D1*%
X185962500Y-79700000D03*
X187837500Y-79700000D03*
%TD*%
D10*
%TO.C,R8*%
X178612500Y-100085000D03*
X176787500Y-100085000D03*
%TD*%
%TO.C,R1*%
X173262500Y-95400000D03*
X171437500Y-95400000D03*
%TD*%
D13*
%TO.C,C6*%
X171400000Y-97800000D03*
X173300000Y-97800000D03*
%TD*%
D14*
%TO.C,NRF1*%
X183862500Y-84060000D03*
X183862500Y-85330000D03*
X183862500Y-86600000D03*
X183862500Y-87870000D03*
X183862500Y-89140000D03*
X183862500Y-90410000D03*
X183862500Y-91680000D03*
X183862500Y-92950000D03*
%TD*%
D10*
%TO.C,R4*%
X184025000Y-79600000D03*
X182200000Y-79600000D03*
%TD*%
D15*
%TO.C,R2*%
X168330000Y-88307500D03*
X168330000Y-90132500D03*
%TD*%
D16*
%TO.C,U1*%
X172450000Y-91962500D03*
X172950000Y-91962500D03*
X173450000Y-91962500D03*
X173950000Y-91962500D03*
X174450000Y-91962500D03*
X174950000Y-91962500D03*
X175450000Y-91962500D03*
X175950000Y-91962500D03*
X176450000Y-91962500D03*
X176950000Y-91962500D03*
X177450000Y-91962500D03*
X177950000Y-91962500D03*
D17*
X179362500Y-90550000D03*
X179362500Y-90050000D03*
X179362500Y-89550000D03*
X179362500Y-89050000D03*
X179362500Y-88550000D03*
X179362500Y-88050000D03*
X179362500Y-87550000D03*
X179362500Y-87050000D03*
X179362500Y-86550000D03*
X179362500Y-86050000D03*
X179362500Y-85550000D03*
X179362500Y-85050000D03*
D16*
X177950000Y-83637500D03*
X177450000Y-83637500D03*
X176950000Y-83637500D03*
X176450000Y-83637500D03*
X175950000Y-83637500D03*
X175450000Y-83637500D03*
X174950000Y-83637500D03*
X174450000Y-83637500D03*
X173950000Y-83637500D03*
X173450000Y-83637500D03*
X172950000Y-83637500D03*
X172450000Y-83637500D03*
D17*
X171037500Y-85050000D03*
X171037500Y-85550000D03*
X171037500Y-86050000D03*
X171037500Y-86550000D03*
X171037500Y-87050000D03*
X171037500Y-87550000D03*
X171037500Y-88050000D03*
X171037500Y-88550000D03*
X171037500Y-89050000D03*
X171037500Y-89550000D03*
X171037500Y-90050000D03*
X171037500Y-90550000D03*
%TD*%
D18*
%TO.C,R11*%
X168300000Y-95612500D03*
X168300000Y-93787500D03*
%TD*%
M02*
