%TF.GenerationSoftware,KiCad,Pcbnew,9.0.1*%
%TF.CreationDate,2025-08-08T13:48:55+02:00*%
%TF.ProjectId,ventilation,76656e74-696c-4617-9469-6f6e2e6b6963,rev?*%
%TF.SameCoordinates,Original*%
%TF.FileFunction,Copper,L1,Top*%
%TF.FilePolarity,Positive*%
%FSLAX46Y46*%
G04 Gerber Fmt 4.6, Leading zero omitted, Abs format (unit mm)*
G04 Created by KiCad (PCBNEW 9.0.1) date 2025-08-08 13:48:55*
%MOMM*%
%LPD*%
G01*
G04 APERTURE LIST*
G04 Aperture macros list*
%AMRoundRect*
0 Rectangle with rounded corners*
0 $1 Rounding radius*
0 $2 $3 $4 $5 $6 $7 $8 $9 X,Y pos of 4 corners*
0 Add a 4 corners polygon primitive as box body*
4,1,4,$2,$3,$4,$5,$6,$7,$8,$9,$2,$3,0*
0 Add four circle primitives for the rounded corners*
1,1,$1+$1,$2,$3*
1,1,$1+$1,$4,$5*
1,1,$1+$1,$6,$7*
1,1,$1+$1,$8,$9*
0 Add four rect primitives between the rounded corners*
20,1,$1+$1,$2,$3,$4,$5,0*
20,1,$1+$1,$4,$5,$6,$7,0*
20,1,$1+$1,$6,$7,$8,$9,0*
20,1,$1+$1,$8,$9,$2,$3,0*%
G04 Aperture macros list end*
%TA.AperFunction,SMDPad,CuDef*%
%ADD10R,2.000000X2.000000*%
%TD*%
%TA.AperFunction,ComponentPad*%
%ADD11R,1.700000X1.700000*%
%TD*%
%TA.AperFunction,ComponentPad*%
%ADD12C,1.700000*%
%TD*%
%TA.AperFunction,SMDPad,CuDef*%
%ADD13RoundRect,0.250000X0.262500X0.450000X-0.262500X0.450000X-0.262500X-0.450000X0.262500X-0.450000X0*%
%TD*%
%TA.AperFunction,SMDPad,CuDef*%
%ADD14RoundRect,0.243750X-0.243750X-0.456250X0.243750X-0.456250X0.243750X0.456250X-0.243750X0.456250X0*%
%TD*%
%TA.AperFunction,SMDPad,CuDef*%
%ADD15RoundRect,0.250000X0.250000X0.475000X-0.250000X0.475000X-0.250000X-0.475000X0.250000X-0.475000X0*%
%TD*%
%TA.AperFunction,ComponentPad*%
%ADD16RoundRect,0.285750X-0.666750X-0.666750X0.666750X-0.666750X0.666750X0.666750X-0.666750X0.666750X0*%
%TD*%
%TA.AperFunction,ComponentPad*%
%ADD17C,1.905000*%
%TD*%
%TA.AperFunction,SMDPad,CuDef*%
%ADD18RoundRect,0.250000X-0.250000X-0.475000X0.250000X-0.475000X0.250000X0.475000X-0.250000X0.475000X0*%
%TD*%
%TA.AperFunction,SMDPad,CuDef*%
%ADD19O,2.000000X0.600000*%
%TD*%
%TA.AperFunction,SMDPad,CuDef*%
%ADD20RoundRect,0.075000X0.075000X-0.662500X0.075000X0.662500X-0.075000X0.662500X-0.075000X-0.662500X0*%
%TD*%
%TA.AperFunction,SMDPad,CuDef*%
%ADD21RoundRect,0.075000X0.662500X-0.075000X0.662500X0.075000X-0.662500X0.075000X-0.662500X-0.075000X0*%
%TD*%
%TA.AperFunction,SMDPad,CuDef*%
%ADD22RoundRect,0.250000X-0.262500X-0.450000X0.262500X-0.450000X0.262500X0.450000X-0.262500X0.450000X0*%
%TD*%
%TA.AperFunction,ViaPad*%
%ADD23C,0.600000*%
%TD*%
%TA.AperFunction,ViaPad*%
%ADD24C,0.800000*%
%TD*%
%TA.AperFunction,Conductor*%
%ADD25C,0.200000*%
%TD*%
%TA.AperFunction,Conductor*%
%ADD26C,0.400000*%
%TD*%
G04 APERTURE END LIST*
D10*
%TO.P,Reset1,1,1*%
%TO.N,/RESET*%
X168600000Y-96400000D03*
%TD*%
D11*
%TO.P,J4,1,Pin_1*%
%TO.N,/SWCLK*%
X176020000Y-78440000D03*
D12*
%TO.P,J4,2,Pin_2*%
%TO.N,+3V3*%
X176020000Y-75900000D03*
%TO.P,J4,3,Pin_3*%
%TO.N,/SWDIO*%
X178560000Y-78440000D03*
%TO.P,J4,4,Pin_4*%
%TO.N,GND*%
X178560000Y-75900000D03*
%TO.P,J4,5,Pin_5*%
%TO.N,/USART1_RX*%
X181100000Y-78440000D03*
%TO.P,J4,6,Pin_6*%
%TO.N,/PB15*%
X181100000Y-75900000D03*
%TO.P,J4,7,Pin_7*%
%TO.N,/USART1_TX*%
X183640000Y-78440000D03*
%TO.P,J4,8,Pin_8*%
%TO.N,/PB14*%
X183640000Y-75900000D03*
%TD*%
D10*
%TO.P,Boot1,1,1*%
%TO.N,/BOOT*%
X167800000Y-86100000D03*
%TD*%
D13*
%TO.P,R5,1*%
%TO.N,Net-(D2-K)*%
X182912500Y-97655000D03*
%TO.P,R5,2*%
%TO.N,/LED_GREEN*%
X181087500Y-97655000D03*
%TD*%
D14*
%TO.P,D2,1,K*%
%TO.N,Net-(D2-K)*%
X185862500Y-97700000D03*
%TO.P,D2,2,A*%
%TO.N,+3V3*%
X187737500Y-97700000D03*
%TD*%
D13*
%TO.P,R7,1*%
%TO.N,/ADC_V_EXT*%
X173292500Y-100400000D03*
%TO.P,R7,2*%
%TO.N,/VCC_SERVO*%
X171467500Y-100400000D03*
%TD*%
D15*
%TO.P,C9,1*%
%TO.N,GND*%
X178250000Y-97685000D03*
%TO.P,C9,2*%
%TO.N,/ADC_V_EXT*%
X176350000Y-97685000D03*
%TD*%
D14*
%TO.P,D1,1,K*%
%TO.N,Net-(D1-K)*%
X185862500Y-100085000D03*
%TO.P,D1,2,A*%
%TO.N,+3V3*%
X187737500Y-100085000D03*
%TD*%
D13*
%TO.P,R8,1*%
%TO.N,GND*%
X178200000Y-100040000D03*
%TO.P,R8,2*%
%TO.N,/ADC_V_EXT*%
X176375000Y-100040000D03*
%TD*%
%TO.P,R1,1*%
%TO.N,+3V3*%
X173292500Y-96300000D03*
%TO.P,R1,2*%
%TO.N,/RESET*%
X171467500Y-96300000D03*
%TD*%
D16*
%TO.P,J2,1,Pin_1*%
%TO.N,+3V3*%
X164800000Y-77880000D03*
D17*
%TO.P,J2,2,Pin_2*%
%TO.N,GND*%
X164800000Y-80420000D03*
%TO.P,J2,3,Pin_3*%
%TO.N,/I2C_SDA*%
X164800000Y-82960000D03*
%TO.P,J2,4,Pin_4*%
%TO.N,/I2C_SCL*%
X164800000Y-85500000D03*
%TD*%
D18*
%TO.P,C6,1*%
%TO.N,/RESET*%
X171410000Y-98350000D03*
%TO.P,C6,2*%
%TO.N,GND*%
X173310000Y-98350000D03*
%TD*%
D19*
%TO.P,NRF1,1,VCC*%
%TO.N,+3V3*%
X183862500Y-84060000D03*
%TO.P,NRF1,2,GND*%
%TO.N,GND*%
X183862500Y-85330000D03*
%TO.P,NRF1,3,CE*%
%TO.N,/SPI_CE*%
X183862500Y-86600000D03*
%TO.P,NRF1,4,CSN*%
%TO.N,/SPI_CSN*%
X183862500Y-87870000D03*
%TO.P,NRF1,5,SCK*%
%TO.N,/SPI_SCK*%
X183862500Y-89140000D03*
%TO.P,NRF1,6,MOSI*%
%TO.N,/SPI_MOSI*%
X183862500Y-90410000D03*
%TO.P,NRF1,7,MISO*%
%TO.N,/SPI_MISO*%
X183862500Y-91680000D03*
%TO.P,NRF1,8,IRQ*%
%TO.N,unconnected-(NRF1-IRQ-Pad8)*%
X183862500Y-92950000D03*
%TD*%
D13*
%TO.P,R4,1*%
%TO.N,Net-(D1-K)*%
X182912500Y-100040000D03*
%TO.P,R4,2*%
%TO.N,/LED_RED*%
X181087500Y-100040000D03*
%TD*%
%TO.P,R2,1*%
%TO.N,/BOOT*%
X169112500Y-88600000D03*
%TO.P,R2,2*%
%TO.N,GND*%
X167287500Y-88600000D03*
%TD*%
D20*
%TO.P,U1,1,VDD*%
%TO.N,+3V3*%
X172650000Y-93462500D03*
%TO.P,U1,2,PC13*%
%TO.N,unconnected-(U1-PC13-Pad2)*%
X173150000Y-93462500D03*
%TO.P,U1,3,PC14*%
%TO.N,unconnected-(U1-PC14-Pad3)*%
X173650000Y-93462500D03*
%TO.P,U1,4,PC15*%
%TO.N,unconnected-(U1-PC15-Pad4)*%
X174150000Y-93462500D03*
%TO.P,U1,5,PH0*%
%TO.N,unconnected-(U1-PH0-Pad5)*%
X174650000Y-93462500D03*
%TO.P,U1,6,PH1*%
%TO.N,unconnected-(U1-PH1-Pad6)*%
X175150000Y-93462500D03*
%TO.P,U1,7,NRST*%
%TO.N,/RESET*%
X175650000Y-93462500D03*
%TO.P,U1,8,VSSA*%
%TO.N,GND*%
X176150000Y-93462500D03*
%TO.P,U1,9,VDDA*%
%TO.N,+3V3*%
X176650000Y-93462500D03*
%TO.P,U1,10,PA0*%
%TO.N,/ADC_V_EXT*%
X177150000Y-93462500D03*
%TO.P,U1,11,PA1*%
%TO.N,/LED_RED*%
X177650000Y-93462500D03*
%TO.P,U1,12,PA2*%
%TO.N,/LED_GREEN*%
X178150000Y-93462500D03*
D21*
%TO.P,U1,13,PA3*%
%TO.N,/SW_SERVO*%
X179562500Y-92050000D03*
%TO.P,U1,14,PA4*%
%TO.N,unconnected-(U1-PA4-Pad14)*%
X179562500Y-91550000D03*
%TO.P,U1,15,PA5*%
%TO.N,/SPI_SCK*%
X179562500Y-91050000D03*
%TO.P,U1,16,PA6*%
%TO.N,/SPI_MISO*%
X179562500Y-90550000D03*
%TO.P,U1,17,PA7*%
%TO.N,/SPI_MOSI*%
X179562500Y-90050000D03*
%TO.P,U1,18,PB0*%
%TO.N,unconnected-(U1-PB0-Pad18)*%
X179562500Y-89550000D03*
%TO.P,U1,19,PB1*%
%TO.N,unconnected-(U1-PB1-Pad19)*%
X179562500Y-89050000D03*
%TO.P,U1,20,PB2*%
%TO.N,unconnected-(U1-PB2-Pad20)*%
X179562500Y-88550000D03*
%TO.P,U1,21,PB10*%
%TO.N,/SPI_CSN*%
X179562500Y-88050000D03*
%TO.P,U1,22,PB11*%
%TO.N,/SPI_CE*%
X179562500Y-87550000D03*
%TO.P,U1,23,VSS*%
%TO.N,GND*%
X179562500Y-87050000D03*
%TO.P,U1,24,VDD*%
%TO.N,+3V3*%
X179562500Y-86550000D03*
D20*
%TO.P,U1,25,PB12*%
%TO.N,unconnected-(U1-PB12-Pad25)*%
X178150000Y-85137500D03*
%TO.P,U1,26,PB13*%
%TO.N,unconnected-(U1-PB13-Pad26)*%
X177650000Y-85137500D03*
%TO.P,U1,27,PB14*%
%TO.N,/PB14*%
X177150000Y-85137500D03*
%TO.P,U1,28,PB15*%
%TO.N,/PB15*%
X176650000Y-85137500D03*
%TO.P,U1,29,PA8*%
%TO.N,unconnected-(U1-PA8-Pad29)*%
X176150000Y-85137500D03*
%TO.P,U1,30,PA9*%
%TO.N,/USART1_TX*%
X175650000Y-85137500D03*
%TO.P,U1,31,PA10*%
%TO.N,/USART1_RX*%
X175150000Y-85137500D03*
%TO.P,U1,32,PA11*%
%TO.N,unconnected-(U1-PA11-Pad32)*%
X174650000Y-85137500D03*
%TO.P,U1,33,PA12*%
%TO.N,unconnected-(U1-PA12-Pad33)*%
X174150000Y-85137500D03*
%TO.P,U1,34,PA13*%
%TO.N,/SWDIO*%
X173650000Y-85137500D03*
%TO.P,U1,35,VSS*%
%TO.N,GND*%
X173150000Y-85137500D03*
%TO.P,U1,36,VDDIO2*%
%TO.N,+3V3*%
X172650000Y-85137500D03*
D21*
%TO.P,U1,37,PA14*%
%TO.N,/SWCLK*%
X171237500Y-86550000D03*
%TO.P,U1,38,PA15*%
%TO.N,unconnected-(U1-PA15-Pad38)*%
X171237500Y-87050000D03*
%TO.P,U1,39,PB3*%
%TO.N,/SIG_SERVO_OUT*%
X171237500Y-87550000D03*
%TO.P,U1,40,PB4*%
%TO.N,unconnected-(U1-PB4-Pad40)*%
X171237500Y-88050000D03*
%TO.P,U1,41,PB5*%
%TO.N,unconnected-(U1-PB5-Pad41)*%
X171237500Y-88550000D03*
%TO.P,U1,42,PB6*%
%TO.N,unconnected-(U1-PB6-Pad42)*%
X171237500Y-89050000D03*
%TO.P,U1,43,PB7*%
%TO.N,unconnected-(U1-PB7-Pad43)*%
X171237500Y-89550000D03*
%TO.P,U1,44,BOOT0*%
%TO.N,/BOOT*%
X171237500Y-90050000D03*
%TO.P,U1,45,PB8*%
%TO.N,/I2C_SCL*%
X171237500Y-90550000D03*
%TO.P,U1,46,PB9*%
%TO.N,/I2C_SDA*%
X171237500Y-91050000D03*
%TO.P,U1,47,VSS*%
%TO.N,GND*%
X171237500Y-91550000D03*
%TO.P,U1,48,VDD*%
%TO.N,+3V3*%
X171237500Y-92050000D03*
%TD*%
D22*
%TO.P,R11,1*%
%TO.N,/SIG_SERVO*%
X167587500Y-82100000D03*
%TO.P,R11,2*%
%TO.N,/SIG_SERVO_OUT*%
X169412500Y-82100000D03*
%TD*%
D16*
%TO.P,J3,1,Pin_1*%
%TO.N,GND*%
X164800000Y-90890000D03*
D17*
%TO.P,J3,2,Pin_2*%
%TO.N,+BATT*%
X164800000Y-93430000D03*
%TO.P,J3,3,Pin_3*%
%TO.N,/SIG_SERVO*%
X164800000Y-95970000D03*
%TO.P,J3,4,Pin_4*%
%TO.N,/VCC_SERVO*%
X164800000Y-98510000D03*
%TD*%
D23*
%TO.N,/G_FET*%
X170000000Y-98400000D03*
X175750000Y-98841010D03*
D24*
%TO.N,GND*%
X174876380Y-98000398D03*
X167900000Y-89850000D03*
%TO.N,+3V3*%
X172100000Y-76700000D03*
%TO.N,GND*%
X175900000Y-95200000D03*
X179460000Y-100040000D03*
X177200000Y-87100000D03*
X186500000Y-88100000D03*
X175700000Y-87200000D03*
X166900000Y-91800000D03*
%TO.N,+3V3*%
X175100000Y-91700000D03*
X181400000Y-86500000D03*
X174300000Y-90900000D03*
X184900000Y-95800000D03*
X174000000Y-88500000D03*
X184000000Y-81700000D03*
D23*
%TO.N,/SW_SERVO*%
X181100000Y-93587500D03*
%TD*%
D25*
%TO.N,/SIG_SERVO*%
X164280783Y-81706500D02*
X163145500Y-82841783D01*
X163145500Y-94315500D02*
X164800000Y-95970000D01*
X167194000Y-81706500D02*
X164280783Y-81706500D01*
X163145500Y-82841783D02*
X163145500Y-94315500D01*
X167587500Y-82100000D02*
X167194000Y-81706500D01*
%TO.N,/G_FET*%
X170000000Y-98500000D02*
X170000000Y-98400000D01*
X170876000Y-99376000D02*
X170000000Y-98500000D01*
X175215010Y-99376000D02*
X170876000Y-99376000D01*
X175750000Y-98841010D02*
X175215010Y-99376000D01*
D26*
%TO.N,GND*%
X174876380Y-98276380D02*
X174876380Y-98000398D01*
X174900000Y-98300000D02*
X174876380Y-98276380D01*
X174850000Y-98350000D02*
X174900000Y-98300000D01*
X173310000Y-98350000D02*
X174850000Y-98350000D01*
X167287500Y-89287500D02*
X167900000Y-89900000D01*
X167900000Y-89900000D02*
X167900000Y-89850000D01*
X167287500Y-88600000D02*
X167287500Y-89287500D01*
%TO.N,+3V3*%
X172900000Y-75900000D02*
X172100000Y-76700000D01*
X176020000Y-75900000D02*
X172900000Y-75900000D01*
D25*
%TO.N,/SIG_SERVO_OUT*%
X169412500Y-86496324D02*
X169412500Y-82100000D01*
X170466176Y-87550000D02*
X169412500Y-86496324D01*
X171237500Y-87550000D02*
X170466176Y-87550000D01*
%TO.N,/BOOT*%
X169112500Y-87412500D02*
X167800000Y-86100000D01*
X169112500Y-88600000D02*
X169112500Y-87412500D01*
X169112500Y-89300000D02*
X169112500Y-88600000D01*
X171237500Y-90050000D02*
X169862500Y-90050000D01*
X169862500Y-90050000D02*
X169112500Y-89300000D01*
%TO.N,/PB15*%
X180016176Y-81000000D02*
X176650000Y-84366176D01*
X176650000Y-84366176D02*
X176650000Y-85137500D01*
X182900000Y-81000000D02*
X180016176Y-81000000D01*
X185100000Y-78800000D02*
X182900000Y-81000000D01*
X182400000Y-77200000D02*
X184372900Y-77200000D01*
X184372900Y-77200000D02*
X185100000Y-77927100D01*
X181100000Y-75900000D02*
X182400000Y-77200000D01*
X185100000Y-77927100D02*
X185100000Y-78800000D01*
%TO.N,/PB14*%
X177150000Y-85908824D02*
X177150000Y-85137500D01*
X178382824Y-86176000D02*
X177417176Y-86176000D01*
X177417176Y-86176000D02*
X177150000Y-85908824D01*
X185700000Y-78858824D02*
X178382824Y-86176000D01*
X185700000Y-77960000D02*
X185700000Y-78858824D01*
X183640000Y-75900000D02*
X185700000Y-77960000D01*
%TO.N,/USART1_TX*%
X183640000Y-78440000D02*
X182960000Y-78440000D01*
X182960000Y-78440000D02*
X181300000Y-80100000D01*
X181300000Y-80100000D02*
X179916176Y-80100000D01*
X179916176Y-80100000D02*
X175650000Y-84366176D01*
X175650000Y-84366176D02*
X175650000Y-85137500D01*
%TO.N,/USART1_RX*%
X175150000Y-83450000D02*
X175150000Y-85137500D01*
X179711000Y-78889000D02*
X179711000Y-78916760D01*
X180160000Y-78440000D02*
X179711000Y-78889000D01*
X179036760Y-79591000D02*
X179009000Y-79591000D01*
X179009000Y-79591000D02*
X175150000Y-83450000D01*
X181100000Y-78440000D02*
X180160000Y-78440000D01*
X179711000Y-78916760D02*
X179036760Y-79591000D01*
%TO.N,/SWDIO*%
X173650000Y-83350000D02*
X173650000Y-85137500D01*
X178560000Y-78440000D02*
X173650000Y-83350000D01*
%TO.N,/SWCLK*%
X171237500Y-83222500D02*
X171237500Y-86550000D01*
X176020000Y-78440000D02*
X171237500Y-83222500D01*
%TO.N,/RESET*%
X174584824Y-95299000D02*
X172468500Y-95299000D01*
X172468500Y-95299000D02*
X171467500Y-96300000D01*
X175650000Y-94233824D02*
X174584824Y-95299000D01*
X175650000Y-93462500D02*
X175650000Y-94233824D01*
%TO.N,+3V3*%
X175791364Y-96300000D02*
X173292500Y-96300000D01*
X176650000Y-95441364D02*
X175791364Y-96300000D01*
X176650000Y-93462500D02*
X176650000Y-95441364D01*
%TO.N,/RESET*%
X171467500Y-96300000D02*
X168700000Y-96300000D01*
X168700000Y-96300000D02*
X168600000Y-96400000D01*
X171467500Y-98292500D02*
X171410000Y-98350000D01*
X171467500Y-96300000D02*
X171467500Y-98292500D01*
D26*
%TO.N,GND*%
X186500000Y-88100000D02*
X186500000Y-87267500D01*
D25*
X176150000Y-93462500D02*
X176150000Y-95150000D01*
X174441176Y-87200000D02*
X175700000Y-87200000D01*
X177250000Y-87050000D02*
X177200000Y-87100000D01*
X179562500Y-87050000D02*
X177250000Y-87050000D01*
D26*
X178250000Y-97685000D02*
X178250000Y-99990000D01*
D25*
X173150000Y-85137500D02*
X173150000Y-85908824D01*
X167150000Y-91550000D02*
X166900000Y-91800000D01*
D26*
X178250000Y-99990000D02*
X178200000Y-100040000D01*
D25*
X178200000Y-100040000D02*
X179460000Y-100040000D01*
D26*
X186500000Y-87267500D02*
X184562500Y-85330000D01*
X184562500Y-85330000D02*
X183862500Y-85330000D01*
D25*
X179500000Y-100000000D02*
X179460000Y-100040000D01*
X171237500Y-91550000D02*
X167150000Y-91550000D01*
X173150000Y-85908824D02*
X174441176Y-87200000D01*
D26*
%TO.N,+3V3*%
X184000000Y-83922500D02*
X183862500Y-84060000D01*
D25*
X171237500Y-92050000D02*
X173150000Y-92050000D01*
X187737500Y-100085000D02*
X187737500Y-97700000D01*
X187737500Y-97700000D02*
X187737500Y-96337500D01*
X181350000Y-86550000D02*
X181400000Y-86500000D01*
X187200000Y-95800000D02*
X184900000Y-95800000D01*
D26*
X184000000Y-81700000D02*
X184000000Y-83922500D01*
D25*
X172650000Y-87150000D02*
X174000000Y-88500000D01*
X172650000Y-92550000D02*
X174300000Y-90900000D01*
X179562500Y-86550000D02*
X181350000Y-86550000D01*
X173150000Y-92050000D02*
X174300000Y-90900000D01*
X187737500Y-96337500D02*
X187200000Y-95800000D01*
X172650000Y-93462500D02*
X172650000Y-92550000D01*
X176650000Y-92650000D02*
X175700000Y-91700000D01*
X172650000Y-85137500D02*
X172650000Y-87150000D01*
X176650000Y-93462500D02*
X176650000Y-92650000D01*
X175700000Y-91700000D02*
X175100000Y-91700000D01*
%TO.N,/ADC_V_EXT*%
X176375000Y-99825000D02*
X176350000Y-99800000D01*
X176350000Y-97685000D02*
X177150000Y-96885000D01*
X176350000Y-99800000D02*
X176350000Y-97685000D01*
X177150000Y-96885000D02*
X177150000Y-93462500D01*
X173292500Y-100040000D02*
X176375000Y-100040000D01*
X176375000Y-100040000D02*
X176375000Y-99825000D01*
%TO.N,Net-(D1-K)*%
X185817500Y-100040000D02*
X185862500Y-100085000D01*
X182912500Y-100040000D02*
X185817500Y-100040000D01*
%TO.N,Net-(D2-K)*%
X185817500Y-97655000D02*
X185862500Y-97700000D01*
X182912500Y-97655000D02*
X185817500Y-97655000D01*
%TO.N,/I2C_SDA*%
X163546500Y-84213500D02*
X164800000Y-82960000D01*
X163546500Y-87446500D02*
X163546500Y-84213500D01*
X167150000Y-91050000D02*
X163546500Y-87446500D01*
X171237500Y-91050000D02*
X167150000Y-91050000D01*
%TO.N,/I2C_SCL*%
X165375000Y-86075000D02*
X164800000Y-85500000D01*
X164516450Y-87627610D02*
X164516450Y-85783550D01*
X171237500Y-90550000D02*
X167438840Y-90550000D01*
X167438840Y-90550000D02*
X164516450Y-87627610D01*
D26*
%TO.N,/VCC_SERVO*%
X166973420Y-100713500D02*
X170794000Y-100713500D01*
X170794000Y-100713500D02*
X171467500Y-100040000D01*
X164800000Y-98540080D02*
X166973420Y-100713500D01*
X164800000Y-98510000D02*
X164800000Y-98540080D01*
D25*
%TO.N,/SPI_CSN*%
X183862500Y-87870000D02*
X183682500Y-88050000D01*
X183682500Y-88050000D02*
X179562500Y-88050000D01*
%TO.N,/SPI_SCK*%
X184562500Y-89140000D02*
X185800000Y-90377500D01*
X183862500Y-89140000D02*
X184562500Y-89140000D01*
X183300000Y-94000000D02*
X180350000Y-91050000D01*
X185800000Y-92800000D02*
X184600000Y-94000000D01*
X184600000Y-94000000D02*
X183300000Y-94000000D01*
X185800000Y-90377500D02*
X185800000Y-92800000D01*
X180350000Y-91050000D02*
X179562500Y-91050000D01*
%TO.N,/SPI_MISO*%
X182880000Y-91680000D02*
X181750000Y-90550000D01*
X183862500Y-91680000D02*
X182880000Y-91680000D01*
X181750000Y-90550000D02*
X179562500Y-90550000D01*
%TO.N,/SPI_CE*%
X183862500Y-86600000D02*
X183162500Y-86600000D01*
X183162500Y-86600000D02*
X182212500Y-87550000D01*
X182212500Y-87550000D02*
X179562500Y-87550000D01*
%TO.N,/SPI_MOSI*%
X183502500Y-90050000D02*
X179562500Y-90050000D01*
X183862500Y-90410000D02*
X183502500Y-90050000D01*
%TO.N,/LED_RED*%
X177650000Y-95573840D02*
X180274000Y-98197840D01*
X177650000Y-93462500D02*
X177650000Y-95573840D01*
X180274000Y-99226500D02*
X181087500Y-100040000D01*
X180274000Y-98197840D02*
X180274000Y-99226500D01*
%TO.N,/LED_GREEN*%
X178150000Y-93462500D02*
X178150000Y-94717500D01*
X178150000Y-94717500D02*
X181087500Y-97655000D01*
%TO.N,/SW_SERVO*%
X181100000Y-93600000D02*
X181100000Y-93587500D01*
X179562500Y-92050000D02*
X181100000Y-93587500D01*
%TD*%
M02*
