%TF.GenerationSoftware,KiCad,Pcbnew,9.0.1*%
%TF.CreationDate,2025-08-08T13:48:55+02:00*%
%TF.ProjectId,ventilation,76656e74-696c-4617-9469-6f6e2e6b6963,rev?*%
%TF.SameCoordinates,Original*%
%TF.FileFunction,Legend,Top*%
%TF.FilePolarity,Positive*%
%FSLAX46Y46*%
G04 Gerber Fmt 4.6, Leading zero omitted, Abs format (unit mm)*
G04 Created by KiCad (PCBNEW 9.0.1) date 2025-08-08 13:48:55*
%MOMM*%
%LPD*%
G01*
G04 APERTURE LIST*
%ADD10C,0.150000*%
%ADD11C,0.100000*%
%ADD12C,0.120000*%
G04 APERTURE END LIST*
D10*
X166885713Y-94856819D02*
X166552380Y-94380628D01*
X166314285Y-94856819D02*
X166314285Y-93856819D01*
X166314285Y-93856819D02*
X166695237Y-93856819D01*
X166695237Y-93856819D02*
X166790475Y-93904438D01*
X166790475Y-93904438D02*
X166838094Y-93952057D01*
X166838094Y-93952057D02*
X166885713Y-94047295D01*
X166885713Y-94047295D02*
X166885713Y-94190152D01*
X166885713Y-94190152D02*
X166838094Y-94285390D01*
X166838094Y-94285390D02*
X166790475Y-94333009D01*
X166790475Y-94333009D02*
X166695237Y-94380628D01*
X166695237Y-94380628D02*
X166314285Y-94380628D01*
X167695237Y-94809200D02*
X167599999Y-94856819D01*
X167599999Y-94856819D02*
X167409523Y-94856819D01*
X167409523Y-94856819D02*
X167314285Y-94809200D01*
X167314285Y-94809200D02*
X167266666Y-94713961D01*
X167266666Y-94713961D02*
X167266666Y-94333009D01*
X167266666Y-94333009D02*
X167314285Y-94237771D01*
X167314285Y-94237771D02*
X167409523Y-94190152D01*
X167409523Y-94190152D02*
X167599999Y-94190152D01*
X167599999Y-94190152D02*
X167695237Y-94237771D01*
X167695237Y-94237771D02*
X167742856Y-94333009D01*
X167742856Y-94333009D02*
X167742856Y-94428247D01*
X167742856Y-94428247D02*
X167266666Y-94523485D01*
X168123809Y-94809200D02*
X168219047Y-94856819D01*
X168219047Y-94856819D02*
X168409523Y-94856819D01*
X168409523Y-94856819D02*
X168504761Y-94809200D01*
X168504761Y-94809200D02*
X168552380Y-94713961D01*
X168552380Y-94713961D02*
X168552380Y-94666342D01*
X168552380Y-94666342D02*
X168504761Y-94571104D01*
X168504761Y-94571104D02*
X168409523Y-94523485D01*
X168409523Y-94523485D02*
X168266666Y-94523485D01*
X168266666Y-94523485D02*
X168171428Y-94475866D01*
X168171428Y-94475866D02*
X168123809Y-94380628D01*
X168123809Y-94380628D02*
X168123809Y-94333009D01*
X168123809Y-94333009D02*
X168171428Y-94237771D01*
X168171428Y-94237771D02*
X168266666Y-94190152D01*
X168266666Y-94190152D02*
X168409523Y-94190152D01*
X168409523Y-94190152D02*
X168504761Y-94237771D01*
X169361904Y-94809200D02*
X169266666Y-94856819D01*
X169266666Y-94856819D02*
X169076190Y-94856819D01*
X169076190Y-94856819D02*
X168980952Y-94809200D01*
X168980952Y-94809200D02*
X168933333Y-94713961D01*
X168933333Y-94713961D02*
X168933333Y-94333009D01*
X168933333Y-94333009D02*
X168980952Y-94237771D01*
X168980952Y-94237771D02*
X169076190Y-94190152D01*
X169076190Y-94190152D02*
X169266666Y-94190152D01*
X169266666Y-94190152D02*
X169361904Y-94237771D01*
X169361904Y-94237771D02*
X169409523Y-94333009D01*
X169409523Y-94333009D02*
X169409523Y-94428247D01*
X169409523Y-94428247D02*
X168933333Y-94523485D01*
X169695238Y-94190152D02*
X170076190Y-94190152D01*
X169838095Y-93856819D02*
X169838095Y-94713961D01*
X169838095Y-94713961D02*
X169885714Y-94809200D01*
X169885714Y-94809200D02*
X169980952Y-94856819D01*
X169980952Y-94856819D02*
X170076190Y-94856819D01*
X170933333Y-94856819D02*
X170361905Y-94856819D01*
X170647619Y-94856819D02*
X170647619Y-93856819D01*
X170647619Y-93856819D02*
X170552381Y-93999676D01*
X170552381Y-93999676D02*
X170457143Y-94094914D01*
X170457143Y-94094914D02*
X170361905Y-94142533D01*
X173094819Y-77503333D02*
X173809104Y-77503333D01*
X173809104Y-77503333D02*
X173951961Y-77550952D01*
X173951961Y-77550952D02*
X174047200Y-77646190D01*
X174047200Y-77646190D02*
X174094819Y-77789047D01*
X174094819Y-77789047D02*
X174094819Y-77884285D01*
X173428152Y-76598571D02*
X174094819Y-76598571D01*
X173047200Y-76836666D02*
X173761485Y-77074761D01*
X173761485Y-77074761D02*
X173761485Y-76455714D01*
X166604761Y-83931009D02*
X166747618Y-83978628D01*
X166747618Y-83978628D02*
X166795237Y-84026247D01*
X166795237Y-84026247D02*
X166842856Y-84121485D01*
X166842856Y-84121485D02*
X166842856Y-84264342D01*
X166842856Y-84264342D02*
X166795237Y-84359580D01*
X166795237Y-84359580D02*
X166747618Y-84407200D01*
X166747618Y-84407200D02*
X166652380Y-84454819D01*
X166652380Y-84454819D02*
X166271428Y-84454819D01*
X166271428Y-84454819D02*
X166271428Y-83454819D01*
X166271428Y-83454819D02*
X166604761Y-83454819D01*
X166604761Y-83454819D02*
X166699999Y-83502438D01*
X166699999Y-83502438D02*
X166747618Y-83550057D01*
X166747618Y-83550057D02*
X166795237Y-83645295D01*
X166795237Y-83645295D02*
X166795237Y-83740533D01*
X166795237Y-83740533D02*
X166747618Y-83835771D01*
X166747618Y-83835771D02*
X166699999Y-83883390D01*
X166699999Y-83883390D02*
X166604761Y-83931009D01*
X166604761Y-83931009D02*
X166271428Y-83931009D01*
X167414285Y-84454819D02*
X167319047Y-84407200D01*
X167319047Y-84407200D02*
X167271428Y-84359580D01*
X167271428Y-84359580D02*
X167223809Y-84264342D01*
X167223809Y-84264342D02*
X167223809Y-83978628D01*
X167223809Y-83978628D02*
X167271428Y-83883390D01*
X167271428Y-83883390D02*
X167319047Y-83835771D01*
X167319047Y-83835771D02*
X167414285Y-83788152D01*
X167414285Y-83788152D02*
X167557142Y-83788152D01*
X167557142Y-83788152D02*
X167652380Y-83835771D01*
X167652380Y-83835771D02*
X167699999Y-83883390D01*
X167699999Y-83883390D02*
X167747618Y-83978628D01*
X167747618Y-83978628D02*
X167747618Y-84264342D01*
X167747618Y-84264342D02*
X167699999Y-84359580D01*
X167699999Y-84359580D02*
X167652380Y-84407200D01*
X167652380Y-84407200D02*
X167557142Y-84454819D01*
X167557142Y-84454819D02*
X167414285Y-84454819D01*
X168319047Y-84454819D02*
X168223809Y-84407200D01*
X168223809Y-84407200D02*
X168176190Y-84359580D01*
X168176190Y-84359580D02*
X168128571Y-84264342D01*
X168128571Y-84264342D02*
X168128571Y-83978628D01*
X168128571Y-83978628D02*
X168176190Y-83883390D01*
X168176190Y-83883390D02*
X168223809Y-83835771D01*
X168223809Y-83835771D02*
X168319047Y-83788152D01*
X168319047Y-83788152D02*
X168461904Y-83788152D01*
X168461904Y-83788152D02*
X168557142Y-83835771D01*
X168557142Y-83835771D02*
X168604761Y-83883390D01*
X168604761Y-83883390D02*
X168652380Y-83978628D01*
X168652380Y-83978628D02*
X168652380Y-84264342D01*
X168652380Y-84264342D02*
X168604761Y-84359580D01*
X168604761Y-84359580D02*
X168557142Y-84407200D01*
X168557142Y-84407200D02*
X168461904Y-84454819D01*
X168461904Y-84454819D02*
X168319047Y-84454819D01*
X168938095Y-83788152D02*
X169319047Y-83788152D01*
X169080952Y-83454819D02*
X169080952Y-84311961D01*
X169080952Y-84311961D02*
X169128571Y-84407200D01*
X169128571Y-84407200D02*
X169223809Y-84454819D01*
X169223809Y-84454819D02*
X169319047Y-84454819D01*
X170176190Y-84454819D02*
X169604762Y-84454819D01*
X169890476Y-84454819D02*
X169890476Y-83454819D01*
X169890476Y-83454819D02*
X169795238Y-83597676D01*
X169795238Y-83597676D02*
X169700000Y-83692914D01*
X169700000Y-83692914D02*
X169604762Y-83740533D01*
X180154819Y-97966666D02*
X179678628Y-98299999D01*
X180154819Y-98538094D02*
X179154819Y-98538094D01*
X179154819Y-98538094D02*
X179154819Y-98157142D01*
X179154819Y-98157142D02*
X179202438Y-98061904D01*
X179202438Y-98061904D02*
X179250057Y-98014285D01*
X179250057Y-98014285D02*
X179345295Y-97966666D01*
X179345295Y-97966666D02*
X179488152Y-97966666D01*
X179488152Y-97966666D02*
X179583390Y-98014285D01*
X179583390Y-98014285D02*
X179631009Y-98061904D01*
X179631009Y-98061904D02*
X179678628Y-98157142D01*
X179678628Y-98157142D02*
X179678628Y-98538094D01*
X179154819Y-97061904D02*
X179154819Y-97538094D01*
X179154819Y-97538094D02*
X179631009Y-97585713D01*
X179631009Y-97585713D02*
X179583390Y-97538094D01*
X179583390Y-97538094D02*
X179535771Y-97442856D01*
X179535771Y-97442856D02*
X179535771Y-97204761D01*
X179535771Y-97204761D02*
X179583390Y-97109523D01*
X179583390Y-97109523D02*
X179631009Y-97061904D01*
X179631009Y-97061904D02*
X179726247Y-97014285D01*
X179726247Y-97014285D02*
X179964342Y-97014285D01*
X179964342Y-97014285D02*
X180059580Y-97061904D01*
X180059580Y-97061904D02*
X180107200Y-97109523D01*
X180107200Y-97109523D02*
X180154819Y-97204761D01*
X180154819Y-97204761D02*
X180154819Y-97442856D01*
X180154819Y-97442856D02*
X180107200Y-97538094D01*
X180107200Y-97538094D02*
X180059580Y-97585713D01*
X184854819Y-98438094D02*
X183854819Y-98438094D01*
X183854819Y-98438094D02*
X183854819Y-98199999D01*
X183854819Y-98199999D02*
X183902438Y-98057142D01*
X183902438Y-98057142D02*
X183997676Y-97961904D01*
X183997676Y-97961904D02*
X184092914Y-97914285D01*
X184092914Y-97914285D02*
X184283390Y-97866666D01*
X184283390Y-97866666D02*
X184426247Y-97866666D01*
X184426247Y-97866666D02*
X184616723Y-97914285D01*
X184616723Y-97914285D02*
X184711961Y-97961904D01*
X184711961Y-97961904D02*
X184807200Y-98057142D01*
X184807200Y-98057142D02*
X184854819Y-98199999D01*
X184854819Y-98199999D02*
X184854819Y-98438094D01*
X183950057Y-97485713D02*
X183902438Y-97438094D01*
X183902438Y-97438094D02*
X183854819Y-97342856D01*
X183854819Y-97342856D02*
X183854819Y-97104761D01*
X183854819Y-97104761D02*
X183902438Y-97009523D01*
X183902438Y-97009523D02*
X183950057Y-96961904D01*
X183950057Y-96961904D02*
X184045295Y-96914285D01*
X184045295Y-96914285D02*
X184140533Y-96914285D01*
X184140533Y-96914285D02*
X184283390Y-96961904D01*
X184283390Y-96961904D02*
X184854819Y-97533332D01*
X184854819Y-97533332D02*
X184854819Y-96914285D01*
X170454819Y-100666666D02*
X169978628Y-100999999D01*
X170454819Y-101238094D02*
X169454819Y-101238094D01*
X169454819Y-101238094D02*
X169454819Y-100857142D01*
X169454819Y-100857142D02*
X169502438Y-100761904D01*
X169502438Y-100761904D02*
X169550057Y-100714285D01*
X169550057Y-100714285D02*
X169645295Y-100666666D01*
X169645295Y-100666666D02*
X169788152Y-100666666D01*
X169788152Y-100666666D02*
X169883390Y-100714285D01*
X169883390Y-100714285D02*
X169931009Y-100761904D01*
X169931009Y-100761904D02*
X169978628Y-100857142D01*
X169978628Y-100857142D02*
X169978628Y-101238094D01*
X169454819Y-100333332D02*
X169454819Y-99666666D01*
X169454819Y-99666666D02*
X170454819Y-100095237D01*
X175159580Y-97831666D02*
X175207200Y-97879285D01*
X175207200Y-97879285D02*
X175254819Y-98022142D01*
X175254819Y-98022142D02*
X175254819Y-98117380D01*
X175254819Y-98117380D02*
X175207200Y-98260237D01*
X175207200Y-98260237D02*
X175111961Y-98355475D01*
X175111961Y-98355475D02*
X175016723Y-98403094D01*
X175016723Y-98403094D02*
X174826247Y-98450713D01*
X174826247Y-98450713D02*
X174683390Y-98450713D01*
X174683390Y-98450713D02*
X174492914Y-98403094D01*
X174492914Y-98403094D02*
X174397676Y-98355475D01*
X174397676Y-98355475D02*
X174302438Y-98260237D01*
X174302438Y-98260237D02*
X174254819Y-98117380D01*
X174254819Y-98117380D02*
X174254819Y-98022142D01*
X174254819Y-98022142D02*
X174302438Y-97879285D01*
X174302438Y-97879285D02*
X174350057Y-97831666D01*
X175254819Y-97355475D02*
X175254819Y-97164999D01*
X175254819Y-97164999D02*
X175207200Y-97069761D01*
X175207200Y-97069761D02*
X175159580Y-97022142D01*
X175159580Y-97022142D02*
X175016723Y-96926904D01*
X175016723Y-96926904D02*
X174826247Y-96879285D01*
X174826247Y-96879285D02*
X174445295Y-96879285D01*
X174445295Y-96879285D02*
X174350057Y-96926904D01*
X174350057Y-96926904D02*
X174302438Y-96974523D01*
X174302438Y-96974523D02*
X174254819Y-97069761D01*
X174254819Y-97069761D02*
X174254819Y-97260237D01*
X174254819Y-97260237D02*
X174302438Y-97355475D01*
X174302438Y-97355475D02*
X174350057Y-97403094D01*
X174350057Y-97403094D02*
X174445295Y-97450713D01*
X174445295Y-97450713D02*
X174683390Y-97450713D01*
X174683390Y-97450713D02*
X174778628Y-97403094D01*
X174778628Y-97403094D02*
X174826247Y-97355475D01*
X174826247Y-97355475D02*
X174873866Y-97260237D01*
X174873866Y-97260237D02*
X174873866Y-97069761D01*
X174873866Y-97069761D02*
X174826247Y-96974523D01*
X174826247Y-96974523D02*
X174778628Y-96926904D01*
X174778628Y-96926904D02*
X174683390Y-96879285D01*
X184854819Y-100738094D02*
X183854819Y-100738094D01*
X183854819Y-100738094D02*
X183854819Y-100499999D01*
X183854819Y-100499999D02*
X183902438Y-100357142D01*
X183902438Y-100357142D02*
X183997676Y-100261904D01*
X183997676Y-100261904D02*
X184092914Y-100214285D01*
X184092914Y-100214285D02*
X184283390Y-100166666D01*
X184283390Y-100166666D02*
X184426247Y-100166666D01*
X184426247Y-100166666D02*
X184616723Y-100214285D01*
X184616723Y-100214285D02*
X184711961Y-100261904D01*
X184711961Y-100261904D02*
X184807200Y-100357142D01*
X184807200Y-100357142D02*
X184854819Y-100499999D01*
X184854819Y-100499999D02*
X184854819Y-100738094D01*
X184854819Y-99214285D02*
X184854819Y-99785713D01*
X184854819Y-99499999D02*
X183854819Y-99499999D01*
X183854819Y-99499999D02*
X183997676Y-99595237D01*
X183997676Y-99595237D02*
X184092914Y-99690475D01*
X184092914Y-99690475D02*
X184140533Y-99785713D01*
X175254819Y-100066666D02*
X174778628Y-100399999D01*
X175254819Y-100638094D02*
X174254819Y-100638094D01*
X174254819Y-100638094D02*
X174254819Y-100257142D01*
X174254819Y-100257142D02*
X174302438Y-100161904D01*
X174302438Y-100161904D02*
X174350057Y-100114285D01*
X174350057Y-100114285D02*
X174445295Y-100066666D01*
X174445295Y-100066666D02*
X174588152Y-100066666D01*
X174588152Y-100066666D02*
X174683390Y-100114285D01*
X174683390Y-100114285D02*
X174731009Y-100161904D01*
X174731009Y-100161904D02*
X174778628Y-100257142D01*
X174778628Y-100257142D02*
X174778628Y-100638094D01*
X174683390Y-99495237D02*
X174635771Y-99590475D01*
X174635771Y-99590475D02*
X174588152Y-99638094D01*
X174588152Y-99638094D02*
X174492914Y-99685713D01*
X174492914Y-99685713D02*
X174445295Y-99685713D01*
X174445295Y-99685713D02*
X174350057Y-99638094D01*
X174350057Y-99638094D02*
X174302438Y-99590475D01*
X174302438Y-99590475D02*
X174254819Y-99495237D01*
X174254819Y-99495237D02*
X174254819Y-99304761D01*
X174254819Y-99304761D02*
X174302438Y-99209523D01*
X174302438Y-99209523D02*
X174350057Y-99161904D01*
X174350057Y-99161904D02*
X174445295Y-99114285D01*
X174445295Y-99114285D02*
X174492914Y-99114285D01*
X174492914Y-99114285D02*
X174588152Y-99161904D01*
X174588152Y-99161904D02*
X174635771Y-99209523D01*
X174635771Y-99209523D02*
X174683390Y-99304761D01*
X174683390Y-99304761D02*
X174683390Y-99495237D01*
X174683390Y-99495237D02*
X174731009Y-99590475D01*
X174731009Y-99590475D02*
X174778628Y-99638094D01*
X174778628Y-99638094D02*
X174873866Y-99685713D01*
X174873866Y-99685713D02*
X175064342Y-99685713D01*
X175064342Y-99685713D02*
X175159580Y-99638094D01*
X175159580Y-99638094D02*
X175207200Y-99590475D01*
X175207200Y-99590475D02*
X175254819Y-99495237D01*
X175254819Y-99495237D02*
X175254819Y-99304761D01*
X175254819Y-99304761D02*
X175207200Y-99209523D01*
X175207200Y-99209523D02*
X175159580Y-99161904D01*
X175159580Y-99161904D02*
X175064342Y-99114285D01*
X175064342Y-99114285D02*
X174873866Y-99114285D01*
X174873866Y-99114285D02*
X174778628Y-99161904D01*
X174778628Y-99161904D02*
X174731009Y-99209523D01*
X174731009Y-99209523D02*
X174683390Y-99304761D01*
X171733333Y-95354819D02*
X171400000Y-94878628D01*
X171161905Y-95354819D02*
X171161905Y-94354819D01*
X171161905Y-94354819D02*
X171542857Y-94354819D01*
X171542857Y-94354819D02*
X171638095Y-94402438D01*
X171638095Y-94402438D02*
X171685714Y-94450057D01*
X171685714Y-94450057D02*
X171733333Y-94545295D01*
X171733333Y-94545295D02*
X171733333Y-94688152D01*
X171733333Y-94688152D02*
X171685714Y-94783390D01*
X171685714Y-94783390D02*
X171638095Y-94831009D01*
X171638095Y-94831009D02*
X171542857Y-94878628D01*
X171542857Y-94878628D02*
X171161905Y-94878628D01*
X172685714Y-95354819D02*
X172114286Y-95354819D01*
X172400000Y-95354819D02*
X172400000Y-94354819D01*
X172400000Y-94354819D02*
X172304762Y-94497676D01*
X172304762Y-94497676D02*
X172209524Y-94592914D01*
X172209524Y-94592914D02*
X172114286Y-94640533D01*
D11*
X145966666Y-56257419D02*
X145966666Y-56971704D01*
X145966666Y-56971704D02*
X145919047Y-57114561D01*
X145919047Y-57114561D02*
X145823809Y-57209800D01*
X145823809Y-57209800D02*
X145680952Y-57257419D01*
X145680952Y-57257419D02*
X145585714Y-57257419D01*
X146395238Y-56352657D02*
X146442857Y-56305038D01*
X146442857Y-56305038D02*
X146538095Y-56257419D01*
X146538095Y-56257419D02*
X146776190Y-56257419D01*
X146776190Y-56257419D02*
X146871428Y-56305038D01*
X146871428Y-56305038D02*
X146919047Y-56352657D01*
X146919047Y-56352657D02*
X146966666Y-56447895D01*
X146966666Y-56447895D02*
X146966666Y-56543133D01*
X146966666Y-56543133D02*
X146919047Y-56685990D01*
X146919047Y-56685990D02*
X146347619Y-57257419D01*
X146347619Y-57257419D02*
X146966666Y-57257419D01*
D10*
X170359580Y-98766666D02*
X170407200Y-98814285D01*
X170407200Y-98814285D02*
X170454819Y-98957142D01*
X170454819Y-98957142D02*
X170454819Y-99052380D01*
X170454819Y-99052380D02*
X170407200Y-99195237D01*
X170407200Y-99195237D02*
X170311961Y-99290475D01*
X170311961Y-99290475D02*
X170216723Y-99338094D01*
X170216723Y-99338094D02*
X170026247Y-99385713D01*
X170026247Y-99385713D02*
X169883390Y-99385713D01*
X169883390Y-99385713D02*
X169692914Y-99338094D01*
X169692914Y-99338094D02*
X169597676Y-99290475D01*
X169597676Y-99290475D02*
X169502438Y-99195237D01*
X169502438Y-99195237D02*
X169454819Y-99052380D01*
X169454819Y-99052380D02*
X169454819Y-98957142D01*
X169454819Y-98957142D02*
X169502438Y-98814285D01*
X169502438Y-98814285D02*
X169550057Y-98766666D01*
X169454819Y-97909523D02*
X169454819Y-98099999D01*
X169454819Y-98099999D02*
X169502438Y-98195237D01*
X169502438Y-98195237D02*
X169550057Y-98242856D01*
X169550057Y-98242856D02*
X169692914Y-98338094D01*
X169692914Y-98338094D02*
X169883390Y-98385713D01*
X169883390Y-98385713D02*
X170264342Y-98385713D01*
X170264342Y-98385713D02*
X170359580Y-98338094D01*
X170359580Y-98338094D02*
X170407200Y-98290475D01*
X170407200Y-98290475D02*
X170454819Y-98195237D01*
X170454819Y-98195237D02*
X170454819Y-98004761D01*
X170454819Y-98004761D02*
X170407200Y-97909523D01*
X170407200Y-97909523D02*
X170359580Y-97861904D01*
X170359580Y-97861904D02*
X170264342Y-97814285D01*
X170264342Y-97814285D02*
X170026247Y-97814285D01*
X170026247Y-97814285D02*
X169931009Y-97861904D01*
X169931009Y-97861904D02*
X169883390Y-97909523D01*
X169883390Y-97909523D02*
X169835771Y-98004761D01*
X169835771Y-98004761D02*
X169835771Y-98195237D01*
X169835771Y-98195237D02*
X169883390Y-98290475D01*
X169883390Y-98290475D02*
X169931009Y-98338094D01*
X169931009Y-98338094D02*
X170026247Y-98385713D01*
D11*
X190767580Y-84733884D02*
X191767580Y-84733884D01*
X191767580Y-84733884D02*
X190767580Y-85305312D01*
X190767580Y-85305312D02*
X191767580Y-85305312D01*
X190767580Y-86352931D02*
X191243771Y-86019598D01*
X190767580Y-85781503D02*
X191767580Y-85781503D01*
X191767580Y-85781503D02*
X191767580Y-86162455D01*
X191767580Y-86162455D02*
X191719961Y-86257693D01*
X191719961Y-86257693D02*
X191672342Y-86305312D01*
X191672342Y-86305312D02*
X191577104Y-86352931D01*
X191577104Y-86352931D02*
X191434247Y-86352931D01*
X191434247Y-86352931D02*
X191339009Y-86305312D01*
X191339009Y-86305312D02*
X191291390Y-86257693D01*
X191291390Y-86257693D02*
X191243771Y-86162455D01*
X191243771Y-86162455D02*
X191243771Y-85781503D01*
X191291390Y-87114836D02*
X191291390Y-86781503D01*
X190767580Y-86781503D02*
X191767580Y-86781503D01*
X191767580Y-86781503D02*
X191767580Y-87257693D01*
X191672342Y-87591027D02*
X191719961Y-87638646D01*
X191719961Y-87638646D02*
X191767580Y-87733884D01*
X191767580Y-87733884D02*
X191767580Y-87971979D01*
X191767580Y-87971979D02*
X191719961Y-88067217D01*
X191719961Y-88067217D02*
X191672342Y-88114836D01*
X191672342Y-88114836D02*
X191577104Y-88162455D01*
X191577104Y-88162455D02*
X191481866Y-88162455D01*
X191481866Y-88162455D02*
X191339009Y-88114836D01*
X191339009Y-88114836D02*
X190767580Y-87543408D01*
X190767580Y-87543408D02*
X190767580Y-88162455D01*
X191434247Y-89019598D02*
X190767580Y-89019598D01*
X191815200Y-88781503D02*
X191100914Y-88543408D01*
X191100914Y-88543408D02*
X191100914Y-89162455D01*
X190767580Y-90019598D02*
X190767580Y-89543408D01*
X190767580Y-89543408D02*
X191767580Y-89543408D01*
X191767580Y-90543408D02*
X191767580Y-90638646D01*
X191767580Y-90638646D02*
X191719961Y-90733884D01*
X191719961Y-90733884D02*
X191672342Y-90781503D01*
X191672342Y-90781503D02*
X191577104Y-90829122D01*
X191577104Y-90829122D02*
X191386628Y-90876741D01*
X191386628Y-90876741D02*
X191148533Y-90876741D01*
X191148533Y-90876741D02*
X190958057Y-90829122D01*
X190958057Y-90829122D02*
X190862819Y-90781503D01*
X190862819Y-90781503D02*
X190815200Y-90733884D01*
X190815200Y-90733884D02*
X190767580Y-90638646D01*
X190767580Y-90638646D02*
X190767580Y-90543408D01*
X190767580Y-90543408D02*
X190815200Y-90448170D01*
X190815200Y-90448170D02*
X190862819Y-90400551D01*
X190862819Y-90400551D02*
X190958057Y-90352932D01*
X190958057Y-90352932D02*
X191148533Y-90305313D01*
X191148533Y-90305313D02*
X191386628Y-90305313D01*
X191386628Y-90305313D02*
X191577104Y-90352932D01*
X191577104Y-90352932D02*
X191672342Y-90400551D01*
X191672342Y-90400551D02*
X191719961Y-90448170D01*
X191719961Y-90448170D02*
X191767580Y-90543408D01*
X190767580Y-91829122D02*
X190767580Y-91257694D01*
X190767580Y-91543408D02*
X191767580Y-91543408D01*
X191767580Y-91543408D02*
X191624723Y-91448170D01*
X191624723Y-91448170D02*
X191529485Y-91352932D01*
X191529485Y-91352932D02*
X191481866Y-91257694D01*
X191148533Y-92257694D02*
X191148533Y-93019599D01*
X190767580Y-92638646D02*
X191529485Y-92638646D01*
D10*
X180154819Y-100266666D02*
X179678628Y-100599999D01*
X180154819Y-100838094D02*
X179154819Y-100838094D01*
X179154819Y-100838094D02*
X179154819Y-100457142D01*
X179154819Y-100457142D02*
X179202438Y-100361904D01*
X179202438Y-100361904D02*
X179250057Y-100314285D01*
X179250057Y-100314285D02*
X179345295Y-100266666D01*
X179345295Y-100266666D02*
X179488152Y-100266666D01*
X179488152Y-100266666D02*
X179583390Y-100314285D01*
X179583390Y-100314285D02*
X179631009Y-100361904D01*
X179631009Y-100361904D02*
X179678628Y-100457142D01*
X179678628Y-100457142D02*
X179678628Y-100838094D01*
X179488152Y-99409523D02*
X180154819Y-99409523D01*
X179107200Y-99647618D02*
X179821485Y-99885713D01*
X179821485Y-99885713D02*
X179821485Y-99266666D01*
X174867319Y-82342857D02*
X174391128Y-82676190D01*
X174867319Y-82914285D02*
X173867319Y-82914285D01*
X173867319Y-82914285D02*
X173867319Y-82533333D01*
X173867319Y-82533333D02*
X173914938Y-82438095D01*
X173914938Y-82438095D02*
X173962557Y-82390476D01*
X173962557Y-82390476D02*
X174057795Y-82342857D01*
X174057795Y-82342857D02*
X174200652Y-82342857D01*
X174200652Y-82342857D02*
X174295890Y-82390476D01*
X174295890Y-82390476D02*
X174343509Y-82438095D01*
X174343509Y-82438095D02*
X174391128Y-82533333D01*
X174391128Y-82533333D02*
X174391128Y-82914285D01*
X174867319Y-81390476D02*
X174867319Y-81961904D01*
X174867319Y-81676190D02*
X173867319Y-81676190D01*
X173867319Y-81676190D02*
X174010176Y-81771428D01*
X174010176Y-81771428D02*
X174105414Y-81866666D01*
X174105414Y-81866666D02*
X174153033Y-81961904D01*
X174867319Y-80438095D02*
X174867319Y-81009523D01*
X174867319Y-80723809D02*
X173867319Y-80723809D01*
X173867319Y-80723809D02*
X174010176Y-80819047D01*
X174010176Y-80819047D02*
X174105414Y-80914285D01*
X174105414Y-80914285D02*
X174153033Y-81009523D01*
D12*
%TO.C,Reset1*%
X167400000Y-95200000D02*
X169800000Y-95200000D01*
X167400000Y-97600000D02*
X167400000Y-95200000D01*
X169800000Y-95200000D02*
X169800000Y-97600000D01*
X169800000Y-97600000D02*
X167400000Y-97600000D01*
%TO.C,J4*%
X174640000Y-79820000D02*
X174640000Y-78440000D01*
X176020000Y-79820000D02*
X174640000Y-79820000D01*
X177290000Y-79820000D02*
X185020000Y-79820000D01*
X177290000Y-79820000D02*
X177290000Y-77170000D01*
X185020000Y-79820000D02*
X185020000Y-74520000D01*
X174640000Y-77170000D02*
X174640000Y-74520000D01*
X177290000Y-77170000D02*
X174640000Y-77170000D01*
X174640000Y-74520000D02*
X185020000Y-74520000D01*
%TO.C,Boot1*%
X166600000Y-84900000D02*
X169000000Y-84900000D01*
X166600000Y-87300000D02*
X166600000Y-84900000D01*
X169000000Y-84900000D02*
X169000000Y-87300000D01*
X169000000Y-87300000D02*
X166600000Y-87300000D01*
%TO.C,R5*%
X182227064Y-96920000D02*
X181772936Y-96920000D01*
X182227064Y-98390000D02*
X181772936Y-98390000D01*
%TO.C,D2*%
X185115000Y-96740000D02*
X185115000Y-98660000D01*
X185115000Y-98660000D02*
X187800000Y-98660000D01*
X187800000Y-96740000D02*
X185115000Y-96740000D01*
%TO.C,R7*%
X172607064Y-99665000D02*
X172152936Y-99665000D01*
X172607064Y-101135000D02*
X172152936Y-101135000D01*
%TO.C,C9*%
X177561252Y-96950000D02*
X177038748Y-96950000D01*
X177561252Y-98420000D02*
X177038748Y-98420000D01*
%TO.C,D1*%
X185115000Y-99125000D02*
X185115000Y-101045000D01*
X185115000Y-101045000D02*
X187800000Y-101045000D01*
X187800000Y-99125000D02*
X185115000Y-99125000D01*
%TO.C,R8*%
X177514564Y-99305000D02*
X177060436Y-99305000D01*
X177514564Y-100775000D02*
X177060436Y-100775000D01*
%TO.C,R1*%
X172607064Y-95565000D02*
X172152936Y-95565000D01*
X172607064Y-97035000D02*
X172152936Y-97035000D01*
%TO.C,J2*%
D11*
X157815000Y-75340000D02*
X166070000Y-75340000D01*
X166070000Y-88040000D01*
X157815000Y-88040000D01*
X157815000Y-75340000D01*
D12*
%TO.C,C6*%
X172098748Y-97615000D02*
X172621252Y-97615000D01*
X172098748Y-99085000D02*
X172621252Y-99085000D01*
%TO.C,R4*%
X182227064Y-99305000D02*
X181772936Y-99305000D01*
X182227064Y-100775000D02*
X181772936Y-100775000D01*
%TO.C,R2*%
X168427064Y-89335000D02*
X167972936Y-89335000D01*
X168427064Y-87865000D02*
X167972936Y-87865000D01*
%TO.C,U1*%
X171790000Y-85690000D02*
X172240000Y-85690000D01*
X171790000Y-86140000D02*
X171790000Y-85690000D01*
X171790000Y-92460000D02*
X171790000Y-92910000D01*
X171790000Y-92910000D02*
X172240000Y-92910000D01*
X179010000Y-85690000D02*
X178560000Y-85690000D01*
X179010000Y-86140000D02*
X179010000Y-85690000D01*
X179010000Y-92460000D02*
X179010000Y-92910000D01*
X179010000Y-92910000D02*
X178560000Y-92910000D01*
X172240000Y-93500000D02*
X171770000Y-93840000D01*
X171770000Y-93160000D01*
X172240000Y-93500000D01*
G36*
X172240000Y-93500000D02*
G01*
X171770000Y-93840000D01*
X171770000Y-93160000D01*
X172240000Y-93500000D01*
G37*
%TO.C,R11*%
X168272936Y-82835000D02*
X168727064Y-82835000D01*
X168272936Y-81365000D02*
X168727064Y-81365000D01*
%TO.C,J3*%
D11*
X157815000Y-88350000D02*
X166070000Y-88350000D01*
X166070000Y-101050000D01*
X157815000Y-101050000D01*
X157815000Y-88350000D01*
%TD*%
M02*
