%TF.GenerationSoftware,KiCad,Pcbnew,9.0.1*%
%TF.CreationDate,2025-08-27T22:57:26+02:00*%
%TF.ProjectId,ventilation,76656e74-696c-4617-9469-6f6e2e6b6963,rev?*%
%TF.SameCoordinates,Original*%
%TF.FileFunction,Legend,Top*%
%TF.FilePolarity,Positive*%
%FSLAX46Y46*%
G04 Gerber Fmt 4.6, Leading zero omitted, Abs format (unit mm)*
G04 Created by KiCad (PCBNEW 9.0.1) date 2025-08-27 22:57:26*
%MOMM*%
%LPD*%
G01*
G04 APERTURE LIST*
%ADD10C,0.150000*%
%ADD11C,0.100000*%
%ADD12C,0.120000*%
G04 APERTURE END LIST*
D10*
X156460588Y-96317438D02*
X156365350Y-96269819D01*
X156365350Y-96269819D02*
X156222493Y-96269819D01*
X156222493Y-96269819D02*
X156079636Y-96317438D01*
X156079636Y-96317438D02*
X155984398Y-96412676D01*
X155984398Y-96412676D02*
X155936779Y-96507914D01*
X155936779Y-96507914D02*
X155889160Y-96698390D01*
X155889160Y-96698390D02*
X155889160Y-96841247D01*
X155889160Y-96841247D02*
X155936779Y-97031723D01*
X155936779Y-97031723D02*
X155984398Y-97126961D01*
X155984398Y-97126961D02*
X156079636Y-97222200D01*
X156079636Y-97222200D02*
X156222493Y-97269819D01*
X156222493Y-97269819D02*
X156317731Y-97269819D01*
X156317731Y-97269819D02*
X156460588Y-97222200D01*
X156460588Y-97222200D02*
X156508207Y-97174580D01*
X156508207Y-97174580D02*
X156508207Y-96841247D01*
X156508207Y-96841247D02*
X156317731Y-96841247D01*
X156936779Y-97269819D02*
X156936779Y-96269819D01*
X156936779Y-96269819D02*
X157508207Y-97269819D01*
X157508207Y-97269819D02*
X157508207Y-96269819D01*
X157984398Y-97269819D02*
X157984398Y-96269819D01*
X157984398Y-96269819D02*
X158222493Y-96269819D01*
X158222493Y-96269819D02*
X158365350Y-96317438D01*
X158365350Y-96317438D02*
X158460588Y-96412676D01*
X158460588Y-96412676D02*
X158508207Y-96507914D01*
X158508207Y-96507914D02*
X158555826Y-96698390D01*
X158555826Y-96698390D02*
X158555826Y-96841247D01*
X158555826Y-96841247D02*
X158508207Y-97031723D01*
X158508207Y-97031723D02*
X158460588Y-97126961D01*
X158460588Y-97126961D02*
X158365350Y-97222200D01*
X158365350Y-97222200D02*
X158222493Y-97269819D01*
X158222493Y-97269819D02*
X157984398Y-97269819D01*
X166782561Y-77160588D02*
X166830180Y-77065350D01*
X166830180Y-77065350D02*
X166830180Y-76922493D01*
X166830180Y-76922493D02*
X166782561Y-76779636D01*
X166782561Y-76779636D02*
X166687323Y-76684398D01*
X166687323Y-76684398D02*
X166592085Y-76636779D01*
X166592085Y-76636779D02*
X166401609Y-76589160D01*
X166401609Y-76589160D02*
X166258752Y-76589160D01*
X166258752Y-76589160D02*
X166068276Y-76636779D01*
X166068276Y-76636779D02*
X165973038Y-76684398D01*
X165973038Y-76684398D02*
X165877800Y-76779636D01*
X165877800Y-76779636D02*
X165830180Y-76922493D01*
X165830180Y-76922493D02*
X165830180Y-77017731D01*
X165830180Y-77017731D02*
X165877800Y-77160588D01*
X165877800Y-77160588D02*
X165925419Y-77208207D01*
X165925419Y-77208207D02*
X166258752Y-77208207D01*
X166258752Y-77208207D02*
X166258752Y-77017731D01*
X165830180Y-77636779D02*
X166830180Y-77636779D01*
X166830180Y-77636779D02*
X165830180Y-78208207D01*
X165830180Y-78208207D02*
X166830180Y-78208207D01*
X165830180Y-78684398D02*
X166830180Y-78684398D01*
X166830180Y-78684398D02*
X166830180Y-78922493D01*
X166830180Y-78922493D02*
X166782561Y-79065350D01*
X166782561Y-79065350D02*
X166687323Y-79160588D01*
X166687323Y-79160588D02*
X166592085Y-79208207D01*
X166592085Y-79208207D02*
X166401609Y-79255826D01*
X166401609Y-79255826D02*
X166258752Y-79255826D01*
X166258752Y-79255826D02*
X166068276Y-79208207D01*
X166068276Y-79208207D02*
X165973038Y-79160588D01*
X165973038Y-79160588D02*
X165877800Y-79065350D01*
X165877800Y-79065350D02*
X165830180Y-78922493D01*
X165830180Y-78922493D02*
X165830180Y-78684398D01*
X156270112Y-88046009D02*
X156412969Y-88093628D01*
X156412969Y-88093628D02*
X156460588Y-88141247D01*
X156460588Y-88141247D02*
X156508207Y-88236485D01*
X156508207Y-88236485D02*
X156508207Y-88379342D01*
X156508207Y-88379342D02*
X156460588Y-88474580D01*
X156460588Y-88474580D02*
X156412969Y-88522200D01*
X156412969Y-88522200D02*
X156317731Y-88569819D01*
X156317731Y-88569819D02*
X155936779Y-88569819D01*
X155936779Y-88569819D02*
X155936779Y-87569819D01*
X155936779Y-87569819D02*
X156270112Y-87569819D01*
X156270112Y-87569819D02*
X156365350Y-87617438D01*
X156365350Y-87617438D02*
X156412969Y-87665057D01*
X156412969Y-87665057D02*
X156460588Y-87760295D01*
X156460588Y-87760295D02*
X156460588Y-87855533D01*
X156460588Y-87855533D02*
X156412969Y-87950771D01*
X156412969Y-87950771D02*
X156365350Y-87998390D01*
X156365350Y-87998390D02*
X156270112Y-88046009D01*
X156270112Y-88046009D02*
X155936779Y-88046009D01*
X156889160Y-88284104D02*
X157365350Y-88284104D01*
X156793922Y-88569819D02*
X157127255Y-87569819D01*
X157127255Y-87569819D02*
X157460588Y-88569819D01*
X157651065Y-87569819D02*
X158222493Y-87569819D01*
X157936779Y-88569819D02*
X157936779Y-87569819D01*
X158555827Y-88188866D02*
X159317732Y-88188866D01*
X155793922Y-101169819D02*
X156127255Y-102169819D01*
X156127255Y-102169819D02*
X156460588Y-101169819D01*
X157365350Y-102074580D02*
X157317731Y-102122200D01*
X157317731Y-102122200D02*
X157174874Y-102169819D01*
X157174874Y-102169819D02*
X157079636Y-102169819D01*
X157079636Y-102169819D02*
X156936779Y-102122200D01*
X156936779Y-102122200D02*
X156841541Y-102026961D01*
X156841541Y-102026961D02*
X156793922Y-101931723D01*
X156793922Y-101931723D02*
X156746303Y-101741247D01*
X156746303Y-101741247D02*
X156746303Y-101598390D01*
X156746303Y-101598390D02*
X156793922Y-101407914D01*
X156793922Y-101407914D02*
X156841541Y-101312676D01*
X156841541Y-101312676D02*
X156936779Y-101217438D01*
X156936779Y-101217438D02*
X157079636Y-101169819D01*
X157079636Y-101169819D02*
X157174874Y-101169819D01*
X157174874Y-101169819D02*
X157317731Y-101217438D01*
X157317731Y-101217438D02*
X157365350Y-101265057D01*
X158365350Y-102074580D02*
X158317731Y-102122200D01*
X158317731Y-102122200D02*
X158174874Y-102169819D01*
X158174874Y-102169819D02*
X158079636Y-102169819D01*
X158079636Y-102169819D02*
X157936779Y-102122200D01*
X157936779Y-102122200D02*
X157841541Y-102026961D01*
X157841541Y-102026961D02*
X157793922Y-101931723D01*
X157793922Y-101931723D02*
X157746303Y-101741247D01*
X157746303Y-101741247D02*
X157746303Y-101598390D01*
X157746303Y-101598390D02*
X157793922Y-101407914D01*
X157793922Y-101407914D02*
X157841541Y-101312676D01*
X157841541Y-101312676D02*
X157936779Y-101217438D01*
X157936779Y-101217438D02*
X158079636Y-101169819D01*
X158079636Y-101169819D02*
X158174874Y-101169819D01*
X158174874Y-101169819D02*
X158317731Y-101217438D01*
X158317731Y-101217438D02*
X158365350Y-101265057D01*
X169401609Y-76541541D02*
X169401609Y-77160588D01*
X169401609Y-77160588D02*
X169020657Y-76827255D01*
X169020657Y-76827255D02*
X169020657Y-76970112D01*
X169020657Y-76970112D02*
X168973038Y-77065350D01*
X168973038Y-77065350D02*
X168925419Y-77112969D01*
X168925419Y-77112969D02*
X168830181Y-77160588D01*
X168830181Y-77160588D02*
X168592086Y-77160588D01*
X168592086Y-77160588D02*
X168496848Y-77112969D01*
X168496848Y-77112969D02*
X168449229Y-77065350D01*
X168449229Y-77065350D02*
X168401609Y-76970112D01*
X168401609Y-76970112D02*
X168401609Y-76684398D01*
X168401609Y-76684398D02*
X168449229Y-76589160D01*
X168449229Y-76589160D02*
X168496848Y-76541541D01*
X169401609Y-77446303D02*
X168401609Y-77779636D01*
X168401609Y-77779636D02*
X169401609Y-78112969D01*
X169401609Y-78351065D02*
X169401609Y-78970112D01*
X169401609Y-78970112D02*
X169020657Y-78636779D01*
X169020657Y-78636779D02*
X169020657Y-78779636D01*
X169020657Y-78779636D02*
X168973038Y-78874874D01*
X168973038Y-78874874D02*
X168925419Y-78922493D01*
X168925419Y-78922493D02*
X168830181Y-78970112D01*
X168830181Y-78970112D02*
X168592086Y-78970112D01*
X168592086Y-78970112D02*
X168496848Y-78922493D01*
X168496848Y-78922493D02*
X168449229Y-78874874D01*
X168449229Y-78874874D02*
X168401609Y-78779636D01*
X168401609Y-78779636D02*
X168401609Y-78493922D01*
X168401609Y-78493922D02*
X168449229Y-78398684D01*
X168449229Y-78398684D02*
X168496848Y-78351065D01*
X171068276Y-77208207D02*
X171020657Y-77160588D01*
X171020657Y-77160588D02*
X170973037Y-77017731D01*
X170973037Y-77017731D02*
X170973037Y-76922493D01*
X170973037Y-76922493D02*
X171020657Y-76779636D01*
X171020657Y-76779636D02*
X171115895Y-76684398D01*
X171115895Y-76684398D02*
X171211133Y-76636779D01*
X171211133Y-76636779D02*
X171401609Y-76589160D01*
X171401609Y-76589160D02*
X171544466Y-76589160D01*
X171544466Y-76589160D02*
X171734942Y-76636779D01*
X171734942Y-76636779D02*
X171830180Y-76684398D01*
X171830180Y-76684398D02*
X171925418Y-76779636D01*
X171925418Y-76779636D02*
X171973037Y-76922493D01*
X171973037Y-76922493D02*
X171973037Y-77017731D01*
X171973037Y-77017731D02*
X171925418Y-77160588D01*
X171925418Y-77160588D02*
X171877799Y-77208207D01*
X170973037Y-78112969D02*
X170973037Y-77636779D01*
X170973037Y-77636779D02*
X171973037Y-77636779D01*
X170973037Y-78446303D02*
X171973037Y-78446303D01*
X170973037Y-79017731D02*
X171544466Y-78589160D01*
X171973037Y-79017731D02*
X171401609Y-78446303D01*
X155841541Y-81869819D02*
X156460588Y-81869819D01*
X156460588Y-81869819D02*
X156127255Y-82250771D01*
X156127255Y-82250771D02*
X156270112Y-82250771D01*
X156270112Y-82250771D02*
X156365350Y-82298390D01*
X156365350Y-82298390D02*
X156412969Y-82346009D01*
X156412969Y-82346009D02*
X156460588Y-82441247D01*
X156460588Y-82441247D02*
X156460588Y-82679342D01*
X156460588Y-82679342D02*
X156412969Y-82774580D01*
X156412969Y-82774580D02*
X156365350Y-82822200D01*
X156365350Y-82822200D02*
X156270112Y-82869819D01*
X156270112Y-82869819D02*
X155984398Y-82869819D01*
X155984398Y-82869819D02*
X155889160Y-82822200D01*
X155889160Y-82822200D02*
X155841541Y-82774580D01*
X156746303Y-81869819D02*
X157079636Y-82869819D01*
X157079636Y-82869819D02*
X157412969Y-81869819D01*
X157651065Y-81869819D02*
X158270112Y-81869819D01*
X158270112Y-81869819D02*
X157936779Y-82250771D01*
X157936779Y-82250771D02*
X158079636Y-82250771D01*
X158079636Y-82250771D02*
X158174874Y-82298390D01*
X158174874Y-82298390D02*
X158222493Y-82346009D01*
X158222493Y-82346009D02*
X158270112Y-82441247D01*
X158270112Y-82441247D02*
X158270112Y-82679342D01*
X158270112Y-82679342D02*
X158222493Y-82774580D01*
X158222493Y-82774580D02*
X158174874Y-82822200D01*
X158174874Y-82822200D02*
X158079636Y-82869819D01*
X158079636Y-82869819D02*
X157793922Y-82869819D01*
X157793922Y-82869819D02*
X157698684Y-82822200D01*
X157698684Y-82822200D02*
X157651065Y-82774580D01*
X155889160Y-75422200D02*
X156032017Y-75469819D01*
X156032017Y-75469819D02*
X156270112Y-75469819D01*
X156270112Y-75469819D02*
X156365350Y-75422200D01*
X156365350Y-75422200D02*
X156412969Y-75374580D01*
X156412969Y-75374580D02*
X156460588Y-75279342D01*
X156460588Y-75279342D02*
X156460588Y-75184104D01*
X156460588Y-75184104D02*
X156412969Y-75088866D01*
X156412969Y-75088866D02*
X156365350Y-75041247D01*
X156365350Y-75041247D02*
X156270112Y-74993628D01*
X156270112Y-74993628D02*
X156079636Y-74946009D01*
X156079636Y-74946009D02*
X155984398Y-74898390D01*
X155984398Y-74898390D02*
X155936779Y-74850771D01*
X155936779Y-74850771D02*
X155889160Y-74755533D01*
X155889160Y-74755533D02*
X155889160Y-74660295D01*
X155889160Y-74660295D02*
X155936779Y-74565057D01*
X155936779Y-74565057D02*
X155984398Y-74517438D01*
X155984398Y-74517438D02*
X156079636Y-74469819D01*
X156079636Y-74469819D02*
X156317731Y-74469819D01*
X156317731Y-74469819D02*
X156460588Y-74517438D01*
X157460588Y-75374580D02*
X157412969Y-75422200D01*
X157412969Y-75422200D02*
X157270112Y-75469819D01*
X157270112Y-75469819D02*
X157174874Y-75469819D01*
X157174874Y-75469819D02*
X157032017Y-75422200D01*
X157032017Y-75422200D02*
X156936779Y-75326961D01*
X156936779Y-75326961D02*
X156889160Y-75231723D01*
X156889160Y-75231723D02*
X156841541Y-75041247D01*
X156841541Y-75041247D02*
X156841541Y-74898390D01*
X156841541Y-74898390D02*
X156889160Y-74707914D01*
X156889160Y-74707914D02*
X156936779Y-74612676D01*
X156936779Y-74612676D02*
X157032017Y-74517438D01*
X157032017Y-74517438D02*
X157174874Y-74469819D01*
X157174874Y-74469819D02*
X157270112Y-74469819D01*
X157270112Y-74469819D02*
X157412969Y-74517438D01*
X157412969Y-74517438D02*
X157460588Y-74565057D01*
X158365350Y-75469819D02*
X157889160Y-75469819D01*
X157889160Y-75469819D02*
X157889160Y-74469819D01*
X179687323Y-76493922D02*
X179687323Y-77065350D01*
X178687323Y-76779636D02*
X179687323Y-76779636D01*
X179687323Y-77303446D02*
X178687323Y-77970112D01*
X179687323Y-77970112D02*
X178687323Y-77303446D01*
X156270112Y-90746009D02*
X156412969Y-90793628D01*
X156412969Y-90793628D02*
X156460588Y-90841247D01*
X156460588Y-90841247D02*
X156508207Y-90936485D01*
X156508207Y-90936485D02*
X156508207Y-91079342D01*
X156508207Y-91079342D02*
X156460588Y-91174580D01*
X156460588Y-91174580D02*
X156412969Y-91222200D01*
X156412969Y-91222200D02*
X156317731Y-91269819D01*
X156317731Y-91269819D02*
X155936779Y-91269819D01*
X155936779Y-91269819D02*
X155936779Y-90269819D01*
X155936779Y-90269819D02*
X156270112Y-90269819D01*
X156270112Y-90269819D02*
X156365350Y-90317438D01*
X156365350Y-90317438D02*
X156412969Y-90365057D01*
X156412969Y-90365057D02*
X156460588Y-90460295D01*
X156460588Y-90460295D02*
X156460588Y-90555533D01*
X156460588Y-90555533D02*
X156412969Y-90650771D01*
X156412969Y-90650771D02*
X156365350Y-90698390D01*
X156365350Y-90698390D02*
X156270112Y-90746009D01*
X156270112Y-90746009D02*
X155936779Y-90746009D01*
X156889160Y-90984104D02*
X157365350Y-90984104D01*
X156793922Y-91269819D02*
X157127255Y-90269819D01*
X157127255Y-90269819D02*
X157460588Y-91269819D01*
X157651065Y-90269819D02*
X158222493Y-90269819D01*
X157936779Y-91269819D02*
X157936779Y-90269819D01*
X158555827Y-90888866D02*
X159317732Y-90888866D01*
X158936779Y-91269819D02*
X158936779Y-90507914D01*
X155889160Y-99672200D02*
X156032017Y-99719819D01*
X156032017Y-99719819D02*
X156270112Y-99719819D01*
X156270112Y-99719819D02*
X156365350Y-99672200D01*
X156365350Y-99672200D02*
X156412969Y-99624580D01*
X156412969Y-99624580D02*
X156460588Y-99529342D01*
X156460588Y-99529342D02*
X156460588Y-99434104D01*
X156460588Y-99434104D02*
X156412969Y-99338866D01*
X156412969Y-99338866D02*
X156365350Y-99291247D01*
X156365350Y-99291247D02*
X156270112Y-99243628D01*
X156270112Y-99243628D02*
X156079636Y-99196009D01*
X156079636Y-99196009D02*
X155984398Y-99148390D01*
X155984398Y-99148390D02*
X155936779Y-99100771D01*
X155936779Y-99100771D02*
X155889160Y-99005533D01*
X155889160Y-99005533D02*
X155889160Y-98910295D01*
X155889160Y-98910295D02*
X155936779Y-98815057D01*
X155936779Y-98815057D02*
X155984398Y-98767438D01*
X155984398Y-98767438D02*
X156079636Y-98719819D01*
X156079636Y-98719819D02*
X156317731Y-98719819D01*
X156317731Y-98719819D02*
X156460588Y-98767438D01*
X156889160Y-99719819D02*
X156889160Y-98719819D01*
X157889159Y-98767438D02*
X157793921Y-98719819D01*
X157793921Y-98719819D02*
X157651064Y-98719819D01*
X157651064Y-98719819D02*
X157508207Y-98767438D01*
X157508207Y-98767438D02*
X157412969Y-98862676D01*
X157412969Y-98862676D02*
X157365350Y-98957914D01*
X157365350Y-98957914D02*
X157317731Y-99148390D01*
X157317731Y-99148390D02*
X157317731Y-99291247D01*
X157317731Y-99291247D02*
X157365350Y-99481723D01*
X157365350Y-99481723D02*
X157412969Y-99576961D01*
X157412969Y-99576961D02*
X157508207Y-99672200D01*
X157508207Y-99672200D02*
X157651064Y-99719819D01*
X157651064Y-99719819D02*
X157746302Y-99719819D01*
X157746302Y-99719819D02*
X157889159Y-99672200D01*
X157889159Y-99672200D02*
X157936778Y-99624580D01*
X157936778Y-99624580D02*
X157936778Y-99291247D01*
X157936778Y-99291247D02*
X157746302Y-99291247D01*
X184353990Y-76970112D02*
X184306371Y-77112969D01*
X184306371Y-77112969D02*
X184258752Y-77160588D01*
X184258752Y-77160588D02*
X184163514Y-77208207D01*
X184163514Y-77208207D02*
X184020657Y-77208207D01*
X184020657Y-77208207D02*
X183925419Y-77160588D01*
X183925419Y-77160588D02*
X183877800Y-77112969D01*
X183877800Y-77112969D02*
X183830180Y-77017731D01*
X183830180Y-77017731D02*
X183830180Y-76636779D01*
X183830180Y-76636779D02*
X184830180Y-76636779D01*
X184830180Y-76636779D02*
X184830180Y-76970112D01*
X184830180Y-76970112D02*
X184782561Y-77065350D01*
X184782561Y-77065350D02*
X184734942Y-77112969D01*
X184734942Y-77112969D02*
X184639704Y-77160588D01*
X184639704Y-77160588D02*
X184544466Y-77160588D01*
X184544466Y-77160588D02*
X184449228Y-77112969D01*
X184449228Y-77112969D02*
X184401609Y-77065350D01*
X184401609Y-77065350D02*
X184353990Y-76970112D01*
X184353990Y-76970112D02*
X184353990Y-76636779D01*
X183830180Y-78160588D02*
X183830180Y-77589160D01*
X183830180Y-77874874D02*
X184830180Y-77874874D01*
X184830180Y-77874874D02*
X184687323Y-77779636D01*
X184687323Y-77779636D02*
X184592085Y-77684398D01*
X184592085Y-77684398D02*
X184544466Y-77589160D01*
X184496847Y-79017731D02*
X183830180Y-79017731D01*
X184877800Y-78779636D02*
X184163514Y-78541541D01*
X184163514Y-78541541D02*
X184163514Y-79160588D01*
X173544466Y-76636779D02*
X174544466Y-76636779D01*
X174544466Y-76636779D02*
X174544466Y-76874874D01*
X174544466Y-76874874D02*
X174496847Y-77017731D01*
X174496847Y-77017731D02*
X174401609Y-77112969D01*
X174401609Y-77112969D02*
X174306371Y-77160588D01*
X174306371Y-77160588D02*
X174115895Y-77208207D01*
X174115895Y-77208207D02*
X173973038Y-77208207D01*
X173973038Y-77208207D02*
X173782562Y-77160588D01*
X173782562Y-77160588D02*
X173687324Y-77112969D01*
X173687324Y-77112969D02*
X173592086Y-77017731D01*
X173592086Y-77017731D02*
X173544466Y-76874874D01*
X173544466Y-76874874D02*
X173544466Y-76636779D01*
X173544466Y-77636779D02*
X174544466Y-77636779D01*
X174544466Y-78303445D02*
X174544466Y-78493921D01*
X174544466Y-78493921D02*
X174496847Y-78589159D01*
X174496847Y-78589159D02*
X174401609Y-78684397D01*
X174401609Y-78684397D02*
X174211133Y-78732016D01*
X174211133Y-78732016D02*
X173877800Y-78732016D01*
X173877800Y-78732016D02*
X173687324Y-78684397D01*
X173687324Y-78684397D02*
X173592086Y-78589159D01*
X173592086Y-78589159D02*
X173544466Y-78493921D01*
X173544466Y-78493921D02*
X173544466Y-78303445D01*
X173544466Y-78303445D02*
X173592086Y-78208207D01*
X173592086Y-78208207D02*
X173687324Y-78112969D01*
X173687324Y-78112969D02*
X173877800Y-78065350D01*
X173877800Y-78065350D02*
X174211133Y-78065350D01*
X174211133Y-78065350D02*
X174401609Y-78112969D01*
X174401609Y-78112969D02*
X174496847Y-78208207D01*
X174496847Y-78208207D02*
X174544466Y-78303445D01*
X176115894Y-77208207D02*
X176592085Y-76874874D01*
X176115894Y-76636779D02*
X177115894Y-76636779D01*
X177115894Y-76636779D02*
X177115894Y-77017731D01*
X177115894Y-77017731D02*
X177068275Y-77112969D01*
X177068275Y-77112969D02*
X177020656Y-77160588D01*
X177020656Y-77160588D02*
X176925418Y-77208207D01*
X176925418Y-77208207D02*
X176782561Y-77208207D01*
X176782561Y-77208207D02*
X176687323Y-77160588D01*
X176687323Y-77160588D02*
X176639704Y-77112969D01*
X176639704Y-77112969D02*
X176592085Y-77017731D01*
X176592085Y-77017731D02*
X176592085Y-76636779D01*
X177115894Y-77541541D02*
X176115894Y-78208207D01*
X177115894Y-78208207D02*
X176115894Y-77541541D01*
X156460588Y-79450771D02*
X156365350Y-79403152D01*
X156365350Y-79403152D02*
X156222493Y-79403152D01*
X156222493Y-79403152D02*
X156079636Y-79450771D01*
X156079636Y-79450771D02*
X155984398Y-79546009D01*
X155984398Y-79546009D02*
X155936779Y-79641247D01*
X155936779Y-79641247D02*
X155889160Y-79831723D01*
X155889160Y-79831723D02*
X155889160Y-79974580D01*
X155889160Y-79974580D02*
X155936779Y-80165056D01*
X155936779Y-80165056D02*
X155984398Y-80260294D01*
X155984398Y-80260294D02*
X156079636Y-80355533D01*
X156079636Y-80355533D02*
X156222493Y-80403152D01*
X156222493Y-80403152D02*
X156317731Y-80403152D01*
X156317731Y-80403152D02*
X156460588Y-80355533D01*
X156460588Y-80355533D02*
X156508207Y-80307913D01*
X156508207Y-80307913D02*
X156508207Y-79974580D01*
X156508207Y-79974580D02*
X156317731Y-79974580D01*
X156936779Y-80403152D02*
X156936779Y-79403152D01*
X156936779Y-79403152D02*
X157508207Y-80403152D01*
X157508207Y-80403152D02*
X157508207Y-79403152D01*
X157984398Y-80403152D02*
X157984398Y-79403152D01*
X157984398Y-79403152D02*
X158222493Y-79403152D01*
X158222493Y-79403152D02*
X158365350Y-79450771D01*
X158365350Y-79450771D02*
X158460588Y-79546009D01*
X158460588Y-79546009D02*
X158508207Y-79641247D01*
X158508207Y-79641247D02*
X158555826Y-79831723D01*
X158555826Y-79831723D02*
X158555826Y-79974580D01*
X158555826Y-79974580D02*
X158508207Y-80165056D01*
X158508207Y-80165056D02*
X158460588Y-80260294D01*
X158460588Y-80260294D02*
X158365350Y-80355533D01*
X158365350Y-80355533D02*
X158222493Y-80403152D01*
X158222493Y-80403152D02*
X157984398Y-80403152D01*
X155889160Y-77888867D02*
X156032017Y-77936486D01*
X156032017Y-77936486D02*
X156270112Y-77936486D01*
X156270112Y-77936486D02*
X156365350Y-77888867D01*
X156365350Y-77888867D02*
X156412969Y-77841247D01*
X156412969Y-77841247D02*
X156460588Y-77746009D01*
X156460588Y-77746009D02*
X156460588Y-77650771D01*
X156460588Y-77650771D02*
X156412969Y-77555533D01*
X156412969Y-77555533D02*
X156365350Y-77507914D01*
X156365350Y-77507914D02*
X156270112Y-77460295D01*
X156270112Y-77460295D02*
X156079636Y-77412676D01*
X156079636Y-77412676D02*
X155984398Y-77365057D01*
X155984398Y-77365057D02*
X155936779Y-77317438D01*
X155936779Y-77317438D02*
X155889160Y-77222200D01*
X155889160Y-77222200D02*
X155889160Y-77126962D01*
X155889160Y-77126962D02*
X155936779Y-77031724D01*
X155936779Y-77031724D02*
X155984398Y-76984105D01*
X155984398Y-76984105D02*
X156079636Y-76936486D01*
X156079636Y-76936486D02*
X156317731Y-76936486D01*
X156317731Y-76936486D02*
X156460588Y-76984105D01*
X156889160Y-77936486D02*
X156889160Y-76936486D01*
X156889160Y-76936486D02*
X157127255Y-76936486D01*
X157127255Y-76936486D02*
X157270112Y-76984105D01*
X157270112Y-76984105D02*
X157365350Y-77079343D01*
X157365350Y-77079343D02*
X157412969Y-77174581D01*
X157412969Y-77174581D02*
X157460588Y-77365057D01*
X157460588Y-77365057D02*
X157460588Y-77507914D01*
X157460588Y-77507914D02*
X157412969Y-77698390D01*
X157412969Y-77698390D02*
X157365350Y-77793628D01*
X157365350Y-77793628D02*
X157270112Y-77888867D01*
X157270112Y-77888867D02*
X157127255Y-77936486D01*
X157127255Y-77936486D02*
X156889160Y-77936486D01*
X157841541Y-77650771D02*
X158317731Y-77650771D01*
X157746303Y-77936486D02*
X158079636Y-76936486D01*
X158079636Y-76936486D02*
X158412969Y-77936486D01*
X181782561Y-76970112D02*
X181734942Y-77112969D01*
X181734942Y-77112969D02*
X181687323Y-77160588D01*
X181687323Y-77160588D02*
X181592085Y-77208207D01*
X181592085Y-77208207D02*
X181449228Y-77208207D01*
X181449228Y-77208207D02*
X181353990Y-77160588D01*
X181353990Y-77160588D02*
X181306371Y-77112969D01*
X181306371Y-77112969D02*
X181258751Y-77017731D01*
X181258751Y-77017731D02*
X181258751Y-76636779D01*
X181258751Y-76636779D02*
X182258751Y-76636779D01*
X182258751Y-76636779D02*
X182258751Y-76970112D01*
X182258751Y-76970112D02*
X182211132Y-77065350D01*
X182211132Y-77065350D02*
X182163513Y-77112969D01*
X182163513Y-77112969D02*
X182068275Y-77160588D01*
X182068275Y-77160588D02*
X181973037Y-77160588D01*
X181973037Y-77160588D02*
X181877799Y-77112969D01*
X181877799Y-77112969D02*
X181830180Y-77065350D01*
X181830180Y-77065350D02*
X181782561Y-76970112D01*
X181782561Y-76970112D02*
X181782561Y-76636779D01*
X181258751Y-78160588D02*
X181258751Y-77589160D01*
X181258751Y-77874874D02*
X182258751Y-77874874D01*
X182258751Y-77874874D02*
X182115894Y-77779636D01*
X182115894Y-77779636D02*
X182020656Y-77684398D01*
X182020656Y-77684398D02*
X181973037Y-77589160D01*
X182258751Y-79065350D02*
X182258751Y-78589160D01*
X182258751Y-78589160D02*
X181782561Y-78541541D01*
X181782561Y-78541541D02*
X181830180Y-78589160D01*
X181830180Y-78589160D02*
X181877799Y-78684398D01*
X181877799Y-78684398D02*
X181877799Y-78922493D01*
X181877799Y-78922493D02*
X181830180Y-79017731D01*
X181830180Y-79017731D02*
X181782561Y-79065350D01*
X181782561Y-79065350D02*
X181687323Y-79112969D01*
X181687323Y-79112969D02*
X181449228Y-79112969D01*
X181449228Y-79112969D02*
X181353990Y-79065350D01*
X181353990Y-79065350D02*
X181306371Y-79017731D01*
X181306371Y-79017731D02*
X181258751Y-78922493D01*
X181258751Y-78922493D02*
X181258751Y-78684398D01*
X181258751Y-78684398D02*
X181306371Y-78589160D01*
X181306371Y-78589160D02*
X181353990Y-78541541D01*
X187832319Y-94796666D02*
X187356128Y-95129999D01*
X187832319Y-95368094D02*
X186832319Y-95368094D01*
X186832319Y-95368094D02*
X186832319Y-94987142D01*
X186832319Y-94987142D02*
X186879938Y-94891904D01*
X186879938Y-94891904D02*
X186927557Y-94844285D01*
X186927557Y-94844285D02*
X187022795Y-94796666D01*
X187022795Y-94796666D02*
X187165652Y-94796666D01*
X187165652Y-94796666D02*
X187260890Y-94844285D01*
X187260890Y-94844285D02*
X187308509Y-94891904D01*
X187308509Y-94891904D02*
X187356128Y-94987142D01*
X187356128Y-94987142D02*
X187356128Y-95368094D01*
X186832319Y-93891904D02*
X186832319Y-94368094D01*
X186832319Y-94368094D02*
X187308509Y-94415713D01*
X187308509Y-94415713D02*
X187260890Y-94368094D01*
X187260890Y-94368094D02*
X187213271Y-94272856D01*
X187213271Y-94272856D02*
X187213271Y-94034761D01*
X187213271Y-94034761D02*
X187260890Y-93939523D01*
X187260890Y-93939523D02*
X187308509Y-93891904D01*
X187308509Y-93891904D02*
X187403747Y-93844285D01*
X187403747Y-93844285D02*
X187641842Y-93844285D01*
X187641842Y-93844285D02*
X187737080Y-93891904D01*
X187737080Y-93891904D02*
X187784700Y-93939523D01*
X187784700Y-93939523D02*
X187832319Y-94034761D01*
X187832319Y-94034761D02*
X187832319Y-94272856D01*
X187832319Y-94272856D02*
X187784700Y-94368094D01*
X187784700Y-94368094D02*
X187737080Y-94415713D01*
X187832319Y-97588094D02*
X186832319Y-97588094D01*
X186832319Y-97588094D02*
X186832319Y-97349999D01*
X186832319Y-97349999D02*
X186879938Y-97207142D01*
X186879938Y-97207142D02*
X186975176Y-97111904D01*
X186975176Y-97111904D02*
X187070414Y-97064285D01*
X187070414Y-97064285D02*
X187260890Y-97016666D01*
X187260890Y-97016666D02*
X187403747Y-97016666D01*
X187403747Y-97016666D02*
X187594223Y-97064285D01*
X187594223Y-97064285D02*
X187689461Y-97111904D01*
X187689461Y-97111904D02*
X187784700Y-97207142D01*
X187784700Y-97207142D02*
X187832319Y-97349999D01*
X187832319Y-97349999D02*
X187832319Y-97588094D01*
X186927557Y-96635713D02*
X186879938Y-96588094D01*
X186879938Y-96588094D02*
X186832319Y-96492856D01*
X186832319Y-96492856D02*
X186832319Y-96254761D01*
X186832319Y-96254761D02*
X186879938Y-96159523D01*
X186879938Y-96159523D02*
X186927557Y-96111904D01*
X186927557Y-96111904D02*
X187022795Y-96064285D01*
X187022795Y-96064285D02*
X187118033Y-96064285D01*
X187118033Y-96064285D02*
X187260890Y-96111904D01*
X187260890Y-96111904D02*
X187832319Y-96683332D01*
X187832319Y-96683332D02*
X187832319Y-96064285D01*
X172154819Y-100361904D02*
X172964342Y-100361904D01*
X172964342Y-100361904D02*
X173059580Y-100314285D01*
X173059580Y-100314285D02*
X173107200Y-100266666D01*
X173107200Y-100266666D02*
X173154819Y-100171428D01*
X173154819Y-100171428D02*
X173154819Y-99980952D01*
X173154819Y-99980952D02*
X173107200Y-99885714D01*
X173107200Y-99885714D02*
X173059580Y-99838095D01*
X173059580Y-99838095D02*
X172964342Y-99790476D01*
X172964342Y-99790476D02*
X172154819Y-99790476D01*
X172154819Y-99409523D02*
X172154819Y-98790476D01*
X172154819Y-98790476D02*
X172535771Y-99123809D01*
X172535771Y-99123809D02*
X172535771Y-98980952D01*
X172535771Y-98980952D02*
X172583390Y-98885714D01*
X172583390Y-98885714D02*
X172631009Y-98838095D01*
X172631009Y-98838095D02*
X172726247Y-98790476D01*
X172726247Y-98790476D02*
X172964342Y-98790476D01*
X172964342Y-98790476D02*
X173059580Y-98838095D01*
X173059580Y-98838095D02*
X173107200Y-98885714D01*
X173107200Y-98885714D02*
X173154819Y-98980952D01*
X173154819Y-98980952D02*
X173154819Y-99266666D01*
X173154819Y-99266666D02*
X173107200Y-99361904D01*
X173107200Y-99361904D02*
X173059580Y-99409523D01*
X173254819Y-96166666D02*
X172778628Y-96499999D01*
X173254819Y-96738094D02*
X172254819Y-96738094D01*
X172254819Y-96738094D02*
X172254819Y-96357142D01*
X172254819Y-96357142D02*
X172302438Y-96261904D01*
X172302438Y-96261904D02*
X172350057Y-96214285D01*
X172350057Y-96214285D02*
X172445295Y-96166666D01*
X172445295Y-96166666D02*
X172588152Y-96166666D01*
X172588152Y-96166666D02*
X172683390Y-96214285D01*
X172683390Y-96214285D02*
X172731009Y-96261904D01*
X172731009Y-96261904D02*
X172778628Y-96357142D01*
X172778628Y-96357142D02*
X172778628Y-96738094D01*
X172254819Y-95833332D02*
X172254819Y-95166666D01*
X172254819Y-95166666D02*
X173254819Y-95595237D01*
X163950057Y-94095238D02*
X163902438Y-94190476D01*
X163902438Y-94190476D02*
X163807200Y-94285714D01*
X163807200Y-94285714D02*
X163664342Y-94428571D01*
X163664342Y-94428571D02*
X163616723Y-94523809D01*
X163616723Y-94523809D02*
X163616723Y-94619047D01*
X163854819Y-94571428D02*
X163807200Y-94666666D01*
X163807200Y-94666666D02*
X163711961Y-94761904D01*
X163711961Y-94761904D02*
X163521485Y-94809523D01*
X163521485Y-94809523D02*
X163188152Y-94809523D01*
X163188152Y-94809523D02*
X162997676Y-94761904D01*
X162997676Y-94761904D02*
X162902438Y-94666666D01*
X162902438Y-94666666D02*
X162854819Y-94571428D01*
X162854819Y-94571428D02*
X162854819Y-94380952D01*
X162854819Y-94380952D02*
X162902438Y-94285714D01*
X162902438Y-94285714D02*
X162997676Y-94190476D01*
X162997676Y-94190476D02*
X163188152Y-94142857D01*
X163188152Y-94142857D02*
X163521485Y-94142857D01*
X163521485Y-94142857D02*
X163711961Y-94190476D01*
X163711961Y-94190476D02*
X163807200Y-94285714D01*
X163807200Y-94285714D02*
X163854819Y-94380952D01*
X163854819Y-94380952D02*
X163854819Y-94571428D01*
X163854819Y-93190476D02*
X163854819Y-93761904D01*
X163854819Y-93476190D02*
X162854819Y-93476190D01*
X162854819Y-93476190D02*
X162997676Y-93571428D01*
X162997676Y-93571428D02*
X163092914Y-93666666D01*
X163092914Y-93666666D02*
X163140533Y-93761904D01*
X170404761Y-90650057D02*
X170309523Y-90602438D01*
X170309523Y-90602438D02*
X170214285Y-90507200D01*
X170214285Y-90507200D02*
X170071428Y-90364342D01*
X170071428Y-90364342D02*
X169976190Y-90316723D01*
X169976190Y-90316723D02*
X169880952Y-90316723D01*
X169928571Y-90554819D02*
X169833333Y-90507200D01*
X169833333Y-90507200D02*
X169738095Y-90411961D01*
X169738095Y-90411961D02*
X169690476Y-90221485D01*
X169690476Y-90221485D02*
X169690476Y-89888152D01*
X169690476Y-89888152D02*
X169738095Y-89697676D01*
X169738095Y-89697676D02*
X169833333Y-89602438D01*
X169833333Y-89602438D02*
X169928571Y-89554819D01*
X169928571Y-89554819D02*
X170119047Y-89554819D01*
X170119047Y-89554819D02*
X170214285Y-89602438D01*
X170214285Y-89602438D02*
X170309523Y-89697676D01*
X170309523Y-89697676D02*
X170357142Y-89888152D01*
X170357142Y-89888152D02*
X170357142Y-90221485D01*
X170357142Y-90221485D02*
X170309523Y-90411961D01*
X170309523Y-90411961D02*
X170214285Y-90507200D01*
X170214285Y-90507200D02*
X170119047Y-90554819D01*
X170119047Y-90554819D02*
X169928571Y-90554819D01*
X170738095Y-89650057D02*
X170785714Y-89602438D01*
X170785714Y-89602438D02*
X170880952Y-89554819D01*
X170880952Y-89554819D02*
X171119047Y-89554819D01*
X171119047Y-89554819D02*
X171214285Y-89602438D01*
X171214285Y-89602438D02*
X171261904Y-89650057D01*
X171261904Y-89650057D02*
X171309523Y-89745295D01*
X171309523Y-89745295D02*
X171309523Y-89840533D01*
X171309523Y-89840533D02*
X171261904Y-89983390D01*
X171261904Y-89983390D02*
X170690476Y-90554819D01*
X170690476Y-90554819D02*
X171309523Y-90554819D01*
X163574819Y-74933333D02*
X164289104Y-74933333D01*
X164289104Y-74933333D02*
X164431961Y-74980952D01*
X164431961Y-74980952D02*
X164527200Y-75076190D01*
X164527200Y-75076190D02*
X164574819Y-75219047D01*
X164574819Y-75219047D02*
X164574819Y-75314285D01*
X163908152Y-74028571D02*
X164574819Y-74028571D01*
X163527200Y-74266666D02*
X164241485Y-74504761D01*
X164241485Y-74504761D02*
X164241485Y-73885714D01*
X180009580Y-94191666D02*
X180057200Y-94239285D01*
X180057200Y-94239285D02*
X180104819Y-94382142D01*
X180104819Y-94382142D02*
X180104819Y-94477380D01*
X180104819Y-94477380D02*
X180057200Y-94620237D01*
X180057200Y-94620237D02*
X179961961Y-94715475D01*
X179961961Y-94715475D02*
X179866723Y-94763094D01*
X179866723Y-94763094D02*
X179676247Y-94810713D01*
X179676247Y-94810713D02*
X179533390Y-94810713D01*
X179533390Y-94810713D02*
X179342914Y-94763094D01*
X179342914Y-94763094D02*
X179247676Y-94715475D01*
X179247676Y-94715475D02*
X179152438Y-94620237D01*
X179152438Y-94620237D02*
X179104819Y-94477380D01*
X179104819Y-94477380D02*
X179104819Y-94382142D01*
X179104819Y-94382142D02*
X179152438Y-94239285D01*
X179152438Y-94239285D02*
X179200057Y-94191666D01*
X180104819Y-93715475D02*
X180104819Y-93524999D01*
X180104819Y-93524999D02*
X180057200Y-93429761D01*
X180057200Y-93429761D02*
X180009580Y-93382142D01*
X180009580Y-93382142D02*
X179866723Y-93286904D01*
X179866723Y-93286904D02*
X179676247Y-93239285D01*
X179676247Y-93239285D02*
X179295295Y-93239285D01*
X179295295Y-93239285D02*
X179200057Y-93286904D01*
X179200057Y-93286904D02*
X179152438Y-93334523D01*
X179152438Y-93334523D02*
X179104819Y-93429761D01*
X179104819Y-93429761D02*
X179104819Y-93620237D01*
X179104819Y-93620237D02*
X179152438Y-93715475D01*
X179152438Y-93715475D02*
X179200057Y-93763094D01*
X179200057Y-93763094D02*
X179295295Y-93810713D01*
X179295295Y-93810713D02*
X179533390Y-93810713D01*
X179533390Y-93810713D02*
X179628628Y-93763094D01*
X179628628Y-93763094D02*
X179676247Y-93715475D01*
X179676247Y-93715475D02*
X179723866Y-93620237D01*
X179723866Y-93620237D02*
X179723866Y-93429761D01*
X179723866Y-93429761D02*
X179676247Y-93334523D01*
X179676247Y-93334523D02*
X179628628Y-93286904D01*
X179628628Y-93286904D02*
X179533390Y-93239285D01*
X178529819Y-98742857D02*
X178053628Y-99076190D01*
X178529819Y-99314285D02*
X177529819Y-99314285D01*
X177529819Y-99314285D02*
X177529819Y-98933333D01*
X177529819Y-98933333D02*
X177577438Y-98838095D01*
X177577438Y-98838095D02*
X177625057Y-98790476D01*
X177625057Y-98790476D02*
X177720295Y-98742857D01*
X177720295Y-98742857D02*
X177863152Y-98742857D01*
X177863152Y-98742857D02*
X177958390Y-98790476D01*
X177958390Y-98790476D02*
X178006009Y-98838095D01*
X178006009Y-98838095D02*
X178053628Y-98933333D01*
X178053628Y-98933333D02*
X178053628Y-99314285D01*
X178529819Y-97790476D02*
X178529819Y-98361904D01*
X178529819Y-98076190D02*
X177529819Y-98076190D01*
X177529819Y-98076190D02*
X177672676Y-98171428D01*
X177672676Y-98171428D02*
X177767914Y-98266666D01*
X177767914Y-98266666D02*
X177815533Y-98361904D01*
X177529819Y-96933333D02*
X177529819Y-97123809D01*
X177529819Y-97123809D02*
X177577438Y-97219047D01*
X177577438Y-97219047D02*
X177625057Y-97266666D01*
X177625057Y-97266666D02*
X177767914Y-97361904D01*
X177767914Y-97361904D02*
X177958390Y-97409523D01*
X177958390Y-97409523D02*
X178339342Y-97409523D01*
X178339342Y-97409523D02*
X178434580Y-97361904D01*
X178434580Y-97361904D02*
X178482200Y-97314285D01*
X178482200Y-97314285D02*
X178529819Y-97219047D01*
X178529819Y-97219047D02*
X178529819Y-97028571D01*
X178529819Y-97028571D02*
X178482200Y-96933333D01*
X178482200Y-96933333D02*
X178434580Y-96885714D01*
X178434580Y-96885714D02*
X178339342Y-96838095D01*
X178339342Y-96838095D02*
X178101247Y-96838095D01*
X178101247Y-96838095D02*
X178006009Y-96885714D01*
X178006009Y-96885714D02*
X177958390Y-96933333D01*
X177958390Y-96933333D02*
X177910771Y-97028571D01*
X177910771Y-97028571D02*
X177910771Y-97219047D01*
X177910771Y-97219047D02*
X177958390Y-97314285D01*
X177958390Y-97314285D02*
X178006009Y-97361904D01*
X178006009Y-97361904D02*
X178101247Y-97409523D01*
X187832319Y-99553094D02*
X186832319Y-99553094D01*
X186832319Y-99553094D02*
X186832319Y-99314999D01*
X186832319Y-99314999D02*
X186879938Y-99172142D01*
X186879938Y-99172142D02*
X186975176Y-99076904D01*
X186975176Y-99076904D02*
X187070414Y-99029285D01*
X187070414Y-99029285D02*
X187260890Y-98981666D01*
X187260890Y-98981666D02*
X187403747Y-98981666D01*
X187403747Y-98981666D02*
X187594223Y-99029285D01*
X187594223Y-99029285D02*
X187689461Y-99076904D01*
X187689461Y-99076904D02*
X187784700Y-99172142D01*
X187784700Y-99172142D02*
X187832319Y-99314999D01*
X187832319Y-99314999D02*
X187832319Y-99553094D01*
X187832319Y-98029285D02*
X187832319Y-98600713D01*
X187832319Y-98314999D02*
X186832319Y-98314999D01*
X186832319Y-98314999D02*
X186975176Y-98410237D01*
X186975176Y-98410237D02*
X187070414Y-98505475D01*
X187070414Y-98505475D02*
X187118033Y-98600713D01*
X173883333Y-95354819D02*
X173550000Y-94878628D01*
X173311905Y-95354819D02*
X173311905Y-94354819D01*
X173311905Y-94354819D02*
X173692857Y-94354819D01*
X173692857Y-94354819D02*
X173788095Y-94402438D01*
X173788095Y-94402438D02*
X173835714Y-94450057D01*
X173835714Y-94450057D02*
X173883333Y-94545295D01*
X173883333Y-94545295D02*
X173883333Y-94688152D01*
X173883333Y-94688152D02*
X173835714Y-94783390D01*
X173835714Y-94783390D02*
X173788095Y-94831009D01*
X173788095Y-94831009D02*
X173692857Y-94878628D01*
X173692857Y-94878628D02*
X173311905Y-94878628D01*
X174740476Y-94354819D02*
X174550000Y-94354819D01*
X174550000Y-94354819D02*
X174454762Y-94402438D01*
X174454762Y-94402438D02*
X174407143Y-94450057D01*
X174407143Y-94450057D02*
X174311905Y-94592914D01*
X174311905Y-94592914D02*
X174264286Y-94783390D01*
X174264286Y-94783390D02*
X174264286Y-95164342D01*
X174264286Y-95164342D02*
X174311905Y-95259580D01*
X174311905Y-95259580D02*
X174359524Y-95307200D01*
X174359524Y-95307200D02*
X174454762Y-95354819D01*
X174454762Y-95354819D02*
X174645238Y-95354819D01*
X174645238Y-95354819D02*
X174740476Y-95307200D01*
X174740476Y-95307200D02*
X174788095Y-95259580D01*
X174788095Y-95259580D02*
X174835714Y-95164342D01*
X174835714Y-95164342D02*
X174835714Y-94926247D01*
X174835714Y-94926247D02*
X174788095Y-94831009D01*
X174788095Y-94831009D02*
X174740476Y-94783390D01*
X174740476Y-94783390D02*
X174645238Y-94735771D01*
X174645238Y-94735771D02*
X174454762Y-94735771D01*
X174454762Y-94735771D02*
X174359524Y-94783390D01*
X174359524Y-94783390D02*
X174311905Y-94831009D01*
X174311905Y-94831009D02*
X174264286Y-94926247D01*
X180029819Y-91466666D02*
X179553628Y-91799999D01*
X180029819Y-92038094D02*
X179029819Y-92038094D01*
X179029819Y-92038094D02*
X179029819Y-91657142D01*
X179029819Y-91657142D02*
X179077438Y-91561904D01*
X179077438Y-91561904D02*
X179125057Y-91514285D01*
X179125057Y-91514285D02*
X179220295Y-91466666D01*
X179220295Y-91466666D02*
X179363152Y-91466666D01*
X179363152Y-91466666D02*
X179458390Y-91514285D01*
X179458390Y-91514285D02*
X179506009Y-91561904D01*
X179506009Y-91561904D02*
X179553628Y-91657142D01*
X179553628Y-91657142D02*
X179553628Y-92038094D01*
X179458390Y-90895237D02*
X179410771Y-90990475D01*
X179410771Y-90990475D02*
X179363152Y-91038094D01*
X179363152Y-91038094D02*
X179267914Y-91085713D01*
X179267914Y-91085713D02*
X179220295Y-91085713D01*
X179220295Y-91085713D02*
X179125057Y-91038094D01*
X179125057Y-91038094D02*
X179077438Y-90990475D01*
X179077438Y-90990475D02*
X179029819Y-90895237D01*
X179029819Y-90895237D02*
X179029819Y-90704761D01*
X179029819Y-90704761D02*
X179077438Y-90609523D01*
X179077438Y-90609523D02*
X179125057Y-90561904D01*
X179125057Y-90561904D02*
X179220295Y-90514285D01*
X179220295Y-90514285D02*
X179267914Y-90514285D01*
X179267914Y-90514285D02*
X179363152Y-90561904D01*
X179363152Y-90561904D02*
X179410771Y-90609523D01*
X179410771Y-90609523D02*
X179458390Y-90704761D01*
X179458390Y-90704761D02*
X179458390Y-90895237D01*
X179458390Y-90895237D02*
X179506009Y-90990475D01*
X179506009Y-90990475D02*
X179553628Y-91038094D01*
X179553628Y-91038094D02*
X179648866Y-91085713D01*
X179648866Y-91085713D02*
X179839342Y-91085713D01*
X179839342Y-91085713D02*
X179934580Y-91038094D01*
X179934580Y-91038094D02*
X179982200Y-90990475D01*
X179982200Y-90990475D02*
X180029819Y-90895237D01*
X180029819Y-90895237D02*
X180029819Y-90704761D01*
X180029819Y-90704761D02*
X179982200Y-90609523D01*
X179982200Y-90609523D02*
X179934580Y-90561904D01*
X179934580Y-90561904D02*
X179839342Y-90514285D01*
X179839342Y-90514285D02*
X179648866Y-90514285D01*
X179648866Y-90514285D02*
X179553628Y-90561904D01*
X179553628Y-90561904D02*
X179506009Y-90609523D01*
X179506009Y-90609523D02*
X179458390Y-90704761D01*
X165482142Y-104679819D02*
X165148809Y-104203628D01*
X164910714Y-104679819D02*
X164910714Y-103679819D01*
X164910714Y-103679819D02*
X165291666Y-103679819D01*
X165291666Y-103679819D02*
X165386904Y-103727438D01*
X165386904Y-103727438D02*
X165434523Y-103775057D01*
X165434523Y-103775057D02*
X165482142Y-103870295D01*
X165482142Y-103870295D02*
X165482142Y-104013152D01*
X165482142Y-104013152D02*
X165434523Y-104108390D01*
X165434523Y-104108390D02*
X165386904Y-104156009D01*
X165386904Y-104156009D02*
X165291666Y-104203628D01*
X165291666Y-104203628D02*
X164910714Y-104203628D01*
X166434523Y-104679819D02*
X165863095Y-104679819D01*
X166148809Y-104679819D02*
X166148809Y-103679819D01*
X166148809Y-103679819D02*
X166053571Y-103822676D01*
X166053571Y-103822676D02*
X165958333Y-103917914D01*
X165958333Y-103917914D02*
X165863095Y-103965533D01*
X167339285Y-103679819D02*
X166863095Y-103679819D01*
X166863095Y-103679819D02*
X166815476Y-104156009D01*
X166815476Y-104156009D02*
X166863095Y-104108390D01*
X166863095Y-104108390D02*
X166958333Y-104060771D01*
X166958333Y-104060771D02*
X167196428Y-104060771D01*
X167196428Y-104060771D02*
X167291666Y-104108390D01*
X167291666Y-104108390D02*
X167339285Y-104156009D01*
X167339285Y-104156009D02*
X167386904Y-104251247D01*
X167386904Y-104251247D02*
X167386904Y-104489342D01*
X167386904Y-104489342D02*
X167339285Y-104584580D01*
X167339285Y-104584580D02*
X167291666Y-104632200D01*
X167291666Y-104632200D02*
X167196428Y-104679819D01*
X167196428Y-104679819D02*
X166958333Y-104679819D01*
X166958333Y-104679819D02*
X166863095Y-104632200D01*
X166863095Y-104632200D02*
X166815476Y-104584580D01*
D11*
X142516666Y-53302419D02*
X142516666Y-54016704D01*
X142516666Y-54016704D02*
X142469047Y-54159561D01*
X142469047Y-54159561D02*
X142373809Y-54254800D01*
X142373809Y-54254800D02*
X142230952Y-54302419D01*
X142230952Y-54302419D02*
X142135714Y-54302419D01*
X142945238Y-53397657D02*
X142992857Y-53350038D01*
X142992857Y-53350038D02*
X143088095Y-53302419D01*
X143088095Y-53302419D02*
X143326190Y-53302419D01*
X143326190Y-53302419D02*
X143421428Y-53350038D01*
X143421428Y-53350038D02*
X143469047Y-53397657D01*
X143469047Y-53397657D02*
X143516666Y-53492895D01*
X143516666Y-53492895D02*
X143516666Y-53588133D01*
X143516666Y-53588133D02*
X143469047Y-53730990D01*
X143469047Y-53730990D02*
X142897619Y-54302419D01*
X142897619Y-54302419D02*
X143516666Y-54302419D01*
X191317580Y-81678884D02*
X192317580Y-81678884D01*
X192317580Y-81678884D02*
X191317580Y-82250312D01*
X191317580Y-82250312D02*
X192317580Y-82250312D01*
X191317580Y-83297931D02*
X191793771Y-82964598D01*
X191317580Y-82726503D02*
X192317580Y-82726503D01*
X192317580Y-82726503D02*
X192317580Y-83107455D01*
X192317580Y-83107455D02*
X192269961Y-83202693D01*
X192269961Y-83202693D02*
X192222342Y-83250312D01*
X192222342Y-83250312D02*
X192127104Y-83297931D01*
X192127104Y-83297931D02*
X191984247Y-83297931D01*
X191984247Y-83297931D02*
X191889009Y-83250312D01*
X191889009Y-83250312D02*
X191841390Y-83202693D01*
X191841390Y-83202693D02*
X191793771Y-83107455D01*
X191793771Y-83107455D02*
X191793771Y-82726503D01*
X191841390Y-84059836D02*
X191841390Y-83726503D01*
X191317580Y-83726503D02*
X192317580Y-83726503D01*
X192317580Y-83726503D02*
X192317580Y-84202693D01*
X192222342Y-84536027D02*
X192269961Y-84583646D01*
X192269961Y-84583646D02*
X192317580Y-84678884D01*
X192317580Y-84678884D02*
X192317580Y-84916979D01*
X192317580Y-84916979D02*
X192269961Y-85012217D01*
X192269961Y-85012217D02*
X192222342Y-85059836D01*
X192222342Y-85059836D02*
X192127104Y-85107455D01*
X192127104Y-85107455D02*
X192031866Y-85107455D01*
X192031866Y-85107455D02*
X191889009Y-85059836D01*
X191889009Y-85059836D02*
X191317580Y-84488408D01*
X191317580Y-84488408D02*
X191317580Y-85107455D01*
X191984247Y-85964598D02*
X191317580Y-85964598D01*
X192365200Y-85726503D02*
X191650914Y-85488408D01*
X191650914Y-85488408D02*
X191650914Y-86107455D01*
X191317580Y-86964598D02*
X191317580Y-86488408D01*
X191317580Y-86488408D02*
X192317580Y-86488408D01*
X192317580Y-87488408D02*
X192317580Y-87583646D01*
X192317580Y-87583646D02*
X192269961Y-87678884D01*
X192269961Y-87678884D02*
X192222342Y-87726503D01*
X192222342Y-87726503D02*
X192127104Y-87774122D01*
X192127104Y-87774122D02*
X191936628Y-87821741D01*
X191936628Y-87821741D02*
X191698533Y-87821741D01*
X191698533Y-87821741D02*
X191508057Y-87774122D01*
X191508057Y-87774122D02*
X191412819Y-87726503D01*
X191412819Y-87726503D02*
X191365200Y-87678884D01*
X191365200Y-87678884D02*
X191317580Y-87583646D01*
X191317580Y-87583646D02*
X191317580Y-87488408D01*
X191317580Y-87488408D02*
X191365200Y-87393170D01*
X191365200Y-87393170D02*
X191412819Y-87345551D01*
X191412819Y-87345551D02*
X191508057Y-87297932D01*
X191508057Y-87297932D02*
X191698533Y-87250313D01*
X191698533Y-87250313D02*
X191936628Y-87250313D01*
X191936628Y-87250313D02*
X192127104Y-87297932D01*
X192127104Y-87297932D02*
X192222342Y-87345551D01*
X192222342Y-87345551D02*
X192269961Y-87393170D01*
X192269961Y-87393170D02*
X192317580Y-87488408D01*
X191317580Y-88774122D02*
X191317580Y-88202694D01*
X191317580Y-88488408D02*
X192317580Y-88488408D01*
X192317580Y-88488408D02*
X192174723Y-88393170D01*
X192174723Y-88393170D02*
X192079485Y-88297932D01*
X192079485Y-88297932D02*
X192031866Y-88202694D01*
X191698533Y-89202694D02*
X191698533Y-89964599D01*
X191317580Y-89583646D02*
X192079485Y-89583646D01*
D10*
X174654761Y-104850057D02*
X174559523Y-104802438D01*
X174559523Y-104802438D02*
X174464285Y-104707200D01*
X174464285Y-104707200D02*
X174321428Y-104564342D01*
X174321428Y-104564342D02*
X174226190Y-104516723D01*
X174226190Y-104516723D02*
X174130952Y-104516723D01*
X174178571Y-104754819D02*
X174083333Y-104707200D01*
X174083333Y-104707200D02*
X173988095Y-104611961D01*
X173988095Y-104611961D02*
X173940476Y-104421485D01*
X173940476Y-104421485D02*
X173940476Y-104088152D01*
X173940476Y-104088152D02*
X173988095Y-103897676D01*
X173988095Y-103897676D02*
X174083333Y-103802438D01*
X174083333Y-103802438D02*
X174178571Y-103754819D01*
X174178571Y-103754819D02*
X174369047Y-103754819D01*
X174369047Y-103754819D02*
X174464285Y-103802438D01*
X174464285Y-103802438D02*
X174559523Y-103897676D01*
X174559523Y-103897676D02*
X174607142Y-104088152D01*
X174607142Y-104088152D02*
X174607142Y-104421485D01*
X174607142Y-104421485D02*
X174559523Y-104611961D01*
X174559523Y-104611961D02*
X174464285Y-104707200D01*
X174464285Y-104707200D02*
X174369047Y-104754819D01*
X174369047Y-104754819D02*
X174178571Y-104754819D01*
X174940476Y-103754819D02*
X175559523Y-103754819D01*
X175559523Y-103754819D02*
X175226190Y-104135771D01*
X175226190Y-104135771D02*
X175369047Y-104135771D01*
X175369047Y-104135771D02*
X175464285Y-104183390D01*
X175464285Y-104183390D02*
X175511904Y-104231009D01*
X175511904Y-104231009D02*
X175559523Y-104326247D01*
X175559523Y-104326247D02*
X175559523Y-104564342D01*
X175559523Y-104564342D02*
X175511904Y-104659580D01*
X175511904Y-104659580D02*
X175464285Y-104707200D01*
X175464285Y-104707200D02*
X175369047Y-104754819D01*
X175369047Y-104754819D02*
X175083333Y-104754819D01*
X175083333Y-104754819D02*
X174988095Y-104707200D01*
X174988095Y-104707200D02*
X174940476Y-104659580D01*
X187832319Y-101311666D02*
X187356128Y-101644999D01*
X187832319Y-101883094D02*
X186832319Y-101883094D01*
X186832319Y-101883094D02*
X186832319Y-101502142D01*
X186832319Y-101502142D02*
X186879938Y-101406904D01*
X186879938Y-101406904D02*
X186927557Y-101359285D01*
X186927557Y-101359285D02*
X187022795Y-101311666D01*
X187022795Y-101311666D02*
X187165652Y-101311666D01*
X187165652Y-101311666D02*
X187260890Y-101359285D01*
X187260890Y-101359285D02*
X187308509Y-101406904D01*
X187308509Y-101406904D02*
X187356128Y-101502142D01*
X187356128Y-101502142D02*
X187356128Y-101883094D01*
X187165652Y-100454523D02*
X187832319Y-100454523D01*
X186784700Y-100692618D02*
X187498985Y-100930713D01*
X187498985Y-100930713D02*
X187498985Y-100311666D01*
X163954819Y-81566666D02*
X163478628Y-81899999D01*
X163954819Y-82138094D02*
X162954819Y-82138094D01*
X162954819Y-82138094D02*
X162954819Y-81757142D01*
X162954819Y-81757142D02*
X163002438Y-81661904D01*
X163002438Y-81661904D02*
X163050057Y-81614285D01*
X163050057Y-81614285D02*
X163145295Y-81566666D01*
X163145295Y-81566666D02*
X163288152Y-81566666D01*
X163288152Y-81566666D02*
X163383390Y-81614285D01*
X163383390Y-81614285D02*
X163431009Y-81661904D01*
X163431009Y-81661904D02*
X163478628Y-81757142D01*
X163478628Y-81757142D02*
X163478628Y-82138094D01*
X163050057Y-81185713D02*
X163002438Y-81138094D01*
X163002438Y-81138094D02*
X162954819Y-81042856D01*
X162954819Y-81042856D02*
X162954819Y-80804761D01*
X162954819Y-80804761D02*
X163002438Y-80709523D01*
X163002438Y-80709523D02*
X163050057Y-80661904D01*
X163050057Y-80661904D02*
X163145295Y-80614285D01*
X163145295Y-80614285D02*
X163240533Y-80614285D01*
X163240533Y-80614285D02*
X163383390Y-80661904D01*
X163383390Y-80661904D02*
X163954819Y-81233332D01*
X163954819Y-81233332D02*
X163954819Y-80614285D01*
X169129819Y-89366666D02*
X168653628Y-89699999D01*
X169129819Y-89938094D02*
X168129819Y-89938094D01*
X168129819Y-89938094D02*
X168129819Y-89557142D01*
X168129819Y-89557142D02*
X168177438Y-89461904D01*
X168177438Y-89461904D02*
X168225057Y-89414285D01*
X168225057Y-89414285D02*
X168320295Y-89366666D01*
X168320295Y-89366666D02*
X168463152Y-89366666D01*
X168463152Y-89366666D02*
X168558390Y-89414285D01*
X168558390Y-89414285D02*
X168606009Y-89461904D01*
X168606009Y-89461904D02*
X168653628Y-89557142D01*
X168653628Y-89557142D02*
X168653628Y-89938094D01*
X168129819Y-89033332D02*
X168129819Y-88414285D01*
X168129819Y-88414285D02*
X168510771Y-88747618D01*
X168510771Y-88747618D02*
X168510771Y-88604761D01*
X168510771Y-88604761D02*
X168558390Y-88509523D01*
X168558390Y-88509523D02*
X168606009Y-88461904D01*
X168606009Y-88461904D02*
X168701247Y-88414285D01*
X168701247Y-88414285D02*
X168939342Y-88414285D01*
X168939342Y-88414285D02*
X169034580Y-88461904D01*
X169034580Y-88461904D02*
X169082200Y-88509523D01*
X169082200Y-88509523D02*
X169129819Y-88604761D01*
X169129819Y-88604761D02*
X169129819Y-88890475D01*
X169129819Y-88890475D02*
X169082200Y-88985713D01*
X169082200Y-88985713D02*
X169034580Y-89033332D01*
X169782142Y-104659580D02*
X169734523Y-104707200D01*
X169734523Y-104707200D02*
X169591666Y-104754819D01*
X169591666Y-104754819D02*
X169496428Y-104754819D01*
X169496428Y-104754819D02*
X169353571Y-104707200D01*
X169353571Y-104707200D02*
X169258333Y-104611961D01*
X169258333Y-104611961D02*
X169210714Y-104516723D01*
X169210714Y-104516723D02*
X169163095Y-104326247D01*
X169163095Y-104326247D02*
X169163095Y-104183390D01*
X169163095Y-104183390D02*
X169210714Y-103992914D01*
X169210714Y-103992914D02*
X169258333Y-103897676D01*
X169258333Y-103897676D02*
X169353571Y-103802438D01*
X169353571Y-103802438D02*
X169496428Y-103754819D01*
X169496428Y-103754819D02*
X169591666Y-103754819D01*
X169591666Y-103754819D02*
X169734523Y-103802438D01*
X169734523Y-103802438D02*
X169782142Y-103850057D01*
X170734523Y-104754819D02*
X170163095Y-104754819D01*
X170448809Y-104754819D02*
X170448809Y-103754819D01*
X170448809Y-103754819D02*
X170353571Y-103897676D01*
X170353571Y-103897676D02*
X170258333Y-103992914D01*
X170258333Y-103992914D02*
X170163095Y-104040533D01*
X171115476Y-103850057D02*
X171163095Y-103802438D01*
X171163095Y-103802438D02*
X171258333Y-103754819D01*
X171258333Y-103754819D02*
X171496428Y-103754819D01*
X171496428Y-103754819D02*
X171591666Y-103802438D01*
X171591666Y-103802438D02*
X171639285Y-103850057D01*
X171639285Y-103850057D02*
X171686904Y-103945295D01*
X171686904Y-103945295D02*
X171686904Y-104040533D01*
X171686904Y-104040533D02*
X171639285Y-104183390D01*
X171639285Y-104183390D02*
X171067857Y-104754819D01*
X171067857Y-104754819D02*
X171686904Y-104754819D01*
X163722142Y-85854819D02*
X163388809Y-85378628D01*
X163150714Y-85854819D02*
X163150714Y-84854819D01*
X163150714Y-84854819D02*
X163531666Y-84854819D01*
X163531666Y-84854819D02*
X163626904Y-84902438D01*
X163626904Y-84902438D02*
X163674523Y-84950057D01*
X163674523Y-84950057D02*
X163722142Y-85045295D01*
X163722142Y-85045295D02*
X163722142Y-85188152D01*
X163722142Y-85188152D02*
X163674523Y-85283390D01*
X163674523Y-85283390D02*
X163626904Y-85331009D01*
X163626904Y-85331009D02*
X163531666Y-85378628D01*
X163531666Y-85378628D02*
X163150714Y-85378628D01*
X164674523Y-85854819D02*
X164103095Y-85854819D01*
X164388809Y-85854819D02*
X164388809Y-84854819D01*
X164388809Y-84854819D02*
X164293571Y-84997676D01*
X164293571Y-84997676D02*
X164198333Y-85092914D01*
X164198333Y-85092914D02*
X164103095Y-85140533D01*
X165626904Y-85854819D02*
X165055476Y-85854819D01*
X165341190Y-85854819D02*
X165341190Y-84854819D01*
X165341190Y-84854819D02*
X165245952Y-84997676D01*
X165245952Y-84997676D02*
X165150714Y-85092914D01*
X165150714Y-85092914D02*
X165055476Y-85140533D01*
D12*
%TO.C,R5*%
X184952064Y-93665000D02*
X184497936Y-93665000D01*
X184952064Y-95135000D02*
X184497936Y-95135000D01*
%TO.C,J5*%
D11*
X154315000Y-94205000D02*
X162570000Y-94205000D01*
X162570000Y-104365000D01*
X154315000Y-104365000D01*
X154315000Y-94205000D01*
D12*
%TO.C,D2*%
X183080000Y-95625000D02*
X183080000Y-97545000D01*
X183080000Y-97545000D02*
X185765000Y-97545000D01*
X185765000Y-95625000D02*
X183080000Y-95625000D01*
%TO.C,U3*%
X168715000Y-99162500D02*
X168715000Y-98362500D01*
X168715000Y-99162500D02*
X168715000Y-99962500D01*
X171835000Y-99162500D02*
X171835000Y-98362500D01*
X171835000Y-99162500D02*
X171835000Y-99962500D01*
X172115000Y-98102500D02*
X171785000Y-97862500D01*
X172115000Y-97622500D01*
X172115000Y-98102500D01*
G36*
X172115000Y-98102500D02*
G01*
X171785000Y-97862500D01*
X172115000Y-97622500D01*
X172115000Y-98102500D01*
G37*
%TO.C,R7*%
X170489564Y-95090000D02*
X170035436Y-95090000D01*
X170489564Y-96560000D02*
X170035436Y-96560000D01*
%TO.C,Q1*%
X164165000Y-92762500D02*
X164165000Y-92112500D01*
X164165000Y-92762500D02*
X164165000Y-93412500D01*
X167285000Y-92762500D02*
X167285000Y-92112500D01*
X167285000Y-92762500D02*
X167285000Y-93412500D01*
X167565000Y-91840000D02*
X167235000Y-91600000D01*
X167565000Y-91360000D01*
X167565000Y-91840000D01*
G36*
X167565000Y-91840000D02*
G01*
X167235000Y-91600000D01*
X167565000Y-91360000D01*
X167565000Y-91840000D01*
G37*
%TO.C,Q2*%
X170512500Y-90965000D02*
X169862500Y-90965000D01*
X170512500Y-90965000D02*
X171162500Y-90965000D01*
X170512500Y-94085000D02*
X169862500Y-94085000D01*
X170512500Y-94085000D02*
X171162500Y-94085000D01*
X171915000Y-94365000D02*
X171435000Y-94365000D01*
X171675000Y-94035000D01*
X171915000Y-94365000D01*
G36*
X171915000Y-94365000D02*
G01*
X171435000Y-94365000D01*
X171675000Y-94035000D01*
X171915000Y-94365000D01*
G37*
%TO.C,J4*%
X165120000Y-75980000D02*
X165120000Y-74600000D01*
X166500000Y-75980000D02*
X165120000Y-75980000D01*
X167770000Y-73220000D02*
X185660000Y-73220000D01*
X167770000Y-75980000D02*
X167770000Y-73220000D01*
X167770000Y-75980000D02*
X185660000Y-75980000D01*
X185660000Y-75980000D02*
X185660000Y-73220000D01*
%TO.C,C9*%
X177336252Y-93290000D02*
X176813748Y-93290000D01*
X177336252Y-94760000D02*
X176813748Y-94760000D01*
%TO.C,R16*%
X174972936Y-97665000D02*
X175427064Y-97665000D01*
X174972936Y-99135000D02*
X175427064Y-99135000D01*
%TO.C,D1*%
X183080000Y-97855000D02*
X183080000Y-99775000D01*
X183080000Y-99775000D02*
X185765000Y-99775000D01*
X185765000Y-97855000D02*
X183080000Y-97855000D01*
%TO.C,J1*%
D11*
X154325000Y-85820000D02*
X162625000Y-85820000D01*
X162625000Y-93440000D01*
X154325000Y-93440000D01*
X154325000Y-85820000D01*
D12*
%TO.C,R6*%
X173265000Y-92272936D02*
X173265000Y-92727064D01*
X174735000Y-92272936D02*
X174735000Y-92727064D01*
%TO.C,R8*%
X177289564Y-91015000D02*
X176835436Y-91015000D01*
X177289564Y-92485000D02*
X176835436Y-92485000D01*
%TO.C,R15*%
X164065000Y-101652064D02*
X164065000Y-97297936D01*
X167485000Y-101652064D02*
X167485000Y-97297936D01*
%TO.C,J2*%
D11*
X154365000Y-72385000D02*
X162620000Y-72385000D01*
X162620000Y-85085000D01*
X154365000Y-85085000D01*
X154365000Y-72385000D01*
D12*
%TO.C,Q3*%
X173490000Y-101637500D02*
X173490000Y-100987500D01*
X173490000Y-101637500D02*
X173490000Y-102287500D01*
X176610000Y-101637500D02*
X176610000Y-100987500D01*
X176610000Y-101637500D02*
X176610000Y-102287500D01*
X176890000Y-100715000D02*
X176560000Y-100475000D01*
X176890000Y-100235000D01*
X176890000Y-100715000D01*
G36*
X176890000Y-100715000D02*
G01*
X176560000Y-100475000D01*
X176890000Y-100235000D01*
X176890000Y-100715000D01*
G37*
%TO.C,R4*%
X184952064Y-100265000D02*
X184497936Y-100265000D01*
X184952064Y-101735000D02*
X184497936Y-101735000D01*
%TO.C,R2*%
X164365000Y-81714564D02*
X164365000Y-81260436D01*
X165835000Y-81714564D02*
X165835000Y-81260436D01*
%TO.C,R3*%
X166052064Y-88465000D02*
X165597936Y-88465000D01*
X166052064Y-89935000D02*
X165597936Y-89935000D01*
%TO.C,U1*%
X169777500Y-80665000D02*
X170227500Y-80665000D01*
X169777500Y-81115000D02*
X169777500Y-80665000D01*
X169777500Y-87435000D02*
X169777500Y-87885000D01*
X169777500Y-87885000D02*
X170227500Y-87885000D01*
X176997500Y-80665000D02*
X176547500Y-80665000D01*
X176997500Y-81115000D02*
X176997500Y-80665000D01*
X176997500Y-87435000D02*
X176997500Y-87885000D01*
X176997500Y-87885000D02*
X176547500Y-87885000D01*
X170227500Y-88475000D02*
X169757500Y-88815000D01*
X169757500Y-88135000D01*
X170227500Y-88475000D01*
G36*
X170227500Y-88475000D02*
G01*
X169757500Y-88815000D01*
X169757500Y-88135000D01*
X170227500Y-88475000D01*
G37*
%TO.C,C12*%
X170013748Y-101840000D02*
X170536252Y-101840000D01*
X170013748Y-103310000D02*
X170536252Y-103310000D01*
%TO.C,R11*%
X164572936Y-86465000D02*
X165027064Y-86465000D01*
X164572936Y-87935000D02*
X165027064Y-87935000D01*
%TD*%
M02*
