%TF.GenerationSoftware,KiCad,Pcbnew,9.0.1*%
%TF.CreationDate,2025-07-19T18:14:50+02:00*%
%TF.ProjectId,ventilation,76656e74-696c-4617-9469-6f6e2e6b6963,rev?*%
%TF.SameCoordinates,Original*%
%TF.FileFunction,Copper,L2,Bot*%
%TF.FilePolarity,Positive*%
%FSLAX46Y46*%
G04 Gerber Fmt 4.6, Leading zero omitted, Abs format (unit mm)*
G04 Created by KiCad (PCBNEW 9.0.1) date 2025-07-19 18:14:50*
%MOMM*%
%LPD*%
G01*
G04 APERTURE LIST*
G04 Aperture macros list*
%AMRoundRect*
0 Rectangle with rounded corners*
0 $1 Rounding radius*
0 $2 $3 $4 $5 $6 $7 $8 $9 X,Y pos of 4 corners*
0 Add a 4 corners polygon primitive as box body*
4,1,4,$2,$3,$4,$5,$6,$7,$8,$9,$2,$3,0*
0 Add four circle primitives for the rounded corners*
1,1,$1+$1,$2,$3*
1,1,$1+$1,$4,$5*
1,1,$1+$1,$6,$7*
1,1,$1+$1,$8,$9*
0 Add four rect primitives between the rounded corners*
20,1,$1+$1,$2,$3,$4,$5,0*
20,1,$1+$1,$4,$5,$6,$7,0*
20,1,$1+$1,$6,$7,$8,$9,0*
20,1,$1+$1,$8,$9,$2,$3,0*%
G04 Aperture macros list end*
%TA.AperFunction,ComponentPad*%
%ADD10RoundRect,0.200000X-0.450000X0.200000X-0.450000X-0.200000X0.450000X-0.200000X0.450000X0.200000X0*%
%TD*%
%TA.AperFunction,ComponentPad*%
%ADD11O,1.300000X0.800000*%
%TD*%
%TA.AperFunction,ComponentPad*%
%ADD12RoundRect,0.285750X-0.666750X-0.666750X0.666750X-0.666750X0.666750X0.666750X-0.666750X0.666750X0*%
%TD*%
%TA.AperFunction,ComponentPad*%
%ADD13C,1.905000*%
%TD*%
%TA.AperFunction,ComponentPad*%
%ADD14RoundRect,0.200000X-0.200000X-0.450000X0.200000X-0.450000X0.200000X0.450000X-0.200000X0.450000X0*%
%TD*%
%TA.AperFunction,ComponentPad*%
%ADD15O,0.800000X1.300000*%
%TD*%
%TA.AperFunction,ComponentPad*%
%ADD16RoundRect,0.200000X0.200000X0.450000X-0.200000X0.450000X-0.200000X-0.450000X0.200000X-0.450000X0*%
%TD*%
%TA.AperFunction,SMDPad,CuDef*%
%ADD17RoundRect,0.250000X0.337500X0.475000X-0.337500X0.475000X-0.337500X-0.475000X0.337500X-0.475000X0*%
%TD*%
%TA.AperFunction,SMDPad,CuDef*%
%ADD18RoundRect,0.250000X-0.450000X0.350000X-0.450000X-0.350000X0.450000X-0.350000X0.450000X0.350000X0*%
%TD*%
%TA.AperFunction,SMDPad,CuDef*%
%ADD19RoundRect,0.162500X-0.837500X-0.162500X0.837500X-0.162500X0.837500X0.162500X-0.837500X0.162500X0*%
%TD*%
%TA.AperFunction,SMDPad,CuDef*%
%ADD20RoundRect,0.162500X0.162500X-0.837500X0.162500X0.837500X-0.162500X0.837500X-0.162500X-0.837500X0*%
%TD*%
%TA.AperFunction,SMDPad,CuDef*%
%ADD21RoundRect,0.250000X-0.475000X0.337500X-0.475000X-0.337500X0.475000X-0.337500X0.475000X0.337500X0*%
%TD*%
%TA.AperFunction,SMDPad,CuDef*%
%ADD22RoundRect,0.250000X0.350000X0.450000X-0.350000X0.450000X-0.350000X-0.450000X0.350000X-0.450000X0*%
%TD*%
%TA.AperFunction,SMDPad,CuDef*%
%ADD23RoundRect,0.250000X0.475000X-0.337500X0.475000X0.337500X-0.475000X0.337500X-0.475000X-0.337500X0*%
%TD*%
%TA.AperFunction,SMDPad,CuDef*%
%ADD24RoundRect,0.162500X-0.162500X0.837500X-0.162500X-0.837500X0.162500X-0.837500X0.162500X0.837500X0*%
%TD*%
%TA.AperFunction,SMDPad,CuDef*%
%ADD25RoundRect,0.250000X-0.350000X-0.450000X0.350000X-0.450000X0.350000X0.450000X-0.350000X0.450000X0*%
%TD*%
%TA.AperFunction,ViaPad*%
%ADD26C,0.800000*%
%TD*%
%TA.AperFunction,ViaPad*%
%ADD27C,0.600000*%
%TD*%
%TA.AperFunction,Conductor*%
%ADD28C,0.400000*%
%TD*%
%TA.AperFunction,Conductor*%
%ADD29C,0.200000*%
%TD*%
%TA.AperFunction,Conductor*%
%ADD30C,0.800000*%
%TD*%
G04 APERTURE END LIST*
D10*
%TO.P,J2,1,Pin_1*%
%TO.N,GND*%
X162900000Y-76730000D03*
D11*
%TO.P,J2,2,Pin_2*%
%TO.N,+3V3*%
X162900000Y-77980000D03*
%TO.P,J2,3,Pin_3*%
%TO.N,/I2C_SCL*%
X162900000Y-79230000D03*
%TO.P,J2,4,Pin_4*%
%TO.N,/I2C_SDA*%
X162900000Y-80480000D03*
%TD*%
D12*
%TO.P,J1,1,Pin_1*%
%TO.N,GND*%
X164940000Y-93580000D03*
D13*
%TO.P,J1,2,Pin_2*%
%TO.N,/SIG_SERVO*%
X164940000Y-96120000D03*
%TO.P,J1,3,Pin_3*%
%TO.N,/VCC_SERVO*%
X164940000Y-98660000D03*
%TD*%
%TO.P,J5,1,Pin_1*%
%TO.N,GND*%
X164970000Y-85460000D03*
D12*
%TO.P,J5,2,Pin_2*%
%TO.N,+BATT*%
X164970000Y-88000000D03*
%TD*%
D14*
%TO.P,J7,1,Pin_1*%
%TO.N,/BOOT*%
X169950000Y-77500000D03*
D15*
%TO.P,J7,2,Pin_2*%
%TO.N,/RESET*%
X171200000Y-77500000D03*
%TD*%
D14*
%TO.P,J3,1,Pin_1*%
%TO.N,/SWCLK*%
X175600000Y-77500000D03*
D15*
%TO.P,J3,2,Pin_2*%
%TO.N,/SWDIO*%
X176850000Y-77500000D03*
%TO.P,J3,3,Pin_3*%
%TO.N,/USART1_RX*%
X178100000Y-77500000D03*
%TO.P,J3,4,Pin_4*%
%TO.N,/USART1_TX*%
X179350000Y-77500000D03*
%TD*%
D16*
%TO.P,J4,1,Pin_1*%
%TO.N,/PA4*%
X185675000Y-98245000D03*
D15*
%TO.P,J4,2,Pin_2*%
%TO.N,/PA3*%
X184425000Y-98245000D03*
%TO.P,J4,3,Pin_3*%
%TO.N,+3V3*%
X183175000Y-98245000D03*
%TO.P,J4,4,Pin_4*%
%TO.N,GND*%
X181925000Y-98245000D03*
%TD*%
D17*
%TO.P,C11,1*%
%TO.N,+3V3*%
X171537500Y-83200000D03*
%TO.P,C11,2*%
%TO.N,GND*%
X169462500Y-83200000D03*
%TD*%
D18*
%TO.P,R9,1*%
%TO.N,+3V3*%
X165970000Y-77120000D03*
%TO.P,R9,2*%
%TO.N,/I2C_SCL*%
X165970000Y-79120000D03*
%TD*%
D19*
%TO.P,Q1,1,G*%
%TO.N,/G_FET*%
X167690000Y-99750000D03*
%TO.P,Q1,2,S*%
%TO.N,+BATT*%
X167690000Y-97850000D03*
%TO.P,Q1,3,D*%
%TO.N,/VCC_SERVO*%
X171110000Y-98800000D03*
%TD*%
D20*
%TO.P,Q2,1,B*%
%TO.N,/B_NPN*%
X175850000Y-98710000D03*
%TO.P,Q2,2,E*%
%TO.N,GND*%
X173950000Y-98710000D03*
%TO.P,Q2,3,C*%
%TO.N,/G_FET*%
X174900000Y-95290000D03*
%TD*%
D21*
%TO.P,C7,1*%
%TO.N,+3V3*%
X186600000Y-83862500D03*
%TO.P,C7,2*%
%TO.N,GND*%
X186600000Y-85937500D03*
%TD*%
D22*
%TO.P,R6,1*%
%TO.N,/SW_SERVO*%
X179800000Y-98200000D03*
%TO.P,R6,2*%
%TO.N,/B_NPN*%
X177800000Y-98200000D03*
%TD*%
D21*
%TO.P,C2,1*%
%TO.N,+3V3*%
X174400000Y-83862500D03*
%TO.P,C2,2*%
%TO.N,GND*%
X174400000Y-85937500D03*
%TD*%
%TO.P,C8,1*%
%TO.N,+3V3*%
X184000000Y-83862500D03*
%TO.P,C8,2*%
%TO.N,GND*%
X184000000Y-85937500D03*
%TD*%
D23*
%TO.P,C4,1*%
%TO.N,+3V3*%
X176100000Y-92200000D03*
%TO.P,C4,2*%
%TO.N,GND*%
X176100000Y-90125000D03*
%TD*%
%TO.P,C10,1*%
%TO.N,+BATT*%
X167700000Y-88377500D03*
%TO.P,C10,2*%
%TO.N,GND*%
X167700000Y-86302500D03*
%TD*%
%TO.P,C3,1*%
%TO.N,+3V3*%
X173700000Y-92200000D03*
%TO.P,C3,2*%
%TO.N,GND*%
X173700000Y-90125000D03*
%TD*%
%TO.P,C1,1*%
%TO.N,+3V3*%
X178500000Y-92200000D03*
%TO.P,C1,2*%
%TO.N,GND*%
X178500000Y-90125000D03*
%TD*%
D21*
%TO.P,C5,1*%
%TO.N,+3V3*%
X181400000Y-83862500D03*
%TO.P,C5,2*%
%TO.N,GND*%
X181400000Y-85937500D03*
%TD*%
D24*
%TO.P,U2,1,GND*%
%TO.N,GND*%
X169750000Y-85690000D03*
%TO.P,U2,2,VO*%
%TO.N,+3V3*%
X171650000Y-85690000D03*
%TO.P,U2,3,VI*%
%TO.N,+BATT*%
X170700000Y-89110000D03*
%TD*%
D22*
%TO.P,R3,1*%
%TO.N,/G_FET*%
X169840000Y-95800000D03*
%TO.P,R3,2*%
%TO.N,+BATT*%
X167840000Y-95800000D03*
%TD*%
D25*
%TO.P,R10,1*%
%TO.N,/I2C_SDA*%
X165400000Y-81100000D03*
%TO.P,R10,2*%
%TO.N,+3V3*%
X167400000Y-81100000D03*
%TD*%
D26*
%TO.N,GND*%
X187200000Y-89060000D03*
X177200000Y-87660000D03*
X176140000Y-95880000D03*
X173900000Y-88030000D03*
%TO.N,+3V3*%
X184000000Y-81400000D03*
X176900000Y-94200000D03*
X168500000Y-92000000D03*
X182200000Y-82212500D03*
X171000000Y-93400000D03*
X172500000Y-81900000D03*
D27*
%TO.N,/RESET*%
X180260000Y-82690000D03*
%TO.N,/SW_SERVO*%
X180200000Y-96400000D03*
%TD*%
D28*
%TO.N,GND*%
X169462500Y-83200000D02*
X169462500Y-85402500D01*
X169462500Y-85402500D02*
X169750000Y-85690000D01*
%TO.N,+3V3*%
X186600000Y-83862500D02*
X184000000Y-83862500D01*
D29*
X172500000Y-81900000D02*
X171900000Y-81900000D01*
D28*
X171650000Y-90150000D02*
X173700000Y-92200000D01*
X173000000Y-92200000D02*
X173700000Y-92200000D01*
X184000000Y-83862500D02*
X181400000Y-83862500D01*
X171537500Y-85577500D02*
X171650000Y-85690000D01*
D29*
X165970000Y-77120000D02*
X167400000Y-78550000D01*
D28*
X183175000Y-96875000D02*
X183175000Y-98245000D01*
X171650000Y-85690000D02*
X171650000Y-90150000D01*
X174400000Y-83862500D02*
X174400000Y-83800000D01*
D29*
X170400000Y-80400000D02*
X167120000Y-77120000D01*
X165110000Y-77980000D02*
X162900000Y-77980000D01*
D28*
X181400000Y-83012500D02*
X182200000Y-82212500D01*
D29*
X167120000Y-77120000D02*
X165970000Y-77120000D01*
D28*
X173700000Y-92200000D02*
X176100000Y-92200000D01*
X178500000Y-92600000D02*
X176900000Y-94200000D01*
X171537500Y-83200000D02*
X171537500Y-85577500D01*
X168700000Y-92200000D02*
X168500000Y-92000000D01*
X171537500Y-83200000D02*
X173737500Y-83200000D01*
X184000000Y-83862500D02*
X184000000Y-81400000D01*
X176100000Y-92200000D02*
X174900000Y-93400000D01*
X181400000Y-83862500D02*
X174400000Y-83862500D01*
X174400000Y-83800000D02*
X172500000Y-81900000D01*
X176100000Y-92200000D02*
X178500000Y-92200000D01*
X181400000Y-83862500D02*
X181400000Y-83012500D01*
X173737500Y-83200000D02*
X174400000Y-83862500D01*
D29*
X171900000Y-81900000D02*
X170400000Y-80400000D01*
D28*
X178500000Y-92200000D02*
X178500000Y-92600000D01*
X174900000Y-93400000D02*
X171000000Y-93400000D01*
X173700000Y-92200000D02*
X168700000Y-92200000D01*
D29*
X167400000Y-78550000D02*
X167400000Y-81100000D01*
D28*
X178500000Y-92200000D02*
X183175000Y-96875000D01*
D29*
X165970000Y-77120000D02*
X165110000Y-77980000D01*
%TO.N,/RESET*%
X176390000Y-82690000D02*
X171200000Y-77500000D01*
X180260000Y-82690000D02*
X176390000Y-82690000D01*
%TO.N,/I2C_SDA*%
X165400000Y-81100000D02*
X163520000Y-81100000D01*
X162980000Y-80400000D02*
X162900000Y-80480000D01*
X163520000Y-81100000D02*
X162900000Y-80480000D01*
%TO.N,/I2C_SCL*%
X163010000Y-79120000D02*
X162900000Y-79230000D01*
X165760000Y-79230000D02*
X166040000Y-78950000D01*
X165970000Y-79120000D02*
X163010000Y-79120000D01*
X163230000Y-78900000D02*
X162900000Y-79230000D01*
D28*
%TO.N,/VCC_SERVO*%
X165080000Y-98800000D02*
X164940000Y-98660000D01*
X171110000Y-98800000D02*
X165080000Y-98800000D01*
%TO.N,+BATT*%
X164970000Y-88000000D02*
X167462500Y-88000000D01*
X164970000Y-88000000D02*
X166600000Y-89630000D01*
X169967500Y-88377500D02*
X170700000Y-89110000D01*
X167462500Y-88000000D02*
X167840000Y-88377500D01*
X167840000Y-95800000D02*
X167840000Y-97627500D01*
X166600000Y-89630000D02*
X166600000Y-94560000D01*
X167840000Y-97627500D02*
X168062500Y-97850000D01*
D30*
X165255000Y-88285000D02*
X164970000Y-88000000D01*
D28*
X167840000Y-88377500D02*
X169967500Y-88377500D01*
X166600000Y-94560000D02*
X167840000Y-95800000D01*
D29*
%TO.N,/G_FET*%
X172700000Y-99100000D02*
X172050000Y-99750000D01*
X174900000Y-95290000D02*
X172700000Y-97490000D01*
X174900000Y-95290000D02*
X174390000Y-95800000D01*
X172700000Y-97490000D02*
X172700000Y-99100000D01*
X169840000Y-95800000D02*
X169840000Y-96360000D01*
X172050000Y-99750000D02*
X167690000Y-99750000D01*
X174390000Y-95800000D02*
X169840000Y-95800000D01*
%TO.N,/B_NPN*%
X177800000Y-98200000D02*
X177060000Y-98200000D01*
X177060000Y-98200000D02*
X175550000Y-99710000D01*
%TO.N,/SW_SERVO*%
X180200000Y-97800000D02*
X179800000Y-98200000D01*
X180200000Y-96400000D02*
X180200000Y-97800000D01*
%TD*%
%TA.AperFunction,Conductor*%
%TO.N,GND*%
G36*
X170525756Y-84087037D02*
G01*
X170537399Y-84087308D01*
X170557213Y-84100703D01*
X170579156Y-84110236D01*
X170590247Y-84123035D01*
X170595282Y-84126439D01*
X170597325Y-84131203D01*
X170605243Y-84140341D01*
X170607288Y-84143656D01*
X170731344Y-84267712D01*
X170778096Y-84296548D01*
X170824820Y-84348494D01*
X170837000Y-84402087D01*
X170837000Y-84692606D01*
X170831387Y-84729491D01*
X170830570Y-84732112D01*
X170824500Y-84798911D01*
X170824500Y-86581098D01*
X170830568Y-86647882D01*
X170830571Y-86647893D01*
X170878467Y-86801599D01*
X170878468Y-86801601D01*
X170894041Y-86827361D01*
X170918194Y-86867315D01*
X170931616Y-86889516D01*
X170949500Y-86953667D01*
X170949500Y-87485500D01*
X170929815Y-87552539D01*
X170877011Y-87598294D01*
X170825500Y-87609500D01*
X170483901Y-87609500D01*
X170417117Y-87615568D01*
X170417106Y-87615571D01*
X170263400Y-87663467D01*
X170231540Y-87682727D01*
X170163985Y-87700561D01*
X170143202Y-87698225D01*
X170036497Y-87677000D01*
X170036494Y-87677000D01*
X170036493Y-87677000D01*
X168902088Y-87677000D01*
X168835049Y-87657315D01*
X168796549Y-87618097D01*
X168794991Y-87615571D01*
X168767712Y-87571344D01*
X168643656Y-87447288D01*
X168640342Y-87445243D01*
X168638546Y-87443248D01*
X168637989Y-87442807D01*
X168638064Y-87442711D01*
X168593618Y-87393297D01*
X168582397Y-87324334D01*
X168610240Y-87260252D01*
X168640348Y-87234165D01*
X168643342Y-87232318D01*
X168767315Y-87108345D01*
X168862196Y-86954519D01*
X168914144Y-86907795D01*
X168983106Y-86896572D01*
X169047189Y-86924416D01*
X169056555Y-86934075D01*
X169056857Y-86933774D01*
X169175919Y-87052836D01*
X169313607Y-87136072D01*
X169313606Y-87136072D01*
X169467197Y-87183932D01*
X169467207Y-87183935D01*
X169499999Y-87186914D01*
X169500000Y-87186914D01*
X170000000Y-87186914D01*
X170032792Y-87183935D01*
X170032802Y-87183932D01*
X170186392Y-87136072D01*
X170324080Y-87052836D01*
X170437836Y-86939080D01*
X170521070Y-86801396D01*
X170568934Y-86647792D01*
X170575000Y-86581043D01*
X170575000Y-85940000D01*
X170000000Y-85940000D01*
X170000000Y-87186914D01*
X169500000Y-87186914D01*
X169500000Y-85814000D01*
X169519685Y-85746961D01*
X169572489Y-85701206D01*
X169624000Y-85690000D01*
X169750000Y-85690000D01*
X169750000Y-85564000D01*
X169769685Y-85496961D01*
X169822489Y-85451206D01*
X169874000Y-85440000D01*
X170575000Y-85440000D01*
X170575000Y-84798956D01*
X170568934Y-84732207D01*
X170521070Y-84578603D01*
X170437836Y-84440919D01*
X170353970Y-84357053D01*
X170351076Y-84351754D01*
X170346075Y-84348373D01*
X170334526Y-84321444D01*
X170320485Y-84295730D01*
X170320915Y-84289708D01*
X170318536Y-84284160D01*
X170323378Y-84255263D01*
X170325469Y-84226038D01*
X170329342Y-84219678D01*
X170330085Y-84215251D01*
X170343656Y-84196181D01*
X170349852Y-84186012D01*
X170407907Y-84122080D01*
X170428324Y-84109619D01*
X170446110Y-84093621D01*
X170457607Y-84091749D01*
X170467548Y-84085683D01*
X170491460Y-84086239D01*
X170515073Y-84082396D01*
X170525756Y-84087037D01*
G37*
%TD.AperFunction*%
%TA.AperFunction,Conductor*%
G36*
X188253039Y-75165185D02*
G01*
X188298794Y-75217989D01*
X188310000Y-75269500D01*
X188310000Y-101020500D01*
X188290315Y-101087539D01*
X188237511Y-101133294D01*
X188186000Y-101144500D01*
X158137000Y-101144500D01*
X158069961Y-101124815D01*
X158024206Y-101072011D01*
X158013000Y-101020500D01*
X158013000Y-82675013D01*
X168375000Y-82675013D01*
X168375000Y-82950000D01*
X169212500Y-82950000D01*
X169212500Y-81975000D01*
X169075027Y-81975000D01*
X169075012Y-81975001D01*
X168972302Y-81985494D01*
X168805880Y-82040641D01*
X168805875Y-82040643D01*
X168656654Y-82132684D01*
X168532684Y-82256654D01*
X168440643Y-82405875D01*
X168440641Y-82405880D01*
X168385494Y-82572302D01*
X168385493Y-82572309D01*
X168375000Y-82675013D01*
X158013000Y-82675013D01*
X158013000Y-77891304D01*
X161749500Y-77891304D01*
X161749500Y-78068695D01*
X161784103Y-78242658D01*
X161784106Y-78242667D01*
X161851983Y-78406540D01*
X161851990Y-78406553D01*
X161938557Y-78536109D01*
X161959435Y-78602787D01*
X161940950Y-78670167D01*
X161938557Y-78673891D01*
X161851990Y-78803446D01*
X161851983Y-78803459D01*
X161784106Y-78967332D01*
X161784103Y-78967341D01*
X161749500Y-79141304D01*
X161749500Y-79318695D01*
X161784103Y-79492658D01*
X161784106Y-79492667D01*
X161851983Y-79656540D01*
X161851990Y-79656553D01*
X161938557Y-79786109D01*
X161959435Y-79852787D01*
X161940950Y-79920167D01*
X161938557Y-79923891D01*
X161851990Y-80053446D01*
X161851983Y-80053459D01*
X161784106Y-80217332D01*
X161784103Y-80217341D01*
X161749500Y-80391304D01*
X161749500Y-80568695D01*
X161784103Y-80742658D01*
X161784106Y-80742667D01*
X161851983Y-80906540D01*
X161851990Y-80906553D01*
X161950535Y-81054034D01*
X161950538Y-81054038D01*
X162075961Y-81179461D01*
X162075965Y-81179464D01*
X162223446Y-81278009D01*
X162223459Y-81278016D01*
X162339211Y-81325961D01*
X162387334Y-81345894D01*
X162387336Y-81345894D01*
X162387341Y-81345896D01*
X162561304Y-81380499D01*
X162561307Y-81380500D01*
X162561309Y-81380500D01*
X162899903Y-81380500D01*
X162929343Y-81389144D01*
X162959330Y-81395668D01*
X162964345Y-81399422D01*
X162966942Y-81400185D01*
X162987583Y-81416818D01*
X163035139Y-81464374D01*
X163035149Y-81464385D01*
X163039479Y-81468715D01*
X163039480Y-81468716D01*
X163151284Y-81580520D01*
X163151286Y-81580521D01*
X163151290Y-81580524D01*
X163270258Y-81649209D01*
X163288216Y-81659577D01*
X163400019Y-81689534D01*
X163440942Y-81700500D01*
X163440943Y-81700500D01*
X164219699Y-81700500D01*
X164286738Y-81720185D01*
X164332493Y-81772989D01*
X164337403Y-81785492D01*
X164365186Y-81869334D01*
X164457288Y-82018656D01*
X164581344Y-82142712D01*
X164730666Y-82234814D01*
X164897203Y-82289999D01*
X164999991Y-82300500D01*
X165800008Y-82300499D01*
X165800016Y-82300498D01*
X165800019Y-82300498D01*
X165856302Y-82294748D01*
X165902797Y-82289999D01*
X166069334Y-82234814D01*
X166218656Y-82142712D01*
X166312319Y-82049049D01*
X166373642Y-82015564D01*
X166443334Y-82020548D01*
X166487681Y-82049049D01*
X166581344Y-82142712D01*
X166730666Y-82234814D01*
X166897203Y-82289999D01*
X166999991Y-82300500D01*
X167800008Y-82300499D01*
X167800016Y-82300498D01*
X167800019Y-82300498D01*
X167856302Y-82294748D01*
X167902797Y-82289999D01*
X168069334Y-82234814D01*
X168218656Y-82142712D01*
X168342712Y-82018656D01*
X168434814Y-81869334D01*
X168489999Y-81702797D01*
X168500500Y-81600009D01*
X168500499Y-80599992D01*
X168489999Y-80497203D01*
X168434814Y-80330666D01*
X168342712Y-80181344D01*
X168218656Y-80057288D01*
X168069334Y-79965186D01*
X168069332Y-79965185D01*
X168063187Y-79961395D01*
X168064290Y-79959605D01*
X168019649Y-79920290D01*
X168000500Y-79854091D01*
X168000500Y-79149097D01*
X168020185Y-79082058D01*
X168072989Y-79036303D01*
X168142147Y-79026359D01*
X168205703Y-79055384D01*
X168212181Y-79061416D01*
X170971571Y-81820806D01*
X171005056Y-81882129D01*
X171000072Y-81951821D01*
X170958200Y-82007754D01*
X170922896Y-82026192D01*
X170880666Y-82040186D01*
X170880663Y-82040187D01*
X170731342Y-82132289D01*
X170607288Y-82256343D01*
X170607283Y-82256349D01*
X170605241Y-82259661D01*
X170603247Y-82261453D01*
X170602807Y-82262011D01*
X170602711Y-82261935D01*
X170553291Y-82306383D01*
X170484328Y-82317602D01*
X170420247Y-82289755D01*
X170394168Y-82259656D01*
X170392319Y-82256659D01*
X170392316Y-82256655D01*
X170268345Y-82132684D01*
X170119124Y-82040643D01*
X170119119Y-82040641D01*
X169952697Y-81985494D01*
X169952690Y-81985493D01*
X169849986Y-81975000D01*
X169712500Y-81975000D01*
X169712500Y-83076000D01*
X169692815Y-83143039D01*
X169640011Y-83188794D01*
X169588500Y-83200000D01*
X169462500Y-83200000D01*
X169462500Y-83326000D01*
X169442815Y-83393039D01*
X169390011Y-83438794D01*
X169338500Y-83450000D01*
X168375001Y-83450000D01*
X168375001Y-83724986D01*
X168385494Y-83827697D01*
X168440641Y-83994119D01*
X168440643Y-83994124D01*
X168532684Y-84143345D01*
X168656654Y-84267315D01*
X168805875Y-84359356D01*
X168805880Y-84359358D01*
X168912967Y-84394843D01*
X168970412Y-84434615D01*
X168997235Y-84499131D01*
X168984920Y-84567907D01*
X168980086Y-84576689D01*
X168978930Y-84578600D01*
X168931065Y-84732207D01*
X168925000Y-84798956D01*
X168925000Y-85354977D01*
X168905315Y-85422016D01*
X168852511Y-85467771D01*
X168783353Y-85477715D01*
X168719797Y-85448690D01*
X168713319Y-85442658D01*
X168643345Y-85372684D01*
X168494124Y-85280643D01*
X168494119Y-85280641D01*
X168327697Y-85225494D01*
X168327690Y-85225493D01*
X168224986Y-85215000D01*
X167950000Y-85215000D01*
X167950000Y-86178500D01*
X167930315Y-86245539D01*
X167877511Y-86291294D01*
X167826000Y-86302500D01*
X167700000Y-86302500D01*
X167700000Y-86428500D01*
X167680315Y-86495539D01*
X167627511Y-86541294D01*
X167576000Y-86552500D01*
X166475001Y-86552500D01*
X166475001Y-86689971D01*
X166475002Y-86689991D01*
X166482017Y-86758669D01*
X166469247Y-86827361D01*
X166421365Y-86878245D01*
X166353575Y-86895165D01*
X166287399Y-86872748D01*
X166260665Y-86844603D01*
X166259698Y-86845375D01*
X166255354Y-86839928D01*
X166130071Y-86714645D01*
X165980050Y-86620381D01*
X165904997Y-86594119D01*
X165812814Y-86561863D01*
X165812813Y-86561862D01*
X165812811Y-86561862D01*
X165781272Y-86558308D01*
X165716858Y-86531241D01*
X165708864Y-86524136D01*
X165065185Y-85900369D01*
X165143694Y-85879333D01*
X165246306Y-85820090D01*
X165330090Y-85736306D01*
X165389333Y-85633694D01*
X165413893Y-85542034D01*
X166172015Y-86276705D01*
X166172016Y-86276705D01*
X166212286Y-86221280D01*
X166212287Y-86221278D01*
X166280450Y-86087502D01*
X166328424Y-86036706D01*
X166396245Y-86019911D01*
X166462380Y-86042448D01*
X166474321Y-86052500D01*
X167450000Y-86052500D01*
X167450000Y-85215000D01*
X167175029Y-85215000D01*
X167175012Y-85215001D01*
X167072302Y-85225494D01*
X166905880Y-85280641D01*
X166905875Y-85280643D01*
X166756654Y-85372684D01*
X166634181Y-85495158D01*
X166572858Y-85528643D01*
X166503166Y-85523659D01*
X166447233Y-85481787D01*
X166422816Y-85416323D01*
X166422500Y-85407477D01*
X166422500Y-85345686D01*
X166386734Y-85119875D01*
X166386734Y-85119874D01*
X166316082Y-84902431D01*
X166212286Y-84698720D01*
X166145259Y-84606464D01*
X165410369Y-85364813D01*
X165389333Y-85286306D01*
X165330090Y-85183694D01*
X165246306Y-85099910D01*
X165143694Y-85040667D01*
X165052032Y-85016106D01*
X165786705Y-84257983D01*
X165786705Y-84257982D01*
X165731279Y-84217713D01*
X165527568Y-84113917D01*
X165310124Y-84043265D01*
X165084313Y-84007500D01*
X164855687Y-84007500D01*
X164629875Y-84043265D01*
X164629874Y-84043265D01*
X164412431Y-84113917D01*
X164208722Y-84217712D01*
X164116464Y-84284739D01*
X164874814Y-85019630D01*
X164796306Y-85040667D01*
X164693694Y-85099910D01*
X164609910Y-85183694D01*
X164550667Y-85286306D01*
X164526106Y-85377965D01*
X163767983Y-84643292D01*
X163727712Y-84698722D01*
X163623917Y-84902431D01*
X163553265Y-85119874D01*
X163553265Y-85119875D01*
X163517500Y-85345686D01*
X163517500Y-85574313D01*
X163553265Y-85800124D01*
X163553265Y-85800125D01*
X163623917Y-86017568D01*
X163727713Y-86221279D01*
X163794739Y-86313534D01*
X164529630Y-85555183D01*
X164550667Y-85633694D01*
X164609910Y-85736306D01*
X164693694Y-85820090D01*
X164796306Y-85879333D01*
X164887964Y-85903892D01*
X164296402Y-86514338D01*
X164235612Y-86548782D01*
X164221238Y-86551265D01*
X164127188Y-86561861D01*
X163959949Y-86620381D01*
X163809928Y-86714645D01*
X163684645Y-86839928D01*
X163590381Y-86989949D01*
X163531861Y-87157188D01*
X163517000Y-87289091D01*
X163517000Y-88710908D01*
X163531861Y-88842811D01*
X163590381Y-89010050D01*
X163684645Y-89160071D01*
X163809929Y-89285355D01*
X163959950Y-89379619D01*
X164074359Y-89419652D01*
X164127188Y-89438138D01*
X164211544Y-89447642D01*
X164259091Y-89452999D01*
X164259092Y-89453000D01*
X164259096Y-89453000D01*
X165380981Y-89453000D01*
X165448020Y-89472685D01*
X165468662Y-89489319D01*
X165863181Y-89883838D01*
X165896666Y-89945161D01*
X165899500Y-89971519D01*
X165899500Y-92016756D01*
X165879815Y-92083795D01*
X165827011Y-92129550D01*
X165761617Y-92139976D01*
X165650884Y-92127500D01*
X164229115Y-92127500D01*
X164097304Y-92142351D01*
X163930166Y-92200835D01*
X163920475Y-92206923D01*
X164851414Y-93137862D01*
X164766306Y-93160667D01*
X164663694Y-93219910D01*
X164579910Y-93303694D01*
X164520667Y-93406306D01*
X164497862Y-93491414D01*
X163566923Y-92560475D01*
X163560835Y-92570166D01*
X163502351Y-92737304D01*
X163487500Y-92869115D01*
X163487500Y-94290884D01*
X163502351Y-94422694D01*
X163560836Y-94589834D01*
X163566923Y-94599522D01*
X164497862Y-93668585D01*
X164520667Y-93753694D01*
X164579910Y-93856306D01*
X164663694Y-93940090D01*
X164766306Y-93999333D01*
X164851412Y-94022137D01*
X163920476Y-94953074D01*
X163927115Y-95012011D01*
X163915058Y-95080832D01*
X163891576Y-95113572D01*
X163831713Y-95173434D01*
X163697283Y-95358461D01*
X163593450Y-95562244D01*
X163522778Y-95779750D01*
X163522778Y-95779753D01*
X163522778Y-95779755D01*
X163487000Y-96005646D01*
X163487000Y-96234354D01*
X163504889Y-96347299D01*
X163522778Y-96460246D01*
X163522778Y-96460249D01*
X163593450Y-96677755D01*
X163658798Y-96806007D01*
X163697283Y-96881538D01*
X163831714Y-97066566D01*
X163993434Y-97228286D01*
X164041859Y-97263469D01*
X164077938Y-97289682D01*
X164120603Y-97345013D01*
X164126582Y-97414626D01*
X164093976Y-97476421D01*
X164077938Y-97490318D01*
X163993432Y-97551715D01*
X163831716Y-97713431D01*
X163831716Y-97713432D01*
X163831714Y-97713434D01*
X163803612Y-97752113D01*
X163697283Y-97898461D01*
X163593450Y-98102244D01*
X163522778Y-98319750D01*
X163522778Y-98319753D01*
X163487000Y-98545646D01*
X163487000Y-98774353D01*
X163522778Y-99000246D01*
X163522778Y-99000249D01*
X163593450Y-99217755D01*
X163673259Y-99374388D01*
X163697283Y-99421538D01*
X163831714Y-99606566D01*
X163993434Y-99768286D01*
X164178462Y-99902717D01*
X164382242Y-100006548D01*
X164382244Y-100006549D01*
X164599751Y-100077221D01*
X164599752Y-100077221D01*
X164599755Y-100077222D01*
X164825646Y-100113000D01*
X164825647Y-100113000D01*
X165054353Y-100113000D01*
X165054354Y-100113000D01*
X165280245Y-100077222D01*
X165280248Y-100077221D01*
X165280249Y-100077221D01*
X165497755Y-100006549D01*
X165497755Y-100006548D01*
X165497758Y-100006548D01*
X165701538Y-99902717D01*
X165886566Y-99768286D01*
X165977822Y-99677029D01*
X166039141Y-99643547D01*
X166108833Y-99648531D01*
X166164767Y-99690402D01*
X166189184Y-99755866D01*
X166189500Y-99764712D01*
X166189500Y-99966098D01*
X166195568Y-100032882D01*
X166195571Y-100032893D01*
X166243467Y-100186598D01*
X166243468Y-100186600D01*
X166243469Y-100186602D01*
X166318369Y-100310501D01*
X166326766Y-100324391D01*
X166440608Y-100438233D01*
X166440610Y-100438234D01*
X166440612Y-100438236D01*
X166578398Y-100521531D01*
X166732113Y-100569430D01*
X166798909Y-100575500D01*
X168581090Y-100575499D01*
X168581097Y-100575499D01*
X168647882Y-100569431D01*
X168647885Y-100569430D01*
X168647887Y-100569430D01*
X168801602Y-100521531D01*
X168939388Y-100438236D01*
X168990804Y-100386820D01*
X169052127Y-100353334D01*
X169078486Y-100350500D01*
X171963331Y-100350500D01*
X171963347Y-100350501D01*
X171970943Y-100350501D01*
X172129054Y-100350501D01*
X172129057Y-100350501D01*
X172281785Y-100309577D01*
X172331904Y-100280639D01*
X172418716Y-100230520D01*
X172530520Y-100118716D01*
X172530520Y-100118714D01*
X172540728Y-100108507D01*
X172540730Y-100108504D01*
X172950476Y-99698757D01*
X173011797Y-99665274D01*
X173081489Y-99670258D01*
X173137422Y-99712130D01*
X173156540Y-99749549D01*
X173178928Y-99821393D01*
X173262163Y-99959080D01*
X173375919Y-100072836D01*
X173513607Y-100156072D01*
X173513606Y-100156072D01*
X173667197Y-100203932D01*
X173667207Y-100203935D01*
X173699999Y-100206914D01*
X173700000Y-100206914D01*
X173700000Y-98834000D01*
X173719685Y-98766961D01*
X173772489Y-98721206D01*
X173824000Y-98710000D01*
X173950000Y-98710000D01*
X173950000Y-98584000D01*
X173969685Y-98516961D01*
X174022489Y-98471206D01*
X174074000Y-98460000D01*
X174775000Y-98460000D01*
X174775000Y-97818956D01*
X174768934Y-97752207D01*
X174721070Y-97598603D01*
X174637836Y-97460919D01*
X174524080Y-97347163D01*
X174386396Y-97263929D01*
X174232792Y-97216065D01*
X174166043Y-97210000D01*
X174128597Y-97210000D01*
X174061558Y-97190315D01*
X174015803Y-97137511D01*
X174005859Y-97068353D01*
X174034884Y-97004797D01*
X174040915Y-96998319D01*
X174099254Y-96939980D01*
X174294555Y-96744678D01*
X174355874Y-96711196D01*
X174425566Y-96716180D01*
X174446378Y-96726242D01*
X174463398Y-96736531D01*
X174617113Y-96784430D01*
X174683909Y-96790500D01*
X175116090Y-96790499D01*
X175116098Y-96790499D01*
X175182882Y-96784431D01*
X175182885Y-96784430D01*
X175182887Y-96784430D01*
X175336602Y-96736531D01*
X175474388Y-96653236D01*
X175588236Y-96539388D01*
X175671531Y-96401602D01*
X175719430Y-96247887D01*
X175725500Y-96181091D01*
X175725499Y-94398910D01*
X175725499Y-94398909D01*
X175725499Y-94398901D01*
X175719431Y-94332117D01*
X175719428Y-94332106D01*
X175671532Y-94178401D01*
X175671531Y-94178400D01*
X175671531Y-94178398D01*
X175588236Y-94040612D01*
X175588234Y-94040610D01*
X175588233Y-94040608D01*
X175506821Y-93959196D01*
X175473336Y-93897873D01*
X175478320Y-93828181D01*
X175506819Y-93783836D01*
X175966338Y-93324318D01*
X175993265Y-93309614D01*
X176019084Y-93293022D01*
X176025284Y-93292130D01*
X176027661Y-93290833D01*
X176054019Y-93287999D01*
X176239139Y-93287999D01*
X176306178Y-93307684D01*
X176351933Y-93360488D01*
X176361877Y-93429646D01*
X176332852Y-93493202D01*
X176326820Y-93499680D01*
X176200538Y-93625961D01*
X176200535Y-93625965D01*
X176101990Y-93773446D01*
X176101983Y-93773459D01*
X176034106Y-93937332D01*
X176034103Y-93937341D01*
X175999500Y-94111304D01*
X175999500Y-94288695D01*
X176034103Y-94462658D01*
X176034106Y-94462667D01*
X176101983Y-94626540D01*
X176101990Y-94626553D01*
X176200535Y-94774034D01*
X176200538Y-94774038D01*
X176325961Y-94899461D01*
X176325965Y-94899464D01*
X176473446Y-94998009D01*
X176473459Y-94998016D01*
X176552285Y-95030666D01*
X176637334Y-95065894D01*
X176637336Y-95065894D01*
X176637341Y-95065896D01*
X176811304Y-95100499D01*
X176811307Y-95100500D01*
X176811309Y-95100500D01*
X176988693Y-95100500D01*
X176988694Y-95100499D01*
X177046682Y-95088964D01*
X177162658Y-95065896D01*
X177162661Y-95065894D01*
X177162666Y-95065894D01*
X177326547Y-94998013D01*
X177474035Y-94899464D01*
X177599464Y-94774035D01*
X177698013Y-94626547D01*
X177765894Y-94462666D01*
X177792797Y-94327408D01*
X177825180Y-94265503D01*
X177826676Y-94263979D01*
X178612319Y-93478337D01*
X178673642Y-93444852D01*
X178743334Y-93449836D01*
X178787681Y-93478337D01*
X182221853Y-96912509D01*
X182255338Y-96973832D01*
X182250354Y-97043524D01*
X182212836Y-97096044D01*
X182175000Y-97127094D01*
X182175000Y-98195272D01*
X182136940Y-98103386D01*
X182066614Y-98033060D01*
X181974728Y-97995000D01*
X181875272Y-97995000D01*
X181783386Y-98033060D01*
X181713060Y-98103386D01*
X181675000Y-98195272D01*
X181675000Y-97127095D01*
X181674999Y-97127094D01*
X181662480Y-97129585D01*
X181498692Y-97197428D01*
X181498683Y-97197433D01*
X181351283Y-97295923D01*
X181351279Y-97295926D01*
X181225926Y-97421279D01*
X181225923Y-97421283D01*
X181127433Y-97568683D01*
X181127427Y-97568695D01*
X181117755Y-97592045D01*
X181102890Y-97610490D01*
X181091747Y-97631391D01*
X181081372Y-97637190D01*
X181073913Y-97646448D01*
X181051436Y-97653928D01*
X181030762Y-97665487D01*
X181018896Y-97664757D01*
X181007618Y-97668511D01*
X180984666Y-97662652D01*
X180961024Y-97661199D01*
X180951437Y-97654171D01*
X180939919Y-97651231D01*
X180923777Y-97633892D01*
X180904675Y-97619888D01*
X180896707Y-97604815D01*
X180892310Y-97600092D01*
X180887452Y-97589081D01*
X180886405Y-97586358D01*
X180834814Y-97430666D01*
X180812901Y-97395138D01*
X180808757Y-97384358D01*
X180806996Y-97362775D01*
X180800500Y-97339867D01*
X180800500Y-96979765D01*
X180820185Y-96912726D01*
X180821398Y-96910874D01*
X180891067Y-96806608D01*
X180909394Y-96779179D01*
X180969737Y-96633497D01*
X181000500Y-96478842D01*
X181000500Y-96321158D01*
X181000500Y-96321155D01*
X181000499Y-96321153D01*
X180985925Y-96247887D01*
X180969737Y-96166503D01*
X180969735Y-96166498D01*
X180909397Y-96020827D01*
X180909390Y-96020814D01*
X180821789Y-95889711D01*
X180821786Y-95889707D01*
X180710292Y-95778213D01*
X180710288Y-95778210D01*
X180579185Y-95690609D01*
X180579172Y-95690602D01*
X180433501Y-95630264D01*
X180433489Y-95630261D01*
X180278845Y-95599500D01*
X180278842Y-95599500D01*
X180121158Y-95599500D01*
X180121155Y-95599500D01*
X179966510Y-95630261D01*
X179966498Y-95630264D01*
X179820827Y-95690602D01*
X179820814Y-95690609D01*
X179689711Y-95778210D01*
X179689707Y-95778213D01*
X179578213Y-95889707D01*
X179578210Y-95889711D01*
X179490609Y-96020814D01*
X179490602Y-96020827D01*
X179430264Y-96166498D01*
X179430261Y-96166510D01*
X179399500Y-96321153D01*
X179399500Y-96478846D01*
X179430261Y-96633489D01*
X179430264Y-96633501D01*
X179490602Y-96779172D01*
X179490610Y-96779187D01*
X179508933Y-96806608D01*
X179529812Y-96873285D01*
X179511328Y-96940666D01*
X179459350Y-96987356D01*
X179405846Y-96999500D01*
X179400005Y-96999500D01*
X179399980Y-96999501D01*
X179297203Y-97010000D01*
X179297200Y-97010001D01*
X179130668Y-97065185D01*
X179130663Y-97065187D01*
X178981342Y-97157289D01*
X178887681Y-97250951D01*
X178826358Y-97284436D01*
X178756666Y-97279452D01*
X178712319Y-97250951D01*
X178618657Y-97157289D01*
X178618656Y-97157288D01*
X178514428Y-97093000D01*
X178469336Y-97065187D01*
X178469331Y-97065185D01*
X178416166Y-97047568D01*
X178302797Y-97010001D01*
X178302795Y-97010000D01*
X178200010Y-96999500D01*
X177399998Y-96999500D01*
X177399980Y-96999501D01*
X177297203Y-97010000D01*
X177297200Y-97010001D01*
X177130668Y-97065185D01*
X177130663Y-97065187D01*
X176981342Y-97157289D01*
X176857289Y-97281342D01*
X176765187Y-97430663D01*
X176765184Y-97430671D01*
X176763049Y-97437114D01*
X176723273Y-97494557D01*
X176658756Y-97521377D01*
X176589981Y-97509058D01*
X176543392Y-97466093D01*
X176542858Y-97466512D01*
X176540285Y-97463228D01*
X176539228Y-97462253D01*
X176538236Y-97460612D01*
X176538235Y-97460611D01*
X176538232Y-97460607D01*
X176424391Y-97346766D01*
X176421491Y-97345013D01*
X176286602Y-97263469D01*
X176132887Y-97215570D01*
X176132885Y-97215569D01*
X176132883Y-97215569D01*
X176086117Y-97211319D01*
X176066091Y-97209500D01*
X176066088Y-97209500D01*
X175633901Y-97209500D01*
X175567117Y-97215568D01*
X175567106Y-97215571D01*
X175413401Y-97263467D01*
X175275608Y-97346766D01*
X175161766Y-97460608D01*
X175078469Y-97598397D01*
X175030569Y-97752116D01*
X175024500Y-97818911D01*
X175024500Y-99385965D01*
X175020352Y-99401447D01*
X175021009Y-99415181D01*
X175007897Y-99447948D01*
X175006397Y-99450547D01*
X174955837Y-99498771D01*
X174887232Y-99512004D01*
X174822363Y-99486046D01*
X174781826Y-99429138D01*
X174775000Y-99388564D01*
X174775000Y-98960000D01*
X174200000Y-98960000D01*
X174200000Y-100206914D01*
X174232792Y-100203935D01*
X174232802Y-100203932D01*
X174386392Y-100156072D01*
X174524080Y-100072836D01*
X174637836Y-99959080D01*
X174721068Y-99821399D01*
X174721182Y-99821035D01*
X174721340Y-99820796D01*
X174724150Y-99814555D01*
X174725186Y-99815021D01*
X174759911Y-99762882D01*
X174823932Y-99734898D01*
X174892919Y-99745970D01*
X174944969Y-99792580D01*
X174959348Y-99825814D01*
X174990423Y-99941785D01*
X175069481Y-100078716D01*
X175181284Y-100190519D01*
X175318215Y-100269577D01*
X175470943Y-100310501D01*
X175470946Y-100310501D01*
X175629054Y-100310501D01*
X175629057Y-100310501D01*
X175781785Y-100269577D01*
X175836060Y-100238240D01*
X175855336Y-100227112D01*
X175917336Y-100210499D01*
X176066097Y-100210499D01*
X176132882Y-100204431D01*
X176132885Y-100204430D01*
X176132887Y-100204430D01*
X176286602Y-100156531D01*
X176424388Y-100073236D01*
X176538236Y-99959388D01*
X176621531Y-99821602D01*
X176669430Y-99667887D01*
X176675500Y-99601091D01*
X176675499Y-99485095D01*
X176684144Y-99455651D01*
X176690667Y-99425669D01*
X176694419Y-99420655D01*
X176695183Y-99418057D01*
X176711813Y-99397420D01*
X176840999Y-99268234D01*
X176902320Y-99234751D01*
X176972012Y-99239735D01*
X176993763Y-99250372D01*
X177130666Y-99334814D01*
X177297203Y-99389999D01*
X177399991Y-99400500D01*
X178200008Y-99400499D01*
X178200016Y-99400498D01*
X178200019Y-99400498D01*
X178256302Y-99394748D01*
X178302797Y-99389999D01*
X178469334Y-99334814D01*
X178618656Y-99242712D01*
X178712319Y-99149049D01*
X178773642Y-99115564D01*
X178843334Y-99120548D01*
X178887681Y-99149049D01*
X178981344Y-99242712D01*
X179130666Y-99334814D01*
X179297203Y-99389999D01*
X179399991Y-99400500D01*
X180200008Y-99400499D01*
X180200016Y-99400498D01*
X180200019Y-99400498D01*
X180256302Y-99394748D01*
X180302797Y-99389999D01*
X180469334Y-99334814D01*
X180618656Y-99242712D01*
X180742712Y-99118656D01*
X180834814Y-98969334D01*
X180868921Y-98866403D01*
X180908692Y-98808961D01*
X180973208Y-98782137D01*
X181041983Y-98794452D01*
X181093184Y-98841994D01*
X181101187Y-98857955D01*
X181127430Y-98921309D01*
X181127433Y-98921316D01*
X181225923Y-99068716D01*
X181225926Y-99068720D01*
X181351279Y-99194073D01*
X181351283Y-99194076D01*
X181498683Y-99292566D01*
X181498693Y-99292571D01*
X181662476Y-99360412D01*
X181662483Y-99360415D01*
X181675000Y-99362904D01*
X181675000Y-98294728D01*
X181713060Y-98386614D01*
X181783386Y-98456940D01*
X181875272Y-98495000D01*
X181974728Y-98495000D01*
X182066614Y-98456940D01*
X182136940Y-98386614D01*
X182175000Y-98294728D01*
X182175000Y-99362903D01*
X182187516Y-99360415D01*
X182187523Y-99360412D01*
X182351306Y-99292571D01*
X182351315Y-99292566D01*
X182480659Y-99206141D01*
X182547336Y-99185263D01*
X182614716Y-99203747D01*
X182618434Y-99206136D01*
X182673170Y-99242710D01*
X182747791Y-99292571D01*
X182748453Y-99293013D01*
X182748455Y-99293014D01*
X182748459Y-99293016D01*
X182858214Y-99338477D01*
X182912334Y-99360894D01*
X182912336Y-99360894D01*
X182912341Y-99360896D01*
X183086304Y-99395499D01*
X183086307Y-99395500D01*
X183086309Y-99395500D01*
X183263693Y-99395500D01*
X183263694Y-99395499D01*
X183369828Y-99374388D01*
X183437658Y-99360896D01*
X183437661Y-99360894D01*
X183437666Y-99360894D01*
X183601547Y-99293013D01*
X183731109Y-99206442D01*
X183797786Y-99185564D01*
X183865166Y-99204048D01*
X183868891Y-99206442D01*
X183998447Y-99293009D01*
X183998453Y-99293013D01*
X183998455Y-99293014D01*
X183998459Y-99293016D01*
X184108214Y-99338477D01*
X184162334Y-99360894D01*
X184162336Y-99360894D01*
X184162341Y-99360896D01*
X184336304Y-99395499D01*
X184336307Y-99395500D01*
X184336309Y-99395500D01*
X184513693Y-99395500D01*
X184513694Y-99395499D01*
X184619828Y-99374388D01*
X184687658Y-99360896D01*
X184687661Y-99360894D01*
X184687666Y-99360894D01*
X184851547Y-99293013D01*
X184908838Y-99254731D01*
X184975510Y-99233854D01*
X185041873Y-99251716D01*
X185185394Y-99338478D01*
X185347804Y-99389086D01*
X185418384Y-99395500D01*
X185418387Y-99395500D01*
X185931613Y-99395500D01*
X185931616Y-99395500D01*
X186002196Y-99389086D01*
X186164606Y-99338478D01*
X186310185Y-99250472D01*
X186430472Y-99130185D01*
X186518478Y-98984606D01*
X186569086Y-98822196D01*
X186575500Y-98751616D01*
X186575500Y-97738384D01*
X186569086Y-97667804D01*
X186518478Y-97505394D01*
X186430472Y-97359815D01*
X186430470Y-97359813D01*
X186430469Y-97359811D01*
X186310188Y-97239530D01*
X186291588Y-97228286D01*
X186164606Y-97151522D01*
X186002196Y-97100914D01*
X186002194Y-97100913D01*
X186002192Y-97100913D01*
X185948606Y-97096044D01*
X185931616Y-97094500D01*
X185418384Y-97094500D01*
X185401394Y-97096044D01*
X185347807Y-97100913D01*
X185185391Y-97151523D01*
X185041875Y-97238281D01*
X184974321Y-97256117D01*
X184908834Y-97235265D01*
X184851555Y-97196991D01*
X184851540Y-97196983D01*
X184687667Y-97129106D01*
X184687658Y-97129103D01*
X184513694Y-97094500D01*
X184513691Y-97094500D01*
X184336309Y-97094500D01*
X184336306Y-97094500D01*
X184162341Y-97129103D01*
X184162337Y-97129105D01*
X184162335Y-97129105D01*
X184162334Y-97129106D01*
X184132238Y-97141571D01*
X184046951Y-97176898D01*
X183977482Y-97184365D01*
X183915003Y-97153090D01*
X183879351Y-97093000D01*
X183875500Y-97062336D01*
X183875500Y-96806004D01*
X183848581Y-96670677D01*
X183848580Y-96670676D01*
X183848580Y-96670672D01*
X183841357Y-96653233D01*
X183795778Y-96543195D01*
X183795771Y-96543182D01*
X183719115Y-96428459D01*
X183691156Y-96400500D01*
X183621542Y-96330886D01*
X181713350Y-94422694D01*
X179761818Y-92471161D01*
X179728333Y-92409838D01*
X179725499Y-92383480D01*
X179725499Y-91812498D01*
X179725498Y-91812481D01*
X179714999Y-91709703D01*
X179714998Y-91709700D01*
X179669850Y-91573453D01*
X179659814Y-91543166D01*
X179567712Y-91393844D01*
X179443656Y-91269788D01*
X179440342Y-91267743D01*
X179438546Y-91265748D01*
X179437989Y-91265307D01*
X179438064Y-91265211D01*
X179393618Y-91215797D01*
X179382397Y-91146834D01*
X179410240Y-91082752D01*
X179440348Y-91056665D01*
X179443342Y-91054818D01*
X179567315Y-90930845D01*
X179659356Y-90781624D01*
X179659358Y-90781619D01*
X179714505Y-90615197D01*
X179714506Y-90615190D01*
X179724999Y-90512486D01*
X179725000Y-90512473D01*
X179725000Y-90375000D01*
X173824000Y-90375000D01*
X173756961Y-90355315D01*
X173711206Y-90302511D01*
X173700000Y-90251000D01*
X173700000Y-90125000D01*
X173574000Y-90125000D01*
X173506961Y-90105315D01*
X173461206Y-90052511D01*
X173450000Y-90001000D01*
X173450000Y-89875000D01*
X173950000Y-89875000D01*
X175850000Y-89875000D01*
X176350000Y-89875000D01*
X178250000Y-89875000D01*
X178750000Y-89875000D01*
X179724999Y-89875000D01*
X179724999Y-89737528D01*
X179724998Y-89737513D01*
X179714505Y-89634802D01*
X179659358Y-89468380D01*
X179659356Y-89468375D01*
X179567315Y-89319154D01*
X179443345Y-89195184D01*
X179294124Y-89103143D01*
X179294119Y-89103141D01*
X179127697Y-89047994D01*
X179127690Y-89047993D01*
X179024986Y-89037500D01*
X178750000Y-89037500D01*
X178750000Y-89875000D01*
X178250000Y-89875000D01*
X178250000Y-89037500D01*
X177975029Y-89037500D01*
X177975012Y-89037501D01*
X177872302Y-89047994D01*
X177705880Y-89103141D01*
X177705875Y-89103143D01*
X177556654Y-89195184D01*
X177432684Y-89319154D01*
X177405539Y-89363164D01*
X177353591Y-89409889D01*
X177284628Y-89421110D01*
X177220546Y-89393267D01*
X177194461Y-89363164D01*
X177167315Y-89319154D01*
X177043345Y-89195184D01*
X176894124Y-89103143D01*
X176894119Y-89103141D01*
X176727697Y-89047994D01*
X176727690Y-89047993D01*
X176624986Y-89037500D01*
X176350000Y-89037500D01*
X176350000Y-89875000D01*
X175850000Y-89875000D01*
X175850000Y-89037500D01*
X175575029Y-89037500D01*
X175575012Y-89037501D01*
X175472302Y-89047994D01*
X175305880Y-89103141D01*
X175305875Y-89103143D01*
X175156654Y-89195184D01*
X175032684Y-89319154D01*
X175005539Y-89363164D01*
X174953591Y-89409889D01*
X174884628Y-89421110D01*
X174820546Y-89393267D01*
X174794461Y-89363164D01*
X174767315Y-89319154D01*
X174643345Y-89195184D01*
X174494124Y-89103143D01*
X174494119Y-89103141D01*
X174327697Y-89047994D01*
X174327690Y-89047993D01*
X174224986Y-89037500D01*
X173950000Y-89037500D01*
X173950000Y-89875000D01*
X173450000Y-89875000D01*
X173450000Y-89037500D01*
X173175029Y-89037500D01*
X173175012Y-89037501D01*
X173072302Y-89047994D01*
X172905880Y-89103141D01*
X172905875Y-89103143D01*
X172756654Y-89195184D01*
X172632684Y-89319154D01*
X172580039Y-89404506D01*
X172528091Y-89451230D01*
X172459128Y-89462453D01*
X172395046Y-89434609D01*
X172356190Y-89376540D01*
X172350500Y-89339409D01*
X172350500Y-86953667D01*
X172368384Y-86889516D01*
X172378521Y-86872748D01*
X172421531Y-86801602D01*
X172469430Y-86647887D01*
X172475500Y-86581091D01*
X172475500Y-86324986D01*
X173175001Y-86324986D01*
X173185494Y-86427697D01*
X173240641Y-86594119D01*
X173240643Y-86594124D01*
X173332684Y-86743345D01*
X173456654Y-86867315D01*
X173605875Y-86959356D01*
X173605880Y-86959358D01*
X173772302Y-87014505D01*
X173772309Y-87014506D01*
X173875019Y-87024999D01*
X174149999Y-87024999D01*
X174650000Y-87024999D01*
X174924972Y-87024999D01*
X174924986Y-87024998D01*
X175027697Y-87014505D01*
X175194119Y-86959358D01*
X175194124Y-86959356D01*
X175343345Y-86867315D01*
X175467315Y-86743345D01*
X175559356Y-86594124D01*
X175559358Y-86594119D01*
X175614505Y-86427697D01*
X175614506Y-86427690D01*
X175624999Y-86324986D01*
X180175001Y-86324986D01*
X180185494Y-86427697D01*
X180240641Y-86594119D01*
X180240643Y-86594124D01*
X180332684Y-86743345D01*
X180456654Y-86867315D01*
X180605875Y-86959356D01*
X180605880Y-86959358D01*
X180772302Y-87014505D01*
X180772309Y-87014506D01*
X180875019Y-87024999D01*
X181149999Y-87024999D01*
X181650000Y-87024999D01*
X181924972Y-87024999D01*
X181924986Y-87024998D01*
X182027697Y-87014505D01*
X182194119Y-86959358D01*
X182194124Y-86959356D01*
X182343345Y-86867315D01*
X182467315Y-86743345D01*
X182559356Y-86594124D01*
X182559360Y-86594115D01*
X182582293Y-86524906D01*
X182622064Y-86467460D01*
X182686580Y-86440636D01*
X182755356Y-86452950D01*
X182806556Y-86500492D01*
X182817705Y-86524903D01*
X182840642Y-86594121D01*
X182840643Y-86594124D01*
X182932684Y-86743345D01*
X183056654Y-86867315D01*
X183205875Y-86959356D01*
X183205880Y-86959358D01*
X183372302Y-87014505D01*
X183372309Y-87014506D01*
X183475019Y-87024999D01*
X183749999Y-87024999D01*
X184250000Y-87024999D01*
X184524972Y-87024999D01*
X184524986Y-87024998D01*
X184627697Y-87014505D01*
X184794119Y-86959358D01*
X184794124Y-86959356D01*
X184943345Y-86867315D01*
X185067315Y-86743345D01*
X185159356Y-86594124D01*
X185159360Y-86594115D01*
X185182293Y-86524906D01*
X185222064Y-86467460D01*
X185286580Y-86440636D01*
X185355356Y-86452950D01*
X185406556Y-86500492D01*
X185417705Y-86524903D01*
X185440642Y-86594121D01*
X185440643Y-86594124D01*
X185532684Y-86743345D01*
X185656654Y-86867315D01*
X185805875Y-86959356D01*
X185805880Y-86959358D01*
X185972302Y-87014505D01*
X185972309Y-87014506D01*
X186075019Y-87024999D01*
X186349999Y-87024999D01*
X186850000Y-87024999D01*
X187124972Y-87024999D01*
X187124986Y-87024998D01*
X187227697Y-87014505D01*
X187394119Y-86959358D01*
X187394124Y-86959356D01*
X187543345Y-86867315D01*
X187667315Y-86743345D01*
X187759356Y-86594124D01*
X187759358Y-86594119D01*
X187814505Y-86427697D01*
X187814506Y-86427690D01*
X187824999Y-86324986D01*
X187825000Y-86324973D01*
X187825000Y-86187500D01*
X186850000Y-86187500D01*
X186850000Y-87024999D01*
X186349999Y-87024999D01*
X186350000Y-87024998D01*
X186350000Y-86187500D01*
X185364459Y-86187500D01*
X185326356Y-86208305D01*
X185256664Y-86203319D01*
X185232050Y-86187500D01*
X184250000Y-86187500D01*
X184250000Y-87024999D01*
X183749999Y-87024999D01*
X183750000Y-87024998D01*
X183750000Y-86187500D01*
X182764459Y-86187500D01*
X182726356Y-86208305D01*
X182656664Y-86203319D01*
X182632050Y-86187500D01*
X181650000Y-86187500D01*
X181650000Y-87024999D01*
X181149999Y-87024999D01*
X181150000Y-87024998D01*
X181150000Y-86187500D01*
X180175001Y-86187500D01*
X180175001Y-86324986D01*
X175624999Y-86324986D01*
X175625000Y-86324973D01*
X175625000Y-86187500D01*
X174650000Y-86187500D01*
X174650000Y-87024999D01*
X174149999Y-87024999D01*
X174150000Y-87024998D01*
X174150000Y-86187500D01*
X173175001Y-86187500D01*
X173175001Y-86324986D01*
X172475500Y-86324986D01*
X172475499Y-85690000D01*
X172475499Y-84798901D01*
X172469431Y-84732117D01*
X172469428Y-84732106D01*
X172421532Y-84578401D01*
X172421531Y-84578400D01*
X172421531Y-84578398D01*
X172338236Y-84440612D01*
X172338234Y-84440610D01*
X172338233Y-84440608D01*
X172333607Y-84434703D01*
X172335842Y-84432951D01*
X172308692Y-84383229D01*
X172313676Y-84313537D01*
X172342177Y-84269189D01*
X172343650Y-84267715D01*
X172343656Y-84267712D01*
X172467712Y-84143656D01*
X172559814Y-83994334D01*
X172562744Y-83985493D01*
X172602518Y-83928049D01*
X172667035Y-83901228D01*
X172680449Y-83900500D01*
X173050501Y-83900500D01*
X173117540Y-83920185D01*
X173163295Y-83972989D01*
X173174501Y-84024500D01*
X173174501Y-84250018D01*
X173185000Y-84352796D01*
X173185001Y-84352799D01*
X173233491Y-84499131D01*
X173240186Y-84519334D01*
X173332288Y-84668656D01*
X173456344Y-84792712D01*
X173459628Y-84794737D01*
X173459653Y-84794753D01*
X173461445Y-84796746D01*
X173462011Y-84797193D01*
X173461934Y-84797289D01*
X173506379Y-84846699D01*
X173517603Y-84915661D01*
X173489761Y-84979744D01*
X173459665Y-85005826D01*
X173456660Y-85007679D01*
X173456655Y-85007683D01*
X173332684Y-85131654D01*
X173240643Y-85280875D01*
X173240641Y-85280880D01*
X173185494Y-85447302D01*
X173185493Y-85447309D01*
X173175000Y-85550013D01*
X173175000Y-85687500D01*
X175624999Y-85687500D01*
X175624999Y-85550028D01*
X175624998Y-85550013D01*
X175614505Y-85447302D01*
X175559358Y-85280880D01*
X175559356Y-85280875D01*
X175467315Y-85131654D01*
X175343344Y-85007683D01*
X175343341Y-85007681D01*
X175340339Y-85005829D01*
X175338713Y-85004021D01*
X175337677Y-85003202D01*
X175337817Y-85003024D01*
X175293617Y-84953880D01*
X175282397Y-84884917D01*
X175310243Y-84820836D01*
X175340344Y-84794754D01*
X175343656Y-84792712D01*
X175467712Y-84668656D01*
X175496549Y-84621902D01*
X175548497Y-84575179D01*
X175602088Y-84563000D01*
X180197912Y-84563000D01*
X180264951Y-84582685D01*
X180303449Y-84621901D01*
X180332288Y-84668656D01*
X180456344Y-84792712D01*
X180459628Y-84794737D01*
X180459653Y-84794753D01*
X180461445Y-84796746D01*
X180462011Y-84797193D01*
X180461934Y-84797289D01*
X180506379Y-84846699D01*
X180517603Y-84915661D01*
X180489761Y-84979744D01*
X180459665Y-85005826D01*
X180456660Y-85007679D01*
X180456655Y-85007683D01*
X180332684Y-85131654D01*
X180240643Y-85280875D01*
X180240641Y-85280880D01*
X180185494Y-85447302D01*
X180185493Y-85447309D01*
X180175000Y-85550013D01*
X180175000Y-85687500D01*
X182635540Y-85687500D01*
X182673638Y-85666695D01*
X182743330Y-85671678D01*
X182767950Y-85687500D01*
X185235540Y-85687500D01*
X185273638Y-85666695D01*
X185343330Y-85671678D01*
X185367950Y-85687500D01*
X187824999Y-85687500D01*
X187824999Y-85550028D01*
X187824998Y-85550013D01*
X187814505Y-85447302D01*
X187759358Y-85280880D01*
X187759356Y-85280875D01*
X187667315Y-85131654D01*
X187543344Y-85007683D01*
X187543341Y-85007681D01*
X187540339Y-85005829D01*
X187538713Y-85004021D01*
X187537677Y-85003202D01*
X187537817Y-85003024D01*
X187493617Y-84953880D01*
X187482397Y-84884917D01*
X187510243Y-84820836D01*
X187540344Y-84794754D01*
X187543656Y-84792712D01*
X187667712Y-84668656D01*
X187759814Y-84519334D01*
X187814999Y-84352797D01*
X187825500Y-84250009D01*
X187825499Y-83474992D01*
X187814999Y-83372203D01*
X187759814Y-83205666D01*
X187667712Y-83056344D01*
X187543656Y-82932288D01*
X187394334Y-82840186D01*
X187227797Y-82785001D01*
X187227795Y-82785000D01*
X187125010Y-82774500D01*
X186074998Y-82774500D01*
X186074980Y-82774501D01*
X185972203Y-82785000D01*
X185972200Y-82785001D01*
X185805668Y-82840185D01*
X185805663Y-82840187D01*
X185656342Y-82932289D01*
X185532289Y-83056342D01*
X185503451Y-83103097D01*
X185495863Y-83109921D01*
X185491625Y-83119203D01*
X185470325Y-83132891D01*
X185451503Y-83149821D01*
X185439867Y-83152465D01*
X185432847Y-83156977D01*
X185397912Y-83162000D01*
X185202088Y-83162000D01*
X185135049Y-83142315D01*
X185096549Y-83103097D01*
X185067712Y-83056344D01*
X184943656Y-82932288D01*
X184794334Y-82840186D01*
X184794333Y-82840185D01*
X184794332Y-82840185D01*
X184785493Y-82837256D01*
X184728049Y-82797482D01*
X184701228Y-82732965D01*
X184700500Y-82719551D01*
X184700500Y-82010099D01*
X184720185Y-81943060D01*
X184721398Y-81941208D01*
X184798013Y-81826547D01*
X184865894Y-81662666D01*
X184866509Y-81659577D01*
X184900499Y-81488695D01*
X184900500Y-81488693D01*
X184900500Y-81311306D01*
X184900499Y-81311304D01*
X184865896Y-81137341D01*
X184865893Y-81137332D01*
X184798016Y-80973459D01*
X184798009Y-80973446D01*
X184699464Y-80825965D01*
X184699461Y-80825961D01*
X184574038Y-80700538D01*
X184574034Y-80700535D01*
X184426553Y-80601990D01*
X184426540Y-80601983D01*
X184262667Y-80534106D01*
X184262658Y-80534103D01*
X184088694Y-80499500D01*
X184088691Y-80499500D01*
X183911309Y-80499500D01*
X183911306Y-80499500D01*
X183737341Y-80534103D01*
X183737332Y-80534106D01*
X183573459Y-80601983D01*
X183573446Y-80601990D01*
X183425965Y-80700535D01*
X183425961Y-80700538D01*
X183300538Y-80825961D01*
X183300535Y-80825965D01*
X183201990Y-80973446D01*
X183201983Y-80973459D01*
X183134106Y-81137332D01*
X183134103Y-81137341D01*
X183099500Y-81311304D01*
X183099500Y-81488695D01*
X183106610Y-81524440D01*
X183100383Y-81594032D01*
X183057519Y-81649209D01*
X182991629Y-81672453D01*
X182923632Y-81656385D01*
X182897312Y-81636312D01*
X182774038Y-81513038D01*
X182774034Y-81513035D01*
X182626553Y-81414490D01*
X182626540Y-81414483D01*
X182462667Y-81346606D01*
X182462658Y-81346603D01*
X182288694Y-81312000D01*
X182288691Y-81312000D01*
X182111309Y-81312000D01*
X182111306Y-81312000D01*
X181937341Y-81346603D01*
X181937332Y-81346606D01*
X181773459Y-81414483D01*
X181773446Y-81414490D01*
X181625965Y-81513035D01*
X181625961Y-81513038D01*
X181500538Y-81638461D01*
X181500535Y-81638465D01*
X181401990Y-81785946D01*
X181401983Y-81785959D01*
X181334106Y-81949832D01*
X181334104Y-81949840D01*
X181307202Y-82085086D01*
X181298436Y-82101842D01*
X181294417Y-82120321D01*
X181275672Y-82145359D01*
X181274817Y-82146996D01*
X181273266Y-82148575D01*
X181132961Y-82288880D01*
X181071638Y-82322365D01*
X181001946Y-82317381D01*
X180946013Y-82275509D01*
X180942189Y-82270107D01*
X180881789Y-82179711D01*
X180881787Y-82179708D01*
X180770292Y-82068213D01*
X180770288Y-82068210D01*
X180639185Y-81980609D01*
X180639172Y-81980602D01*
X180493501Y-81920264D01*
X180493489Y-81920261D01*
X180338845Y-81889500D01*
X180338842Y-81889500D01*
X180181158Y-81889500D01*
X180181155Y-81889500D01*
X180026510Y-81920261D01*
X180026498Y-81920264D01*
X179880827Y-81980602D01*
X179880814Y-81980609D01*
X179749125Y-82068602D01*
X179682447Y-82089480D01*
X179680234Y-82089500D01*
X176690097Y-82089500D01*
X176623058Y-82069815D01*
X176602416Y-82053181D01*
X172136819Y-77587584D01*
X172103334Y-77526261D01*
X172100500Y-77499903D01*
X172100500Y-77161306D01*
X172100499Y-77161304D01*
X172071351Y-77014765D01*
X172067097Y-76993384D01*
X174699500Y-76993384D01*
X174699500Y-78006616D01*
X174701047Y-78023641D01*
X174705913Y-78077192D01*
X174705913Y-78077194D01*
X174705914Y-78077196D01*
X174736874Y-78176553D01*
X174756522Y-78239606D01*
X174844530Y-78385188D01*
X174964811Y-78505469D01*
X174964813Y-78505470D01*
X174964815Y-78505472D01*
X175110394Y-78593478D01*
X175272804Y-78644086D01*
X175343384Y-78650500D01*
X175343387Y-78650500D01*
X175856613Y-78650500D01*
X175856616Y-78650500D01*
X175927196Y-78644086D01*
X176089606Y-78593478D01*
X176233125Y-78506717D01*
X176300676Y-78488882D01*
X176366162Y-78509733D01*
X176423450Y-78548011D01*
X176423457Y-78548015D01*
X176467964Y-78566450D01*
X176587334Y-78615894D01*
X176587336Y-78615894D01*
X176587341Y-78615896D01*
X176761304Y-78650499D01*
X176761307Y-78650500D01*
X176761309Y-78650500D01*
X176938693Y-78650500D01*
X176938694Y-78650499D01*
X177019686Y-78634389D01*
X177112658Y-78615896D01*
X177112661Y-78615894D01*
X177112666Y-78615894D01*
X177252535Y-78557958D01*
X177276540Y-78548016D01*
X177276540Y-78548015D01*
X177276547Y-78548013D01*
X177406109Y-78461442D01*
X177472786Y-78440564D01*
X177540166Y-78459048D01*
X177543891Y-78461442D01*
X177673447Y-78548009D01*
X177673453Y-78548013D01*
X177673455Y-78548014D01*
X177673459Y-78548016D01*
X177717964Y-78566450D01*
X177837334Y-78615894D01*
X177837336Y-78615894D01*
X177837341Y-78615896D01*
X178011304Y-78650499D01*
X178011307Y-78650500D01*
X178011309Y-78650500D01*
X178188693Y-78650500D01*
X178188694Y-78650499D01*
X178269686Y-78634389D01*
X178362658Y-78615896D01*
X178362661Y-78615894D01*
X178362666Y-78615894D01*
X178502535Y-78557958D01*
X178526540Y-78548016D01*
X178526540Y-78548015D01*
X178526547Y-78548013D01*
X178656109Y-78461442D01*
X178722786Y-78440564D01*
X178790166Y-78459048D01*
X178793891Y-78461442D01*
X178923447Y-78548009D01*
X178923453Y-78548013D01*
X178923455Y-78548014D01*
X178923459Y-78548016D01*
X178967964Y-78566450D01*
X179087334Y-78615894D01*
X179087336Y-78615894D01*
X179087341Y-78615896D01*
X179261304Y-78650499D01*
X179261307Y-78650500D01*
X179261309Y-78650500D01*
X179438693Y-78650500D01*
X179438694Y-78650499D01*
X179519686Y-78634389D01*
X179612658Y-78615896D01*
X179612661Y-78615894D01*
X179612666Y-78615894D01*
X179752535Y-78557958D01*
X179776540Y-78548016D01*
X179776540Y-78548015D01*
X179776547Y-78548013D01*
X179924035Y-78449464D01*
X180049464Y-78324035D01*
X180148013Y-78176547D01*
X180215894Y-78012666D01*
X180217098Y-78006616D01*
X180250499Y-77838695D01*
X180250500Y-77838693D01*
X180250500Y-77161306D01*
X180250499Y-77161304D01*
X180215896Y-76987341D01*
X180215893Y-76987332D01*
X180215582Y-76986582D01*
X180167962Y-76871614D01*
X180148016Y-76823459D01*
X180148009Y-76823446D01*
X180049464Y-76675965D01*
X180049461Y-76675961D01*
X179924038Y-76550538D01*
X179924034Y-76550535D01*
X179776553Y-76451990D01*
X179776540Y-76451983D01*
X179612667Y-76384106D01*
X179612658Y-76384103D01*
X179438694Y-76349500D01*
X179438691Y-76349500D01*
X179261309Y-76349500D01*
X179261306Y-76349500D01*
X179087341Y-76384103D01*
X179087332Y-76384106D01*
X178923459Y-76451983D01*
X178923446Y-76451990D01*
X178793891Y-76538557D01*
X178727213Y-76559435D01*
X178659833Y-76540950D01*
X178656109Y-76538557D01*
X178526553Y-76451990D01*
X178526540Y-76451983D01*
X178362667Y-76384106D01*
X178362658Y-76384103D01*
X178188694Y-76349500D01*
X178188691Y-76349500D01*
X178011309Y-76349500D01*
X178011306Y-76349500D01*
X177837341Y-76384103D01*
X177837332Y-76384106D01*
X177673459Y-76451983D01*
X177673446Y-76451990D01*
X177543891Y-76538557D01*
X177477213Y-76559435D01*
X177409833Y-76540950D01*
X177406109Y-76538557D01*
X177276553Y-76451990D01*
X177276540Y-76451983D01*
X177112667Y-76384106D01*
X177112658Y-76384103D01*
X176938694Y-76349500D01*
X176938691Y-76349500D01*
X176761309Y-76349500D01*
X176761306Y-76349500D01*
X176587341Y-76384103D01*
X176587332Y-76384106D01*
X176423460Y-76451983D01*
X176423449Y-76451989D01*
X176366162Y-76490267D01*
X176299484Y-76511144D01*
X176233122Y-76493281D01*
X176089606Y-76406522D01*
X176017659Y-76384103D01*
X175927196Y-76355914D01*
X175927194Y-76355913D01*
X175927192Y-76355913D01*
X175877778Y-76351423D01*
X175856616Y-76349500D01*
X175343384Y-76349500D01*
X175324145Y-76351248D01*
X175272807Y-76355913D01*
X175110393Y-76406522D01*
X174964811Y-76494530D01*
X174844530Y-76614811D01*
X174756522Y-76760393D01*
X174705913Y-76922807D01*
X174704175Y-76941940D01*
X174699500Y-76993384D01*
X172067097Y-76993384D01*
X172065895Y-76987340D01*
X172065894Y-76987334D01*
X172017962Y-76871614D01*
X171998016Y-76823459D01*
X171998009Y-76823446D01*
X171899464Y-76675965D01*
X171899461Y-76675961D01*
X171774038Y-76550538D01*
X171774034Y-76550535D01*
X171626553Y-76451990D01*
X171626540Y-76451983D01*
X171462667Y-76384106D01*
X171462658Y-76384103D01*
X171288694Y-76349500D01*
X171288691Y-76349500D01*
X171111309Y-76349500D01*
X171111306Y-76349500D01*
X170937341Y-76384103D01*
X170937332Y-76384106D01*
X170773460Y-76451983D01*
X170773449Y-76451989D01*
X170716162Y-76490267D01*
X170649484Y-76511144D01*
X170583122Y-76493281D01*
X170439606Y-76406522D01*
X170367659Y-76384103D01*
X170277196Y-76355914D01*
X170277194Y-76355913D01*
X170277192Y-76355913D01*
X170227778Y-76351423D01*
X170206616Y-76349500D01*
X169693384Y-76349500D01*
X169674145Y-76351248D01*
X169622807Y-76355913D01*
X169460393Y-76406522D01*
X169314811Y-76494530D01*
X169194530Y-76614811D01*
X169106522Y-76760393D01*
X169055913Y-76922807D01*
X169049500Y-76993386D01*
X169049500Y-77900903D01*
X169029815Y-77967942D01*
X168977011Y-78013697D01*
X168907853Y-78023641D01*
X168844297Y-77994616D01*
X168837819Y-77988584D01*
X167607590Y-76758355D01*
X167607588Y-76758352D01*
X167488717Y-76639481D01*
X167488716Y-76639480D01*
X167401904Y-76589360D01*
X167401904Y-76589359D01*
X167401900Y-76589358D01*
X167351785Y-76560423D01*
X167199057Y-76519499D01*
X167199055Y-76519499D01*
X167191206Y-76517396D01*
X167191625Y-76515830D01*
X167136384Y-76491385D01*
X167109533Y-76456240D01*
X167108605Y-76456813D01*
X167104812Y-76450663D01*
X167012712Y-76301344D01*
X166888656Y-76177288D01*
X166739334Y-76085186D01*
X166572797Y-76030001D01*
X166572795Y-76030000D01*
X166470010Y-76019500D01*
X165469998Y-76019500D01*
X165469980Y-76019501D01*
X165367203Y-76030000D01*
X165367200Y-76030001D01*
X165200668Y-76085185D01*
X165200663Y-76085187D01*
X165051342Y-76177289D01*
X164927289Y-76301342D01*
X164835187Y-76450663D01*
X164835185Y-76450668D01*
X164813593Y-76515830D01*
X164780001Y-76617203D01*
X164780001Y-76617204D01*
X164780000Y-76617204D01*
X164769500Y-76719983D01*
X164769500Y-76719991D01*
X164769500Y-77014765D01*
X164769501Y-77255500D01*
X164749817Y-77322539D01*
X164697013Y-77368294D01*
X164645501Y-77379500D01*
X164111649Y-77379500D01*
X164044610Y-77359815D01*
X163998855Y-77307011D01*
X163988911Y-77237853D01*
X163993264Y-77218610D01*
X164043590Y-77057106D01*
X164050000Y-76986572D01*
X164050000Y-76980000D01*
X162949728Y-76980000D01*
X163041614Y-76941940D01*
X163111940Y-76871614D01*
X163150000Y-76779728D01*
X163150000Y-76680272D01*
X163111940Y-76588386D01*
X163041614Y-76518060D01*
X162949728Y-76480000D01*
X163150000Y-76480000D01*
X164049999Y-76480000D01*
X164049999Y-76473417D01*
X164043591Y-76402897D01*
X164043590Y-76402892D01*
X163993018Y-76240603D01*
X163905072Y-76095122D01*
X163784877Y-75974927D01*
X163639395Y-75886980D01*
X163639396Y-75886980D01*
X163477105Y-75836409D01*
X163477106Y-75836409D01*
X163406572Y-75830000D01*
X163150000Y-75830000D01*
X163150000Y-76480000D01*
X162949728Y-76480000D01*
X162850272Y-76480000D01*
X162758386Y-76518060D01*
X162688060Y-76588386D01*
X162650000Y-76680272D01*
X162650000Y-76779728D01*
X162688060Y-76871614D01*
X162758386Y-76941940D01*
X162850272Y-76980000D01*
X161750001Y-76980000D01*
X161750001Y-76986582D01*
X161756408Y-77057102D01*
X161756409Y-77057107D01*
X161806981Y-77219396D01*
X161893588Y-77362662D01*
X161911424Y-77430217D01*
X161890574Y-77495702D01*
X161851989Y-77553448D01*
X161851983Y-77553459D01*
X161784106Y-77717332D01*
X161784103Y-77717341D01*
X161749500Y-77891304D01*
X158013000Y-77891304D01*
X158013000Y-76473427D01*
X161750000Y-76473427D01*
X161750000Y-76480000D01*
X162650000Y-76480000D01*
X162650000Y-75830000D01*
X162393417Y-75830000D01*
X162322897Y-75836408D01*
X162322892Y-75836409D01*
X162160603Y-75886981D01*
X162015122Y-75974927D01*
X161894927Y-76095122D01*
X161806980Y-76240604D01*
X161756409Y-76402893D01*
X161750000Y-76473427D01*
X158013000Y-76473427D01*
X158013000Y-75269500D01*
X158032685Y-75202461D01*
X158085489Y-75156706D01*
X158137000Y-75145500D01*
X188186000Y-75145500D01*
X188253039Y-75165185D01*
G37*
%TD.AperFunction*%
%TD*%
M02*
