%TF.GenerationSoftware,KiCad,Pcbnew,9.0.1*%
%TF.CreationDate,2025-07-19T18:14:50+02:00*%
%TF.ProjectId,ventilation,76656e74-696c-4617-9469-6f6e2e6b6963,rev?*%
%TF.SameCoordinates,Original*%
%TF.FileFunction,Copper,L1,Top*%
%TF.FilePolarity,Positive*%
%FSLAX46Y46*%
G04 Gerber Fmt 4.6, Leading zero omitted, Abs format (unit mm)*
G04 Created by KiCad (PCBNEW 9.0.1) date 2025-07-19 18:14:50*
%MOMM*%
%LPD*%
G01*
G04 APERTURE LIST*
G04 Aperture macros list*
%AMRoundRect*
0 Rectangle with rounded corners*
0 $1 Rounding radius*
0 $2 $3 $4 $5 $6 $7 $8 $9 X,Y pos of 4 corners*
0 Add a 4 corners polygon primitive as box body*
4,1,4,$2,$3,$4,$5,$6,$7,$8,$9,$2,$3,0*
0 Add four circle primitives for the rounded corners*
1,1,$1+$1,$2,$3*
1,1,$1+$1,$4,$5*
1,1,$1+$1,$6,$7*
1,1,$1+$1,$8,$9*
0 Add four rect primitives between the rounded corners*
20,1,$1+$1,$2,$3,$4,$5,0*
20,1,$1+$1,$4,$5,$6,$7,0*
20,1,$1+$1,$6,$7,$8,$9,0*
20,1,$1+$1,$8,$9,$2,$3,0*%
G04 Aperture macros list end*
%TA.AperFunction,SMDPad,CuDef*%
%ADD10RoundRect,0.250000X0.262500X0.450000X-0.262500X0.450000X-0.262500X-0.450000X0.262500X-0.450000X0*%
%TD*%
%TA.AperFunction,SMDPad,CuDef*%
%ADD11RoundRect,0.243750X-0.243750X-0.456250X0.243750X-0.456250X0.243750X0.456250X-0.243750X0.456250X0*%
%TD*%
%TA.AperFunction,SMDPad,CuDef*%
%ADD12RoundRect,0.250000X0.250000X0.475000X-0.250000X0.475000X-0.250000X-0.475000X0.250000X-0.475000X0*%
%TD*%
%TA.AperFunction,ComponentPad*%
%ADD13RoundRect,0.200000X-0.450000X0.200000X-0.450000X-0.200000X0.450000X-0.200000X0.450000X0.200000X0*%
%TD*%
%TA.AperFunction,ComponentPad*%
%ADD14O,1.300000X0.800000*%
%TD*%
%TA.AperFunction,SMDPad,CuDef*%
%ADD15RoundRect,0.250000X-0.250000X-0.475000X0.250000X-0.475000X0.250000X0.475000X-0.250000X0.475000X0*%
%TD*%
%TA.AperFunction,ComponentPad*%
%ADD16RoundRect,0.285750X-0.666750X-0.666750X0.666750X-0.666750X0.666750X0.666750X-0.666750X0.666750X0*%
%TD*%
%TA.AperFunction,ComponentPad*%
%ADD17C,1.905000*%
%TD*%
%TA.AperFunction,SMDPad,CuDef*%
%ADD18O,2.000000X0.600000*%
%TD*%
%TA.AperFunction,ComponentPad*%
%ADD19RoundRect,0.200000X-0.200000X-0.450000X0.200000X-0.450000X0.200000X0.450000X-0.200000X0.450000X0*%
%TD*%
%TA.AperFunction,ComponentPad*%
%ADD20O,0.800000X1.300000*%
%TD*%
%TA.AperFunction,SMDPad,CuDef*%
%ADD21RoundRect,0.250000X-0.450000X0.262500X-0.450000X-0.262500X0.450000X-0.262500X0.450000X0.262500X0*%
%TD*%
%TA.AperFunction,SMDPad,CuDef*%
%ADD22RoundRect,0.075000X0.075000X-0.662500X0.075000X0.662500X-0.075000X0.662500X-0.075000X-0.662500X0*%
%TD*%
%TA.AperFunction,SMDPad,CuDef*%
%ADD23RoundRect,0.075000X0.662500X-0.075000X0.662500X0.075000X-0.662500X0.075000X-0.662500X-0.075000X0*%
%TD*%
%TA.AperFunction,SMDPad,CuDef*%
%ADD24RoundRect,0.250000X0.450000X-0.262500X0.450000X0.262500X-0.450000X0.262500X-0.450000X-0.262500X0*%
%TD*%
%TA.AperFunction,ComponentPad*%
%ADD25RoundRect,0.200000X0.200000X0.450000X-0.200000X0.450000X-0.200000X-0.450000X0.200000X-0.450000X0*%
%TD*%
%TA.AperFunction,ViaPad*%
%ADD26C,0.800000*%
%TD*%
%TA.AperFunction,ViaPad*%
%ADD27C,0.600000*%
%TD*%
%TA.AperFunction,Conductor*%
%ADD28C,0.400000*%
%TD*%
%TA.AperFunction,Conductor*%
%ADD29C,0.200000*%
%TD*%
G04 APERTURE END LIST*
D10*
%TO.P,R5,1*%
%TO.N,Net-(D2-K)*%
X184037500Y-77300000D03*
%TO.P,R5,2*%
%TO.N,/LED_GREEN*%
X182212500Y-77300000D03*
%TD*%
D11*
%TO.P,D2,1,K*%
%TO.N,Net-(D2-K)*%
X185952500Y-77300000D03*
%TO.P,D2,2,A*%
%TO.N,+3V3*%
X187827500Y-77300000D03*
%TD*%
D10*
%TO.P,R7,1*%
%TO.N,/ADC_V_EXT*%
X173292500Y-100040000D03*
%TO.P,R7,2*%
%TO.N,/VCC_SERVO*%
X171467500Y-100040000D03*
%TD*%
D12*
%TO.P,C9,1*%
%TO.N,GND*%
X178670000Y-97870000D03*
%TO.P,C9,2*%
%TO.N,/ADC_V_EXT*%
X176770000Y-97870000D03*
%TD*%
D11*
%TO.P,D1,1,K*%
%TO.N,Net-(D1-K)*%
X185962500Y-79700000D03*
%TO.P,D1,2,A*%
%TO.N,+3V3*%
X187837500Y-79700000D03*
%TD*%
D10*
%TO.P,R8,1*%
%TO.N,GND*%
X178612500Y-100085000D03*
%TO.P,R8,2*%
%TO.N,/ADC_V_EXT*%
X176787500Y-100085000D03*
%TD*%
%TO.P,R1,1*%
%TO.N,+3V3*%
X173262500Y-95400000D03*
%TO.P,R1,2*%
%TO.N,/RESET*%
X171437500Y-95400000D03*
%TD*%
D13*
%TO.P,J2,1,Pin_1*%
%TO.N,GND*%
X162900000Y-76730000D03*
D14*
%TO.P,J2,2,Pin_2*%
%TO.N,+3V3*%
X162900000Y-77980000D03*
%TO.P,J2,3,Pin_3*%
%TO.N,/I2C_SCL*%
X162900000Y-79230000D03*
%TO.P,J2,4,Pin_4*%
%TO.N,/I2C_SDA*%
X162900000Y-80480000D03*
%TD*%
D15*
%TO.P,C6,1*%
%TO.N,/RESET*%
X171400000Y-97800000D03*
%TO.P,C6,2*%
%TO.N,GND*%
X173300000Y-97800000D03*
%TD*%
D16*
%TO.P,J1,1,Pin_1*%
%TO.N,GND*%
X164940000Y-93580000D03*
D17*
%TO.P,J1,2,Pin_2*%
%TO.N,/SIG_SERVO*%
X164940000Y-96120000D03*
%TO.P,J1,3,Pin_3*%
%TO.N,/VCC_SERVO*%
X164940000Y-98660000D03*
%TD*%
D18*
%TO.P,NRF1,1,VCC*%
%TO.N,+3V3*%
X183862500Y-84060000D03*
%TO.P,NRF1,2,GND*%
%TO.N,GND*%
X183862500Y-85330000D03*
%TO.P,NRF1,3,CE*%
%TO.N,/SPI_CE*%
X183862500Y-86600000D03*
%TO.P,NRF1,4,CSN*%
%TO.N,/SPI_CSN*%
X183862500Y-87870000D03*
%TO.P,NRF1,5,SCK*%
%TO.N,/SPI_SCK*%
X183862500Y-89140000D03*
%TO.P,NRF1,6,MOSI*%
%TO.N,/SPI_MOSI*%
X183862500Y-90410000D03*
%TO.P,NRF1,7,MISO*%
%TO.N,/SPI_MISO*%
X183862500Y-91680000D03*
%TO.P,NRF1,8,IRQ*%
%TO.N,unconnected-(NRF1-IRQ-Pad8)*%
X183862500Y-92950000D03*
%TD*%
D17*
%TO.P,J5,1,Pin_1*%
%TO.N,GND*%
X164970000Y-85460000D03*
D16*
%TO.P,J5,2,Pin_2*%
%TO.N,+BATT*%
X164970000Y-88000000D03*
%TD*%
D19*
%TO.P,J7,1,Pin_1*%
%TO.N,/BOOT*%
X169950000Y-77500000D03*
D20*
%TO.P,J7,2,Pin_2*%
%TO.N,/RESET*%
X171200000Y-77500000D03*
%TD*%
D10*
%TO.P,R4,1*%
%TO.N,Net-(D1-K)*%
X184025000Y-79600000D03*
%TO.P,R4,2*%
%TO.N,/LED_RED*%
X182200000Y-79600000D03*
%TD*%
D21*
%TO.P,R2,1*%
%TO.N,/BOOT*%
X168330000Y-88307500D03*
%TO.P,R2,2*%
%TO.N,GND*%
X168330000Y-90132500D03*
%TD*%
D22*
%TO.P,U1,1,VDD*%
%TO.N,+3V3*%
X172450000Y-91962500D03*
%TO.P,U1,2,PC13*%
%TO.N,unconnected-(U1-PC13-Pad2)*%
X172950000Y-91962500D03*
%TO.P,U1,3,PC14*%
%TO.N,unconnected-(U1-PC14-Pad3)*%
X173450000Y-91962500D03*
%TO.P,U1,4,PC15*%
%TO.N,unconnected-(U1-PC15-Pad4)*%
X173950000Y-91962500D03*
%TO.P,U1,5,PH0*%
%TO.N,unconnected-(U1-PH0-Pad5)*%
X174450000Y-91962500D03*
%TO.P,U1,6,PH1*%
%TO.N,unconnected-(U1-PH1-Pad6)*%
X174950000Y-91962500D03*
%TO.P,U1,7,NRST*%
%TO.N,/RESET*%
X175450000Y-91962500D03*
%TO.P,U1,8,VSSA*%
%TO.N,GND*%
X175950000Y-91962500D03*
%TO.P,U1,9,VDDA*%
%TO.N,+3V3*%
X176450000Y-91962500D03*
%TO.P,U1,10,PA0*%
%TO.N,/ADC_V_EXT*%
X176950000Y-91962500D03*
%TO.P,U1,11,PA1*%
%TO.N,unconnected-(U1-PA1-Pad11)*%
X177450000Y-91962500D03*
%TO.P,U1,12,PA2*%
%TO.N,/SW_SERVO*%
X177950000Y-91962500D03*
D23*
%TO.P,U1,13,PA3*%
%TO.N,/PA3*%
X179362500Y-90550000D03*
%TO.P,U1,14,PA4*%
%TO.N,/PA4*%
X179362500Y-90050000D03*
%TO.P,U1,15,PA5*%
%TO.N,/SPI_SCK*%
X179362500Y-89550000D03*
%TO.P,U1,16,PA6*%
%TO.N,/SPI_MISO*%
X179362500Y-89050000D03*
%TO.P,U1,17,PA7*%
%TO.N,/SPI_MOSI*%
X179362500Y-88550000D03*
%TO.P,U1,18,PB0*%
%TO.N,unconnected-(U1-PB0-Pad18)*%
X179362500Y-88050000D03*
%TO.P,U1,19,PB1*%
%TO.N,unconnected-(U1-PB1-Pad19)*%
X179362500Y-87550000D03*
%TO.P,U1,20,PB2*%
%TO.N,unconnected-(U1-PB2-Pad20)*%
X179362500Y-87050000D03*
%TO.P,U1,21,PB10*%
%TO.N,/SPI_CSN*%
X179362500Y-86550000D03*
%TO.P,U1,22,PB11*%
%TO.N,/SPI_CE*%
X179362500Y-86050000D03*
%TO.P,U1,23,VSS*%
%TO.N,GND*%
X179362500Y-85550000D03*
%TO.P,U1,24,VDD*%
%TO.N,+3V3*%
X179362500Y-85050000D03*
D22*
%TO.P,U1,25,PB12*%
%TO.N,/LED_RED*%
X177950000Y-83637500D03*
%TO.P,U1,26,PB13*%
%TO.N,unconnected-(U1-PB13-Pad26)*%
X177450000Y-83637500D03*
%TO.P,U1,27,PB14*%
%TO.N,unconnected-(U1-PB14-Pad27)*%
X176950000Y-83637500D03*
%TO.P,U1,28,PB15*%
%TO.N,/LED_GREEN*%
X176450000Y-83637500D03*
%TO.P,U1,29,PA8*%
%TO.N,unconnected-(U1-PA8-Pad29)*%
X175950000Y-83637500D03*
%TO.P,U1,30,PA9*%
%TO.N,/USART1_TX*%
X175450000Y-83637500D03*
%TO.P,U1,31,PA10*%
%TO.N,/USART1_RX*%
X174950000Y-83637500D03*
%TO.P,U1,32,PA11*%
%TO.N,unconnected-(U1-PA11-Pad32)*%
X174450000Y-83637500D03*
%TO.P,U1,33,PA12*%
%TO.N,unconnected-(U1-PA12-Pad33)*%
X173950000Y-83637500D03*
%TO.P,U1,34,PA13*%
%TO.N,/SWDIO*%
X173450000Y-83637500D03*
%TO.P,U1,35,VSS*%
%TO.N,GND*%
X172950000Y-83637500D03*
%TO.P,U1,36,VDDIO2*%
%TO.N,+3V3*%
X172450000Y-83637500D03*
D23*
%TO.P,U1,37,PA14*%
%TO.N,/SWCLK*%
X171037500Y-85050000D03*
%TO.P,U1,38,PA15*%
%TO.N,unconnected-(U1-PA15-Pad38)*%
X171037500Y-85550000D03*
%TO.P,U1,39,PB3*%
%TO.N,Net-(U1-PB3)*%
X171037500Y-86050000D03*
%TO.P,U1,40,PB4*%
%TO.N,unconnected-(U1-PB4-Pad40)*%
X171037500Y-86550000D03*
%TO.P,U1,41,PB5*%
%TO.N,unconnected-(U1-PB5-Pad41)*%
X171037500Y-87050000D03*
%TO.P,U1,42,PB6*%
%TO.N,/I2C_SCL*%
X171037500Y-87550000D03*
%TO.P,U1,43,PB7*%
%TO.N,/I2C_SDA*%
X171037500Y-88050000D03*
%TO.P,U1,44,BOOT0*%
%TO.N,/BOOT*%
X171037500Y-88550000D03*
%TO.P,U1,45,PB8*%
%TO.N,unconnected-(U1-PB8-Pad45)*%
X171037500Y-89050000D03*
%TO.P,U1,46,PB9*%
%TO.N,unconnected-(U1-PB9-Pad46)*%
X171037500Y-89550000D03*
%TO.P,U1,47,VSS*%
%TO.N,GND*%
X171037500Y-90050000D03*
%TO.P,U1,48,VDD*%
%TO.N,+3V3*%
X171037500Y-90550000D03*
%TD*%
D19*
%TO.P,J3,1,Pin_1*%
%TO.N,/SWCLK*%
X175600000Y-77500000D03*
D20*
%TO.P,J3,2,Pin_2*%
%TO.N,/SWDIO*%
X176850000Y-77500000D03*
%TO.P,J3,3,Pin_3*%
%TO.N,/USART1_RX*%
X178100000Y-77500000D03*
%TO.P,J3,4,Pin_4*%
%TO.N,/USART1_TX*%
X179350000Y-77500000D03*
%TD*%
D24*
%TO.P,R11,1*%
%TO.N,/SIG_SERVO*%
X168300000Y-95612500D03*
%TO.P,R11,2*%
%TO.N,Net-(U1-PB3)*%
X168300000Y-93787500D03*
%TD*%
D25*
%TO.P,J4,1,Pin_1*%
%TO.N,/PA4*%
X185675000Y-98245000D03*
D20*
%TO.P,J4,2,Pin_2*%
%TO.N,/PA3*%
X184425000Y-98245000D03*
%TO.P,J4,3,Pin_3*%
%TO.N,+3V3*%
X183175000Y-98245000D03*
%TO.P,J4,4,Pin_4*%
%TO.N,GND*%
X181925000Y-98245000D03*
%TD*%
D26*
%TO.N,GND*%
X187200000Y-89060000D03*
X177200000Y-87660000D03*
X176140000Y-95880000D03*
X173900000Y-88030000D03*
%TO.N,+3V3*%
X184000000Y-81400000D03*
X176900000Y-94200000D03*
X168500000Y-92000000D03*
X182200000Y-82212500D03*
X171000000Y-93400000D03*
X172500000Y-81900000D03*
D27*
%TO.N,/RESET*%
X180260000Y-82690000D03*
%TO.N,/SW_SERVO*%
X180200000Y-96400000D03*
%TD*%
D28*
%TO.N,GND*%
X176140000Y-95880000D02*
X175920000Y-95880000D01*
D29*
X172950000Y-87080000D02*
X173900000Y-88030000D01*
D28*
X183862500Y-85330000D02*
X184562500Y-85330000D01*
X173300000Y-97800000D02*
X175220000Y-95880000D01*
X180452500Y-98245000D02*
X181925000Y-98245000D01*
D29*
X175950000Y-88910000D02*
X177200000Y-87660000D01*
X178591176Y-85550000D02*
X177200000Y-86941176D01*
D28*
X168120000Y-90400000D02*
X168300000Y-90400000D01*
X178670000Y-97870000D02*
X178670000Y-100027500D01*
D29*
X172950000Y-83637500D02*
X172950000Y-87080000D01*
D28*
X178612500Y-100085000D02*
X180452500Y-98245000D01*
X187200000Y-87967500D02*
X187200000Y-89060000D01*
X175220000Y-95880000D02*
X176140000Y-95880000D01*
D29*
X168412500Y-90050000D02*
X168330000Y-90132500D01*
D28*
X168330000Y-90190000D02*
X164940000Y-93580000D01*
X178670000Y-100027500D02*
X178612500Y-100085000D01*
D29*
X179362500Y-85550000D02*
X178591176Y-85550000D01*
X175950000Y-91962500D02*
X175950000Y-88910000D01*
D28*
X184562500Y-85330000D02*
X187200000Y-87967500D01*
X164940000Y-93580000D02*
X165120000Y-93580000D01*
D29*
X171037500Y-90050000D02*
X168412500Y-90050000D01*
X177200000Y-86941176D02*
X177200000Y-87660000D01*
%TO.N,+3V3*%
X174420000Y-95400000D02*
X175820000Y-94000000D01*
X187827500Y-79690000D02*
X187837500Y-79700000D01*
X176450000Y-93370000D02*
X175820000Y-94000000D01*
X179362500Y-85050000D02*
X182200000Y-82212500D01*
X172450000Y-91962500D02*
X171012500Y-93400000D01*
X172500000Y-83587500D02*
X172450000Y-83637500D01*
X176450000Y-93750000D02*
X176900000Y-94200000D01*
X176450000Y-91962500D02*
X176450000Y-93750000D01*
X176450000Y-91962500D02*
X176450000Y-93370000D01*
X186137500Y-81400000D02*
X184000000Y-81400000D01*
X171012500Y-93400000D02*
X171000000Y-93400000D01*
X172450000Y-81950000D02*
X172500000Y-81900000D01*
X187827500Y-77300000D02*
X187827500Y-79690000D01*
X182200000Y-82200000D02*
X182200000Y-82212500D01*
X173262500Y-95400000D02*
X174420000Y-95400000D01*
X171037500Y-90550000D02*
X169950000Y-90550000D01*
D28*
X184000000Y-81400000D02*
X184000000Y-83922500D01*
D29*
X169950000Y-90550000D02*
X168500000Y-92000000D01*
X187837500Y-79700000D02*
X186137500Y-81400000D01*
X172500000Y-81900000D02*
X172500000Y-83587500D01*
D28*
X184000000Y-83922500D02*
X183862500Y-84060000D01*
D29*
%TO.N,/RESET*%
X175450000Y-91962500D02*
X175450000Y-92733824D01*
X174183824Y-94000000D02*
X172837500Y-94000000D01*
X175450000Y-91962500D02*
X175450000Y-87500000D01*
X171045000Y-97282500D02*
X171045000Y-97660000D01*
X171400000Y-97800000D02*
X171400000Y-95437500D01*
X171400000Y-95437500D02*
X171437500Y-95400000D01*
X172837500Y-94000000D02*
X171437500Y-95400000D01*
X175450000Y-87500000D02*
X180260000Y-82690000D01*
X175450000Y-92733824D02*
X174183824Y-94000000D01*
%TO.N,/ADC_V_EXT*%
X176787500Y-97887500D02*
X176770000Y-97870000D01*
X176950000Y-91962500D02*
X176950000Y-92733824D01*
X176950000Y-91962500D02*
X176999000Y-92011500D01*
D28*
X176770000Y-100067500D02*
X176787500Y-100085000D01*
D29*
X177601000Y-97039000D02*
X176770000Y-97870000D01*
X176950000Y-92733824D02*
X177601000Y-93384824D01*
X173292500Y-100040000D02*
X176742500Y-100040000D01*
X176787500Y-100085000D02*
X176787500Y-97887500D01*
X176950000Y-91962500D02*
X176999000Y-91962500D01*
X177601000Y-93384824D02*
X177601000Y-97039000D01*
X176742500Y-100040000D02*
X176787500Y-100085000D01*
%TO.N,Net-(D1-K)*%
X184125000Y-79700000D02*
X184025000Y-79600000D01*
X185962500Y-79700000D02*
X184125000Y-79700000D01*
%TO.N,Net-(D2-K)*%
X185952500Y-77300000D02*
X184037500Y-77300000D01*
%TO.N,/USART1_TX*%
X179350000Y-77500000D02*
X175450000Y-81400000D01*
X175450000Y-81400000D02*
X175450000Y-83637500D01*
%TO.N,/SWDIO*%
X176850000Y-77750000D02*
X173450000Y-81150000D01*
X176850000Y-77500000D02*
X176850000Y-77750000D01*
X173450000Y-81150000D02*
X173450000Y-83637500D01*
%TO.N,/USART1_RX*%
X178100000Y-77500000D02*
X174901000Y-80699000D01*
X174901000Y-80699000D02*
X174901000Y-83060000D01*
%TO.N,/SWCLK*%
X175600000Y-77500000D02*
X171037500Y-82062500D01*
X171037500Y-82062500D02*
X171037500Y-85050000D01*
%TO.N,/I2C_SDA*%
X162900000Y-80480000D02*
X163290000Y-80480000D01*
X163290000Y-80480000D02*
X169598000Y-86788000D01*
X170720000Y-88001000D02*
X170720000Y-88099000D01*
X169598000Y-86788000D02*
X169598000Y-87448924D01*
X170199076Y-88050000D02*
X171037500Y-88050000D01*
X169598000Y-87448924D02*
X170199076Y-88050000D01*
%TO.N,/I2C_SCL*%
X170016176Y-86800000D02*
X169999000Y-86782824D01*
X169999000Y-86817176D02*
X170016176Y-86800000D01*
X164150682Y-80470682D02*
X164140682Y-80470682D01*
X171037500Y-87501000D02*
X171037500Y-87550000D01*
X170217176Y-87501000D02*
X169999000Y-87282824D01*
X169999000Y-86782824D02*
X169999000Y-86339000D01*
X169999000Y-86339000D02*
X164150682Y-80490682D01*
X171037500Y-87501000D02*
X170217176Y-87501000D01*
X169999000Y-87282824D02*
X169999000Y-86817176D01*
X164140682Y-80470682D02*
X162900000Y-79230000D01*
X164150682Y-80490682D02*
X164150682Y-80470682D01*
%TO.N,/SIG_SERVO*%
X165447500Y-95612500D02*
X164940000Y-96120000D01*
X168300000Y-95612500D02*
X165447500Y-95612500D01*
%TO.N,/VCC_SERVO*%
X164940000Y-98660000D02*
X166320000Y-100040000D01*
X166320000Y-100040000D02*
X171467500Y-100040000D01*
%TO.N,/SPI_CSN*%
X183862500Y-87870000D02*
X183162500Y-87870000D01*
X181842500Y-86550000D02*
X179362500Y-86550000D01*
X183162500Y-87870000D02*
X181842500Y-86550000D01*
%TO.N,/SPI_SCK*%
X182913558Y-93551000D02*
X182561500Y-93198942D01*
X180231824Y-89550000D02*
X179362500Y-89550000D01*
X183862500Y-89140000D02*
X184142442Y-89140000D01*
X182561500Y-93198942D02*
X182561500Y-91879676D01*
X185163500Y-93198942D02*
X184811442Y-93551000D01*
X182561500Y-91879676D02*
X180231824Y-89550000D01*
X185163500Y-90161058D02*
X185163500Y-93198942D01*
X184811442Y-93551000D02*
X182913558Y-93551000D01*
X184142442Y-89140000D02*
X185163500Y-90161058D01*
%TO.N,/SPI_MISO*%
X183862500Y-91680000D02*
X183383400Y-91680000D01*
X183383400Y-91680000D02*
X180753400Y-89050000D01*
X180753400Y-89050000D02*
X179362500Y-89050000D01*
%TO.N,/SPI_CE*%
X183312500Y-86050000D02*
X179362500Y-86050000D01*
X183862500Y-86600000D02*
X183312500Y-86050000D01*
%TO.N,/SPI_MOSI*%
X183862500Y-90410000D02*
X182680500Y-90410000D01*
X180820500Y-88550000D02*
X179362500Y-88550000D01*
X182680500Y-90410000D02*
X180820500Y-88550000D01*
%TO.N,/BOOT*%
X171012500Y-88575000D02*
X171037500Y-88550000D01*
X168572500Y-88550000D02*
X168330000Y-88307500D01*
X168160000Y-75710000D02*
X162240000Y-75710000D01*
X171037500Y-88550000D02*
X168572500Y-88550000D01*
X161440000Y-76510000D02*
X161440000Y-80630000D01*
X168330000Y-86580000D02*
X168330000Y-88307500D01*
X168300000Y-86520000D02*
X168300000Y-86550000D01*
X169950000Y-77500000D02*
X168160000Y-75710000D01*
X163900000Y-82120000D02*
X168300000Y-86520000D01*
X161440000Y-80630000D02*
X162930000Y-82120000D01*
X168300000Y-86550000D02*
X168330000Y-86580000D01*
X162240000Y-75710000D02*
X161440000Y-76510000D01*
X162930000Y-82120000D02*
X163900000Y-82120000D01*
%TO.N,/LED_RED*%
X182200000Y-79600000D02*
X181987500Y-79600000D01*
X181987500Y-79600000D02*
X177950000Y-83637500D01*
%TO.N,/LED_GREEN*%
X182212500Y-77300000D02*
X181700000Y-77300000D01*
X176450000Y-82550000D02*
X176450000Y-83637500D01*
X181700000Y-77300000D02*
X176450000Y-82550000D01*
%TO.N,/SW_SERVO*%
X180200000Y-94212500D02*
X180200000Y-96400000D01*
X177950000Y-91962500D02*
X180200000Y-94212500D01*
%TO.N,/PA3*%
X184425000Y-97562100D02*
X184425000Y-98245000D01*
X179362500Y-90550000D02*
X179362500Y-92499600D01*
X179362500Y-92499600D02*
X184425000Y-97562100D01*
%TO.N,/PA4*%
X180800000Y-90716176D02*
X180800000Y-93370000D01*
X180133824Y-90050000D02*
X180800000Y-90716176D01*
X179362500Y-90050000D02*
X180133824Y-90050000D01*
X180800000Y-93370000D02*
X185675000Y-98245000D01*
%TO.N,Net-(U1-PB3)*%
X171037500Y-86050000D02*
X171808824Y-86050000D01*
X169071324Y-93787500D02*
X168300000Y-93787500D01*
X172400000Y-90458824D02*
X169071324Y-93787500D01*
X172400000Y-86641176D02*
X172400000Y-90458824D01*
X171808824Y-86050000D02*
X172400000Y-86641176D01*
%TD*%
M02*
