M48
; DRILL file {KiCad 9.0.1} date 2025-07-19T18:14:54+0200
; FORMAT={-:-/ absolute / metric / decimal}
; #@! TF.CreationDate,2025-07-19T18:14:54+02:00
; #@! TF.GenerationSoftware,Kicad,Pcbnew,9.0.1
; #@! TF.FileFunction,Plated,1,2,PTH
FMAT,2
METRIC
; #@! TA.AperFunction,Plated,PTH,ViaDrill
T1C0.300
; #@! TA.AperFunction,Plated,PTH,ViaDrill
T2C0.400
; #@! TA.AperFunction,Plated,PTH,ComponentDrill
T3C0.500
; #@! TA.AperFunction,Plated,PTH,ComponentDrill
T4C0.900
%
G90
G05
T1
X180.2Y-96.4
X180.26Y-82.69
T2
X168.5Y-92.0
X171.0Y-93.4
X172.5Y-81.9
X173.9Y-88.03
X176.14Y-95.88
X176.9Y-94.2
X177.2Y-87.66
X182.2Y-82.212
X184.0Y-81.4
X187.2Y-89.06
T3
X162.9Y-76.73
X162.9Y-77.98
X162.9Y-79.23
X162.9Y-80.48
X169.95Y-77.5
X171.2Y-77.5
X175.6Y-77.5
X176.85Y-77.5
X178.1Y-77.5
X179.35Y-77.5
X181.925Y-98.245
X183.175Y-98.245
X184.425Y-98.245
X185.675Y-98.245
T4
X164.94Y-93.58
X164.94Y-96.12
X164.94Y-98.66
X164.97Y-85.46
X164.97Y-88.0
M30
