M48
; DRILL file {KiCad 9.0.1} date 2025-08-08T13:49:00+0200
; FORMAT={-:-/ absolute / metric / decimal}
; #@! TF.CreationDate,2025-08-08T13:49:00+02:00
; #@! TF.GenerationSoftware,Kicad,Pcbnew,9.0.1
; #@! TF.FileFunction,Plated,1,2,PTH
FMAT,2
METRIC
; #@! TA.AperFunction,Plated,PTH,ViaDrill
T1C0.300
; #@! TA.AperFunction,Plated,PTH,ViaDrill
T2C0.400
; #@! TA.AperFunction,Plated,PTH,ComponentDrill
T3C0.900
; #@! TA.AperFunction,Plated,PTH,ComponentDrill
T4C1.000
%
G90
G05
T1
X170.0Y-98.4
X175.75Y-98.841
X181.1Y-93.587
T2
X166.9Y-91.8
X167.9Y-89.85
X172.1Y-76.7
X174.0Y-88.5
X174.3Y-90.9
X174.876Y-98.0
X175.1Y-91.7
X175.7Y-87.2
X175.9Y-95.2
X177.2Y-87.1
X179.46Y-100.04
X181.4Y-86.5
X184.0Y-81.7
X184.9Y-95.8
X186.5Y-88.1
T3
X164.8Y-77.88
X164.8Y-80.42
X164.8Y-82.96
X164.8Y-85.5
X164.8Y-90.89
X164.8Y-93.43
X164.8Y-95.97
X164.8Y-98.51
T4
X176.02Y-75.9
X176.02Y-78.44
X178.56Y-75.9
X178.56Y-78.44
X181.1Y-75.9
X181.1Y-78.44
X183.64Y-75.9
X183.64Y-78.44
M30
