%TF.GenerationSoftware,KiCad,Pcbnew,9.0.1*%
%TF.CreationDate,2025-08-27T22:57:26+02:00*%
%TF.ProjectId,ventilation,76656e74-696c-4617-9469-6f6e2e6b6963,rev?*%
%TF.SameCoordinates,Original*%
%TF.FileFunction,Copper,L2,Bot*%
%TF.FilePolarity,Positive*%
%FSLAX46Y46*%
G04 Gerber Fmt 4.6, Leading zero omitted, Abs format (unit mm)*
G04 Created by KiCad (PCBNEW 9.0.1) date 2025-08-27 22:57:26*
%MOMM*%
%LPD*%
G01*
G04 APERTURE LIST*
G04 Aperture macros list*
%AMRoundRect*
0 Rectangle with rounded corners*
0 $1 Rounding radius*
0 $2 $3 $4 $5 $6 $7 $8 $9 X,Y pos of 4 corners*
0 Add a 4 corners polygon primitive as box body*
4,1,4,$2,$3,$4,$5,$6,$7,$8,$9,$2,$3,0*
0 Add four circle primitives for the rounded corners*
1,1,$1+$1,$2,$3*
1,1,$1+$1,$4,$5*
1,1,$1+$1,$6,$7*
1,1,$1+$1,$8,$9*
0 Add four rect primitives between the rounded corners*
20,1,$1+$1,$2,$3,$4,$5,0*
20,1,$1+$1,$4,$5,$6,$7,0*
20,1,$1+$1,$6,$7,$8,$9,0*
20,1,$1+$1,$8,$9,$2,$3,0*%
G04 Aperture macros list end*
%TA.AperFunction,SMDPad,CuDef*%
%ADD10RoundRect,0.200000X-0.200000X0.750000X-0.200000X-0.750000X0.200000X-0.750000X0.200000X0.750000X0*%
%TD*%
%TA.AperFunction,ComponentPad*%
%ADD11RoundRect,0.285750X-0.666750X-0.666750X0.666750X-0.666750X0.666750X0.666750X-0.666750X0.666750X0*%
%TD*%
%TA.AperFunction,ComponentPad*%
%ADD12C,1.905000*%
%TD*%
%TA.AperFunction,ComponentPad*%
%ADD13R,1.700000X1.700000*%
%TD*%
%TA.AperFunction,ComponentPad*%
%ADD14C,1.700000*%
%TD*%
%TA.AperFunction,SMDPad,CuDef*%
%ADD15RoundRect,0.250000X0.337500X0.475000X-0.337500X0.475000X-0.337500X-0.475000X0.337500X-0.475000X0*%
%TD*%
%TA.AperFunction,SMDPad,CuDef*%
%ADD16RoundRect,0.250000X0.350000X0.450000X-0.350000X0.450000X-0.350000X-0.450000X0.350000X-0.450000X0*%
%TD*%
%TA.AperFunction,SMDPad,CuDef*%
%ADD17RoundRect,0.250000X-0.475000X0.337500X-0.475000X-0.337500X0.475000X-0.337500X0.475000X0.337500X0*%
%TD*%
%TA.AperFunction,SMDPad,CuDef*%
%ADD18RoundRect,0.120000X-0.380000X-0.280000X0.380000X-0.280000X0.380000X0.280000X-0.380000X0.280000X0*%
%TD*%
%TA.AperFunction,SMDPad,CuDef*%
%ADD19RoundRect,0.250000X-0.450000X0.262500X-0.450000X-0.262500X0.450000X-0.262500X0.450000X0.262500X0*%
%TD*%
%TA.AperFunction,SMDPad,CuDef*%
%ADD20RoundRect,0.250000X-0.475000X0.250000X-0.475000X-0.250000X0.475000X-0.250000X0.475000X0.250000X0*%
%TD*%
%TA.AperFunction,SMDPad,CuDef*%
%ADD21RoundRect,0.250000X0.475000X-0.337500X0.475000X0.337500X-0.475000X0.337500X-0.475000X-0.337500X0*%
%TD*%
%TA.AperFunction,SMDPad,CuDef*%
%ADD22RoundRect,0.120000X0.280000X-0.380000X0.280000X0.380000X-0.280000X0.380000X-0.280000X-0.380000X0*%
%TD*%
%TA.AperFunction,SMDPad,CuDef*%
%ADD23RoundRect,0.250000X-0.350000X-0.450000X0.350000X-0.450000X0.350000X0.450000X-0.350000X0.450000X0*%
%TD*%
%TA.AperFunction,ViaPad*%
%ADD24C,0.800000*%
%TD*%
%TA.AperFunction,ViaPad*%
%ADD25C,0.600000*%
%TD*%
%TA.AperFunction,Conductor*%
%ADD26C,0.400000*%
%TD*%
%TA.AperFunction,Conductor*%
%ADD27C,0.200000*%
%TD*%
G04 APERTURE END LIST*
D10*
%TO.P,U2,1,GND*%
%TO.N,GND*%
X169350000Y-92150000D03*
%TO.P,U2,2,VO*%
%TO.N,+3V3*%
X171250000Y-92150000D03*
%TO.P,U2,3,VI*%
%TO.N,+BATT*%
X170300000Y-95150000D03*
%TD*%
D11*
%TO.P,J5,1,Pin_1*%
%TO.N,GND*%
X161300000Y-96745000D03*
D12*
%TO.P,J5,2,Pin_2*%
%TO.N,/SIG_SERVO*%
X161300000Y-99285000D03*
%TO.P,J5,3,Pin_3*%
%TO.N,/SHUNT_N*%
X161300000Y-101825000D03*
%TD*%
D13*
%TO.P,J4,1,Pin_1*%
%TO.N,GND*%
X166500000Y-74600000D03*
D14*
%TO.P,J4,2,Pin_2*%
%TO.N,+3V3*%
X169040000Y-74600000D03*
%TO.P,J4,3,Pin_3*%
%TO.N,/SWCLK*%
X171580000Y-74600000D03*
%TO.P,J4,4,Pin_4*%
%TO.N,/SWDIO*%
X174120000Y-74600000D03*
%TO.P,J4,5,Pin_5*%
%TO.N,/USART1_RX*%
X176660000Y-74600000D03*
%TO.P,J4,6,Pin_6*%
%TO.N,/USART1_TX*%
X179200000Y-74600000D03*
%TO.P,J4,7,Pin_7*%
%TO.N,/PB15*%
X181740000Y-74600000D03*
%TO.P,J4,8,Pin_8*%
%TO.N,/PB14*%
X184280000Y-74600000D03*
%TD*%
D12*
%TO.P,J1,1,Pin_1*%
%TO.N,GND*%
X161325000Y-88360000D03*
D11*
%TO.P,J1,2,Pin_2*%
%TO.N,+BATT*%
X161325000Y-90900000D03*
%TD*%
%TO.P,J2,1,Pin_1*%
%TO.N,/I2C_SCL*%
X161350000Y-74925000D03*
D12*
%TO.P,J2,2,Pin_2*%
%TO.N,/I2C_SDA*%
X161350000Y-77465000D03*
%TO.P,J2,3,Pin_3*%
%TO.N,GND*%
X161350000Y-80005000D03*
%TO.P,J2,4,Pin_4*%
%TO.N,+3V3*%
X161350000Y-82545000D03*
%TD*%
D15*
%TO.P,C11,1*%
%TO.N,+3V3*%
X171337500Y-89700000D03*
%TO.P,C11,2*%
%TO.N,GND*%
X169262500Y-89700000D03*
%TD*%
D16*
%TO.P,R9,1*%
%TO.N,+3V3*%
X166400000Y-77200000D03*
%TO.P,R9,2*%
%TO.N,/I2C_SCL*%
X164400000Y-77200000D03*
%TD*%
D17*
%TO.P,C7,1*%
%TO.N,+3V3*%
X186500000Y-83762500D03*
%TO.P,C7,2*%
%TO.N,GND*%
X186500000Y-85837500D03*
%TD*%
D18*
%TO.P,RESET1,1,1*%
%TO.N,GND*%
X166300000Y-101200000D03*
%TO.P,RESET1,2,2*%
%TO.N,/RESET*%
X172300000Y-97600000D03*
%TO.P,RESET1,3*%
%TO.N,N/C*%
X166300000Y-97600000D03*
%TO.P,RESET1,4*%
X172300000Y-101200000D03*
%TD*%
D19*
%TO.P,R1,1*%
%TO.N,+3V3*%
X175187500Y-88887500D03*
%TO.P,R1,2*%
%TO.N,/RESET*%
X175187500Y-90712500D03*
%TD*%
D17*
%TO.P,C2,1*%
%TO.N,+3V3*%
X171000000Y-80362500D03*
%TO.P,C2,2*%
%TO.N,GND*%
X171000000Y-82437500D03*
%TD*%
%TO.P,C8,1*%
%TO.N,+3V3*%
X184000000Y-83762500D03*
%TO.P,C8,2*%
%TO.N,GND*%
X184000000Y-85837500D03*
%TD*%
D20*
%TO.P,C6,1*%
%TO.N,/RESET*%
X175300000Y-93150000D03*
%TO.P,C6,2*%
%TO.N,GND*%
X175300000Y-95050000D03*
%TD*%
D17*
%TO.P,C4,1*%
%TO.N,+3V3*%
X175200000Y-80362500D03*
%TO.P,C4,2*%
%TO.N,GND*%
X175200000Y-82437500D03*
%TD*%
D21*
%TO.P,C10,1*%
%TO.N,+BATT*%
X166300000Y-94200000D03*
%TO.P,C10,2*%
%TO.N,GND*%
X166300000Y-92125000D03*
%TD*%
%TO.P,C3,1*%
%TO.N,+3V3*%
X172300000Y-86537500D03*
%TO.P,C3,2*%
%TO.N,GND*%
X172300000Y-84462500D03*
%TD*%
%TO.P,C1,1*%
%TO.N,+3V3*%
X175200000Y-86575000D03*
%TO.P,C1,2*%
%TO.N,GND*%
X175200000Y-84500000D03*
%TD*%
D22*
%TO.P,BOOT1,1,1*%
%TO.N,+3V3*%
X168000000Y-87900000D03*
%TO.P,BOOT1,2,2*%
%TO.N,/BOOT*%
X164400000Y-81900000D03*
%TO.P,BOOT1,3*%
%TO.N,N/C*%
X164400000Y-87900000D03*
%TO.P,BOOT1,4*%
X168000000Y-81900000D03*
%TD*%
D23*
%TO.P,R10,1*%
%TO.N,/I2C_SDA*%
X164400000Y-79500000D03*
%TO.P,R10,2*%
%TO.N,+3V3*%
X166400000Y-79500000D03*
%TD*%
D24*
%TO.N,GND*%
X173300000Y-83200000D03*
X168100000Y-91400000D03*
X178950000Y-92600000D03*
X172900000Y-82000000D03*
X179300000Y-81500000D03*
X168300000Y-103800000D03*
X168200000Y-99200000D03*
X187000000Y-81200000D03*
X166937287Y-87746608D03*
X177992525Y-95442525D03*
X166600000Y-81000000D03*
%TO.N,+3V3*%
X186900000Y-93200000D03*
X177500000Y-80400000D03*
X175900000Y-96900000D03*
X182100000Y-81000000D03*
X170700000Y-87100000D03*
X170700000Y-86200000D03*
X170000000Y-78200000D03*
X173800000Y-85800000D03*
D25*
%TO.N,/RESET*%
X173625000Y-89925000D03*
%TO.N,/BOOT*%
X165074265Y-84125735D03*
%TO.N,/LED_RED*%
X180800000Y-90225000D03*
X178850000Y-90250000D03*
%TO.N,/LED_GREEN*%
X180750000Y-89386765D03*
X178850000Y-89350000D03*
%TO.N,/SIG_SERVO_OUT*%
X167000000Y-84300000D03*
X167000000Y-86700000D03*
%TD*%
D26*
%TO.N,+3V3*%
X168400000Y-79700000D02*
X169500000Y-80800000D01*
X166500000Y-79700000D02*
X168400000Y-79700000D01*
X165350000Y-80850000D02*
X166500000Y-79700000D01*
X163045000Y-80850000D02*
X165350000Y-80850000D01*
X161350000Y-82545000D02*
X163045000Y-80850000D01*
%TO.N,+BATT*%
X169350000Y-94200000D02*
X170300000Y-95150000D01*
X166400000Y-94200000D02*
X169350000Y-94200000D01*
%TO.N,+3V3*%
X186900000Y-92500000D02*
X186900000Y-93200000D01*
X169537500Y-87900000D02*
X168000000Y-87900000D01*
X169500000Y-80800000D02*
X169500000Y-80500000D01*
X169500000Y-80500000D02*
X166500000Y-77500000D01*
X171262500Y-86537500D02*
X170700000Y-87100000D01*
X180975000Y-86575000D02*
X186900000Y-92500000D01*
X166500000Y-77140000D02*
X169040000Y-74600000D01*
X172300000Y-86537500D02*
X171262500Y-86537500D01*
X184000000Y-83762500D02*
X186500000Y-83762500D01*
X171337500Y-89700000D02*
X169500000Y-87862500D01*
X175187500Y-86587500D02*
X175200000Y-86575000D01*
X171337500Y-89700000D02*
X172150000Y-88887500D01*
X181187500Y-86575000D02*
X184000000Y-83762500D01*
X176900000Y-82062500D02*
X175200000Y-80362500D01*
X175200000Y-86575000D02*
X174575000Y-86575000D01*
X184000000Y-82900000D02*
X182100000Y-81000000D01*
X175200000Y-80362500D02*
X177462500Y-80362500D01*
X175200000Y-86575000D02*
X180975000Y-86575000D01*
X169500000Y-87862500D02*
X169500000Y-80800000D01*
X177462500Y-80362500D02*
X177500000Y-80400000D01*
X176900000Y-84875000D02*
X176900000Y-82062500D01*
X176800000Y-88175000D02*
X176800000Y-96000000D01*
X175200000Y-86575000D02*
X176900000Y-84875000D01*
X171000000Y-80362500D02*
X171000000Y-79200000D01*
X171037500Y-86537500D02*
X170700000Y-86200000D01*
X171000000Y-79200000D02*
X170000000Y-78200000D01*
X175200000Y-86575000D02*
X176800000Y-88175000D01*
X169500000Y-80800000D02*
X169937500Y-80362500D01*
X184000000Y-83762500D02*
X184000000Y-82900000D01*
X172300000Y-86537500D02*
X171037500Y-86537500D01*
X171250000Y-89787500D02*
X171337500Y-89700000D01*
X175187500Y-88887500D02*
X175187500Y-86587500D01*
X171337500Y-89700000D02*
X169537500Y-87900000D01*
X175200000Y-86575000D02*
X181187500Y-86575000D01*
X174575000Y-86575000D02*
X173800000Y-85800000D01*
X171250000Y-92425000D02*
X171250000Y-89787500D01*
X166500000Y-77500000D02*
X166500000Y-77140000D01*
X172150000Y-88887500D02*
X175187500Y-88887500D01*
X172300000Y-88737500D02*
X171337500Y-89700000D01*
X169937500Y-80362500D02*
X171000000Y-80362500D01*
X172300000Y-86537500D02*
X172300000Y-88737500D01*
X176800000Y-96000000D02*
X175900000Y-96900000D01*
D27*
%TO.N,/RESET*%
X173625000Y-89925000D02*
X174400000Y-89925000D01*
X172300000Y-94600000D02*
X172300000Y-97600000D01*
X175300000Y-93150000D02*
X173750000Y-93150000D01*
X175300000Y-91000000D02*
X175300000Y-93150000D01*
X175187500Y-90887500D02*
X175300000Y-91000000D01*
X173750000Y-93150000D02*
X172300000Y-94600000D01*
X174400000Y-89925000D02*
X175187500Y-90712500D01*
X175187500Y-90712500D02*
X175187500Y-90887500D01*
%TO.N,/I2C_SDA*%
X164400000Y-79500000D02*
X163385000Y-79500000D01*
X163385000Y-79500000D02*
X161350000Y-77465000D01*
%TO.N,/I2C_SCL*%
X164400000Y-77200000D02*
X163625000Y-77200000D01*
X163625000Y-77200000D02*
X161350000Y-74925000D01*
D26*
%TO.N,+BATT*%
X166500000Y-94300000D02*
X166400000Y-94200000D01*
X166400000Y-94200000D02*
X164625000Y-94200000D01*
X164625000Y-94200000D02*
X161325000Y-90900000D01*
D27*
%TO.N,/BOOT*%
X164400000Y-83451470D02*
X165074265Y-84125735D01*
X164400000Y-81900000D02*
X164400000Y-83451470D01*
%TO.N,/LED_RED*%
X180800000Y-90225000D02*
X178875000Y-90225000D01*
X178875000Y-90225000D02*
X178850000Y-90250000D01*
%TO.N,/LED_GREEN*%
X180750000Y-89386765D02*
X178886765Y-89386765D01*
X178886765Y-89386765D02*
X178850000Y-89350000D01*
%TO.N,/SIG_SERVO_OUT*%
X167000000Y-84300000D02*
X167000000Y-86700000D01*
%TD*%
%TA.AperFunction,Conductor*%
%TO.N,GND*%
G36*
X189453039Y-72565185D02*
G01*
X189498794Y-72617989D01*
X189510000Y-72669500D01*
X189510000Y-74790200D01*
X189500561Y-74837653D01*
X189464364Y-74925038D01*
X189464361Y-74925048D01*
X189388008Y-75210004D01*
X189388006Y-75210015D01*
X189349500Y-75502486D01*
X189349500Y-75797513D01*
X189371690Y-75966058D01*
X189388007Y-76089993D01*
X189441676Y-76290291D01*
X189464165Y-76374223D01*
X189464361Y-76374952D01*
X189500561Y-76462347D01*
X189510000Y-76509798D01*
X189510000Y-99790200D01*
X189500561Y-99837653D01*
X189464364Y-99925038D01*
X189464361Y-99925048D01*
X189388008Y-100210004D01*
X189388006Y-100210015D01*
X189349500Y-100502486D01*
X189349500Y-100797513D01*
X189366658Y-100927834D01*
X189388007Y-101089993D01*
X189464361Y-101374952D01*
X189500561Y-101462347D01*
X189510000Y-101509798D01*
X189510000Y-104420500D01*
X189490315Y-104487539D01*
X189437511Y-104533294D01*
X189386000Y-104544500D01*
X154537000Y-104544500D01*
X154469961Y-104524815D01*
X154424206Y-104472011D01*
X154413000Y-104420500D01*
X154413000Y-99170646D01*
X159847000Y-99170646D01*
X159847000Y-99399353D01*
X159882778Y-99625246D01*
X159882778Y-99625249D01*
X159953450Y-99842755D01*
X159995381Y-99925048D01*
X160057283Y-100046538D01*
X160191714Y-100231566D01*
X160353434Y-100393286D01*
X160398202Y-100425812D01*
X160437938Y-100454682D01*
X160480603Y-100510013D01*
X160486582Y-100579626D01*
X160453976Y-100641421D01*
X160437938Y-100655318D01*
X160353432Y-100716715D01*
X160191716Y-100878431D01*
X160191716Y-100878432D01*
X160191714Y-100878434D01*
X160191712Y-100878437D01*
X160057283Y-101063461D01*
X159953450Y-101267244D01*
X159882778Y-101484750D01*
X159882778Y-101484753D01*
X159868048Y-101577754D01*
X159847000Y-101710646D01*
X159847000Y-101939354D01*
X159852517Y-101974188D01*
X159882778Y-102165246D01*
X159882778Y-102165249D01*
X159953450Y-102382755D01*
X159953452Y-102382758D01*
X160057283Y-102586538D01*
X160191714Y-102771566D01*
X160353434Y-102933286D01*
X160538462Y-103067717D01*
X160742242Y-103171548D01*
X160742244Y-103171549D01*
X160959751Y-103242221D01*
X160959752Y-103242221D01*
X160959755Y-103242222D01*
X161185646Y-103278000D01*
X161185647Y-103278000D01*
X161414353Y-103278000D01*
X161414354Y-103278000D01*
X161640245Y-103242222D01*
X161640248Y-103242221D01*
X161640249Y-103242221D01*
X161857755Y-103171549D01*
X161857755Y-103171548D01*
X161857758Y-103171548D01*
X162061538Y-103067717D01*
X162246566Y-102933286D01*
X162408286Y-102771566D01*
X162542717Y-102586538D01*
X162646548Y-102382758D01*
X162717222Y-102165245D01*
X162730345Y-102082392D01*
X165771157Y-102082392D01*
X165822238Y-102097233D01*
X165822241Y-102097234D01*
X165857385Y-102099999D01*
X166742603Y-102099999D01*
X166742625Y-102099998D01*
X166777760Y-102097233D01*
X166828840Y-102082393D01*
X166828840Y-102082392D01*
X166300001Y-101553552D01*
X166300000Y-101553552D01*
X165771157Y-102082392D01*
X162730345Y-102082392D01*
X162753000Y-101939354D01*
X162753000Y-101710646D01*
X162717222Y-101484755D01*
X162717221Y-101484751D01*
X162717221Y-101484750D01*
X162646549Y-101267244D01*
X162646548Y-101267242D01*
X162542717Y-101063462D01*
X162408286Y-100878434D01*
X162387231Y-100857379D01*
X165300000Y-100857379D01*
X165300000Y-101542603D01*
X165300001Y-101542625D01*
X165302765Y-101577756D01*
X165346469Y-101728189D01*
X165346472Y-101728196D01*
X165373146Y-101773299D01*
X165373147Y-101773300D01*
X165946448Y-101200000D01*
X165946447Y-101199999D01*
X166653552Y-101199999D01*
X166653552Y-101200000D01*
X167226851Y-101773300D01*
X167253530Y-101728189D01*
X167297233Y-101577759D01*
X167297234Y-101577754D01*
X167299999Y-101542620D01*
X167299999Y-100857385D01*
X167299994Y-100857324D01*
X171299500Y-100857324D01*
X171299500Y-101542675D01*
X171302267Y-101577837D01*
X171302268Y-101577843D01*
X171346005Y-101728384D01*
X171346006Y-101728387D01*
X171425810Y-101863329D01*
X171425816Y-101863337D01*
X171536662Y-101974183D01*
X171536666Y-101974186D01*
X171536668Y-101974188D01*
X171671611Y-102053993D01*
X171711313Y-102065527D01*
X171822156Y-102097731D01*
X171822159Y-102097731D01*
X171822161Y-102097732D01*
X171857332Y-102100500D01*
X171857340Y-102100500D01*
X172742660Y-102100500D01*
X172742668Y-102100500D01*
X172777839Y-102097732D01*
X172777841Y-102097731D01*
X172777843Y-102097731D01*
X172830639Y-102082392D01*
X172928389Y-102053993D01*
X173063332Y-101974188D01*
X173174188Y-101863332D01*
X173253993Y-101728389D01*
X173297732Y-101577839D01*
X173300500Y-101542668D01*
X173300500Y-100857332D01*
X173297732Y-100822161D01*
X173253993Y-100671611D01*
X173174188Y-100536668D01*
X173174186Y-100536666D01*
X173174183Y-100536662D01*
X173063337Y-100425816D01*
X173063329Y-100425810D01*
X172928387Y-100346006D01*
X172928384Y-100346005D01*
X172777843Y-100302268D01*
X172777837Y-100302267D01*
X172742675Y-100299500D01*
X172742668Y-100299500D01*
X171857332Y-100299500D01*
X171857324Y-100299500D01*
X171822162Y-100302267D01*
X171822156Y-100302268D01*
X171671615Y-100346005D01*
X171671612Y-100346006D01*
X171536670Y-100425810D01*
X171536662Y-100425816D01*
X171425816Y-100536662D01*
X171425810Y-100536670D01*
X171346006Y-100671612D01*
X171346005Y-100671615D01*
X171302268Y-100822156D01*
X171302267Y-100822162D01*
X171299500Y-100857324D01*
X167299994Y-100857324D01*
X167297234Y-100822243D01*
X167253530Y-100671811D01*
X167226851Y-100626698D01*
X166653552Y-101199999D01*
X165946447Y-101199999D01*
X165373146Y-100626698D01*
X165346469Y-100671809D01*
X165302766Y-100822240D01*
X165302765Y-100822245D01*
X165300000Y-100857379D01*
X162387231Y-100857379D01*
X162246566Y-100716714D01*
X162162059Y-100655316D01*
X162119396Y-100599988D01*
X162113417Y-100530375D01*
X162146023Y-100468580D01*
X162162056Y-100454685D01*
X162246566Y-100393286D01*
X162322246Y-100317606D01*
X165771158Y-100317606D01*
X166300000Y-100846448D01*
X166300001Y-100846448D01*
X166828841Y-100317606D01*
X166777760Y-100302766D01*
X166777754Y-100302765D01*
X166742614Y-100300000D01*
X165857396Y-100300000D01*
X165857374Y-100300001D01*
X165822239Y-100302766D01*
X165822238Y-100302766D01*
X165771158Y-100317606D01*
X162322246Y-100317606D01*
X162408286Y-100231566D01*
X162542717Y-100046538D01*
X162646548Y-99842758D01*
X162717222Y-99625245D01*
X162753000Y-99399354D01*
X162753000Y-99170646D01*
X162717222Y-98944755D01*
X162717221Y-98944751D01*
X162717221Y-98944750D01*
X162646549Y-98727244D01*
X162542716Y-98523461D01*
X162408286Y-98338434D01*
X162348424Y-98278572D01*
X162314939Y-98217249D01*
X162312884Y-98177012D01*
X162319522Y-98118074D01*
X161388585Y-97187137D01*
X161473694Y-97164333D01*
X161576306Y-97105090D01*
X161660090Y-97021306D01*
X161719333Y-96918694D01*
X161742137Y-96833585D01*
X162673075Y-97764523D01*
X162679163Y-97754836D01*
X162679167Y-97754827D01*
X162737648Y-97587696D01*
X162752499Y-97455884D01*
X162752500Y-97455880D01*
X162752500Y-97257324D01*
X165299500Y-97257324D01*
X165299500Y-97942675D01*
X165302267Y-97977837D01*
X165302268Y-97977843D01*
X165346005Y-98128384D01*
X165346006Y-98128387D01*
X165425810Y-98263329D01*
X165425816Y-98263337D01*
X165536662Y-98374183D01*
X165536666Y-98374186D01*
X165536668Y-98374188D01*
X165671611Y-98453993D01*
X165711313Y-98465527D01*
X165822156Y-98497731D01*
X165822159Y-98497731D01*
X165822161Y-98497732D01*
X165857332Y-98500500D01*
X165857340Y-98500500D01*
X166742660Y-98500500D01*
X166742668Y-98500500D01*
X166777839Y-98497732D01*
X166777841Y-98497731D01*
X166777843Y-98497731D01*
X166817541Y-98486197D01*
X166928389Y-98453993D01*
X167063332Y-98374188D01*
X167174188Y-98263332D01*
X167253993Y-98128389D01*
X167297732Y-97977839D01*
X167300500Y-97942668D01*
X167300500Y-97257332D01*
X167297732Y-97222161D01*
X167280931Y-97164333D01*
X167253994Y-97071615D01*
X167253993Y-97071612D01*
X167253993Y-97071611D01*
X167174188Y-96936668D01*
X167174186Y-96936666D01*
X167174183Y-96936662D01*
X167063337Y-96825816D01*
X167063329Y-96825810D01*
X166928387Y-96746006D01*
X166928384Y-96746005D01*
X166777843Y-96702268D01*
X166777837Y-96702267D01*
X166742675Y-96699500D01*
X166742668Y-96699500D01*
X165857332Y-96699500D01*
X165857324Y-96699500D01*
X165822162Y-96702267D01*
X165822156Y-96702268D01*
X165671615Y-96746005D01*
X165671612Y-96746006D01*
X165536670Y-96825810D01*
X165536662Y-96825816D01*
X165425816Y-96936662D01*
X165425810Y-96936670D01*
X165346006Y-97071612D01*
X165346005Y-97071615D01*
X165302268Y-97222156D01*
X165302267Y-97222162D01*
X165299500Y-97257324D01*
X162752500Y-97257324D01*
X162752500Y-96034119D01*
X162752499Y-96034115D01*
X162737648Y-95902304D01*
X162679166Y-95735170D01*
X162673074Y-95725476D01*
X161742137Y-96656413D01*
X161719333Y-96571306D01*
X161660090Y-96468694D01*
X161576306Y-96384910D01*
X161473694Y-96325667D01*
X161388586Y-96302862D01*
X162319523Y-95371923D01*
X162309834Y-95365836D01*
X162142694Y-95307351D01*
X162010884Y-95292500D01*
X160589115Y-95292500D01*
X160457304Y-95307351D01*
X160290166Y-95365835D01*
X160280475Y-95371923D01*
X161211414Y-96302862D01*
X161126306Y-96325667D01*
X161023694Y-96384910D01*
X160939910Y-96468694D01*
X160880667Y-96571306D01*
X160857862Y-96656414D01*
X159926923Y-95725475D01*
X159920835Y-95735166D01*
X159862351Y-95902304D01*
X159847500Y-96034115D01*
X159847500Y-97455884D01*
X159862351Y-97587694D01*
X159920836Y-97754834D01*
X159926923Y-97764522D01*
X160857861Y-96833584D01*
X160880667Y-96918694D01*
X160939910Y-97021306D01*
X161023694Y-97105090D01*
X161126306Y-97164333D01*
X161211414Y-97187137D01*
X160280476Y-98118074D01*
X160287115Y-98177011D01*
X160275058Y-98245832D01*
X160251576Y-98278572D01*
X160191713Y-98338434D01*
X160057283Y-98523461D01*
X159953450Y-98727244D01*
X159882778Y-98944750D01*
X159882778Y-98944753D01*
X159847000Y-99170646D01*
X154413000Y-99170646D01*
X154413000Y-90189091D01*
X159872000Y-90189091D01*
X159872000Y-91610908D01*
X159886861Y-91742811D01*
X159941864Y-91900000D01*
X159945381Y-91910050D01*
X160039645Y-92060071D01*
X160164929Y-92185355D01*
X160314950Y-92279619D01*
X160394027Y-92307289D01*
X160482188Y-92338138D01*
X160566544Y-92347642D01*
X160614091Y-92352999D01*
X160614092Y-92353000D01*
X160614096Y-92353000D01*
X161735981Y-92353000D01*
X161803020Y-92372685D01*
X161823662Y-92389319D01*
X164178453Y-94744111D01*
X164178454Y-94744112D01*
X164293192Y-94820777D01*
X164418038Y-94872489D01*
X164420672Y-94873580D01*
X164420676Y-94873580D01*
X164420677Y-94873581D01*
X164556003Y-94900500D01*
X164556006Y-94900500D01*
X164556007Y-94900500D01*
X165097912Y-94900500D01*
X165164951Y-94920185D01*
X165203449Y-94959401D01*
X165232288Y-95006156D01*
X165356344Y-95130212D01*
X165505666Y-95222314D01*
X165672203Y-95277499D01*
X165774991Y-95288000D01*
X166825008Y-95287999D01*
X166825016Y-95287998D01*
X166825019Y-95287998D01*
X166881302Y-95282248D01*
X166927797Y-95277499D01*
X167094334Y-95222314D01*
X167243656Y-95130212D01*
X167367712Y-95006156D01*
X167396549Y-94959402D01*
X167448497Y-94912679D01*
X167502088Y-94900500D01*
X169008481Y-94900500D01*
X169075520Y-94920185D01*
X169096162Y-94936819D01*
X169363181Y-95203838D01*
X169396666Y-95265161D01*
X169399500Y-95291519D01*
X169399500Y-95956613D01*
X169405913Y-96027192D01*
X169405913Y-96027194D01*
X169405914Y-96027196D01*
X169456522Y-96189606D01*
X169542488Y-96331811D01*
X169544530Y-96335188D01*
X169664811Y-96455469D01*
X169664813Y-96455470D01*
X169664815Y-96455472D01*
X169810394Y-96543478D01*
X169972804Y-96594086D01*
X170043384Y-96600500D01*
X170043387Y-96600500D01*
X170556613Y-96600500D01*
X170556616Y-96600500D01*
X170627196Y-96594086D01*
X170789606Y-96543478D01*
X170935185Y-96455472D01*
X171055472Y-96335185D01*
X171143478Y-96189606D01*
X171194086Y-96027196D01*
X171200500Y-95956616D01*
X171200500Y-94343384D01*
X171194086Y-94272804D01*
X171143478Y-94110394D01*
X171055472Y-93964815D01*
X171055470Y-93964813D01*
X171055469Y-93964811D01*
X170935188Y-93844530D01*
X170935185Y-93844528D01*
X170910147Y-93829391D01*
X170862960Y-93777865D01*
X170851122Y-93709005D01*
X170878391Y-93644677D01*
X170936110Y-93605303D01*
X170985518Y-93599785D01*
X170993384Y-93600500D01*
X170993388Y-93600500D01*
X171506613Y-93600500D01*
X171506616Y-93600500D01*
X171577196Y-93594086D01*
X171739606Y-93543478D01*
X171885185Y-93455472D01*
X172005472Y-93335185D01*
X172093478Y-93189606D01*
X172144086Y-93027196D01*
X172150500Y-92956616D01*
X172150500Y-91343384D01*
X172144086Y-91272804D01*
X172093478Y-91110394D01*
X172019789Y-90988498D01*
X172001953Y-90920946D01*
X172023470Y-90854472D01*
X172060808Y-90818812D01*
X172143656Y-90767712D01*
X172267712Y-90643656D01*
X172359814Y-90494334D01*
X172414999Y-90327797D01*
X172425500Y-90225009D01*
X172425499Y-89711999D01*
X172428049Y-89703313D01*
X172426761Y-89694353D01*
X172437738Y-89670316D01*
X172445183Y-89644961D01*
X172452025Y-89639032D01*
X172455786Y-89630797D01*
X172478017Y-89616510D01*
X172497987Y-89599206D01*
X172508502Y-89596918D01*
X172514564Y-89593023D01*
X172549499Y-89588000D01*
X172724756Y-89588000D01*
X172791795Y-89607685D01*
X172837550Y-89660489D01*
X172847494Y-89729647D01*
X172846373Y-89736191D01*
X172824500Y-89846153D01*
X172824500Y-90003846D01*
X172855261Y-90158489D01*
X172855264Y-90158501D01*
X172915602Y-90304172D01*
X172915609Y-90304185D01*
X173003210Y-90435288D01*
X173003213Y-90435292D01*
X173114707Y-90546786D01*
X173114711Y-90546789D01*
X173245814Y-90634390D01*
X173245827Y-90634397D01*
X173389724Y-90694000D01*
X173391503Y-90694737D01*
X173546153Y-90725499D01*
X173546156Y-90725500D01*
X173546158Y-90725500D01*
X173703844Y-90725500D01*
X173770140Y-90712312D01*
X173838809Y-90698653D01*
X173908400Y-90704880D01*
X173963577Y-90747742D01*
X173986822Y-90813632D01*
X173987000Y-90820269D01*
X173987000Y-91025000D01*
X173987001Y-91025019D01*
X173997500Y-91127796D01*
X173997501Y-91127799D01*
X174052685Y-91294331D01*
X174052687Y-91294336D01*
X174082940Y-91343384D01*
X174144788Y-91443656D01*
X174268844Y-91567712D01*
X174418166Y-91659814D01*
X174584703Y-91714999D01*
X174587553Y-91715290D01*
X174588099Y-91715346D01*
X174590058Y-91716145D01*
X174590798Y-91716303D01*
X174593147Y-91715966D01*
X174622713Y-91729468D01*
X174652791Y-91741740D01*
X174654304Y-91743895D01*
X174656703Y-91744991D01*
X174674275Y-91772334D01*
X174692944Y-91798919D01*
X174693490Y-91802233D01*
X174694477Y-91803769D01*
X174699500Y-91838704D01*
X174699500Y-92061414D01*
X174679815Y-92128453D01*
X174627011Y-92174208D01*
X174614505Y-92179120D01*
X174505666Y-92215186D01*
X174505663Y-92215187D01*
X174356342Y-92307289D01*
X174232289Y-92431342D01*
X174195741Y-92490597D01*
X174143793Y-92537321D01*
X174090202Y-92549500D01*
X173836670Y-92549500D01*
X173836654Y-92549499D01*
X173829058Y-92549499D01*
X173670943Y-92549499D01*
X173594579Y-92569961D01*
X173518214Y-92590423D01*
X173518209Y-92590426D01*
X173381290Y-92669475D01*
X173381282Y-92669481D01*
X171819481Y-94231282D01*
X171819477Y-94231287D01*
X171795510Y-94272802D01*
X171795509Y-94272804D01*
X171740423Y-94368215D01*
X171699499Y-94520943D01*
X171699499Y-94520945D01*
X171699499Y-94689046D01*
X171699500Y-94689059D01*
X171699500Y-96658784D01*
X171679815Y-96725823D01*
X171638622Y-96765516D01*
X171536668Y-96825812D01*
X171536662Y-96825816D01*
X171425816Y-96936662D01*
X171425810Y-96936670D01*
X171346006Y-97071612D01*
X171346005Y-97071615D01*
X171302268Y-97222156D01*
X171302267Y-97222162D01*
X171299500Y-97257324D01*
X171299500Y-97942675D01*
X171302267Y-97977837D01*
X171302268Y-97977843D01*
X171346005Y-98128384D01*
X171346006Y-98128387D01*
X171425810Y-98263329D01*
X171425816Y-98263337D01*
X171536662Y-98374183D01*
X171536666Y-98374186D01*
X171536668Y-98374188D01*
X171671611Y-98453993D01*
X171711313Y-98465527D01*
X171822156Y-98497731D01*
X171822159Y-98497731D01*
X171822161Y-98497732D01*
X171857332Y-98500500D01*
X171857340Y-98500500D01*
X172742660Y-98500500D01*
X172742668Y-98500500D01*
X172777839Y-98497732D01*
X172777841Y-98497731D01*
X172777843Y-98497731D01*
X172817541Y-98486197D01*
X172928389Y-98453993D01*
X173063332Y-98374188D01*
X173174188Y-98263332D01*
X173253993Y-98128389D01*
X173297732Y-97977839D01*
X173300500Y-97942668D01*
X173300500Y-97257332D01*
X173297732Y-97222161D01*
X173280931Y-97164333D01*
X173253994Y-97071615D01*
X173253993Y-97071612D01*
X173253993Y-97071611D01*
X173174188Y-96936668D01*
X173174186Y-96936666D01*
X173174183Y-96936662D01*
X173063337Y-96825816D01*
X173063334Y-96825814D01*
X173063332Y-96825812D01*
X173013707Y-96796464D01*
X172961378Y-96765516D01*
X172913695Y-96714446D01*
X172900500Y-96658784D01*
X172900500Y-95349986D01*
X174075001Y-95349986D01*
X174085494Y-95452697D01*
X174140641Y-95619119D01*
X174140643Y-95619124D01*
X174232684Y-95768345D01*
X174356654Y-95892315D01*
X174505875Y-95984356D01*
X174505880Y-95984358D01*
X174672302Y-96039505D01*
X174672309Y-96039506D01*
X174775019Y-96049999D01*
X175049999Y-96049999D01*
X175050000Y-96049998D01*
X175050000Y-95300000D01*
X174075001Y-95300000D01*
X174075001Y-95349986D01*
X172900500Y-95349986D01*
X172900500Y-94900097D01*
X172920185Y-94833058D01*
X172936819Y-94812416D01*
X173962417Y-93786819D01*
X173989344Y-93772115D01*
X174015163Y-93755523D01*
X174021363Y-93754631D01*
X174023740Y-93753334D01*
X174050098Y-93750500D01*
X174090202Y-93750500D01*
X174157241Y-93770185D01*
X174195739Y-93809401D01*
X174232288Y-93868656D01*
X174356344Y-93992712D01*
X174359628Y-93994737D01*
X174359653Y-93994753D01*
X174361445Y-93996746D01*
X174362011Y-93997193D01*
X174361934Y-93997289D01*
X174406379Y-94046699D01*
X174417603Y-94115661D01*
X174389761Y-94179744D01*
X174359665Y-94205826D01*
X174356660Y-94207679D01*
X174356655Y-94207683D01*
X174232684Y-94331654D01*
X174140643Y-94480875D01*
X174140641Y-94480880D01*
X174085494Y-94647302D01*
X174085493Y-94647309D01*
X174075000Y-94750013D01*
X174075000Y-94800000D01*
X175176000Y-94800000D01*
X175243039Y-94819685D01*
X175288794Y-94872489D01*
X175300000Y-94924000D01*
X175300000Y-95050000D01*
X175426000Y-95050000D01*
X175493039Y-95069685D01*
X175538794Y-95122489D01*
X175550000Y-95174000D01*
X175550000Y-95987425D01*
X175530315Y-96054464D01*
X175478817Y-96099086D01*
X175478831Y-96099112D01*
X175478720Y-96099171D01*
X175477511Y-96100219D01*
X175473467Y-96101980D01*
X175473462Y-96101981D01*
X175473455Y-96101985D01*
X175325965Y-96200535D01*
X175325961Y-96200538D01*
X175200538Y-96325961D01*
X175200535Y-96325965D01*
X175101990Y-96473446D01*
X175101983Y-96473459D01*
X175034106Y-96637332D01*
X175034103Y-96637341D01*
X174999500Y-96811304D01*
X174999500Y-96988695D01*
X175034103Y-97162658D01*
X175034106Y-97162667D01*
X175101983Y-97326540D01*
X175101990Y-97326553D01*
X175200535Y-97474034D01*
X175200538Y-97474038D01*
X175325961Y-97599461D01*
X175325965Y-97599464D01*
X175473446Y-97698009D01*
X175473459Y-97698016D01*
X175596363Y-97748923D01*
X175637334Y-97765894D01*
X175637336Y-97765894D01*
X175637341Y-97765896D01*
X175811304Y-97800499D01*
X175811307Y-97800500D01*
X175811309Y-97800500D01*
X175988693Y-97800500D01*
X175988694Y-97800499D01*
X176046682Y-97788964D01*
X176162658Y-97765896D01*
X176162661Y-97765894D01*
X176162666Y-97765894D01*
X176326547Y-97698013D01*
X176474035Y-97599464D01*
X176599464Y-97474035D01*
X176698013Y-97326547D01*
X176765894Y-97162666D01*
X176792797Y-97027408D01*
X176825180Y-96965503D01*
X176826673Y-96963982D01*
X177344114Y-96446543D01*
X177420775Y-96331811D01*
X177473580Y-96204329D01*
X177473580Y-96204325D01*
X177473582Y-96204322D01*
X177478934Y-96177411D01*
X177478934Y-96177409D01*
X177500500Y-96068993D01*
X177500500Y-89271153D01*
X178049500Y-89271153D01*
X178049500Y-89428846D01*
X178080261Y-89583489D01*
X178080264Y-89583501D01*
X178140604Y-89729177D01*
X178140605Y-89729179D01*
X178141899Y-89731115D01*
X178142264Y-89732282D01*
X178143476Y-89734549D01*
X178143045Y-89734778D01*
X178162773Y-89797794D01*
X178144285Y-89865173D01*
X178141899Y-89868885D01*
X178140605Y-89870820D01*
X178140604Y-89870822D01*
X178080264Y-90016498D01*
X178080261Y-90016510D01*
X178049500Y-90171153D01*
X178049500Y-90328846D01*
X178080261Y-90483489D01*
X178080264Y-90483501D01*
X178140602Y-90629172D01*
X178140609Y-90629185D01*
X178228210Y-90760288D01*
X178228213Y-90760292D01*
X178339707Y-90871786D01*
X178339711Y-90871789D01*
X178470814Y-90959390D01*
X178470827Y-90959397D01*
X178616498Y-91019735D01*
X178616503Y-91019737D01*
X178717497Y-91039826D01*
X178771153Y-91050499D01*
X178771156Y-91050500D01*
X178771158Y-91050500D01*
X178928844Y-91050500D01*
X178928845Y-91050499D01*
X179083497Y-91019737D01*
X179215350Y-90965122D01*
X179229172Y-90959397D01*
X179229172Y-90959396D01*
X179229179Y-90959394D01*
X179360289Y-90871789D01*
X179361484Y-90870594D01*
X179370260Y-90861819D01*
X179431583Y-90828334D01*
X179457941Y-90825500D01*
X180220234Y-90825500D01*
X180287273Y-90845185D01*
X180289125Y-90846398D01*
X180420814Y-90934390D01*
X180420827Y-90934397D01*
X180551448Y-90988501D01*
X180566503Y-90994737D01*
X180692176Y-91019735D01*
X180721153Y-91025499D01*
X180721156Y-91025500D01*
X180721158Y-91025500D01*
X180878844Y-91025500D01*
X180878845Y-91025499D01*
X181033497Y-90994737D01*
X181179179Y-90934394D01*
X181310289Y-90846789D01*
X181421789Y-90735289D01*
X181509394Y-90604179D01*
X181517267Y-90585173D01*
X181523551Y-90570000D01*
X181569737Y-90458497D01*
X181600500Y-90303842D01*
X181600500Y-90146158D01*
X181600500Y-90146155D01*
X181600499Y-90146153D01*
X181569737Y-89991503D01*
X181527673Y-89889950D01*
X181509396Y-89845825D01*
X181509395Y-89845824D01*
X181509394Y-89845821D01*
X181494925Y-89824167D01*
X181474048Y-89757492D01*
X181483467Y-89707825D01*
X181485336Y-89703313D01*
X181519737Y-89620262D01*
X181550500Y-89465607D01*
X181550500Y-89307923D01*
X181550500Y-89307920D01*
X181550499Y-89307918D01*
X181543186Y-89271153D01*
X181519737Y-89153268D01*
X181506487Y-89121279D01*
X181459397Y-89007592D01*
X181459390Y-89007579D01*
X181371789Y-88876476D01*
X181371786Y-88876472D01*
X181260292Y-88764978D01*
X181260288Y-88764975D01*
X181129185Y-88677374D01*
X181129172Y-88677367D01*
X180983501Y-88617029D01*
X180983489Y-88617026D01*
X180828845Y-88586265D01*
X180828842Y-88586265D01*
X180671158Y-88586265D01*
X180671155Y-88586265D01*
X180516510Y-88617026D01*
X180516498Y-88617029D01*
X180370827Y-88677367D01*
X180370814Y-88677374D01*
X180239125Y-88765367D01*
X180172447Y-88786245D01*
X180170234Y-88786265D01*
X179469706Y-88786265D01*
X179402667Y-88766580D01*
X179382025Y-88749946D01*
X179360292Y-88728213D01*
X179360288Y-88728210D01*
X179229185Y-88640609D01*
X179229172Y-88640602D01*
X179083501Y-88580264D01*
X179083489Y-88580261D01*
X178928845Y-88549500D01*
X178928842Y-88549500D01*
X178771158Y-88549500D01*
X178771155Y-88549500D01*
X178616510Y-88580261D01*
X178616498Y-88580264D01*
X178470827Y-88640602D01*
X178470814Y-88640609D01*
X178339711Y-88728210D01*
X178339707Y-88728213D01*
X178228213Y-88839707D01*
X178228210Y-88839711D01*
X178140609Y-88970814D01*
X178140602Y-88970827D01*
X178080264Y-89116498D01*
X178080261Y-89116510D01*
X178049500Y-89271153D01*
X177500500Y-89271153D01*
X177500500Y-88106007D01*
X177500500Y-88106004D01*
X177473581Y-87970677D01*
X177473580Y-87970676D01*
X177473580Y-87970672D01*
X177471601Y-87965894D01*
X177420776Y-87843191D01*
X177411355Y-87829091D01*
X177374264Y-87773580D01*
X177344114Y-87728457D01*
X177344111Y-87728453D01*
X177102838Y-87487181D01*
X177069353Y-87425858D01*
X177074337Y-87356167D01*
X177116208Y-87300233D01*
X177181673Y-87275816D01*
X177190519Y-87275500D01*
X180633481Y-87275500D01*
X180700520Y-87295185D01*
X180721162Y-87311819D01*
X183400853Y-89991510D01*
X186067069Y-92657725D01*
X186100554Y-92719048D01*
X186095570Y-92788740D01*
X186093949Y-92792858D01*
X186034106Y-92937332D01*
X186034103Y-92937341D01*
X185999500Y-93111304D01*
X185999500Y-93288695D01*
X186034103Y-93462658D01*
X186034106Y-93462667D01*
X186101983Y-93626540D01*
X186101990Y-93626553D01*
X186200535Y-93774034D01*
X186200538Y-93774038D01*
X186325961Y-93899461D01*
X186325965Y-93899464D01*
X186473446Y-93998009D01*
X186473459Y-93998016D01*
X186590993Y-94046699D01*
X186637334Y-94065894D01*
X186637336Y-94065894D01*
X186637341Y-94065896D01*
X186811304Y-94100499D01*
X186811307Y-94100500D01*
X186811309Y-94100500D01*
X186988693Y-94100500D01*
X186988694Y-94100499D01*
X187046682Y-94088964D01*
X187162658Y-94065896D01*
X187162661Y-94065894D01*
X187162666Y-94065894D01*
X187326547Y-93998013D01*
X187474035Y-93899464D01*
X187599464Y-93774035D01*
X187698013Y-93626547D01*
X187765894Y-93462666D01*
X187767081Y-93456703D01*
X187800499Y-93288695D01*
X187800500Y-93288693D01*
X187800500Y-93111306D01*
X187800499Y-93111304D01*
X187765896Y-92937341D01*
X187765893Y-92937332D01*
X187763206Y-92930845D01*
X187698013Y-92773453D01*
X187698011Y-92773451D01*
X187698011Y-92773449D01*
X187621398Y-92658790D01*
X187600520Y-92592112D01*
X187600500Y-92589899D01*
X187600500Y-92431006D01*
X187600499Y-92431003D01*
X187592103Y-92388794D01*
X187575891Y-92307288D01*
X187573580Y-92295671D01*
X187527885Y-92185355D01*
X187520775Y-92168189D01*
X187444114Y-92053458D01*
X187346542Y-91955886D01*
X182159586Y-86768930D01*
X182126101Y-86707607D01*
X182131085Y-86637915D01*
X182159582Y-86593573D01*
X182567607Y-86185548D01*
X182628926Y-86152066D01*
X182698618Y-86157050D01*
X182754551Y-86198922D01*
X182778642Y-86260629D01*
X182785494Y-86327697D01*
X182840641Y-86494119D01*
X182840643Y-86494124D01*
X182932684Y-86643345D01*
X183056654Y-86767315D01*
X183205875Y-86859356D01*
X183205880Y-86859358D01*
X183372302Y-86914505D01*
X183372309Y-86914506D01*
X183475019Y-86924999D01*
X183749999Y-86924999D01*
X184250000Y-86924999D01*
X184524972Y-86924999D01*
X184524986Y-86924998D01*
X184627697Y-86914505D01*
X184794119Y-86859358D01*
X184794124Y-86859356D01*
X184943345Y-86767315D01*
X185067315Y-86643345D01*
X185144461Y-86518273D01*
X185196409Y-86471549D01*
X185265372Y-86460326D01*
X185329454Y-86488170D01*
X185355539Y-86518273D01*
X185432684Y-86643345D01*
X185556654Y-86767315D01*
X185705875Y-86859356D01*
X185705880Y-86859358D01*
X185872302Y-86914505D01*
X185872309Y-86914506D01*
X185975019Y-86924999D01*
X186249999Y-86924999D01*
X186750000Y-86924999D01*
X187024972Y-86924999D01*
X187024986Y-86924998D01*
X187127697Y-86914505D01*
X187294119Y-86859358D01*
X187294124Y-86859356D01*
X187443345Y-86767315D01*
X187567315Y-86643345D01*
X187659356Y-86494124D01*
X187659358Y-86494119D01*
X187714505Y-86327697D01*
X187714506Y-86327690D01*
X187724999Y-86224986D01*
X187725000Y-86224973D01*
X187725000Y-86087500D01*
X186750000Y-86087500D01*
X186750000Y-86924999D01*
X186249999Y-86924999D01*
X186250000Y-86924998D01*
X186250000Y-86087500D01*
X184250000Y-86087500D01*
X184250000Y-86924999D01*
X183749999Y-86924999D01*
X183750000Y-86924998D01*
X183750000Y-85961500D01*
X183769685Y-85894461D01*
X183822489Y-85848706D01*
X183874000Y-85837500D01*
X184000000Y-85837500D01*
X184000000Y-85711500D01*
X184019685Y-85644461D01*
X184072489Y-85598706D01*
X184124000Y-85587500D01*
X187724999Y-85587500D01*
X187724999Y-85450028D01*
X187724998Y-85450013D01*
X187714505Y-85347302D01*
X187659358Y-85180880D01*
X187659356Y-85180875D01*
X187567315Y-85031654D01*
X187443344Y-84907683D01*
X187443341Y-84907681D01*
X187440339Y-84905829D01*
X187438713Y-84904021D01*
X187437677Y-84903202D01*
X187437817Y-84903024D01*
X187393617Y-84853880D01*
X187382397Y-84784917D01*
X187410243Y-84720836D01*
X187440344Y-84694754D01*
X187443656Y-84692712D01*
X187567712Y-84568656D01*
X187659814Y-84419334D01*
X187714999Y-84252797D01*
X187725500Y-84150009D01*
X187725499Y-83374992D01*
X187717181Y-83293568D01*
X187714999Y-83272203D01*
X187714998Y-83272200D01*
X187674959Y-83151371D01*
X187659814Y-83105666D01*
X187567712Y-82956344D01*
X187443656Y-82832288D01*
X187294334Y-82740186D01*
X187127797Y-82685001D01*
X187127795Y-82685000D01*
X187025010Y-82674500D01*
X185974998Y-82674500D01*
X185974980Y-82674501D01*
X185872203Y-82685000D01*
X185872200Y-82685001D01*
X185705668Y-82740185D01*
X185705663Y-82740187D01*
X185556342Y-82832289D01*
X185432289Y-82956342D01*
X185403451Y-83003097D01*
X185395863Y-83009921D01*
X185391625Y-83019203D01*
X185370325Y-83032891D01*
X185351503Y-83049821D01*
X185339867Y-83052465D01*
X185332847Y-83056977D01*
X185297912Y-83062000D01*
X185202088Y-83062000D01*
X185135049Y-83042315D01*
X185096549Y-83003097D01*
X185067712Y-82956344D01*
X184943656Y-82832288D01*
X184794334Y-82740186D01*
X184729588Y-82718731D01*
X184672143Y-82678958D01*
X184654032Y-82648478D01*
X184620775Y-82568190D01*
X184620775Y-82568189D01*
X184544114Y-82453457D01*
X184544112Y-82453454D01*
X184544111Y-82453453D01*
X183026732Y-80936075D01*
X182993247Y-80874752D01*
X182992826Y-80872735D01*
X182965894Y-80737334D01*
X182923429Y-80634814D01*
X182898016Y-80573459D01*
X182898009Y-80573446D01*
X182799464Y-80425965D01*
X182799461Y-80425961D01*
X182674038Y-80300538D01*
X182674034Y-80300535D01*
X182526553Y-80201990D01*
X182526540Y-80201983D01*
X182362667Y-80134106D01*
X182362658Y-80134103D01*
X182188694Y-80099500D01*
X182188691Y-80099500D01*
X182011309Y-80099500D01*
X182011306Y-80099500D01*
X181837341Y-80134103D01*
X181837332Y-80134106D01*
X181673459Y-80201983D01*
X181673446Y-80201990D01*
X181525965Y-80300535D01*
X181525961Y-80300538D01*
X181400538Y-80425961D01*
X181400535Y-80425965D01*
X181301990Y-80573446D01*
X181301983Y-80573459D01*
X181234106Y-80737332D01*
X181234103Y-80737341D01*
X181199500Y-80911304D01*
X181199500Y-81088695D01*
X181234103Y-81262658D01*
X181234106Y-81262667D01*
X181301983Y-81426540D01*
X181301990Y-81426553D01*
X181400535Y-81574034D01*
X181400538Y-81574038D01*
X181525961Y-81699461D01*
X181525965Y-81699464D01*
X181673446Y-81798009D01*
X181673459Y-81798016D01*
X181771781Y-81838741D01*
X181837334Y-81865894D01*
X181972588Y-81892797D01*
X182034495Y-81925180D01*
X182036075Y-81926732D01*
X182913850Y-82804507D01*
X182947335Y-82865830D01*
X182942351Y-82935522D01*
X182931708Y-82957284D01*
X182840189Y-83105659D01*
X182840186Y-83105666D01*
X182785001Y-83272203D01*
X182785001Y-83272204D01*
X182785000Y-83272204D01*
X182774500Y-83374983D01*
X182774500Y-83945980D01*
X182754815Y-84013019D01*
X182738181Y-84033661D01*
X180933662Y-85838181D01*
X180872339Y-85871666D01*
X180845981Y-85874500D01*
X177190519Y-85874500D01*
X177123480Y-85854815D01*
X177077725Y-85802011D01*
X177067781Y-85732853D01*
X177096806Y-85669297D01*
X177102838Y-85662819D01*
X177444112Y-85321545D01*
X177444114Y-85321543D01*
X177520775Y-85206811D01*
X177531686Y-85180471D01*
X177573578Y-85079332D01*
X177573580Y-85079328D01*
X177600500Y-84943994D01*
X177600500Y-84806006D01*
X177600500Y-81993507D01*
X177600500Y-81993504D01*
X177573581Y-81858177D01*
X177573580Y-81858176D01*
X177573580Y-81858172D01*
X177548663Y-81798016D01*
X177520776Y-81730691D01*
X177453427Y-81629895D01*
X177453426Y-81629894D01*
X177447333Y-81620775D01*
X177444114Y-81615957D01*
X177339474Y-81511317D01*
X177338612Y-81510420D01*
X177323025Y-81480473D01*
X177306854Y-81450858D01*
X177306945Y-81449579D01*
X177306354Y-81448443D01*
X177309429Y-81414843D01*
X177311838Y-81381166D01*
X177312606Y-81380139D01*
X177312723Y-81378864D01*
X177333489Y-81352243D01*
X177353710Y-81325233D01*
X177354909Y-81324785D01*
X177355698Y-81323775D01*
X177387560Y-81312607D01*
X177419174Y-81300816D01*
X177421432Y-81300735D01*
X177421636Y-81300664D01*
X177421869Y-81300719D01*
X177428020Y-81300500D01*
X177588693Y-81300500D01*
X177588694Y-81300499D01*
X177646682Y-81288964D01*
X177762658Y-81265896D01*
X177762661Y-81265894D01*
X177762666Y-81265894D01*
X177926547Y-81198013D01*
X178074035Y-81099464D01*
X178199464Y-80974035D01*
X178298013Y-80826547D01*
X178365894Y-80662666D01*
X178383639Y-80573459D01*
X178400499Y-80488695D01*
X178400500Y-80488693D01*
X178400500Y-80311306D01*
X178400499Y-80311304D01*
X178365896Y-80137341D01*
X178365893Y-80137332D01*
X178358429Y-80119313D01*
X178347984Y-80094095D01*
X178298016Y-79973459D01*
X178298009Y-79973446D01*
X178199464Y-79825965D01*
X178199461Y-79825961D01*
X178074038Y-79700538D01*
X178074034Y-79700535D01*
X177926553Y-79601990D01*
X177926540Y-79601983D01*
X177762667Y-79534106D01*
X177762658Y-79534103D01*
X177588694Y-79499500D01*
X177588691Y-79499500D01*
X177411309Y-79499500D01*
X177411306Y-79499500D01*
X177237341Y-79534103D01*
X177237332Y-79534106D01*
X177073457Y-79601984D01*
X177073455Y-79601985D01*
X177014914Y-79641102D01*
X176948237Y-79661980D01*
X176946023Y-79662000D01*
X176402088Y-79662000D01*
X176335049Y-79642315D01*
X176296549Y-79603097D01*
X176267712Y-79556344D01*
X176143656Y-79432288D01*
X176050888Y-79375069D01*
X175994336Y-79340187D01*
X175994331Y-79340185D01*
X175985492Y-79337256D01*
X175827797Y-79285001D01*
X175827795Y-79285000D01*
X175725010Y-79274500D01*
X174674998Y-79274500D01*
X174674980Y-79274501D01*
X174572203Y-79285000D01*
X174572200Y-79285001D01*
X174405668Y-79340185D01*
X174405663Y-79340187D01*
X174256342Y-79432289D01*
X174132289Y-79556342D01*
X174040187Y-79705663D01*
X174040186Y-79705666D01*
X173985001Y-79872203D01*
X173985001Y-79872204D01*
X173985000Y-79872204D01*
X173974500Y-79974983D01*
X173974500Y-80750001D01*
X173974501Y-80750019D01*
X173985000Y-80852796D01*
X173985001Y-80852799D01*
X174040185Y-81019331D01*
X174040187Y-81019336D01*
X174044184Y-81025816D01*
X174132288Y-81168656D01*
X174256344Y-81292712D01*
X174259628Y-81294737D01*
X174259653Y-81294753D01*
X174261445Y-81296746D01*
X174262011Y-81297193D01*
X174261934Y-81297289D01*
X174306379Y-81346699D01*
X174317603Y-81415661D01*
X174289761Y-81479744D01*
X174259665Y-81505826D01*
X174256660Y-81507679D01*
X174256655Y-81507683D01*
X174132684Y-81631654D01*
X174040643Y-81780875D01*
X174040641Y-81780880D01*
X173985494Y-81947302D01*
X173985493Y-81947309D01*
X173975000Y-82050013D01*
X173975000Y-82187500D01*
X175076000Y-82187500D01*
X175143039Y-82207185D01*
X175188794Y-82259989D01*
X175200000Y-82311500D01*
X175200000Y-82437500D01*
X175326000Y-82437500D01*
X175393039Y-82457185D01*
X175438794Y-82509989D01*
X175450000Y-82561500D01*
X175450000Y-84376000D01*
X175430315Y-84443039D01*
X175377511Y-84488794D01*
X175326000Y-84500000D01*
X175200000Y-84500000D01*
X175200000Y-84626000D01*
X175180315Y-84693039D01*
X175127511Y-84738794D01*
X175076000Y-84750000D01*
X173975001Y-84750000D01*
X173975001Y-84775500D01*
X173973320Y-84781223D01*
X173974459Y-84787079D01*
X173963589Y-84814364D01*
X173955316Y-84842539D01*
X173950809Y-84846444D01*
X173948601Y-84851987D01*
X173924700Y-84869067D01*
X173902512Y-84888294D01*
X173895360Y-84890035D01*
X173891755Y-84892612D01*
X173868945Y-84896467D01*
X173857110Y-84899349D01*
X173854049Y-84899500D01*
X173711309Y-84899500D01*
X173664240Y-84908862D01*
X173655109Y-84909313D01*
X173629665Y-84903186D01*
X173603598Y-84900853D01*
X173596240Y-84895137D01*
X173587181Y-84892956D01*
X173569086Y-84874043D01*
X173548422Y-84857990D01*
X173545322Y-84849204D01*
X173538880Y-84842470D01*
X173533883Y-84816777D01*
X173525178Y-84792100D01*
X173525000Y-84785464D01*
X173525000Y-84712500D01*
X171075001Y-84712500D01*
X171075001Y-84849986D01*
X171085494Y-84952697D01*
X171140641Y-85119119D01*
X171140645Y-85119128D01*
X171178482Y-85180471D01*
X171196922Y-85247863D01*
X171175999Y-85314526D01*
X171122357Y-85359296D01*
X171053026Y-85367957D01*
X171025492Y-85360129D01*
X170994524Y-85347302D01*
X170962666Y-85334106D01*
X170962662Y-85334105D01*
X170962658Y-85334103D01*
X170788694Y-85299500D01*
X170788691Y-85299500D01*
X170611309Y-85299500D01*
X170611306Y-85299500D01*
X170437341Y-85334103D01*
X170437337Y-85334105D01*
X170437335Y-85334105D01*
X170437334Y-85334106D01*
X170429430Y-85337380D01*
X170371951Y-85361188D01*
X170302481Y-85368655D01*
X170240003Y-85337380D01*
X170204351Y-85277290D01*
X170200500Y-85246626D01*
X170200500Y-84075013D01*
X171075000Y-84075013D01*
X171075000Y-84212500D01*
X172050000Y-84212500D01*
X172550000Y-84212500D01*
X173524999Y-84212500D01*
X173524999Y-84112513D01*
X173975000Y-84112513D01*
X173975000Y-84250000D01*
X174950000Y-84250000D01*
X174950000Y-82687500D01*
X173975001Y-82687500D01*
X173975001Y-82824986D01*
X173985494Y-82927697D01*
X174040641Y-83094119D01*
X174040643Y-83094124D01*
X174132684Y-83243345D01*
X174256656Y-83367317D01*
X174261929Y-83371487D01*
X174302303Y-83428511D01*
X174305439Y-83498310D01*
X174270341Y-83558724D01*
X174261929Y-83566013D01*
X174256656Y-83570182D01*
X174132684Y-83694154D01*
X174040643Y-83843375D01*
X174040641Y-83843380D01*
X173985494Y-84009802D01*
X173985493Y-84009809D01*
X173975000Y-84112513D01*
X173524999Y-84112513D01*
X173524999Y-84075028D01*
X173524998Y-84075013D01*
X173514505Y-83972302D01*
X173459358Y-83805880D01*
X173459356Y-83805875D01*
X173367315Y-83656654D01*
X173243345Y-83532684D01*
X173094124Y-83440643D01*
X173094119Y-83440641D01*
X172927697Y-83385494D01*
X172927690Y-83385493D01*
X172824986Y-83375000D01*
X172550000Y-83375000D01*
X172550000Y-84212500D01*
X172050000Y-84212500D01*
X172050000Y-83350420D01*
X172046081Y-83343243D01*
X172051065Y-83273551D01*
X172064339Y-83249993D01*
X172063525Y-83249491D01*
X172159356Y-83094124D01*
X172159358Y-83094119D01*
X172214505Y-82927697D01*
X172214506Y-82927690D01*
X172224999Y-82824986D01*
X172225000Y-82824973D01*
X172225000Y-82687500D01*
X171250000Y-82687500D01*
X171250000Y-83549578D01*
X171253919Y-83556756D01*
X171248935Y-83626448D01*
X171235662Y-83650008D01*
X171236475Y-83650509D01*
X171140643Y-83805875D01*
X171140641Y-83805880D01*
X171085494Y-83972302D01*
X171085493Y-83972309D01*
X171075000Y-84075013D01*
X170200500Y-84075013D01*
X170200500Y-83629295D01*
X170220185Y-83562256D01*
X170272989Y-83516501D01*
X170342147Y-83506557D01*
X170363508Y-83511590D01*
X170372308Y-83514506D01*
X170475019Y-83524999D01*
X170749999Y-83524999D01*
X170750000Y-83524998D01*
X170750000Y-82561500D01*
X170769685Y-82494461D01*
X170822489Y-82448706D01*
X170874000Y-82437500D01*
X171000000Y-82437500D01*
X171000000Y-82311500D01*
X171019685Y-82244461D01*
X171072489Y-82198706D01*
X171124000Y-82187500D01*
X172224999Y-82187500D01*
X172224999Y-82050028D01*
X172224998Y-82050013D01*
X172214505Y-81947302D01*
X172159358Y-81780880D01*
X172159356Y-81780875D01*
X172067315Y-81631654D01*
X171943344Y-81507683D01*
X171943341Y-81507681D01*
X171940339Y-81505829D01*
X171938713Y-81504021D01*
X171937677Y-81503202D01*
X171937817Y-81503024D01*
X171893617Y-81453880D01*
X171882397Y-81384917D01*
X171910243Y-81320836D01*
X171940344Y-81294754D01*
X171943656Y-81292712D01*
X172067712Y-81168656D01*
X172159814Y-81019334D01*
X172214999Y-80852797D01*
X172225500Y-80750009D01*
X172225499Y-79974992D01*
X172225342Y-79973459D01*
X172214999Y-79872203D01*
X172214998Y-79872200D01*
X172191691Y-79801865D01*
X172159814Y-79705666D01*
X172067712Y-79556344D01*
X171943656Y-79432288D01*
X171794334Y-79340186D01*
X171794333Y-79340185D01*
X171794332Y-79340185D01*
X171785493Y-79337256D01*
X171728049Y-79297482D01*
X171701228Y-79232965D01*
X171700500Y-79219551D01*
X171700500Y-79131004D01*
X171673581Y-78995677D01*
X171673580Y-78995676D01*
X171673580Y-78995672D01*
X171641407Y-78918000D01*
X171620776Y-78868191D01*
X171592833Y-78826371D01*
X171582929Y-78811548D01*
X171544114Y-78753457D01*
X171544111Y-78753453D01*
X170926732Y-78136075D01*
X170893247Y-78074752D01*
X170892826Y-78072735D01*
X170865894Y-77937334D01*
X170834687Y-77861993D01*
X170798016Y-77773459D01*
X170798009Y-77773446D01*
X170699464Y-77625965D01*
X170699461Y-77625961D01*
X170574038Y-77500538D01*
X170574034Y-77500535D01*
X170426553Y-77401990D01*
X170426540Y-77401983D01*
X170262667Y-77334106D01*
X170262658Y-77334103D01*
X170088694Y-77299500D01*
X170088691Y-77299500D01*
X169911309Y-77299500D01*
X169911306Y-77299500D01*
X169737341Y-77334103D01*
X169737332Y-77334106D01*
X169573459Y-77401983D01*
X169573446Y-77401990D01*
X169425965Y-77500535D01*
X169425961Y-77500538D01*
X169300538Y-77625961D01*
X169300535Y-77625965D01*
X169201990Y-77773446D01*
X169201983Y-77773459D01*
X169134106Y-77937332D01*
X169134103Y-77937341D01*
X169099500Y-78111304D01*
X169099500Y-78288695D01*
X169134103Y-78462658D01*
X169134106Y-78462667D01*
X169201983Y-78626540D01*
X169201990Y-78626553D01*
X169300535Y-78774034D01*
X169300538Y-78774038D01*
X169425961Y-78899461D01*
X169425965Y-78899464D01*
X169573446Y-78998009D01*
X169573459Y-78998016D01*
X169671781Y-79038741D01*
X169737334Y-79065894D01*
X169872588Y-79092797D01*
X169889342Y-79101561D01*
X169907821Y-79105581D01*
X169932857Y-79124323D01*
X169934495Y-79125180D01*
X169936075Y-79126732D01*
X170061306Y-79251963D01*
X170094791Y-79313286D01*
X170089807Y-79382978D01*
X170061307Y-79427325D01*
X169932286Y-79556346D01*
X169895285Y-79616334D01*
X169870861Y-79638301D01*
X169847224Y-79661111D01*
X169844390Y-79662110D01*
X169843337Y-79663058D01*
X169813940Y-79672853D01*
X169774053Y-79680787D01*
X169760091Y-79683565D01*
X169756823Y-79684214D01*
X169753452Y-79684885D01*
X169683861Y-79678645D01*
X169641601Y-79650944D01*
X167536818Y-77546161D01*
X167503333Y-77484838D01*
X167500499Y-77458480D01*
X167500499Y-77181518D01*
X167520184Y-77114479D01*
X167536813Y-77093841D01*
X168670149Y-75960505D01*
X168731470Y-75927022D01*
X168777226Y-75925715D01*
X168877451Y-75941588D01*
X168933713Y-75950500D01*
X168933714Y-75950500D01*
X169146286Y-75950500D01*
X169146287Y-75950500D01*
X169356243Y-75917246D01*
X169558412Y-75851557D01*
X169747816Y-75755051D01*
X169834471Y-75692093D01*
X169919786Y-75630109D01*
X169919788Y-75630106D01*
X169919792Y-75630104D01*
X170070104Y-75479792D01*
X170070106Y-75479788D01*
X170070109Y-75479786D01*
X170195048Y-75307820D01*
X170195047Y-75307820D01*
X170195051Y-75307816D01*
X170199514Y-75299054D01*
X170247488Y-75248259D01*
X170315308Y-75231463D01*
X170381444Y-75253999D01*
X170420486Y-75299056D01*
X170424951Y-75307820D01*
X170549890Y-75479786D01*
X170700213Y-75630109D01*
X170872179Y-75755048D01*
X170872181Y-75755049D01*
X170872184Y-75755051D01*
X171061588Y-75851557D01*
X171263757Y-75917246D01*
X171473713Y-75950500D01*
X171473714Y-75950500D01*
X171686286Y-75950500D01*
X171686287Y-75950500D01*
X171896243Y-75917246D01*
X172098412Y-75851557D01*
X172287816Y-75755051D01*
X172374471Y-75692093D01*
X172459786Y-75630109D01*
X172459788Y-75630106D01*
X172459792Y-75630104D01*
X172610104Y-75479792D01*
X172610106Y-75479788D01*
X172610109Y-75479786D01*
X172735048Y-75307820D01*
X172735047Y-75307820D01*
X172735051Y-75307816D01*
X172739514Y-75299054D01*
X172787488Y-75248259D01*
X172855308Y-75231463D01*
X172921444Y-75253999D01*
X172960486Y-75299056D01*
X172964951Y-75307820D01*
X173089890Y-75479786D01*
X173240213Y-75630109D01*
X173412179Y-75755048D01*
X173412181Y-75755049D01*
X173412184Y-75755051D01*
X173601588Y-75851557D01*
X173803757Y-75917246D01*
X174013713Y-75950500D01*
X174013714Y-75950500D01*
X174226286Y-75950500D01*
X174226287Y-75950500D01*
X174436243Y-75917246D01*
X174638412Y-75851557D01*
X174827816Y-75755051D01*
X174914471Y-75692093D01*
X174999786Y-75630109D01*
X174999788Y-75630106D01*
X174999792Y-75630104D01*
X175150104Y-75479792D01*
X175150106Y-75479788D01*
X175150109Y-75479786D01*
X175275048Y-75307820D01*
X175275047Y-75307820D01*
X175275051Y-75307816D01*
X175279514Y-75299054D01*
X175327488Y-75248259D01*
X175395308Y-75231463D01*
X175461444Y-75253999D01*
X175500486Y-75299056D01*
X175504951Y-75307820D01*
X175629890Y-75479786D01*
X175780213Y-75630109D01*
X175952179Y-75755048D01*
X175952181Y-75755049D01*
X175952184Y-75755051D01*
X176141588Y-75851557D01*
X176343757Y-75917246D01*
X176553713Y-75950500D01*
X176553714Y-75950500D01*
X176766286Y-75950500D01*
X176766287Y-75950500D01*
X176976243Y-75917246D01*
X177178412Y-75851557D01*
X177367816Y-75755051D01*
X177454471Y-75692093D01*
X177539786Y-75630109D01*
X177539788Y-75630106D01*
X177539792Y-75630104D01*
X177690104Y-75479792D01*
X177690106Y-75479788D01*
X177690109Y-75479786D01*
X177815048Y-75307820D01*
X177815047Y-75307820D01*
X177815051Y-75307816D01*
X177819514Y-75299054D01*
X177867488Y-75248259D01*
X177935308Y-75231463D01*
X178001444Y-75253999D01*
X178040486Y-75299056D01*
X178044951Y-75307820D01*
X178169890Y-75479786D01*
X178320213Y-75630109D01*
X178492179Y-75755048D01*
X178492181Y-75755049D01*
X178492184Y-75755051D01*
X178681588Y-75851557D01*
X178883757Y-75917246D01*
X179093713Y-75950500D01*
X179093714Y-75950500D01*
X179306286Y-75950500D01*
X179306287Y-75950500D01*
X179516243Y-75917246D01*
X179718412Y-75851557D01*
X179907816Y-75755051D01*
X179994471Y-75692093D01*
X180079786Y-75630109D01*
X180079788Y-75630106D01*
X180079792Y-75630104D01*
X180230104Y-75479792D01*
X180230106Y-75479788D01*
X180230109Y-75479786D01*
X180355048Y-75307820D01*
X180355047Y-75307820D01*
X180355051Y-75307816D01*
X180359514Y-75299054D01*
X180407488Y-75248259D01*
X180475308Y-75231463D01*
X180541444Y-75253999D01*
X180580486Y-75299056D01*
X180584951Y-75307820D01*
X180709890Y-75479786D01*
X180860213Y-75630109D01*
X181032179Y-75755048D01*
X181032181Y-75755049D01*
X181032184Y-75755051D01*
X181221588Y-75851557D01*
X181423757Y-75917246D01*
X181633713Y-75950500D01*
X181633714Y-75950500D01*
X181846286Y-75950500D01*
X181846287Y-75950500D01*
X182056243Y-75917246D01*
X182258412Y-75851557D01*
X182447816Y-75755051D01*
X182534471Y-75692093D01*
X182619786Y-75630109D01*
X182619788Y-75630106D01*
X182619792Y-75630104D01*
X182770104Y-75479792D01*
X182770106Y-75479788D01*
X182770109Y-75479786D01*
X182895048Y-75307820D01*
X182895047Y-75307820D01*
X182895051Y-75307816D01*
X182899514Y-75299054D01*
X182947488Y-75248259D01*
X183015308Y-75231463D01*
X183081444Y-75253999D01*
X183120486Y-75299056D01*
X183124951Y-75307820D01*
X183249890Y-75479786D01*
X183400213Y-75630109D01*
X183572179Y-75755048D01*
X183572181Y-75755049D01*
X183572184Y-75755051D01*
X183761588Y-75851557D01*
X183963757Y-75917246D01*
X184173713Y-75950500D01*
X184173714Y-75950500D01*
X184386286Y-75950500D01*
X184386287Y-75950500D01*
X184596243Y-75917246D01*
X184798412Y-75851557D01*
X184987816Y-75755051D01*
X185074471Y-75692093D01*
X185159786Y-75630109D01*
X185159788Y-75630106D01*
X185159792Y-75630104D01*
X185310104Y-75479792D01*
X185310106Y-75479788D01*
X185310109Y-75479786D01*
X185435048Y-75307820D01*
X185435047Y-75307820D01*
X185435051Y-75307816D01*
X185531557Y-75118412D01*
X185597246Y-74916243D01*
X185630500Y-74706287D01*
X185630500Y-74493713D01*
X185597246Y-74283757D01*
X185531557Y-74081588D01*
X185435051Y-73892184D01*
X185435049Y-73892181D01*
X185435048Y-73892179D01*
X185310109Y-73720213D01*
X185159786Y-73569890D01*
X184987820Y-73444951D01*
X184798414Y-73348444D01*
X184798413Y-73348443D01*
X184798412Y-73348443D01*
X184596243Y-73282754D01*
X184596241Y-73282753D01*
X184596240Y-73282753D01*
X184434957Y-73257208D01*
X184386287Y-73249500D01*
X184173713Y-73249500D01*
X184125042Y-73257208D01*
X183963760Y-73282753D01*
X183761585Y-73348444D01*
X183572179Y-73444951D01*
X183400213Y-73569890D01*
X183249890Y-73720213D01*
X183124949Y-73892182D01*
X183120484Y-73900946D01*
X183072509Y-73951742D01*
X183004688Y-73968536D01*
X182938553Y-73945998D01*
X182899516Y-73900946D01*
X182895050Y-73892182D01*
X182770109Y-73720213D01*
X182619786Y-73569890D01*
X182447820Y-73444951D01*
X182258414Y-73348444D01*
X182258413Y-73348443D01*
X182258412Y-73348443D01*
X182056243Y-73282754D01*
X182056241Y-73282753D01*
X182056240Y-73282753D01*
X181894957Y-73257208D01*
X181846287Y-73249500D01*
X181633713Y-73249500D01*
X181585042Y-73257208D01*
X181423760Y-73282753D01*
X181221585Y-73348444D01*
X181032179Y-73444951D01*
X180860213Y-73569890D01*
X180709890Y-73720213D01*
X180584949Y-73892182D01*
X180580484Y-73900946D01*
X180532509Y-73951742D01*
X180464688Y-73968536D01*
X180398553Y-73945998D01*
X180359516Y-73900946D01*
X180355050Y-73892182D01*
X180230109Y-73720213D01*
X180079786Y-73569890D01*
X179907820Y-73444951D01*
X179718414Y-73348444D01*
X179718413Y-73348443D01*
X179718412Y-73348443D01*
X179516243Y-73282754D01*
X179516241Y-73282753D01*
X179516240Y-73282753D01*
X179354957Y-73257208D01*
X179306287Y-73249500D01*
X179093713Y-73249500D01*
X179045042Y-73257208D01*
X178883760Y-73282753D01*
X178681585Y-73348444D01*
X178492179Y-73444951D01*
X178320213Y-73569890D01*
X178169890Y-73720213D01*
X178044949Y-73892182D01*
X178040484Y-73900946D01*
X177992509Y-73951742D01*
X177924688Y-73968536D01*
X177858553Y-73945998D01*
X177819516Y-73900946D01*
X177815050Y-73892182D01*
X177690109Y-73720213D01*
X177539786Y-73569890D01*
X177367820Y-73444951D01*
X177178414Y-73348444D01*
X177178413Y-73348443D01*
X177178412Y-73348443D01*
X176976243Y-73282754D01*
X176976241Y-73282753D01*
X176976240Y-73282753D01*
X176814957Y-73257208D01*
X176766287Y-73249500D01*
X176553713Y-73249500D01*
X176505042Y-73257208D01*
X176343760Y-73282753D01*
X176141585Y-73348444D01*
X175952179Y-73444951D01*
X175780213Y-73569890D01*
X175629890Y-73720213D01*
X175504949Y-73892182D01*
X175500484Y-73900946D01*
X175452509Y-73951742D01*
X175384688Y-73968536D01*
X175318553Y-73945998D01*
X175279516Y-73900946D01*
X175275050Y-73892182D01*
X175150109Y-73720213D01*
X174999786Y-73569890D01*
X174827820Y-73444951D01*
X174638414Y-73348444D01*
X174638413Y-73348443D01*
X174638412Y-73348443D01*
X174436243Y-73282754D01*
X174436241Y-73282753D01*
X174436240Y-73282753D01*
X174274957Y-73257208D01*
X174226287Y-73249500D01*
X174013713Y-73249500D01*
X173965042Y-73257208D01*
X173803760Y-73282753D01*
X173601585Y-73348444D01*
X173412179Y-73444951D01*
X173240213Y-73569890D01*
X173089890Y-73720213D01*
X172964949Y-73892182D01*
X172960484Y-73900946D01*
X172912509Y-73951742D01*
X172844688Y-73968536D01*
X172778553Y-73945998D01*
X172739516Y-73900946D01*
X172735050Y-73892182D01*
X172610109Y-73720213D01*
X172459786Y-73569890D01*
X172287820Y-73444951D01*
X172098414Y-73348444D01*
X172098413Y-73348443D01*
X172098412Y-73348443D01*
X171896243Y-73282754D01*
X171896241Y-73282753D01*
X171896240Y-73282753D01*
X171734957Y-73257208D01*
X171686287Y-73249500D01*
X171473713Y-73249500D01*
X171425042Y-73257208D01*
X171263760Y-73282753D01*
X171061585Y-73348444D01*
X170872179Y-73444951D01*
X170700213Y-73569890D01*
X170549890Y-73720213D01*
X170424949Y-73892182D01*
X170420484Y-73900946D01*
X170372509Y-73951742D01*
X170304688Y-73968536D01*
X170238553Y-73945998D01*
X170199516Y-73900946D01*
X170195050Y-73892182D01*
X170070109Y-73720213D01*
X169919786Y-73569890D01*
X169747820Y-73444951D01*
X169558414Y-73348444D01*
X169558413Y-73348443D01*
X169558412Y-73348443D01*
X169356243Y-73282754D01*
X169356241Y-73282753D01*
X169356240Y-73282753D01*
X169194957Y-73257208D01*
X169146287Y-73249500D01*
X168933713Y-73249500D01*
X168885042Y-73257208D01*
X168723760Y-73282753D01*
X168521585Y-73348444D01*
X168332179Y-73444951D01*
X168160215Y-73569889D01*
X168046285Y-73683819D01*
X167984962Y-73717303D01*
X167915270Y-73712319D01*
X167859337Y-73670447D01*
X167842422Y-73639470D01*
X167793354Y-73507913D01*
X167793350Y-73507906D01*
X167707190Y-73392812D01*
X167707187Y-73392809D01*
X167592093Y-73306649D01*
X167592086Y-73306645D01*
X167457379Y-73256403D01*
X167457372Y-73256401D01*
X167397844Y-73250000D01*
X166750000Y-73250000D01*
X166750000Y-74166988D01*
X166692993Y-74134075D01*
X166565826Y-74100000D01*
X166434174Y-74100000D01*
X166307007Y-74134075D01*
X166250000Y-74166988D01*
X166250000Y-73250000D01*
X165602155Y-73250000D01*
X165542627Y-73256401D01*
X165542620Y-73256403D01*
X165407913Y-73306645D01*
X165407906Y-73306649D01*
X165292812Y-73392809D01*
X165292809Y-73392812D01*
X165206649Y-73507906D01*
X165206645Y-73507913D01*
X165156403Y-73642620D01*
X165156401Y-73642627D01*
X165150000Y-73702155D01*
X165150000Y-74350000D01*
X166066988Y-74350000D01*
X166034075Y-74407007D01*
X166000000Y-74534174D01*
X166000000Y-74665826D01*
X166034075Y-74792993D01*
X166066988Y-74850000D01*
X165150000Y-74850000D01*
X165150000Y-75497844D01*
X165156401Y-75557372D01*
X165156403Y-75557379D01*
X165206645Y-75692086D01*
X165206649Y-75692093D01*
X165292809Y-75807187D01*
X165292812Y-75807190D01*
X165407906Y-75893350D01*
X165407913Y-75893354D01*
X165546325Y-75944978D01*
X165546548Y-75945144D01*
X165546825Y-75945166D01*
X165574485Y-75966058D01*
X165602259Y-75986849D01*
X165602356Y-75987109D01*
X165602578Y-75987277D01*
X165614553Y-76019812D01*
X165626676Y-76052313D01*
X165626616Y-76052584D01*
X165626713Y-76052846D01*
X165619196Y-76086700D01*
X165611825Y-76120586D01*
X165611607Y-76120874D01*
X165611568Y-76121054D01*
X165610722Y-76122052D01*
X165590295Y-76149217D01*
X165583488Y-76155965D01*
X165581344Y-76157288D01*
X165487536Y-76251095D01*
X165487303Y-76251327D01*
X165456829Y-76267797D01*
X165426358Y-76284436D01*
X165426080Y-76284416D01*
X165425837Y-76284548D01*
X165391354Y-76281932D01*
X165356666Y-76279452D01*
X165356401Y-76279281D01*
X165356167Y-76279264D01*
X165354988Y-76278374D01*
X165312319Y-76250951D01*
X165218657Y-76157289D01*
X165218656Y-76157288D01*
X165069334Y-76065186D01*
X164902797Y-76010001D01*
X164902795Y-76010000D01*
X164800010Y-75999500D01*
X163999998Y-75999500D01*
X163999980Y-75999501D01*
X163897203Y-76010000D01*
X163897200Y-76010001D01*
X163730668Y-76065185D01*
X163730663Y-76065187D01*
X163664219Y-76106170D01*
X163581344Y-76157288D01*
X163581341Y-76157290D01*
X163575198Y-76161080D01*
X163573998Y-76159134D01*
X163519420Y-76181141D01*
X163450781Y-76168087D01*
X163419648Y-76145413D01*
X162839319Y-75565084D01*
X162805834Y-75503761D01*
X162803000Y-75477403D01*
X162803000Y-74214092D01*
X162802999Y-74214091D01*
X162801400Y-74199901D01*
X162793984Y-74134075D01*
X162788138Y-74082188D01*
X162740483Y-73945998D01*
X162729619Y-73914950D01*
X162635355Y-73764929D01*
X162510071Y-73639645D01*
X162360050Y-73545381D01*
X162192811Y-73486861D01*
X162060908Y-73472000D01*
X162060904Y-73472000D01*
X160639096Y-73472000D01*
X160639092Y-73472000D01*
X160507188Y-73486861D01*
X160339949Y-73545381D01*
X160189928Y-73639645D01*
X160064645Y-73764928D01*
X159970381Y-73914949D01*
X159911861Y-74082188D01*
X159897000Y-74214091D01*
X159897000Y-75635908D01*
X159911861Y-75767811D01*
X159955791Y-75893354D01*
X159970381Y-75935050D01*
X160064645Y-76085071D01*
X160189929Y-76210355D01*
X160255136Y-76251327D01*
X160279271Y-76266492D01*
X160325562Y-76318827D01*
X160336210Y-76387880D01*
X160307835Y-76451729D01*
X160300981Y-76459167D01*
X160241713Y-76518434D01*
X160107283Y-76703461D01*
X160003450Y-76907244D01*
X159932778Y-77124750D01*
X159932778Y-77124753D01*
X159897000Y-77350646D01*
X159897000Y-77579353D01*
X159932778Y-77805246D01*
X159932778Y-77805249D01*
X160003450Y-78022755D01*
X160029944Y-78074752D01*
X160107283Y-78226538D01*
X160241714Y-78411566D01*
X160403434Y-78573286D01*
X160403437Y-78573288D01*
X160488362Y-78634990D01*
X160531028Y-78690320D01*
X160537007Y-78759933D01*
X160516242Y-78799285D01*
X160514899Y-78816347D01*
X161261414Y-79562862D01*
X161176306Y-79585667D01*
X161073694Y-79644910D01*
X160989910Y-79728694D01*
X160930667Y-79831306D01*
X160907861Y-79916414D01*
X160161347Y-79169899D01*
X160161346Y-79169900D01*
X160107713Y-79243719D01*
X160003917Y-79447431D01*
X159933265Y-79664874D01*
X159933265Y-79664875D01*
X159897500Y-79890686D01*
X159897500Y-80119313D01*
X159933265Y-80345124D01*
X159933265Y-80345125D01*
X160003917Y-80562568D01*
X160107711Y-80766276D01*
X160161347Y-80840098D01*
X160161347Y-80840099D01*
X160907861Y-80093584D01*
X160930667Y-80178694D01*
X160989910Y-80281306D01*
X161073694Y-80365090D01*
X161176306Y-80424333D01*
X161261413Y-80447137D01*
X160514899Y-81193651D01*
X160516226Y-81210505D01*
X160531029Y-81229702D01*
X160537008Y-81299316D01*
X160504402Y-81361111D01*
X160488364Y-81375007D01*
X160403440Y-81436709D01*
X160403431Y-81436716D01*
X160241716Y-81598431D01*
X160241716Y-81598432D01*
X160241714Y-81598434D01*
X160186449Y-81674500D01*
X160107283Y-81783461D01*
X160003450Y-81987244D01*
X159932778Y-82204750D01*
X159932778Y-82204753D01*
X159915871Y-82311500D01*
X159897000Y-82430646D01*
X159897000Y-82659354D01*
X159909803Y-82740185D01*
X159932778Y-82885246D01*
X159932778Y-82885249D01*
X160003450Y-83102755D01*
X160100238Y-83292712D01*
X160107283Y-83306538D01*
X160241714Y-83491566D01*
X160403434Y-83653286D01*
X160588462Y-83787717D01*
X160697707Y-83843380D01*
X160792244Y-83891549D01*
X161009751Y-83962221D01*
X161009752Y-83962221D01*
X161009755Y-83962222D01*
X161235646Y-83998000D01*
X161235647Y-83998000D01*
X161464353Y-83998000D01*
X161464354Y-83998000D01*
X161690245Y-83962222D01*
X161690248Y-83962221D01*
X161690249Y-83962221D01*
X161907755Y-83891549D01*
X161907755Y-83891548D01*
X161907758Y-83891548D01*
X162111538Y-83787717D01*
X162296566Y-83653286D01*
X162458286Y-83491566D01*
X162592717Y-83306538D01*
X162696548Y-83102758D01*
X162723697Y-83019203D01*
X162767221Y-82885249D01*
X162767221Y-82885248D01*
X162767222Y-82885245D01*
X162803000Y-82659354D01*
X162803000Y-82430646D01*
X162767222Y-82204755D01*
X162767221Y-82204752D01*
X162766721Y-82202668D01*
X162766761Y-82201849D01*
X162766460Y-82199943D01*
X162766860Y-82199879D01*
X162770212Y-82132886D01*
X162799612Y-82086043D01*
X163287821Y-81597835D01*
X163349142Y-81564352D01*
X163418834Y-81569336D01*
X163474767Y-81611208D01*
X163499184Y-81676672D01*
X163499500Y-81685518D01*
X163499500Y-82342675D01*
X163502267Y-82377837D01*
X163502268Y-82377843D01*
X163546005Y-82528384D01*
X163546006Y-82528387D01*
X163625810Y-82663329D01*
X163625816Y-82663337D01*
X163736660Y-82774181D01*
X163736663Y-82774183D01*
X163736668Y-82774188D01*
X163738617Y-82775341D01*
X163739832Y-82776641D01*
X163742828Y-82778965D01*
X163742453Y-82779448D01*
X163786301Y-82826405D01*
X163799500Y-82882074D01*
X163799500Y-83364800D01*
X163799499Y-83364818D01*
X163799499Y-83530524D01*
X163799498Y-83530524D01*
X163799499Y-83530527D01*
X163840423Y-83683255D01*
X163840424Y-83683256D01*
X163856479Y-83711066D01*
X163856480Y-83711067D01*
X163919475Y-83820179D01*
X163919481Y-83820187D01*
X164038349Y-83939055D01*
X164038355Y-83939060D01*
X164239690Y-84140395D01*
X164273175Y-84201718D01*
X164273626Y-84203884D01*
X164304526Y-84359226D01*
X164304529Y-84359236D01*
X164364867Y-84504907D01*
X164364874Y-84504920D01*
X164452475Y-84636023D01*
X164452478Y-84636027D01*
X164563972Y-84747521D01*
X164563976Y-84747524D01*
X164695079Y-84835125D01*
X164695092Y-84835132D01*
X164827642Y-84890035D01*
X164840768Y-84895472D01*
X164995418Y-84926234D01*
X164995421Y-84926235D01*
X164995423Y-84926235D01*
X165153109Y-84926235D01*
X165153110Y-84926234D01*
X165307762Y-84895472D01*
X165453444Y-84835129D01*
X165584554Y-84747524D01*
X165696054Y-84636024D01*
X165783659Y-84504914D01*
X165785695Y-84500000D01*
X165819108Y-84419331D01*
X165844002Y-84359232D01*
X165874765Y-84204577D01*
X165874765Y-84046893D01*
X165874765Y-84046890D01*
X165874764Y-84046888D01*
X165867387Y-84009802D01*
X165844002Y-83892238D01*
X165823765Y-83843380D01*
X165783662Y-83746562D01*
X165783655Y-83746549D01*
X165696054Y-83615446D01*
X165696051Y-83615442D01*
X165584557Y-83503948D01*
X165584553Y-83503945D01*
X165453450Y-83416344D01*
X165453437Y-83416337D01*
X165307766Y-83355999D01*
X165307756Y-83355996D01*
X165152416Y-83325097D01*
X165135660Y-83316332D01*
X165117180Y-83312312D01*
X165092142Y-83293568D01*
X165090506Y-83292712D01*
X165088926Y-83291160D01*
X165036818Y-83239051D01*
X165003334Y-83177728D01*
X165000500Y-83151371D01*
X165000500Y-82882074D01*
X165020185Y-82815035D01*
X165057363Y-82779212D01*
X165057172Y-82778965D01*
X165059472Y-82777180D01*
X165061381Y-82775341D01*
X165063332Y-82774188D01*
X165174188Y-82663332D01*
X165253993Y-82528389D01*
X165297732Y-82377839D01*
X165300500Y-82342668D01*
X165300500Y-81674500D01*
X165320185Y-81607461D01*
X165372989Y-81561706D01*
X165413119Y-81552975D01*
X165412934Y-81551097D01*
X165418996Y-81550500D01*
X165510040Y-81532389D01*
X165554328Y-81523580D01*
X165660158Y-81479744D01*
X165681807Y-81470777D01*
X165681808Y-81470776D01*
X165681811Y-81470775D01*
X165796543Y-81394114D01*
X166453838Y-80736817D01*
X166515161Y-80703333D01*
X166541519Y-80700499D01*
X166800002Y-80700499D01*
X166800008Y-80700499D01*
X166902797Y-80689999D01*
X167069334Y-80634814D01*
X167218656Y-80542712D01*
X167324550Y-80436818D01*
X167385873Y-80403334D01*
X167412231Y-80400500D01*
X168058481Y-80400500D01*
X168125520Y-80420185D01*
X168146162Y-80436819D01*
X168397162Y-80687819D01*
X168430647Y-80749142D01*
X168425663Y-80818834D01*
X168383791Y-80874767D01*
X168318327Y-80899184D01*
X168309481Y-80899500D01*
X167657324Y-80899500D01*
X167622162Y-80902267D01*
X167622156Y-80902268D01*
X167471615Y-80946005D01*
X167471612Y-80946006D01*
X167336670Y-81025810D01*
X167336662Y-81025816D01*
X167225816Y-81136662D01*
X167225810Y-81136670D01*
X167146006Y-81271612D01*
X167146005Y-81271615D01*
X167102268Y-81422156D01*
X167102267Y-81422162D01*
X167099500Y-81457324D01*
X167099500Y-82342675D01*
X167102267Y-82377837D01*
X167102268Y-82377843D01*
X167146005Y-82528384D01*
X167146006Y-82528387D01*
X167225810Y-82663329D01*
X167225816Y-82663337D01*
X167336662Y-82774183D01*
X167336666Y-82774186D01*
X167336668Y-82774188D01*
X167471611Y-82853993D01*
X167505243Y-82863764D01*
X167622156Y-82897731D01*
X167622159Y-82897731D01*
X167622161Y-82897732D01*
X167657332Y-82900500D01*
X167657340Y-82900500D01*
X168342660Y-82900500D01*
X168342668Y-82900500D01*
X168377839Y-82897732D01*
X168377841Y-82897731D01*
X168377843Y-82897731D01*
X168431734Y-82882074D01*
X168528389Y-82853993D01*
X168612380Y-82804320D01*
X168680103Y-82787138D01*
X168746365Y-82809298D01*
X168790129Y-82863764D01*
X168799500Y-82911053D01*
X168799500Y-86888946D01*
X168779815Y-86955985D01*
X168727011Y-87001740D01*
X168657853Y-87011684D01*
X168612380Y-86995678D01*
X168528391Y-86946008D01*
X168528384Y-86946005D01*
X168377843Y-86902268D01*
X168377837Y-86902267D01*
X168342675Y-86899500D01*
X168342668Y-86899500D01*
X167924500Y-86899500D01*
X167857461Y-86879815D01*
X167811706Y-86827011D01*
X167800500Y-86775500D01*
X167800500Y-86621155D01*
X167800499Y-86621153D01*
X167795012Y-86593568D01*
X167769737Y-86466503D01*
X167769735Y-86466498D01*
X167709397Y-86320827D01*
X167709390Y-86320814D01*
X167621398Y-86189125D01*
X167600520Y-86122447D01*
X167600500Y-86120234D01*
X167600500Y-84879765D01*
X167620185Y-84812726D01*
X167621398Y-84810874D01*
X167633943Y-84792100D01*
X167709394Y-84679179D01*
X167769737Y-84533497D01*
X167800500Y-84378842D01*
X167800500Y-84221158D01*
X167800500Y-84221155D01*
X167800499Y-84221153D01*
X167778889Y-84112513D01*
X167769737Y-84066503D01*
X167756134Y-84033661D01*
X167709397Y-83920827D01*
X167709390Y-83920814D01*
X167621789Y-83789711D01*
X167621786Y-83789707D01*
X167510292Y-83678213D01*
X167510288Y-83678210D01*
X167379185Y-83590609D01*
X167379172Y-83590602D01*
X167233501Y-83530264D01*
X167233489Y-83530261D01*
X167078845Y-83499500D01*
X167078842Y-83499500D01*
X166921158Y-83499500D01*
X166921155Y-83499500D01*
X166766510Y-83530261D01*
X166766498Y-83530264D01*
X166620827Y-83590602D01*
X166620814Y-83590609D01*
X166489711Y-83678210D01*
X166489707Y-83678213D01*
X166378213Y-83789707D01*
X166378210Y-83789711D01*
X166290609Y-83920814D01*
X166290602Y-83920827D01*
X166230264Y-84066498D01*
X166230261Y-84066510D01*
X166199500Y-84221153D01*
X166199500Y-84378846D01*
X166230261Y-84533489D01*
X166230264Y-84533501D01*
X166290602Y-84679172D01*
X166290609Y-84679185D01*
X166378602Y-84810874D01*
X166399480Y-84877551D01*
X166399500Y-84879765D01*
X166399500Y-86120234D01*
X166379815Y-86187273D01*
X166378602Y-86189125D01*
X166290609Y-86320814D01*
X166290602Y-86320827D01*
X166230264Y-86466498D01*
X166230261Y-86466510D01*
X166199500Y-86621153D01*
X166199500Y-86778846D01*
X166230261Y-86933489D01*
X166230264Y-86933501D01*
X166290602Y-87079172D01*
X166290609Y-87079185D01*
X166378210Y-87210288D01*
X166378213Y-87210292D01*
X166489707Y-87321786D01*
X166489711Y-87321789D01*
X166620814Y-87409390D01*
X166620827Y-87409397D01*
X166736535Y-87457324D01*
X166766503Y-87469737D01*
X166900496Y-87496390D01*
X166921153Y-87500499D01*
X166921156Y-87500500D01*
X166975500Y-87500500D01*
X167042539Y-87520185D01*
X167088294Y-87572989D01*
X167099500Y-87624500D01*
X167099500Y-88342675D01*
X167102267Y-88377837D01*
X167102268Y-88377843D01*
X167146005Y-88528384D01*
X167146006Y-88528387D01*
X167146007Y-88528389D01*
X167158492Y-88549500D01*
X167225810Y-88663329D01*
X167225816Y-88663337D01*
X167336662Y-88774183D01*
X167336666Y-88774186D01*
X167336668Y-88774188D01*
X167471611Y-88853993D01*
X167511313Y-88865527D01*
X167622156Y-88897731D01*
X167622159Y-88897731D01*
X167622161Y-88897732D01*
X167657332Y-88900500D01*
X167657340Y-88900500D01*
X168070704Y-88900500D01*
X168137743Y-88920185D01*
X168183498Y-88972989D01*
X168193442Y-89042147D01*
X168188411Y-89063501D01*
X168185495Y-89072300D01*
X168185493Y-89072309D01*
X168175000Y-89175013D01*
X168175000Y-89450000D01*
X169138500Y-89450000D01*
X169205539Y-89469685D01*
X169251294Y-89522489D01*
X169262500Y-89574000D01*
X169262500Y-89700000D01*
X169388500Y-89700000D01*
X169455539Y-89719685D01*
X169501294Y-89772489D01*
X169512500Y-89824000D01*
X169512500Y-90570000D01*
X169527673Y-90585173D01*
X169543039Y-90589685D01*
X169588794Y-90642489D01*
X169600000Y-90694000D01*
X169600000Y-92026000D01*
X169580315Y-92093039D01*
X169527511Y-92138794D01*
X169476000Y-92150000D01*
X169350000Y-92150000D01*
X169350000Y-92276000D01*
X169330315Y-92343039D01*
X169277511Y-92388794D01*
X169226000Y-92400000D01*
X168450001Y-92400000D01*
X168450001Y-92956582D01*
X168456408Y-93027102D01*
X168456409Y-93027107D01*
X168506981Y-93189396D01*
X168580705Y-93311350D01*
X168598541Y-93378904D01*
X168577024Y-93445378D01*
X168522983Y-93489666D01*
X168474588Y-93499500D01*
X167502088Y-93499500D01*
X167435049Y-93479815D01*
X167396549Y-93440597D01*
X167367712Y-93393844D01*
X167243656Y-93269788D01*
X167240342Y-93267743D01*
X167238546Y-93265748D01*
X167237989Y-93265307D01*
X167238064Y-93265211D01*
X167193618Y-93215797D01*
X167182397Y-93146834D01*
X167210240Y-93082752D01*
X167240348Y-93056665D01*
X167243342Y-93054818D01*
X167367315Y-92930845D01*
X167459356Y-92781624D01*
X167459358Y-92781619D01*
X167514505Y-92615197D01*
X167514506Y-92615190D01*
X167524999Y-92512486D01*
X167525000Y-92512473D01*
X167525000Y-92375000D01*
X165075001Y-92375000D01*
X165075001Y-92512486D01*
X165085494Y-92615197D01*
X165140641Y-92781619D01*
X165140643Y-92781624D01*
X165232684Y-92930845D01*
X165356655Y-93054816D01*
X165356659Y-93054819D01*
X165359656Y-93056668D01*
X165361279Y-93058472D01*
X165362323Y-93059298D01*
X165362181Y-93059476D01*
X165406381Y-93108616D01*
X165417602Y-93177579D01*
X165389759Y-93241661D01*
X165359661Y-93267741D01*
X165356349Y-93269783D01*
X165356343Y-93269788D01*
X165232289Y-93393842D01*
X165203451Y-93440597D01*
X165195863Y-93447421D01*
X165191625Y-93456703D01*
X165170325Y-93470391D01*
X165151503Y-93487321D01*
X165139867Y-93489965D01*
X165132847Y-93494477D01*
X165097912Y-93499500D01*
X164966519Y-93499500D01*
X164899480Y-93479815D01*
X164878838Y-93463181D01*
X163153170Y-91737513D01*
X165075000Y-91737513D01*
X165075000Y-91875000D01*
X166050000Y-91875000D01*
X166550000Y-91875000D01*
X167524999Y-91875000D01*
X167524999Y-91737528D01*
X167524998Y-91737513D01*
X167514505Y-91634802D01*
X167459358Y-91468380D01*
X167459356Y-91468375D01*
X167367315Y-91319154D01*
X167243345Y-91195184D01*
X167094124Y-91103143D01*
X167094119Y-91103141D01*
X166927697Y-91047994D01*
X166927690Y-91047993D01*
X166824986Y-91037500D01*
X166550000Y-91037500D01*
X166550000Y-91875000D01*
X166050000Y-91875000D01*
X166050000Y-91037500D01*
X165775029Y-91037500D01*
X165775012Y-91037501D01*
X165672302Y-91047994D01*
X165505880Y-91103141D01*
X165505875Y-91103143D01*
X165356654Y-91195184D01*
X165232684Y-91319154D01*
X165140643Y-91468375D01*
X165140641Y-91468380D01*
X165085494Y-91634802D01*
X165085493Y-91634809D01*
X165075000Y-91737513D01*
X163153170Y-91737513D01*
X162814319Y-91398662D01*
X162780834Y-91337339D01*
X162778000Y-91310981D01*
X162778000Y-90224986D01*
X168175001Y-90224986D01*
X168185494Y-90327697D01*
X168240641Y-90494119D01*
X168240643Y-90494124D01*
X168332684Y-90643345D01*
X168456654Y-90767315D01*
X168539874Y-90818646D01*
X168586598Y-90870594D01*
X168597820Y-90939557D01*
X168580894Y-90988334D01*
X168506982Y-91110599D01*
X168506980Y-91110603D01*
X168456409Y-91272893D01*
X168450000Y-91343427D01*
X168450000Y-91900000D01*
X169100000Y-91900000D01*
X169100000Y-91055000D01*
X169084826Y-91039826D01*
X169069461Y-91035315D01*
X169023706Y-90982511D01*
X169012500Y-90931000D01*
X169012500Y-89950000D01*
X168175001Y-89950000D01*
X168175001Y-90224986D01*
X162778000Y-90224986D01*
X162778000Y-90189092D01*
X162777999Y-90189091D01*
X162775978Y-90171158D01*
X162763137Y-90057186D01*
X162763137Y-90057185D01*
X162763137Y-90057183D01*
X162725631Y-89950000D01*
X162704619Y-89889950D01*
X162610355Y-89739929D01*
X162485071Y-89614645D01*
X162335050Y-89520381D01*
X162167814Y-89461863D01*
X162167813Y-89461862D01*
X162167811Y-89461862D01*
X162136272Y-89458308D01*
X162071858Y-89431241D01*
X162063864Y-89424136D01*
X161420185Y-88800369D01*
X161498694Y-88779333D01*
X161601306Y-88720090D01*
X161685090Y-88636306D01*
X161744333Y-88533694D01*
X161768893Y-88442034D01*
X162527015Y-89176705D01*
X162527016Y-89176705D01*
X162567286Y-89121280D01*
X162567287Y-89121278D01*
X162671082Y-88917568D01*
X162741734Y-88700125D01*
X162741734Y-88700124D01*
X162777500Y-88474313D01*
X162777500Y-88245686D01*
X162741734Y-88019875D01*
X162741734Y-88019874D01*
X162671082Y-87802431D01*
X162567288Y-87598723D01*
X162515747Y-87527783D01*
X162515746Y-87527781D01*
X162500258Y-87506464D01*
X161765369Y-88264813D01*
X161744333Y-88186306D01*
X161685090Y-88083694D01*
X161601306Y-87999910D01*
X161498694Y-87940667D01*
X161407032Y-87916106D01*
X161851623Y-87457324D01*
X163499500Y-87457324D01*
X163499500Y-88342675D01*
X163502267Y-88377837D01*
X163502268Y-88377843D01*
X163546005Y-88528384D01*
X163546006Y-88528387D01*
X163546007Y-88528389D01*
X163558492Y-88549500D01*
X163625810Y-88663329D01*
X163625816Y-88663337D01*
X163736662Y-88774183D01*
X163736666Y-88774186D01*
X163736668Y-88774188D01*
X163871611Y-88853993D01*
X163911313Y-88865527D01*
X164022156Y-88897731D01*
X164022159Y-88897731D01*
X164022161Y-88897732D01*
X164057332Y-88900500D01*
X164057340Y-88900500D01*
X164742660Y-88900500D01*
X164742668Y-88900500D01*
X164777839Y-88897732D01*
X164777841Y-88897731D01*
X164777843Y-88897731D01*
X164851016Y-88876472D01*
X164928389Y-88853993D01*
X165063332Y-88774188D01*
X165174188Y-88663332D01*
X165253993Y-88528389D01*
X165297732Y-88377839D01*
X165300500Y-88342668D01*
X165300500Y-87457332D01*
X165297732Y-87422161D01*
X165274924Y-87343657D01*
X165253994Y-87271615D01*
X165253993Y-87271612D01*
X165253993Y-87271611D01*
X165174188Y-87136668D01*
X165174186Y-87136666D01*
X165174183Y-87136662D01*
X165063337Y-87025816D01*
X165063329Y-87025810D01*
X164988755Y-86981707D01*
X164928389Y-86946007D01*
X164928388Y-86946006D01*
X164928387Y-86946006D01*
X164928384Y-86946005D01*
X164777843Y-86902268D01*
X164777837Y-86902267D01*
X164742675Y-86899500D01*
X164742668Y-86899500D01*
X164057332Y-86899500D01*
X164057324Y-86899500D01*
X164022162Y-86902267D01*
X164022156Y-86902268D01*
X163871615Y-86946005D01*
X163871612Y-86946006D01*
X163736670Y-87025810D01*
X163736662Y-87025816D01*
X163625816Y-87136662D01*
X163625810Y-87136670D01*
X163546006Y-87271612D01*
X163546005Y-87271615D01*
X163502268Y-87422156D01*
X163502267Y-87422162D01*
X163499500Y-87457324D01*
X161851623Y-87457324D01*
X162141705Y-87157983D01*
X162141705Y-87157982D01*
X162086279Y-87117713D01*
X161882568Y-87013917D01*
X161665124Y-86943265D01*
X161439313Y-86907500D01*
X161210687Y-86907500D01*
X160984875Y-86943265D01*
X160984874Y-86943265D01*
X160767431Y-87013917D01*
X160563722Y-87117712D01*
X160471464Y-87184739D01*
X161229814Y-87919630D01*
X161151306Y-87940667D01*
X161048694Y-87999910D01*
X160964910Y-88083694D01*
X160905667Y-88186306D01*
X160881106Y-88277965D01*
X160122983Y-87543292D01*
X160082712Y-87598722D01*
X159978917Y-87802431D01*
X159908265Y-88019874D01*
X159908265Y-88019875D01*
X159872500Y-88245686D01*
X159872500Y-88474313D01*
X159908265Y-88700124D01*
X159908265Y-88700125D01*
X159978917Y-88917568D01*
X160082713Y-89121279D01*
X160149739Y-89213534D01*
X160884630Y-88455183D01*
X160905667Y-88533694D01*
X160964910Y-88636306D01*
X161048694Y-88720090D01*
X161151306Y-88779333D01*
X161242964Y-88803892D01*
X160651402Y-89414338D01*
X160590612Y-89448782D01*
X160576238Y-89451265D01*
X160482188Y-89461861D01*
X160314949Y-89520381D01*
X160164928Y-89614645D01*
X160039645Y-89739928D01*
X159945381Y-89889949D01*
X159886861Y-90057188D01*
X159872000Y-90189091D01*
X154413000Y-90189091D01*
X154413000Y-72669500D01*
X154432685Y-72602461D01*
X154485489Y-72556706D01*
X154537000Y-72545500D01*
X189386000Y-72545500D01*
X189453039Y-72565185D01*
G37*
%TD.AperFunction*%
%TD*%
M02*
