%TF.GenerationSoftware,KiCad,Pcbnew,9.0.1*%
%TF.CreationDate,2025-08-27T22:57:26+02:00*%
%TF.ProjectId,ventilation,76656e74-696c-4617-9469-6f6e2e6b6963,rev?*%
%TF.SameCoordinates,Original*%
%TF.FileFunction,Soldermask,Top*%
%TF.FilePolarity,Negative*%
%FSLAX46Y46*%
G04 Gerber Fmt 4.6, Leading zero omitted, Abs format (unit mm)*
G04 Created by KiCad (PCBNEW 9.0.1) date 2025-08-27 22:57:26*
%MOMM*%
%LPD*%
G01*
G04 APERTURE LIST*
G04 Aperture macros list*
%AMRoundRect*
0 Rectangle with rounded corners*
0 $1 Rounding radius*
0 $2 $3 $4 $5 $6 $7 $8 $9 X,Y pos of 4 corners*
0 Add a 4 corners polygon primitive as box body*
4,1,4,$2,$3,$4,$5,$6,$7,$8,$9,$2,$3,0*
0 Add four circle primitives for the rounded corners*
1,1,$1+$1,$2,$3*
1,1,$1+$1,$4,$5*
1,1,$1+$1,$6,$7*
1,1,$1+$1,$8,$9*
0 Add four rect primitives between the rounded corners*
20,1,$1+$1,$2,$3,$4,$5,0*
20,1,$1+$1,$4,$5,$6,$7,0*
20,1,$1+$1,$6,$7,$8,$9,0*
20,1,$1+$1,$8,$9,$2,$3,0*%
G04 Aperture macros list end*
%ADD10RoundRect,0.250000X0.262500X0.450000X-0.262500X0.450000X-0.262500X-0.450000X0.262500X-0.450000X0*%
%ADD11RoundRect,0.285750X-0.666750X-0.666750X0.666750X-0.666750X0.666750X0.666750X-0.666750X0.666750X0*%
%ADD12C,1.905000*%
%ADD13RoundRect,0.243750X-0.243750X-0.456250X0.243750X-0.456250X0.243750X0.456250X-0.243750X0.456250X0*%
%ADD14RoundRect,0.150000X-0.150000X0.512500X-0.150000X-0.512500X0.150000X-0.512500X0.150000X0.512500X0*%
%ADD15RoundRect,0.150000X-0.150000X0.587500X-0.150000X-0.587500X0.150000X-0.587500X0.150000X0.587500X0*%
%ADD16RoundRect,0.150000X0.587500X0.150000X-0.587500X0.150000X-0.587500X-0.150000X0.587500X-0.150000X0*%
%ADD17R,1.700000X1.700000*%
%ADD18C,1.700000*%
%ADD19RoundRect,0.250000X0.250000X0.475000X-0.250000X0.475000X-0.250000X-0.475000X0.250000X-0.475000X0*%
%ADD20RoundRect,0.250000X-0.350000X-0.450000X0.350000X-0.450000X0.350000X0.450000X-0.350000X0.450000X0*%
%ADD21RoundRect,0.250000X-0.450000X0.262500X-0.450000X-0.262500X0.450000X-0.262500X0.450000X0.262500X0*%
%ADD22RoundRect,0.249999X1.425001X-0.450001X1.425001X0.450001X-1.425001X0.450001X-1.425001X-0.450001X0*%
%ADD23O,2.000000X0.600000*%
%ADD24C,2.500000*%
%ADD25RoundRect,0.250000X0.450000X-0.262500X0.450000X0.262500X-0.450000X0.262500X-0.450000X-0.262500X0*%
%ADD26RoundRect,0.250000X0.350000X0.450000X-0.350000X0.450000X-0.350000X-0.450000X0.350000X-0.450000X0*%
%ADD27RoundRect,0.075000X0.075000X-0.662500X0.075000X0.662500X-0.075000X0.662500X-0.075000X-0.662500X0*%
%ADD28RoundRect,0.075000X0.662500X-0.075000X0.662500X0.075000X-0.662500X0.075000X-0.662500X-0.075000X0*%
%ADD29RoundRect,0.250000X-0.250000X-0.475000X0.250000X-0.475000X0.250000X0.475000X-0.250000X0.475000X0*%
%ADD30RoundRect,0.250000X-0.262500X-0.450000X0.262500X-0.450000X0.262500X0.450000X-0.262500X0.450000X0*%
G04 APERTURE END LIST*
D10*
%TO.C,R5*%
X185637500Y-94400000D03*
X183812500Y-94400000D03*
%TD*%
D11*
%TO.C,J5*%
X161300000Y-96745000D03*
D12*
X161300000Y-99285000D03*
X161300000Y-101825000D03*
%TD*%
D13*
%TO.C,D2*%
X183827500Y-96585000D03*
X185702500Y-96585000D03*
%TD*%
D14*
%TO.C,U3*%
X171225000Y-98025000D03*
X170275000Y-98025000D03*
X169325000Y-98025000D03*
X169325000Y-100300000D03*
X171225000Y-100300000D03*
%TD*%
D10*
%TO.C,R7*%
X171175000Y-95825000D03*
X169350000Y-95825000D03*
%TD*%
D15*
%TO.C,Q1*%
X166675000Y-91825000D03*
X164775000Y-91825000D03*
X165725000Y-93700000D03*
%TD*%
D16*
%TO.C,Q2*%
X171450000Y-93475000D03*
X171450000Y-91575000D03*
X169575000Y-92525000D03*
%TD*%
D17*
%TO.C,J4*%
X166500000Y-74600000D03*
D18*
X169040000Y-74600000D03*
X171580000Y-74600000D03*
X174120000Y-74600000D03*
X176660000Y-74600000D03*
X179200000Y-74600000D03*
X181740000Y-74600000D03*
X184280000Y-74600000D03*
%TD*%
D19*
%TO.C,C9*%
X178025000Y-94025000D03*
X176125000Y-94025000D03*
%TD*%
D20*
%TO.C,R16*%
X174200000Y-98400000D03*
X176200000Y-98400000D03*
%TD*%
D13*
%TO.C,D1*%
X183827500Y-98815000D03*
X185702500Y-98815000D03*
%TD*%
D12*
%TO.C,J1*%
X161325000Y-88360000D03*
D11*
X161325000Y-90900000D03*
%TD*%
D21*
%TO.C,R6*%
X174000000Y-91587500D03*
X174000000Y-93412500D03*
%TD*%
D10*
%TO.C,R8*%
X177975000Y-91750000D03*
X176150000Y-91750000D03*
%TD*%
D22*
%TO.C,R15*%
X165775000Y-102525000D03*
X165775000Y-96425000D03*
%TD*%
D11*
%TO.C,J2*%
X161350000Y-74925000D03*
D12*
X161350000Y-77465000D03*
X161350000Y-80005000D03*
X161350000Y-82545000D03*
%TD*%
D23*
%TO.C,NRF1*%
X184412500Y-81005000D03*
X184412500Y-82275000D03*
X184412500Y-83545000D03*
X184412500Y-84815000D03*
X184412500Y-86085000D03*
X184412500Y-87355000D03*
X184412500Y-88625000D03*
X184412500Y-89895000D03*
%TD*%
D15*
%TO.C,Q3*%
X176000000Y-100700000D03*
X174100000Y-100700000D03*
X175050000Y-102575000D03*
%TD*%
D24*
%TO.C,H2*%
X191600000Y-100650000D03*
%TD*%
D10*
%TO.C,R4*%
X185637500Y-101000000D03*
X183812500Y-101000000D03*
%TD*%
D25*
%TO.C,R2*%
X165100000Y-82400000D03*
X165100000Y-80575000D03*
%TD*%
D24*
%TO.C,H1*%
X191600000Y-75650000D03*
%TD*%
D26*
%TO.C,R3*%
X166825000Y-89200000D03*
X164825000Y-89200000D03*
%TD*%
D27*
%TO.C,U1*%
X170637500Y-88437500D03*
X171137500Y-88437500D03*
X171637500Y-88437500D03*
X172137500Y-88437500D03*
X172637500Y-88437500D03*
X173137500Y-88437500D03*
X173637500Y-88437500D03*
X174137500Y-88437500D03*
X174637500Y-88437500D03*
X175137500Y-88437500D03*
X175637500Y-88437500D03*
X176137500Y-88437500D03*
D28*
X177550000Y-87025000D03*
X177550000Y-86525000D03*
X177550000Y-86025000D03*
X177550000Y-85525000D03*
X177550000Y-85025000D03*
X177550000Y-84525000D03*
X177550000Y-84025000D03*
X177550000Y-83525000D03*
X177550000Y-83025000D03*
X177550000Y-82525000D03*
X177550000Y-82025000D03*
X177550000Y-81525000D03*
D27*
X176137500Y-80112500D03*
X175637500Y-80112500D03*
X175137500Y-80112500D03*
X174637500Y-80112500D03*
X174137500Y-80112500D03*
X173637500Y-80112500D03*
X173137500Y-80112500D03*
X172637500Y-80112500D03*
X172137500Y-80112500D03*
X171637500Y-80112500D03*
X171137500Y-80112500D03*
X170637500Y-80112500D03*
D28*
X169225000Y-81525000D03*
X169225000Y-82025000D03*
X169225000Y-82525000D03*
X169225000Y-83025000D03*
X169225000Y-83525000D03*
X169225000Y-84025000D03*
X169225000Y-84525000D03*
X169225000Y-85025000D03*
X169225000Y-85525000D03*
X169225000Y-86025000D03*
X169225000Y-86525000D03*
X169225000Y-87025000D03*
%TD*%
D29*
%TO.C,C12*%
X169325000Y-102575000D03*
X171225000Y-102575000D03*
%TD*%
D30*
%TO.C,R11*%
X163887500Y-87200000D03*
X165712500Y-87200000D03*
%TD*%
M02*
