%TF.GenerationSoftware,KiCad,Pcbnew,9.0.1*%
%TF.CreationDate,2025-08-08T13:51:02+02:00*%
%TF.ProjectId,remote,72656d6f-7465-42e6-9b69-6361645f7063,rev?*%
%TF.SameCoordinates,Original*%
%TF.FileFunction,Legend,Top*%
%TF.FilePolarity,Positive*%
%FSLAX46Y46*%
G04 Gerber Fmt 4.6, Leading zero omitted, Abs format (unit mm)*
G04 Created by KiCad (PCBNEW 9.0.1) date 2025-08-08 13:51:02*
%MOMM*%
%LPD*%
G01*
G04 APERTURE LIST*
%ADD10C,0.150000*%
%ADD11C,0.100000*%
%ADD12C,0.120000*%
G04 APERTURE END LIST*
D10*
X122289160Y-121922200D02*
X122432017Y-121969819D01*
X122432017Y-121969819D02*
X122670112Y-121969819D01*
X122670112Y-121969819D02*
X122765350Y-121922200D01*
X122765350Y-121922200D02*
X122812969Y-121874580D01*
X122812969Y-121874580D02*
X122860588Y-121779342D01*
X122860588Y-121779342D02*
X122860588Y-121684104D01*
X122860588Y-121684104D02*
X122812969Y-121588866D01*
X122812969Y-121588866D02*
X122765350Y-121541247D01*
X122765350Y-121541247D02*
X122670112Y-121493628D01*
X122670112Y-121493628D02*
X122479636Y-121446009D01*
X122479636Y-121446009D02*
X122384398Y-121398390D01*
X122384398Y-121398390D02*
X122336779Y-121350771D01*
X122336779Y-121350771D02*
X122289160Y-121255533D01*
X122289160Y-121255533D02*
X122289160Y-121160295D01*
X122289160Y-121160295D02*
X122336779Y-121065057D01*
X122336779Y-121065057D02*
X122384398Y-121017438D01*
X122384398Y-121017438D02*
X122479636Y-120969819D01*
X122479636Y-120969819D02*
X122717731Y-120969819D01*
X122717731Y-120969819D02*
X122860588Y-121017438D01*
X123193922Y-120969819D02*
X123432017Y-121969819D01*
X123432017Y-121969819D02*
X123622493Y-121255533D01*
X123622493Y-121255533D02*
X123812969Y-121969819D01*
X123812969Y-121969819D02*
X124051065Y-120969819D01*
X125003445Y-121874580D02*
X124955826Y-121922200D01*
X124955826Y-121922200D02*
X124812969Y-121969819D01*
X124812969Y-121969819D02*
X124717731Y-121969819D01*
X124717731Y-121969819D02*
X124574874Y-121922200D01*
X124574874Y-121922200D02*
X124479636Y-121826961D01*
X124479636Y-121826961D02*
X124432017Y-121731723D01*
X124432017Y-121731723D02*
X124384398Y-121541247D01*
X124384398Y-121541247D02*
X124384398Y-121398390D01*
X124384398Y-121398390D02*
X124432017Y-121207914D01*
X124432017Y-121207914D02*
X124479636Y-121112676D01*
X124479636Y-121112676D02*
X124574874Y-121017438D01*
X124574874Y-121017438D02*
X124717731Y-120969819D01*
X124717731Y-120969819D02*
X124812969Y-120969819D01*
X124812969Y-120969819D02*
X124955826Y-121017438D01*
X124955826Y-121017438D02*
X125003445Y-121065057D01*
X122841541Y-128569819D02*
X123460588Y-128569819D01*
X123460588Y-128569819D02*
X123127255Y-128950771D01*
X123127255Y-128950771D02*
X123270112Y-128950771D01*
X123270112Y-128950771D02*
X123365350Y-128998390D01*
X123365350Y-128998390D02*
X123412969Y-129046009D01*
X123412969Y-129046009D02*
X123460588Y-129141247D01*
X123460588Y-129141247D02*
X123460588Y-129379342D01*
X123460588Y-129379342D02*
X123412969Y-129474580D01*
X123412969Y-129474580D02*
X123365350Y-129522200D01*
X123365350Y-129522200D02*
X123270112Y-129569819D01*
X123270112Y-129569819D02*
X122984398Y-129569819D01*
X122984398Y-129569819D02*
X122889160Y-129522200D01*
X122889160Y-129522200D02*
X122841541Y-129474580D01*
X123746303Y-128569819D02*
X124079636Y-129569819D01*
X124079636Y-129569819D02*
X124412969Y-128569819D01*
X124651065Y-128569819D02*
X125270112Y-128569819D01*
X125270112Y-128569819D02*
X124936779Y-128950771D01*
X124936779Y-128950771D02*
X125079636Y-128950771D01*
X125079636Y-128950771D02*
X125174874Y-128998390D01*
X125174874Y-128998390D02*
X125222493Y-129046009D01*
X125222493Y-129046009D02*
X125270112Y-129141247D01*
X125270112Y-129141247D02*
X125270112Y-129379342D01*
X125270112Y-129379342D02*
X125222493Y-129474580D01*
X125222493Y-129474580D02*
X125174874Y-129522200D01*
X125174874Y-129522200D02*
X125079636Y-129569819D01*
X125079636Y-129569819D02*
X124793922Y-129569819D01*
X124793922Y-129569819D02*
X124698684Y-129522200D01*
X124698684Y-129522200D02*
X124651065Y-129474580D01*
X119952652Y-128617438D02*
X119857414Y-128569819D01*
X119857414Y-128569819D02*
X119714557Y-128569819D01*
X119714557Y-128569819D02*
X119571700Y-128617438D01*
X119571700Y-128617438D02*
X119476462Y-128712676D01*
X119476462Y-128712676D02*
X119428843Y-128807914D01*
X119428843Y-128807914D02*
X119381224Y-128998390D01*
X119381224Y-128998390D02*
X119381224Y-129141247D01*
X119381224Y-129141247D02*
X119428843Y-129331723D01*
X119428843Y-129331723D02*
X119476462Y-129426961D01*
X119476462Y-129426961D02*
X119571700Y-129522200D01*
X119571700Y-129522200D02*
X119714557Y-129569819D01*
X119714557Y-129569819D02*
X119809795Y-129569819D01*
X119809795Y-129569819D02*
X119952652Y-129522200D01*
X119952652Y-129522200D02*
X120000271Y-129474580D01*
X120000271Y-129474580D02*
X120000271Y-129141247D01*
X120000271Y-129141247D02*
X119809795Y-129141247D01*
X120428843Y-129569819D02*
X120428843Y-128569819D01*
X120428843Y-128569819D02*
X121000271Y-129569819D01*
X121000271Y-129569819D02*
X121000271Y-128569819D01*
X121476462Y-129569819D02*
X121476462Y-128569819D01*
X121476462Y-128569819D02*
X121714557Y-128569819D01*
X121714557Y-128569819D02*
X121857414Y-128617438D01*
X121857414Y-128617438D02*
X121952652Y-128712676D01*
X121952652Y-128712676D02*
X122000271Y-128807914D01*
X122000271Y-128807914D02*
X122047890Y-128998390D01*
X122047890Y-128998390D02*
X122047890Y-129141247D01*
X122047890Y-129141247D02*
X122000271Y-129331723D01*
X122000271Y-129331723D02*
X121952652Y-129426961D01*
X121952652Y-129426961D02*
X121857414Y-129522200D01*
X121857414Y-129522200D02*
X121714557Y-129569819D01*
X121714557Y-129569819D02*
X121476462Y-129569819D01*
X116159001Y-129522200D02*
X116301858Y-129569819D01*
X116301858Y-129569819D02*
X116539953Y-129569819D01*
X116539953Y-129569819D02*
X116635191Y-129522200D01*
X116635191Y-129522200D02*
X116682810Y-129474580D01*
X116682810Y-129474580D02*
X116730429Y-129379342D01*
X116730429Y-129379342D02*
X116730429Y-129284104D01*
X116730429Y-129284104D02*
X116682810Y-129188866D01*
X116682810Y-129188866D02*
X116635191Y-129141247D01*
X116635191Y-129141247D02*
X116539953Y-129093628D01*
X116539953Y-129093628D02*
X116349477Y-129046009D01*
X116349477Y-129046009D02*
X116254239Y-128998390D01*
X116254239Y-128998390D02*
X116206620Y-128950771D01*
X116206620Y-128950771D02*
X116159001Y-128855533D01*
X116159001Y-128855533D02*
X116159001Y-128760295D01*
X116159001Y-128760295D02*
X116206620Y-128665057D01*
X116206620Y-128665057D02*
X116254239Y-128617438D01*
X116254239Y-128617438D02*
X116349477Y-128569819D01*
X116349477Y-128569819D02*
X116587572Y-128569819D01*
X116587572Y-128569819D02*
X116730429Y-128617438D01*
X117730429Y-129474580D02*
X117682810Y-129522200D01*
X117682810Y-129522200D02*
X117539953Y-129569819D01*
X117539953Y-129569819D02*
X117444715Y-129569819D01*
X117444715Y-129569819D02*
X117301858Y-129522200D01*
X117301858Y-129522200D02*
X117206620Y-129426961D01*
X117206620Y-129426961D02*
X117159001Y-129331723D01*
X117159001Y-129331723D02*
X117111382Y-129141247D01*
X117111382Y-129141247D02*
X117111382Y-128998390D01*
X117111382Y-128998390D02*
X117159001Y-128807914D01*
X117159001Y-128807914D02*
X117206620Y-128712676D01*
X117206620Y-128712676D02*
X117301858Y-128617438D01*
X117301858Y-128617438D02*
X117444715Y-128569819D01*
X117444715Y-128569819D02*
X117539953Y-128569819D01*
X117539953Y-128569819D02*
X117682810Y-128617438D01*
X117682810Y-128617438D02*
X117730429Y-128665057D01*
X118635191Y-129569819D02*
X118159001Y-129569819D01*
X118159001Y-129569819D02*
X118159001Y-128569819D01*
X112889160Y-129522200D02*
X113032017Y-129569819D01*
X113032017Y-129569819D02*
X113270112Y-129569819D01*
X113270112Y-129569819D02*
X113365350Y-129522200D01*
X113365350Y-129522200D02*
X113412969Y-129474580D01*
X113412969Y-129474580D02*
X113460588Y-129379342D01*
X113460588Y-129379342D02*
X113460588Y-129284104D01*
X113460588Y-129284104D02*
X113412969Y-129188866D01*
X113412969Y-129188866D02*
X113365350Y-129141247D01*
X113365350Y-129141247D02*
X113270112Y-129093628D01*
X113270112Y-129093628D02*
X113079636Y-129046009D01*
X113079636Y-129046009D02*
X112984398Y-128998390D01*
X112984398Y-128998390D02*
X112936779Y-128950771D01*
X112936779Y-128950771D02*
X112889160Y-128855533D01*
X112889160Y-128855533D02*
X112889160Y-128760295D01*
X112889160Y-128760295D02*
X112936779Y-128665057D01*
X112936779Y-128665057D02*
X112984398Y-128617438D01*
X112984398Y-128617438D02*
X113079636Y-128569819D01*
X113079636Y-128569819D02*
X113317731Y-128569819D01*
X113317731Y-128569819D02*
X113460588Y-128617438D01*
X113889160Y-129569819D02*
X113889160Y-128569819D01*
X113889160Y-128569819D02*
X114127255Y-128569819D01*
X114127255Y-128569819D02*
X114270112Y-128617438D01*
X114270112Y-128617438D02*
X114365350Y-128712676D01*
X114365350Y-128712676D02*
X114412969Y-128807914D01*
X114412969Y-128807914D02*
X114460588Y-128998390D01*
X114460588Y-128998390D02*
X114460588Y-129141247D01*
X114460588Y-129141247D02*
X114412969Y-129331723D01*
X114412969Y-129331723D02*
X114365350Y-129426961D01*
X114365350Y-129426961D02*
X114270112Y-129522200D01*
X114270112Y-129522200D02*
X114127255Y-129569819D01*
X114127255Y-129569819D02*
X113889160Y-129569819D01*
X114841541Y-129284104D02*
X115317731Y-129284104D01*
X114746303Y-129569819D02*
X115079636Y-128569819D01*
X115079636Y-128569819D02*
X115412969Y-129569819D01*
X116901858Y-121969819D02*
X116568525Y-121493628D01*
X116330430Y-121969819D02*
X116330430Y-120969819D01*
X116330430Y-120969819D02*
X116711382Y-120969819D01*
X116711382Y-120969819D02*
X116806620Y-121017438D01*
X116806620Y-121017438D02*
X116854239Y-121065057D01*
X116854239Y-121065057D02*
X116901858Y-121160295D01*
X116901858Y-121160295D02*
X116901858Y-121303152D01*
X116901858Y-121303152D02*
X116854239Y-121398390D01*
X116854239Y-121398390D02*
X116806620Y-121446009D01*
X116806620Y-121446009D02*
X116711382Y-121493628D01*
X116711382Y-121493628D02*
X116330430Y-121493628D01*
X117235192Y-120969819D02*
X117901858Y-121969819D01*
X117901858Y-120969819D02*
X117235192Y-121969819D01*
X113993922Y-120969819D02*
X114565350Y-120969819D01*
X114279636Y-121969819D02*
X114279636Y-120969819D01*
X114803446Y-120969819D02*
X115470112Y-121969819D01*
X115470112Y-120969819D02*
X114803446Y-121969819D01*
X118714557Y-121922200D02*
X118857414Y-121969819D01*
X118857414Y-121969819D02*
X119095509Y-121969819D01*
X119095509Y-121969819D02*
X119190747Y-121922200D01*
X119190747Y-121922200D02*
X119238366Y-121874580D01*
X119238366Y-121874580D02*
X119285985Y-121779342D01*
X119285985Y-121779342D02*
X119285985Y-121684104D01*
X119285985Y-121684104D02*
X119238366Y-121588866D01*
X119238366Y-121588866D02*
X119190747Y-121541247D01*
X119190747Y-121541247D02*
X119095509Y-121493628D01*
X119095509Y-121493628D02*
X118905033Y-121446009D01*
X118905033Y-121446009D02*
X118809795Y-121398390D01*
X118809795Y-121398390D02*
X118762176Y-121350771D01*
X118762176Y-121350771D02*
X118714557Y-121255533D01*
X118714557Y-121255533D02*
X118714557Y-121160295D01*
X118714557Y-121160295D02*
X118762176Y-121065057D01*
X118762176Y-121065057D02*
X118809795Y-121017438D01*
X118809795Y-121017438D02*
X118905033Y-120969819D01*
X118905033Y-120969819D02*
X119143128Y-120969819D01*
X119143128Y-120969819D02*
X119285985Y-121017438D01*
X119619319Y-120969819D02*
X119857414Y-121969819D01*
X119857414Y-121969819D02*
X120047890Y-121255533D01*
X120047890Y-121255533D02*
X120238366Y-121969819D01*
X120238366Y-121969819D02*
X120476462Y-120969819D01*
X120857414Y-121969819D02*
X120857414Y-120969819D01*
X120857414Y-120969819D02*
X121095509Y-120969819D01*
X121095509Y-120969819D02*
X121238366Y-121017438D01*
X121238366Y-121017438D02*
X121333604Y-121112676D01*
X121333604Y-121112676D02*
X121381223Y-121207914D01*
X121381223Y-121207914D02*
X121428842Y-121398390D01*
X121428842Y-121398390D02*
X121428842Y-121541247D01*
X121428842Y-121541247D02*
X121381223Y-121731723D01*
X121381223Y-121731723D02*
X121333604Y-121826961D01*
X121333604Y-121826961D02*
X121238366Y-121922200D01*
X121238366Y-121922200D02*
X121095509Y-121969819D01*
X121095509Y-121969819D02*
X120857414Y-121969819D01*
X124404819Y-113316666D02*
X123928628Y-113649999D01*
X124404819Y-113888094D02*
X123404819Y-113888094D01*
X123404819Y-113888094D02*
X123404819Y-113507142D01*
X123404819Y-113507142D02*
X123452438Y-113411904D01*
X123452438Y-113411904D02*
X123500057Y-113364285D01*
X123500057Y-113364285D02*
X123595295Y-113316666D01*
X123595295Y-113316666D02*
X123738152Y-113316666D01*
X123738152Y-113316666D02*
X123833390Y-113364285D01*
X123833390Y-113364285D02*
X123881009Y-113411904D01*
X123881009Y-113411904D02*
X123928628Y-113507142D01*
X123928628Y-113507142D02*
X123928628Y-113888094D01*
X123500057Y-112935713D02*
X123452438Y-112888094D01*
X123452438Y-112888094D02*
X123404819Y-112792856D01*
X123404819Y-112792856D02*
X123404819Y-112554761D01*
X123404819Y-112554761D02*
X123452438Y-112459523D01*
X123452438Y-112459523D02*
X123500057Y-112411904D01*
X123500057Y-112411904D02*
X123595295Y-112364285D01*
X123595295Y-112364285D02*
X123690533Y-112364285D01*
X123690533Y-112364285D02*
X123833390Y-112411904D01*
X123833390Y-112411904D02*
X124404819Y-112983332D01*
X124404819Y-112983332D02*
X124404819Y-112364285D01*
X104579819Y-103148094D02*
X103579819Y-103148094D01*
X103579819Y-103148094D02*
X103579819Y-102909999D01*
X103579819Y-102909999D02*
X103627438Y-102767142D01*
X103627438Y-102767142D02*
X103722676Y-102671904D01*
X103722676Y-102671904D02*
X103817914Y-102624285D01*
X103817914Y-102624285D02*
X104008390Y-102576666D01*
X104008390Y-102576666D02*
X104151247Y-102576666D01*
X104151247Y-102576666D02*
X104341723Y-102624285D01*
X104341723Y-102624285D02*
X104436961Y-102671904D01*
X104436961Y-102671904D02*
X104532200Y-102767142D01*
X104532200Y-102767142D02*
X104579819Y-102909999D01*
X104579819Y-102909999D02*
X104579819Y-103148094D01*
X104579819Y-101624285D02*
X104579819Y-102195713D01*
X104579819Y-101909999D02*
X103579819Y-101909999D01*
X103579819Y-101909999D02*
X103722676Y-102005237D01*
X103722676Y-102005237D02*
X103817914Y-102100475D01*
X103817914Y-102100475D02*
X103865533Y-102195713D01*
X113404819Y-105726666D02*
X112928628Y-106059999D01*
X113404819Y-106298094D02*
X112404819Y-106298094D01*
X112404819Y-106298094D02*
X112404819Y-105917142D01*
X112404819Y-105917142D02*
X112452438Y-105821904D01*
X112452438Y-105821904D02*
X112500057Y-105774285D01*
X112500057Y-105774285D02*
X112595295Y-105726666D01*
X112595295Y-105726666D02*
X112738152Y-105726666D01*
X112738152Y-105726666D02*
X112833390Y-105774285D01*
X112833390Y-105774285D02*
X112881009Y-105821904D01*
X112881009Y-105821904D02*
X112928628Y-105917142D01*
X112928628Y-105917142D02*
X112928628Y-106298094D01*
X112738152Y-104869523D02*
X113404819Y-104869523D01*
X112357200Y-105107618D02*
X113071485Y-105345713D01*
X113071485Y-105345713D02*
X113071485Y-104726666D01*
X117098333Y-101759580D02*
X117050714Y-101807200D01*
X117050714Y-101807200D02*
X116907857Y-101854819D01*
X116907857Y-101854819D02*
X116812619Y-101854819D01*
X116812619Y-101854819D02*
X116669762Y-101807200D01*
X116669762Y-101807200D02*
X116574524Y-101711961D01*
X116574524Y-101711961D02*
X116526905Y-101616723D01*
X116526905Y-101616723D02*
X116479286Y-101426247D01*
X116479286Y-101426247D02*
X116479286Y-101283390D01*
X116479286Y-101283390D02*
X116526905Y-101092914D01*
X116526905Y-101092914D02*
X116574524Y-100997676D01*
X116574524Y-100997676D02*
X116669762Y-100902438D01*
X116669762Y-100902438D02*
X116812619Y-100854819D01*
X116812619Y-100854819D02*
X116907857Y-100854819D01*
X116907857Y-100854819D02*
X117050714Y-100902438D01*
X117050714Y-100902438D02*
X117098333Y-100950057D01*
X117669762Y-101283390D02*
X117574524Y-101235771D01*
X117574524Y-101235771D02*
X117526905Y-101188152D01*
X117526905Y-101188152D02*
X117479286Y-101092914D01*
X117479286Y-101092914D02*
X117479286Y-101045295D01*
X117479286Y-101045295D02*
X117526905Y-100950057D01*
X117526905Y-100950057D02*
X117574524Y-100902438D01*
X117574524Y-100902438D02*
X117669762Y-100854819D01*
X117669762Y-100854819D02*
X117860238Y-100854819D01*
X117860238Y-100854819D02*
X117955476Y-100902438D01*
X117955476Y-100902438D02*
X118003095Y-100950057D01*
X118003095Y-100950057D02*
X118050714Y-101045295D01*
X118050714Y-101045295D02*
X118050714Y-101092914D01*
X118050714Y-101092914D02*
X118003095Y-101188152D01*
X118003095Y-101188152D02*
X117955476Y-101235771D01*
X117955476Y-101235771D02*
X117860238Y-101283390D01*
X117860238Y-101283390D02*
X117669762Y-101283390D01*
X117669762Y-101283390D02*
X117574524Y-101331009D01*
X117574524Y-101331009D02*
X117526905Y-101378628D01*
X117526905Y-101378628D02*
X117479286Y-101473866D01*
X117479286Y-101473866D02*
X117479286Y-101664342D01*
X117479286Y-101664342D02*
X117526905Y-101759580D01*
X117526905Y-101759580D02*
X117574524Y-101807200D01*
X117574524Y-101807200D02*
X117669762Y-101854819D01*
X117669762Y-101854819D02*
X117860238Y-101854819D01*
X117860238Y-101854819D02*
X117955476Y-101807200D01*
X117955476Y-101807200D02*
X118003095Y-101759580D01*
X118003095Y-101759580D02*
X118050714Y-101664342D01*
X118050714Y-101664342D02*
X118050714Y-101473866D01*
X118050714Y-101473866D02*
X118003095Y-101378628D01*
X118003095Y-101378628D02*
X117955476Y-101331009D01*
X117955476Y-101331009D02*
X117860238Y-101283390D01*
X106134580Y-125666666D02*
X106182200Y-125714285D01*
X106182200Y-125714285D02*
X106229819Y-125857142D01*
X106229819Y-125857142D02*
X106229819Y-125952380D01*
X106229819Y-125952380D02*
X106182200Y-126095237D01*
X106182200Y-126095237D02*
X106086961Y-126190475D01*
X106086961Y-126190475D02*
X105991723Y-126238094D01*
X105991723Y-126238094D02*
X105801247Y-126285713D01*
X105801247Y-126285713D02*
X105658390Y-126285713D01*
X105658390Y-126285713D02*
X105467914Y-126238094D01*
X105467914Y-126238094D02*
X105372676Y-126190475D01*
X105372676Y-126190475D02*
X105277438Y-126095237D01*
X105277438Y-126095237D02*
X105229819Y-125952380D01*
X105229819Y-125952380D02*
X105229819Y-125857142D01*
X105229819Y-125857142D02*
X105277438Y-125714285D01*
X105277438Y-125714285D02*
X105325057Y-125666666D01*
X105229819Y-125333332D02*
X105229819Y-124666666D01*
X105229819Y-124666666D02*
X106229819Y-125095237D01*
X104579819Y-106398094D02*
X103579819Y-106398094D01*
X103579819Y-106398094D02*
X103579819Y-106159999D01*
X103579819Y-106159999D02*
X103627438Y-106017142D01*
X103627438Y-106017142D02*
X103722676Y-105921904D01*
X103722676Y-105921904D02*
X103817914Y-105874285D01*
X103817914Y-105874285D02*
X104008390Y-105826666D01*
X104008390Y-105826666D02*
X104151247Y-105826666D01*
X104151247Y-105826666D02*
X104341723Y-105874285D01*
X104341723Y-105874285D02*
X104436961Y-105921904D01*
X104436961Y-105921904D02*
X104532200Y-106017142D01*
X104532200Y-106017142D02*
X104579819Y-106159999D01*
X104579819Y-106159999D02*
X104579819Y-106398094D01*
X103675057Y-105445713D02*
X103627438Y-105398094D01*
X103627438Y-105398094D02*
X103579819Y-105302856D01*
X103579819Y-105302856D02*
X103579819Y-105064761D01*
X103579819Y-105064761D02*
X103627438Y-104969523D01*
X103627438Y-104969523D02*
X103675057Y-104921904D01*
X103675057Y-104921904D02*
X103770295Y-104874285D01*
X103770295Y-104874285D02*
X103865533Y-104874285D01*
X103865533Y-104874285D02*
X104008390Y-104921904D01*
X104008390Y-104921904D02*
X104579819Y-105493332D01*
X104579819Y-105493332D02*
X104579819Y-104874285D01*
X113354819Y-102576666D02*
X112878628Y-102909999D01*
X113354819Y-103148094D02*
X112354819Y-103148094D01*
X112354819Y-103148094D02*
X112354819Y-102767142D01*
X112354819Y-102767142D02*
X112402438Y-102671904D01*
X112402438Y-102671904D02*
X112450057Y-102624285D01*
X112450057Y-102624285D02*
X112545295Y-102576666D01*
X112545295Y-102576666D02*
X112688152Y-102576666D01*
X112688152Y-102576666D02*
X112783390Y-102624285D01*
X112783390Y-102624285D02*
X112831009Y-102671904D01*
X112831009Y-102671904D02*
X112878628Y-102767142D01*
X112878628Y-102767142D02*
X112878628Y-103148094D01*
X112354819Y-102243332D02*
X112354819Y-101624285D01*
X112354819Y-101624285D02*
X112735771Y-101957618D01*
X112735771Y-101957618D02*
X112735771Y-101814761D01*
X112735771Y-101814761D02*
X112783390Y-101719523D01*
X112783390Y-101719523D02*
X112831009Y-101671904D01*
X112831009Y-101671904D02*
X112926247Y-101624285D01*
X112926247Y-101624285D02*
X113164342Y-101624285D01*
X113164342Y-101624285D02*
X113259580Y-101671904D01*
X113259580Y-101671904D02*
X113307200Y-101719523D01*
X113307200Y-101719523D02*
X113354819Y-101814761D01*
X113354819Y-101814761D02*
X113354819Y-102100475D01*
X113354819Y-102100475D02*
X113307200Y-102195713D01*
X113307200Y-102195713D02*
X113259580Y-102243332D01*
X121235713Y-101854819D02*
X120902380Y-101378628D01*
X120664285Y-101854819D02*
X120664285Y-100854819D01*
X120664285Y-100854819D02*
X121045237Y-100854819D01*
X121045237Y-100854819D02*
X121140475Y-100902438D01*
X121140475Y-100902438D02*
X121188094Y-100950057D01*
X121188094Y-100950057D02*
X121235713Y-101045295D01*
X121235713Y-101045295D02*
X121235713Y-101188152D01*
X121235713Y-101188152D02*
X121188094Y-101283390D01*
X121188094Y-101283390D02*
X121140475Y-101331009D01*
X121140475Y-101331009D02*
X121045237Y-101378628D01*
X121045237Y-101378628D02*
X120664285Y-101378628D01*
X122045237Y-101807200D02*
X121949999Y-101854819D01*
X121949999Y-101854819D02*
X121759523Y-101854819D01*
X121759523Y-101854819D02*
X121664285Y-101807200D01*
X121664285Y-101807200D02*
X121616666Y-101711961D01*
X121616666Y-101711961D02*
X121616666Y-101331009D01*
X121616666Y-101331009D02*
X121664285Y-101235771D01*
X121664285Y-101235771D02*
X121759523Y-101188152D01*
X121759523Y-101188152D02*
X121949999Y-101188152D01*
X121949999Y-101188152D02*
X122045237Y-101235771D01*
X122045237Y-101235771D02*
X122092856Y-101331009D01*
X122092856Y-101331009D02*
X122092856Y-101426247D01*
X122092856Y-101426247D02*
X121616666Y-101521485D01*
X122473809Y-101807200D02*
X122569047Y-101854819D01*
X122569047Y-101854819D02*
X122759523Y-101854819D01*
X122759523Y-101854819D02*
X122854761Y-101807200D01*
X122854761Y-101807200D02*
X122902380Y-101711961D01*
X122902380Y-101711961D02*
X122902380Y-101664342D01*
X122902380Y-101664342D02*
X122854761Y-101569104D01*
X122854761Y-101569104D02*
X122759523Y-101521485D01*
X122759523Y-101521485D02*
X122616666Y-101521485D01*
X122616666Y-101521485D02*
X122521428Y-101473866D01*
X122521428Y-101473866D02*
X122473809Y-101378628D01*
X122473809Y-101378628D02*
X122473809Y-101331009D01*
X122473809Y-101331009D02*
X122521428Y-101235771D01*
X122521428Y-101235771D02*
X122616666Y-101188152D01*
X122616666Y-101188152D02*
X122759523Y-101188152D01*
X122759523Y-101188152D02*
X122854761Y-101235771D01*
X123711904Y-101807200D02*
X123616666Y-101854819D01*
X123616666Y-101854819D02*
X123426190Y-101854819D01*
X123426190Y-101854819D02*
X123330952Y-101807200D01*
X123330952Y-101807200D02*
X123283333Y-101711961D01*
X123283333Y-101711961D02*
X123283333Y-101331009D01*
X123283333Y-101331009D02*
X123330952Y-101235771D01*
X123330952Y-101235771D02*
X123426190Y-101188152D01*
X123426190Y-101188152D02*
X123616666Y-101188152D01*
X123616666Y-101188152D02*
X123711904Y-101235771D01*
X123711904Y-101235771D02*
X123759523Y-101331009D01*
X123759523Y-101331009D02*
X123759523Y-101426247D01*
X123759523Y-101426247D02*
X123283333Y-101521485D01*
X124045238Y-101188152D02*
X124426190Y-101188152D01*
X124188095Y-100854819D02*
X124188095Y-101711961D01*
X124188095Y-101711961D02*
X124235714Y-101807200D01*
X124235714Y-101807200D02*
X124330952Y-101854819D01*
X124330952Y-101854819D02*
X124426190Y-101854819D01*
X125283333Y-101854819D02*
X124711905Y-101854819D01*
X124997619Y-101854819D02*
X124997619Y-100854819D01*
X124997619Y-100854819D02*
X124902381Y-100997676D01*
X124902381Y-100997676D02*
X124807143Y-101092914D01*
X124807143Y-101092914D02*
X124711905Y-101140533D01*
X134159580Y-118166666D02*
X134207200Y-118214285D01*
X134207200Y-118214285D02*
X134254819Y-118357142D01*
X134254819Y-118357142D02*
X134254819Y-118452380D01*
X134254819Y-118452380D02*
X134207200Y-118595237D01*
X134207200Y-118595237D02*
X134111961Y-118690475D01*
X134111961Y-118690475D02*
X134016723Y-118738094D01*
X134016723Y-118738094D02*
X133826247Y-118785713D01*
X133826247Y-118785713D02*
X133683390Y-118785713D01*
X133683390Y-118785713D02*
X133492914Y-118738094D01*
X133492914Y-118738094D02*
X133397676Y-118690475D01*
X133397676Y-118690475D02*
X133302438Y-118595237D01*
X133302438Y-118595237D02*
X133254819Y-118452380D01*
X133254819Y-118452380D02*
X133254819Y-118357142D01*
X133254819Y-118357142D02*
X133302438Y-118214285D01*
X133302438Y-118214285D02*
X133350057Y-118166666D01*
X134254819Y-117690475D02*
X134254819Y-117499999D01*
X134254819Y-117499999D02*
X134207200Y-117404761D01*
X134207200Y-117404761D02*
X134159580Y-117357142D01*
X134159580Y-117357142D02*
X134016723Y-117261904D01*
X134016723Y-117261904D02*
X133826247Y-117214285D01*
X133826247Y-117214285D02*
X133445295Y-117214285D01*
X133445295Y-117214285D02*
X133350057Y-117261904D01*
X133350057Y-117261904D02*
X133302438Y-117309523D01*
X133302438Y-117309523D02*
X133254819Y-117404761D01*
X133254819Y-117404761D02*
X133254819Y-117595237D01*
X133254819Y-117595237D02*
X133302438Y-117690475D01*
X133302438Y-117690475D02*
X133350057Y-117738094D01*
X133350057Y-117738094D02*
X133445295Y-117785713D01*
X133445295Y-117785713D02*
X133683390Y-117785713D01*
X133683390Y-117785713D02*
X133778628Y-117738094D01*
X133778628Y-117738094D02*
X133826247Y-117690475D01*
X133826247Y-117690475D02*
X133873866Y-117595237D01*
X133873866Y-117595237D02*
X133873866Y-117404761D01*
X133873866Y-117404761D02*
X133826247Y-117309523D01*
X133826247Y-117309523D02*
X133778628Y-117261904D01*
X133778628Y-117261904D02*
X133683390Y-117214285D01*
X114833333Y-101759580D02*
X114785714Y-101807200D01*
X114785714Y-101807200D02*
X114642857Y-101854819D01*
X114642857Y-101854819D02*
X114547619Y-101854819D01*
X114547619Y-101854819D02*
X114404762Y-101807200D01*
X114404762Y-101807200D02*
X114309524Y-101711961D01*
X114309524Y-101711961D02*
X114261905Y-101616723D01*
X114261905Y-101616723D02*
X114214286Y-101426247D01*
X114214286Y-101426247D02*
X114214286Y-101283390D01*
X114214286Y-101283390D02*
X114261905Y-101092914D01*
X114261905Y-101092914D02*
X114309524Y-100997676D01*
X114309524Y-100997676D02*
X114404762Y-100902438D01*
X114404762Y-100902438D02*
X114547619Y-100854819D01*
X114547619Y-100854819D02*
X114642857Y-100854819D01*
X114642857Y-100854819D02*
X114785714Y-100902438D01*
X114785714Y-100902438D02*
X114833333Y-100950057D01*
X115690476Y-101188152D02*
X115690476Y-101854819D01*
X115452381Y-100807200D02*
X115214286Y-101521485D01*
X115214286Y-101521485D02*
X115833333Y-101521485D01*
X123859580Y-107066666D02*
X123907200Y-107114285D01*
X123907200Y-107114285D02*
X123954819Y-107257142D01*
X123954819Y-107257142D02*
X123954819Y-107352380D01*
X123954819Y-107352380D02*
X123907200Y-107495237D01*
X123907200Y-107495237D02*
X123811961Y-107590475D01*
X123811961Y-107590475D02*
X123716723Y-107638094D01*
X123716723Y-107638094D02*
X123526247Y-107685713D01*
X123526247Y-107685713D02*
X123383390Y-107685713D01*
X123383390Y-107685713D02*
X123192914Y-107638094D01*
X123192914Y-107638094D02*
X123097676Y-107590475D01*
X123097676Y-107590475D02*
X123002438Y-107495237D01*
X123002438Y-107495237D02*
X122954819Y-107352380D01*
X122954819Y-107352380D02*
X122954819Y-107257142D01*
X122954819Y-107257142D02*
X123002438Y-107114285D01*
X123002438Y-107114285D02*
X123050057Y-107066666D01*
X122954819Y-106733332D02*
X122954819Y-106114285D01*
X122954819Y-106114285D02*
X123335771Y-106447618D01*
X123335771Y-106447618D02*
X123335771Y-106304761D01*
X123335771Y-106304761D02*
X123383390Y-106209523D01*
X123383390Y-106209523D02*
X123431009Y-106161904D01*
X123431009Y-106161904D02*
X123526247Y-106114285D01*
X123526247Y-106114285D02*
X123764342Y-106114285D01*
X123764342Y-106114285D02*
X123859580Y-106161904D01*
X123859580Y-106161904D02*
X123907200Y-106209523D01*
X123907200Y-106209523D02*
X123954819Y-106304761D01*
X123954819Y-106304761D02*
X123954819Y-106590475D01*
X123954819Y-106590475D02*
X123907200Y-106685713D01*
X123907200Y-106685713D02*
X123859580Y-106733332D01*
X128431009Y-116695238D02*
X128478628Y-116552381D01*
X128478628Y-116552381D02*
X128526247Y-116504762D01*
X128526247Y-116504762D02*
X128621485Y-116457143D01*
X128621485Y-116457143D02*
X128764342Y-116457143D01*
X128764342Y-116457143D02*
X128859580Y-116504762D01*
X128859580Y-116504762D02*
X128907200Y-116552381D01*
X128907200Y-116552381D02*
X128954819Y-116647619D01*
X128954819Y-116647619D02*
X128954819Y-117028571D01*
X128954819Y-117028571D02*
X127954819Y-117028571D01*
X127954819Y-117028571D02*
X127954819Y-116695238D01*
X127954819Y-116695238D02*
X128002438Y-116600000D01*
X128002438Y-116600000D02*
X128050057Y-116552381D01*
X128050057Y-116552381D02*
X128145295Y-116504762D01*
X128145295Y-116504762D02*
X128240533Y-116504762D01*
X128240533Y-116504762D02*
X128335771Y-116552381D01*
X128335771Y-116552381D02*
X128383390Y-116600000D01*
X128383390Y-116600000D02*
X128431009Y-116695238D01*
X128431009Y-116695238D02*
X128431009Y-117028571D01*
X128954819Y-115885714D02*
X128907200Y-115980952D01*
X128907200Y-115980952D02*
X128859580Y-116028571D01*
X128859580Y-116028571D02*
X128764342Y-116076190D01*
X128764342Y-116076190D02*
X128478628Y-116076190D01*
X128478628Y-116076190D02*
X128383390Y-116028571D01*
X128383390Y-116028571D02*
X128335771Y-115980952D01*
X128335771Y-115980952D02*
X128288152Y-115885714D01*
X128288152Y-115885714D02*
X128288152Y-115742857D01*
X128288152Y-115742857D02*
X128335771Y-115647619D01*
X128335771Y-115647619D02*
X128383390Y-115600000D01*
X128383390Y-115600000D02*
X128478628Y-115552381D01*
X128478628Y-115552381D02*
X128764342Y-115552381D01*
X128764342Y-115552381D02*
X128859580Y-115600000D01*
X128859580Y-115600000D02*
X128907200Y-115647619D01*
X128907200Y-115647619D02*
X128954819Y-115742857D01*
X128954819Y-115742857D02*
X128954819Y-115885714D01*
X128954819Y-114980952D02*
X128907200Y-115076190D01*
X128907200Y-115076190D02*
X128859580Y-115123809D01*
X128859580Y-115123809D02*
X128764342Y-115171428D01*
X128764342Y-115171428D02*
X128478628Y-115171428D01*
X128478628Y-115171428D02*
X128383390Y-115123809D01*
X128383390Y-115123809D02*
X128335771Y-115076190D01*
X128335771Y-115076190D02*
X128288152Y-114980952D01*
X128288152Y-114980952D02*
X128288152Y-114838095D01*
X128288152Y-114838095D02*
X128335771Y-114742857D01*
X128335771Y-114742857D02*
X128383390Y-114695238D01*
X128383390Y-114695238D02*
X128478628Y-114647619D01*
X128478628Y-114647619D02*
X128764342Y-114647619D01*
X128764342Y-114647619D02*
X128859580Y-114695238D01*
X128859580Y-114695238D02*
X128907200Y-114742857D01*
X128907200Y-114742857D02*
X128954819Y-114838095D01*
X128954819Y-114838095D02*
X128954819Y-114980952D01*
X128288152Y-114361904D02*
X128288152Y-113980952D01*
X127954819Y-114219047D02*
X128811961Y-114219047D01*
X128811961Y-114219047D02*
X128907200Y-114171428D01*
X128907200Y-114171428D02*
X128954819Y-114076190D01*
X128954819Y-114076190D02*
X128954819Y-113980952D01*
X128954819Y-113123809D02*
X128954819Y-113695237D01*
X128954819Y-113409523D02*
X127954819Y-113409523D01*
X127954819Y-113409523D02*
X128097676Y-113504761D01*
X128097676Y-113504761D02*
X128192914Y-113599999D01*
X128192914Y-113599999D02*
X128240533Y-113695237D01*
X117054819Y-113111904D02*
X117864342Y-113111904D01*
X117864342Y-113111904D02*
X117959580Y-113064285D01*
X117959580Y-113064285D02*
X118007200Y-113016666D01*
X118007200Y-113016666D02*
X118054819Y-112921428D01*
X118054819Y-112921428D02*
X118054819Y-112730952D01*
X118054819Y-112730952D02*
X118007200Y-112635714D01*
X118007200Y-112635714D02*
X117959580Y-112588095D01*
X117959580Y-112588095D02*
X117864342Y-112540476D01*
X117864342Y-112540476D02*
X117054819Y-112540476D01*
X118054819Y-111540476D02*
X118054819Y-112111904D01*
X118054819Y-111826190D02*
X117054819Y-111826190D01*
X117054819Y-111826190D02*
X117197676Y-111921428D01*
X117197676Y-111921428D02*
X117292914Y-112016666D01*
X117292914Y-112016666D02*
X117340533Y-112111904D01*
D11*
X105959919Y-117931115D02*
X104959919Y-117931115D01*
X104959919Y-117931115D02*
X105959919Y-117359687D01*
X105959919Y-117359687D02*
X104959919Y-117359687D01*
X105959919Y-116312068D02*
X105483728Y-116645401D01*
X105959919Y-116883496D02*
X104959919Y-116883496D01*
X104959919Y-116883496D02*
X104959919Y-116502544D01*
X104959919Y-116502544D02*
X105007538Y-116407306D01*
X105007538Y-116407306D02*
X105055157Y-116359687D01*
X105055157Y-116359687D02*
X105150395Y-116312068D01*
X105150395Y-116312068D02*
X105293252Y-116312068D01*
X105293252Y-116312068D02*
X105388490Y-116359687D01*
X105388490Y-116359687D02*
X105436109Y-116407306D01*
X105436109Y-116407306D02*
X105483728Y-116502544D01*
X105483728Y-116502544D02*
X105483728Y-116883496D01*
X105436109Y-115550163D02*
X105436109Y-115883496D01*
X105959919Y-115883496D02*
X104959919Y-115883496D01*
X104959919Y-115883496D02*
X104959919Y-115407306D01*
X105055157Y-115073972D02*
X105007538Y-115026353D01*
X105007538Y-115026353D02*
X104959919Y-114931115D01*
X104959919Y-114931115D02*
X104959919Y-114693020D01*
X104959919Y-114693020D02*
X105007538Y-114597782D01*
X105007538Y-114597782D02*
X105055157Y-114550163D01*
X105055157Y-114550163D02*
X105150395Y-114502544D01*
X105150395Y-114502544D02*
X105245633Y-114502544D01*
X105245633Y-114502544D02*
X105388490Y-114550163D01*
X105388490Y-114550163D02*
X105959919Y-115121591D01*
X105959919Y-115121591D02*
X105959919Y-114502544D01*
X105293252Y-113645401D02*
X105959919Y-113645401D01*
X104912300Y-113883496D02*
X105626585Y-114121591D01*
X105626585Y-114121591D02*
X105626585Y-113502544D01*
X105959919Y-112645401D02*
X105959919Y-113121591D01*
X105959919Y-113121591D02*
X104959919Y-113121591D01*
X104959919Y-112121591D02*
X104959919Y-112026353D01*
X104959919Y-112026353D02*
X105007538Y-111931115D01*
X105007538Y-111931115D02*
X105055157Y-111883496D01*
X105055157Y-111883496D02*
X105150395Y-111835877D01*
X105150395Y-111835877D02*
X105340871Y-111788258D01*
X105340871Y-111788258D02*
X105578966Y-111788258D01*
X105578966Y-111788258D02*
X105769442Y-111835877D01*
X105769442Y-111835877D02*
X105864680Y-111883496D01*
X105864680Y-111883496D02*
X105912300Y-111931115D01*
X105912300Y-111931115D02*
X105959919Y-112026353D01*
X105959919Y-112026353D02*
X105959919Y-112121591D01*
X105959919Y-112121591D02*
X105912300Y-112216829D01*
X105912300Y-112216829D02*
X105864680Y-112264448D01*
X105864680Y-112264448D02*
X105769442Y-112312067D01*
X105769442Y-112312067D02*
X105578966Y-112359686D01*
X105578966Y-112359686D02*
X105340871Y-112359686D01*
X105340871Y-112359686D02*
X105150395Y-112312067D01*
X105150395Y-112312067D02*
X105055157Y-112264448D01*
X105055157Y-112264448D02*
X105007538Y-112216829D01*
X105007538Y-112216829D02*
X104959919Y-112121591D01*
X105959919Y-110835877D02*
X105959919Y-111407305D01*
X105959919Y-111121591D02*
X104959919Y-111121591D01*
X104959919Y-111121591D02*
X105102776Y-111216829D01*
X105102776Y-111216829D02*
X105198014Y-111312067D01*
X105198014Y-111312067D02*
X105245633Y-111407305D01*
X105578966Y-110407305D02*
X105578966Y-109645401D01*
X105959919Y-110026353D02*
X105198014Y-110026353D01*
D10*
X106184580Y-123066666D02*
X106232200Y-123114285D01*
X106232200Y-123114285D02*
X106279819Y-123257142D01*
X106279819Y-123257142D02*
X106279819Y-123352380D01*
X106279819Y-123352380D02*
X106232200Y-123495237D01*
X106232200Y-123495237D02*
X106136961Y-123590475D01*
X106136961Y-123590475D02*
X106041723Y-123638094D01*
X106041723Y-123638094D02*
X105851247Y-123685713D01*
X105851247Y-123685713D02*
X105708390Y-123685713D01*
X105708390Y-123685713D02*
X105517914Y-123638094D01*
X105517914Y-123638094D02*
X105422676Y-123590475D01*
X105422676Y-123590475D02*
X105327438Y-123495237D01*
X105327438Y-123495237D02*
X105279819Y-123352380D01*
X105279819Y-123352380D02*
X105279819Y-123257142D01*
X105279819Y-123257142D02*
X105327438Y-123114285D01*
X105327438Y-123114285D02*
X105375057Y-123066666D01*
X105279819Y-122209523D02*
X105279819Y-122399999D01*
X105279819Y-122399999D02*
X105327438Y-122495237D01*
X105327438Y-122495237D02*
X105375057Y-122542856D01*
X105375057Y-122542856D02*
X105517914Y-122638094D01*
X105517914Y-122638094D02*
X105708390Y-122685713D01*
X105708390Y-122685713D02*
X106089342Y-122685713D01*
X106089342Y-122685713D02*
X106184580Y-122638094D01*
X106184580Y-122638094D02*
X106232200Y-122590475D01*
X106232200Y-122590475D02*
X106279819Y-122495237D01*
X106279819Y-122495237D02*
X106279819Y-122304761D01*
X106279819Y-122304761D02*
X106232200Y-122209523D01*
X106232200Y-122209523D02*
X106184580Y-122161904D01*
X106184580Y-122161904D02*
X106089342Y-122114285D01*
X106089342Y-122114285D02*
X105851247Y-122114285D01*
X105851247Y-122114285D02*
X105756009Y-122161904D01*
X105756009Y-122161904D02*
X105708390Y-122209523D01*
X105708390Y-122209523D02*
X105660771Y-122304761D01*
X105660771Y-122304761D02*
X105660771Y-122495237D01*
X105660771Y-122495237D02*
X105708390Y-122590475D01*
X105708390Y-122590475D02*
X105756009Y-122638094D01*
X105756009Y-122638094D02*
X105851247Y-122685713D01*
X114759580Y-119766666D02*
X114807200Y-119814285D01*
X114807200Y-119814285D02*
X114854819Y-119957142D01*
X114854819Y-119957142D02*
X114854819Y-120052380D01*
X114854819Y-120052380D02*
X114807200Y-120195237D01*
X114807200Y-120195237D02*
X114711961Y-120290475D01*
X114711961Y-120290475D02*
X114616723Y-120338094D01*
X114616723Y-120338094D02*
X114426247Y-120385713D01*
X114426247Y-120385713D02*
X114283390Y-120385713D01*
X114283390Y-120385713D02*
X114092914Y-120338094D01*
X114092914Y-120338094D02*
X113997676Y-120290475D01*
X113997676Y-120290475D02*
X113902438Y-120195237D01*
X113902438Y-120195237D02*
X113854819Y-120052380D01*
X113854819Y-120052380D02*
X113854819Y-119957142D01*
X113854819Y-119957142D02*
X113902438Y-119814285D01*
X113902438Y-119814285D02*
X113950057Y-119766666D01*
X113854819Y-118861904D02*
X113854819Y-119338094D01*
X113854819Y-119338094D02*
X114331009Y-119385713D01*
X114331009Y-119385713D02*
X114283390Y-119338094D01*
X114283390Y-119338094D02*
X114235771Y-119242856D01*
X114235771Y-119242856D02*
X114235771Y-119004761D01*
X114235771Y-119004761D02*
X114283390Y-118909523D01*
X114283390Y-118909523D02*
X114331009Y-118861904D01*
X114331009Y-118861904D02*
X114426247Y-118814285D01*
X114426247Y-118814285D02*
X114664342Y-118814285D01*
X114664342Y-118814285D02*
X114759580Y-118861904D01*
X114759580Y-118861904D02*
X114807200Y-118909523D01*
X114807200Y-118909523D02*
X114854819Y-119004761D01*
X114854819Y-119004761D02*
X114854819Y-119242856D01*
X114854819Y-119242856D02*
X114807200Y-119338094D01*
X114807200Y-119338094D02*
X114759580Y-119385713D01*
D11*
X131409800Y-124333332D02*
X131457419Y-124190475D01*
X131457419Y-124190475D02*
X131457419Y-123952380D01*
X131457419Y-123952380D02*
X131409800Y-123857142D01*
X131409800Y-123857142D02*
X131362180Y-123809523D01*
X131362180Y-123809523D02*
X131266942Y-123761904D01*
X131266942Y-123761904D02*
X131171704Y-123761904D01*
X131171704Y-123761904D02*
X131076466Y-123809523D01*
X131076466Y-123809523D02*
X131028847Y-123857142D01*
X131028847Y-123857142D02*
X130981228Y-123952380D01*
X130981228Y-123952380D02*
X130933609Y-124142856D01*
X130933609Y-124142856D02*
X130885990Y-124238094D01*
X130885990Y-124238094D02*
X130838371Y-124285713D01*
X130838371Y-124285713D02*
X130743133Y-124333332D01*
X130743133Y-124333332D02*
X130647895Y-124333332D01*
X130647895Y-124333332D02*
X130552657Y-124285713D01*
X130552657Y-124285713D02*
X130505038Y-124238094D01*
X130505038Y-124238094D02*
X130457419Y-124142856D01*
X130457419Y-124142856D02*
X130457419Y-123904761D01*
X130457419Y-123904761D02*
X130505038Y-123761904D01*
X130457419Y-123428570D02*
X131457419Y-123190475D01*
X131457419Y-123190475D02*
X130743133Y-122999999D01*
X130743133Y-122999999D02*
X131457419Y-122809523D01*
X131457419Y-122809523D02*
X130457419Y-122571428D01*
X131457419Y-121666666D02*
X131457419Y-122238094D01*
X131457419Y-121952380D02*
X130457419Y-121952380D01*
X130457419Y-121952380D02*
X130600276Y-122047618D01*
X130600276Y-122047618D02*
X130695514Y-122142856D01*
X130695514Y-122142856D02*
X130743133Y-122238094D01*
D10*
X119508333Y-106679819D02*
X119175000Y-106203628D01*
X118936905Y-106679819D02*
X118936905Y-105679819D01*
X118936905Y-105679819D02*
X119317857Y-105679819D01*
X119317857Y-105679819D02*
X119413095Y-105727438D01*
X119413095Y-105727438D02*
X119460714Y-105775057D01*
X119460714Y-105775057D02*
X119508333Y-105870295D01*
X119508333Y-105870295D02*
X119508333Y-106013152D01*
X119508333Y-106013152D02*
X119460714Y-106108390D01*
X119460714Y-106108390D02*
X119413095Y-106156009D01*
X119413095Y-106156009D02*
X119317857Y-106203628D01*
X119317857Y-106203628D02*
X118936905Y-106203628D01*
X120460714Y-106679819D02*
X119889286Y-106679819D01*
X120175000Y-106679819D02*
X120175000Y-105679819D01*
X120175000Y-105679819D02*
X120079762Y-105822676D01*
X120079762Y-105822676D02*
X119984524Y-105917914D01*
X119984524Y-105917914D02*
X119889286Y-105965533D01*
X123859580Y-109266666D02*
X123907200Y-109314285D01*
X123907200Y-109314285D02*
X123954819Y-109457142D01*
X123954819Y-109457142D02*
X123954819Y-109552380D01*
X123954819Y-109552380D02*
X123907200Y-109695237D01*
X123907200Y-109695237D02*
X123811961Y-109790475D01*
X123811961Y-109790475D02*
X123716723Y-109838094D01*
X123716723Y-109838094D02*
X123526247Y-109885713D01*
X123526247Y-109885713D02*
X123383390Y-109885713D01*
X123383390Y-109885713D02*
X123192914Y-109838094D01*
X123192914Y-109838094D02*
X123097676Y-109790475D01*
X123097676Y-109790475D02*
X123002438Y-109695237D01*
X123002438Y-109695237D02*
X122954819Y-109552380D01*
X122954819Y-109552380D02*
X122954819Y-109457142D01*
X122954819Y-109457142D02*
X123002438Y-109314285D01*
X123002438Y-109314285D02*
X123050057Y-109266666D01*
X123050057Y-108885713D02*
X123002438Y-108838094D01*
X123002438Y-108838094D02*
X122954819Y-108742856D01*
X122954819Y-108742856D02*
X122954819Y-108504761D01*
X122954819Y-108504761D02*
X123002438Y-108409523D01*
X123002438Y-108409523D02*
X123050057Y-108361904D01*
X123050057Y-108361904D02*
X123145295Y-108314285D01*
X123145295Y-108314285D02*
X123240533Y-108314285D01*
X123240533Y-108314285D02*
X123383390Y-108361904D01*
X123383390Y-108361904D02*
X123954819Y-108933332D01*
X123954819Y-108933332D02*
X123954819Y-108314285D01*
X134109580Y-112692857D02*
X134157200Y-112740476D01*
X134157200Y-112740476D02*
X134204819Y-112883333D01*
X134204819Y-112883333D02*
X134204819Y-112978571D01*
X134204819Y-112978571D02*
X134157200Y-113121428D01*
X134157200Y-113121428D02*
X134061961Y-113216666D01*
X134061961Y-113216666D02*
X133966723Y-113264285D01*
X133966723Y-113264285D02*
X133776247Y-113311904D01*
X133776247Y-113311904D02*
X133633390Y-113311904D01*
X133633390Y-113311904D02*
X133442914Y-113264285D01*
X133442914Y-113264285D02*
X133347676Y-113216666D01*
X133347676Y-113216666D02*
X133252438Y-113121428D01*
X133252438Y-113121428D02*
X133204819Y-112978571D01*
X133204819Y-112978571D02*
X133204819Y-112883333D01*
X133204819Y-112883333D02*
X133252438Y-112740476D01*
X133252438Y-112740476D02*
X133300057Y-112692857D01*
X134204819Y-111740476D02*
X134204819Y-112311904D01*
X134204819Y-112026190D02*
X133204819Y-112026190D01*
X133204819Y-112026190D02*
X133347676Y-112121428D01*
X133347676Y-112121428D02*
X133442914Y-112216666D01*
X133442914Y-112216666D02*
X133490533Y-112311904D01*
X133204819Y-111121428D02*
X133204819Y-111026190D01*
X133204819Y-111026190D02*
X133252438Y-110930952D01*
X133252438Y-110930952D02*
X133300057Y-110883333D01*
X133300057Y-110883333D02*
X133395295Y-110835714D01*
X133395295Y-110835714D02*
X133585771Y-110788095D01*
X133585771Y-110788095D02*
X133823866Y-110788095D01*
X133823866Y-110788095D02*
X134014342Y-110835714D01*
X134014342Y-110835714D02*
X134109580Y-110883333D01*
X134109580Y-110883333D02*
X134157200Y-110930952D01*
X134157200Y-110930952D02*
X134204819Y-111026190D01*
X134204819Y-111026190D02*
X134204819Y-111121428D01*
X134204819Y-111121428D02*
X134157200Y-111216666D01*
X134157200Y-111216666D02*
X134109580Y-111264285D01*
X134109580Y-111264285D02*
X134014342Y-111311904D01*
X134014342Y-111311904D02*
X133823866Y-111359523D01*
X133823866Y-111359523D02*
X133585771Y-111359523D01*
X133585771Y-111359523D02*
X133395295Y-111311904D01*
X133395295Y-111311904D02*
X133300057Y-111264285D01*
X133300057Y-111264285D02*
X133252438Y-111216666D01*
X133252438Y-111216666D02*
X133204819Y-111121428D01*
X125507142Y-103379580D02*
X125459523Y-103427200D01*
X125459523Y-103427200D02*
X125316666Y-103474819D01*
X125316666Y-103474819D02*
X125221428Y-103474819D01*
X125221428Y-103474819D02*
X125078571Y-103427200D01*
X125078571Y-103427200D02*
X124983333Y-103331961D01*
X124983333Y-103331961D02*
X124935714Y-103236723D01*
X124935714Y-103236723D02*
X124888095Y-103046247D01*
X124888095Y-103046247D02*
X124888095Y-102903390D01*
X124888095Y-102903390D02*
X124935714Y-102712914D01*
X124935714Y-102712914D02*
X124983333Y-102617676D01*
X124983333Y-102617676D02*
X125078571Y-102522438D01*
X125078571Y-102522438D02*
X125221428Y-102474819D01*
X125221428Y-102474819D02*
X125316666Y-102474819D01*
X125316666Y-102474819D02*
X125459523Y-102522438D01*
X125459523Y-102522438D02*
X125507142Y-102570057D01*
X126459523Y-103474819D02*
X125888095Y-103474819D01*
X126173809Y-103474819D02*
X126173809Y-102474819D01*
X126173809Y-102474819D02*
X126078571Y-102617676D01*
X126078571Y-102617676D02*
X125983333Y-102712914D01*
X125983333Y-102712914D02*
X125888095Y-102760533D01*
X127411904Y-103474819D02*
X126840476Y-103474819D01*
X127126190Y-103474819D02*
X127126190Y-102474819D01*
X127126190Y-102474819D02*
X127030952Y-102617676D01*
X127030952Y-102617676D02*
X126935714Y-102712914D01*
X126935714Y-102712914D02*
X126840476Y-102760533D01*
X124059580Y-119866666D02*
X124107200Y-119914285D01*
X124107200Y-119914285D02*
X124154819Y-120057142D01*
X124154819Y-120057142D02*
X124154819Y-120152380D01*
X124154819Y-120152380D02*
X124107200Y-120295237D01*
X124107200Y-120295237D02*
X124011961Y-120390475D01*
X124011961Y-120390475D02*
X123916723Y-120438094D01*
X123916723Y-120438094D02*
X123726247Y-120485713D01*
X123726247Y-120485713D02*
X123583390Y-120485713D01*
X123583390Y-120485713D02*
X123392914Y-120438094D01*
X123392914Y-120438094D02*
X123297676Y-120390475D01*
X123297676Y-120390475D02*
X123202438Y-120295237D01*
X123202438Y-120295237D02*
X123154819Y-120152380D01*
X123154819Y-120152380D02*
X123154819Y-120057142D01*
X123154819Y-120057142D02*
X123202438Y-119914285D01*
X123202438Y-119914285D02*
X123250057Y-119866666D01*
X124154819Y-118914285D02*
X124154819Y-119485713D01*
X124154819Y-119199999D02*
X123154819Y-119199999D01*
X123154819Y-119199999D02*
X123297676Y-119295237D01*
X123297676Y-119295237D02*
X123392914Y-119390475D01*
X123392914Y-119390475D02*
X123440533Y-119485713D01*
D11*
X131409800Y-108333332D02*
X131457419Y-108190475D01*
X131457419Y-108190475D02*
X131457419Y-107952380D01*
X131457419Y-107952380D02*
X131409800Y-107857142D01*
X131409800Y-107857142D02*
X131362180Y-107809523D01*
X131362180Y-107809523D02*
X131266942Y-107761904D01*
X131266942Y-107761904D02*
X131171704Y-107761904D01*
X131171704Y-107761904D02*
X131076466Y-107809523D01*
X131076466Y-107809523D02*
X131028847Y-107857142D01*
X131028847Y-107857142D02*
X130981228Y-107952380D01*
X130981228Y-107952380D02*
X130933609Y-108142856D01*
X130933609Y-108142856D02*
X130885990Y-108238094D01*
X130885990Y-108238094D02*
X130838371Y-108285713D01*
X130838371Y-108285713D02*
X130743133Y-108333332D01*
X130743133Y-108333332D02*
X130647895Y-108333332D01*
X130647895Y-108333332D02*
X130552657Y-108285713D01*
X130552657Y-108285713D02*
X130505038Y-108238094D01*
X130505038Y-108238094D02*
X130457419Y-108142856D01*
X130457419Y-108142856D02*
X130457419Y-107904761D01*
X130457419Y-107904761D02*
X130505038Y-107761904D01*
X130457419Y-107428570D02*
X131457419Y-107190475D01*
X131457419Y-107190475D02*
X130743133Y-106999999D01*
X130743133Y-106999999D02*
X131457419Y-106809523D01*
X131457419Y-106809523D02*
X130457419Y-106571428D01*
X130552657Y-106238094D02*
X130505038Y-106190475D01*
X130505038Y-106190475D02*
X130457419Y-106095237D01*
X130457419Y-106095237D02*
X130457419Y-105857142D01*
X130457419Y-105857142D02*
X130505038Y-105761904D01*
X130505038Y-105761904D02*
X130552657Y-105714285D01*
X130552657Y-105714285D02*
X130647895Y-105666666D01*
X130647895Y-105666666D02*
X130743133Y-105666666D01*
X130743133Y-105666666D02*
X130885990Y-105714285D01*
X130885990Y-105714285D02*
X131457419Y-106285713D01*
X131457419Y-106285713D02*
X131457419Y-105666666D01*
D12*
%TO.C,R2*%
X126122936Y-112415000D02*
X126577064Y-112415000D01*
X126122936Y-113885000D02*
X126577064Y-113885000D01*
%TO.C,D1*%
X105512500Y-103420000D02*
X108197500Y-103420000D01*
X108197500Y-101500000D02*
X105512500Y-101500000D01*
X108197500Y-103420000D02*
X108197500Y-101500000D01*
%TO.C,R4*%
X110260436Y-104865000D02*
X110714564Y-104865000D01*
X110260436Y-106335000D02*
X110714564Y-106335000D01*
%TO.C,C8*%
X116630000Y-104261252D02*
X116630000Y-103738748D01*
X118100000Y-104261252D02*
X118100000Y-103738748D01*
%TO.C,C7*%
X108301248Y-124765000D02*
X108823752Y-124765000D01*
X108301248Y-126235000D02*
X108823752Y-126235000D01*
%TO.C,D2*%
X105512500Y-106605000D02*
X108197500Y-106605000D01*
X108197500Y-104685000D02*
X105512500Y-104685000D01*
X108197500Y-106605000D02*
X108197500Y-104685000D01*
%TO.C,R3*%
X110260436Y-101680000D02*
X110714564Y-101680000D01*
X110260436Y-103150000D02*
X110714564Y-103150000D01*
%TO.C,Reset1*%
X121500000Y-102420000D02*
X123900000Y-102420000D01*
X121500000Y-104820000D02*
X121500000Y-102420000D01*
X123900000Y-102420000D02*
X123900000Y-104820000D01*
X123900000Y-104820000D02*
X121500000Y-104820000D01*
%TO.C,C9*%
X131261252Y-117265000D02*
X130738748Y-117265000D01*
X131261252Y-118735000D02*
X130738748Y-118735000D01*
%TO.C,J1*%
X113850000Y-122630000D02*
X113850000Y-127930000D01*
X121580000Y-122630000D02*
X113850000Y-122630000D01*
X121580000Y-122630000D02*
X121580000Y-125280000D01*
X121580000Y-125280000D02*
X124230000Y-125280000D01*
X122850000Y-122630000D02*
X124230000Y-122630000D01*
X124230000Y-122630000D02*
X124230000Y-124010000D01*
X124230000Y-125280000D02*
X124230000Y-127930000D01*
X124230000Y-127930000D02*
X113850000Y-127930000D01*
%TO.C,C4*%
X114265000Y-104261252D02*
X114265000Y-103738748D01*
X115735000Y-104261252D02*
X115735000Y-103738748D01*
%TO.C,C3*%
X125888748Y-106165000D02*
X126411252Y-106165000D01*
X125888748Y-107635000D02*
X126411252Y-107635000D01*
%TO.C,Boot1*%
X129750000Y-113850000D02*
X132150000Y-113850000D01*
X129750000Y-116250000D02*
X129750000Y-113850000D01*
X132150000Y-113850000D02*
X132150000Y-116250000D01*
X132150000Y-116250000D02*
X129750000Y-116250000D01*
%TO.C,U1*%
X113990000Y-108740000D02*
X114440000Y-108740000D01*
X113990000Y-109190000D02*
X113990000Y-108740000D01*
X113990000Y-115510000D02*
X113990000Y-115960000D01*
X113990000Y-115960000D02*
X114440000Y-115960000D01*
X121210000Y-108740000D02*
X120760000Y-108740000D01*
X121210000Y-109190000D02*
X121210000Y-108740000D01*
X121210000Y-115510000D02*
X121210000Y-115960000D01*
X121210000Y-115960000D02*
X120760000Y-115960000D01*
X121230000Y-108490000D02*
X120760000Y-108150000D01*
X121230000Y-107810000D01*
X121230000Y-108490000D01*
G36*
X121230000Y-108490000D02*
G01*
X120760000Y-108150000D01*
X121230000Y-107810000D01*
X121230000Y-108490000D01*
G37*
%TO.C,C6*%
X108301248Y-122165000D02*
X108823752Y-122165000D01*
X108301248Y-123635000D02*
X108823752Y-123635000D01*
%TO.C,C5*%
X111815000Y-120013748D02*
X111815000Y-120536252D01*
X113285000Y-120013748D02*
X113285000Y-120536252D01*
%TO.C,SW1*%
D11*
X129200000Y-125200000D02*
X132800000Y-125200000D01*
X132800000Y-120800000D01*
X129200000Y-120800000D01*
X129200000Y-125200000D01*
D12*
%TO.C,R1*%
X118965000Y-103572936D02*
X118965000Y-104027064D01*
X120435000Y-103572936D02*
X120435000Y-104027064D01*
%TO.C,C2*%
X125888748Y-108365000D02*
X126411252Y-108365000D01*
X125888748Y-109835000D02*
X126411252Y-109835000D01*
%TO.C,C10*%
X130738748Y-111265000D02*
X131261252Y-111265000D01*
X130738748Y-112735000D02*
X131261252Y-112735000D01*
%TO.C,C11*%
X125888748Y-103965000D02*
X126411252Y-103965000D01*
X125888748Y-105435000D02*
X126411252Y-105435000D01*
%TO.C,C1*%
X120838748Y-118915000D02*
X121361252Y-118915000D01*
X120838748Y-120385000D02*
X121361252Y-120385000D01*
%TO.C,SW2*%
D11*
X129200000Y-109200000D02*
X132800000Y-109200000D01*
X132800000Y-104800000D01*
X129200000Y-104800000D01*
X129200000Y-109200000D01*
%TD*%
M02*
