%TF.GenerationSoftware,KiCad,Pcbnew,9.0.1*%
%TF.CreationDate,2025-08-08T13:51:02+02:00*%
%TF.ProjectId,remote,72656d6f-7465-42e6-9b69-6361645f7063,rev?*%
%TF.SameCoordinates,Original*%
%TF.FileFunction,Copper,L1,Top*%
%TF.FilePolarity,Positive*%
%FSLAX46Y46*%
G04 Gerber Fmt 4.6, Leading zero omitted, Abs format (unit mm)*
G04 Created by KiCad (PCBNEW 9.0.1) date 2025-08-08 13:51:02*
%MOMM*%
%LPD*%
G01*
G04 APERTURE LIST*
G04 Aperture macros list*
%AMRoundRect*
0 Rectangle with rounded corners*
0 $1 Rounding radius*
0 $2 $3 $4 $5 $6 $7 $8 $9 X,Y pos of 4 corners*
0 Add a 4 corners polygon primitive as box body*
4,1,4,$2,$3,$4,$5,$6,$7,$8,$9,$2,$3,0*
0 Add four circle primitives for the rounded corners*
1,1,$1+$1,$2,$3*
1,1,$1+$1,$4,$5*
1,1,$1+$1,$6,$7*
1,1,$1+$1,$8,$9*
0 Add four rect primitives between the rounded corners*
20,1,$1+$1,$2,$3,$4,$5,0*
20,1,$1+$1,$4,$5,$6,$7,0*
20,1,$1+$1,$6,$7,$8,$9,0*
20,1,$1+$1,$8,$9,$2,$3,0*%
G04 Aperture macros list end*
%TA.AperFunction,SMDPad,CuDef*%
%ADD10RoundRect,0.250000X-0.262500X-0.450000X0.262500X-0.450000X0.262500X0.450000X-0.262500X0.450000X0*%
%TD*%
%TA.AperFunction,SMDPad,CuDef*%
%ADD11RoundRect,0.243750X0.243750X0.456250X-0.243750X0.456250X-0.243750X-0.456250X0.243750X-0.456250X0*%
%TD*%
%TA.AperFunction,SMDPad,CuDef*%
%ADD12RoundRect,0.250000X0.475000X-0.337500X0.475000X0.337500X-0.475000X0.337500X-0.475000X-0.337500X0*%
%TD*%
%TA.AperFunction,SMDPad,CuDef*%
%ADD13RoundRect,0.250000X-0.337500X-0.475000X0.337500X-0.475000X0.337500X0.475000X-0.337500X0.475000X0*%
%TD*%
%TA.AperFunction,SMDPad,CuDef*%
%ADD14R,2.000000X2.000000*%
%TD*%
%TA.AperFunction,SMDPad,CuDef*%
%ADD15RoundRect,0.250000X0.337500X0.475000X-0.337500X0.475000X-0.337500X-0.475000X0.337500X-0.475000X0*%
%TD*%
%TA.AperFunction,ComponentPad*%
%ADD16R,1.700000X1.700000*%
%TD*%
%TA.AperFunction,ComponentPad*%
%ADD17C,1.700000*%
%TD*%
%TA.AperFunction,SMDPad,CuDef*%
%ADD18RoundRect,0.075000X-0.075000X0.662500X-0.075000X-0.662500X0.075000X-0.662500X0.075000X0.662500X0*%
%TD*%
%TA.AperFunction,SMDPad,CuDef*%
%ADD19RoundRect,0.075000X-0.662500X0.075000X-0.662500X-0.075000X0.662500X-0.075000X0.662500X0.075000X0*%
%TD*%
%TA.AperFunction,SMDPad,CuDef*%
%ADD20O,2.000000X0.600000*%
%TD*%
%TA.AperFunction,SMDPad,CuDef*%
%ADD21RoundRect,0.250000X-0.475000X0.337500X-0.475000X-0.337500X0.475000X-0.337500X0.475000X0.337500X0*%
%TD*%
%TA.AperFunction,SMDPad,CuDef*%
%ADD22RoundRect,0.120000X0.280000X-0.380000X0.280000X0.380000X-0.280000X0.380000X-0.280000X-0.380000X0*%
%TD*%
%TA.AperFunction,SMDPad,CuDef*%
%ADD23RoundRect,0.250000X-0.450000X0.262500X-0.450000X-0.262500X0.450000X-0.262500X0.450000X0.262500X0*%
%TD*%
%TA.AperFunction,ViaPad*%
%ADD24C,0.600000*%
%TD*%
%TA.AperFunction,Conductor*%
%ADD25C,0.300000*%
%TD*%
%TA.AperFunction,Conductor*%
%ADD26C,0.200000*%
%TD*%
G04 APERTURE END LIST*
D10*
%TO.P,R2,1*%
%TO.N,/BOOT*%
X125437500Y-113150000D03*
%TO.P,R2,2*%
%TO.N,GND*%
X127262500Y-113150000D03*
%TD*%
D11*
%TO.P,D1,1,K*%
%TO.N,Net-(D1-K)*%
X107450000Y-102460000D03*
%TO.P,D1,2,A*%
%TO.N,+3V3*%
X105575000Y-102460000D03*
%TD*%
D10*
%TO.P,R4,1*%
%TO.N,Net-(D2-K)*%
X109575000Y-105600000D03*
%TO.P,R4,2*%
%TO.N,/LED_GREEN*%
X111400000Y-105600000D03*
%TD*%
D12*
%TO.P,C8,1*%
%TO.N,/RESET*%
X117365000Y-105037500D03*
%TO.P,C8,2*%
%TO.N,GND*%
X117365000Y-102962500D03*
%TD*%
D13*
%TO.P,C7,1*%
%TO.N,+3V3*%
X107525000Y-125500000D03*
%TO.P,C7,2*%
%TO.N,GND*%
X109600000Y-125500000D03*
%TD*%
D11*
%TO.P,D2,1,K*%
%TO.N,Net-(D2-K)*%
X107450000Y-105645000D03*
%TO.P,D2,2,A*%
%TO.N,+3V3*%
X105575000Y-105645000D03*
%TD*%
D10*
%TO.P,R3,1*%
%TO.N,Net-(D1-K)*%
X109575000Y-102415000D03*
%TO.P,R3,2*%
%TO.N,/LED_RED*%
X111400000Y-102415000D03*
%TD*%
D14*
%TO.P,Reset1,1,1*%
%TO.N,/RESET*%
X122700000Y-103620000D03*
%TD*%
D15*
%TO.P,C9,1*%
%TO.N,GND*%
X132037500Y-118000000D03*
%TO.P,C9,2*%
%TO.N,/SW1*%
X129962500Y-118000000D03*
%TD*%
D16*
%TO.P,J1,1,Pin_1*%
%TO.N,/SWCLK*%
X122850000Y-124010000D03*
D17*
%TO.P,J1,2,Pin_2*%
%TO.N,+3V3*%
X122850000Y-126550000D03*
%TO.P,J1,3,Pin_3*%
%TO.N,/SWDIO*%
X120310000Y-124010000D03*
%TO.P,J1,4,Pin_4*%
%TO.N,GND*%
X120310000Y-126550000D03*
%TO.P,J1,5,Pin_5*%
%TO.N,/USART1_RX*%
X117770000Y-124010000D03*
%TO.P,J1,6,Pin_6*%
%TO.N,/SCL*%
X117770000Y-126550000D03*
%TO.P,J1,7,Pin_7*%
%TO.N,/USART1_TX*%
X115230000Y-124010000D03*
%TO.P,J1,8,Pin_8*%
%TO.N,/SDA*%
X115230000Y-126550000D03*
%TD*%
D12*
%TO.P,C4,1*%
%TO.N,+3V3*%
X115000000Y-105037500D03*
%TO.P,C4,2*%
%TO.N,GND*%
X115000000Y-102962500D03*
%TD*%
D13*
%TO.P,C3,1*%
%TO.N,+3V3*%
X125112500Y-106900000D03*
%TO.P,C3,2*%
%TO.N,GND*%
X127187500Y-106900000D03*
%TD*%
D14*
%TO.P,Boot1,1,1*%
%TO.N,/BOOT*%
X130950000Y-115050000D03*
%TD*%
D18*
%TO.P,U1,1,VDD*%
%TO.N,+3V3*%
X120350000Y-108187500D03*
%TO.P,U1,2,PC13*%
%TO.N,unconnected-(U1-PC13-Pad2)*%
X119850000Y-108187500D03*
%TO.P,U1,3,PC14*%
%TO.N,unconnected-(U1-PC14-Pad3)*%
X119350000Y-108187500D03*
%TO.P,U1,4,PC15*%
%TO.N,unconnected-(U1-PC15-Pad4)*%
X118850000Y-108187500D03*
%TO.P,U1,5,PH0*%
%TO.N,unconnected-(U1-PH0-Pad5)*%
X118350000Y-108187500D03*
%TO.P,U1,6,PH1*%
%TO.N,unconnected-(U1-PH1-Pad6)*%
X117850000Y-108187500D03*
%TO.P,U1,7,NRST*%
%TO.N,/RESET*%
X117350000Y-108187500D03*
%TO.P,U1,8,VSSA*%
%TO.N,GND*%
X116850000Y-108187500D03*
%TO.P,U1,9,VDDA*%
%TO.N,+3V3*%
X116350000Y-108187500D03*
%TO.P,U1,10,PA0*%
%TO.N,/ADC_V_EXT*%
X115850000Y-108187500D03*
%TO.P,U1,11,PA1*%
%TO.N,/LED_RED*%
X115350000Y-108187500D03*
%TO.P,U1,12,PA2*%
%TO.N,/LED_GREEN*%
X114850000Y-108187500D03*
D19*
%TO.P,U1,13,PA3*%
%TO.N,unconnected-(U1-PA3-Pad13)*%
X113437500Y-109600000D03*
%TO.P,U1,14,PA4*%
%TO.N,unconnected-(U1-PA4-Pad14)*%
X113437500Y-110100000D03*
%TO.P,U1,15,PA5*%
%TO.N,/SPI_SCK*%
X113437500Y-110600000D03*
%TO.P,U1,16,PA6*%
%TO.N,/SPI_MISO*%
X113437500Y-111100000D03*
%TO.P,U1,17,PA7*%
%TO.N,/SPI_MOSI*%
X113437500Y-111600000D03*
%TO.P,U1,18,PB0*%
%TO.N,/SPI_CSN*%
X113437500Y-112100000D03*
%TO.P,U1,19,PB1*%
%TO.N,/SPI_CE*%
X113437500Y-112600000D03*
%TO.P,U1,20,PB2*%
%TO.N,unconnected-(U1-PB2-Pad20)*%
X113437500Y-113100000D03*
%TO.P,U1,21,PB10*%
%TO.N,/SCL*%
X113437500Y-113600000D03*
%TO.P,U1,22,PB11*%
%TO.N,/SDA*%
X113437500Y-114100000D03*
%TO.P,U1,23,VSS*%
%TO.N,GND*%
X113437500Y-114600000D03*
%TO.P,U1,24,VDD*%
%TO.N,+3V3*%
X113437500Y-115100000D03*
D18*
%TO.P,U1,25,PB12*%
%TO.N,unconnected-(U1-PB12-Pad25)*%
X114850000Y-116512500D03*
%TO.P,U1,26,PB13*%
%TO.N,unconnected-(U1-PB13-Pad26)*%
X115350000Y-116512500D03*
%TO.P,U1,27,PB14*%
%TO.N,unconnected-(U1-PB14-Pad27)*%
X115850000Y-116512500D03*
%TO.P,U1,28,PB15*%
%TO.N,unconnected-(U1-PB15-Pad28)*%
X116350000Y-116512500D03*
%TO.P,U1,29,PA8*%
%TO.N,unconnected-(U1-PA8-Pad29)*%
X116850000Y-116512500D03*
%TO.P,U1,30,PA9*%
%TO.N,/USART1_TX*%
X117350000Y-116512500D03*
%TO.P,U1,31,PA10*%
%TO.N,/USART1_RX*%
X117850000Y-116512500D03*
%TO.P,U1,32,PA11*%
%TO.N,unconnected-(U1-PA11-Pad32)*%
X118350000Y-116512500D03*
%TO.P,U1,33,PA12*%
%TO.N,unconnected-(U1-PA12-Pad33)*%
X118850000Y-116512500D03*
%TO.P,U1,34,PA13*%
%TO.N,/SWDIO*%
X119350000Y-116512500D03*
%TO.P,U1,35,VSS*%
%TO.N,GND*%
X119850000Y-116512500D03*
%TO.P,U1,36,VDDIO2*%
%TO.N,+3V3*%
X120350000Y-116512500D03*
D19*
%TO.P,U1,37,PA14*%
%TO.N,/SWCLK*%
X121762500Y-115100000D03*
%TO.P,U1,38,PA15*%
%TO.N,/SW1*%
X121762500Y-114600000D03*
%TO.P,U1,39,PB3*%
%TO.N,unconnected-(U1-PB3-Pad39)*%
X121762500Y-114100000D03*
%TO.P,U1,40,PB4*%
%TO.N,unconnected-(U1-PB4-Pad40)*%
X121762500Y-113600000D03*
%TO.P,U1,41,PB5*%
%TO.N,unconnected-(U1-PB5-Pad41)*%
X121762500Y-113100000D03*
%TO.P,U1,42,PB6*%
%TO.N,unconnected-(U1-PB6-Pad42)*%
X121762500Y-112600000D03*
%TO.P,U1,43,PB7*%
%TO.N,unconnected-(U1-PB7-Pad43)*%
X121762500Y-112100000D03*
%TO.P,U1,44,BOOT0*%
%TO.N,/BOOT*%
X121762500Y-111600000D03*
%TO.P,U1,45,PB8*%
%TO.N,unconnected-(U1-PB8-Pad45)*%
X121762500Y-111100000D03*
%TO.P,U1,46,PB9*%
%TO.N,/SW2*%
X121762500Y-110600000D03*
%TO.P,U1,47,VSS*%
%TO.N,GND*%
X121762500Y-110100000D03*
%TO.P,U1,48,VDD*%
%TO.N,+3V3*%
X121762500Y-109600000D03*
%TD*%
D20*
%TO.P,NRF1,1,VCC*%
%TO.N,+3V3*%
X108937500Y-119445000D03*
%TO.P,NRF1,2,GND*%
%TO.N,GND*%
X108937500Y-118175000D03*
%TO.P,NRF1,3,CE*%
%TO.N,/SPI_CE*%
X108937500Y-116905000D03*
%TO.P,NRF1,4,CSN*%
%TO.N,/SPI_CSN*%
X108937500Y-115635000D03*
%TO.P,NRF1,5,SCK*%
%TO.N,/SPI_SCK*%
X108937500Y-114365000D03*
%TO.P,NRF1,6,MOSI*%
%TO.N,/SPI_MOSI*%
X108937500Y-113095000D03*
%TO.P,NRF1,7,MISO*%
%TO.N,/SPI_MISO*%
X108937500Y-111825000D03*
%TO.P,NRF1,8,IRQ*%
%TO.N,unconnected-(NRF1-IRQ-Pad8)*%
X108937500Y-110555000D03*
%TD*%
D13*
%TO.P,C6,1*%
%TO.N,+3V3*%
X107525000Y-122900000D03*
%TO.P,C6,2*%
%TO.N,GND*%
X109600000Y-122900000D03*
%TD*%
D21*
%TO.P,C5,1*%
%TO.N,+3V3*%
X112550000Y-119237500D03*
%TO.P,C5,2*%
%TO.N,GND*%
X112550000Y-121312500D03*
%TD*%
D22*
%TO.P,SW1,1,1*%
%TO.N,/SW1*%
X129200000Y-126000000D03*
%TO.P,SW1,2,2*%
%TO.N,GND*%
X132800000Y-120000000D03*
%TO.P,SW1,3*%
%TO.N,N/C*%
X132800000Y-126000000D03*
%TO.P,SW1,4*%
X129200000Y-120000000D03*
%TD*%
D23*
%TO.P,R1,1*%
%TO.N,+3V3*%
X119700000Y-102887500D03*
%TO.P,R1,2*%
%TO.N,/RESET*%
X119700000Y-104712500D03*
%TD*%
D13*
%TO.P,C2,1*%
%TO.N,+3V3*%
X125112500Y-109100000D03*
%TO.P,C2,2*%
%TO.N,GND*%
X127187500Y-109100000D03*
%TD*%
%TO.P,C10,1*%
%TO.N,/SW2*%
X129962500Y-112000000D03*
%TO.P,C10,2*%
%TO.N,GND*%
X132037500Y-112000000D03*
%TD*%
%TO.P,C11,1*%
%TO.N,+3V3*%
X125112500Y-104700000D03*
%TO.P,C11,2*%
%TO.N,GND*%
X127187500Y-104700000D03*
%TD*%
%TO.P,C1,1*%
%TO.N,+3V3*%
X120062500Y-119650000D03*
%TO.P,C1,2*%
%TO.N,GND*%
X122137500Y-119650000D03*
%TD*%
D22*
%TO.P,SW2,1,1*%
%TO.N,/SW2*%
X129200000Y-110000000D03*
%TO.P,SW2,2,2*%
%TO.N,GND*%
X132800000Y-104000000D03*
%TO.P,SW2,3*%
%TO.N,N/C*%
X132800000Y-110000000D03*
%TO.P,SW2,4*%
X129200000Y-104000000D03*
%TD*%
D24*
%TO.N,GND*%
X129800000Y-106100000D03*
%TO.N,+3V3*%
X117500000Y-121500000D03*
X111500000Y-118100000D03*
%TO.N,GND*%
X106900000Y-117700000D03*
X130800000Y-105700000D03*
%TO.N,+3V3*%
X132000000Y-102500000D03*
%TO.N,GND*%
X131400000Y-107500000D03*
%TO.N,+3V3*%
X105300000Y-122900000D03*
%TO.N,GND*%
X111400000Y-126100000D03*
X111500000Y-124600000D03*
X113350000Y-101800000D03*
X113200000Y-103275000D03*
X115300000Y-114500000D03*
X112750000Y-122775000D03*
X129975000Y-108125000D03*
X130850000Y-120025000D03*
X118875000Y-113950000D03*
X116900000Y-110200000D03*
X131750000Y-121850000D03*
X125650000Y-121175000D03*
X127650000Y-111775000D03*
X118575000Y-110225000D03*
X129500000Y-107225000D03*
%TD*%
D25*
%TO.N,GND*%
X128400000Y-104700000D02*
X129800000Y-106100000D01*
X127187500Y-104700000D02*
X128400000Y-104700000D01*
%TO.N,+3V3*%
X119350000Y-119650000D02*
X117500000Y-121500000D01*
X120062500Y-119650000D02*
X119350000Y-119650000D01*
X112550000Y-119150000D02*
X111500000Y-118100000D01*
X112550000Y-119237500D02*
X112550000Y-119150000D01*
D26*
%TO.N,/SDA*%
X110600000Y-121920000D02*
X115230000Y-126550000D01*
X112666176Y-114100000D02*
X110600000Y-116166176D01*
X110600000Y-116166176D02*
X110600000Y-121920000D01*
X113437500Y-114100000D02*
X112666176Y-114100000D01*
D25*
%TO.N,GND*%
X107375000Y-118175000D02*
X106900000Y-117700000D01*
X108937500Y-118175000D02*
X107375000Y-118175000D01*
X131100000Y-105700000D02*
X130800000Y-105700000D01*
X132800000Y-104000000D02*
X131100000Y-105700000D01*
%TO.N,+3V3*%
X125943000Y-102500000D02*
X132000000Y-102500000D01*
X125112500Y-103330500D02*
X125943000Y-102500000D01*
%TO.N,GND*%
X132037500Y-108137500D02*
X131400000Y-107500000D01*
X132037500Y-112000000D02*
X132037500Y-108137500D01*
%TO.N,+3V3*%
X117961500Y-101149000D02*
X112133370Y-101149000D01*
X119700000Y-102887500D02*
X117961500Y-101149000D01*
X112133370Y-101149000D02*
X111918370Y-101364000D01*
X106671000Y-101364000D02*
X105575000Y-102460000D01*
X112263500Y-103259154D02*
X112263500Y-101709130D01*
X112263500Y-101709130D02*
X111918370Y-101364000D01*
X111918370Y-101364000D02*
X106671000Y-101364000D01*
X114041846Y-105037500D02*
X112263500Y-103259154D01*
X115000000Y-105037500D02*
X114041846Y-105037500D01*
%TO.N,GND*%
X116850000Y-110150000D02*
X116900000Y-110200000D01*
X116850000Y-108187500D02*
X116850000Y-110150000D01*
%TO.N,+3V3*%
X120787500Y-101800000D02*
X119700000Y-102887500D01*
X123582000Y-101800000D02*
X120787500Y-101800000D01*
X125112500Y-104700000D02*
X125112500Y-103330500D01*
X125112500Y-103330500D02*
X123582000Y-101800000D01*
%TO.N,GND*%
X108937500Y-118175000D02*
X109675000Y-118175000D01*
X115200000Y-114600000D02*
X115300000Y-114500000D01*
X113437500Y-114600000D02*
X115200000Y-114600000D01*
%TO.N,+3V3*%
X105300000Y-122900000D02*
X105500000Y-122900000D01*
X107525000Y-122900000D02*
X105300000Y-122900000D01*
D26*
%TO.N,/SWDIO*%
X116599000Y-120168100D02*
X119350000Y-117417100D01*
X116599000Y-121948943D02*
X116599000Y-120168100D01*
X116951057Y-122301000D02*
X116599000Y-121948943D01*
X119350000Y-117417100D02*
X119350000Y-116512500D01*
X120310000Y-124010000D02*
X118601000Y-122301000D01*
X118601000Y-122301000D02*
X116951057Y-122301000D01*
%TO.N,/USART1_RX*%
X117850000Y-118350000D02*
X117850000Y-116512500D01*
X115700000Y-120500000D02*
X117850000Y-118350000D01*
X117770000Y-124010000D02*
X115700000Y-121940000D01*
X115700000Y-121940000D02*
X115700000Y-120500000D01*
%TO.N,/USART1_TX*%
X117350000Y-117850000D02*
X117350000Y-116512500D01*
X115230000Y-119970000D02*
X117350000Y-117850000D01*
X115230000Y-124010000D02*
X115230000Y-119970000D01*
X115300000Y-123940000D02*
X115230000Y-124010000D01*
%TO.N,/SPI_SCK*%
X107636500Y-111576058D02*
X108056558Y-111156000D01*
X111810876Y-111156000D02*
X112366876Y-110600000D01*
X107636500Y-113343942D02*
X107636500Y-111576058D01*
X108657558Y-114365000D02*
X107636500Y-113343942D01*
X108937500Y-114365000D02*
X108657558Y-114365000D01*
X108056558Y-111156000D02*
X111810876Y-111156000D01*
X112366876Y-110600000D02*
X113437500Y-110600000D01*
%TO.N,/SPI_MISO*%
X112617176Y-111149000D02*
X113388500Y-111149000D01*
X112567176Y-111199000D02*
X112617176Y-111149000D01*
X112334976Y-111199000D02*
X112567176Y-111199000D01*
X108937500Y-111825000D02*
X111708976Y-111825000D01*
X111708976Y-111825000D02*
X112334976Y-111199000D01*
X113388500Y-111149000D02*
X113437500Y-111100000D01*
%TO.N,/SPI_MOSI*%
X112501076Y-111600000D02*
X113437500Y-111600000D01*
X111006076Y-113095000D02*
X112501076Y-111600000D01*
X108937500Y-113095000D02*
X111006076Y-113095000D01*
%TO.N,/SPI_CSN*%
X112568176Y-112100000D02*
X113437500Y-112100000D01*
X109537500Y-115635000D02*
X111998000Y-113174500D01*
X111998000Y-113174500D02*
X111998000Y-112670176D01*
X108937500Y-115635000D02*
X109537500Y-115635000D01*
X111998000Y-112670176D02*
X112568176Y-112100000D01*
%TO.N,/SPI_CE*%
X112666176Y-112600000D02*
X113437500Y-112600000D01*
X112399000Y-113800076D02*
X112399000Y-112867176D01*
X109294076Y-116905000D02*
X112399000Y-113800076D01*
X112399000Y-112867176D02*
X112666176Y-112600000D01*
X108937500Y-116905000D02*
X109294076Y-116905000D01*
D25*
%TO.N,+3V3*%
X108937500Y-121487500D02*
X107525000Y-122900000D01*
X108937500Y-119445000D02*
X108937500Y-121487500D01*
%TO.N,GND*%
X110800000Y-125500000D02*
X111400000Y-126100000D01*
X109600000Y-125500000D02*
X110800000Y-125500000D01*
X111300000Y-124600000D02*
X111500000Y-124600000D01*
X109600000Y-122900000D02*
X111300000Y-124600000D01*
%TO.N,+3V3*%
X107525000Y-122900000D02*
X107525000Y-125500000D01*
D26*
%TO.N,/SCL*%
X114753240Y-125399000D02*
X115706760Y-125399000D01*
X115317119Y-115332824D02*
X114476000Y-115332824D01*
X113624310Y-124270070D02*
X114753240Y-125399000D01*
X115249942Y-113599999D02*
X115901000Y-114251057D01*
X115901000Y-114748943D02*
X115317119Y-115332824D01*
X115706760Y-125399000D02*
X117200000Y-126892240D01*
X113624310Y-116184514D02*
X113624310Y-124270070D01*
X113437500Y-113599999D02*
X115249942Y-113599999D01*
X115901000Y-114251057D02*
X115901000Y-114748943D01*
X114476000Y-115332824D02*
X113624310Y-116184514D01*
%TO.N,/SWCLK*%
X121249000Y-115613500D02*
X121762500Y-115100000D01*
X121249000Y-122409000D02*
X121249000Y-115613500D01*
X122850000Y-124010000D02*
X121249000Y-122409000D01*
D25*
%TO.N,GND*%
X116600000Y-101800000D02*
X116625000Y-101775000D01*
X124125000Y-119650000D02*
X125650000Y-121175000D01*
X118700000Y-110100000D02*
X118575000Y-110225000D01*
X122137500Y-119650000D02*
X124125000Y-119650000D01*
X116625000Y-101775000D02*
X117365000Y-102515000D01*
X117365000Y-102515000D02*
X117365000Y-102962500D01*
X127187500Y-109100000D02*
X129000000Y-109100000D01*
X112550000Y-121312500D02*
X112550000Y-122575000D01*
X129000000Y-109100000D02*
X129975000Y-108125000D01*
X127262500Y-113150000D02*
X127262500Y-112162500D01*
X113350000Y-101800000D02*
X116600000Y-101800000D01*
X129175000Y-106900000D02*
X129500000Y-107225000D01*
X132037500Y-118000000D02*
X132037500Y-118837500D01*
X119850000Y-116512500D02*
X119850000Y-114925000D01*
X127262500Y-112162500D02*
X127650000Y-111775000D01*
X115000000Y-102962500D02*
X113512500Y-102962500D01*
X121762500Y-110100000D02*
X118700000Y-110100000D01*
X112550000Y-122575000D02*
X112750000Y-122775000D01*
X127187500Y-106900000D02*
X129175000Y-106900000D01*
X132800000Y-120000000D02*
X132800000Y-120800000D01*
X119850000Y-114925000D02*
X118875000Y-113950000D01*
X131625000Y-121975000D02*
X131750000Y-121850000D01*
X113512500Y-102962500D02*
X113200000Y-103275000D01*
X132800000Y-120800000D02*
X131750000Y-121850000D01*
X132037500Y-118837500D02*
X130850000Y-120025000D01*
%TO.N,+3V3*%
X125112500Y-104700000D02*
X125112500Y-103362500D01*
X112550000Y-115987500D02*
X113437500Y-115100000D01*
X112550000Y-119237500D02*
X112550000Y-115987500D01*
X116350001Y-107299999D02*
X115000000Y-105949998D01*
X124612500Y-109600000D02*
X125112500Y-109100000D01*
X121637500Y-106900000D02*
X125112500Y-106900000D01*
X125112500Y-106900000D02*
X125112500Y-104700000D01*
X120062500Y-117687500D02*
X120062500Y-119650000D01*
X120350000Y-116512500D02*
X120350000Y-117400000D01*
X120350000Y-117400000D02*
X120062500Y-117687500D01*
X121762500Y-109600000D02*
X124612500Y-109600000D01*
X115000000Y-105949998D02*
X115000000Y-105037500D01*
X125112500Y-109100000D02*
X125112500Y-106900000D01*
X120350000Y-108187500D02*
X121637500Y-106900000D01*
X105575000Y-102460000D02*
X105575000Y-105645000D01*
X116350001Y-108187500D02*
X116350001Y-107299999D01*
D26*
%TO.N,/RESET*%
X117690000Y-104712500D02*
X117365000Y-105037500D01*
X117350000Y-105080000D02*
X117350000Y-108187500D01*
X117365000Y-105037500D02*
X117365000Y-105065000D01*
X120792500Y-103620000D02*
X119700000Y-104712500D01*
X122700000Y-103620000D02*
X120792500Y-103620000D01*
X117365000Y-105065000D02*
X117350000Y-105080000D01*
X119700000Y-104712500D02*
X117690000Y-104712500D01*
%TO.N,Net-(D1-K)*%
X109575000Y-102415000D02*
X107495000Y-102415000D01*
X107495000Y-102415000D02*
X107450000Y-102460000D01*
%TO.N,Net-(D2-K)*%
X107495000Y-105600000D02*
X107450000Y-105645000D01*
X109575000Y-105600000D02*
X107495000Y-105600000D01*
%TO.N,/BOOT*%
X123887500Y-111600000D02*
X121762500Y-111600000D01*
X130950000Y-115050000D02*
X127337500Y-115050000D01*
X125437500Y-113150000D02*
X123887500Y-111600000D01*
X127337500Y-115050000D02*
X125437500Y-113150000D01*
%TO.N,/USART1_RX*%
X117850000Y-123930000D02*
X117770000Y-124010000D01*
%TO.N,/LED_RED*%
X111400000Y-103115000D02*
X115350000Y-107065000D01*
X111400000Y-102415000D02*
X111400000Y-103115000D01*
X115350000Y-107065000D02*
X115350000Y-108187500D01*
%TO.N,/LED_GREEN*%
X111400000Y-105600000D02*
X112262500Y-105600000D01*
X112262500Y-105600000D02*
X114850000Y-108187500D01*
%TO.N,/SW1*%
X129962500Y-118000000D02*
X125933824Y-118000000D01*
X122533824Y-114600000D02*
X121762500Y-114600000D01*
X129962500Y-125237500D02*
X129200000Y-126000000D01*
X129962500Y-118000000D02*
X129962500Y-125237500D01*
X125933824Y-118000000D02*
X122533824Y-114600000D01*
%TO.N,/SW2*%
X129962500Y-112000000D02*
X129962500Y-110762500D01*
X129200000Y-110000000D02*
X128600000Y-110600000D01*
X129962500Y-110762500D02*
X129200000Y-110000000D01*
X128600000Y-110600000D02*
X121762500Y-110600000D01*
%TD*%
M02*
