M48
; DRILL file {KiCad 9.0.1} date 2025-08-08T13:51:08+0200
; FORMAT={-:-/ absolute / metric / decimal}
; #@! TF.CreationDate,2025-08-08T13:51:08+02:00
; #@! TF.GenerationSoftware,Kicad,Pcbnew,9.0.1
; #@! TF.FileFunction,Plated,1,2,PTH
FMAT,2
METRIC
; #@! TA.AperFunction,Plated,PTH,ViaDrill
T1C0.300
; #@! TA.AperFunction,Plated,PTH,ComponentDrill
T2C1.000
%
G90
G05
T1
X105.3Y-122.9
X106.9Y-117.7
X111.4Y-126.1
X111.5Y-118.1
X111.5Y-124.6
X112.75Y-122.775
X113.2Y-103.275
X113.35Y-101.8
X115.3Y-114.5
X116.9Y-110.2
X117.5Y-121.5
X118.575Y-110.225
X118.875Y-113.95
X125.65Y-121.175
X127.65Y-111.775
X129.5Y-107.225
X129.8Y-106.1
X129.975Y-108.125
X130.8Y-105.7
X130.85Y-120.025
X131.4Y-107.5
X131.75Y-121.85
X132.0Y-102.5
T2
X115.23Y-124.01
X115.23Y-126.55
X117.77Y-124.01
X117.77Y-126.55
X120.31Y-124.01
X120.31Y-126.55
X122.85Y-124.01
X122.85Y-126.55
M30
